G04 #@! TF.GenerationSoftware,KiCad,Pcbnew,8.0.3*
G04 #@! TF.CreationDate,2024-07-15T22:14:38+10:00*
G04 #@! TF.ProjectId,rs-probe,72732d70-726f-4626-952e-6b696361645f,rev?*
G04 #@! TF.SameCoordinates,Original*
G04 #@! TF.FileFunction,Legend,Bot*
G04 #@! TF.FilePolarity,Positive*
%FSLAX46Y46*%
G04 Gerber Fmt 4.6, Leading zero omitted, Abs format (unit mm)*
G04 Created by KiCad (PCBNEW 8.0.3) date 2024-07-15 22:14:38*
%MOMM*%
%LPD*%
G01*
G04 APERTURE LIST*
%ADD10C,0.100000*%
%ADD11C,0.200000*%
%ADD12C,0.000000*%
%ADD13C,0.650000*%
%ADD14O,2.100000X1.000000*%
%ADD15O,1.600000X1.000000*%
%ADD16C,1.000000*%
G04 APERTURE END LIST*
D10*
X187883332Y-83909800D02*
X187740475Y-83957419D01*
X187740475Y-83957419D02*
X187502380Y-83957419D01*
X187502380Y-83957419D02*
X187407142Y-83909800D01*
X187407142Y-83909800D02*
X187359523Y-83862180D01*
X187359523Y-83862180D02*
X187311904Y-83766942D01*
X187311904Y-83766942D02*
X187311904Y-83671704D01*
X187311904Y-83671704D02*
X187359523Y-83576466D01*
X187359523Y-83576466D02*
X187407142Y-83528847D01*
X187407142Y-83528847D02*
X187502380Y-83481228D01*
X187502380Y-83481228D02*
X187692856Y-83433609D01*
X187692856Y-83433609D02*
X187788094Y-83385990D01*
X187788094Y-83385990D02*
X187835713Y-83338371D01*
X187835713Y-83338371D02*
X187883332Y-83243133D01*
X187883332Y-83243133D02*
X187883332Y-83147895D01*
X187883332Y-83147895D02*
X187835713Y-83052657D01*
X187835713Y-83052657D02*
X187788094Y-83005038D01*
X187788094Y-83005038D02*
X187692856Y-82957419D01*
X187692856Y-82957419D02*
X187454761Y-82957419D01*
X187454761Y-82957419D02*
X187311904Y-83005038D01*
X186978570Y-82957419D02*
X186740475Y-83957419D01*
X186740475Y-83957419D02*
X186549999Y-83243133D01*
X186549999Y-83243133D02*
X186359523Y-83957419D01*
X186359523Y-83957419D02*
X186121428Y-82957419D01*
X185216666Y-83957419D02*
X185788094Y-83957419D01*
X185502380Y-83957419D02*
X185502380Y-82957419D01*
X185502380Y-82957419D02*
X185597618Y-83100276D01*
X185597618Y-83100276D02*
X185692856Y-83195514D01*
X185692856Y-83195514D02*
X185788094Y-83243133D01*
%LPC*%
D11*
X187917500Y-83700000D02*
X185182500Y-83700000D01*
X187917500Y-84299984D02*
X185182500Y-84299984D01*
X185182500Y-83700000D02*
G75*
G02*
X187917500Y-83700000I1367500J-363189D01*
G01*
X187917500Y-84299984D02*
G75*
G02*
X185182500Y-84299984I-1367500J363189D01*
G01*
D12*
G36*
X187150000Y-82800000D02*
G01*
X187550000Y-83100000D01*
X187917500Y-83700000D01*
X185182500Y-83700000D01*
X185550000Y-83100000D01*
X185950000Y-82800000D01*
X186550000Y-82648282D01*
X187150000Y-82800000D01*
G37*
G36*
X187550000Y-84899984D02*
G01*
X187150000Y-85199984D01*
X186550000Y-85351702D01*
X185950000Y-85199984D01*
X185550000Y-84899984D01*
X185182500Y-84299984D01*
X187917500Y-84299984D01*
X187550000Y-84899984D01*
G37*
D13*
X182900000Y-88890000D03*
X182900000Y-83110000D03*
D14*
X182370000Y-90320000D03*
D15*
X186550000Y-90320000D03*
D14*
X182370000Y-81680000D03*
D15*
X186550000Y-81680000D03*
D16*
X186550000Y-83999950D03*
%LPD*%
M02*
