G04 #@! TF.GenerationSoftware,KiCad,Pcbnew,8.0.3*
G04 #@! TF.CreationDate,2024-07-15T22:14:38+10:00*
G04 #@! TF.ProjectId,rs-probe,72732d70-726f-4626-952e-6b696361645f,rev?*
G04 #@! TF.SameCoordinates,Original*
G04 #@! TF.FileFunction,Paste,Top*
G04 #@! TF.FilePolarity,Positive*
%FSLAX46Y46*%
G04 Gerber Fmt 4.6, Leading zero omitted, Abs format (unit mm)*
G04 Created by KiCad (PCBNEW 8.0.3) date 2024-07-15 22:14:38*
%MOMM*%
%LPD*%
G01*
G04 APERTURE LIST*
G04 Aperture macros list*
%AMRoundRect*
0 Rectangle with rounded corners*
0 $1 Rounding radius*
0 $2 $3 $4 $5 $6 $7 $8 $9 X,Y pos of 4 corners*
0 Add a 4 corners polygon primitive as box body*
4,1,4,$2,$3,$4,$5,$6,$7,$8,$9,$2,$3,0*
0 Add four circle primitives for the rounded corners*
1,1,$1+$1,$2,$3*
1,1,$1+$1,$4,$5*
1,1,$1+$1,$6,$7*
1,1,$1+$1,$8,$9*
0 Add four rect primitives between the rounded corners*
20,1,$1+$1,$2,$3,$4,$5,0*
20,1,$1+$1,$4,$5,$6,$7,0*
20,1,$1+$1,$6,$7,$8,$9,0*
20,1,$1+$1,$8,$9,$2,$3,0*%
G04 Aperture macros list end*
%ADD10C,0.500000*%
%ADD11C,0.100000*%
%ADD12RoundRect,0.185000X-1.015000X-0.185000X1.015000X-0.185000X1.015000X0.185000X-1.015000X0.185000X0*%
%ADD13RoundRect,0.150000X0.575000X-0.150000X0.575000X0.150000X-0.575000X0.150000X-0.575000X-0.150000X0*%
%ADD14O,1.450000X0.300000*%
%ADD15RoundRect,0.125000X0.200000X0.000010X-0.200000X0.000010X-0.200000X-0.000010X0.200000X-0.000010X0*%
%ADD16RoundRect,0.075000X0.075000X1.875000X-0.075000X1.875000X-0.075000X-1.875000X0.075000X-1.875000X0*%
%ADD17RoundRect,0.137500X0.137500X-0.137500X0.137500X0.137500X-0.137500X0.137500X-0.137500X-0.137500X0*%
%ADD18RoundRect,0.137500X-0.137500X-0.137500X0.137500X-0.137500X0.137500X0.137500X-0.137500X0.137500X0*%
%ADD19RoundRect,0.250000X-0.292217X0.292217X-0.292217X-0.292217X0.292217X-0.292217X0.292217X0.292217X0*%
%ADD20RoundRect,0.050000X-0.050000X0.387500X-0.050000X-0.387500X0.050000X-0.387500X0.050000X0.387500X0*%
%ADD21RoundRect,0.050000X-0.387500X0.050000X-0.387500X-0.050000X0.387500X-0.050000X0.387500X0.050000X0*%
%ADD22RoundRect,0.137500X0.137500X0.137500X-0.137500X0.137500X-0.137500X-0.137500X0.137500X-0.137500X0*%
%ADD23RoundRect,0.067500X-0.097500X-0.067500X0.097500X-0.067500X0.097500X0.067500X-0.097500X0.067500X0*%
%ADD24RoundRect,0.147500X-0.147500X-0.172500X0.147500X-0.172500X0.147500X0.172500X-0.147500X0.172500X0*%
%ADD25RoundRect,0.137500X-0.137500X0.137500X-0.137500X-0.137500X0.137500X-0.137500X0.137500X0.137500X0*%
%ADD26RoundRect,0.075000X-0.150000X-0.075000X0.150000X-0.075000X0.150000X0.075000X-0.150000X0.075000X0*%
%ADD27RoundRect,0.067500X-0.067500X0.097500X-0.067500X-0.097500X0.067500X-0.097500X0.067500X0.097500X0*%
%ADD28RoundRect,0.060000X0.130000X-0.060000X0.130000X0.060000X-0.130000X0.060000X-0.130000X-0.060000X0*%
%ADD29RoundRect,0.062500X0.087500X-0.062500X0.087500X0.062500X-0.087500X0.062500X-0.087500X-0.062500X0*%
%ADD30R,0.650000X0.850000*%
%ADD31O,0.250000X0.600000*%
%ADD32R,1.600000X0.200000*%
%ADD33RoundRect,0.067500X0.097500X0.067500X-0.097500X0.067500X-0.097500X-0.067500X0.097500X-0.067500X0*%
%ADD34RoundRect,0.067500X0.067500X-0.097500X0.067500X0.097500X-0.067500X0.097500X-0.067500X-0.097500X0*%
%ADD35RoundRect,0.218750X0.218750X0.256250X-0.218750X0.256250X-0.218750X-0.256250X0.218750X-0.256250X0*%
%ADD36RoundRect,0.175000X-0.175000X0.275000X-0.175000X-0.275000X0.175000X-0.275000X0.175000X0.275000X0*%
G04 APERTURE END LIST*
D10*
X183170000Y-90320000D02*
G75*
G02*
X182670000Y-90320000I-250000J0D01*
G01*
X182670000Y-90320000D02*
G75*
G02*
X183170000Y-90320000I250000J0D01*
G01*
D11*
X181820000Y-81230000D02*
X182920000Y-81230000D01*
X182920000Y-82130000D01*
X181820000Y-82130000D01*
X181820000Y-81230000D01*
G36*
X181820000Y-81230000D02*
G01*
X182920000Y-81230000D01*
X182920000Y-82130000D01*
X181820000Y-82130000D01*
X181820000Y-81230000D01*
G37*
D10*
X182070000Y-81680000D02*
G75*
G02*
X181570000Y-81680000I-250000J0D01*
G01*
X181570000Y-81680000D02*
G75*
G02*
X182070000Y-81680000I250000J0D01*
G01*
X182070000Y-90320000D02*
G75*
G02*
X181570000Y-90320000I-250000J0D01*
G01*
X181570000Y-90320000D02*
G75*
G02*
X182070000Y-90320000I250000J0D01*
G01*
X186500000Y-90320000D02*
G75*
G02*
X186000000Y-90320000I-250000J0D01*
G01*
X186000000Y-90320000D02*
G75*
G02*
X186500000Y-90320000I250000J0D01*
G01*
D11*
X186250000Y-81230000D02*
X186850000Y-81230000D01*
X186850000Y-82130000D01*
X186250000Y-82130000D01*
X186250000Y-81230000D01*
G36*
X186250000Y-81230000D02*
G01*
X186850000Y-81230000D01*
X186850000Y-82130000D01*
X186250000Y-82130000D01*
X186250000Y-81230000D01*
G37*
D10*
X186500000Y-81680000D02*
G75*
G02*
X186000000Y-81680000I-250000J0D01*
G01*
X186000000Y-81680000D02*
G75*
G02*
X186500000Y-81680000I250000J0D01*
G01*
D11*
X186250000Y-89870000D02*
X186850000Y-89870000D01*
X186850000Y-90770000D01*
X186250000Y-90770000D01*
X186250000Y-89870000D01*
G36*
X186250000Y-89870000D02*
G01*
X186850000Y-89870000D01*
X186850000Y-90770000D01*
X186250000Y-90770000D01*
X186250000Y-89870000D01*
G37*
D10*
X187100000Y-90320000D02*
G75*
G02*
X186600000Y-90320000I-250000J0D01*
G01*
X186600000Y-90320000D02*
G75*
G02*
X187100000Y-90320000I250000J0D01*
G01*
X187100000Y-81680000D02*
G75*
G02*
X186600000Y-81680000I-250000J0D01*
G01*
X186600000Y-81680000D02*
G75*
G02*
X187100000Y-81680000I250000J0D01*
G01*
X183170000Y-81680000D02*
G75*
G02*
X182670000Y-81680000I-250000J0D01*
G01*
X182670000Y-81680000D02*
G75*
G02*
X183170000Y-81680000I250000J0D01*
G01*
D11*
X181820000Y-89870000D02*
X182920000Y-89870000D01*
X182920000Y-90770000D01*
X181820000Y-90770000D01*
X181820000Y-89870000D01*
G36*
X181820000Y-89870000D02*
G01*
X182920000Y-89870000D01*
X182920000Y-90770000D01*
X181820000Y-90770000D01*
X181820000Y-89870000D01*
G37*
D12*
X150550000Y-83460000D03*
X154450000Y-83460000D03*
X150550000Y-84730000D03*
X154450000Y-84730000D03*
X150550000Y-86000000D03*
X154450000Y-86000000D03*
X150550000Y-87270000D03*
X154450000Y-87270000D03*
X150550000Y-88540000D03*
X154450000Y-88540000D03*
D13*
X181455000Y-89250000D03*
X181455000Y-88450000D03*
D14*
X181455000Y-87250000D03*
X181455000Y-86250000D03*
X181455000Y-85750000D03*
X181455000Y-84750000D03*
D13*
X181455000Y-83550000D03*
X181455000Y-82750000D03*
X181455000Y-82750000D03*
X181455000Y-83550000D03*
D14*
X181455000Y-84250000D03*
X181455000Y-85250000D03*
X181455000Y-86750000D03*
X181455000Y-87750000D03*
D13*
X181455000Y-88450000D03*
X181455000Y-89250000D03*
D15*
X159877328Y-88400000D03*
X159877328Y-87900000D03*
X159877328Y-87400000D03*
X159877328Y-86900000D03*
X159877328Y-86400000D03*
X159877328Y-85900000D03*
X159877328Y-85400000D03*
X159877328Y-84900000D03*
X158227328Y-84900000D03*
X158227328Y-85400000D03*
X158227328Y-85900000D03*
X158227328Y-86400000D03*
X158227328Y-86900000D03*
X158227328Y-87400000D03*
X158227328Y-87900000D03*
X158227328Y-88400000D03*
D16*
X159052328Y-86650000D03*
D17*
X160450000Y-82050000D03*
X160450000Y-81150000D03*
D18*
X156500000Y-91850000D03*
X157400000Y-91850000D03*
D17*
X179300000Y-84050000D03*
X179300000Y-83150000D03*
D19*
X172637500Y-86762500D03*
X171362500Y-86762500D03*
X172637500Y-88037500D03*
X171362500Y-88037500D03*
D20*
X174600000Y-83962500D03*
X174200000Y-83962500D03*
X173800000Y-83962500D03*
X173400000Y-83962500D03*
X173000000Y-83962500D03*
X172600000Y-83962500D03*
X172200000Y-83962500D03*
X171800000Y-83962500D03*
X171400000Y-83962500D03*
X171000000Y-83962500D03*
X170600000Y-83962500D03*
X170200000Y-83962500D03*
X169800000Y-83962500D03*
X169400000Y-83962500D03*
D21*
X168562500Y-84800000D03*
X168562500Y-85200000D03*
X168562500Y-85600000D03*
X168562500Y-86000000D03*
X168562500Y-86400000D03*
X168562500Y-86800000D03*
X168562500Y-87200000D03*
X168562500Y-87600000D03*
X168562500Y-88000000D03*
X168562500Y-88400000D03*
X168562500Y-88800000D03*
X168562500Y-89200000D03*
X168562500Y-89600000D03*
X168562500Y-90000000D03*
D20*
X169400000Y-90837500D03*
X169800000Y-90837500D03*
X170200000Y-90837500D03*
X170600000Y-90837500D03*
X171000000Y-90837500D03*
X171400000Y-90837500D03*
X171800000Y-90837500D03*
X172200000Y-90837500D03*
X172600000Y-90837500D03*
X173000000Y-90837500D03*
X173400000Y-90837500D03*
X173800000Y-90837500D03*
X174200000Y-90837500D03*
X174600000Y-90837500D03*
D21*
X175437500Y-90000000D03*
X175437500Y-89600000D03*
X175437500Y-89200000D03*
X175437500Y-88800000D03*
X175437500Y-88400000D03*
X175437500Y-88000000D03*
X175437500Y-87600000D03*
X175437500Y-87200000D03*
X175437500Y-86800000D03*
X175437500Y-86400000D03*
X175437500Y-86000000D03*
X175437500Y-85600000D03*
X175437500Y-85200000D03*
X175437500Y-84800000D03*
D22*
X167350000Y-83100000D03*
X166450000Y-83100000D03*
D23*
X160960000Y-84900000D03*
X160960000Y-85400000D03*
X160960000Y-85900000D03*
X161640000Y-85900000D03*
X161640000Y-85400000D03*
X161640000Y-84900000D03*
D22*
X172650000Y-92200000D03*
X171750000Y-92200000D03*
D24*
X180665000Y-79900000D03*
X181635000Y-79900000D03*
D25*
X176400000Y-81450000D03*
X176400000Y-82350000D03*
D17*
X163217328Y-83900000D03*
X163217328Y-83000000D03*
D18*
X162977328Y-87000000D03*
X163877328Y-87000000D03*
D17*
X154550000Y-82125000D03*
X154550000Y-81225000D03*
X158150000Y-92250000D03*
X158150000Y-91350000D03*
D22*
X157400000Y-91040000D03*
X156500000Y-91040000D03*
D25*
X159550000Y-80350000D03*
X159550000Y-81250000D03*
D22*
X167450000Y-86700000D03*
X166550000Y-86700000D03*
D26*
X178500000Y-79700000D03*
X178500000Y-80200000D03*
X178500000Y-80700000D03*
X179900000Y-80700000D03*
X179900000Y-80200000D03*
X179900000Y-79700000D03*
D27*
X162077328Y-86900000D03*
X161577328Y-86900000D03*
X161077328Y-86900000D03*
X161077328Y-87580000D03*
X161577328Y-87580000D03*
X162077328Y-87580000D03*
D22*
X170650000Y-92200000D03*
X169750000Y-92200000D03*
D18*
X162977328Y-87800000D03*
X163877328Y-87800000D03*
D25*
X153700000Y-81225000D03*
X153700000Y-82125000D03*
X150300000Y-80250000D03*
X150300000Y-81150000D03*
X177725000Y-81475000D03*
X177725000Y-82375000D03*
D22*
X161250000Y-80350000D03*
X160350000Y-80350000D03*
D17*
X161250000Y-82050000D03*
X161250000Y-81150000D03*
D22*
X158750000Y-82950000D03*
X157850000Y-82950000D03*
D18*
X176350000Y-90800000D03*
X177250000Y-90800000D03*
D28*
X158065000Y-80775000D03*
X158535000Y-80775000D03*
D29*
X157900000Y-81250000D03*
X158300000Y-81250000D03*
X158700000Y-81250000D03*
X158700000Y-80300000D03*
X158300000Y-80300000D03*
X157900000Y-80300000D03*
D17*
X161617328Y-83900000D03*
X161617328Y-83000000D03*
D25*
X157000000Y-80300000D03*
X157000000Y-81200000D03*
D17*
X149500000Y-81150000D03*
X149500000Y-80250000D03*
D18*
X184650000Y-91800000D03*
X185550000Y-91800000D03*
D17*
X156200000Y-82125000D03*
X156200000Y-81225000D03*
D23*
X162560000Y-84900000D03*
X162560000Y-85400000D03*
X162560000Y-85900000D03*
X163240000Y-85900000D03*
X163240000Y-85400000D03*
X163240000Y-84900000D03*
D30*
X179525000Y-92225000D03*
X178675000Y-92225000D03*
X178675000Y-90775000D03*
X179525000Y-90775000D03*
D18*
X176350000Y-89200000D03*
X177250000Y-89200000D03*
D22*
X152900000Y-82075000D03*
X152000000Y-82075000D03*
X158750000Y-83750000D03*
X157850000Y-83750000D03*
D17*
X175600000Y-82350000D03*
X175600000Y-81450000D03*
D31*
X178350000Y-83300000D03*
X177850000Y-83300000D03*
X177350000Y-83300000D03*
X176850000Y-83300000D03*
X176850000Y-86000000D03*
X177350000Y-86000000D03*
X177850000Y-86000000D03*
X178350000Y-86000000D03*
D32*
X177600000Y-84650000D03*
D18*
X175050000Y-83100000D03*
X175950000Y-83100000D03*
D25*
X152900000Y-80325000D03*
X152900000Y-81225000D03*
D17*
X162417328Y-83900000D03*
X162417328Y-83000000D03*
D26*
X178400000Y-88100000D03*
X178400000Y-88600000D03*
X178400000Y-89100000D03*
X179800000Y-89100000D03*
X179800000Y-88600000D03*
X179800000Y-88100000D03*
D22*
X157150000Y-87270000D03*
X156250000Y-87270000D03*
D17*
X159750000Y-90500000D03*
X159750000Y-89600000D03*
D22*
X157150000Y-84730000D03*
X156250000Y-84730000D03*
D28*
X151365000Y-80725000D03*
X151835000Y-80725000D03*
D29*
X151200000Y-81200000D03*
X151600000Y-81200000D03*
X152000000Y-81200000D03*
X152000000Y-80250000D03*
X151600000Y-80250000D03*
X151200000Y-80250000D03*
D33*
X158900000Y-90500000D03*
X158900000Y-90000000D03*
X158900000Y-89500000D03*
X158220000Y-89500000D03*
X158220000Y-90000000D03*
X158220000Y-90500000D03*
D22*
X174300000Y-92200000D03*
X173400000Y-92200000D03*
X177550000Y-92200000D03*
X176650000Y-92200000D03*
D34*
X159600000Y-83700000D03*
X160100000Y-83700000D03*
X160600000Y-83700000D03*
X160600000Y-83020000D03*
X160100000Y-83020000D03*
X159600000Y-83020000D03*
D18*
X155250000Y-80325000D03*
X156150000Y-80325000D03*
X162950000Y-89560000D03*
X163850000Y-89560000D03*
D22*
X167450000Y-88300000D03*
X166550000Y-88300000D03*
X157850000Y-82050000D03*
X156950000Y-82050000D03*
D18*
X176350000Y-87200000D03*
X177250000Y-87200000D03*
D22*
X157150000Y-83460000D03*
X156250000Y-83460000D03*
D17*
X164017328Y-83900000D03*
X164017328Y-83000000D03*
D18*
X162950000Y-88760000D03*
X163850000Y-88760000D03*
X176350000Y-90000000D03*
X177250000Y-90000000D03*
D17*
X179200000Y-86000000D03*
X179200000Y-85100000D03*
D24*
X150230000Y-82075000D03*
X151200000Y-82075000D03*
D18*
X158750000Y-82050000D03*
X159650000Y-82050000D03*
D25*
X157100000Y-88750000D03*
X157100000Y-89650000D03*
D18*
X178950000Y-81500000D03*
X179850000Y-81500000D03*
D17*
X155400000Y-82125000D03*
X155400000Y-81225000D03*
D35*
X187700000Y-79900000D03*
X186125000Y-79900000D03*
D22*
X175950000Y-92200000D03*
X175050000Y-92200000D03*
D27*
X162077328Y-88500000D03*
X161577328Y-88500000D03*
X161077328Y-88500000D03*
X161077328Y-89180000D03*
X161577328Y-89180000D03*
X162077328Y-89180000D03*
D25*
X177800000Y-79650000D03*
X177800000Y-80550000D03*
D22*
X167450000Y-87500000D03*
X166550000Y-87500000D03*
D36*
X166150000Y-84000000D03*
X166150000Y-85800000D03*
X167650000Y-85775000D03*
X167650000Y-84025000D03*
D22*
X179850000Y-82300000D03*
X178950000Y-82300000D03*
X183850000Y-91800000D03*
X182950000Y-91800000D03*
X185000000Y-79900000D03*
X184100000Y-79900000D03*
D28*
X176240001Y-80199999D03*
X176710001Y-80199999D03*
D29*
X176075001Y-80674999D03*
X176475001Y-80674999D03*
X176875001Y-80674999D03*
X176875001Y-79724999D03*
X176475001Y-79724999D03*
X176075001Y-79724999D03*
D22*
X154550000Y-80325000D03*
X153650000Y-80325000D03*
X183350000Y-79900000D03*
X182450000Y-79900000D03*
D25*
X156300000Y-88750000D03*
X156300000Y-89650000D03*
X162100000Y-80350000D03*
X162100000Y-81250000D03*
D18*
X176350000Y-88000000D03*
X177250000Y-88000000D03*
D22*
X157150000Y-86000000D03*
X156250000Y-86000000D03*
M02*
