G04 #@! TF.GenerationSoftware,KiCad,Pcbnew,8.0.3*
G04 #@! TF.CreationDate,2024-07-15T22:14:37+10:00*
G04 #@! TF.ProjectId,rs-probe,72732d70-726f-4626-952e-6b696361645f,rev?*
G04 #@! TF.SameCoordinates,Original*
G04 #@! TF.FileFunction,Copper,L2,Inr*
G04 #@! TF.FilePolarity,Positive*
%FSLAX46Y46*%
G04 Gerber Fmt 4.6, Leading zero omitted, Abs format (unit mm)*
G04 Created by KiCad (PCBNEW 8.0.3) date 2024-07-15 22:14:37*
%MOMM*%
%LPD*%
G01*
G04 APERTURE LIST*
G04 #@! TA.AperFunction,ComponentPad*
%ADD10O,2.100000X1.000000*%
G04 #@! TD*
G04 #@! TA.AperFunction,ComponentPad*
%ADD11O,1.600000X1.000000*%
G04 #@! TD*
G04 #@! TA.AperFunction,ComponentPad*
%ADD12C,0.600000*%
G04 #@! TD*
G04 #@! TA.AperFunction,ViaPad*
%ADD13C,0.450000*%
G04 #@! TD*
G04 APERTURE END LIST*
D10*
X182370000Y-90320000D03*
D11*
X186550000Y-90320000D03*
D10*
X182370000Y-81680000D03*
D11*
X186550000Y-81680000D03*
D12*
X173275000Y-86125000D03*
X172000000Y-86125000D03*
X170725000Y-86125000D03*
X173275000Y-87400000D03*
X172000000Y-87400000D03*
X170725000Y-87400000D03*
X173275000Y-88675000D03*
X172000000Y-88675000D03*
X170725000Y-88675000D03*
D13*
X179300000Y-91600000D03*
X175660000Y-91910000D03*
X184000000Y-87800000D03*
X160350000Y-80350000D03*
X157150000Y-86000000D03*
X178587220Y-84648881D03*
X169200000Y-86400000D03*
X173150000Y-89700000D03*
X157150000Y-84730000D03*
X166550000Y-86700000D03*
X150550000Y-84730000D03*
X172000000Y-89700000D03*
X179350000Y-79425000D03*
X166150000Y-85800000D03*
X177250000Y-89200000D03*
X160661088Y-85400000D03*
X161617328Y-83000000D03*
X177250000Y-88000000D03*
X182900000Y-86800000D03*
X161250000Y-81150000D03*
X162180000Y-85400000D03*
X176475001Y-80199999D03*
X149900000Y-91600000D03*
X177250000Y-90800000D03*
X156500000Y-91040000D03*
X155400000Y-81225000D03*
X163217328Y-83000000D03*
X159550000Y-80350000D03*
X163877328Y-87000000D03*
X178000000Y-88600000D03*
X177250000Y-90000000D03*
X166900000Y-84300000D03*
X166550000Y-87500000D03*
X157100000Y-88750000D03*
X163850000Y-88760000D03*
X150550000Y-86000000D03*
X184150000Y-79900000D03*
X157150000Y-87270000D03*
X182900000Y-85600000D03*
X166550000Y-88300000D03*
X157000000Y-81200000D03*
X169750000Y-91850000D03*
X157150000Y-83460000D03*
X179200000Y-85100000D03*
X156300000Y-88750000D03*
X160100000Y-84000000D03*
X156200000Y-81225000D03*
X159050000Y-88420000D03*
X184000000Y-86600000D03*
X174300000Y-89700000D03*
X177725000Y-82375000D03*
X176850000Y-83300000D03*
X159750000Y-89600000D03*
X150300000Y-81150000D03*
X152900000Y-80325000D03*
X171750000Y-91850000D03*
X159750000Y-90500000D03*
X176350000Y-90800000D03*
X176350000Y-90000000D03*
X176350000Y-88000000D03*
X174600000Y-84600000D03*
X169625000Y-88875000D03*
X167450000Y-87500000D03*
X179200000Y-86000000D03*
X161617328Y-83900000D03*
X171000000Y-84600000D03*
X162950000Y-88760000D03*
X179525000Y-90775000D03*
X170650000Y-91850000D03*
X158750000Y-83750000D03*
X163217328Y-83900000D03*
X162977328Y-87000000D03*
X175300000Y-80816666D03*
X167650000Y-84025000D03*
X175300000Y-80150000D03*
X175300000Y-81450000D03*
X187700000Y-79900000D03*
X181455000Y-88450000D03*
X181455000Y-83550000D03*
X179559990Y-88600000D03*
X157000000Y-80300000D03*
X177725000Y-81475000D03*
X150300000Y-80250000D03*
X181700000Y-79900000D03*
X179850000Y-82300000D03*
X158750000Y-82950000D03*
X162950000Y-89560000D03*
X162417328Y-83900000D03*
X164017328Y-83900000D03*
X156200000Y-82125000D03*
X157400000Y-91040000D03*
X156950000Y-82050000D03*
X162977328Y-87800000D03*
X171900000Y-79600000D03*
X156500000Y-91850000D03*
X149700000Y-83460000D03*
X174200000Y-80215003D03*
X174200000Y-79650000D03*
X178400000Y-81000000D03*
X178852002Y-80660998D03*
X174200000Y-80780006D03*
X177800000Y-80550000D03*
X173000000Y-84550000D03*
X174200000Y-83350000D03*
X156150000Y-80325000D03*
X162100000Y-81250000D03*
X172200000Y-83400000D03*
X158900000Y-89500000D03*
X170600000Y-90200000D03*
X179300000Y-83150000D03*
X172600000Y-90200000D03*
X158220000Y-90000000D03*
X161077328Y-88500000D03*
X170200000Y-89800000D03*
X169800000Y-90200000D03*
X161577328Y-89180000D03*
X169600000Y-86000000D03*
X159877328Y-87400000D03*
X169200000Y-85600000D03*
X160152141Y-86906335D03*
X162537328Y-85900000D03*
X167600000Y-89600000D03*
X176100000Y-84600000D03*
X179300000Y-84050000D03*
X168000000Y-90000000D03*
X161077328Y-86900000D03*
X160960000Y-85900000D03*
X169162500Y-83962500D03*
X161577328Y-87580000D03*
X169409837Y-89724592D03*
X169800000Y-83400000D03*
X160600000Y-83700000D03*
X160100000Y-83000000D03*
X169599033Y-85199999D03*
X161614997Y-85400000D03*
X177450000Y-84200000D03*
X174800000Y-85200000D03*
X163217328Y-85400000D03*
X171400000Y-90200000D03*
G04 #@! TA.AperFunction,Conductor*
G36*
X171744197Y-79214852D02*
G01*
X171758549Y-79249500D01*
X171744197Y-79284148D01*
X171726307Y-79295545D01*
X171724584Y-79296171D01*
X171631247Y-79374492D01*
X171570328Y-79480006D01*
X171549170Y-79600000D01*
X171570328Y-79719993D01*
X171631247Y-79825507D01*
X171631248Y-79825508D01*
X171631249Y-79825509D01*
X171724585Y-79903828D01*
X171839079Y-79945500D01*
X171839080Y-79945500D01*
X171960920Y-79945500D01*
X171960921Y-79945500D01*
X172075415Y-79903828D01*
X172168751Y-79825509D01*
X172229672Y-79719991D01*
X172242014Y-79650000D01*
X173849170Y-79650000D01*
X173870328Y-79769993D01*
X173931247Y-79875507D01*
X173931249Y-79875510D01*
X173954435Y-79894965D01*
X173971752Y-79928230D01*
X173960474Y-79963998D01*
X173954436Y-79970036D01*
X173931247Y-79989495D01*
X173870328Y-80095009D01*
X173849170Y-80215003D01*
X173870328Y-80334996D01*
X173931247Y-80440510D01*
X173931249Y-80440513D01*
X173954435Y-80459968D01*
X173971752Y-80493233D01*
X173960474Y-80529001D01*
X173954436Y-80535039D01*
X173931247Y-80554498D01*
X173870328Y-80660012D01*
X173849170Y-80780006D01*
X173870328Y-80899999D01*
X173931247Y-81005513D01*
X173931248Y-81005514D01*
X173931249Y-81005515D01*
X174024585Y-81083834D01*
X174139079Y-81125506D01*
X174139080Y-81125506D01*
X174260920Y-81125506D01*
X174260921Y-81125506D01*
X174375415Y-81083834D01*
X174468751Y-81005515D01*
X174529672Y-80899997D01*
X174550830Y-80780006D01*
X174529672Y-80660015D01*
X174529671Y-80660013D01*
X174529671Y-80660012D01*
X174468752Y-80554498D01*
X174467954Y-80553828D01*
X174445562Y-80535039D01*
X174428246Y-80501774D01*
X174439524Y-80466007D01*
X174445557Y-80459973D01*
X174468751Y-80440512D01*
X174529672Y-80334994D01*
X174550830Y-80215003D01*
X174539368Y-80150000D01*
X174949170Y-80150000D01*
X174970328Y-80269993D01*
X175031247Y-80375507D01*
X175115013Y-80445797D01*
X175132330Y-80479063D01*
X175121052Y-80514830D01*
X175115013Y-80520869D01*
X175031247Y-80591158D01*
X174970328Y-80696672D01*
X174949170Y-80816666D01*
X174970328Y-80936659D01*
X175031247Y-81042173D01*
X175095152Y-81095797D01*
X175112469Y-81129063D01*
X175101191Y-81164830D01*
X175095152Y-81170869D01*
X175031247Y-81224492D01*
X174970328Y-81330006D01*
X174949170Y-81450000D01*
X174970328Y-81569993D01*
X175031247Y-81675507D01*
X175031248Y-81675508D01*
X175031249Y-81675509D01*
X175124585Y-81753828D01*
X175239079Y-81795500D01*
X175239080Y-81795500D01*
X175360920Y-81795500D01*
X175360921Y-81795500D01*
X175475415Y-81753828D01*
X175568751Y-81675509D01*
X175599211Y-81622750D01*
X175629671Y-81569993D01*
X175629671Y-81569992D01*
X175629672Y-81569991D01*
X175646422Y-81475000D01*
X177374170Y-81475000D01*
X177395328Y-81594993D01*
X177456247Y-81700507D01*
X177456248Y-81700508D01*
X177456249Y-81700509D01*
X177549585Y-81778828D01*
X177664079Y-81820500D01*
X177664080Y-81820500D01*
X177785920Y-81820500D01*
X177785921Y-81820500D01*
X177900415Y-81778828D01*
X177993751Y-81700509D01*
X178048894Y-81604999D01*
X181172183Y-81604999D01*
X181172184Y-81605000D01*
X181529513Y-81605000D01*
X181520000Y-81640504D01*
X181520000Y-81719496D01*
X181529513Y-81755000D01*
X181172183Y-81755000D01*
X181194976Y-81869586D01*
X181194980Y-81869601D01*
X181243976Y-81987886D01*
X181315112Y-82094351D01*
X181405648Y-82184887D01*
X181512113Y-82256023D01*
X181630398Y-82305019D01*
X181630404Y-82305021D01*
X181755984Y-82330000D01*
X182295000Y-82330000D01*
X182295000Y-81980000D01*
X182445000Y-81980000D01*
X182445000Y-82330000D01*
X182984016Y-82330000D01*
X183109595Y-82305021D01*
X183109601Y-82305019D01*
X183227886Y-82256023D01*
X183334351Y-82184887D01*
X183424887Y-82094351D01*
X183496023Y-81987886D01*
X183545019Y-81869601D01*
X183545023Y-81869586D01*
X183567816Y-81755000D01*
X183210487Y-81755000D01*
X183220000Y-81719496D01*
X183220000Y-81640504D01*
X183210487Y-81605000D01*
X183567816Y-81605000D01*
X183567816Y-81604999D01*
X185602183Y-81604999D01*
X185602184Y-81605000D01*
X185959513Y-81605000D01*
X185950000Y-81640504D01*
X185950000Y-81719496D01*
X185959513Y-81755000D01*
X185602183Y-81755000D01*
X185624976Y-81869586D01*
X185624980Y-81869601D01*
X185673976Y-81987886D01*
X185745112Y-82094351D01*
X185835648Y-82184887D01*
X185942113Y-82256023D01*
X186060398Y-82305019D01*
X186060404Y-82305021D01*
X186185984Y-82330000D01*
X186475000Y-82330000D01*
X186475000Y-81980000D01*
X186625000Y-81980000D01*
X186625000Y-82330000D01*
X186914016Y-82330000D01*
X187039595Y-82305021D01*
X187039601Y-82305019D01*
X187157886Y-82256023D01*
X187264351Y-82184887D01*
X187354887Y-82094351D01*
X187426023Y-81987886D01*
X187475019Y-81869601D01*
X187475023Y-81869586D01*
X187497816Y-81755000D01*
X187140487Y-81755000D01*
X187150000Y-81719496D01*
X187150000Y-81640504D01*
X187140487Y-81605000D01*
X187497816Y-81605000D01*
X187497816Y-81604999D01*
X187475023Y-81490413D01*
X187475019Y-81490398D01*
X187426023Y-81372113D01*
X187354887Y-81265648D01*
X187264351Y-81175112D01*
X187157886Y-81103976D01*
X187039601Y-81054980D01*
X187039595Y-81054978D01*
X186914016Y-81030000D01*
X186625000Y-81030000D01*
X186625000Y-81380000D01*
X186475000Y-81380000D01*
X186475000Y-81030000D01*
X186185984Y-81030000D01*
X186060404Y-81054978D01*
X186060398Y-81054980D01*
X185942113Y-81103976D01*
X185835648Y-81175112D01*
X185745112Y-81265648D01*
X185673976Y-81372113D01*
X185624980Y-81490398D01*
X185624976Y-81490413D01*
X185602183Y-81604999D01*
X183567816Y-81604999D01*
X183545023Y-81490413D01*
X183545019Y-81490398D01*
X183496023Y-81372113D01*
X183424887Y-81265648D01*
X183334351Y-81175112D01*
X183227886Y-81103976D01*
X183109601Y-81054980D01*
X183109595Y-81054978D01*
X182984016Y-81030000D01*
X182445000Y-81030000D01*
X182445000Y-81380000D01*
X182295000Y-81380000D01*
X182295000Y-81030000D01*
X181755984Y-81030000D01*
X181630404Y-81054978D01*
X181630398Y-81054980D01*
X181512113Y-81103976D01*
X181405648Y-81175112D01*
X181315112Y-81265648D01*
X181243976Y-81372113D01*
X181194980Y-81490398D01*
X181194976Y-81490413D01*
X181172183Y-81604999D01*
X178048894Y-81604999D01*
X178054672Y-81594991D01*
X178075830Y-81475000D01*
X178054672Y-81355009D01*
X178054671Y-81355007D01*
X178054671Y-81355006D01*
X177993752Y-81249492D01*
X177900415Y-81171172D01*
X177785921Y-81129500D01*
X177664079Y-81129500D01*
X177618273Y-81146172D01*
X177549584Y-81171172D01*
X177456247Y-81249492D01*
X177395328Y-81355006D01*
X177374170Y-81475000D01*
X175646422Y-81475000D01*
X175650830Y-81450000D01*
X175629672Y-81330009D01*
X175629671Y-81330007D01*
X175629671Y-81330006D01*
X175568752Y-81224492D01*
X175509904Y-81175112D01*
X175504846Y-81170868D01*
X175487530Y-81137603D01*
X175498808Y-81101836D01*
X175504847Y-81095797D01*
X175519105Y-81083833D01*
X175568751Y-81042175D01*
X175613409Y-80964825D01*
X175629671Y-80936659D01*
X175629671Y-80936658D01*
X175629672Y-80936657D01*
X175650830Y-80816666D01*
X175629672Y-80696675D01*
X175629671Y-80696673D01*
X175629671Y-80696672D01*
X175568752Y-80591158D01*
X175519702Y-80550000D01*
X177449170Y-80550000D01*
X177470328Y-80669993D01*
X177531247Y-80775507D01*
X177531248Y-80775508D01*
X177531249Y-80775509D01*
X177624585Y-80853828D01*
X177739079Y-80895500D01*
X177739080Y-80895500D01*
X177860920Y-80895500D01*
X177860921Y-80895500D01*
X177975415Y-80853828D01*
X177989096Y-80842347D01*
X178024863Y-80831069D01*
X178058129Y-80848385D01*
X178069408Y-80884152D01*
X178068850Y-80888388D01*
X178049170Y-81000000D01*
X178053489Y-81024492D01*
X178070328Y-81119993D01*
X178131247Y-81225507D01*
X178131248Y-81225508D01*
X178131249Y-81225509D01*
X178224585Y-81303828D01*
X178339079Y-81345500D01*
X178339080Y-81345500D01*
X178460920Y-81345500D01*
X178460921Y-81345500D01*
X178575415Y-81303828D01*
X178668751Y-81225509D01*
X178700123Y-81171172D01*
X178729671Y-81119993D01*
X178729671Y-81119992D01*
X178729672Y-81119991D01*
X178742544Y-81046988D01*
X178762695Y-81015359D01*
X178790800Y-81006498D01*
X178912922Y-81006498D01*
X178912923Y-81006498D01*
X179027417Y-80964826D01*
X179120753Y-80886507D01*
X179181674Y-80780989D01*
X179202832Y-80660998D01*
X179181674Y-80541007D01*
X179181673Y-80541005D01*
X179181673Y-80541004D01*
X179120754Y-80435490D01*
X179027417Y-80357170D01*
X178912923Y-80315498D01*
X178791081Y-80315498D01*
X178737516Y-80334994D01*
X178676586Y-80357170D01*
X178583249Y-80435490D01*
X178522330Y-80541004D01*
X178509458Y-80614009D01*
X178489307Y-80645639D01*
X178461202Y-80654500D01*
X178460921Y-80654500D01*
X178339079Y-80654500D01*
X178310455Y-80664918D01*
X178224582Y-80696172D01*
X178210900Y-80707653D01*
X178175133Y-80718929D01*
X178141868Y-80701611D01*
X178130592Y-80665844D01*
X178131150Y-80661607D01*
X178131258Y-80660998D01*
X178150155Y-80553828D01*
X178150830Y-80550002D01*
X178149244Y-80541007D01*
X178129672Y-80430009D01*
X178129671Y-80430007D01*
X178129671Y-80430006D01*
X178068752Y-80324492D01*
X178058033Y-80315498D01*
X177975415Y-80246172D01*
X177860921Y-80204500D01*
X177739079Y-80204500D01*
X177737681Y-80205009D01*
X177624584Y-80246172D01*
X177531247Y-80324492D01*
X177470328Y-80430006D01*
X177449170Y-80550000D01*
X175519702Y-80550000D01*
X175484986Y-80520869D01*
X175467669Y-80487603D01*
X175478947Y-80451836D01*
X175484986Y-80445797D01*
X175503801Y-80430009D01*
X175568751Y-80375509D01*
X175629672Y-80269991D01*
X175650830Y-80150000D01*
X175629672Y-80030009D01*
X175629671Y-80030007D01*
X175629671Y-80030006D01*
X175568752Y-79924492D01*
X175540760Y-79901004D01*
X175539564Y-79900000D01*
X181349170Y-79900000D01*
X181370328Y-80019993D01*
X181431247Y-80125507D01*
X181431248Y-80125508D01*
X181431249Y-80125509D01*
X181524585Y-80203828D01*
X181639079Y-80245500D01*
X181639080Y-80245500D01*
X181760920Y-80245500D01*
X181760921Y-80245500D01*
X181875415Y-80203828D01*
X181968751Y-80125509D01*
X182029672Y-80019991D01*
X182050830Y-79900000D01*
X187349170Y-79900000D01*
X187370328Y-80019993D01*
X187431247Y-80125507D01*
X187431248Y-80125508D01*
X187431249Y-80125509D01*
X187524585Y-80203828D01*
X187639079Y-80245500D01*
X187639080Y-80245500D01*
X187760920Y-80245500D01*
X187760921Y-80245500D01*
X187875415Y-80203828D01*
X187968751Y-80125509D01*
X188029672Y-80019991D01*
X188050830Y-79900000D01*
X188029672Y-79780009D01*
X188029671Y-79780007D01*
X188029671Y-79780006D01*
X187968752Y-79674492D01*
X187875415Y-79596172D01*
X187839362Y-79583050D01*
X187760921Y-79554500D01*
X187639079Y-79554500D01*
X187600070Y-79568698D01*
X187524584Y-79596172D01*
X187431247Y-79674492D01*
X187370328Y-79780006D01*
X187349170Y-79900000D01*
X182050830Y-79900000D01*
X182029672Y-79780009D01*
X182029671Y-79780007D01*
X182029671Y-79780006D01*
X181968752Y-79674492D01*
X181875415Y-79596172D01*
X181839362Y-79583050D01*
X181760921Y-79554500D01*
X181639079Y-79554500D01*
X181600070Y-79568698D01*
X181524584Y-79596172D01*
X181431247Y-79674492D01*
X181370328Y-79780006D01*
X181349170Y-79900000D01*
X175539564Y-79900000D01*
X175475415Y-79846172D01*
X175360921Y-79804500D01*
X175239079Y-79804500D01*
X175181832Y-79825336D01*
X175124584Y-79846172D01*
X175031247Y-79924492D01*
X174970328Y-80030006D01*
X174949170Y-80150000D01*
X174539368Y-80150000D01*
X174529672Y-80095012D01*
X174529671Y-80095010D01*
X174529671Y-80095009D01*
X174468752Y-79989495D01*
X174468751Y-79989494D01*
X174445562Y-79970036D01*
X174428246Y-79936771D01*
X174439524Y-79901004D01*
X174445557Y-79894970D01*
X174468751Y-79875509D01*
X174529672Y-79769991D01*
X174550830Y-79650000D01*
X174529672Y-79530009D01*
X174529671Y-79530007D01*
X174529671Y-79530006D01*
X174468752Y-79424492D01*
X174375415Y-79346172D01*
X174331048Y-79330024D01*
X174260921Y-79304500D01*
X174139079Y-79304500D01*
X174081832Y-79325336D01*
X174024584Y-79346172D01*
X173931247Y-79424492D01*
X173870328Y-79530006D01*
X173849170Y-79650000D01*
X172242014Y-79650000D01*
X172250830Y-79600000D01*
X172229672Y-79480009D01*
X172229671Y-79480007D01*
X172229671Y-79480006D01*
X172168752Y-79374492D01*
X172075415Y-79296171D01*
X172073693Y-79295545D01*
X172072608Y-79294550D01*
X172071704Y-79294029D01*
X172071819Y-79293828D01*
X172046043Y-79270210D01*
X172044406Y-79232742D01*
X172069741Y-79205092D01*
X172090451Y-79200500D01*
X187896654Y-79200500D01*
X187931302Y-79214852D01*
X188285148Y-79568698D01*
X188299500Y-79603346D01*
X188299500Y-92396654D01*
X188285148Y-92431302D01*
X187931302Y-92785148D01*
X187896654Y-92799500D01*
X149103346Y-92799500D01*
X149068698Y-92785148D01*
X148714852Y-92431302D01*
X148700500Y-92396654D01*
X148700500Y-91850000D01*
X156149170Y-91850000D01*
X156170328Y-91969993D01*
X156231247Y-92075507D01*
X156231248Y-92075508D01*
X156231249Y-92075509D01*
X156324585Y-92153828D01*
X156439079Y-92195500D01*
X156439080Y-92195500D01*
X156560920Y-92195500D01*
X156560921Y-92195500D01*
X156675415Y-92153828D01*
X156768751Y-92075509D01*
X156829672Y-91969991D01*
X156850830Y-91850000D01*
X170299170Y-91850000D01*
X170320328Y-91969993D01*
X170381247Y-92075507D01*
X170381248Y-92075508D01*
X170381249Y-92075509D01*
X170474585Y-92153828D01*
X170589079Y-92195500D01*
X170589080Y-92195500D01*
X170710920Y-92195500D01*
X170710921Y-92195500D01*
X170825415Y-92153828D01*
X170918751Y-92075509D01*
X170979672Y-91969991D01*
X170990250Y-91910000D01*
X175309170Y-91910000D01*
X175330328Y-92029993D01*
X175391247Y-92135507D01*
X175391248Y-92135508D01*
X175391249Y-92135509D01*
X175484585Y-92213828D01*
X175599079Y-92255500D01*
X175599080Y-92255500D01*
X175720920Y-92255500D01*
X175720921Y-92255500D01*
X175835415Y-92213828D01*
X175928751Y-92135509D01*
X175989672Y-92029991D01*
X176010830Y-91910000D01*
X175989672Y-91790009D01*
X175989671Y-91790007D01*
X175989671Y-91790006D01*
X175928752Y-91684492D01*
X175857246Y-91624491D01*
X175835415Y-91606172D01*
X175818457Y-91600000D01*
X178949170Y-91600000D01*
X178970328Y-91719993D01*
X179031247Y-91825507D01*
X179031248Y-91825508D01*
X179031249Y-91825509D01*
X179124585Y-91903828D01*
X179239079Y-91945500D01*
X179239080Y-91945500D01*
X179360920Y-91945500D01*
X179360921Y-91945500D01*
X179475415Y-91903828D01*
X179568751Y-91825509D01*
X179629672Y-91719991D01*
X179650830Y-91600000D01*
X179629672Y-91480009D01*
X179629671Y-91480007D01*
X179629671Y-91480006D01*
X179568752Y-91374492D01*
X179475415Y-91296172D01*
X179391168Y-91265509D01*
X179360921Y-91254500D01*
X179239079Y-91254500D01*
X179208832Y-91265509D01*
X179124584Y-91296172D01*
X179031247Y-91374492D01*
X178970328Y-91480006D01*
X178949170Y-91600000D01*
X175818457Y-91600000D01*
X175720921Y-91564500D01*
X175599079Y-91564500D01*
X175541832Y-91585336D01*
X175484584Y-91606172D01*
X175391247Y-91684492D01*
X175330328Y-91790006D01*
X175309170Y-91910000D01*
X170990250Y-91910000D01*
X171000830Y-91850000D01*
X170979672Y-91730009D01*
X170979671Y-91730007D01*
X170979671Y-91730006D01*
X170918752Y-91624492D01*
X170825415Y-91546172D01*
X170710921Y-91504500D01*
X170589079Y-91504500D01*
X170531832Y-91525336D01*
X170474584Y-91546172D01*
X170381247Y-91624492D01*
X170320328Y-91730006D01*
X170299170Y-91850000D01*
X156850830Y-91850000D01*
X156829672Y-91730009D01*
X156829671Y-91730007D01*
X156829671Y-91730006D01*
X156768752Y-91624492D01*
X156675415Y-91546172D01*
X156560921Y-91504500D01*
X156439079Y-91504500D01*
X156381832Y-91525336D01*
X156324584Y-91546172D01*
X156231247Y-91624492D01*
X156170328Y-91730006D01*
X156149170Y-91850000D01*
X148700500Y-91850000D01*
X148700500Y-91040000D01*
X157049170Y-91040000D01*
X157070328Y-91159993D01*
X157131247Y-91265507D01*
X157131248Y-91265508D01*
X157131249Y-91265509D01*
X157224585Y-91343828D01*
X157339079Y-91385500D01*
X157339080Y-91385500D01*
X157460920Y-91385500D01*
X157460921Y-91385500D01*
X157575415Y-91343828D01*
X157668751Y-91265509D01*
X157729672Y-91159991D01*
X157750830Y-91040000D01*
X157729672Y-90920009D01*
X157729671Y-90920007D01*
X157729671Y-90920006D01*
X157668752Y-90814492D01*
X157575415Y-90736172D01*
X157546113Y-90725507D01*
X157460921Y-90694500D01*
X157339079Y-90694500D01*
X157281832Y-90715336D01*
X157224584Y-90736172D01*
X157131247Y-90814492D01*
X157070328Y-90920006D01*
X157049170Y-91040000D01*
X148700500Y-91040000D01*
X148700500Y-90500000D01*
X159399170Y-90500000D01*
X159420328Y-90619993D01*
X159481247Y-90725507D01*
X159481248Y-90725508D01*
X159481249Y-90725509D01*
X159574585Y-90803828D01*
X159689079Y-90845500D01*
X159689080Y-90845500D01*
X159810920Y-90845500D01*
X159810921Y-90845500D01*
X159925415Y-90803828D01*
X159929977Y-90800000D01*
X175999170Y-90800000D01*
X176020328Y-90919993D01*
X176081247Y-91025507D01*
X176081248Y-91025508D01*
X176081249Y-91025509D01*
X176174585Y-91103828D01*
X176289079Y-91145500D01*
X176289080Y-91145500D01*
X176410920Y-91145500D01*
X176410921Y-91145500D01*
X176525415Y-91103828D01*
X176618751Y-91025509D01*
X176679672Y-90919991D01*
X176700830Y-90800000D01*
X176696422Y-90775000D01*
X179174170Y-90775000D01*
X179195328Y-90894993D01*
X179256247Y-91000507D01*
X179256248Y-91000508D01*
X179256249Y-91000509D01*
X179349585Y-91078828D01*
X179464079Y-91120500D01*
X179464080Y-91120500D01*
X179585920Y-91120500D01*
X179585921Y-91120500D01*
X179700415Y-91078828D01*
X179793751Y-91000509D01*
X179854672Y-90894991D01*
X179875830Y-90775000D01*
X179854672Y-90655009D01*
X179854671Y-90655007D01*
X179854671Y-90655006D01*
X179793752Y-90549492D01*
X179746194Y-90509586D01*
X179700415Y-90471172D01*
X179585921Y-90429500D01*
X179464079Y-90429500D01*
X179446781Y-90435796D01*
X179349584Y-90471172D01*
X179256247Y-90549492D01*
X179195328Y-90655006D01*
X179174170Y-90775000D01*
X176696422Y-90775000D01*
X176679672Y-90680009D01*
X176679671Y-90680007D01*
X176679671Y-90680006D01*
X176618752Y-90574492D01*
X176525415Y-90496172D01*
X176456727Y-90471172D01*
X176410921Y-90454500D01*
X176289079Y-90454500D01*
X176243273Y-90471172D01*
X176174584Y-90496172D01*
X176081247Y-90574492D01*
X176020328Y-90680006D01*
X175999170Y-90800000D01*
X159929977Y-90800000D01*
X160018751Y-90725509D01*
X160079672Y-90619991D01*
X160100830Y-90500000D01*
X160079672Y-90380009D01*
X160079671Y-90380007D01*
X160079671Y-90380006D01*
X160018752Y-90274492D01*
X159925415Y-90196172D01*
X159920821Y-90194500D01*
X159810921Y-90154500D01*
X159689079Y-90154500D01*
X159631832Y-90175336D01*
X159574584Y-90196172D01*
X159481247Y-90274492D01*
X159420328Y-90380006D01*
X159399170Y-90500000D01*
X148700500Y-90500000D01*
X148700500Y-90000000D01*
X157869170Y-90000000D01*
X157890328Y-90119993D01*
X157951247Y-90225507D01*
X157951248Y-90225508D01*
X157951249Y-90225509D01*
X158044585Y-90303828D01*
X158159079Y-90345500D01*
X158159080Y-90345500D01*
X158280920Y-90345500D01*
X158280921Y-90345500D01*
X158395415Y-90303828D01*
X158488751Y-90225509D01*
X158549672Y-90119991D01*
X158570830Y-90000000D01*
X158549672Y-89880009D01*
X158549671Y-89880007D01*
X158549671Y-89880006D01*
X158488752Y-89774492D01*
X158395415Y-89696172D01*
X158351007Y-89680009D01*
X158280921Y-89654500D01*
X158159079Y-89654500D01*
X158116493Y-89670000D01*
X158044584Y-89696172D01*
X157951247Y-89774492D01*
X157890328Y-89880006D01*
X157869170Y-90000000D01*
X148700500Y-90000000D01*
X148700500Y-89500000D01*
X158549170Y-89500000D01*
X158570328Y-89619993D01*
X158631247Y-89725507D01*
X158631248Y-89725508D01*
X158631249Y-89725509D01*
X158724585Y-89803828D01*
X158839079Y-89845500D01*
X158839080Y-89845500D01*
X158960920Y-89845500D01*
X158960921Y-89845500D01*
X159075415Y-89803828D01*
X159168751Y-89725509D01*
X159229672Y-89619991D01*
X159240250Y-89560000D01*
X162599170Y-89560000D01*
X162620328Y-89679993D01*
X162681247Y-89785507D01*
X162681248Y-89785508D01*
X162681249Y-89785509D01*
X162774585Y-89863828D01*
X162889079Y-89905500D01*
X162889080Y-89905500D01*
X163010920Y-89905500D01*
X163010921Y-89905500D01*
X163125415Y-89863828D01*
X163218751Y-89785509D01*
X163279672Y-89679991D01*
X163293777Y-89600000D01*
X167249170Y-89600000D01*
X167270328Y-89719993D01*
X167331247Y-89825507D01*
X167331248Y-89825508D01*
X167331249Y-89825509D01*
X167424585Y-89903828D01*
X167539079Y-89945500D01*
X167600384Y-89945500D01*
X167635032Y-89959852D01*
X167649384Y-89994500D01*
X167649170Y-89996945D01*
X167649170Y-89999997D01*
X167649170Y-89999998D01*
X167649170Y-90000000D01*
X167661099Y-90067651D01*
X167670328Y-90119993D01*
X167731247Y-90225507D01*
X167731248Y-90225508D01*
X167731249Y-90225509D01*
X167824585Y-90303828D01*
X167939079Y-90345500D01*
X167939080Y-90345500D01*
X168060920Y-90345500D01*
X168060921Y-90345500D01*
X168175415Y-90303828D01*
X168268751Y-90225509D01*
X168329672Y-90119991D01*
X168350830Y-90000000D01*
X168329672Y-89880009D01*
X168329671Y-89880007D01*
X168329671Y-89880006D01*
X168268752Y-89774492D01*
X168209284Y-89724592D01*
X169059007Y-89724592D01*
X169080165Y-89844585D01*
X169141084Y-89950099D01*
X169141085Y-89950100D01*
X169141086Y-89950101D01*
X169234422Y-90028420D01*
X169348916Y-90070092D01*
X169348917Y-90070092D01*
X169413681Y-90070092D01*
X169448329Y-90084444D01*
X169462681Y-90119092D01*
X169461937Y-90127590D01*
X169455095Y-90166398D01*
X169449170Y-90200000D01*
X169470328Y-90319993D01*
X169531247Y-90425507D01*
X169531248Y-90425508D01*
X169531249Y-90425509D01*
X169624585Y-90503828D01*
X169739079Y-90545500D01*
X169739080Y-90545500D01*
X169860920Y-90545500D01*
X169860921Y-90545500D01*
X169975415Y-90503828D01*
X170068751Y-90425509D01*
X170129672Y-90319991D01*
X170150830Y-90200000D01*
X170150829Y-90199998D01*
X170150830Y-90199997D01*
X170150830Y-90195713D01*
X170152979Y-90195713D01*
X170159475Y-90166398D01*
X170191103Y-90146245D01*
X170199616Y-90145500D01*
X170200384Y-90145500D01*
X170235032Y-90159852D01*
X170249384Y-90194500D01*
X170249170Y-90196945D01*
X170249170Y-90199997D01*
X170249170Y-90199998D01*
X170249170Y-90200000D01*
X170253668Y-90225507D01*
X170270328Y-90319993D01*
X170331247Y-90425507D01*
X170331248Y-90425508D01*
X170331249Y-90425509D01*
X170424585Y-90503828D01*
X170539079Y-90545500D01*
X170539080Y-90545500D01*
X170660920Y-90545500D01*
X170660921Y-90545500D01*
X170775415Y-90503828D01*
X170868751Y-90425509D01*
X170929672Y-90319991D01*
X170950830Y-90200000D01*
X171049170Y-90200000D01*
X171070328Y-90319993D01*
X171131247Y-90425507D01*
X171131248Y-90425508D01*
X171131249Y-90425509D01*
X171224585Y-90503828D01*
X171339079Y-90545500D01*
X171339080Y-90545500D01*
X171460920Y-90545500D01*
X171460921Y-90545500D01*
X171575415Y-90503828D01*
X171668751Y-90425509D01*
X171729672Y-90319991D01*
X171750830Y-90200000D01*
X172249170Y-90200000D01*
X172270328Y-90319993D01*
X172331247Y-90425507D01*
X172331248Y-90425508D01*
X172331249Y-90425509D01*
X172424585Y-90503828D01*
X172539079Y-90545500D01*
X172539080Y-90545500D01*
X172660920Y-90545500D01*
X172660921Y-90545500D01*
X172775415Y-90503828D01*
X172868751Y-90425509D01*
X172929672Y-90319991D01*
X172950830Y-90200000D01*
X172929672Y-90080009D01*
X172929671Y-90080007D01*
X172929671Y-90080006D01*
X172883479Y-90000000D01*
X175999170Y-90000000D01*
X176020328Y-90119993D01*
X176081247Y-90225507D01*
X176081248Y-90225508D01*
X176081249Y-90225509D01*
X176174585Y-90303828D01*
X176289079Y-90345500D01*
X176289080Y-90345500D01*
X176410920Y-90345500D01*
X176410921Y-90345500D01*
X176525415Y-90303828D01*
X176595524Y-90244999D01*
X181172183Y-90244999D01*
X181172184Y-90245000D01*
X181529513Y-90245000D01*
X181520000Y-90280504D01*
X181520000Y-90359496D01*
X181529513Y-90395000D01*
X181172183Y-90395000D01*
X181194976Y-90509586D01*
X181194980Y-90509601D01*
X181243976Y-90627886D01*
X181315112Y-90734351D01*
X181405648Y-90824887D01*
X181512113Y-90896023D01*
X181630398Y-90945019D01*
X181630404Y-90945021D01*
X181755984Y-90970000D01*
X182295000Y-90970000D01*
X182295000Y-90620000D01*
X182445000Y-90620000D01*
X182445000Y-90970000D01*
X182984016Y-90970000D01*
X183109595Y-90945021D01*
X183109601Y-90945019D01*
X183227886Y-90896023D01*
X183334351Y-90824887D01*
X183424887Y-90734351D01*
X183496023Y-90627886D01*
X183545019Y-90509601D01*
X183545023Y-90509586D01*
X183567816Y-90395000D01*
X183210487Y-90395000D01*
X183220000Y-90359496D01*
X183220000Y-90280504D01*
X183210487Y-90245000D01*
X183567816Y-90245000D01*
X183567816Y-90244999D01*
X185602183Y-90244999D01*
X185602184Y-90245000D01*
X185959513Y-90245000D01*
X185950000Y-90280504D01*
X185950000Y-90359496D01*
X185959513Y-90395000D01*
X185602183Y-90395000D01*
X185624976Y-90509586D01*
X185624980Y-90509601D01*
X185673976Y-90627886D01*
X185745112Y-90734351D01*
X185835648Y-90824887D01*
X185942113Y-90896023D01*
X186060398Y-90945019D01*
X186060404Y-90945021D01*
X186185984Y-90970000D01*
X186475000Y-90970000D01*
X186475000Y-90620000D01*
X186625000Y-90620000D01*
X186625000Y-90970000D01*
X186914016Y-90970000D01*
X187039595Y-90945021D01*
X187039601Y-90945019D01*
X187157886Y-90896023D01*
X187264351Y-90824887D01*
X187354887Y-90734351D01*
X187426023Y-90627886D01*
X187475019Y-90509601D01*
X187475023Y-90509586D01*
X187497816Y-90395000D01*
X187140487Y-90395000D01*
X187150000Y-90359496D01*
X187150000Y-90280504D01*
X187140487Y-90245000D01*
X187497816Y-90245000D01*
X187497816Y-90244999D01*
X187475023Y-90130413D01*
X187475019Y-90130398D01*
X187426023Y-90012113D01*
X187354887Y-89905648D01*
X187264351Y-89815112D01*
X187157886Y-89743976D01*
X187039601Y-89694980D01*
X187039595Y-89694978D01*
X186914016Y-89670000D01*
X186625000Y-89670000D01*
X186625000Y-90020000D01*
X186475000Y-90020000D01*
X186475000Y-89670000D01*
X186185984Y-89670000D01*
X186060404Y-89694978D01*
X186060398Y-89694980D01*
X185942113Y-89743976D01*
X185835648Y-89815112D01*
X185745112Y-89905648D01*
X185673976Y-90012113D01*
X185624980Y-90130398D01*
X185624976Y-90130413D01*
X185602183Y-90244999D01*
X183567816Y-90244999D01*
X183545023Y-90130413D01*
X183545019Y-90130398D01*
X183496023Y-90012113D01*
X183424887Y-89905648D01*
X183334351Y-89815112D01*
X183227886Y-89743976D01*
X183109601Y-89694980D01*
X183109595Y-89694978D01*
X182984016Y-89670000D01*
X182445000Y-89670000D01*
X182445000Y-90020000D01*
X182295000Y-90020000D01*
X182295000Y-89670000D01*
X181755984Y-89670000D01*
X181630404Y-89694978D01*
X181630398Y-89694980D01*
X181512113Y-89743976D01*
X181405648Y-89815112D01*
X181315112Y-89905648D01*
X181243976Y-90012113D01*
X181194980Y-90130398D01*
X181194976Y-90130413D01*
X181172183Y-90244999D01*
X176595524Y-90244999D01*
X176618751Y-90225509D01*
X176679672Y-90119991D01*
X176700830Y-90000000D01*
X176679672Y-89880009D01*
X176679671Y-89880007D01*
X176679671Y-89880006D01*
X176618752Y-89774492D01*
X176525415Y-89696172D01*
X176481007Y-89680009D01*
X176410921Y-89654500D01*
X176289079Y-89654500D01*
X176246493Y-89670000D01*
X176174584Y-89696172D01*
X176081247Y-89774492D01*
X176020328Y-89880006D01*
X175999170Y-90000000D01*
X172883479Y-90000000D01*
X172868752Y-89974492D01*
X172775415Y-89896172D01*
X172731007Y-89880009D01*
X172660921Y-89854500D01*
X172539079Y-89854500D01*
X172481832Y-89875336D01*
X172424584Y-89896172D01*
X172331247Y-89974492D01*
X172270328Y-90080006D01*
X172249170Y-90200000D01*
X171750830Y-90200000D01*
X171729672Y-90080009D01*
X171729671Y-90080007D01*
X171729671Y-90080006D01*
X171668752Y-89974492D01*
X171575415Y-89896172D01*
X171531007Y-89880009D01*
X171460921Y-89854500D01*
X171339079Y-89854500D01*
X171281832Y-89875336D01*
X171224584Y-89896172D01*
X171131247Y-89974492D01*
X171070328Y-90080006D01*
X171049170Y-90200000D01*
X170950830Y-90200000D01*
X170929672Y-90080009D01*
X170929671Y-90080007D01*
X170929671Y-90080006D01*
X170868752Y-89974492D01*
X170775415Y-89896172D01*
X170731007Y-89880009D01*
X170660921Y-89854500D01*
X170660920Y-89854500D01*
X170599616Y-89854500D01*
X170564968Y-89840148D01*
X170550616Y-89805500D01*
X170550830Y-89803054D01*
X170550830Y-89800002D01*
X170550299Y-89796991D01*
X170529672Y-89680009D01*
X170529671Y-89680007D01*
X170529671Y-89680006D01*
X170468752Y-89574492D01*
X170375415Y-89496172D01*
X170331007Y-89480009D01*
X170260921Y-89454500D01*
X170139079Y-89454500D01*
X170081832Y-89475336D01*
X170024584Y-89496172D01*
X169931247Y-89574492D01*
X169870328Y-89680006D01*
X169849170Y-89800002D01*
X169849170Y-89804287D01*
X169847021Y-89804287D01*
X169840525Y-89833602D01*
X169808897Y-89853755D01*
X169800384Y-89854500D01*
X169796156Y-89854500D01*
X169761508Y-89840148D01*
X169747156Y-89805500D01*
X169747899Y-89797001D01*
X169760667Y-89724592D01*
X169739509Y-89604601D01*
X169739508Y-89604599D01*
X169739508Y-89604598D01*
X169678589Y-89499084D01*
X169585252Y-89420764D01*
X169470758Y-89379092D01*
X169348916Y-89379092D01*
X169346397Y-89380009D01*
X169234421Y-89420764D01*
X169141084Y-89499084D01*
X169080165Y-89604598D01*
X169059007Y-89724592D01*
X168209284Y-89724592D01*
X168175415Y-89696172D01*
X168131007Y-89680009D01*
X168060921Y-89654500D01*
X168060920Y-89654500D01*
X167999616Y-89654500D01*
X167964968Y-89640148D01*
X167950616Y-89605500D01*
X167950830Y-89603054D01*
X167950830Y-89600002D01*
X167946332Y-89574491D01*
X167929672Y-89480009D01*
X167929671Y-89480007D01*
X167929671Y-89480006D01*
X167868752Y-89374492D01*
X167863838Y-89370369D01*
X167775415Y-89296172D01*
X167660921Y-89254500D01*
X167539079Y-89254500D01*
X167484154Y-89274491D01*
X167424584Y-89296172D01*
X167331247Y-89374492D01*
X167270328Y-89480006D01*
X167249170Y-89600000D01*
X163293777Y-89600000D01*
X163300830Y-89560000D01*
X163279672Y-89440009D01*
X163279671Y-89440007D01*
X163279671Y-89440006D01*
X163218752Y-89334492D01*
X163147246Y-89274491D01*
X163125415Y-89256172D01*
X163010921Y-89214500D01*
X162889079Y-89214500D01*
X162831832Y-89235336D01*
X162774584Y-89256172D01*
X162681247Y-89334492D01*
X162620328Y-89440006D01*
X162599170Y-89560000D01*
X159240250Y-89560000D01*
X159250830Y-89500000D01*
X159229672Y-89380009D01*
X159229671Y-89380007D01*
X159229671Y-89380006D01*
X159168752Y-89274492D01*
X159075415Y-89196172D01*
X159030982Y-89180000D01*
X161226498Y-89180000D01*
X161247656Y-89299993D01*
X161308575Y-89405507D01*
X161308576Y-89405508D01*
X161308577Y-89405509D01*
X161401913Y-89483828D01*
X161516407Y-89525500D01*
X161516408Y-89525500D01*
X161638248Y-89525500D01*
X161638249Y-89525500D01*
X161752743Y-89483828D01*
X161846079Y-89405509D01*
X161907000Y-89299991D01*
X161928158Y-89180000D01*
X161907000Y-89060009D01*
X161906999Y-89060007D01*
X161906999Y-89060006D01*
X161846080Y-88954492D01*
X161825453Y-88937184D01*
X161752743Y-88876172D01*
X161638249Y-88834500D01*
X161516407Y-88834500D01*
X161459160Y-88855336D01*
X161401912Y-88876172D01*
X161308575Y-88954492D01*
X161247656Y-89060006D01*
X161226498Y-89180000D01*
X159030982Y-89180000D01*
X159027762Y-89178828D01*
X158960921Y-89154500D01*
X158839079Y-89154500D01*
X158781832Y-89175336D01*
X158724584Y-89196172D01*
X158631247Y-89274492D01*
X158570328Y-89380006D01*
X158549170Y-89500000D01*
X148700500Y-89500000D01*
X148700500Y-88500000D01*
X160726498Y-88500000D01*
X160747656Y-88619993D01*
X160808575Y-88725507D01*
X160808576Y-88725508D01*
X160808577Y-88725509D01*
X160901913Y-88803828D01*
X161016407Y-88845500D01*
X161016408Y-88845500D01*
X161138248Y-88845500D01*
X161138249Y-88845500D01*
X161252743Y-88803828D01*
X161304975Y-88760000D01*
X162599170Y-88760000D01*
X162620328Y-88879993D01*
X162681247Y-88985507D01*
X162681248Y-88985508D01*
X162681249Y-88985509D01*
X162774585Y-89063828D01*
X162889079Y-89105500D01*
X162889080Y-89105500D01*
X163010920Y-89105500D01*
X163010921Y-89105500D01*
X163125415Y-89063828D01*
X163218751Y-88985509D01*
X163249211Y-88932750D01*
X163279671Y-88879993D01*
X163279671Y-88879992D01*
X163279672Y-88879991D01*
X163280552Y-88875000D01*
X169274170Y-88875000D01*
X169295328Y-88994993D01*
X169356247Y-89100507D01*
X169356248Y-89100508D01*
X169356249Y-89100509D01*
X169449585Y-89178828D01*
X169564079Y-89220500D01*
X169564080Y-89220500D01*
X169685920Y-89220500D01*
X169685921Y-89220500D01*
X169800415Y-89178828D01*
X169893751Y-89100509D01*
X169954672Y-88994991D01*
X169975830Y-88875000D01*
X169954672Y-88755009D01*
X169954671Y-88755007D01*
X169954671Y-88755006D01*
X169908478Y-88674998D01*
X170270373Y-88674998D01*
X170270373Y-88675001D01*
X170288789Y-88803084D01*
X170342541Y-88920785D01*
X170342545Y-88920792D01*
X170356749Y-88937184D01*
X170579128Y-88714804D01*
X170597836Y-88759968D01*
X170640032Y-88802164D01*
X170685194Y-88820870D01*
X170463929Y-89042135D01*
X170536142Y-89088544D01*
X170660298Y-89124999D01*
X170660305Y-89125000D01*
X170789695Y-89125000D01*
X170789701Y-89124999D01*
X170913858Y-89088543D01*
X170986068Y-89042134D01*
X170764805Y-88820871D01*
X170809968Y-88802164D01*
X170852164Y-88759968D01*
X170870870Y-88714805D01*
X171093249Y-88937184D01*
X171093250Y-88937183D01*
X171107454Y-88920792D01*
X171107458Y-88920786D01*
X171161210Y-88803084D01*
X171179627Y-88675001D01*
X171179627Y-88674998D01*
X171545373Y-88674998D01*
X171545373Y-88675001D01*
X171563789Y-88803084D01*
X171617541Y-88920785D01*
X171617545Y-88920792D01*
X171631749Y-88937184D01*
X171854128Y-88714804D01*
X171872836Y-88759968D01*
X171915032Y-88802164D01*
X171960194Y-88820871D01*
X171738930Y-89042135D01*
X171811142Y-89088544D01*
X171935298Y-89124999D01*
X171935305Y-89125000D01*
X172064695Y-89125000D01*
X172064701Y-89124999D01*
X172188858Y-89088543D01*
X172261068Y-89042134D01*
X172039805Y-88820871D01*
X172084968Y-88802164D01*
X172127164Y-88759968D01*
X172145871Y-88714805D01*
X172368249Y-88937184D01*
X172368250Y-88937183D01*
X172382454Y-88920792D01*
X172382458Y-88920786D01*
X172436210Y-88803084D01*
X172454627Y-88675001D01*
X172454627Y-88674998D01*
X172820373Y-88674998D01*
X172820373Y-88675001D01*
X172838789Y-88803084D01*
X172892541Y-88920785D01*
X172892545Y-88920792D01*
X172906749Y-88937184D01*
X173129128Y-88714804D01*
X173147836Y-88759968D01*
X173190032Y-88802164D01*
X173235194Y-88820870D01*
X173013929Y-89042135D01*
X173086142Y-89088544D01*
X173210298Y-89124999D01*
X173210305Y-89125000D01*
X173339695Y-89125000D01*
X173339701Y-89124999D01*
X173463858Y-89088543D01*
X173536068Y-89042134D01*
X173314805Y-88820871D01*
X173359968Y-88802164D01*
X173402164Y-88759968D01*
X173420871Y-88714805D01*
X173643249Y-88937184D01*
X173643250Y-88937183D01*
X173657454Y-88920792D01*
X173657458Y-88920786D01*
X173711210Y-88803084D01*
X173729627Y-88675001D01*
X173729627Y-88674998D01*
X173718843Y-88600000D01*
X179209160Y-88600000D01*
X179230318Y-88719993D01*
X179291237Y-88825507D01*
X179291238Y-88825508D01*
X179291239Y-88825509D01*
X179384575Y-88903828D01*
X179499069Y-88945500D01*
X179499070Y-88945500D01*
X179620910Y-88945500D01*
X179620911Y-88945500D01*
X179735405Y-88903828D01*
X179828741Y-88825509D01*
X179830692Y-88822130D01*
X182384500Y-88822130D01*
X182384500Y-88957869D01*
X182419629Y-89088971D01*
X182419631Y-89088977D01*
X182472184Y-89180000D01*
X182487498Y-89206524D01*
X182583476Y-89302502D01*
X182626500Y-89327342D01*
X182701022Y-89370368D01*
X182701028Y-89370370D01*
X182832130Y-89405500D01*
X182832133Y-89405500D01*
X182967869Y-89405500D01*
X183098971Y-89370370D01*
X183098969Y-89370370D01*
X183098975Y-89370369D01*
X183216524Y-89302502D01*
X183312502Y-89206524D01*
X183380369Y-89088975D01*
X183405552Y-88994993D01*
X183415500Y-88957869D01*
X183415500Y-88822130D01*
X183380370Y-88691028D01*
X183380368Y-88691022D01*
X183337342Y-88616500D01*
X183312502Y-88573476D01*
X183216524Y-88477498D01*
X183098977Y-88409631D01*
X183098971Y-88409629D01*
X182967870Y-88374500D01*
X182967867Y-88374500D01*
X182832133Y-88374500D01*
X182832130Y-88374500D01*
X182701028Y-88409629D01*
X182701022Y-88409631D01*
X182583475Y-88477498D01*
X182583475Y-88477499D01*
X182487499Y-88573475D01*
X182487498Y-88573475D01*
X182419631Y-88691022D01*
X182419629Y-88691028D01*
X182384500Y-88822130D01*
X179830692Y-88822130D01*
X179889662Y-88719991D01*
X179910820Y-88600000D01*
X179889662Y-88480009D01*
X179889661Y-88480007D01*
X179889661Y-88480006D01*
X179872337Y-88450000D01*
X181104170Y-88450000D01*
X181125328Y-88569993D01*
X181186247Y-88675507D01*
X181186248Y-88675508D01*
X181186249Y-88675509D01*
X181279585Y-88753828D01*
X181394079Y-88795500D01*
X181394080Y-88795500D01*
X181515920Y-88795500D01*
X181515921Y-88795500D01*
X181630415Y-88753828D01*
X181723751Y-88675509D01*
X181784672Y-88569991D01*
X181805830Y-88450000D01*
X181784672Y-88330009D01*
X181784671Y-88330007D01*
X181784671Y-88330006D01*
X181723752Y-88224492D01*
X181630415Y-88146172D01*
X181628569Y-88145500D01*
X181515921Y-88104500D01*
X181394079Y-88104500D01*
X181351512Y-88119993D01*
X181279584Y-88146172D01*
X181186247Y-88224492D01*
X181125328Y-88330006D01*
X181104170Y-88450000D01*
X179872337Y-88450000D01*
X179828742Y-88374492D01*
X179735405Y-88296172D01*
X179675836Y-88274491D01*
X179620911Y-88254500D01*
X179499069Y-88254500D01*
X179444144Y-88274491D01*
X179384574Y-88296172D01*
X179291237Y-88374492D01*
X179230318Y-88480006D01*
X179209160Y-88600000D01*
X173718843Y-88600000D01*
X173711210Y-88546915D01*
X173657458Y-88429214D01*
X173657454Y-88429207D01*
X173643249Y-88412814D01*
X173420870Y-88635193D01*
X173402164Y-88590032D01*
X173359968Y-88547836D01*
X173314805Y-88529129D01*
X173536069Y-88307864D01*
X173463857Y-88261455D01*
X173339701Y-88225000D01*
X173210298Y-88225000D01*
X173086141Y-88261456D01*
X173086140Y-88261456D01*
X173013930Y-88307863D01*
X173013930Y-88307864D01*
X173235194Y-88529128D01*
X173190032Y-88547836D01*
X173147836Y-88590032D01*
X173129128Y-88635194D01*
X172906749Y-88412815D01*
X172906748Y-88412815D01*
X172892544Y-88429209D01*
X172892542Y-88429212D01*
X172838789Y-88546915D01*
X172820373Y-88674998D01*
X172454627Y-88674998D01*
X172436210Y-88546915D01*
X172382458Y-88429214D01*
X172382454Y-88429207D01*
X172368249Y-88412814D01*
X172145870Y-88635193D01*
X172127164Y-88590032D01*
X172084968Y-88547836D01*
X172039805Y-88529129D01*
X172261069Y-88307864D01*
X172188857Y-88261455D01*
X172064701Y-88225000D01*
X171935298Y-88225000D01*
X171811141Y-88261456D01*
X171811140Y-88261456D01*
X171738930Y-88307863D01*
X171738930Y-88307864D01*
X171960194Y-88529128D01*
X171915032Y-88547836D01*
X171872836Y-88590032D01*
X171854128Y-88635194D01*
X171631749Y-88412815D01*
X171631748Y-88412815D01*
X171617544Y-88429209D01*
X171617542Y-88429212D01*
X171563789Y-88546915D01*
X171545373Y-88674998D01*
X171179627Y-88674998D01*
X171161210Y-88546915D01*
X171107458Y-88429214D01*
X171107454Y-88429207D01*
X171093249Y-88412814D01*
X170870870Y-88635193D01*
X170852164Y-88590032D01*
X170809968Y-88547836D01*
X170764805Y-88529129D01*
X170986069Y-88307864D01*
X170913857Y-88261455D01*
X170789701Y-88225000D01*
X170660298Y-88225000D01*
X170536141Y-88261456D01*
X170536140Y-88261456D01*
X170463930Y-88307863D01*
X170463930Y-88307864D01*
X170685194Y-88529128D01*
X170640032Y-88547836D01*
X170597836Y-88590032D01*
X170579128Y-88635194D01*
X170356749Y-88412815D01*
X170356748Y-88412815D01*
X170342544Y-88429209D01*
X170342542Y-88429212D01*
X170288789Y-88546915D01*
X170270373Y-88674998D01*
X169908478Y-88674998D01*
X169893752Y-88649492D01*
X169834770Y-88600000D01*
X169800415Y-88571172D01*
X169685921Y-88529500D01*
X169564079Y-88529500D01*
X169516231Y-88546915D01*
X169449584Y-88571172D01*
X169356247Y-88649492D01*
X169295328Y-88755006D01*
X169274170Y-88875000D01*
X163280552Y-88875000D01*
X163300830Y-88760000D01*
X163279672Y-88640009D01*
X163279671Y-88640007D01*
X163279671Y-88640006D01*
X163218752Y-88534492D01*
X163153822Y-88480009D01*
X163125415Y-88456172D01*
X163010921Y-88414500D01*
X162889079Y-88414500D01*
X162831832Y-88435336D01*
X162774584Y-88456172D01*
X162681247Y-88534492D01*
X162620328Y-88640006D01*
X162599170Y-88760000D01*
X161304975Y-88760000D01*
X161346079Y-88725509D01*
X161407000Y-88619991D01*
X161428158Y-88500000D01*
X161407000Y-88380009D01*
X161406999Y-88380007D01*
X161406999Y-88380006D01*
X161346080Y-88274492D01*
X161330544Y-88261456D01*
X161252743Y-88196172D01*
X161138249Y-88154500D01*
X161016407Y-88154500D01*
X160959160Y-88175336D01*
X160901912Y-88196172D01*
X160808575Y-88274492D01*
X160747656Y-88380006D01*
X160726498Y-88500000D01*
X148700500Y-88500000D01*
X148700500Y-87400000D01*
X159526498Y-87400000D01*
X159547656Y-87519993D01*
X159608575Y-87625507D01*
X159608576Y-87625508D01*
X159608577Y-87625509D01*
X159701913Y-87703828D01*
X159816407Y-87745500D01*
X159816408Y-87745500D01*
X159938248Y-87745500D01*
X159938249Y-87745500D01*
X160052743Y-87703828D01*
X160146079Y-87625509D01*
X160172354Y-87580000D01*
X161226498Y-87580000D01*
X161247656Y-87699993D01*
X161308575Y-87805507D01*
X161308576Y-87805508D01*
X161308577Y-87805509D01*
X161401913Y-87883828D01*
X161516407Y-87925500D01*
X161516408Y-87925500D01*
X161638248Y-87925500D01*
X161638249Y-87925500D01*
X161752743Y-87883828D01*
X161846079Y-87805509D01*
X161849260Y-87800000D01*
X162626498Y-87800000D01*
X162647656Y-87919993D01*
X162708575Y-88025507D01*
X162708576Y-88025508D01*
X162708577Y-88025509D01*
X162801913Y-88103828D01*
X162916407Y-88145500D01*
X162916408Y-88145500D01*
X163038248Y-88145500D01*
X163038249Y-88145500D01*
X163152743Y-88103828D01*
X163246079Y-88025509D01*
X163260806Y-88000000D01*
X175999170Y-88000000D01*
X176020328Y-88119993D01*
X176081247Y-88225507D01*
X176081248Y-88225508D01*
X176081249Y-88225509D01*
X176174585Y-88303828D01*
X176289079Y-88345500D01*
X176289080Y-88345500D01*
X176410920Y-88345500D01*
X176410921Y-88345500D01*
X176525415Y-88303828D01*
X176618751Y-88225509D01*
X176679672Y-88119991D01*
X176700830Y-88000000D01*
X176679672Y-87880009D01*
X176679671Y-87880007D01*
X176679671Y-87880006D01*
X176618752Y-87774492D01*
X176609984Y-87767135D01*
X176525415Y-87696172D01*
X176410921Y-87654500D01*
X176289079Y-87654500D01*
X176231832Y-87675336D01*
X176174584Y-87696172D01*
X176081247Y-87774492D01*
X176020328Y-87880006D01*
X175999170Y-88000000D01*
X163260806Y-88000000D01*
X163276539Y-87972750D01*
X163306999Y-87919993D01*
X163306999Y-87919992D01*
X163307000Y-87919991D01*
X163328158Y-87800000D01*
X163307000Y-87680009D01*
X163306999Y-87680007D01*
X163306999Y-87680006D01*
X163246080Y-87574492D01*
X163157305Y-87500000D01*
X167099170Y-87500000D01*
X167120328Y-87619993D01*
X167181247Y-87725507D01*
X167181248Y-87725508D01*
X167181249Y-87725509D01*
X167274585Y-87803828D01*
X167389079Y-87845500D01*
X167389080Y-87845500D01*
X167510920Y-87845500D01*
X167510921Y-87845500D01*
X167625415Y-87803828D01*
X167718751Y-87725509D01*
X167779672Y-87619991D01*
X167800830Y-87500000D01*
X167783197Y-87399998D01*
X170270373Y-87399998D01*
X170270373Y-87400001D01*
X170288789Y-87528084D01*
X170342541Y-87645785D01*
X170342545Y-87645792D01*
X170356749Y-87662184D01*
X170579128Y-87439804D01*
X170597836Y-87484968D01*
X170640032Y-87527164D01*
X170685194Y-87545870D01*
X170463929Y-87767135D01*
X170536142Y-87813544D01*
X170660298Y-87849999D01*
X170660305Y-87850000D01*
X170789695Y-87850000D01*
X170789701Y-87849999D01*
X170913858Y-87813543D01*
X170986068Y-87767134D01*
X170764805Y-87545871D01*
X170809968Y-87527164D01*
X170852164Y-87484968D01*
X170870870Y-87439805D01*
X171093249Y-87662184D01*
X171093250Y-87662183D01*
X171107454Y-87645792D01*
X171107458Y-87645786D01*
X171161210Y-87528084D01*
X171179627Y-87400001D01*
X171179627Y-87399998D01*
X171545373Y-87399998D01*
X171545373Y-87400001D01*
X171563789Y-87528084D01*
X171617541Y-87645785D01*
X171617545Y-87645792D01*
X171631749Y-87662184D01*
X171854128Y-87439804D01*
X171872836Y-87484968D01*
X171915032Y-87527164D01*
X171960194Y-87545870D01*
X171738929Y-87767135D01*
X171811142Y-87813544D01*
X171935298Y-87849999D01*
X171935305Y-87850000D01*
X172064695Y-87850000D01*
X172064701Y-87849999D01*
X172188858Y-87813543D01*
X172261068Y-87767134D01*
X172039805Y-87545871D01*
X172084968Y-87527164D01*
X172127164Y-87484968D01*
X172145871Y-87439805D01*
X172368249Y-87662184D01*
X172368250Y-87662183D01*
X172382454Y-87645792D01*
X172382458Y-87645786D01*
X172436210Y-87528084D01*
X172454627Y-87400001D01*
X172454627Y-87399998D01*
X172820373Y-87399998D01*
X172820373Y-87400001D01*
X172838789Y-87528084D01*
X172892541Y-87645785D01*
X172892545Y-87645792D01*
X172906749Y-87662184D01*
X173129128Y-87439804D01*
X173147836Y-87484968D01*
X173190032Y-87527164D01*
X173235194Y-87545871D01*
X173013930Y-87767135D01*
X173086142Y-87813544D01*
X173210298Y-87849999D01*
X173210305Y-87850000D01*
X173339695Y-87850000D01*
X173339701Y-87849999D01*
X173463858Y-87813543D01*
X173536068Y-87767134D01*
X173314805Y-87545871D01*
X173359968Y-87527164D01*
X173402164Y-87484968D01*
X173420871Y-87439805D01*
X173643249Y-87662184D01*
X173643250Y-87662183D01*
X173657454Y-87645792D01*
X173657458Y-87645786D01*
X173711210Y-87528084D01*
X173729627Y-87400001D01*
X173729627Y-87399998D01*
X173711210Y-87271915D01*
X173657458Y-87154214D01*
X173657454Y-87154207D01*
X173643249Y-87137814D01*
X173420870Y-87360193D01*
X173402164Y-87315032D01*
X173359968Y-87272836D01*
X173314805Y-87254129D01*
X173536069Y-87032864D01*
X173463857Y-86986455D01*
X173339701Y-86950000D01*
X173210298Y-86950000D01*
X173086141Y-86986456D01*
X173086140Y-86986456D01*
X173013930Y-87032863D01*
X173013930Y-87032864D01*
X173235194Y-87254128D01*
X173190032Y-87272836D01*
X173147836Y-87315032D01*
X173129128Y-87360194D01*
X172906749Y-87137815D01*
X172906748Y-87137815D01*
X172892544Y-87154209D01*
X172892542Y-87154212D01*
X172838789Y-87271915D01*
X172820373Y-87399998D01*
X172454627Y-87399998D01*
X172436210Y-87271915D01*
X172382458Y-87154214D01*
X172382454Y-87154207D01*
X172368249Y-87137814D01*
X172145870Y-87360193D01*
X172127164Y-87315032D01*
X172084968Y-87272836D01*
X172039805Y-87254129D01*
X172261069Y-87032864D01*
X172188857Y-86986455D01*
X172064701Y-86950000D01*
X171935298Y-86950000D01*
X171811141Y-86986456D01*
X171811140Y-86986456D01*
X171738930Y-87032863D01*
X171738930Y-87032864D01*
X171960194Y-87254128D01*
X171915032Y-87272836D01*
X171872836Y-87315032D01*
X171854128Y-87360194D01*
X171631749Y-87137815D01*
X171631748Y-87137815D01*
X171617544Y-87154209D01*
X171617542Y-87154212D01*
X171563789Y-87271915D01*
X171545373Y-87399998D01*
X171179627Y-87399998D01*
X171161210Y-87271915D01*
X171107458Y-87154214D01*
X171107454Y-87154207D01*
X171093249Y-87137814D01*
X170870870Y-87360193D01*
X170852164Y-87315032D01*
X170809968Y-87272836D01*
X170764805Y-87254129D01*
X170986069Y-87032864D01*
X170913857Y-86986455D01*
X170789701Y-86950000D01*
X170660298Y-86950000D01*
X170536141Y-86986456D01*
X170536140Y-86986456D01*
X170463930Y-87032863D01*
X170463930Y-87032864D01*
X170685194Y-87254128D01*
X170640032Y-87272836D01*
X170597836Y-87315032D01*
X170579128Y-87360194D01*
X170356749Y-87137815D01*
X170356748Y-87137815D01*
X170342544Y-87154209D01*
X170342542Y-87154212D01*
X170288789Y-87271915D01*
X170270373Y-87399998D01*
X167783197Y-87399998D01*
X167779672Y-87380009D01*
X167779671Y-87380007D01*
X167779671Y-87380006D01*
X167718752Y-87274492D01*
X167716778Y-87272836D01*
X167625415Y-87196172D01*
X167510921Y-87154500D01*
X167389079Y-87154500D01*
X167334154Y-87174491D01*
X167274584Y-87196172D01*
X167181247Y-87274492D01*
X167120328Y-87380006D01*
X167099170Y-87500000D01*
X163157305Y-87500000D01*
X163152743Y-87496172D01*
X163121960Y-87484968D01*
X163038249Y-87454500D01*
X162916407Y-87454500D01*
X162859160Y-87475336D01*
X162801912Y-87496172D01*
X162708575Y-87574492D01*
X162647656Y-87680006D01*
X162626498Y-87800000D01*
X161849260Y-87800000D01*
X161907000Y-87699991D01*
X161928158Y-87580000D01*
X161907000Y-87460009D01*
X161906999Y-87460007D01*
X161906999Y-87460006D01*
X161846080Y-87354492D01*
X161752743Y-87276172D01*
X161741047Y-87271915D01*
X161638249Y-87234500D01*
X161516407Y-87234500D01*
X161473821Y-87250000D01*
X161401912Y-87276172D01*
X161308575Y-87354492D01*
X161247656Y-87460006D01*
X161226498Y-87580000D01*
X160172354Y-87580000D01*
X160189674Y-87550000D01*
X160206999Y-87519993D01*
X160206999Y-87519992D01*
X160207000Y-87519991D01*
X160228158Y-87400000D01*
X160209836Y-87296095D01*
X160217953Y-87259484D01*
X160241331Y-87241545D01*
X160327556Y-87210163D01*
X160420892Y-87131844D01*
X160465547Y-87054500D01*
X160481812Y-87026328D01*
X160481812Y-87026327D01*
X160481813Y-87026326D01*
X160502971Y-86906335D01*
X160501854Y-86900000D01*
X160726498Y-86900000D01*
X160747656Y-87019993D01*
X160808575Y-87125507D01*
X160808576Y-87125508D01*
X160808577Y-87125509D01*
X160901913Y-87203828D01*
X161016407Y-87245500D01*
X161016408Y-87245500D01*
X161138248Y-87245500D01*
X161138249Y-87245500D01*
X161252743Y-87203828D01*
X161346079Y-87125509D01*
X161403341Y-87026328D01*
X161406999Y-87019993D01*
X161406999Y-87019992D01*
X161407000Y-87019991D01*
X161410525Y-87000000D01*
X162626498Y-87000000D01*
X162647656Y-87119993D01*
X162708575Y-87225507D01*
X162708576Y-87225508D01*
X162708577Y-87225509D01*
X162801913Y-87303828D01*
X162916407Y-87345500D01*
X162916408Y-87345500D01*
X163038248Y-87345500D01*
X163038249Y-87345500D01*
X163152743Y-87303828D01*
X163246079Y-87225509D01*
X163287241Y-87154214D01*
X163306999Y-87119993D01*
X163306999Y-87119992D01*
X163307000Y-87119991D01*
X163328158Y-87000000D01*
X163307000Y-86880009D01*
X163306999Y-86880007D01*
X163306999Y-86880006D01*
X163246080Y-86774492D01*
X163152743Y-86696172D01*
X163038249Y-86654500D01*
X162916407Y-86654500D01*
X162861482Y-86674491D01*
X162801912Y-86696172D01*
X162708575Y-86774492D01*
X162647656Y-86880006D01*
X162626498Y-87000000D01*
X161410525Y-87000000D01*
X161428158Y-86900000D01*
X161407000Y-86780009D01*
X161406999Y-86780007D01*
X161406999Y-86780006D01*
X161346080Y-86674492D01*
X161252743Y-86596172D01*
X161138249Y-86554500D01*
X161016407Y-86554500D01*
X160999002Y-86560835D01*
X160901912Y-86596172D01*
X160808575Y-86674492D01*
X160747656Y-86780006D01*
X160726498Y-86900000D01*
X160501854Y-86900000D01*
X160481813Y-86786344D01*
X160481812Y-86786342D01*
X160481812Y-86786341D01*
X160420893Y-86680827D01*
X160413343Y-86674492D01*
X160327556Y-86602507D01*
X160213062Y-86560835D01*
X160091220Y-86560835D01*
X160052302Y-86575000D01*
X159976725Y-86602507D01*
X159883388Y-86680827D01*
X159822469Y-86786341D01*
X159805953Y-86880009D01*
X159801311Y-86906335D01*
X159809010Y-86950000D01*
X159819632Y-87010236D01*
X159811514Y-87046850D01*
X159788135Y-87064790D01*
X159701912Y-87096172D01*
X159608575Y-87174492D01*
X159547656Y-87280006D01*
X159526498Y-87400000D01*
X148700500Y-87400000D01*
X148700500Y-85900000D01*
X160609170Y-85900000D01*
X160630328Y-86019993D01*
X160691247Y-86125507D01*
X160691248Y-86125508D01*
X160691249Y-86125509D01*
X160784585Y-86203828D01*
X160899079Y-86245500D01*
X160899080Y-86245500D01*
X161020920Y-86245500D01*
X161020921Y-86245500D01*
X161135415Y-86203828D01*
X161228751Y-86125509D01*
X161289672Y-86019991D01*
X161310830Y-85900000D01*
X162186498Y-85900000D01*
X162207656Y-86019993D01*
X162268575Y-86125507D01*
X162268576Y-86125508D01*
X162268577Y-86125509D01*
X162361913Y-86203828D01*
X162476407Y-86245500D01*
X162476408Y-86245500D01*
X162598248Y-86245500D01*
X162598249Y-86245500D01*
X162712743Y-86203828D01*
X162806079Y-86125509D01*
X162867000Y-86019991D01*
X162888158Y-85900000D01*
X162867000Y-85780009D01*
X162866999Y-85780007D01*
X162866999Y-85780006D01*
X162806080Y-85674492D01*
X162712743Y-85596172D01*
X162630922Y-85566392D01*
X162598249Y-85554500D01*
X162476407Y-85554500D01*
X162443734Y-85566392D01*
X162361912Y-85596172D01*
X162268575Y-85674492D01*
X162207656Y-85780006D01*
X162186498Y-85900000D01*
X161310830Y-85900000D01*
X161289672Y-85780009D01*
X161289671Y-85780007D01*
X161289671Y-85780006D01*
X161228752Y-85674492D01*
X161135415Y-85596172D01*
X161053594Y-85566392D01*
X161020921Y-85554500D01*
X160899079Y-85554500D01*
X160866406Y-85566392D01*
X160784584Y-85596172D01*
X160691247Y-85674492D01*
X160630328Y-85780006D01*
X160609170Y-85900000D01*
X148700500Y-85900000D01*
X148700500Y-85400000D01*
X161264167Y-85400000D01*
X161285325Y-85519993D01*
X161346244Y-85625507D01*
X161346245Y-85625508D01*
X161346246Y-85625509D01*
X161439582Y-85703828D01*
X161554076Y-85745500D01*
X161554077Y-85745500D01*
X161675917Y-85745500D01*
X161675918Y-85745500D01*
X161790412Y-85703828D01*
X161883748Y-85625509D01*
X161944669Y-85519991D01*
X161965827Y-85400000D01*
X162866498Y-85400000D01*
X162887656Y-85519993D01*
X162948575Y-85625507D01*
X162948576Y-85625508D01*
X162948577Y-85625509D01*
X163041913Y-85703828D01*
X163156407Y-85745500D01*
X163156408Y-85745500D01*
X163278248Y-85745500D01*
X163278249Y-85745500D01*
X163392743Y-85703828D01*
X163486079Y-85625509D01*
X163500807Y-85600000D01*
X168849170Y-85600000D01*
X168870328Y-85719993D01*
X168931247Y-85825507D01*
X168931248Y-85825508D01*
X168931249Y-85825509D01*
X169024585Y-85903828D01*
X169139079Y-85945500D01*
X169200384Y-85945500D01*
X169235032Y-85959852D01*
X169249384Y-85994500D01*
X169249170Y-85996945D01*
X169249170Y-85999997D01*
X169249170Y-85999998D01*
X169249170Y-86000000D01*
X169256229Y-86040032D01*
X169270328Y-86119993D01*
X169331247Y-86225507D01*
X169331248Y-86225508D01*
X169331249Y-86225509D01*
X169424585Y-86303828D01*
X169539079Y-86345500D01*
X169539080Y-86345500D01*
X169660920Y-86345500D01*
X169660921Y-86345500D01*
X169775415Y-86303828D01*
X169868751Y-86225509D01*
X169926487Y-86125507D01*
X169926781Y-86124998D01*
X170270373Y-86124998D01*
X170270373Y-86125001D01*
X170288789Y-86253084D01*
X170342541Y-86370785D01*
X170342545Y-86370792D01*
X170356749Y-86387184D01*
X170579128Y-86164804D01*
X170597836Y-86209968D01*
X170640032Y-86252164D01*
X170685194Y-86270871D01*
X170463930Y-86492135D01*
X170536142Y-86538544D01*
X170660298Y-86574999D01*
X170660305Y-86575000D01*
X170789695Y-86575000D01*
X170789701Y-86574999D01*
X170913858Y-86538543D01*
X170986068Y-86492134D01*
X170764805Y-86270871D01*
X170809968Y-86252164D01*
X170852164Y-86209968D01*
X170870870Y-86164805D01*
X171093249Y-86387184D01*
X171093250Y-86387183D01*
X171107454Y-86370792D01*
X171107458Y-86370786D01*
X171161210Y-86253084D01*
X171179627Y-86125001D01*
X171179627Y-86124998D01*
X171545373Y-86124998D01*
X171545373Y-86125001D01*
X171563789Y-86253084D01*
X171617541Y-86370785D01*
X171617545Y-86370792D01*
X171631749Y-86387184D01*
X171854128Y-86164804D01*
X171872836Y-86209968D01*
X171915032Y-86252164D01*
X171960194Y-86270871D01*
X171738930Y-86492135D01*
X171811142Y-86538544D01*
X171935298Y-86574999D01*
X171935305Y-86575000D01*
X172064695Y-86575000D01*
X172064701Y-86574999D01*
X172188858Y-86538543D01*
X172261068Y-86492134D01*
X172039805Y-86270871D01*
X172084968Y-86252164D01*
X172127164Y-86209968D01*
X172145871Y-86164805D01*
X172368249Y-86387184D01*
X172368250Y-86387183D01*
X172382454Y-86370792D01*
X172382458Y-86370786D01*
X172436210Y-86253084D01*
X172454627Y-86125001D01*
X172454627Y-86124998D01*
X172820373Y-86124998D01*
X172820373Y-86125001D01*
X172838789Y-86253084D01*
X172892541Y-86370785D01*
X172892545Y-86370792D01*
X172906749Y-86387184D01*
X173129128Y-86164804D01*
X173147836Y-86209968D01*
X173190032Y-86252164D01*
X173235194Y-86270870D01*
X173013929Y-86492135D01*
X173086142Y-86538544D01*
X173210298Y-86574999D01*
X173210305Y-86575000D01*
X173339695Y-86575000D01*
X173339701Y-86574999D01*
X173463858Y-86538543D01*
X173536068Y-86492134D01*
X173314805Y-86270871D01*
X173359968Y-86252164D01*
X173402164Y-86209968D01*
X173420871Y-86164805D01*
X173643249Y-86387184D01*
X173643250Y-86387183D01*
X173657454Y-86370792D01*
X173657458Y-86370786D01*
X173711210Y-86253084D01*
X173729627Y-86125001D01*
X173729627Y-86124998D01*
X173711654Y-86000000D01*
X178849170Y-86000000D01*
X178870328Y-86119993D01*
X178931247Y-86225507D01*
X178931248Y-86225508D01*
X178931249Y-86225509D01*
X179024585Y-86303828D01*
X179139079Y-86345500D01*
X179139080Y-86345500D01*
X179260920Y-86345500D01*
X179260921Y-86345500D01*
X179375415Y-86303828D01*
X179468751Y-86225509D01*
X179526487Y-86125507D01*
X179529671Y-86119993D01*
X179529671Y-86119992D01*
X179529672Y-86119991D01*
X179550830Y-86000000D01*
X179529672Y-85880009D01*
X179529671Y-85880007D01*
X179529671Y-85880006D01*
X179468752Y-85774492D01*
X179375415Y-85696172D01*
X179260921Y-85654500D01*
X179139079Y-85654500D01*
X179084154Y-85674491D01*
X179024584Y-85696172D01*
X178931247Y-85774492D01*
X178870328Y-85880006D01*
X178849170Y-86000000D01*
X173711654Y-86000000D01*
X173711210Y-85996915D01*
X173657458Y-85879214D01*
X173657454Y-85879207D01*
X173643249Y-85862814D01*
X173420870Y-86085193D01*
X173402164Y-86040032D01*
X173359968Y-85997836D01*
X173314805Y-85979129D01*
X173536069Y-85757864D01*
X173463857Y-85711455D01*
X173339701Y-85675000D01*
X173210298Y-85675000D01*
X173086141Y-85711456D01*
X173086140Y-85711456D01*
X173013930Y-85757863D01*
X173013930Y-85757864D01*
X173235194Y-85979128D01*
X173190032Y-85997836D01*
X173147836Y-86040032D01*
X173129128Y-86085194D01*
X172906749Y-85862815D01*
X172906748Y-85862815D01*
X172892544Y-85879209D01*
X172892542Y-85879212D01*
X172838789Y-85996915D01*
X172820373Y-86124998D01*
X172454627Y-86124998D01*
X172436210Y-85996915D01*
X172382458Y-85879214D01*
X172382454Y-85879207D01*
X172368249Y-85862814D01*
X172145870Y-86085193D01*
X172127164Y-86040032D01*
X172084968Y-85997836D01*
X172039805Y-85979129D01*
X172261069Y-85757864D01*
X172188857Y-85711455D01*
X172064701Y-85675000D01*
X171935298Y-85675000D01*
X171811141Y-85711456D01*
X171811140Y-85711456D01*
X171738930Y-85757863D01*
X171738930Y-85757864D01*
X171960194Y-85979128D01*
X171915032Y-85997836D01*
X171872836Y-86040032D01*
X171854128Y-86085194D01*
X171631749Y-85862815D01*
X171631748Y-85862815D01*
X171617544Y-85879209D01*
X171617542Y-85879212D01*
X171563789Y-85996915D01*
X171545373Y-86124998D01*
X171179627Y-86124998D01*
X171161210Y-85996915D01*
X171107458Y-85879214D01*
X171107454Y-85879207D01*
X171093249Y-85862814D01*
X170870870Y-86085193D01*
X170852164Y-86040032D01*
X170809968Y-85997836D01*
X170764805Y-85979129D01*
X170986069Y-85757864D01*
X170913857Y-85711455D01*
X170789701Y-85675000D01*
X170660298Y-85675000D01*
X170536141Y-85711456D01*
X170536140Y-85711456D01*
X170463930Y-85757863D01*
X170463930Y-85757864D01*
X170685194Y-85979128D01*
X170640032Y-85997836D01*
X170597836Y-86040032D01*
X170579128Y-86085194D01*
X170356749Y-85862815D01*
X170356748Y-85862815D01*
X170342544Y-85879209D01*
X170342542Y-85879212D01*
X170288789Y-85996915D01*
X170270373Y-86124998D01*
X169926781Y-86124998D01*
X169929671Y-86119993D01*
X169929671Y-86119992D01*
X169929672Y-86119991D01*
X169950830Y-86000000D01*
X169929672Y-85880009D01*
X169929671Y-85880007D01*
X169929671Y-85880006D01*
X169868752Y-85774492D01*
X169775415Y-85696172D01*
X169660921Y-85654500D01*
X169660920Y-85654500D01*
X169599616Y-85654500D01*
X169564968Y-85640148D01*
X169550616Y-85605500D01*
X169550830Y-85603054D01*
X169550830Y-85595713D01*
X169552977Y-85595713D01*
X169559479Y-85566392D01*
X169591110Y-85546243D01*
X169599616Y-85545499D01*
X169659953Y-85545499D01*
X169659954Y-85545499D01*
X169774448Y-85503827D01*
X169867784Y-85425508D01*
X169928705Y-85319990D01*
X169949863Y-85199999D01*
X169928705Y-85080008D01*
X169928704Y-85080006D01*
X169928704Y-85080005D01*
X169867785Y-84974491D01*
X169774448Y-84896171D01*
X169707469Y-84871793D01*
X169659954Y-84854499D01*
X169538112Y-84854499D01*
X169490597Y-84871793D01*
X169423617Y-84896171D01*
X169330280Y-84974491D01*
X169269361Y-85080005D01*
X169248203Y-85200001D01*
X169248203Y-85204286D01*
X169246056Y-85204286D01*
X169239554Y-85233607D01*
X169207923Y-85253756D01*
X169199417Y-85254500D01*
X169139079Y-85254500D01*
X169081832Y-85275336D01*
X169024584Y-85296172D01*
X168931247Y-85374492D01*
X168870328Y-85480006D01*
X168849170Y-85600000D01*
X163500807Y-85600000D01*
X163547000Y-85519991D01*
X163568158Y-85400000D01*
X163547000Y-85280009D01*
X163546999Y-85280007D01*
X163546999Y-85280006D01*
X163486080Y-85174492D01*
X163392743Y-85096172D01*
X163348332Y-85080008D01*
X163278249Y-85054500D01*
X163156407Y-85054500D01*
X163099160Y-85075336D01*
X163041912Y-85096172D01*
X162948575Y-85174492D01*
X162887656Y-85280006D01*
X162866498Y-85400000D01*
X161965827Y-85400000D01*
X161944669Y-85280009D01*
X161944668Y-85280007D01*
X161944668Y-85280006D01*
X161883749Y-85174492D01*
X161790412Y-85096172D01*
X161746001Y-85080008D01*
X161675918Y-85054500D01*
X161554076Y-85054500D01*
X161496829Y-85075336D01*
X161439581Y-85096172D01*
X161346244Y-85174492D01*
X161285325Y-85280006D01*
X161264167Y-85400000D01*
X148700500Y-85400000D01*
X148700500Y-84600000D01*
X170649170Y-84600000D01*
X170670328Y-84719993D01*
X170731247Y-84825507D01*
X170731248Y-84825508D01*
X170731249Y-84825509D01*
X170824585Y-84903828D01*
X170939079Y-84945500D01*
X170939080Y-84945500D01*
X171060920Y-84945500D01*
X171060921Y-84945500D01*
X171175415Y-84903828D01*
X171268751Y-84825509D01*
X171329672Y-84719991D01*
X171350830Y-84600000D01*
X171342014Y-84550000D01*
X172649170Y-84550000D01*
X172670328Y-84669993D01*
X172731247Y-84775507D01*
X172731248Y-84775508D01*
X172731249Y-84775509D01*
X172824585Y-84853828D01*
X172939079Y-84895500D01*
X172939080Y-84895500D01*
X173060920Y-84895500D01*
X173060921Y-84895500D01*
X173175415Y-84853828D01*
X173268751Y-84775509D01*
X173329672Y-84669991D01*
X173342014Y-84600000D01*
X174249170Y-84600000D01*
X174270328Y-84719993D01*
X174331247Y-84825507D01*
X174331248Y-84825508D01*
X174331249Y-84825509D01*
X174424585Y-84903828D01*
X174491565Y-84928206D01*
X174519215Y-84953542D01*
X174520851Y-84991010D01*
X174517241Y-84998751D01*
X174470328Y-85080006D01*
X174449170Y-85200000D01*
X174470328Y-85319993D01*
X174531247Y-85425507D01*
X174531248Y-85425508D01*
X174531249Y-85425509D01*
X174624585Y-85503828D01*
X174739079Y-85545500D01*
X174739080Y-85545500D01*
X174860920Y-85545500D01*
X174860921Y-85545500D01*
X174975415Y-85503828D01*
X175068751Y-85425509D01*
X175129672Y-85319991D01*
X175150830Y-85200000D01*
X175129672Y-85080009D01*
X175129671Y-85080007D01*
X175129671Y-85080006D01*
X175068752Y-84974492D01*
X174975415Y-84896172D01*
X174908434Y-84871793D01*
X174880784Y-84846456D01*
X174879148Y-84808989D01*
X174882758Y-84801248D01*
X174929671Y-84719993D01*
X174929671Y-84719992D01*
X174929672Y-84719991D01*
X174950830Y-84600000D01*
X175749170Y-84600000D01*
X175770328Y-84719993D01*
X175831247Y-84825507D01*
X175831248Y-84825508D01*
X175831249Y-84825509D01*
X175924585Y-84903828D01*
X176039079Y-84945500D01*
X176039080Y-84945500D01*
X176160920Y-84945500D01*
X176160921Y-84945500D01*
X176275415Y-84903828D01*
X176368751Y-84825509D01*
X176429672Y-84719991D01*
X176450830Y-84600000D01*
X176429672Y-84480009D01*
X176429671Y-84480007D01*
X176429671Y-84480006D01*
X176368752Y-84374492D01*
X176314332Y-84328828D01*
X176275415Y-84296172D01*
X176160921Y-84254500D01*
X176039079Y-84254500D01*
X176006582Y-84266328D01*
X175924584Y-84296172D01*
X175831247Y-84374492D01*
X175770328Y-84480006D01*
X175749170Y-84600000D01*
X174950830Y-84600000D01*
X174929672Y-84480009D01*
X174929671Y-84480007D01*
X174929671Y-84480006D01*
X174868752Y-84374492D01*
X174814332Y-84328828D01*
X174775415Y-84296172D01*
X174660921Y-84254500D01*
X174539079Y-84254500D01*
X174506582Y-84266328D01*
X174424584Y-84296172D01*
X174331247Y-84374492D01*
X174270328Y-84480006D01*
X174249170Y-84600000D01*
X173342014Y-84600000D01*
X173350830Y-84550000D01*
X173329672Y-84430009D01*
X173329671Y-84430007D01*
X173329671Y-84430006D01*
X173268752Y-84324492D01*
X173263390Y-84319993D01*
X173175415Y-84246172D01*
X173060921Y-84204500D01*
X172939079Y-84204500D01*
X172881832Y-84225336D01*
X172824584Y-84246172D01*
X172731247Y-84324492D01*
X172670328Y-84430006D01*
X172649170Y-84550000D01*
X171342014Y-84550000D01*
X171329672Y-84480009D01*
X171329671Y-84480007D01*
X171329671Y-84480006D01*
X171268752Y-84374492D01*
X171214332Y-84328828D01*
X171175415Y-84296172D01*
X171060921Y-84254500D01*
X170939079Y-84254500D01*
X170906582Y-84266328D01*
X170824584Y-84296172D01*
X170731247Y-84374492D01*
X170670328Y-84480006D01*
X170649170Y-84600000D01*
X148700500Y-84600000D01*
X148700500Y-83460000D01*
X149349170Y-83460000D01*
X149370328Y-83579993D01*
X149431247Y-83685507D01*
X149431248Y-83685508D01*
X149431249Y-83685509D01*
X149524585Y-83763828D01*
X149639079Y-83805500D01*
X149639080Y-83805500D01*
X149760920Y-83805500D01*
X149760921Y-83805500D01*
X149875415Y-83763828D01*
X149891894Y-83750000D01*
X158399170Y-83750000D01*
X158420328Y-83869993D01*
X158481247Y-83975507D01*
X158481248Y-83975508D01*
X158481249Y-83975509D01*
X158574585Y-84053828D01*
X158689079Y-84095500D01*
X158689080Y-84095500D01*
X158810920Y-84095500D01*
X158810921Y-84095500D01*
X158925415Y-84053828D01*
X159018751Y-83975509D01*
X159079672Y-83869991D01*
X159100830Y-83750000D01*
X159092014Y-83700000D01*
X160249170Y-83700000D01*
X160270328Y-83819993D01*
X160331247Y-83925507D01*
X160331248Y-83925508D01*
X160331249Y-83925509D01*
X160424585Y-84003828D01*
X160539079Y-84045500D01*
X160539080Y-84045500D01*
X160660920Y-84045500D01*
X160660921Y-84045500D01*
X160775415Y-84003828D01*
X160868751Y-83925509D01*
X160883479Y-83900000D01*
X161266498Y-83900000D01*
X161287656Y-84019993D01*
X161348575Y-84125507D01*
X161348576Y-84125508D01*
X161348577Y-84125509D01*
X161441913Y-84203828D01*
X161556407Y-84245500D01*
X161556408Y-84245500D01*
X161678248Y-84245500D01*
X161678249Y-84245500D01*
X161792743Y-84203828D01*
X161886079Y-84125509D01*
X161947000Y-84019991D01*
X161968158Y-83900000D01*
X162066498Y-83900000D01*
X162087656Y-84019993D01*
X162148575Y-84125507D01*
X162148576Y-84125508D01*
X162148577Y-84125509D01*
X162241913Y-84203828D01*
X162356407Y-84245500D01*
X162356408Y-84245500D01*
X162478248Y-84245500D01*
X162478249Y-84245500D01*
X162592743Y-84203828D01*
X162686079Y-84125509D01*
X162747000Y-84019991D01*
X162768158Y-83900000D01*
X162866498Y-83900000D01*
X162887656Y-84019993D01*
X162948575Y-84125507D01*
X162948576Y-84125508D01*
X162948577Y-84125509D01*
X163041913Y-84203828D01*
X163156407Y-84245500D01*
X163156408Y-84245500D01*
X163278248Y-84245500D01*
X163278249Y-84245500D01*
X163392743Y-84203828D01*
X163486079Y-84125509D01*
X163547000Y-84019991D01*
X163568158Y-83900000D01*
X163666498Y-83900000D01*
X163687656Y-84019993D01*
X163748575Y-84125507D01*
X163748576Y-84125508D01*
X163748577Y-84125509D01*
X163841913Y-84203828D01*
X163956407Y-84245500D01*
X163956408Y-84245500D01*
X164078248Y-84245500D01*
X164078249Y-84245500D01*
X164192743Y-84203828D01*
X164286079Y-84125509D01*
X164344108Y-84025000D01*
X167299170Y-84025000D01*
X167320328Y-84144993D01*
X167381247Y-84250507D01*
X167381248Y-84250508D01*
X167381249Y-84250509D01*
X167474585Y-84328828D01*
X167589079Y-84370500D01*
X167589080Y-84370500D01*
X167710920Y-84370500D01*
X167710921Y-84370500D01*
X167825415Y-84328828D01*
X167918751Y-84250509D01*
X167949211Y-84197750D01*
X167979671Y-84144993D01*
X167979671Y-84144992D01*
X167979672Y-84144991D01*
X168000830Y-84025000D01*
X167989809Y-83962500D01*
X168811670Y-83962500D01*
X168832828Y-84082493D01*
X168893747Y-84188007D01*
X168893748Y-84188008D01*
X168893749Y-84188009D01*
X168987085Y-84266328D01*
X169101579Y-84308000D01*
X169101580Y-84308000D01*
X169223420Y-84308000D01*
X169223421Y-84308000D01*
X169337915Y-84266328D01*
X169416961Y-84200000D01*
X177099170Y-84200000D01*
X177120328Y-84319993D01*
X177181247Y-84425507D01*
X177181248Y-84425508D01*
X177181249Y-84425509D01*
X177274585Y-84503828D01*
X177389079Y-84545500D01*
X177389080Y-84545500D01*
X177510920Y-84545500D01*
X177510921Y-84545500D01*
X177625415Y-84503828D01*
X177718751Y-84425509D01*
X177774571Y-84328827D01*
X177779671Y-84319993D01*
X177779671Y-84319992D01*
X177779672Y-84319991D01*
X177800830Y-84200000D01*
X177779672Y-84080009D01*
X177779671Y-84080007D01*
X177779671Y-84080006D01*
X177762347Y-84050000D01*
X178949170Y-84050000D01*
X178970328Y-84169993D01*
X179031247Y-84275507D01*
X179031248Y-84275508D01*
X179031249Y-84275509D01*
X179124585Y-84353828D01*
X179239079Y-84395500D01*
X179239080Y-84395500D01*
X179360920Y-84395500D01*
X179360921Y-84395500D01*
X179475415Y-84353828D01*
X179568751Y-84275509D01*
X179611560Y-84201362D01*
X179629671Y-84169993D01*
X179629671Y-84169992D01*
X179629672Y-84169991D01*
X179650830Y-84050000D01*
X179630012Y-83931938D01*
X185859500Y-83931938D01*
X185859500Y-84067961D01*
X185886034Y-84201353D01*
X185886036Y-84201362D01*
X185937038Y-84324492D01*
X185938087Y-84327024D01*
X185969804Y-84374492D01*
X186003892Y-84425509D01*
X186013654Y-84440118D01*
X186109832Y-84536296D01*
X186222926Y-84611863D01*
X186348589Y-84663914D01*
X186481992Y-84690450D01*
X186618008Y-84690450D01*
X186751411Y-84663914D01*
X186877074Y-84611863D01*
X186990168Y-84536296D01*
X187086346Y-84440118D01*
X187161913Y-84327024D01*
X187213964Y-84201361D01*
X187240500Y-84067958D01*
X187240500Y-83931942D01*
X187213964Y-83798539D01*
X187161913Y-83672876D01*
X187086346Y-83559782D01*
X186990168Y-83463604D01*
X186984774Y-83460000D01*
X186952808Y-83438641D01*
X186877074Y-83388037D01*
X186877071Y-83388035D01*
X186877070Y-83388035D01*
X186751412Y-83335986D01*
X186751403Y-83335984D01*
X186618011Y-83309450D01*
X186618008Y-83309450D01*
X186481992Y-83309450D01*
X186481988Y-83309450D01*
X186348596Y-83335984D01*
X186348587Y-83335986D01*
X186222929Y-83388035D01*
X186109832Y-83463603D01*
X186013653Y-83559782D01*
X185938085Y-83672879D01*
X185886036Y-83798537D01*
X185886034Y-83798546D01*
X185859500Y-83931938D01*
X179630012Y-83931938D01*
X179629672Y-83930009D01*
X179629671Y-83930007D01*
X179629671Y-83930006D01*
X179568752Y-83824492D01*
X179563390Y-83819993D01*
X179475415Y-83746172D01*
X179360921Y-83704500D01*
X179239079Y-83704500D01*
X179193273Y-83721172D01*
X179124584Y-83746172D01*
X179031247Y-83824492D01*
X178970328Y-83930006D01*
X178949170Y-84050000D01*
X177762347Y-84050000D01*
X177718752Y-83974492D01*
X177625415Y-83896172D01*
X177623569Y-83895500D01*
X177510921Y-83854500D01*
X177389079Y-83854500D01*
X177346512Y-83869993D01*
X177274584Y-83896172D01*
X177181247Y-83974492D01*
X177120328Y-84080006D01*
X177099170Y-84200000D01*
X169416961Y-84200000D01*
X169431251Y-84188009D01*
X169461711Y-84135250D01*
X169492171Y-84082493D01*
X169492171Y-84082492D01*
X169492172Y-84082491D01*
X169513330Y-83962500D01*
X169492172Y-83842509D01*
X169492171Y-83842507D01*
X169492171Y-83842506D01*
X169431252Y-83736992D01*
X169337915Y-83658672D01*
X169259163Y-83630009D01*
X169223421Y-83617000D01*
X169101579Y-83617000D01*
X169065845Y-83630006D01*
X168987084Y-83658672D01*
X168893747Y-83736992D01*
X168832828Y-83842506D01*
X168811670Y-83962500D01*
X167989809Y-83962500D01*
X167979672Y-83905009D01*
X167979671Y-83905007D01*
X167979671Y-83905006D01*
X167918752Y-83799492D01*
X167859770Y-83750000D01*
X167825415Y-83721172D01*
X167710921Y-83679500D01*
X167589079Y-83679500D01*
X167545119Y-83695500D01*
X167474584Y-83721172D01*
X167381247Y-83799492D01*
X167320328Y-83905006D01*
X167299170Y-84025000D01*
X164344108Y-84025000D01*
X164347000Y-84019991D01*
X164368158Y-83900000D01*
X164347000Y-83780009D01*
X164346999Y-83780007D01*
X164346999Y-83780006D01*
X164286080Y-83674492D01*
X164280718Y-83669993D01*
X164192743Y-83596172D01*
X164078249Y-83554500D01*
X163956407Y-83554500D01*
X163941895Y-83559782D01*
X163841912Y-83596172D01*
X163748575Y-83674492D01*
X163687656Y-83780006D01*
X163666498Y-83900000D01*
X163568158Y-83900000D01*
X163547000Y-83780009D01*
X163546999Y-83780007D01*
X163546999Y-83780006D01*
X163486080Y-83674492D01*
X163480718Y-83669993D01*
X163392743Y-83596172D01*
X163278249Y-83554500D01*
X163156407Y-83554500D01*
X163141895Y-83559782D01*
X163041912Y-83596172D01*
X162948575Y-83674492D01*
X162887656Y-83780006D01*
X162866498Y-83900000D01*
X162768158Y-83900000D01*
X162747000Y-83780009D01*
X162746999Y-83780007D01*
X162746999Y-83780006D01*
X162686080Y-83674492D01*
X162680718Y-83669993D01*
X162592743Y-83596172D01*
X162478249Y-83554500D01*
X162356407Y-83554500D01*
X162341895Y-83559782D01*
X162241912Y-83596172D01*
X162148575Y-83674492D01*
X162087656Y-83780006D01*
X162066498Y-83900000D01*
X161968158Y-83900000D01*
X161947000Y-83780009D01*
X161946999Y-83780007D01*
X161946999Y-83780006D01*
X161886080Y-83674492D01*
X161880718Y-83669993D01*
X161792743Y-83596172D01*
X161678249Y-83554500D01*
X161556407Y-83554500D01*
X161541895Y-83559782D01*
X161441912Y-83596172D01*
X161348575Y-83674492D01*
X161287656Y-83780006D01*
X161266498Y-83900000D01*
X160883479Y-83900000D01*
X160929672Y-83819991D01*
X160950830Y-83700000D01*
X160929672Y-83580009D01*
X160929671Y-83580007D01*
X160929671Y-83580006D01*
X160868752Y-83474492D01*
X160863390Y-83469993D01*
X160779977Y-83400000D01*
X169449170Y-83400000D01*
X169470328Y-83519993D01*
X169531247Y-83625507D01*
X169531248Y-83625508D01*
X169531249Y-83625509D01*
X169624585Y-83703828D01*
X169739079Y-83745500D01*
X169739080Y-83745500D01*
X169860920Y-83745500D01*
X169860921Y-83745500D01*
X169975415Y-83703828D01*
X170068751Y-83625509D01*
X170129672Y-83519991D01*
X170150830Y-83400000D01*
X171849170Y-83400000D01*
X171870328Y-83519993D01*
X171931247Y-83625507D01*
X171931248Y-83625508D01*
X171931249Y-83625509D01*
X172024585Y-83703828D01*
X172139079Y-83745500D01*
X172139080Y-83745500D01*
X172260920Y-83745500D01*
X172260921Y-83745500D01*
X172375415Y-83703828D01*
X172468751Y-83625509D01*
X172529672Y-83519991D01*
X172550830Y-83400000D01*
X172542014Y-83350000D01*
X173849170Y-83350000D01*
X173870328Y-83469993D01*
X173931247Y-83575507D01*
X173931248Y-83575508D01*
X173931249Y-83575509D01*
X174024585Y-83653828D01*
X174139079Y-83695500D01*
X174139080Y-83695500D01*
X174260920Y-83695500D01*
X174260921Y-83695500D01*
X174375415Y-83653828D01*
X174468751Y-83575509D01*
X174483479Y-83550000D01*
X181104170Y-83550000D01*
X181125328Y-83669993D01*
X181186247Y-83775507D01*
X181186248Y-83775508D01*
X181186249Y-83775509D01*
X181279585Y-83853828D01*
X181394079Y-83895500D01*
X181394080Y-83895500D01*
X181515920Y-83895500D01*
X181515921Y-83895500D01*
X181630415Y-83853828D01*
X181723751Y-83775509D01*
X181784672Y-83669991D01*
X181805830Y-83550000D01*
X181784672Y-83430009D01*
X181784671Y-83430007D01*
X181784671Y-83430006D01*
X181723752Y-83324492D01*
X181630415Y-83246172D01*
X181586007Y-83230009D01*
X181515921Y-83204500D01*
X181394079Y-83204500D01*
X181336832Y-83225336D01*
X181279584Y-83246172D01*
X181186247Y-83324492D01*
X181125328Y-83430006D01*
X181104170Y-83550000D01*
X174483479Y-83550000D01*
X174529672Y-83469991D01*
X174550830Y-83350000D01*
X174529672Y-83230009D01*
X174529671Y-83230007D01*
X174529671Y-83230006D01*
X174483479Y-83150000D01*
X178949170Y-83150000D01*
X178970328Y-83269993D01*
X179031247Y-83375507D01*
X179031248Y-83375508D01*
X179031249Y-83375509D01*
X179124585Y-83453828D01*
X179239079Y-83495500D01*
X179239080Y-83495500D01*
X179360920Y-83495500D01*
X179360921Y-83495500D01*
X179475415Y-83453828D01*
X179568751Y-83375509D01*
X179629672Y-83269991D01*
X179650830Y-83150000D01*
X179631809Y-83042130D01*
X182384500Y-83042130D01*
X182384500Y-83177869D01*
X182419629Y-83308971D01*
X182419631Y-83308977D01*
X182469974Y-83396172D01*
X182487498Y-83426524D01*
X182583476Y-83522502D01*
X182586923Y-83524492D01*
X182701022Y-83590368D01*
X182701028Y-83590370D01*
X182832130Y-83625500D01*
X182832133Y-83625500D01*
X182967869Y-83625500D01*
X183098971Y-83590370D01*
X183098969Y-83590370D01*
X183098975Y-83590369D01*
X183216524Y-83522502D01*
X183312502Y-83426524D01*
X183380369Y-83308975D01*
X183388131Y-83280006D01*
X183415500Y-83177869D01*
X183415500Y-83042130D01*
X183380370Y-82911028D01*
X183380368Y-82911022D01*
X183333593Y-82830006D01*
X183312502Y-82793476D01*
X183216524Y-82697498D01*
X183214227Y-82696172D01*
X183098977Y-82629631D01*
X183098971Y-82629629D01*
X182967870Y-82594500D01*
X182967867Y-82594500D01*
X182832133Y-82594500D01*
X182832130Y-82594500D01*
X182701028Y-82629629D01*
X182701022Y-82629631D01*
X182583475Y-82697498D01*
X182583475Y-82697499D01*
X182487499Y-82793475D01*
X182487498Y-82793475D01*
X182419631Y-82911022D01*
X182419629Y-82911028D01*
X182384500Y-83042130D01*
X179631809Y-83042130D01*
X179629672Y-83030009D01*
X179629671Y-83030007D01*
X179629671Y-83030006D01*
X179568752Y-82924492D01*
X179552706Y-82911028D01*
X179475415Y-82846172D01*
X179360921Y-82804500D01*
X179239079Y-82804500D01*
X179181832Y-82825336D01*
X179124584Y-82846172D01*
X179031247Y-82924492D01*
X178970328Y-83030006D01*
X178949170Y-83150000D01*
X174483479Y-83150000D01*
X174468752Y-83124492D01*
X174463390Y-83119993D01*
X174375415Y-83046172D01*
X174260921Y-83004500D01*
X174139079Y-83004500D01*
X174081832Y-83025336D01*
X174024584Y-83046172D01*
X173931247Y-83124492D01*
X173870328Y-83230006D01*
X173849170Y-83350000D01*
X172542014Y-83350000D01*
X172529672Y-83280009D01*
X172529671Y-83280007D01*
X172529671Y-83280006D01*
X172468752Y-83174492D01*
X172375415Y-83096172D01*
X172260921Y-83054500D01*
X172139079Y-83054500D01*
X172096512Y-83069993D01*
X172024584Y-83096172D01*
X171931247Y-83174492D01*
X171870328Y-83280006D01*
X171849170Y-83400000D01*
X170150830Y-83400000D01*
X170129672Y-83280009D01*
X170129671Y-83280007D01*
X170129671Y-83280006D01*
X170068752Y-83174492D01*
X169975415Y-83096172D01*
X169860921Y-83054500D01*
X169739079Y-83054500D01*
X169696512Y-83069993D01*
X169624584Y-83096172D01*
X169531247Y-83174492D01*
X169470328Y-83280006D01*
X169449170Y-83400000D01*
X160779977Y-83400000D01*
X160775415Y-83396172D01*
X160660921Y-83354500D01*
X160539079Y-83354500D01*
X160481832Y-83375336D01*
X160424584Y-83396172D01*
X160331247Y-83474492D01*
X160270328Y-83580006D01*
X160249170Y-83700000D01*
X159092014Y-83700000D01*
X159079672Y-83630009D01*
X159079671Y-83630007D01*
X159079671Y-83630006D01*
X159018752Y-83524492D01*
X159016380Y-83522502D01*
X158925415Y-83446172D01*
X158810921Y-83404500D01*
X158689079Y-83404500D01*
X158631832Y-83425336D01*
X158574584Y-83446172D01*
X158481247Y-83524492D01*
X158420328Y-83630006D01*
X158399170Y-83750000D01*
X149891894Y-83750000D01*
X149968751Y-83685509D01*
X150029672Y-83579991D01*
X150050830Y-83460000D01*
X150029672Y-83340009D01*
X150029671Y-83340007D01*
X150029671Y-83340006D01*
X149968752Y-83234492D01*
X149963409Y-83230009D01*
X149875415Y-83156172D01*
X149760921Y-83114500D01*
X149639079Y-83114500D01*
X149611629Y-83124491D01*
X149524584Y-83156172D01*
X149431247Y-83234492D01*
X149370328Y-83340006D01*
X149349170Y-83460000D01*
X148700500Y-83460000D01*
X148700500Y-82950000D01*
X158399170Y-82950000D01*
X158420328Y-83069993D01*
X158481247Y-83175507D01*
X158481248Y-83175508D01*
X158481249Y-83175509D01*
X158574585Y-83253828D01*
X158689079Y-83295500D01*
X158689080Y-83295500D01*
X158810920Y-83295500D01*
X158810921Y-83295500D01*
X158925415Y-83253828D01*
X159018751Y-83175509D01*
X159079672Y-83069991D01*
X159092014Y-83000000D01*
X159749170Y-83000000D01*
X159770328Y-83119993D01*
X159831247Y-83225507D01*
X159831248Y-83225508D01*
X159831249Y-83225509D01*
X159924585Y-83303828D01*
X160039079Y-83345500D01*
X160039080Y-83345500D01*
X160160920Y-83345500D01*
X160160921Y-83345500D01*
X160275415Y-83303828D01*
X160368751Y-83225509D01*
X160429672Y-83119991D01*
X160450830Y-83000000D01*
X160429672Y-82880009D01*
X160429671Y-82880007D01*
X160429671Y-82880006D01*
X160368752Y-82774492D01*
X160275415Y-82696172D01*
X160160921Y-82654500D01*
X160039079Y-82654500D01*
X159981832Y-82675336D01*
X159924584Y-82696172D01*
X159831247Y-82774492D01*
X159770328Y-82880006D01*
X159749170Y-83000000D01*
X159092014Y-83000000D01*
X159100830Y-82950000D01*
X159079672Y-82830009D01*
X159079671Y-82830007D01*
X159079671Y-82830006D01*
X159018752Y-82724492D01*
X158986583Y-82697499D01*
X158925415Y-82646172D01*
X158810921Y-82604500D01*
X158689079Y-82604500D01*
X158631832Y-82625336D01*
X158574584Y-82646172D01*
X158481247Y-82724492D01*
X158420328Y-82830006D01*
X158399170Y-82950000D01*
X148700500Y-82950000D01*
X148700500Y-82125000D01*
X155849170Y-82125000D01*
X155870328Y-82244993D01*
X155931247Y-82350507D01*
X155931248Y-82350508D01*
X155931249Y-82350509D01*
X156024585Y-82428828D01*
X156139079Y-82470500D01*
X156139080Y-82470500D01*
X156260920Y-82470500D01*
X156260921Y-82470500D01*
X156375415Y-82428828D01*
X156468751Y-82350509D01*
X156529672Y-82244991D01*
X156537634Y-82199831D01*
X156557785Y-82168204D01*
X156594399Y-82160086D01*
X156626028Y-82180237D01*
X156628325Y-82183842D01*
X156681247Y-82275507D01*
X156681248Y-82275508D01*
X156681249Y-82275509D01*
X156774585Y-82353828D01*
X156889079Y-82395500D01*
X156889080Y-82395500D01*
X157010920Y-82395500D01*
X157010921Y-82395500D01*
X157125415Y-82353828D01*
X157189564Y-82300000D01*
X179499170Y-82300000D01*
X179520328Y-82419993D01*
X179581247Y-82525507D01*
X179581248Y-82525508D01*
X179581249Y-82525509D01*
X179674585Y-82603828D01*
X179789079Y-82645500D01*
X179789080Y-82645500D01*
X179910920Y-82645500D01*
X179910921Y-82645500D01*
X180025415Y-82603828D01*
X180118751Y-82525509D01*
X180179672Y-82419991D01*
X180200830Y-82300000D01*
X180179672Y-82180009D01*
X180179671Y-82180007D01*
X180179671Y-82180006D01*
X180118752Y-82074492D01*
X180025415Y-81996172D01*
X179980982Y-81980000D01*
X179910921Y-81954500D01*
X179789079Y-81954500D01*
X179775188Y-81959556D01*
X179674584Y-81996172D01*
X179581247Y-82074492D01*
X179520328Y-82180006D01*
X179499170Y-82300000D01*
X157189564Y-82300000D01*
X157218751Y-82275509D01*
X157271675Y-82183842D01*
X157279671Y-82169993D01*
X157279671Y-82169992D01*
X157279672Y-82169991D01*
X157300830Y-82050000D01*
X157279672Y-81930009D01*
X157279671Y-81930007D01*
X157279671Y-81930006D01*
X157218752Y-81824492D01*
X157214795Y-81821172D01*
X157125415Y-81746172D01*
X157010921Y-81704500D01*
X156889079Y-81704500D01*
X156831832Y-81725336D01*
X156774584Y-81746172D01*
X156681247Y-81824492D01*
X156620327Y-81930009D01*
X156612364Y-81975167D01*
X156592213Y-82006796D01*
X156555599Y-82014912D01*
X156523970Y-81994761D01*
X156521679Y-81991165D01*
X156468751Y-81899491D01*
X156375415Y-81821172D01*
X156260921Y-81779500D01*
X156139079Y-81779500D01*
X156095119Y-81795500D01*
X156024584Y-81821172D01*
X155931247Y-81899492D01*
X155870328Y-82005006D01*
X155849170Y-82125000D01*
X148700500Y-82125000D01*
X148700500Y-81250000D01*
X161749170Y-81250000D01*
X161770328Y-81369993D01*
X161831247Y-81475507D01*
X161831248Y-81475508D01*
X161831249Y-81475509D01*
X161924585Y-81553828D01*
X162039079Y-81595500D01*
X162039080Y-81595500D01*
X162160920Y-81595500D01*
X162160921Y-81595500D01*
X162275415Y-81553828D01*
X162368751Y-81475509D01*
X162429672Y-81369991D01*
X162450830Y-81250000D01*
X162429672Y-81130009D01*
X162429671Y-81130007D01*
X162429671Y-81130006D01*
X162368752Y-81024492D01*
X162346136Y-81005515D01*
X162275415Y-80946172D01*
X162160921Y-80904500D01*
X162039079Y-80904500D01*
X161981832Y-80925336D01*
X161924584Y-80946172D01*
X161831247Y-81024492D01*
X161770328Y-81130006D01*
X161749170Y-81250000D01*
X148700500Y-81250000D01*
X148700500Y-80250000D01*
X149949170Y-80250000D01*
X149970328Y-80369993D01*
X150031247Y-80475507D01*
X150031248Y-80475508D01*
X150031249Y-80475509D01*
X150124585Y-80553828D01*
X150239079Y-80595500D01*
X150239080Y-80595500D01*
X150360920Y-80595500D01*
X150360921Y-80595500D01*
X150475415Y-80553828D01*
X150568751Y-80475509D01*
X150629672Y-80369991D01*
X150637605Y-80325000D01*
X155799170Y-80325000D01*
X155820328Y-80444993D01*
X155881247Y-80550507D01*
X155881248Y-80550508D01*
X155881249Y-80550509D01*
X155974585Y-80628828D01*
X156089079Y-80670500D01*
X156089080Y-80670500D01*
X156210920Y-80670500D01*
X156210921Y-80670500D01*
X156325415Y-80628828D01*
X156418751Y-80550509D01*
X156457535Y-80483333D01*
X156479671Y-80444993D01*
X156479671Y-80444992D01*
X156479672Y-80444991D01*
X156500830Y-80325000D01*
X156496422Y-80300000D01*
X156649170Y-80300000D01*
X156670328Y-80419993D01*
X156731247Y-80525507D01*
X156731248Y-80525508D01*
X156731249Y-80525509D01*
X156824585Y-80603828D01*
X156939079Y-80645500D01*
X156939080Y-80645500D01*
X157060920Y-80645500D01*
X157060921Y-80645500D01*
X157175415Y-80603828D01*
X157268751Y-80525509D01*
X157329672Y-80419991D01*
X157350830Y-80300000D01*
X157329672Y-80180009D01*
X157329671Y-80180007D01*
X157329671Y-80180006D01*
X157268752Y-80074492D01*
X157205208Y-80021172D01*
X157175415Y-79996172D01*
X157060921Y-79954500D01*
X156939079Y-79954500D01*
X156896394Y-79970036D01*
X156824584Y-79996172D01*
X156731247Y-80074492D01*
X156670328Y-80180006D01*
X156649170Y-80300000D01*
X156496422Y-80300000D01*
X156479672Y-80205009D01*
X156479671Y-80205007D01*
X156479671Y-80205006D01*
X156418752Y-80099492D01*
X156413409Y-80095009D01*
X156325415Y-80021172D01*
X156210921Y-79979500D01*
X156089079Y-79979500D01*
X156061618Y-79989495D01*
X155974584Y-80021172D01*
X155881247Y-80099492D01*
X155820328Y-80205006D01*
X155799170Y-80325000D01*
X150637605Y-80325000D01*
X150650830Y-80250000D01*
X150629672Y-80130009D01*
X150629671Y-80130007D01*
X150629671Y-80130006D01*
X150568752Y-80024492D01*
X150564795Y-80021172D01*
X150475415Y-79946172D01*
X150360921Y-79904500D01*
X150239079Y-79904500D01*
X150184154Y-79924491D01*
X150124584Y-79946172D01*
X150031247Y-80024492D01*
X149970328Y-80130006D01*
X149949170Y-80250000D01*
X148700500Y-80250000D01*
X148700500Y-79603346D01*
X148714852Y-79568698D01*
X149068698Y-79214852D01*
X149103346Y-79200500D01*
X171709549Y-79200500D01*
X171744197Y-79214852D01*
G37*
G04 #@! TD.AperFunction*
M02*
