M48
; DRILL file {KiCad 8.0.3} date 2024-07-15T22:17:07+1000
; FORMAT={-:-/ absolute / metric / decimal}
; #@! TF.CreationDate,2024-07-15T22:17:07+10:00
; #@! TF.GenerationSoftware,Kicad,Pcbnew,8.0.3
; #@! TF.FileFunction,Plated,1,4,PTH
FMAT,2
METRIC
; #@! TA.AperFunction,Plated,PTH,ViaDrill
T1C0.300
; #@! TA.AperFunction,Plated,PTH,ComponentDrill
T2C0.300
; #@! TA.AperFunction,Plated,PTH,ComponentDrill
T3C0.600
%
G90
G05
T1
X149.7Y-83.46
X149.9Y-91.6
X150.3Y-80.25
X150.3Y-81.15
X150.55Y-84.73
X150.55Y-86.0
X152.9Y-80.325
X155.4Y-81.225
X156.15Y-80.325
X156.2Y-81.225
X156.2Y-82.125
X156.3Y-88.75
X156.5Y-91.04
X156.5Y-91.85
X156.95Y-82.05
X157.0Y-80.3
X157.0Y-81.2
X157.1Y-88.75
X157.15Y-83.46
X157.15Y-84.73
X157.15Y-86.0
X157.15Y-87.27
X157.4Y-91.04
X158.22Y-90.0
X158.75Y-82.95
X158.75Y-83.75
X158.9Y-89.5
X159.05Y-88.42
X159.55Y-80.35
X159.75Y-89.6
X159.75Y-90.5
X159.877Y-87.4
X160.1Y-83.0
X160.1Y-84.0
X160.152Y-86.906
X160.35Y-80.35
X160.6Y-83.7
X160.661Y-85.4
X160.96Y-85.9
X161.077Y-86.9
X161.077Y-88.5
X161.25Y-81.15
X161.577Y-87.58
X161.577Y-89.18
X161.615Y-85.4
X161.617Y-83.0
X161.617Y-83.9
X162.1Y-81.25
X162.18Y-85.4
X162.417Y-83.9
X162.537Y-85.9
X162.95Y-88.76
X162.95Y-89.56
X162.977Y-87.0
X162.977Y-87.8
X163.217Y-83.0
X163.217Y-83.9
X163.217Y-85.4
X163.85Y-88.76
X163.877Y-87.0
X164.017Y-83.9
X166.15Y-85.8
X166.55Y-86.7
X166.55Y-87.5
X166.55Y-88.3
X166.9Y-84.3
X167.45Y-87.5
X167.6Y-89.6
X167.65Y-84.025
X168.0Y-90.0
X169.162Y-83.962
X169.2Y-85.6
X169.2Y-86.4
X169.41Y-89.725
X169.599Y-85.2
X169.6Y-86.0
X169.625Y-88.875
X169.75Y-91.85
X169.8Y-83.4
X169.8Y-90.2
X170.2Y-89.8
X170.6Y-90.2
X170.65Y-91.85
X171.0Y-84.6
X171.4Y-90.2
X171.75Y-91.85
X171.9Y-79.6
X172.0Y-89.7
X172.2Y-83.4
X172.6Y-90.2
X173.0Y-84.55
X173.15Y-89.7
X174.2Y-79.65
X174.2Y-80.215
X174.2Y-80.78
X174.2Y-83.35
X174.3Y-89.7
X174.6Y-84.6
X174.8Y-85.2
X175.3Y-80.15
X175.3Y-80.817
X175.3Y-81.45
X175.66Y-91.91
X176.1Y-84.6
X176.35Y-88.0
X176.35Y-90.0
X176.35Y-90.8
X176.475Y-80.2
X176.85Y-83.3
X177.25Y-88.0
X177.25Y-89.2
X177.25Y-90.0
X177.25Y-90.8
X177.45Y-84.2
X177.725Y-81.475
X177.725Y-82.375
X177.8Y-80.55
X178.0Y-88.6
X178.4Y-81.0
X178.587Y-84.649
X178.852Y-80.661
X179.2Y-85.1
X179.2Y-86.0
X179.3Y-83.15
X179.3Y-84.05
X179.3Y-91.6
X179.35Y-79.425
X179.525Y-90.775
X179.56Y-88.6
X179.85Y-82.3
X181.455Y-83.55
X181.455Y-88.45
X181.7Y-79.9
X182.9Y-85.6
X182.9Y-86.8
X184.0Y-86.6
X184.0Y-87.8
X184.15Y-79.9
X187.7Y-79.9
T2
X170.725Y-86.125
X170.725Y-87.4
X170.725Y-88.675
X172.0Y-86.125
X172.0Y-87.4
X172.0Y-88.675
X173.275Y-86.125
X173.275Y-87.4
X173.275Y-88.675
T3
X181.82Y-81.68G85X182.92Y-81.68
G05
X181.82Y-90.32G85X182.92Y-90.32
G05
X186.25Y-81.68G85X186.85Y-81.68
G05
X186.25Y-90.32G85X186.85Y-90.32
G05
M30
