G04 #@! TF.GenerationSoftware,KiCad,Pcbnew,8.0.3*
G04 #@! TF.CreationDate,2024-07-15T22:17:17+10:00*
G04 #@! TF.ProjectId,rs-probe,72732d70-726f-4626-952e-6b696361645f,rev?*
G04 #@! TF.SameCoordinates,Original*
G04 #@! TF.FileFunction,Copper,L4,Bot*
G04 #@! TF.FilePolarity,Positive*
%FSLAX46Y46*%
G04 Gerber Fmt 4.6, Leading zero omitted, Abs format (unit mm)*
G04 Created by KiCad (PCBNEW 8.0.3) date 2024-07-15 22:17:17*
%MOMM*%
%LPD*%
G01*
G04 APERTURE LIST*
G04 Aperture macros list*
%AMFreePoly0*
4,1,80,1.387009,0.798079,1.390475,0.796643,1.393169,0.796649,1.400171,0.792626,1.423057,0.783147,1.431670,0.774533,1.438055,0.770866,1.441811,0.764392,1.450647,0.755557,1.459897,0.733225,1.464035,0.726095,1.464041,0.723221,1.465579,0.719509,1.465579,0.680491,1.464143,0.677024,1.464149,0.674331,1.387016,0.453985,1.276943,0.248106,1.136544,0.061585,0.969154,-0.101149,
0.778748,-0.236232,0.569847,-0.340455,0.347413,-0.411344,0.116728,-0.447214,-0.116728,-0.447214,-0.347413,-0.411344,-0.569847,-0.340455,-0.778748,-0.236232,-0.969154,-0.101149,-1.136544,0.061585,-1.276943,0.248106,-1.387016,0.453985,-1.464149,0.674331,-1.464143,0.677024,-1.465579,0.680491,-1.465579,0.719509,-1.464041,0.723221,-1.464035,0.726095,-1.459897,0.733225,-1.450647,0.755557,
-1.441811,0.764392,-1.438055,0.770866,-1.431670,0.774533,-1.423057,0.783147,-1.400171,0.792626,-1.393169,0.796649,-1.390475,0.796643,-1.387009,0.798079,-0.519600,0.800000,-0.500091,0.798079,-0.477489,0.788716,-0.469600,0.786603,-0.467629,0.784632,-0.464043,0.783147,-0.436453,0.755557,-0.434966,0.751968,-0.432998,0.750000,-0.432997,0.750000,-0.400085,0.692996,-0.306996,0.599907,
-0.192986,0.534083,-0.065824,0.500010,0.065824,0.500010,0.192986,0.534083,0.306996,0.599907,0.400085,0.692996,0.432997,0.750000,0.432998,0.750000,0.434966,0.751968,0.436453,0.755557,0.464043,0.783147,0.467629,0.784632,0.469600,0.786603,0.477489,0.788716,0.500091,0.798079,0.512533,0.798106,0.519600,0.800000,0.526550,0.798137,1.367500,0.800000,1.387009,0.798079,
1.387009,0.798079,$1*%
%AMFreePoly1*
4,1,80,0.347413,0.411328,0.569847,0.340439,0.778748,0.236216,0.969154,0.101133,1.136544,-0.061601,1.276943,-0.248122,1.387016,-0.454001,1.464149,-0.674347,1.464143,-0.677040,1.465579,-0.680507,1.465579,-0.719525,1.464041,-0.723237,1.464035,-0.726111,1.459897,-0.733241,1.450647,-0.755573,1.441811,-0.764408,1.438055,-0.770882,1.431670,-0.774549,1.423057,-0.783163,1.400171,-0.792642,
1.393169,-0.796665,1.390475,-0.796659,1.387009,-0.798095,0.519600,-0.800016,0.500091,-0.798095,0.477489,-0.788732,0.469600,-0.786619,0.467629,-0.784648,0.464043,-0.783163,0.436453,-0.755573,0.434966,-0.751984,0.432998,-0.750016,0.432997,-0.750016,0.400085,-0.693012,0.306996,-0.599923,0.192986,-0.534099,0.065824,-0.500026,-0.065824,-0.500026,-0.192986,-0.534099,-0.306996,-0.599923,
-0.400085,-0.693012,-0.432997,-0.750016,-0.432998,-0.750016,-0.434966,-0.751984,-0.436453,-0.755573,-0.464043,-0.783163,-0.467629,-0.784648,-0.469600,-0.786619,-0.477489,-0.788732,-0.500091,-0.798095,-0.512533,-0.798122,-0.519600,-0.800016,-0.526550,-0.798153,-1.367500,-0.800016,-1.387009,-0.798095,-1.390475,-0.796659,-1.393169,-0.796665,-1.400171,-0.792642,-1.423057,-0.783163,-1.431670,-0.774549,
-1.438055,-0.770882,-1.441811,-0.764408,-1.450647,-0.755573,-1.459897,-0.733241,-1.464035,-0.726111,-1.464041,-0.723237,-1.465579,-0.719525,-1.465579,-0.680507,-1.464143,-0.677040,-1.464149,-0.674347,-1.387016,-0.454001,-1.276943,-0.248122,-1.136544,-0.061601,-0.969154,0.101133,-0.778748,0.236216,-0.569847,0.340439,-0.347413,0.411328,-0.116728,0.447198,0.116728,0.447198,0.347413,0.411328,
0.347413,0.411328,$1*%
G04 Aperture macros list end*
G04 #@! TA.AperFunction,ComponentPad*
%ADD10O,2.100000X1.000000*%
G04 #@! TD*
G04 #@! TA.AperFunction,ComponentPad*
%ADD11O,1.600000X1.000000*%
G04 #@! TD*
G04 #@! TA.AperFunction,ComponentPad*
%ADD12C,0.600000*%
G04 #@! TD*
G04 #@! TA.AperFunction,SMDPad,CuDef*
%ADD13FreePoly0,180.000000*%
G04 #@! TD*
G04 #@! TA.AperFunction,SMDPad,CuDef*
%ADD14FreePoly1,180.000000*%
G04 #@! TD*
G04 #@! TA.AperFunction,ViaPad*
%ADD15C,0.450000*%
G04 #@! TD*
G04 #@! TA.AperFunction,Conductor*
%ADD16C,0.200000*%
G04 #@! TD*
G04 #@! TA.AperFunction,Conductor*
%ADD17C,0.550000*%
G04 #@! TD*
G04 #@! TA.AperFunction,Conductor*
%ADD18C,0.100000*%
G04 #@! TD*
G04 #@! TA.AperFunction,Conductor*
%ADD19C,0.300000*%
G04 #@! TD*
G04 APERTURE END LIST*
D10*
X182370000Y-90320000D03*
D11*
X186550000Y-90320000D03*
D10*
X182370000Y-81680000D03*
D11*
X186550000Y-81680000D03*
D12*
X173275000Y-86125000D03*
X172000000Y-86125000D03*
X170725000Y-86125000D03*
X173275000Y-87400000D03*
X172000000Y-87400000D03*
X170725000Y-87400000D03*
X173275000Y-88675000D03*
X172000000Y-88675000D03*
X170725000Y-88675000D03*
D13*
X186550000Y-83000000D03*
D14*
X186550000Y-85000000D03*
D15*
X179300000Y-91600000D03*
X175660000Y-91910000D03*
X184000000Y-87800000D03*
X160350000Y-80350000D03*
X157150000Y-86000000D03*
X178587220Y-84648881D03*
X169200000Y-86400000D03*
X173150000Y-89700000D03*
X157150000Y-84730000D03*
X166550000Y-86700000D03*
X150550000Y-84730000D03*
X172000000Y-89700000D03*
X179350000Y-79425000D03*
X166150000Y-85800000D03*
X177250000Y-89200000D03*
X160661088Y-85400000D03*
X161617328Y-83000000D03*
X177250000Y-88000000D03*
X182900000Y-86800000D03*
X161250000Y-81150000D03*
X162180000Y-85400000D03*
X176475001Y-80199999D03*
X149900000Y-91600000D03*
X177250000Y-90800000D03*
X156500000Y-91040000D03*
X155400000Y-81225000D03*
X163217328Y-83000000D03*
X159550000Y-80350000D03*
X163877328Y-87000000D03*
X178000000Y-88600000D03*
X177250000Y-90000000D03*
X166900000Y-84300000D03*
X166550000Y-87500000D03*
X157100000Y-88750000D03*
X163850000Y-88760000D03*
X150550000Y-86000000D03*
X184150000Y-79900000D03*
X157150000Y-87270000D03*
X182900000Y-85600000D03*
X166550000Y-88300000D03*
X157000000Y-81200000D03*
X169750000Y-91850000D03*
X157150000Y-83460000D03*
X179200000Y-85100000D03*
X156300000Y-88750000D03*
X160100000Y-84000000D03*
X156200000Y-81225000D03*
X159050000Y-88420000D03*
X184000000Y-86600000D03*
X174300000Y-89700000D03*
X177725000Y-82375000D03*
X176850000Y-83300000D03*
X159750000Y-89600000D03*
X150300000Y-81150000D03*
X152900000Y-80325000D03*
X171750000Y-91850000D03*
X159750000Y-90500000D03*
X176350000Y-90800000D03*
X176350000Y-90000000D03*
X176350000Y-88000000D03*
X174600000Y-84600000D03*
X169625000Y-88875000D03*
X167450000Y-87500000D03*
X179200000Y-86000000D03*
X161617328Y-83900000D03*
X171000000Y-84600000D03*
X162950000Y-88760000D03*
X179525000Y-90775000D03*
X170650000Y-91850000D03*
X158750000Y-83750000D03*
X163217328Y-83900000D03*
X162977328Y-87000000D03*
X175300000Y-80816666D03*
X167650000Y-84025000D03*
X175300000Y-80150000D03*
X175300000Y-81450000D03*
X187700000Y-79900000D03*
X181455000Y-88450000D03*
X181455000Y-83550000D03*
X179559990Y-88600000D03*
X157000000Y-80300000D03*
X177725000Y-81475000D03*
X150300000Y-80250000D03*
X181700000Y-79900000D03*
X179850000Y-82300000D03*
X158750000Y-82950000D03*
X162950000Y-89560000D03*
X162417328Y-83900000D03*
X164017328Y-83900000D03*
X156200000Y-82125000D03*
X157400000Y-91040000D03*
X156950000Y-82050000D03*
X162977328Y-87800000D03*
X171900000Y-79600000D03*
X156500000Y-91850000D03*
X149700000Y-83460000D03*
X174200000Y-80215003D03*
X174200000Y-79650000D03*
X178400000Y-81000000D03*
X178852002Y-80660998D03*
X174200000Y-80780006D03*
X177800000Y-80550000D03*
X173000000Y-84550000D03*
X174200000Y-83350000D03*
X156150000Y-80325000D03*
X162100000Y-81250000D03*
X172200000Y-83400000D03*
X158900000Y-89500000D03*
X170600000Y-90200000D03*
X179300000Y-83150000D03*
X172600000Y-90200000D03*
X158220000Y-90000000D03*
X161077328Y-88500000D03*
X170200000Y-89800000D03*
X169800000Y-90200000D03*
X161577328Y-89180000D03*
X169600000Y-86000000D03*
X159877328Y-87400000D03*
X169200000Y-85600000D03*
X160152141Y-86906335D03*
X162537328Y-85900000D03*
X167600000Y-89600000D03*
X176100000Y-84600000D03*
X179300000Y-84050000D03*
X168000000Y-90000000D03*
X161077328Y-86900000D03*
X160960000Y-85900000D03*
X169162500Y-83962500D03*
X161577328Y-87580000D03*
X169409837Y-89724592D03*
X169800000Y-83400000D03*
X160600000Y-83700000D03*
X160100000Y-83000000D03*
X169599033Y-85199999D03*
X161614997Y-85400000D03*
X177450000Y-84200000D03*
X174800000Y-85200000D03*
X163217328Y-85400000D03*
X171400000Y-90200000D03*
D16*
X179300000Y-91600000D02*
X175970000Y-91600000D01*
X175970000Y-91600000D02*
X175660000Y-91910000D01*
D17*
X186550000Y-83000000D02*
X186550000Y-81680000D01*
D18*
X150461544Y-81640000D02*
X150460000Y-81640000D01*
X150460000Y-81640000D02*
X149700000Y-82400000D01*
X152850000Y-79250000D02*
X150690000Y-81410000D01*
D19*
X149700000Y-90600000D02*
X150950000Y-91850000D01*
D18*
X171900000Y-79600000D02*
X171550000Y-79250000D01*
D19*
X150950000Y-91850000D02*
X156500000Y-91850000D01*
D18*
X171550000Y-79250000D02*
X152850000Y-79250000D01*
X150690000Y-81410000D02*
X150690000Y-81411544D01*
X150690000Y-81411544D02*
X150461544Y-81640000D01*
X149700000Y-82400000D02*
X149700000Y-83460000D01*
D19*
X149700000Y-83460000D02*
X149700000Y-90600000D01*
D18*
X173800000Y-84550000D02*
X177800000Y-80550000D01*
X173000000Y-84550000D02*
X173800000Y-84550000D01*
D19*
X174200000Y-83350000D02*
X170650000Y-79800000D01*
X170650000Y-79800000D02*
X156750000Y-79800000D01*
X156750000Y-79800000D02*
X156150000Y-80400000D01*
X170050000Y-81250000D02*
X172200000Y-83400000D01*
X162100000Y-81250000D02*
X170050000Y-81250000D01*
D18*
X162700000Y-91000000D02*
X170200000Y-91000000D01*
X158900000Y-89500000D02*
X159450000Y-90050000D01*
X170200000Y-91000000D02*
X170600000Y-90600000D01*
X170600000Y-90600000D02*
X170600000Y-90200000D01*
X159450000Y-90050000D02*
X161750000Y-90050000D01*
X161750000Y-90050000D02*
X162700000Y-91000000D01*
D16*
X179300000Y-83150000D02*
X181150000Y-85000000D01*
X181150000Y-85000000D02*
X186550000Y-85000000D01*
D18*
X158220000Y-90000000D02*
X159110000Y-90890000D01*
X159110000Y-90890000D02*
X162290000Y-90890000D01*
X171600000Y-91200000D02*
X172600000Y-90200000D01*
X162290000Y-90890000D02*
X162600000Y-91200000D01*
X162600000Y-91200000D02*
X171600000Y-91200000D01*
X170200000Y-90600000D02*
X170200000Y-89800000D01*
X170000000Y-90800000D02*
X170200000Y-90600000D01*
X161415784Y-89570000D02*
X161559929Y-89570000D01*
X161559929Y-89570000D02*
X162789929Y-90800000D01*
X161077328Y-89231544D02*
X161415784Y-89570000D01*
X162789929Y-90800000D02*
X170000000Y-90800000D01*
X161077328Y-88500000D02*
X161077328Y-89231544D01*
X169410000Y-90590000D02*
X169800000Y-90200000D01*
X161577328Y-89304557D02*
X162862771Y-90590000D01*
X161577328Y-89180000D02*
X161577328Y-89304557D01*
X162862771Y-90590000D02*
X169410000Y-90590000D01*
X169633418Y-86000000D02*
X170390000Y-85243418D01*
X159855613Y-82410000D02*
X159500000Y-82765613D01*
X159500000Y-87022672D02*
X159877328Y-87400000D01*
X170390000Y-85243418D02*
X170390000Y-83155613D01*
X169644387Y-82410000D02*
X159855613Y-82410000D01*
X169600000Y-86000000D02*
X169633418Y-86000000D01*
X170390000Y-83155613D02*
X169644387Y-82410000D01*
X159500000Y-82765613D02*
X159500000Y-87022672D01*
X159700000Y-82848456D02*
X159938456Y-82610000D01*
X159938456Y-82610000D02*
X169561544Y-82610000D01*
X170190000Y-83238456D02*
X170190000Y-85160576D01*
X169561544Y-82610000D02*
X170190000Y-83238456D01*
X160152141Y-86906335D02*
X159700000Y-86454194D01*
X159700000Y-86454194D02*
X159700000Y-82848456D01*
X169750576Y-85600000D02*
X169200000Y-85600000D01*
X170190000Y-85160576D02*
X169750576Y-85600000D01*
X165511778Y-89558297D02*
X165458037Y-89504556D01*
X164267328Y-86752892D02*
X163414436Y-85900000D01*
X164920635Y-88752194D02*
X165228934Y-88443896D01*
X164267328Y-87267328D02*
X164267328Y-86752892D01*
X165497636Y-88712597D02*
X165189338Y-89020896D01*
X164383233Y-88214792D02*
X164691532Y-87906494D01*
X164637794Y-87637794D02*
X164399323Y-87399323D01*
X166600000Y-89600000D02*
X166250000Y-89250000D01*
X164436974Y-88483493D02*
X164383233Y-88429752D01*
X164399323Y-87399323D02*
X164267328Y-87267328D01*
X165458037Y-89289596D02*
X165766336Y-88981298D01*
X165766335Y-88766336D02*
X165712598Y-88712598D01*
X167600000Y-89600000D02*
X166600000Y-89600000D01*
X164960234Y-88175195D02*
X164651936Y-88483494D01*
X166035038Y-89249999D02*
X165726740Y-89558298D01*
X165228933Y-88228934D02*
X165175196Y-88175196D01*
X164691531Y-87691532D02*
X164637794Y-87637794D01*
X164974376Y-89020895D02*
X164920635Y-88967154D01*
X163414436Y-85900000D02*
X162537328Y-85900000D01*
X164691532Y-87906494D02*
G75*
G03*
X164691545Y-87691519I-107532J107494D01*
G01*
X166250000Y-89250000D02*
G75*
G03*
X166035020Y-89249980I-107500J-107500D01*
G01*
X165766336Y-88981298D02*
G75*
G03*
X165766353Y-88766318I-107436J107498D01*
G01*
X164651936Y-88483494D02*
G75*
G02*
X164437019Y-88483449I-107436J107494D01*
G01*
X165189338Y-89020896D02*
G75*
G02*
X164974419Y-89020853I-107438J107496D01*
G01*
X164920635Y-88967154D02*
G75*
G02*
X164920661Y-88752220I107465J107454D01*
G01*
X165726740Y-89558298D02*
G75*
G02*
X165511819Y-89558257I-107440J107498D01*
G01*
X165458037Y-89504556D02*
G75*
G02*
X165458061Y-89289620I107463J107456D01*
G01*
X164383233Y-88429752D02*
G75*
G02*
X164383261Y-88214820I107467J107452D01*
G01*
X165712598Y-88712598D02*
G75*
G03*
X165497620Y-88712580I-107498J-107502D01*
G01*
X165228934Y-88443896D02*
G75*
G03*
X165228949Y-88228918I-107434J107496D01*
G01*
X165175196Y-88175196D02*
G75*
G03*
X164960220Y-88175180I-107496J-107504D01*
G01*
D16*
X176375736Y-84600000D02*
X176100000Y-84600000D01*
X179300000Y-84050000D02*
X179010000Y-83760000D01*
X177215736Y-83760000D02*
X176375736Y-84600000D01*
X179010000Y-83760000D02*
X177215736Y-83760000D01*
D18*
X161448872Y-86900000D02*
X162300000Y-87751128D01*
X163028456Y-90190000D02*
X167810000Y-90190000D01*
X162300000Y-87751128D02*
X162300000Y-89461544D01*
X161077328Y-86900000D02*
X161448872Y-86900000D01*
X167810000Y-90190000D02*
X168000000Y-90000000D01*
X162300000Y-89461544D02*
X163028456Y-90190000D01*
X168325000Y-84800000D02*
X163900000Y-84800000D01*
X161900000Y-84800000D02*
X161813453Y-84800000D01*
X163580000Y-84480000D02*
X163400000Y-84480000D01*
X162580000Y-84480000D02*
X162400000Y-84480000D01*
X163080000Y-84800000D02*
X162900000Y-84800000D01*
X161200000Y-85263453D02*
X161200000Y-85660000D01*
X161663453Y-84800000D02*
X161200000Y-85263453D01*
X161200000Y-85660000D02*
X160960000Y-85900000D01*
X162080000Y-84800000D02*
X161900000Y-84800000D01*
X161813453Y-84800000D02*
X161663453Y-84800000D01*
X169162500Y-83962500D02*
X168325000Y-84800000D01*
X163240000Y-84640000D02*
G75*
G02*
X163080000Y-84800000I-160000J0D01*
G01*
X162740000Y-84640000D02*
G75*
G03*
X162580000Y-84480000I-160000J0D01*
G01*
X163740000Y-84640000D02*
G75*
G03*
X163580000Y-84480000I-160000J0D01*
G01*
X162900000Y-84800000D02*
G75*
G02*
X162740000Y-84640000I0J160000D01*
G01*
X162240000Y-84640000D02*
G75*
G02*
X162080000Y-84800000I-160000J0D01*
G01*
X163900000Y-84800000D02*
G75*
G02*
X163740000Y-84640000I0J160000D01*
G01*
X163400000Y-84480000D02*
G75*
G03*
X163240000Y-84640000I0J-160000D01*
G01*
X162400000Y-84480000D02*
G75*
G03*
X162240000Y-84640000I0J-160000D01*
G01*
X162100000Y-88102672D02*
X162100000Y-89544387D01*
X161577328Y-87580000D02*
X162100000Y-88102672D01*
X162100000Y-89544387D02*
X162945613Y-90390000D01*
X168500000Y-90390000D02*
X168744429Y-90390000D01*
X162945613Y-90390000D02*
X168500000Y-90390000D01*
X168744429Y-90390000D02*
X169409837Y-89724592D01*
X169800000Y-83400000D02*
X160900000Y-83400000D01*
X160900000Y-83400000D02*
X160600000Y-83700000D01*
X169048455Y-85199999D02*
X168858456Y-85010000D01*
X169599033Y-85199999D02*
X169048455Y-85199999D01*
X168858456Y-85010000D02*
X162004997Y-85010000D01*
X162004997Y-85010000D02*
X161614997Y-85400000D01*
D16*
X176200000Y-85200000D02*
X174800000Y-85200000D01*
X177200000Y-84200000D02*
X176200000Y-85200000D01*
X177450000Y-84200000D02*
X177200000Y-84200000D01*
D18*
X167248456Y-89400000D02*
X167438456Y-89210000D01*
X167761544Y-89210000D02*
X167951544Y-89400000D01*
X166700000Y-89400000D02*
X167248456Y-89400000D01*
X167438456Y-89210000D02*
X167761544Y-89210000D01*
X170610000Y-89410000D02*
X171400000Y-90200000D01*
X167951544Y-89400000D02*
X169182885Y-89400000D01*
X169182885Y-89400000D02*
X169248293Y-89334592D01*
X163217328Y-85400000D02*
X164500000Y-86682672D01*
X169646789Y-89410000D02*
X170610000Y-89410000D01*
X169571381Y-89334592D02*
X169646789Y-89410000D01*
X164500000Y-86682672D02*
X164500000Y-87200000D01*
X169248293Y-89334592D02*
X169571381Y-89334592D01*
X164500000Y-87200000D02*
X166700000Y-89400000D01*
G04 #@! TA.AperFunction,Conductor*
G36*
X163772530Y-83584852D02*
G01*
X163786882Y-83619500D01*
X163772530Y-83654148D01*
X163769379Y-83657036D01*
X163748575Y-83674492D01*
X163687656Y-83780006D01*
X163666498Y-83900000D01*
X163687656Y-84019993D01*
X163748575Y-84125507D01*
X163748576Y-84125508D01*
X163748577Y-84125509D01*
X163841913Y-84203828D01*
X163956407Y-84245500D01*
X163956408Y-84245500D01*
X164078248Y-84245500D01*
X164078249Y-84245500D01*
X164192743Y-84203828D01*
X164286079Y-84125509D01*
X164344108Y-84025000D01*
X167299170Y-84025000D01*
X167320328Y-84144993D01*
X167381247Y-84250507D01*
X167381248Y-84250508D01*
X167381249Y-84250509D01*
X167474585Y-84328828D01*
X167589079Y-84370500D01*
X167589080Y-84370500D01*
X167710920Y-84370500D01*
X167710921Y-84370500D01*
X167825415Y-84328828D01*
X167918751Y-84250509D01*
X167949211Y-84197750D01*
X167979671Y-84144993D01*
X167979671Y-84144992D01*
X167979672Y-84144991D01*
X168000830Y-84025000D01*
X167979672Y-83905009D01*
X167979671Y-83905007D01*
X167979671Y-83905006D01*
X167918752Y-83799492D01*
X167910307Y-83792406D01*
X167825415Y-83721172D01*
X167710921Y-83679500D01*
X167589079Y-83679500D01*
X167559824Y-83690148D01*
X167474584Y-83721172D01*
X167381247Y-83799492D01*
X167320328Y-83905006D01*
X167299170Y-84025000D01*
X164344108Y-84025000D01*
X164347000Y-84019991D01*
X164368158Y-83900000D01*
X164347000Y-83780009D01*
X164346999Y-83780007D01*
X164346999Y-83780006D01*
X164286080Y-83674492D01*
X164280718Y-83669993D01*
X164265276Y-83657035D01*
X164247960Y-83623770D01*
X164259238Y-83588003D01*
X164292504Y-83570686D01*
X164296774Y-83570500D01*
X168957537Y-83570500D01*
X168992185Y-83584852D01*
X169006537Y-83619500D01*
X168992185Y-83654148D01*
X168989034Y-83657036D01*
X168893747Y-83736992D01*
X168832828Y-83842506D01*
X168815417Y-83941249D01*
X168811670Y-83962500D01*
X168822775Y-84025484D01*
X168823685Y-84030642D01*
X168815567Y-84067256D01*
X168810077Y-84073798D01*
X168268729Y-84615148D01*
X168234081Y-84629500D01*
X163956945Y-84629500D01*
X163922297Y-84615148D01*
X163909615Y-84593183D01*
X163898043Y-84550000D01*
X163887977Y-84512432D01*
X163887976Y-84512430D01*
X163887976Y-84512429D01*
X163844470Y-84437074D01*
X163844467Y-84437071D01*
X163844466Y-84437068D01*
X163782932Y-84375534D01*
X163782929Y-84375532D01*
X163782925Y-84375529D01*
X163707570Y-84332023D01*
X163707566Y-84332022D01*
X163623514Y-84309500D01*
X163623511Y-84309500D01*
X163613915Y-84309500D01*
X163438916Y-84309500D01*
X163400000Y-84309500D01*
X163380304Y-84309500D01*
X163345656Y-84295148D01*
X163331304Y-84260500D01*
X163345656Y-84225852D01*
X163363545Y-84214455D01*
X163364611Y-84214067D01*
X163392743Y-84203828D01*
X163486079Y-84125509D01*
X163547000Y-84019991D01*
X163568158Y-83900000D01*
X163547000Y-83780009D01*
X163546999Y-83780007D01*
X163546999Y-83780006D01*
X163486080Y-83674492D01*
X163480718Y-83669993D01*
X163465276Y-83657035D01*
X163447960Y-83623770D01*
X163459238Y-83588003D01*
X163492504Y-83570686D01*
X163496774Y-83570500D01*
X163737882Y-83570500D01*
X163772530Y-83584852D01*
G37*
G04 #@! TD.AperFunction*
G04 #@! TA.AperFunction,Conductor*
G36*
X152574729Y-79214852D02*
G01*
X152589081Y-79249500D01*
X152574729Y-79284148D01*
X150545455Y-81313421D01*
X150545026Y-81314064D01*
X150538939Y-81321479D01*
X150371483Y-81488936D01*
X150364068Y-81495023D01*
X150363422Y-81495454D01*
X149959386Y-81899491D01*
X149603420Y-82255457D01*
X149583370Y-82275507D01*
X149555457Y-82303419D01*
X149529500Y-82366083D01*
X149529500Y-83129198D01*
X149515148Y-83163846D01*
X149511997Y-83166734D01*
X149431247Y-83234492D01*
X149370328Y-83340006D01*
X149354887Y-83427578D01*
X149349170Y-83460000D01*
X149369537Y-83575507D01*
X149370329Y-83579994D01*
X149404454Y-83639099D01*
X149420401Y-83666720D01*
X149422935Y-83671108D01*
X149429500Y-83695608D01*
X149429500Y-90653807D01*
X149446356Y-90694500D01*
X149450051Y-90703420D01*
X149470681Y-90753226D01*
X149470682Y-90753227D01*
X149470683Y-90753229D01*
X150796770Y-92079316D01*
X150796772Y-92079317D01*
X150796774Y-92079319D01*
X150837955Y-92096376D01*
X150896194Y-92120500D01*
X156267032Y-92120500D01*
X156298529Y-92131964D01*
X156324585Y-92153828D01*
X156439079Y-92195500D01*
X156439080Y-92195500D01*
X156560920Y-92195500D01*
X156560921Y-92195500D01*
X156675415Y-92153828D01*
X156768751Y-92075509D01*
X156829672Y-91969991D01*
X156850830Y-91850000D01*
X170299170Y-91850000D01*
X170320328Y-91969993D01*
X170381247Y-92075507D01*
X170381248Y-92075508D01*
X170381249Y-92075509D01*
X170474585Y-92153828D01*
X170589079Y-92195500D01*
X170589080Y-92195500D01*
X170710920Y-92195500D01*
X170710921Y-92195500D01*
X170825415Y-92153828D01*
X170918751Y-92075509D01*
X170979672Y-91969991D01*
X170990250Y-91910000D01*
X175309170Y-91910000D01*
X175330328Y-92029993D01*
X175391247Y-92135507D01*
X175391248Y-92135508D01*
X175391249Y-92135509D01*
X175484585Y-92213828D01*
X175599079Y-92255500D01*
X175599080Y-92255500D01*
X175720920Y-92255500D01*
X175720921Y-92255500D01*
X175835415Y-92213828D01*
X175928751Y-92135509D01*
X175989672Y-92029991D01*
X176010830Y-91910000D01*
X176009414Y-91901970D01*
X176017529Y-91865357D01*
X176023015Y-91858818D01*
X176046984Y-91834850D01*
X176081631Y-91820500D01*
X179007444Y-91820500D01*
X179038941Y-91831964D01*
X179092433Y-91876849D01*
X179124585Y-91903828D01*
X179239079Y-91945500D01*
X179239080Y-91945500D01*
X179360920Y-91945500D01*
X179360921Y-91945500D01*
X179475415Y-91903828D01*
X179568751Y-91825509D01*
X179629672Y-91719991D01*
X179650830Y-91600000D01*
X179629672Y-91480009D01*
X179629671Y-91480007D01*
X179629671Y-91480006D01*
X179568752Y-91374492D01*
X179563993Y-91370499D01*
X179475415Y-91296172D01*
X179360921Y-91254500D01*
X179239079Y-91254500D01*
X179208832Y-91265509D01*
X179124584Y-91296172D01*
X179038941Y-91368036D01*
X179007444Y-91379500D01*
X175926137Y-91379500D01*
X175845095Y-91413070D01*
X175845094Y-91413070D01*
X175708018Y-91550148D01*
X175673370Y-91564500D01*
X175599079Y-91564500D01*
X175541832Y-91585336D01*
X175484584Y-91606172D01*
X175391247Y-91684492D01*
X175330328Y-91790006D01*
X175309170Y-91910000D01*
X170990250Y-91910000D01*
X171000830Y-91850000D01*
X170979672Y-91730009D01*
X170979671Y-91730007D01*
X170979671Y-91730006D01*
X170918752Y-91624492D01*
X170825415Y-91546172D01*
X170710921Y-91504500D01*
X170589079Y-91504500D01*
X170531832Y-91525336D01*
X170474584Y-91546172D01*
X170381247Y-91624492D01*
X170320328Y-91730006D01*
X170299170Y-91850000D01*
X156850830Y-91850000D01*
X156829672Y-91730009D01*
X156829671Y-91730007D01*
X156829671Y-91730006D01*
X156768752Y-91624492D01*
X156675415Y-91546172D01*
X156560921Y-91504500D01*
X156439079Y-91504500D01*
X156381832Y-91525336D01*
X156324584Y-91546172D01*
X156298529Y-91568036D01*
X156267032Y-91579500D01*
X151082341Y-91579500D01*
X151047693Y-91565148D01*
X150522545Y-91040000D01*
X157049170Y-91040000D01*
X157070328Y-91159993D01*
X157131247Y-91265507D01*
X157131248Y-91265508D01*
X157131249Y-91265509D01*
X157224585Y-91343828D01*
X157339079Y-91385500D01*
X157339080Y-91385500D01*
X157460920Y-91385500D01*
X157460921Y-91385500D01*
X157575415Y-91343828D01*
X157668751Y-91265509D01*
X157729672Y-91159991D01*
X157750830Y-91040000D01*
X157729672Y-90920009D01*
X157729671Y-90920007D01*
X157729671Y-90920006D01*
X157668752Y-90814492D01*
X157595742Y-90753229D01*
X157575415Y-90736172D01*
X157460921Y-90694500D01*
X157339079Y-90694500D01*
X157309824Y-90705148D01*
X157224584Y-90736172D01*
X157131247Y-90814492D01*
X157070328Y-90920006D01*
X157049170Y-91040000D01*
X150522545Y-91040000D01*
X149984852Y-90502307D01*
X149970500Y-90467659D01*
X149970500Y-90000000D01*
X157869170Y-90000000D01*
X157890328Y-90119993D01*
X157951247Y-90225507D01*
X157951248Y-90225508D01*
X157951249Y-90225509D01*
X158044585Y-90303828D01*
X158159079Y-90345500D01*
X158159080Y-90345500D01*
X158280919Y-90345500D01*
X158280921Y-90345500D01*
X158283448Y-90344580D01*
X158320913Y-90346215D01*
X158334854Y-90355977D01*
X158965457Y-90986580D01*
X159013420Y-91034543D01*
X159076085Y-91060500D01*
X162199081Y-91060500D01*
X162233729Y-91074852D01*
X162455457Y-91296580D01*
X162503420Y-91344543D01*
X162566085Y-91370500D01*
X162566087Y-91370500D01*
X171633913Y-91370500D01*
X171633915Y-91370500D01*
X171696580Y-91344543D01*
X172241122Y-90800000D01*
X175999170Y-90800000D01*
X176020328Y-90919993D01*
X176081247Y-91025507D01*
X176081248Y-91025508D01*
X176081249Y-91025509D01*
X176174585Y-91103828D01*
X176289079Y-91145500D01*
X176289080Y-91145500D01*
X176410920Y-91145500D01*
X176410921Y-91145500D01*
X176525415Y-91103828D01*
X176618751Y-91025509D01*
X176679672Y-90919991D01*
X176700830Y-90800000D01*
X176696422Y-90775000D01*
X179174170Y-90775000D01*
X179195328Y-90894993D01*
X179256247Y-91000507D01*
X179256248Y-91000508D01*
X179256249Y-91000509D01*
X179349585Y-91078828D01*
X179464079Y-91120500D01*
X179464080Y-91120500D01*
X179585920Y-91120500D01*
X179585921Y-91120500D01*
X179700415Y-91078828D01*
X179793751Y-91000509D01*
X179854672Y-90894991D01*
X179875830Y-90775000D01*
X179854672Y-90655009D01*
X179854671Y-90655007D01*
X179854671Y-90655006D01*
X179793752Y-90549492D01*
X179746194Y-90509586D01*
X179700415Y-90471172D01*
X179585921Y-90429500D01*
X179464079Y-90429500D01*
X179446781Y-90435796D01*
X179349584Y-90471172D01*
X179256247Y-90549492D01*
X179195328Y-90655006D01*
X179174170Y-90775000D01*
X176696422Y-90775000D01*
X176679672Y-90680009D01*
X176679671Y-90680007D01*
X176679671Y-90680006D01*
X176618752Y-90574492D01*
X176525415Y-90496172D01*
X176447075Y-90467659D01*
X176410921Y-90454500D01*
X176289079Y-90454500D01*
X176252925Y-90467659D01*
X176174584Y-90496172D01*
X176081247Y-90574492D01*
X176020328Y-90680006D01*
X175999170Y-90800000D01*
X172241122Y-90800000D01*
X172485146Y-90555976D01*
X172519793Y-90541625D01*
X172536551Y-90544580D01*
X172539079Y-90545500D01*
X172660920Y-90545500D01*
X172660921Y-90545500D01*
X172775415Y-90503828D01*
X172868751Y-90425509D01*
X172914944Y-90345500D01*
X172929671Y-90319993D01*
X172929671Y-90319992D01*
X172929672Y-90319991D01*
X172950830Y-90200000D01*
X172929672Y-90080009D01*
X172929671Y-90080007D01*
X172929671Y-90080006D01*
X172883479Y-90000000D01*
X175999170Y-90000000D01*
X176020328Y-90119993D01*
X176081247Y-90225507D01*
X176081248Y-90225508D01*
X176081249Y-90225509D01*
X176174585Y-90303828D01*
X176289079Y-90345500D01*
X176289080Y-90345500D01*
X176410920Y-90345500D01*
X176410921Y-90345500D01*
X176525415Y-90303828D01*
X176595524Y-90244999D01*
X181172183Y-90244999D01*
X181172184Y-90245000D01*
X181529513Y-90245000D01*
X181520000Y-90280504D01*
X181520000Y-90359496D01*
X181529513Y-90395000D01*
X181172183Y-90395000D01*
X181194976Y-90509586D01*
X181194980Y-90509601D01*
X181243976Y-90627886D01*
X181315112Y-90734351D01*
X181405648Y-90824887D01*
X181512113Y-90896023D01*
X181630398Y-90945019D01*
X181630404Y-90945021D01*
X181755984Y-90970000D01*
X182295000Y-90970000D01*
X182295000Y-90620000D01*
X182445000Y-90620000D01*
X182445000Y-90970000D01*
X182984016Y-90970000D01*
X183109595Y-90945021D01*
X183109601Y-90945019D01*
X183227886Y-90896023D01*
X183334351Y-90824887D01*
X183424887Y-90734351D01*
X183496023Y-90627886D01*
X183545019Y-90509601D01*
X183545023Y-90509586D01*
X183567816Y-90395000D01*
X183210487Y-90395000D01*
X183220000Y-90359496D01*
X183220000Y-90280504D01*
X183210487Y-90245000D01*
X183567816Y-90245000D01*
X183567816Y-90244999D01*
X185602183Y-90244999D01*
X185602184Y-90245000D01*
X185959513Y-90245000D01*
X185950000Y-90280504D01*
X185950000Y-90359496D01*
X185959513Y-90395000D01*
X185602183Y-90395000D01*
X185624976Y-90509586D01*
X185624980Y-90509601D01*
X185673976Y-90627886D01*
X185745112Y-90734351D01*
X185835648Y-90824887D01*
X185942113Y-90896023D01*
X186060398Y-90945019D01*
X186060404Y-90945021D01*
X186185984Y-90970000D01*
X186475000Y-90970000D01*
X186475000Y-90620000D01*
X186625000Y-90620000D01*
X186625000Y-90970000D01*
X186914016Y-90970000D01*
X187039595Y-90945021D01*
X187039601Y-90945019D01*
X187157886Y-90896023D01*
X187264351Y-90824887D01*
X187354887Y-90734351D01*
X187426023Y-90627886D01*
X187475019Y-90509601D01*
X187475023Y-90509586D01*
X187497816Y-90395000D01*
X187140487Y-90395000D01*
X187150000Y-90359496D01*
X187150000Y-90280504D01*
X187140487Y-90245000D01*
X187497816Y-90245000D01*
X187497816Y-90244999D01*
X187475023Y-90130413D01*
X187475019Y-90130398D01*
X187426023Y-90012113D01*
X187354887Y-89905648D01*
X187264351Y-89815112D01*
X187157886Y-89743976D01*
X187039601Y-89694980D01*
X187039595Y-89694978D01*
X186914016Y-89670000D01*
X186625000Y-89670000D01*
X186625000Y-90020000D01*
X186475000Y-90020000D01*
X186475000Y-89670000D01*
X186185984Y-89670000D01*
X186060404Y-89694978D01*
X186060398Y-89694980D01*
X185942113Y-89743976D01*
X185835648Y-89815112D01*
X185745112Y-89905648D01*
X185673976Y-90012113D01*
X185624980Y-90130398D01*
X185624976Y-90130413D01*
X185602183Y-90244999D01*
X183567816Y-90244999D01*
X183545023Y-90130413D01*
X183545019Y-90130398D01*
X183496023Y-90012113D01*
X183424887Y-89905648D01*
X183334351Y-89815112D01*
X183227886Y-89743976D01*
X183109601Y-89694980D01*
X183109595Y-89694978D01*
X182984016Y-89670000D01*
X182445000Y-89670000D01*
X182445000Y-90020000D01*
X182295000Y-90020000D01*
X182295000Y-89670000D01*
X181755984Y-89670000D01*
X181630404Y-89694978D01*
X181630398Y-89694980D01*
X181512113Y-89743976D01*
X181405648Y-89815112D01*
X181315112Y-89905648D01*
X181243976Y-90012113D01*
X181194980Y-90130398D01*
X181194976Y-90130413D01*
X181172183Y-90244999D01*
X176595524Y-90244999D01*
X176618751Y-90225509D01*
X176679672Y-90119991D01*
X176700830Y-90000000D01*
X176679672Y-89880009D01*
X176679671Y-89880007D01*
X176679671Y-89880006D01*
X176618752Y-89774492D01*
X176613993Y-89770499D01*
X176525415Y-89696172D01*
X176410921Y-89654500D01*
X176289079Y-89654500D01*
X176258733Y-89665545D01*
X176174584Y-89696172D01*
X176081247Y-89774492D01*
X176020328Y-89880006D01*
X175999170Y-90000000D01*
X172883479Y-90000000D01*
X172868752Y-89974492D01*
X172775415Y-89896172D01*
X172731007Y-89880009D01*
X172660921Y-89854500D01*
X172539079Y-89854500D01*
X172481832Y-89875336D01*
X172424584Y-89896172D01*
X172331247Y-89974492D01*
X172270328Y-90080006D01*
X172249170Y-90200000D01*
X172261184Y-90268142D01*
X172253066Y-90304756D01*
X172247576Y-90311298D01*
X171543729Y-91015148D01*
X171509081Y-91029500D01*
X170529919Y-91029500D01*
X170495271Y-91015148D01*
X170480919Y-90980500D01*
X170495271Y-90945852D01*
X170744542Y-90696581D01*
X170744543Y-90696580D01*
X170748685Y-90686580D01*
X170770500Y-90633915D01*
X170770500Y-90530800D01*
X170784852Y-90496152D01*
X170787986Y-90493279D01*
X170868751Y-90425509D01*
X170914944Y-90345500D01*
X170929671Y-90319993D01*
X170929671Y-90319992D01*
X170929672Y-90319991D01*
X170950830Y-90200000D01*
X170950829Y-90199998D01*
X170950830Y-90199997D01*
X170936722Y-90119991D01*
X170933278Y-90100460D01*
X170941394Y-90063847D01*
X170973024Y-90043697D01*
X171009638Y-90051813D01*
X171016181Y-90057304D01*
X171047577Y-90088700D01*
X171061929Y-90123348D01*
X171061185Y-90131856D01*
X171049171Y-90199997D01*
X171049170Y-90200000D01*
X171052785Y-90220499D01*
X171070328Y-90319993D01*
X171131247Y-90425507D01*
X171131248Y-90425508D01*
X171131249Y-90425509D01*
X171224585Y-90503828D01*
X171339079Y-90545500D01*
X171339080Y-90545500D01*
X171460920Y-90545500D01*
X171460921Y-90545500D01*
X171575415Y-90503828D01*
X171668751Y-90425509D01*
X171714944Y-90345500D01*
X171729671Y-90319993D01*
X171729671Y-90319992D01*
X171729672Y-90319991D01*
X171750830Y-90200000D01*
X171729672Y-90080009D01*
X171729671Y-90080007D01*
X171729671Y-90080006D01*
X171668752Y-89974492D01*
X171575415Y-89896172D01*
X171531007Y-89880009D01*
X171460921Y-89854500D01*
X171339079Y-89854500D01*
X171339077Y-89854500D01*
X171336549Y-89855420D01*
X171299081Y-89853782D01*
X171285145Y-89844022D01*
X170706582Y-89265458D01*
X170643916Y-89239500D01*
X170643915Y-89239500D01*
X169862735Y-89239500D01*
X169828087Y-89225148D01*
X169813735Y-89190500D01*
X169828087Y-89155852D01*
X169831238Y-89152964D01*
X169845570Y-89140938D01*
X169893751Y-89100509D01*
X169954672Y-88994991D01*
X169975830Y-88875000D01*
X169954672Y-88755009D01*
X169954671Y-88755007D01*
X169954671Y-88755006D01*
X169908478Y-88674998D01*
X170270373Y-88674998D01*
X170270373Y-88675001D01*
X170288789Y-88803084D01*
X170342541Y-88920785D01*
X170342545Y-88920792D01*
X170356749Y-88937184D01*
X170579128Y-88714804D01*
X170597836Y-88759968D01*
X170640032Y-88802164D01*
X170685194Y-88820871D01*
X170463930Y-89042135D01*
X170536142Y-89088544D01*
X170660298Y-89124999D01*
X170660305Y-89125000D01*
X170789695Y-89125000D01*
X170789701Y-89124999D01*
X170913858Y-89088543D01*
X170986068Y-89042134D01*
X170764805Y-88820871D01*
X170809968Y-88802164D01*
X170852164Y-88759968D01*
X170870870Y-88714805D01*
X171093249Y-88937184D01*
X171093250Y-88937183D01*
X171107454Y-88920792D01*
X171107458Y-88920786D01*
X171161210Y-88803084D01*
X171179627Y-88675001D01*
X171179627Y-88674998D01*
X171545373Y-88674998D01*
X171545373Y-88675001D01*
X171563789Y-88803084D01*
X171617541Y-88920785D01*
X171617545Y-88920792D01*
X171631749Y-88937184D01*
X171854128Y-88714804D01*
X171872836Y-88759968D01*
X171915032Y-88802164D01*
X171960194Y-88820870D01*
X171738929Y-89042135D01*
X171811142Y-89088544D01*
X171935298Y-89124999D01*
X171935305Y-89125000D01*
X172064695Y-89125000D01*
X172064701Y-89124999D01*
X172188858Y-89088543D01*
X172261068Y-89042134D01*
X172039805Y-88820871D01*
X172084968Y-88802164D01*
X172127164Y-88759968D01*
X172145871Y-88714805D01*
X172368249Y-88937184D01*
X172368250Y-88937183D01*
X172382454Y-88920792D01*
X172382458Y-88920786D01*
X172436210Y-88803084D01*
X172454627Y-88675001D01*
X172454627Y-88674998D01*
X172820373Y-88674998D01*
X172820373Y-88675001D01*
X172838789Y-88803084D01*
X172892541Y-88920785D01*
X172892545Y-88920792D01*
X172906749Y-88937184D01*
X173129128Y-88714804D01*
X173147836Y-88759968D01*
X173190032Y-88802164D01*
X173235194Y-88820871D01*
X173013930Y-89042135D01*
X173086142Y-89088544D01*
X173210298Y-89124999D01*
X173210305Y-89125000D01*
X173339695Y-89125000D01*
X173339701Y-89124999D01*
X173463858Y-89088543D01*
X173536068Y-89042134D01*
X173314805Y-88820871D01*
X173359968Y-88802164D01*
X173402164Y-88759968D01*
X173420871Y-88714805D01*
X173643249Y-88937184D01*
X173643250Y-88937183D01*
X173657454Y-88920792D01*
X173657458Y-88920786D01*
X173711210Y-88803084D01*
X173729627Y-88675001D01*
X173729627Y-88674998D01*
X173718843Y-88600000D01*
X179209160Y-88600000D01*
X179230318Y-88719993D01*
X179291237Y-88825507D01*
X179291238Y-88825508D01*
X179291239Y-88825509D01*
X179384575Y-88903828D01*
X179499069Y-88945500D01*
X179499070Y-88945500D01*
X179620910Y-88945500D01*
X179620911Y-88945500D01*
X179735405Y-88903828D01*
X179828741Y-88825509D01*
X179830692Y-88822130D01*
X182384500Y-88822130D01*
X182384500Y-88957869D01*
X182419629Y-89088971D01*
X182419631Y-89088977D01*
X182479699Y-89193016D01*
X182487498Y-89206524D01*
X182583476Y-89302502D01*
X182626500Y-89327342D01*
X182701022Y-89370368D01*
X182701028Y-89370370D01*
X182832130Y-89405500D01*
X182832133Y-89405500D01*
X182967869Y-89405500D01*
X183083477Y-89374521D01*
X183098975Y-89370369D01*
X183216524Y-89302502D01*
X183312502Y-89206524D01*
X183377867Y-89093308D01*
X183380368Y-89088977D01*
X183380370Y-89088971D01*
X183415500Y-88957869D01*
X183415500Y-88822130D01*
X183380370Y-88691028D01*
X183380368Y-88691022D01*
X183329857Y-88603536D01*
X183312502Y-88573476D01*
X183216524Y-88477498D01*
X183098977Y-88409631D01*
X183098971Y-88409629D01*
X182967870Y-88374500D01*
X182967867Y-88374500D01*
X182832133Y-88374500D01*
X182832130Y-88374500D01*
X182701028Y-88409629D01*
X182701022Y-88409631D01*
X182583475Y-88477498D01*
X182583475Y-88477499D01*
X182487499Y-88573475D01*
X182487498Y-88573475D01*
X182419631Y-88691022D01*
X182419629Y-88691028D01*
X182384500Y-88822130D01*
X179830692Y-88822130D01*
X179889662Y-88719991D01*
X179910820Y-88600000D01*
X179889662Y-88480009D01*
X179889661Y-88480007D01*
X179889661Y-88480006D01*
X179872337Y-88450000D01*
X181104170Y-88450000D01*
X181125328Y-88569993D01*
X181186247Y-88675507D01*
X181186248Y-88675508D01*
X181186249Y-88675509D01*
X181279585Y-88753828D01*
X181394079Y-88795500D01*
X181394080Y-88795500D01*
X181515920Y-88795500D01*
X181515921Y-88795500D01*
X181630415Y-88753828D01*
X181723751Y-88675509D01*
X181784672Y-88569991D01*
X181805830Y-88450000D01*
X181784672Y-88330009D01*
X181784671Y-88330007D01*
X181784671Y-88330006D01*
X181723752Y-88224492D01*
X181630415Y-88146172D01*
X181628569Y-88145500D01*
X181515921Y-88104500D01*
X181394079Y-88104500D01*
X181346748Y-88121727D01*
X181279584Y-88146172D01*
X181186247Y-88224492D01*
X181125328Y-88330006D01*
X181104170Y-88450000D01*
X179872337Y-88450000D01*
X179828742Y-88374492D01*
X179735405Y-88296172D01*
X179675836Y-88274491D01*
X179620911Y-88254500D01*
X179499069Y-88254500D01*
X179444144Y-88274491D01*
X179384574Y-88296172D01*
X179291237Y-88374492D01*
X179230318Y-88480006D01*
X179209160Y-88600000D01*
X173718843Y-88600000D01*
X173711210Y-88546915D01*
X173657458Y-88429214D01*
X173657454Y-88429207D01*
X173643249Y-88412814D01*
X173420870Y-88635193D01*
X173402164Y-88590032D01*
X173359968Y-88547836D01*
X173314805Y-88529129D01*
X173536069Y-88307864D01*
X173463857Y-88261455D01*
X173339701Y-88225000D01*
X173210298Y-88225000D01*
X173086141Y-88261456D01*
X173086140Y-88261456D01*
X173013930Y-88307863D01*
X173013930Y-88307864D01*
X173235194Y-88529128D01*
X173190032Y-88547836D01*
X173147836Y-88590032D01*
X173129128Y-88635194D01*
X172906749Y-88412815D01*
X172906748Y-88412815D01*
X172892544Y-88429209D01*
X172892542Y-88429212D01*
X172838789Y-88546915D01*
X172820373Y-88674998D01*
X172454627Y-88674998D01*
X172436210Y-88546915D01*
X172382458Y-88429214D01*
X172382454Y-88429207D01*
X172368249Y-88412814D01*
X172145870Y-88635193D01*
X172127164Y-88590032D01*
X172084968Y-88547836D01*
X172039805Y-88529129D01*
X172261069Y-88307864D01*
X172188857Y-88261455D01*
X172064701Y-88225000D01*
X171935298Y-88225000D01*
X171811141Y-88261456D01*
X171811140Y-88261456D01*
X171738930Y-88307863D01*
X171738930Y-88307864D01*
X171960194Y-88529128D01*
X171915032Y-88547836D01*
X171872836Y-88590032D01*
X171854128Y-88635194D01*
X171631749Y-88412815D01*
X171631748Y-88412815D01*
X171617544Y-88429209D01*
X171617542Y-88429212D01*
X171563789Y-88546915D01*
X171545373Y-88674998D01*
X171179627Y-88674998D01*
X171161210Y-88546915D01*
X171107458Y-88429214D01*
X171107454Y-88429207D01*
X171093249Y-88412814D01*
X170870870Y-88635193D01*
X170852164Y-88590032D01*
X170809968Y-88547836D01*
X170764805Y-88529129D01*
X170986069Y-88307864D01*
X170913857Y-88261455D01*
X170789701Y-88225000D01*
X170660298Y-88225000D01*
X170536141Y-88261456D01*
X170536140Y-88261456D01*
X170463930Y-88307863D01*
X170463930Y-88307864D01*
X170685194Y-88529128D01*
X170640032Y-88547836D01*
X170597836Y-88590032D01*
X170579128Y-88635194D01*
X170356749Y-88412815D01*
X170356748Y-88412815D01*
X170342544Y-88429209D01*
X170342542Y-88429212D01*
X170288789Y-88546915D01*
X170270373Y-88674998D01*
X169908478Y-88674998D01*
X169893752Y-88649492D01*
X169872460Y-88631626D01*
X169800415Y-88571172D01*
X169685921Y-88529500D01*
X169564079Y-88529500D01*
X169516231Y-88546915D01*
X169449584Y-88571172D01*
X169356247Y-88649492D01*
X169295328Y-88755006D01*
X169274170Y-88875000D01*
X169295328Y-88994993D01*
X169350523Y-89090592D01*
X169355418Y-89127774D01*
X169332588Y-89157527D01*
X169308088Y-89164092D01*
X169214376Y-89164092D01*
X169151712Y-89190049D01*
X169144133Y-89197629D01*
X169126613Y-89215148D01*
X169091967Y-89229500D01*
X168042464Y-89229500D01*
X168007816Y-89215148D01*
X167858127Y-89065459D01*
X167858125Y-89065458D01*
X167858124Y-89065457D01*
X167821417Y-89050252D01*
X167795460Y-89039500D01*
X167795459Y-89039500D01*
X167472371Y-89039500D01*
X167404541Y-89039500D01*
X167341875Y-89065456D01*
X167341873Y-89065457D01*
X167192185Y-89215148D01*
X167157537Y-89229500D01*
X166790919Y-89229500D01*
X166756271Y-89215148D01*
X165541123Y-88000000D01*
X175999170Y-88000000D01*
X176020328Y-88119993D01*
X176081247Y-88225507D01*
X176081248Y-88225508D01*
X176081249Y-88225509D01*
X176174585Y-88303828D01*
X176289079Y-88345500D01*
X176289080Y-88345500D01*
X176410920Y-88345500D01*
X176410921Y-88345500D01*
X176525415Y-88303828D01*
X176618751Y-88225509D01*
X176679672Y-88119991D01*
X176700830Y-88000000D01*
X176679672Y-87880009D01*
X176679671Y-87880007D01*
X176679671Y-87880006D01*
X176618752Y-87774492D01*
X176609984Y-87767135D01*
X176525415Y-87696172D01*
X176410921Y-87654500D01*
X176289079Y-87654500D01*
X176237530Y-87673262D01*
X176174584Y-87696172D01*
X176081247Y-87774492D01*
X176020328Y-87880006D01*
X175999170Y-88000000D01*
X165541123Y-88000000D01*
X165041123Y-87500000D01*
X167099170Y-87500000D01*
X167120328Y-87619993D01*
X167181247Y-87725507D01*
X167181248Y-87725508D01*
X167181249Y-87725509D01*
X167274585Y-87803828D01*
X167389079Y-87845500D01*
X167389080Y-87845500D01*
X167510920Y-87845500D01*
X167510921Y-87845500D01*
X167625415Y-87803828D01*
X167718751Y-87725509D01*
X167755312Y-87662183D01*
X167779671Y-87619993D01*
X167779671Y-87619992D01*
X167779672Y-87619991D01*
X167800830Y-87500000D01*
X167783197Y-87399998D01*
X170270373Y-87399998D01*
X170270373Y-87400001D01*
X170288789Y-87528084D01*
X170342541Y-87645785D01*
X170342545Y-87645792D01*
X170356749Y-87662184D01*
X170579128Y-87439804D01*
X170597836Y-87484968D01*
X170640032Y-87527164D01*
X170685194Y-87545870D01*
X170463929Y-87767135D01*
X170536142Y-87813544D01*
X170660298Y-87849999D01*
X170660305Y-87850000D01*
X170789695Y-87850000D01*
X170789701Y-87849999D01*
X170913858Y-87813543D01*
X170986068Y-87767134D01*
X170764805Y-87545871D01*
X170809968Y-87527164D01*
X170852164Y-87484968D01*
X170870870Y-87439805D01*
X171093249Y-87662184D01*
X171093250Y-87662183D01*
X171107454Y-87645792D01*
X171107458Y-87645786D01*
X171161210Y-87528084D01*
X171179627Y-87400001D01*
X171179627Y-87399998D01*
X171545373Y-87399998D01*
X171545373Y-87400001D01*
X171563789Y-87528084D01*
X171617541Y-87645785D01*
X171617545Y-87645792D01*
X171631749Y-87662184D01*
X171854128Y-87439804D01*
X171872836Y-87484968D01*
X171915032Y-87527164D01*
X171960194Y-87545871D01*
X171738930Y-87767135D01*
X171811142Y-87813544D01*
X171935298Y-87849999D01*
X171935305Y-87850000D01*
X172064695Y-87850000D01*
X172064701Y-87849999D01*
X172188858Y-87813543D01*
X172261068Y-87767134D01*
X172039805Y-87545871D01*
X172084968Y-87527164D01*
X172127164Y-87484968D01*
X172145871Y-87439805D01*
X172368249Y-87662184D01*
X172368250Y-87662183D01*
X172382454Y-87645792D01*
X172382458Y-87645786D01*
X172436210Y-87528084D01*
X172454627Y-87400001D01*
X172454627Y-87399998D01*
X172820373Y-87399998D01*
X172820373Y-87400001D01*
X172838789Y-87528084D01*
X172892541Y-87645785D01*
X172892545Y-87645792D01*
X172906749Y-87662184D01*
X173129128Y-87439804D01*
X173147836Y-87484968D01*
X173190032Y-87527164D01*
X173235194Y-87545871D01*
X173013930Y-87767135D01*
X173086142Y-87813544D01*
X173210298Y-87849999D01*
X173210305Y-87850000D01*
X173339695Y-87850000D01*
X173339701Y-87849999D01*
X173463858Y-87813543D01*
X173536068Y-87767134D01*
X173314805Y-87545871D01*
X173359968Y-87527164D01*
X173402164Y-87484968D01*
X173420871Y-87439805D01*
X173643249Y-87662184D01*
X173643250Y-87662183D01*
X173657454Y-87645792D01*
X173657458Y-87645786D01*
X173711210Y-87528084D01*
X173729627Y-87400001D01*
X173729627Y-87399998D01*
X173711210Y-87271915D01*
X173657458Y-87154214D01*
X173657454Y-87154207D01*
X173643249Y-87137814D01*
X173420870Y-87360193D01*
X173402164Y-87315032D01*
X173359968Y-87272836D01*
X173314805Y-87254129D01*
X173536069Y-87032864D01*
X173463857Y-86986455D01*
X173339701Y-86950000D01*
X173210298Y-86950000D01*
X173086141Y-86986456D01*
X173086140Y-86986456D01*
X173013930Y-87032863D01*
X173013930Y-87032864D01*
X173235194Y-87254128D01*
X173190032Y-87272836D01*
X173147836Y-87315032D01*
X173129128Y-87360194D01*
X172906749Y-87137815D01*
X172906748Y-87137815D01*
X172892544Y-87154209D01*
X172892542Y-87154212D01*
X172838789Y-87271915D01*
X172820373Y-87399998D01*
X172454627Y-87399998D01*
X172436210Y-87271915D01*
X172382458Y-87154214D01*
X172382454Y-87154207D01*
X172368249Y-87137814D01*
X172145870Y-87360193D01*
X172127164Y-87315032D01*
X172084968Y-87272836D01*
X172039805Y-87254129D01*
X172261069Y-87032864D01*
X172188857Y-86986455D01*
X172064701Y-86950000D01*
X171935298Y-86950000D01*
X171811141Y-86986456D01*
X171811140Y-86986456D01*
X171738930Y-87032863D01*
X171738930Y-87032864D01*
X171960194Y-87254128D01*
X171915032Y-87272836D01*
X171872836Y-87315032D01*
X171854128Y-87360194D01*
X171631749Y-87137815D01*
X171631748Y-87137815D01*
X171617544Y-87154209D01*
X171617542Y-87154212D01*
X171563789Y-87271915D01*
X171545373Y-87399998D01*
X171179627Y-87399998D01*
X171161210Y-87271915D01*
X171107458Y-87154214D01*
X171107454Y-87154207D01*
X171093249Y-87137814D01*
X170870870Y-87360193D01*
X170852164Y-87315032D01*
X170809968Y-87272836D01*
X170764805Y-87254129D01*
X170986069Y-87032864D01*
X170913857Y-86986455D01*
X170789701Y-86950000D01*
X170660298Y-86950000D01*
X170536141Y-86986456D01*
X170536140Y-86986456D01*
X170463930Y-87032863D01*
X170463930Y-87032864D01*
X170685194Y-87254128D01*
X170640032Y-87272836D01*
X170597836Y-87315032D01*
X170579128Y-87360194D01*
X170356749Y-87137815D01*
X170356748Y-87137815D01*
X170342544Y-87154209D01*
X170342542Y-87154212D01*
X170288789Y-87271915D01*
X170270373Y-87399998D01*
X167783197Y-87399998D01*
X167779672Y-87380009D01*
X167779671Y-87380007D01*
X167779671Y-87380006D01*
X167718752Y-87274492D01*
X167716778Y-87272836D01*
X167625415Y-87196172D01*
X167510921Y-87154500D01*
X167389079Y-87154500D01*
X167337654Y-87173217D01*
X167274584Y-87196172D01*
X167181247Y-87274492D01*
X167120328Y-87380006D01*
X167099170Y-87500000D01*
X165041123Y-87500000D01*
X164684852Y-87143729D01*
X164670500Y-87109081D01*
X164670500Y-86648759D01*
X164670499Y-86648755D01*
X164648718Y-86596172D01*
X164644543Y-86586092D01*
X164596580Y-86538129D01*
X163569750Y-85511299D01*
X163555398Y-85476651D01*
X163556142Y-85468142D01*
X163568158Y-85400000D01*
X163547000Y-85280009D01*
X163531983Y-85254000D01*
X163527088Y-85216819D01*
X163549918Y-85187065D01*
X163574419Y-85180500D01*
X168767537Y-85180500D01*
X168802185Y-85194852D01*
X168923174Y-85315841D01*
X168937526Y-85350489D01*
X168930961Y-85374989D01*
X168870328Y-85480006D01*
X168849170Y-85600000D01*
X168870328Y-85719993D01*
X168931247Y-85825507D01*
X168931248Y-85825508D01*
X168931249Y-85825509D01*
X169024585Y-85903828D01*
X169139079Y-85945500D01*
X169200384Y-85945500D01*
X169235032Y-85959852D01*
X169249384Y-85994500D01*
X169249170Y-85996945D01*
X169249170Y-85999997D01*
X169249170Y-85999998D01*
X169249170Y-86000000D01*
X169256229Y-86040032D01*
X169270328Y-86119993D01*
X169331247Y-86225507D01*
X169331248Y-86225508D01*
X169331249Y-86225509D01*
X169424585Y-86303828D01*
X169539079Y-86345500D01*
X169539080Y-86345500D01*
X169660920Y-86345500D01*
X169660921Y-86345500D01*
X169775415Y-86303828D01*
X169868751Y-86225509D01*
X169926487Y-86125507D01*
X169926781Y-86124998D01*
X170270373Y-86124998D01*
X170270373Y-86125001D01*
X170288789Y-86253084D01*
X170342541Y-86370785D01*
X170342545Y-86370792D01*
X170356749Y-86387184D01*
X170579128Y-86164804D01*
X170597836Y-86209968D01*
X170640032Y-86252164D01*
X170685194Y-86270870D01*
X170463929Y-86492135D01*
X170536142Y-86538544D01*
X170660298Y-86574999D01*
X170660305Y-86575000D01*
X170789695Y-86575000D01*
X170789701Y-86574999D01*
X170913858Y-86538543D01*
X170986068Y-86492134D01*
X170764805Y-86270871D01*
X170809968Y-86252164D01*
X170852164Y-86209968D01*
X170870870Y-86164805D01*
X171093249Y-86387184D01*
X171093250Y-86387183D01*
X171107454Y-86370792D01*
X171107458Y-86370786D01*
X171161210Y-86253084D01*
X171179627Y-86125001D01*
X171179627Y-86124998D01*
X171545373Y-86124998D01*
X171545373Y-86125001D01*
X171563789Y-86253084D01*
X171617541Y-86370785D01*
X171617545Y-86370792D01*
X171631749Y-86387184D01*
X171854128Y-86164804D01*
X171872836Y-86209968D01*
X171915032Y-86252164D01*
X171960194Y-86270871D01*
X171738930Y-86492135D01*
X171811142Y-86538544D01*
X171935298Y-86574999D01*
X171935305Y-86575000D01*
X172064695Y-86575000D01*
X172064701Y-86574999D01*
X172188858Y-86538543D01*
X172261068Y-86492134D01*
X172039805Y-86270871D01*
X172084968Y-86252164D01*
X172127164Y-86209968D01*
X172145871Y-86164805D01*
X172368249Y-86387184D01*
X172368250Y-86387183D01*
X172382454Y-86370792D01*
X172382458Y-86370786D01*
X172436210Y-86253084D01*
X172454627Y-86125001D01*
X172454627Y-86124998D01*
X172820373Y-86124998D01*
X172820373Y-86125001D01*
X172838789Y-86253084D01*
X172892541Y-86370785D01*
X172892545Y-86370792D01*
X172906749Y-86387184D01*
X173129128Y-86164804D01*
X173147836Y-86209968D01*
X173190032Y-86252164D01*
X173235194Y-86270870D01*
X173013929Y-86492135D01*
X173086142Y-86538544D01*
X173210298Y-86574999D01*
X173210305Y-86575000D01*
X173339695Y-86575000D01*
X173339701Y-86574999D01*
X173463858Y-86538543D01*
X173536068Y-86492134D01*
X173314805Y-86270871D01*
X173359968Y-86252164D01*
X173402164Y-86209968D01*
X173420871Y-86164805D01*
X173643249Y-86387184D01*
X173643250Y-86387183D01*
X173657454Y-86370792D01*
X173657458Y-86370786D01*
X173711210Y-86253084D01*
X173729627Y-86125001D01*
X173729627Y-86124998D01*
X173711654Y-86000000D01*
X178849170Y-86000000D01*
X178870328Y-86119993D01*
X178931247Y-86225507D01*
X178931248Y-86225508D01*
X178931249Y-86225509D01*
X179024585Y-86303828D01*
X179139079Y-86345500D01*
X179139080Y-86345500D01*
X179260920Y-86345500D01*
X179260921Y-86345500D01*
X179375415Y-86303828D01*
X179468751Y-86225509D01*
X179526487Y-86125507D01*
X179529671Y-86119993D01*
X179529671Y-86119992D01*
X179529672Y-86119991D01*
X179550830Y-86000000D01*
X179529672Y-85880009D01*
X179529671Y-85880007D01*
X179529671Y-85880006D01*
X179468752Y-85774492D01*
X179375415Y-85696172D01*
X179320624Y-85676230D01*
X179260921Y-85654500D01*
X179139079Y-85654500D01*
X179084159Y-85674489D01*
X179024584Y-85696172D01*
X178931247Y-85774492D01*
X178870328Y-85880006D01*
X178849170Y-86000000D01*
X173711654Y-86000000D01*
X173711210Y-85996915D01*
X173657458Y-85879214D01*
X173657454Y-85879207D01*
X173643249Y-85862814D01*
X173420870Y-86085193D01*
X173402164Y-86040032D01*
X173359968Y-85997836D01*
X173314805Y-85979129D01*
X173536069Y-85757864D01*
X173463857Y-85711455D01*
X173339701Y-85675000D01*
X173210298Y-85675000D01*
X173086141Y-85711456D01*
X173086140Y-85711456D01*
X173013930Y-85757863D01*
X173013930Y-85757864D01*
X173235194Y-85979128D01*
X173190032Y-85997836D01*
X173147836Y-86040032D01*
X173129128Y-86085194D01*
X172906749Y-85862815D01*
X172906748Y-85862815D01*
X172892544Y-85879209D01*
X172892542Y-85879212D01*
X172838789Y-85996915D01*
X172820373Y-86124998D01*
X172454627Y-86124998D01*
X172436210Y-85996915D01*
X172382458Y-85879214D01*
X172382454Y-85879207D01*
X172368249Y-85862814D01*
X172145870Y-86085193D01*
X172127164Y-86040032D01*
X172084968Y-85997836D01*
X172039805Y-85979129D01*
X172261069Y-85757864D01*
X172188857Y-85711455D01*
X172064701Y-85675000D01*
X171935298Y-85675000D01*
X171811141Y-85711456D01*
X171811140Y-85711456D01*
X171738930Y-85757863D01*
X171738930Y-85757864D01*
X171960194Y-85979128D01*
X171915032Y-85997836D01*
X171872836Y-86040032D01*
X171854128Y-86085194D01*
X171631749Y-85862815D01*
X171631748Y-85862815D01*
X171617544Y-85879209D01*
X171617542Y-85879212D01*
X171563789Y-85996915D01*
X171545373Y-86124998D01*
X171179627Y-86124998D01*
X171161210Y-85996915D01*
X171107458Y-85879214D01*
X171107454Y-85879207D01*
X171093249Y-85862814D01*
X170870870Y-86085193D01*
X170852164Y-86040032D01*
X170809968Y-85997836D01*
X170764805Y-85979129D01*
X170986069Y-85757864D01*
X170913857Y-85711455D01*
X170789701Y-85675000D01*
X170660298Y-85675000D01*
X170536141Y-85711456D01*
X170536140Y-85711456D01*
X170463930Y-85757863D01*
X170463930Y-85757864D01*
X170685194Y-85979128D01*
X170640032Y-85997836D01*
X170597836Y-86040032D01*
X170579128Y-86085194D01*
X170356749Y-85862815D01*
X170356748Y-85862815D01*
X170342544Y-85879209D01*
X170342542Y-85879212D01*
X170288789Y-85996915D01*
X170270373Y-86124998D01*
X169926781Y-86124998D01*
X169929671Y-86119993D01*
X169929671Y-86119992D01*
X169929672Y-86119991D01*
X169950830Y-86000000D01*
X169943823Y-85960264D01*
X169951940Y-85923651D01*
X169957425Y-85917114D01*
X170534544Y-85339998D01*
X170560500Y-85277333D01*
X170560500Y-85209503D01*
X170560500Y-84657199D01*
X170574852Y-84622551D01*
X170609500Y-84608199D01*
X170644148Y-84622551D01*
X170657755Y-84648688D01*
X170664478Y-84686817D01*
X170670328Y-84719993D01*
X170731247Y-84825507D01*
X170731248Y-84825508D01*
X170731249Y-84825509D01*
X170824585Y-84903828D01*
X170939079Y-84945500D01*
X170939080Y-84945500D01*
X171060920Y-84945500D01*
X171060921Y-84945500D01*
X171175415Y-84903828D01*
X171268751Y-84825509D01*
X171329672Y-84719991D01*
X171350830Y-84600000D01*
X171329672Y-84480009D01*
X171329671Y-84480007D01*
X171329671Y-84480006D01*
X171268752Y-84374492D01*
X171257616Y-84365148D01*
X171175415Y-84296172D01*
X171060921Y-84254500D01*
X170939079Y-84254500D01*
X170881832Y-84275336D01*
X170824584Y-84296172D01*
X170731247Y-84374492D01*
X170670328Y-84480006D01*
X170668697Y-84489258D01*
X170657987Y-84550000D01*
X170657756Y-84551309D01*
X170637605Y-84582939D01*
X170600991Y-84591056D01*
X170569361Y-84570905D01*
X170560500Y-84542800D01*
X170560500Y-83121700D01*
X170560499Y-83121696D01*
X170559793Y-83119991D01*
X170534543Y-83059033D01*
X170486580Y-83011070D01*
X170121010Y-82645500D01*
X169740969Y-82265458D01*
X169678303Y-82239500D01*
X169678302Y-82239500D01*
X159889528Y-82239500D01*
X159821698Y-82239500D01*
X159821696Y-82239500D01*
X159759031Y-82265458D01*
X159759030Y-82265458D01*
X159464471Y-82560019D01*
X159403420Y-82621070D01*
X159379438Y-82645051D01*
X159355457Y-82669032D01*
X159329500Y-82731696D01*
X159329500Y-82731698D01*
X159329500Y-86988757D01*
X159329500Y-87056587D01*
X159355457Y-87119252D01*
X159355458Y-87119253D01*
X159355458Y-87119254D01*
X159524905Y-87288700D01*
X159539257Y-87323348D01*
X159538513Y-87331856D01*
X159526498Y-87399999D01*
X159547656Y-87519993D01*
X159608575Y-87625507D01*
X159608576Y-87625508D01*
X159608577Y-87625509D01*
X159701913Y-87703828D01*
X159816407Y-87745500D01*
X159816408Y-87745500D01*
X159938248Y-87745500D01*
X159938249Y-87745500D01*
X160052743Y-87703828D01*
X160146079Y-87625509D01*
X160189674Y-87550000D01*
X160206999Y-87519993D01*
X160206999Y-87519992D01*
X160207000Y-87519991D01*
X160228158Y-87400000D01*
X160209836Y-87296095D01*
X160217953Y-87259484D01*
X160241331Y-87241545D01*
X160327556Y-87210163D01*
X160420892Y-87131844D01*
X160481813Y-87026326D01*
X160502971Y-86906335D01*
X160481813Y-86786344D01*
X160481812Y-86786342D01*
X160481812Y-86786341D01*
X160420893Y-86680827D01*
X160413343Y-86674492D01*
X160327556Y-86602507D01*
X160213062Y-86560835D01*
X160091220Y-86560835D01*
X160091218Y-86560835D01*
X160088690Y-86561755D01*
X160051222Y-86560117D01*
X160037286Y-86550357D01*
X159884852Y-86397923D01*
X159870500Y-86363275D01*
X159870500Y-83354121D01*
X159884852Y-83319473D01*
X159919500Y-83305121D01*
X159936253Y-83308075D01*
X160039079Y-83345500D01*
X160039080Y-83345500D01*
X160160920Y-83345500D01*
X160160921Y-83345500D01*
X160275415Y-83303828D01*
X160368751Y-83225509D01*
X160428685Y-83121700D01*
X160429671Y-83119993D01*
X160429671Y-83119992D01*
X160429672Y-83119991D01*
X160450830Y-83000000D01*
X160429672Y-82880009D01*
X160414655Y-82854000D01*
X160409760Y-82816819D01*
X160432590Y-82787065D01*
X160457091Y-82780500D01*
X169470625Y-82780500D01*
X169505273Y-82794852D01*
X169703638Y-82993217D01*
X169717990Y-83027865D01*
X169703638Y-83062513D01*
X169685749Y-83073910D01*
X169624584Y-83096172D01*
X169531249Y-83174489D01*
X169531247Y-83174492D01*
X169513634Y-83205000D01*
X169483881Y-83227830D01*
X169471199Y-83229500D01*
X160866083Y-83229500D01*
X160803418Y-83255458D01*
X160803416Y-83255459D01*
X160714853Y-83344022D01*
X160680205Y-83358374D01*
X160663452Y-83355421D01*
X160660921Y-83354500D01*
X160539079Y-83354500D01*
X160507222Y-83366095D01*
X160424584Y-83396172D01*
X160331247Y-83474492D01*
X160270328Y-83580006D01*
X160249170Y-83700000D01*
X160270328Y-83819993D01*
X160331247Y-83925507D01*
X160331248Y-83925508D01*
X160331249Y-83925509D01*
X160424585Y-84003828D01*
X160539079Y-84045500D01*
X160539080Y-84045500D01*
X160660920Y-84045500D01*
X160660921Y-84045500D01*
X160775415Y-84003828D01*
X160868751Y-83925509D01*
X160929672Y-83819991D01*
X160950830Y-83700000D01*
X160938814Y-83631856D01*
X160946931Y-83595244D01*
X160952426Y-83588696D01*
X160953120Y-83588003D01*
X160956276Y-83584847D01*
X160990920Y-83570500D01*
X161337882Y-83570500D01*
X161372530Y-83584852D01*
X161386882Y-83619500D01*
X161372530Y-83654148D01*
X161369379Y-83657036D01*
X161348575Y-83674492D01*
X161287656Y-83780006D01*
X161266498Y-83900000D01*
X161287656Y-84019993D01*
X161348575Y-84125507D01*
X161348576Y-84125508D01*
X161348577Y-84125509D01*
X161441913Y-84203828D01*
X161556407Y-84245500D01*
X161556408Y-84245500D01*
X161678248Y-84245500D01*
X161678249Y-84245500D01*
X161792743Y-84203828D01*
X161886079Y-84125509D01*
X161947000Y-84019991D01*
X161968158Y-83900000D01*
X161947000Y-83780009D01*
X161946999Y-83780007D01*
X161946999Y-83780006D01*
X161886080Y-83674492D01*
X161880718Y-83669993D01*
X161865276Y-83657035D01*
X161847960Y-83623770D01*
X161859238Y-83588003D01*
X161892504Y-83570686D01*
X161896774Y-83570500D01*
X162137882Y-83570500D01*
X162172530Y-83584852D01*
X162186882Y-83619500D01*
X162172530Y-83654148D01*
X162169379Y-83657036D01*
X162148575Y-83674492D01*
X162087656Y-83780006D01*
X162066498Y-83900000D01*
X162087656Y-84019993D01*
X162148575Y-84125507D01*
X162148576Y-84125508D01*
X162148577Y-84125509D01*
X162241913Y-84203828D01*
X162311684Y-84229222D01*
X162339334Y-84254558D01*
X162340970Y-84292026D01*
X162315634Y-84319676D01*
X162307608Y-84322597D01*
X162272431Y-84332023D01*
X162272429Y-84332023D01*
X162197074Y-84375529D01*
X162197065Y-84375536D01*
X162135536Y-84437065D01*
X162135529Y-84437074D01*
X162092023Y-84512429D01*
X162092023Y-84512431D01*
X162070385Y-84593183D01*
X162047555Y-84622935D01*
X162023055Y-84629500D01*
X161629538Y-84629500D01*
X161566872Y-84655456D01*
X161566870Y-84655457D01*
X161167932Y-85054398D01*
X161103420Y-85118910D01*
X161079438Y-85142891D01*
X161055457Y-85166872D01*
X161029500Y-85229536D01*
X161029500Y-85505500D01*
X161015148Y-85540148D01*
X160980500Y-85554500D01*
X160899079Y-85554500D01*
X160841832Y-85575336D01*
X160784584Y-85596172D01*
X160691247Y-85674492D01*
X160630328Y-85780006D01*
X160609170Y-85900000D01*
X160630328Y-86019993D01*
X160691247Y-86125507D01*
X160691248Y-86125508D01*
X160691249Y-86125509D01*
X160784585Y-86203828D01*
X160899079Y-86245500D01*
X160899080Y-86245500D01*
X161020920Y-86245500D01*
X161020921Y-86245500D01*
X161135415Y-86203828D01*
X161228751Y-86125509D01*
X161289672Y-86019991D01*
X161310830Y-85900000D01*
X161298814Y-85831856D01*
X161306932Y-85795243D01*
X161312423Y-85788699D01*
X161321114Y-85780009D01*
X161344543Y-85756580D01*
X161359697Y-85719994D01*
X161386214Y-85693477D01*
X161423717Y-85693477D01*
X161436463Y-85701212D01*
X161439579Y-85703827D01*
X161439582Y-85703828D01*
X161554076Y-85745500D01*
X161554077Y-85745500D01*
X161675917Y-85745500D01*
X161675918Y-85745500D01*
X161790412Y-85703828D01*
X161883748Y-85625509D01*
X161944669Y-85519991D01*
X161965827Y-85400000D01*
X161953811Y-85331855D01*
X161961929Y-85295242D01*
X161967407Y-85288711D01*
X162061269Y-85194850D01*
X162095916Y-85180500D01*
X162860237Y-85180500D01*
X162894885Y-85194852D01*
X162909237Y-85229500D01*
X162902672Y-85254001D01*
X162887656Y-85280007D01*
X162866498Y-85400000D01*
X162887656Y-85519993D01*
X162948575Y-85625507D01*
X162969379Y-85642964D01*
X162986696Y-85676230D01*
X162975418Y-85711997D01*
X162942152Y-85729314D01*
X162937882Y-85729500D01*
X162866129Y-85729500D01*
X162831481Y-85715148D01*
X162823694Y-85705000D01*
X162806080Y-85674492D01*
X162806078Y-85674489D01*
X162712743Y-85596172D01*
X162671846Y-85581287D01*
X162598249Y-85554500D01*
X162476407Y-85554500D01*
X162419160Y-85575336D01*
X162361912Y-85596172D01*
X162268575Y-85674492D01*
X162207656Y-85780006D01*
X162186498Y-85900000D01*
X162207656Y-86019993D01*
X162268575Y-86125507D01*
X162268576Y-86125508D01*
X162268577Y-86125509D01*
X162361913Y-86203828D01*
X162476407Y-86245500D01*
X162476408Y-86245500D01*
X162598248Y-86245500D01*
X162598249Y-86245500D01*
X162712743Y-86203828D01*
X162806079Y-86125509D01*
X162823694Y-86095000D01*
X162853447Y-86072170D01*
X162866129Y-86070500D01*
X163323517Y-86070500D01*
X163358165Y-86084852D01*
X164082476Y-86809163D01*
X164096828Y-86843811D01*
X164096828Y-87301244D01*
X164105984Y-87323348D01*
X164122785Y-87363908D01*
X164122786Y-87363909D01*
X164122786Y-87363910D01*
X164254780Y-87495903D01*
X164493249Y-87734372D01*
X164493249Y-87734373D01*
X164493250Y-87734373D01*
X164523241Y-87764365D01*
X164537592Y-87799014D01*
X164523240Y-87833661D01*
X164265754Y-88091147D01*
X164265749Y-88091153D01*
X164262694Y-88094207D01*
X164262691Y-88094210D01*
X164262690Y-88094209D01*
X164235437Y-88121464D01*
X164235220Y-88121727D01*
X164226599Y-88130345D01*
X164180205Y-88221361D01*
X164164251Y-88322001D01*
X164164210Y-88322257D01*
X164167889Y-88345500D01*
X164180179Y-88423159D01*
X164180179Y-88423160D01*
X164226544Y-88514179D01*
X164226550Y-88514186D01*
X164235377Y-88523015D01*
X164235399Y-88523041D01*
X164262666Y-88550308D01*
X164294576Y-88582224D01*
X164294601Y-88582243D01*
X164331884Y-88619526D01*
X164343617Y-88631259D01*
X164344058Y-88631620D01*
X164352546Y-88640111D01*
X164352548Y-88640112D01*
X164352549Y-88640113D01*
X164443545Y-88686498D01*
X164443546Y-88686498D01*
X164443548Y-88686499D01*
X164544431Y-88702498D01*
X164544433Y-88702497D01*
X164544434Y-88702498D01*
X164594875Y-88694520D01*
X164645320Y-88686542D01*
X164645326Y-88686539D01*
X164658293Y-88679936D01*
X164695680Y-88677000D01*
X164724193Y-88701362D01*
X164727129Y-88738749D01*
X164724187Y-88745849D01*
X164717606Y-88758760D01*
X164717604Y-88758765D01*
X164701610Y-88859657D01*
X164701610Y-88859659D01*
X164701610Y-88859661D01*
X164717580Y-88960562D01*
X164761587Y-89046947D01*
X164763953Y-89051590D01*
X164772781Y-89060419D01*
X164772801Y-89060443D01*
X164793176Y-89080818D01*
X164831604Y-89119251D01*
X164831628Y-89119270D01*
X164881058Y-89168700D01*
X164881481Y-89169047D01*
X164889942Y-89177511D01*
X164889944Y-89177513D01*
X164889946Y-89177514D01*
X164889948Y-89177516D01*
X164980951Y-89223903D01*
X165081834Y-89239901D01*
X165081836Y-89239900D01*
X165081837Y-89239901D01*
X165157500Y-89227933D01*
X165182723Y-89223944D01*
X165195690Y-89217340D01*
X165233077Y-89214405D01*
X165261590Y-89238766D01*
X165264526Y-89276154D01*
X165261584Y-89283253D01*
X165255006Y-89296159D01*
X165255003Y-89296167D01*
X165239010Y-89397061D01*
X165239010Y-89397064D01*
X165241093Y-89410223D01*
X165254980Y-89497963D01*
X165254980Y-89497964D01*
X165254981Y-89497966D01*
X165301355Y-89588993D01*
X165301356Y-89588994D01*
X165310697Y-89598336D01*
X165310716Y-89598358D01*
X165330576Y-89618218D01*
X165330579Y-89618222D01*
X165369019Y-89656663D01*
X165369028Y-89656670D01*
X165387266Y-89674908D01*
X165387268Y-89674915D01*
X165387271Y-89674913D01*
X165414335Y-89701984D01*
X165414352Y-89701994D01*
X165418437Y-89706079D01*
X165418839Y-89706408D01*
X165427351Y-89714922D01*
X165518354Y-89761307D01*
X165619237Y-89777304D01*
X165619239Y-89777303D01*
X165619241Y-89777304D01*
X165720122Y-89761347D01*
X165720123Y-89761346D01*
X165720126Y-89761346D01*
X165811147Y-89714996D01*
X165819630Y-89706515D01*
X165819694Y-89706465D01*
X165823316Y-89702842D01*
X165823320Y-89702841D01*
X165847899Y-89678261D01*
X165847909Y-89678257D01*
X165847907Y-89678255D01*
X165862322Y-89663847D01*
X165874794Y-89651382D01*
X165874794Y-89651380D01*
X165878782Y-89647395D01*
X165878847Y-89647312D01*
X166107870Y-89418288D01*
X166142518Y-89403937D01*
X166177166Y-89418289D01*
X166455457Y-89696580D01*
X166503420Y-89744543D01*
X166566085Y-89770500D01*
X167271199Y-89770500D01*
X167305847Y-89784852D01*
X167313634Y-89795000D01*
X167331247Y-89825507D01*
X167331249Y-89825510D01*
X167376915Y-89863828D01*
X167424585Y-89903828D01*
X167481258Y-89924455D01*
X167508908Y-89949791D01*
X167510544Y-89987259D01*
X167485208Y-90014909D01*
X167464499Y-90019500D01*
X163119375Y-90019500D01*
X163084727Y-90005148D01*
X163046361Y-89966782D01*
X163032009Y-89932134D01*
X163046361Y-89897486D01*
X163064248Y-89886090D01*
X163125415Y-89863828D01*
X163218751Y-89785509D01*
X163259723Y-89714543D01*
X163279671Y-89679993D01*
X163279671Y-89679992D01*
X163279672Y-89679991D01*
X163300830Y-89560000D01*
X163279672Y-89440009D01*
X163279671Y-89440007D01*
X163279671Y-89440006D01*
X163218752Y-89334492D01*
X163157688Y-89283253D01*
X163125415Y-89256172D01*
X163010921Y-89214500D01*
X162889079Y-89214500D01*
X162831832Y-89235336D01*
X162774584Y-89256172D01*
X162681247Y-89334492D01*
X162620329Y-89440006D01*
X162619752Y-89441592D01*
X162618837Y-89442589D01*
X162618184Y-89443722D01*
X162617932Y-89443577D01*
X162594414Y-89469241D01*
X162556947Y-89470877D01*
X162539059Y-89459480D01*
X162484852Y-89405273D01*
X162470500Y-89370625D01*
X162470500Y-88760000D01*
X162599170Y-88760000D01*
X162620328Y-88879993D01*
X162681247Y-88985507D01*
X162681248Y-88985508D01*
X162681249Y-88985509D01*
X162774585Y-89063828D01*
X162889079Y-89105500D01*
X162889080Y-89105500D01*
X163010920Y-89105500D01*
X163010921Y-89105500D01*
X163125415Y-89063828D01*
X163218751Y-88985509D01*
X163249713Y-88931881D01*
X163279671Y-88879993D01*
X163279671Y-88879992D01*
X163279672Y-88879991D01*
X163300830Y-88760000D01*
X163279672Y-88640009D01*
X163279671Y-88640007D01*
X163279671Y-88640006D01*
X163218752Y-88534492D01*
X163209027Y-88526332D01*
X163125415Y-88456172D01*
X163010921Y-88414500D01*
X162889079Y-88414500D01*
X162831832Y-88435336D01*
X162774584Y-88456172D01*
X162681247Y-88534492D01*
X162620328Y-88640006D01*
X162599170Y-88760000D01*
X162470500Y-88760000D01*
X162470500Y-87800000D01*
X162626498Y-87800000D01*
X162647656Y-87919993D01*
X162708575Y-88025507D01*
X162708576Y-88025508D01*
X162708577Y-88025509D01*
X162801913Y-88103828D01*
X162916407Y-88145500D01*
X162916408Y-88145500D01*
X163038248Y-88145500D01*
X163038249Y-88145500D01*
X163152743Y-88103828D01*
X163246079Y-88025509D01*
X163276890Y-87972143D01*
X163306999Y-87919993D01*
X163306999Y-87919992D01*
X163307000Y-87919991D01*
X163328158Y-87800000D01*
X163307000Y-87680009D01*
X163306999Y-87680007D01*
X163306999Y-87680006D01*
X163246080Y-87574492D01*
X163152743Y-87496172D01*
X163121960Y-87484968D01*
X163038249Y-87454500D01*
X162916407Y-87454500D01*
X162859160Y-87475336D01*
X162801912Y-87496172D01*
X162708575Y-87574492D01*
X162647656Y-87680006D01*
X162626498Y-87800000D01*
X162470500Y-87800000D01*
X162470500Y-87717215D01*
X162470499Y-87717211D01*
X162444543Y-87654548D01*
X162396580Y-87606585D01*
X161986167Y-87196172D01*
X161789995Y-87000000D01*
X162626498Y-87000000D01*
X162647656Y-87119993D01*
X162708575Y-87225507D01*
X162708576Y-87225508D01*
X162708577Y-87225509D01*
X162801913Y-87303828D01*
X162916407Y-87345500D01*
X162916408Y-87345500D01*
X163038248Y-87345500D01*
X163038249Y-87345500D01*
X163152743Y-87303828D01*
X163246079Y-87225509D01*
X163287241Y-87154214D01*
X163306999Y-87119993D01*
X163306999Y-87119992D01*
X163307000Y-87119991D01*
X163328158Y-87000000D01*
X163307000Y-86880009D01*
X163306999Y-86880007D01*
X163306999Y-86880006D01*
X163246080Y-86774492D01*
X163223396Y-86755458D01*
X163152743Y-86696172D01*
X163038249Y-86654500D01*
X162916407Y-86654500D01*
X162861487Y-86674489D01*
X162801912Y-86696172D01*
X162708575Y-86774492D01*
X162647656Y-86880006D01*
X162626498Y-87000000D01*
X161789995Y-87000000D01*
X161545454Y-86755458D01*
X161482788Y-86729500D01*
X161482787Y-86729500D01*
X161406129Y-86729500D01*
X161371481Y-86715148D01*
X161363694Y-86705000D01*
X161346080Y-86674492D01*
X161346078Y-86674489D01*
X161252743Y-86596172D01*
X161225045Y-86586091D01*
X161138249Y-86554500D01*
X161016407Y-86554500D01*
X160967144Y-86572430D01*
X160901912Y-86596172D01*
X160808575Y-86674492D01*
X160747656Y-86780006D01*
X160726498Y-86900000D01*
X160747656Y-87019993D01*
X160808575Y-87125507D01*
X160808576Y-87125508D01*
X160808577Y-87125509D01*
X160901913Y-87203828D01*
X161016407Y-87245500D01*
X161016408Y-87245500D01*
X161138248Y-87245500D01*
X161138249Y-87245500D01*
X161252743Y-87203828D01*
X161346079Y-87125509D01*
X161346079Y-87125508D01*
X161348834Y-87122226D01*
X161349574Y-87122847D01*
X161375807Y-87102713D01*
X161412989Y-87107604D01*
X161423143Y-87115394D01*
X161480966Y-87173217D01*
X161495318Y-87207865D01*
X161480966Y-87242513D01*
X161463077Y-87253910D01*
X161401912Y-87276172D01*
X161308575Y-87354492D01*
X161247656Y-87460006D01*
X161226498Y-87580000D01*
X161247656Y-87699993D01*
X161308575Y-87805507D01*
X161308576Y-87805508D01*
X161308577Y-87805509D01*
X161401913Y-87883828D01*
X161516407Y-87925500D01*
X161516408Y-87925500D01*
X161638247Y-87925500D01*
X161638249Y-87925500D01*
X161640776Y-87924580D01*
X161678241Y-87926215D01*
X161692182Y-87935977D01*
X161915148Y-88158943D01*
X161929500Y-88193591D01*
X161929500Y-88919408D01*
X161915148Y-88954056D01*
X161880500Y-88968408D01*
X161849003Y-88956944D01*
X161752743Y-88876172D01*
X161707368Y-88859657D01*
X161638249Y-88834500D01*
X161516407Y-88834500D01*
X161486877Y-88845248D01*
X161401912Y-88876172D01*
X161328325Y-88937920D01*
X161292558Y-88949198D01*
X161259292Y-88931881D01*
X161247828Y-88900384D01*
X161247828Y-88830800D01*
X161262180Y-88796152D01*
X161265314Y-88793279D01*
X161346079Y-88725509D01*
X161400292Y-88631609D01*
X161406999Y-88619993D01*
X161406999Y-88619992D01*
X161407000Y-88619991D01*
X161428158Y-88500000D01*
X161407000Y-88380009D01*
X161406999Y-88380007D01*
X161406999Y-88380006D01*
X161346080Y-88274492D01*
X161330544Y-88261456D01*
X161252743Y-88196172D01*
X161138249Y-88154500D01*
X161016407Y-88154500D01*
X160964768Y-88173295D01*
X160901912Y-88196172D01*
X160808575Y-88274492D01*
X160747656Y-88380006D01*
X160726498Y-88500000D01*
X160747656Y-88619993D01*
X160808575Y-88725507D01*
X160808576Y-88725508D01*
X160808577Y-88725509D01*
X160889326Y-88793266D01*
X160906642Y-88826529D01*
X160906828Y-88830800D01*
X160906828Y-89265460D01*
X160917580Y-89291417D01*
X160932785Y-89328124D01*
X160932786Y-89328125D01*
X160932787Y-89328127D01*
X161319201Y-89714541D01*
X161319202Y-89714541D01*
X161319204Y-89714543D01*
X161381869Y-89740500D01*
X161449699Y-89740500D01*
X161469010Y-89740500D01*
X161503658Y-89754852D01*
X161544658Y-89795852D01*
X161559010Y-89830500D01*
X161544658Y-89865148D01*
X161510010Y-89879500D01*
X159540920Y-89879500D01*
X159506272Y-89865148D01*
X159252422Y-89611298D01*
X159238070Y-89576650D01*
X159238814Y-89568141D01*
X159250830Y-89500000D01*
X159229672Y-89380009D01*
X159229671Y-89380007D01*
X159229671Y-89380006D01*
X159168752Y-89274492D01*
X159075415Y-89196172D01*
X159027762Y-89178828D01*
X158960921Y-89154500D01*
X158839079Y-89154500D01*
X158799210Y-89169011D01*
X158724584Y-89196172D01*
X158631247Y-89274492D01*
X158570328Y-89380006D01*
X158549170Y-89500000D01*
X158570328Y-89619993D01*
X158631247Y-89725507D01*
X158631248Y-89725508D01*
X158631249Y-89725509D01*
X158724585Y-89803828D01*
X158839079Y-89845500D01*
X158839080Y-89845500D01*
X158960919Y-89845500D01*
X158960921Y-89845500D01*
X158963442Y-89844582D01*
X159000908Y-89846213D01*
X159014853Y-89855977D01*
X159353415Y-90194540D01*
X159353417Y-90194541D01*
X159353419Y-90194543D01*
X159366590Y-90199998D01*
X159366593Y-90200001D01*
X159366594Y-90200000D01*
X159416085Y-90220500D01*
X159427550Y-90220500D01*
X159462198Y-90234852D01*
X159476550Y-90269500D01*
X159469985Y-90294000D01*
X159420328Y-90380006D01*
X159399170Y-90500000D01*
X159420328Y-90619992D01*
X159435344Y-90645999D01*
X159440240Y-90683181D01*
X159417410Y-90712935D01*
X159392909Y-90719500D01*
X159200919Y-90719500D01*
X159166271Y-90705148D01*
X158572422Y-90111299D01*
X158558070Y-90076651D01*
X158558814Y-90068142D01*
X158559154Y-90066216D01*
X158570830Y-90000000D01*
X158549672Y-89880009D01*
X158549671Y-89880007D01*
X158549671Y-89880006D01*
X158488752Y-89774492D01*
X158483993Y-89770499D01*
X158395415Y-89696172D01*
X158280921Y-89654500D01*
X158159079Y-89654500D01*
X158128733Y-89665545D01*
X158044584Y-89696172D01*
X157951247Y-89774492D01*
X157890328Y-89880006D01*
X157869170Y-90000000D01*
X149970500Y-90000000D01*
X149970500Y-83750000D01*
X158399170Y-83750000D01*
X158420328Y-83869993D01*
X158481247Y-83975507D01*
X158481248Y-83975508D01*
X158481249Y-83975509D01*
X158574585Y-84053828D01*
X158689079Y-84095500D01*
X158689080Y-84095500D01*
X158810920Y-84095500D01*
X158810921Y-84095500D01*
X158925415Y-84053828D01*
X159018751Y-83975509D01*
X159062574Y-83899605D01*
X159079671Y-83869993D01*
X159079671Y-83869992D01*
X159079672Y-83869991D01*
X159100830Y-83750000D01*
X159079672Y-83630009D01*
X159079671Y-83630007D01*
X159079671Y-83630006D01*
X159018752Y-83524492D01*
X159016380Y-83522502D01*
X158925415Y-83446172D01*
X158810921Y-83404500D01*
X158689079Y-83404500D01*
X158631832Y-83425336D01*
X158574584Y-83446172D01*
X158481247Y-83524492D01*
X158420328Y-83630006D01*
X158399170Y-83750000D01*
X149970500Y-83750000D01*
X149970500Y-83695608D01*
X149977065Y-83671108D01*
X149979585Y-83666744D01*
X150029672Y-83579991D01*
X150050830Y-83460000D01*
X150029672Y-83340009D01*
X150029671Y-83340007D01*
X150029671Y-83340006D01*
X149968752Y-83234492D01*
X149963409Y-83230009D01*
X149953548Y-83221734D01*
X149888003Y-83166734D01*
X149870686Y-83133468D01*
X149870500Y-83129198D01*
X149870500Y-82950000D01*
X158399170Y-82950000D01*
X158420328Y-83069993D01*
X158481247Y-83175507D01*
X158481248Y-83175508D01*
X158481249Y-83175509D01*
X158574585Y-83253828D01*
X158689079Y-83295500D01*
X158689080Y-83295500D01*
X158810920Y-83295500D01*
X158810921Y-83295500D01*
X158925415Y-83253828D01*
X159018751Y-83175509D01*
X159076780Y-83075000D01*
X159079671Y-83069993D01*
X159079671Y-83069992D01*
X159079672Y-83069991D01*
X159100830Y-82950000D01*
X159079672Y-82830009D01*
X159079671Y-82830007D01*
X159079671Y-82830006D01*
X159018752Y-82724492D01*
X158986583Y-82697499D01*
X158925415Y-82646172D01*
X158810921Y-82604500D01*
X158689079Y-82604500D01*
X158643553Y-82621070D01*
X158574584Y-82646172D01*
X158481247Y-82724492D01*
X158420328Y-82830006D01*
X158399170Y-82950000D01*
X149870500Y-82950000D01*
X149870500Y-82490918D01*
X149884851Y-82456271D01*
X150216122Y-82125000D01*
X155849170Y-82125000D01*
X155870328Y-82244993D01*
X155931247Y-82350507D01*
X155931248Y-82350508D01*
X155931249Y-82350509D01*
X156024585Y-82428828D01*
X156139079Y-82470500D01*
X156139080Y-82470500D01*
X156260920Y-82470500D01*
X156260921Y-82470500D01*
X156375415Y-82428828D01*
X156468751Y-82350509D01*
X156523629Y-82255458D01*
X156529671Y-82244993D01*
X156529671Y-82244992D01*
X156529672Y-82244991D01*
X156537634Y-82199831D01*
X156557785Y-82168204D01*
X156594399Y-82160086D01*
X156626028Y-82180237D01*
X156628325Y-82183842D01*
X156681247Y-82275507D01*
X156681248Y-82275508D01*
X156681249Y-82275509D01*
X156774585Y-82353828D01*
X156889079Y-82395500D01*
X156889080Y-82395500D01*
X157010920Y-82395500D01*
X157010921Y-82395500D01*
X157125415Y-82353828D01*
X157218751Y-82275509D01*
X157271675Y-82183842D01*
X157279671Y-82169993D01*
X157279671Y-82169992D01*
X157279672Y-82169991D01*
X157300830Y-82050000D01*
X157279672Y-81930009D01*
X157279671Y-81930007D01*
X157279671Y-81930006D01*
X157218752Y-81824492D01*
X157214795Y-81821172D01*
X157125415Y-81746172D01*
X157010921Y-81704500D01*
X156889079Y-81704500D01*
X156831832Y-81725336D01*
X156774584Y-81746172D01*
X156681247Y-81824492D01*
X156620327Y-81930009D01*
X156612364Y-81975167D01*
X156592213Y-82006796D01*
X156555599Y-82014912D01*
X156523970Y-81994761D01*
X156521679Y-81991165D01*
X156468751Y-81899491D01*
X156375415Y-81821172D01*
X156260921Y-81779500D01*
X156139079Y-81779500D01*
X156095119Y-81795500D01*
X156024584Y-81821172D01*
X155931247Y-81899492D01*
X155870328Y-82005006D01*
X155849170Y-82125000D01*
X150216122Y-82125000D01*
X150550061Y-81791060D01*
X150557493Y-81784963D01*
X150558114Y-81784546D01*
X150558124Y-81784543D01*
X150834544Y-81508124D01*
X150834547Y-81508114D01*
X150834968Y-81507488D01*
X150841065Y-81500056D01*
X151091121Y-81250000D01*
X161749170Y-81250000D01*
X161770328Y-81369993D01*
X161831247Y-81475507D01*
X161831248Y-81475508D01*
X161831249Y-81475509D01*
X161924585Y-81553828D01*
X162039079Y-81595500D01*
X162039080Y-81595500D01*
X162160920Y-81595500D01*
X162160921Y-81595500D01*
X162275415Y-81553828D01*
X162301471Y-81531964D01*
X162332968Y-81520500D01*
X169917659Y-81520500D01*
X169952307Y-81534852D01*
X171845033Y-83427578D01*
X171858640Y-83453716D01*
X171870327Y-83519990D01*
X171870328Y-83519993D01*
X171931247Y-83625507D01*
X171931248Y-83625508D01*
X171931249Y-83625509D01*
X172024585Y-83703828D01*
X172139079Y-83745500D01*
X172139080Y-83745500D01*
X172260920Y-83745500D01*
X172260921Y-83745500D01*
X172375415Y-83703828D01*
X172468751Y-83625509D01*
X172512346Y-83550000D01*
X172529671Y-83519993D01*
X172529671Y-83519992D01*
X172529672Y-83519991D01*
X172550830Y-83400000D01*
X172529672Y-83280009D01*
X172529671Y-83280007D01*
X172529671Y-83280006D01*
X172468752Y-83174492D01*
X172468748Y-83174489D01*
X172375415Y-83096172D01*
X172260921Y-83054500D01*
X172260920Y-83054500D01*
X172257341Y-83054500D01*
X172222693Y-83040148D01*
X170203228Y-81020682D01*
X170203226Y-81020681D01*
X170158733Y-81002252D01*
X170103807Y-80979500D01*
X170103806Y-80979500D01*
X162332968Y-80979500D01*
X162301471Y-80968036D01*
X162275415Y-80946172D01*
X162249272Y-80936657D01*
X162160921Y-80904500D01*
X162039079Y-80904500D01*
X161981832Y-80925336D01*
X161924584Y-80946172D01*
X161831247Y-81024492D01*
X161770328Y-81130006D01*
X161749170Y-81250000D01*
X151091121Y-81250000D01*
X152016122Y-80325000D01*
X155799170Y-80325000D01*
X155820328Y-80444993D01*
X155881247Y-80550507D01*
X155881248Y-80550508D01*
X155881249Y-80550509D01*
X155974585Y-80628828D01*
X156089079Y-80670500D01*
X156089080Y-80670500D01*
X156210920Y-80670500D01*
X156210921Y-80670500D01*
X156325415Y-80628828D01*
X156418751Y-80550509D01*
X156465682Y-80469219D01*
X156473461Y-80459082D01*
X156580120Y-80352423D01*
X156614767Y-80338072D01*
X156649415Y-80352424D01*
X156663022Y-80378563D01*
X156670327Y-80419990D01*
X156731247Y-80525507D01*
X156731248Y-80525508D01*
X156731249Y-80525509D01*
X156824585Y-80603828D01*
X156939079Y-80645500D01*
X156939080Y-80645500D01*
X157060920Y-80645500D01*
X157060921Y-80645500D01*
X157175415Y-80603828D01*
X157268751Y-80525509D01*
X157329672Y-80419991D01*
X157350830Y-80300000D01*
X157329672Y-80180009D01*
X157308881Y-80143999D01*
X157303987Y-80106818D01*
X157326817Y-80077065D01*
X157351317Y-80070500D01*
X170517659Y-80070500D01*
X170552307Y-80084852D01*
X173845033Y-83377578D01*
X173858640Y-83403716D01*
X173870327Y-83469990D01*
X173870328Y-83469993D01*
X173931247Y-83575507D01*
X173931248Y-83575508D01*
X173931249Y-83575509D01*
X174024585Y-83653828D01*
X174139079Y-83695500D01*
X174139080Y-83695500D01*
X174260920Y-83695500D01*
X174260921Y-83695500D01*
X174292926Y-83683851D01*
X174330392Y-83685487D01*
X174355729Y-83713137D01*
X174354093Y-83750604D01*
X174344332Y-83764544D01*
X173743729Y-84365148D01*
X173709081Y-84379500D01*
X173328801Y-84379500D01*
X173294153Y-84365148D01*
X173286366Y-84355000D01*
X173268752Y-84324492D01*
X173268750Y-84324489D01*
X173175415Y-84246172D01*
X173168423Y-84243627D01*
X173060921Y-84204500D01*
X172939079Y-84204500D01*
X172885357Y-84224053D01*
X172824584Y-84246172D01*
X172731247Y-84324492D01*
X172670328Y-84430006D01*
X172649170Y-84550000D01*
X172670328Y-84669993D01*
X172731247Y-84775507D01*
X172731248Y-84775508D01*
X172731249Y-84775509D01*
X172824585Y-84853828D01*
X172939079Y-84895500D01*
X172939080Y-84895500D01*
X173060920Y-84895500D01*
X173060921Y-84895500D01*
X173175415Y-84853828D01*
X173268751Y-84775509D01*
X173286366Y-84745000D01*
X173316119Y-84722170D01*
X173328801Y-84720500D01*
X173833913Y-84720500D01*
X173833915Y-84720500D01*
X173896580Y-84694543D01*
X174224638Y-84366485D01*
X174259286Y-84352133D01*
X174293934Y-84366485D01*
X174308286Y-84401133D01*
X174301721Y-84425633D01*
X174270328Y-84480006D01*
X174249170Y-84600000D01*
X174270328Y-84719993D01*
X174331247Y-84825507D01*
X174331248Y-84825508D01*
X174331249Y-84825509D01*
X174424585Y-84903828D01*
X174491565Y-84928206D01*
X174519215Y-84953542D01*
X174520851Y-84991010D01*
X174517241Y-84998751D01*
X174470328Y-85080006D01*
X174449170Y-85200000D01*
X174470328Y-85319993D01*
X174531247Y-85425507D01*
X174531248Y-85425508D01*
X174531249Y-85425509D01*
X174624585Y-85503828D01*
X174739079Y-85545500D01*
X174739080Y-85545500D01*
X174860920Y-85545500D01*
X174860921Y-85545500D01*
X174975415Y-85503828D01*
X175029621Y-85458343D01*
X175061059Y-85431964D01*
X175092556Y-85420500D01*
X176243858Y-85420500D01*
X176243860Y-85420500D01*
X176324903Y-85386931D01*
X177206634Y-84505198D01*
X177241281Y-84490847D01*
X177272776Y-84502310D01*
X177274585Y-84503828D01*
X177389079Y-84545500D01*
X177389080Y-84545500D01*
X177510920Y-84545500D01*
X177510921Y-84545500D01*
X177625415Y-84503828D01*
X177718751Y-84425509D01*
X177758649Y-84356404D01*
X177779671Y-84319993D01*
X177779671Y-84319992D01*
X177779672Y-84319991D01*
X177800830Y-84200000D01*
X177779672Y-84080009D01*
X177779372Y-84079490D01*
X177764656Y-84054001D01*
X177759760Y-84016819D01*
X177782590Y-83987065D01*
X177807091Y-83980500D01*
X178898370Y-83980500D01*
X178933018Y-83994852D01*
X178936978Y-83998812D01*
X178951330Y-84033460D01*
X178950586Y-84041966D01*
X178949963Y-84045500D01*
X178949170Y-84050000D01*
X178955647Y-84086731D01*
X178970328Y-84169993D01*
X179031247Y-84275507D01*
X179031248Y-84275508D01*
X179031249Y-84275509D01*
X179124585Y-84353828D01*
X179239079Y-84395500D01*
X179239080Y-84395500D01*
X179360920Y-84395500D01*
X179360921Y-84395500D01*
X179475415Y-84353828D01*
X179568751Y-84275509D01*
X179619269Y-84188009D01*
X179629671Y-84169993D01*
X179629671Y-84169992D01*
X179629672Y-84169991D01*
X179650830Y-84050000D01*
X179629672Y-83930009D01*
X179629671Y-83930007D01*
X179629671Y-83930006D01*
X179626569Y-83924634D01*
X179621674Y-83887452D01*
X179644504Y-83857699D01*
X179681686Y-83852804D01*
X179703652Y-83865486D01*
X180963069Y-85124903D01*
X181025094Y-85186929D01*
X181025095Y-85186929D01*
X181025097Y-85186931D01*
X181106140Y-85220500D01*
X185510448Y-85220500D01*
X185541795Y-85231838D01*
X185590576Y-85272442D01*
X185590579Y-85272444D01*
X185606340Y-85283626D01*
X185606348Y-85283631D01*
X185807178Y-85403990D01*
X185807187Y-85403994D01*
X185807188Y-85403995D01*
X185824494Y-85412630D01*
X185824502Y-85412633D01*
X185824506Y-85412635D01*
X185921659Y-85452076D01*
X186041441Y-85500705D01*
X186059868Y-85506577D01*
X186196051Y-85538663D01*
X186287761Y-85560271D01*
X186287764Y-85560271D01*
X186287771Y-85560273D01*
X186306882Y-85563245D01*
X186490084Y-85577403D01*
X186540327Y-85581287D01*
X186540330Y-85581287D01*
X186559673Y-85581287D01*
X186603611Y-85577891D01*
X186793118Y-85563245D01*
X186812229Y-85560273D01*
X186812236Y-85560271D01*
X186812238Y-85560271D01*
X186874930Y-85545500D01*
X187040132Y-85506577D01*
X187058559Y-85500705D01*
X187275506Y-85412630D01*
X187292812Y-85403995D01*
X187292817Y-85403991D01*
X187292821Y-85403990D01*
X187455097Y-85306737D01*
X187493650Y-85283632D01*
X187493654Y-85283628D01*
X187493659Y-85283626D01*
X187502529Y-85277333D01*
X187509424Y-85272442D01*
X187689384Y-85122650D01*
X187703251Y-85109168D01*
X187858059Y-84933504D01*
X187869690Y-84918052D01*
X187995669Y-84720688D01*
X188004788Y-84703632D01*
X188075428Y-84542800D01*
X188098945Y-84489258D01*
X188105321Y-84471059D01*
X188117442Y-84425507D01*
X188130724Y-84375595D01*
X188132809Y-84369440D01*
X188133444Y-84367909D01*
X188135135Y-84359404D01*
X188135832Y-84356403D01*
X188138792Y-84345255D01*
X188138794Y-84345256D01*
X188142322Y-84331974D01*
X188142313Y-84328256D01*
X188142897Y-84322287D01*
X188142764Y-84322274D01*
X188143000Y-84319877D01*
X188143000Y-84280097D01*
X188142763Y-84277694D01*
X188142826Y-84277687D01*
X188142187Y-84271290D01*
X188142179Y-84267003D01*
X188138651Y-84253953D01*
X188135859Y-84243627D01*
X188135109Y-84240429D01*
X188133445Y-84232061D01*
X188132596Y-84230011D01*
X188130570Y-84224064D01*
X188128195Y-84215275D01*
X188121942Y-84204500D01*
X188101917Y-84169991D01*
X188095587Y-84159082D01*
X188076561Y-84140140D01*
X188076516Y-84140032D01*
X188076485Y-84140064D01*
X188061603Y-84125181D01*
X188060867Y-84124516D01*
X188057620Y-84121283D01*
X188040519Y-84111459D01*
X188037792Y-84109771D01*
X188021705Y-84099068D01*
X188015123Y-84096373D01*
X188009288Y-84093518D01*
X188001276Y-84088915D01*
X188001273Y-84088914D01*
X187993056Y-84086732D01*
X187986887Y-84084646D01*
X187985424Y-84084040D01*
X187985419Y-84084038D01*
X187976949Y-84082353D01*
X187973935Y-84081654D01*
X187949486Y-84075160D01*
X187945769Y-84075169D01*
X187939802Y-84074588D01*
X187939790Y-84074720D01*
X187937394Y-84074484D01*
X187937391Y-84074484D01*
X187930556Y-84074484D01*
X187904221Y-84074484D01*
X187289500Y-84074484D01*
X187254852Y-84060132D01*
X187240500Y-84025484D01*
X187240500Y-84004000D01*
X187254852Y-83969352D01*
X187289500Y-83955000D01*
X187937392Y-83955000D01*
X187941088Y-83954264D01*
X187950771Y-83953320D01*
X187957058Y-83953334D01*
X187969868Y-83949932D01*
X187969895Y-83949935D01*
X187986564Y-83945499D01*
X187986582Y-83945494D01*
X187989295Y-83944773D01*
X187992336Y-83944067D01*
X187996721Y-83943196D01*
X187997543Y-83942946D01*
X188002557Y-83941249D01*
X188008804Y-83939591D01*
X188008866Y-83939574D01*
X188015275Y-83935892D01*
X188021121Y-83933031D01*
X188032886Y-83928213D01*
X188058422Y-83911224D01*
X188061155Y-83909532D01*
X188078433Y-83899605D01*
X188078436Y-83899603D01*
X188081690Y-83896363D01*
X188082417Y-83895707D01*
X188097464Y-83880658D01*
X188097577Y-83880610D01*
X188097546Y-83880579D01*
X188116354Y-83861854D01*
X188116401Y-83861806D01*
X188116406Y-83861800D01*
X188156672Y-83792406D01*
X188158548Y-83785465D01*
X188160591Y-83779471D01*
X188160699Y-83779210D01*
X188161380Y-83775785D01*
X188162956Y-83769838D01*
X188165182Y-83763159D01*
X188165221Y-83760785D01*
X188170655Y-83740684D01*
X188170658Y-83740672D01*
X188170658Y-83740670D01*
X188170673Y-83733794D01*
X188171616Y-83724329D01*
X188172500Y-83719888D01*
X188172500Y-83680107D01*
X188171763Y-83676408D01*
X188170818Y-83666720D01*
X188170832Y-83660434D01*
X188167446Y-83647687D01*
X188167447Y-83647678D01*
X188165169Y-83639114D01*
X188165165Y-83639099D01*
X188162279Y-83628236D01*
X188161578Y-83625213D01*
X188160698Y-83620789D01*
X188160513Y-83620180D01*
X188158730Y-83614911D01*
X188133826Y-83521331D01*
X188125961Y-83498881D01*
X188125954Y-83498861D01*
X188031797Y-83284489D01*
X188031796Y-83284485D01*
X188020542Y-83263437D01*
X188020532Y-83263420D01*
X187900262Y-83075000D01*
X185199738Y-83075000D01*
X185079467Y-83263420D01*
X185079457Y-83263437D01*
X185068203Y-83284485D01*
X185068202Y-83284489D01*
X184974045Y-83498861D01*
X184974038Y-83498881D01*
X184966172Y-83521331D01*
X184941266Y-83614920D01*
X184939481Y-83620196D01*
X184939303Y-83620783D01*
X184938417Y-83625234D01*
X184937717Y-83628246D01*
X184929362Y-83659697D01*
X184929177Y-83660348D01*
X184929163Y-83660446D01*
X184929177Y-83666744D01*
X184928236Y-83676403D01*
X184927500Y-83680100D01*
X184927500Y-83719887D01*
X184928387Y-83724349D01*
X184929327Y-83733787D01*
X184929343Y-83740678D01*
X184929343Y-83740681D01*
X184937585Y-83771164D01*
X184938340Y-83774385D01*
X184939301Y-83779212D01*
X184939303Y-83779220D01*
X184939420Y-83779502D01*
X184941444Y-83785445D01*
X184942543Y-83789508D01*
X184942868Y-83791086D01*
X184943328Y-83792413D01*
X184983602Y-83861810D01*
X184983602Y-83861811D01*
X185002454Y-83880579D01*
X185002422Y-83880610D01*
X185002531Y-83880655D01*
X185002533Y-83880657D01*
X185017557Y-83895683D01*
X185018303Y-83896356D01*
X185021569Y-83899609D01*
X185021577Y-83899617D01*
X185038866Y-83909547D01*
X185041604Y-83911242D01*
X185067112Y-83928212D01*
X185078907Y-83933043D01*
X185084744Y-83935899D01*
X185091150Y-83939578D01*
X185091156Y-83939581D01*
X185097460Y-83941255D01*
X185102474Y-83942951D01*
X185103284Y-83943197D01*
X185107687Y-83944073D01*
X185110702Y-83944772D01*
X185111761Y-83945053D01*
X185111787Y-83945060D01*
X185130104Y-83949931D01*
X185130280Y-83949972D01*
X185142940Y-83953334D01*
X185149226Y-83953320D01*
X185158911Y-83954263D01*
X185162612Y-83955000D01*
X185810500Y-83955000D01*
X185845148Y-83969352D01*
X185859500Y-84004000D01*
X185859500Y-84025484D01*
X185845148Y-84060132D01*
X185810500Y-84074484D01*
X185162609Y-84074484D01*
X185160213Y-84074720D01*
X185160199Y-84074587D01*
X185154232Y-84075169D01*
X185150514Y-84075160D01*
X185126055Y-84081656D01*
X185123047Y-84082354D01*
X185114576Y-84084040D01*
X185114569Y-84084042D01*
X185113099Y-84084651D01*
X185106948Y-84086731D01*
X185098718Y-84088917D01*
X185090703Y-84093521D01*
X185084877Y-84096372D01*
X185078292Y-84099069D01*
X185062207Y-84109770D01*
X185059478Y-84111459D01*
X185042384Y-84121279D01*
X185042378Y-84121284D01*
X185039127Y-84124522D01*
X185038378Y-84125199D01*
X185023515Y-84140064D01*
X185023438Y-84140142D01*
X185004412Y-84159083D01*
X184971804Y-84215276D01*
X184971803Y-84215277D01*
X184969428Y-84224064D01*
X184967403Y-84230011D01*
X184966558Y-84232051D01*
X184966554Y-84232065D01*
X184964892Y-84240415D01*
X184964138Y-84243633D01*
X184957820Y-84267005D01*
X184957811Y-84271298D01*
X184957174Y-84277692D01*
X184957236Y-84277699D01*
X184957000Y-84280094D01*
X184957000Y-84319879D01*
X184957235Y-84322267D01*
X184957105Y-84322279D01*
X184957685Y-84328245D01*
X184957677Y-84331969D01*
X184957677Y-84331972D01*
X184964167Y-84356404D01*
X184964867Y-84359419D01*
X184966557Y-84367915D01*
X184967193Y-84369449D01*
X184969275Y-84375599D01*
X184994677Y-84471054D01*
X184994678Y-84471057D01*
X185001053Y-84489254D01*
X185095211Y-84703630D01*
X185097226Y-84707399D01*
X185100904Y-84744721D01*
X185077114Y-84773713D01*
X185054013Y-84779500D01*
X181261630Y-84779500D01*
X181226982Y-84765148D01*
X180011834Y-83550000D01*
X181104170Y-83550000D01*
X181125328Y-83669993D01*
X181186247Y-83775507D01*
X181186248Y-83775508D01*
X181186249Y-83775509D01*
X181279585Y-83853828D01*
X181394079Y-83895500D01*
X181394080Y-83895500D01*
X181515920Y-83895500D01*
X181515921Y-83895500D01*
X181630415Y-83853828D01*
X181723751Y-83775509D01*
X181784672Y-83669991D01*
X181805830Y-83550000D01*
X181784672Y-83430009D01*
X181784671Y-83430007D01*
X181784671Y-83430006D01*
X181723752Y-83324492D01*
X181704188Y-83308076D01*
X181630415Y-83246172D01*
X181515921Y-83204500D01*
X181394079Y-83204500D01*
X181336832Y-83225336D01*
X181279584Y-83246172D01*
X181186247Y-83324492D01*
X181125328Y-83430006D01*
X181104170Y-83550000D01*
X180011834Y-83550000D01*
X179663021Y-83201187D01*
X179648669Y-83166539D01*
X179649414Y-83158027D01*
X179650830Y-83150000D01*
X179631809Y-83042130D01*
X182384500Y-83042130D01*
X182384500Y-83177869D01*
X182419629Y-83308971D01*
X182419631Y-83308977D01*
X182465547Y-83388504D01*
X182487498Y-83426524D01*
X182583476Y-83522502D01*
X182626500Y-83547342D01*
X182701022Y-83590368D01*
X182701028Y-83590370D01*
X182832130Y-83625500D01*
X182832133Y-83625500D01*
X182967869Y-83625500D01*
X183098971Y-83590370D01*
X183098969Y-83590370D01*
X183098975Y-83590369D01*
X183216524Y-83522502D01*
X183312502Y-83426524D01*
X183380369Y-83308975D01*
X183388131Y-83280006D01*
X183415500Y-83177869D01*
X183415500Y-83042130D01*
X183384114Y-82925000D01*
X185327301Y-82925000D01*
X186475000Y-82925000D01*
X186475000Y-82389098D01*
X186463378Y-82363842D01*
X186475000Y-82332409D01*
X186475000Y-81980000D01*
X186625000Y-81980000D01*
X186625000Y-82333811D01*
X186636657Y-82361953D01*
X186625000Y-82390094D01*
X186625000Y-82925000D01*
X187772698Y-82925000D01*
X187725383Y-82871311D01*
X187725377Y-82871305D01*
X187708267Y-82854671D01*
X187708254Y-82854659D01*
X187528296Y-82704870D01*
X187508825Y-82691055D01*
X187508819Y-82691051D01*
X187307980Y-82570687D01*
X187286599Y-82560019D01*
X187069655Y-82471945D01*
X187046902Y-82464695D01*
X187046885Y-82464690D01*
X186885618Y-82426694D01*
X186855184Y-82404779D01*
X186849161Y-82367763D01*
X186871076Y-82337329D01*
X186896855Y-82330000D01*
X186914016Y-82330000D01*
X187039595Y-82305021D01*
X187039601Y-82305019D01*
X187157886Y-82256023D01*
X187264351Y-82184887D01*
X187354887Y-82094351D01*
X187426023Y-81987886D01*
X187475019Y-81869601D01*
X187475023Y-81869586D01*
X187497816Y-81755000D01*
X187140487Y-81755000D01*
X187150000Y-81719496D01*
X187150000Y-81640504D01*
X187140487Y-81605000D01*
X187497816Y-81605000D01*
X187497816Y-81604999D01*
X187475023Y-81490413D01*
X187475019Y-81490398D01*
X187426023Y-81372113D01*
X187354887Y-81265648D01*
X187264351Y-81175112D01*
X187157886Y-81103976D01*
X187039601Y-81054980D01*
X187039595Y-81054978D01*
X186914016Y-81030000D01*
X186625000Y-81030000D01*
X186625000Y-81380000D01*
X186475000Y-81380000D01*
X186475000Y-81030000D01*
X186185984Y-81030000D01*
X186060404Y-81054978D01*
X186060398Y-81054980D01*
X185942113Y-81103976D01*
X185835648Y-81175112D01*
X185745112Y-81265648D01*
X185673976Y-81372113D01*
X185624980Y-81490398D01*
X185624976Y-81490413D01*
X185602183Y-81604999D01*
X185602184Y-81605000D01*
X185959513Y-81605000D01*
X185950000Y-81640504D01*
X185950000Y-81719496D01*
X185959513Y-81755000D01*
X185602183Y-81755000D01*
X185624976Y-81869586D01*
X185624980Y-81869601D01*
X185673976Y-81987886D01*
X185745112Y-82094351D01*
X185835648Y-82184887D01*
X185942113Y-82256023D01*
X186060398Y-82305019D01*
X186060404Y-82305021D01*
X186185984Y-82330000D01*
X186203145Y-82330000D01*
X186237793Y-82344352D01*
X186252145Y-82379000D01*
X186237793Y-82413648D01*
X186214382Y-82426694D01*
X186053114Y-82464690D01*
X186053097Y-82464695D01*
X186030344Y-82471945D01*
X185813400Y-82560019D01*
X185792019Y-82570687D01*
X185591180Y-82691051D01*
X185591174Y-82691055D01*
X185571703Y-82704870D01*
X185391745Y-82854659D01*
X185391732Y-82854671D01*
X185374622Y-82871305D01*
X185374616Y-82871311D01*
X185327301Y-82925000D01*
X183384114Y-82925000D01*
X183380370Y-82911028D01*
X183380368Y-82911022D01*
X183325979Y-82816819D01*
X183312502Y-82793476D01*
X183216524Y-82697498D01*
X183098977Y-82629631D01*
X183098971Y-82629629D01*
X182967870Y-82594500D01*
X182967867Y-82594500D01*
X182832133Y-82594500D01*
X182832130Y-82594500D01*
X182701028Y-82629629D01*
X182701022Y-82629631D01*
X182583475Y-82697498D01*
X182583475Y-82697499D01*
X182487499Y-82793475D01*
X182487498Y-82793475D01*
X182419631Y-82911022D01*
X182419629Y-82911028D01*
X182384500Y-83042130D01*
X179631809Y-83042130D01*
X179629672Y-83030009D01*
X179629671Y-83030007D01*
X179629671Y-83030006D01*
X179568752Y-82924492D01*
X179552706Y-82911028D01*
X179475415Y-82846172D01*
X179360921Y-82804500D01*
X179239079Y-82804500D01*
X179181832Y-82825336D01*
X179124584Y-82846172D01*
X179031247Y-82924492D01*
X178970328Y-83030006D01*
X178949170Y-83150000D01*
X178970328Y-83269993D01*
X179031247Y-83375507D01*
X179031248Y-83375508D01*
X179031249Y-83375509D01*
X179124585Y-83453828D01*
X179239079Y-83495500D01*
X179313370Y-83495500D01*
X179348018Y-83509852D01*
X179490382Y-83652216D01*
X179504734Y-83686864D01*
X179490382Y-83721512D01*
X179455734Y-83735864D01*
X179438975Y-83732909D01*
X179415401Y-83724329D01*
X179360921Y-83704500D01*
X179360920Y-83704500D01*
X179286630Y-83704500D01*
X179251982Y-83690148D01*
X179134905Y-83573070D01*
X179053861Y-83539500D01*
X179053860Y-83539500D01*
X177259596Y-83539500D01*
X177171875Y-83539500D01*
X177171873Y-83539500D01*
X177138738Y-83553226D01*
X177090832Y-83573069D01*
X177090832Y-83573070D01*
X176357359Y-84306541D01*
X176322711Y-84320893D01*
X176291214Y-84309429D01*
X176275415Y-84296172D01*
X176272602Y-84295148D01*
X176160921Y-84254500D01*
X176039079Y-84254500D01*
X175981832Y-84275336D01*
X175924584Y-84296172D01*
X175831247Y-84374492D01*
X175770328Y-84480006D01*
X175749170Y-84600000D01*
X175770328Y-84719993D01*
X175831247Y-84825507D01*
X175831248Y-84825508D01*
X175831249Y-84825509D01*
X175864997Y-84853827D01*
X175911638Y-84892964D01*
X175928955Y-84926230D01*
X175917677Y-84961997D01*
X175884411Y-84979314D01*
X175880141Y-84979500D01*
X175092556Y-84979500D01*
X175061059Y-84968036D01*
X174975415Y-84896172D01*
X174908434Y-84871793D01*
X174880784Y-84846456D01*
X174879148Y-84808989D01*
X174882758Y-84801248D01*
X174888964Y-84790500D01*
X174929672Y-84719991D01*
X174950830Y-84600000D01*
X174929672Y-84480009D01*
X174929671Y-84480007D01*
X174929671Y-84480006D01*
X174868752Y-84374492D01*
X174857616Y-84365148D01*
X174775415Y-84296172D01*
X174660921Y-84254500D01*
X174539079Y-84254500D01*
X174494406Y-84270759D01*
X174428463Y-84294760D01*
X174390995Y-84293124D01*
X174365659Y-84265474D01*
X174367295Y-84228006D01*
X174377056Y-84214067D01*
X175116632Y-83474491D01*
X176291122Y-82300000D01*
X179499170Y-82300000D01*
X179520328Y-82419993D01*
X179581247Y-82525507D01*
X179581248Y-82525508D01*
X179581249Y-82525509D01*
X179674585Y-82603828D01*
X179789079Y-82645500D01*
X179789080Y-82645500D01*
X179910920Y-82645500D01*
X179910921Y-82645500D01*
X180025415Y-82603828D01*
X180118751Y-82525509D01*
X180179672Y-82419991D01*
X180200830Y-82300000D01*
X180179672Y-82180009D01*
X180179671Y-82180007D01*
X180179671Y-82180006D01*
X180118752Y-82074492D01*
X180025415Y-81996172D01*
X179980982Y-81980000D01*
X179910921Y-81954500D01*
X179789079Y-81954500D01*
X179775188Y-81959556D01*
X179674584Y-81996172D01*
X179581247Y-82074492D01*
X179520328Y-82180006D01*
X179499170Y-82300000D01*
X176291122Y-82300000D01*
X177349641Y-81241480D01*
X177384288Y-81227129D01*
X177418936Y-81241481D01*
X177433288Y-81276129D01*
X177426724Y-81300628D01*
X177395328Y-81355007D01*
X177374170Y-81475000D01*
X177395328Y-81594993D01*
X177456247Y-81700507D01*
X177456248Y-81700508D01*
X177456249Y-81700509D01*
X177549585Y-81778828D01*
X177664079Y-81820500D01*
X177664080Y-81820500D01*
X177785920Y-81820500D01*
X177785921Y-81820500D01*
X177900415Y-81778828D01*
X177993751Y-81700509D01*
X178048894Y-81604999D01*
X181172183Y-81604999D01*
X181172184Y-81605000D01*
X181529513Y-81605000D01*
X181520000Y-81640504D01*
X181520000Y-81719496D01*
X181529513Y-81755000D01*
X181172183Y-81755000D01*
X181194976Y-81869586D01*
X181194980Y-81869601D01*
X181243976Y-81987886D01*
X181315112Y-82094351D01*
X181405648Y-82184887D01*
X181512113Y-82256023D01*
X181630398Y-82305019D01*
X181630404Y-82305021D01*
X181755984Y-82330000D01*
X182295000Y-82330000D01*
X182295000Y-81980000D01*
X182445000Y-81980000D01*
X182445000Y-82330000D01*
X182984016Y-82330000D01*
X183109595Y-82305021D01*
X183109601Y-82305019D01*
X183227886Y-82256023D01*
X183334351Y-82184887D01*
X183424887Y-82094351D01*
X183496023Y-81987886D01*
X183545019Y-81869601D01*
X183545023Y-81869586D01*
X183567816Y-81755000D01*
X183210487Y-81755000D01*
X183220000Y-81719496D01*
X183220000Y-81640504D01*
X183210487Y-81605000D01*
X183567816Y-81605000D01*
X183567816Y-81604999D01*
X183545023Y-81490413D01*
X183545019Y-81490398D01*
X183496023Y-81372113D01*
X183424887Y-81265648D01*
X183334351Y-81175112D01*
X183227886Y-81103976D01*
X183109601Y-81054980D01*
X183109595Y-81054978D01*
X182984016Y-81030000D01*
X182445000Y-81030000D01*
X182445000Y-81380000D01*
X182295000Y-81380000D01*
X182295000Y-81030000D01*
X181755984Y-81030000D01*
X181630404Y-81054978D01*
X181630398Y-81054980D01*
X181512113Y-81103976D01*
X181405648Y-81175112D01*
X181315112Y-81265648D01*
X181243976Y-81372113D01*
X181194980Y-81490398D01*
X181194976Y-81490413D01*
X181172183Y-81604999D01*
X178048894Y-81604999D01*
X178054672Y-81594991D01*
X178075830Y-81475000D01*
X178054672Y-81355009D01*
X178054671Y-81355007D01*
X178054671Y-81355006D01*
X177993752Y-81249492D01*
X177900415Y-81171172D01*
X177785921Y-81129500D01*
X177664079Y-81129500D01*
X177553459Y-81169761D01*
X177515992Y-81168125D01*
X177490656Y-81140474D01*
X177492292Y-81103007D01*
X177502050Y-81089071D01*
X177685146Y-80905975D01*
X177719793Y-80891624D01*
X177736551Y-80894579D01*
X177739079Y-80895500D01*
X177739081Y-80895500D01*
X177860920Y-80895500D01*
X177860921Y-80895500D01*
X177975415Y-80853828D01*
X177989096Y-80842347D01*
X178024863Y-80831069D01*
X178058129Y-80848385D01*
X178069408Y-80884152D01*
X178068850Y-80888388D01*
X178049170Y-81000000D01*
X178053489Y-81024492D01*
X178070328Y-81119993D01*
X178131247Y-81225507D01*
X178131248Y-81225508D01*
X178131249Y-81225509D01*
X178224585Y-81303828D01*
X178339079Y-81345500D01*
X178339080Y-81345500D01*
X178460920Y-81345500D01*
X178460921Y-81345500D01*
X178575415Y-81303828D01*
X178668751Y-81225509D01*
X178700123Y-81171172D01*
X178729671Y-81119993D01*
X178729671Y-81119992D01*
X178729672Y-81119991D01*
X178742544Y-81046988D01*
X178762695Y-81015359D01*
X178790800Y-81006498D01*
X178912922Y-81006498D01*
X178912923Y-81006498D01*
X179027417Y-80964826D01*
X179120753Y-80886507D01*
X179181674Y-80780989D01*
X179202832Y-80660998D01*
X179181674Y-80541007D01*
X179181673Y-80541005D01*
X179181673Y-80541004D01*
X179120754Y-80435490D01*
X179027417Y-80357170D01*
X178974945Y-80338072D01*
X178912923Y-80315498D01*
X178791081Y-80315498D01*
X178737516Y-80334994D01*
X178676586Y-80357170D01*
X178583249Y-80435490D01*
X178522330Y-80541004D01*
X178509458Y-80614009D01*
X178489307Y-80645639D01*
X178461202Y-80654500D01*
X178460921Y-80654500D01*
X178339079Y-80654500D01*
X178310455Y-80664918D01*
X178224582Y-80696172D01*
X178210900Y-80707653D01*
X178175133Y-80718929D01*
X178141868Y-80701611D01*
X178130592Y-80665844D01*
X178131150Y-80661607D01*
X178131205Y-80661298D01*
X178150155Y-80553828D01*
X178150830Y-80550002D01*
X178149244Y-80541007D01*
X178129672Y-80430009D01*
X178129671Y-80430007D01*
X178129671Y-80430006D01*
X178068752Y-80324492D01*
X178058033Y-80315498D01*
X177975415Y-80246172D01*
X177860921Y-80204500D01*
X177739079Y-80204500D01*
X177737681Y-80205009D01*
X177624584Y-80246172D01*
X177531247Y-80324492D01*
X177470328Y-80430006D01*
X177449170Y-80550000D01*
X177461185Y-80618142D01*
X177453067Y-80654756D01*
X177447577Y-80661298D01*
X174616181Y-83492694D01*
X174581533Y-83507046D01*
X174546885Y-83492694D01*
X174532533Y-83458046D01*
X174533277Y-83449544D01*
X174547992Y-83366095D01*
X174550830Y-83350002D01*
X174550830Y-83350000D01*
X174529672Y-83230009D01*
X174529671Y-83230007D01*
X174529671Y-83230006D01*
X174468752Y-83124492D01*
X174463390Y-83119993D01*
X174375415Y-83046172D01*
X174260921Y-83004500D01*
X174260920Y-83004500D01*
X174257341Y-83004500D01*
X174222693Y-82990148D01*
X170803228Y-79570682D01*
X170803226Y-79570681D01*
X170762044Y-79553623D01*
X170703807Y-79529500D01*
X170703806Y-79529500D01*
X156696194Y-79529500D01*
X156696192Y-79529500D01*
X156657368Y-79545582D01*
X156637955Y-79553623D01*
X156596774Y-79570681D01*
X156596772Y-79570682D01*
X156596771Y-79570682D01*
X156202307Y-79965148D01*
X156167659Y-79979500D01*
X156089079Y-79979500D01*
X156061618Y-79989495D01*
X155974584Y-80021172D01*
X155881247Y-80099492D01*
X155820328Y-80205006D01*
X155799170Y-80325000D01*
X152016122Y-80325000D01*
X152906271Y-79434852D01*
X152940919Y-79420500D01*
X171459081Y-79420500D01*
X171493729Y-79434852D01*
X171547577Y-79488700D01*
X171561929Y-79523348D01*
X171561185Y-79531856D01*
X171549170Y-79599999D01*
X171570328Y-79719993D01*
X171631247Y-79825507D01*
X171631248Y-79825508D01*
X171631249Y-79825509D01*
X171724585Y-79903828D01*
X171839079Y-79945500D01*
X171839080Y-79945500D01*
X171960920Y-79945500D01*
X171960921Y-79945500D01*
X172075415Y-79903828D01*
X172168751Y-79825509D01*
X172229672Y-79719991D01*
X172242014Y-79650000D01*
X173849170Y-79650000D01*
X173870328Y-79769993D01*
X173931247Y-79875507D01*
X173931249Y-79875510D01*
X173954435Y-79894965D01*
X173971752Y-79928230D01*
X173960474Y-79963998D01*
X173954436Y-79970036D01*
X173931247Y-79989495D01*
X173870328Y-80095009D01*
X173849170Y-80215003D01*
X173870328Y-80334996D01*
X173931247Y-80440510D01*
X173931249Y-80440513D01*
X173954435Y-80459968D01*
X173971752Y-80493233D01*
X173960474Y-80529001D01*
X173954436Y-80535039D01*
X173931247Y-80554498D01*
X173870328Y-80660012D01*
X173849170Y-80780006D01*
X173870328Y-80899999D01*
X173931247Y-81005513D01*
X173931248Y-81005514D01*
X173931249Y-81005515D01*
X174024585Y-81083834D01*
X174139079Y-81125506D01*
X174139080Y-81125506D01*
X174260920Y-81125506D01*
X174260921Y-81125506D01*
X174375415Y-81083834D01*
X174468751Y-81005515D01*
X174529672Y-80899997D01*
X174550830Y-80780006D01*
X174529672Y-80660015D01*
X174529671Y-80660013D01*
X174529671Y-80660012D01*
X174468752Y-80554498D01*
X174467954Y-80553828D01*
X174445562Y-80535039D01*
X174428246Y-80501774D01*
X174439524Y-80466007D01*
X174445557Y-80459973D01*
X174468751Y-80440512D01*
X174529672Y-80334994D01*
X174550830Y-80215003D01*
X174539368Y-80150000D01*
X174949170Y-80150000D01*
X174970328Y-80269993D01*
X175031247Y-80375507D01*
X175115013Y-80445797D01*
X175132330Y-80479063D01*
X175121052Y-80514830D01*
X175115013Y-80520869D01*
X175031247Y-80591158D01*
X174970328Y-80696672D01*
X174949170Y-80816666D01*
X174970328Y-80936659D01*
X175031247Y-81042173D01*
X175095152Y-81095797D01*
X175112469Y-81129063D01*
X175101191Y-81164830D01*
X175095152Y-81170869D01*
X175031247Y-81224492D01*
X174970328Y-81330006D01*
X174949170Y-81450000D01*
X174970328Y-81569993D01*
X175031247Y-81675507D01*
X175031248Y-81675508D01*
X175031249Y-81675509D01*
X175124585Y-81753828D01*
X175239079Y-81795500D01*
X175239080Y-81795500D01*
X175360920Y-81795500D01*
X175360921Y-81795500D01*
X175475415Y-81753828D01*
X175568751Y-81675509D01*
X175599211Y-81622750D01*
X175629671Y-81569993D01*
X175629671Y-81569992D01*
X175629672Y-81569991D01*
X175650830Y-81450000D01*
X175629672Y-81330009D01*
X175629671Y-81330007D01*
X175629671Y-81330006D01*
X175568752Y-81224492D01*
X175509904Y-81175112D01*
X175504846Y-81170868D01*
X175487530Y-81137603D01*
X175498808Y-81101836D01*
X175504847Y-81095797D01*
X175568751Y-81042175D01*
X175613409Y-80964825D01*
X175629671Y-80936659D01*
X175629671Y-80936658D01*
X175629672Y-80936657D01*
X175650830Y-80816666D01*
X175629672Y-80696675D01*
X175629671Y-80696673D01*
X175629671Y-80696672D01*
X175568752Y-80591158D01*
X175484986Y-80520869D01*
X175467669Y-80487603D01*
X175478947Y-80451836D01*
X175484986Y-80445797D01*
X175503801Y-80430009D01*
X175568751Y-80375509D01*
X175629672Y-80269991D01*
X175650830Y-80150000D01*
X175629672Y-80030009D01*
X175629671Y-80030007D01*
X175629671Y-80030006D01*
X175568752Y-79924492D01*
X175540760Y-79901004D01*
X175539564Y-79900000D01*
X181349170Y-79900000D01*
X181370328Y-80019993D01*
X181431247Y-80125507D01*
X181431248Y-80125508D01*
X181431249Y-80125509D01*
X181524585Y-80203828D01*
X181639079Y-80245500D01*
X181639080Y-80245500D01*
X181760920Y-80245500D01*
X181760921Y-80245500D01*
X181875415Y-80203828D01*
X181968751Y-80125509D01*
X182029672Y-80019991D01*
X182050830Y-79900000D01*
X187349170Y-79900000D01*
X187370328Y-80019993D01*
X187431247Y-80125507D01*
X187431248Y-80125508D01*
X187431249Y-80125509D01*
X187524585Y-80203828D01*
X187639079Y-80245500D01*
X187639080Y-80245500D01*
X187760920Y-80245500D01*
X187760921Y-80245500D01*
X187875415Y-80203828D01*
X187968751Y-80125509D01*
X188029672Y-80019991D01*
X188050830Y-79900000D01*
X188029672Y-79780009D01*
X188029671Y-79780007D01*
X188029671Y-79780006D01*
X187968752Y-79674492D01*
X187875415Y-79596172D01*
X187805378Y-79570681D01*
X187760921Y-79554500D01*
X187639079Y-79554500D01*
X187600070Y-79568698D01*
X187524584Y-79596172D01*
X187431247Y-79674492D01*
X187370328Y-79780006D01*
X187349170Y-79900000D01*
X182050830Y-79900000D01*
X182029672Y-79780009D01*
X182029671Y-79780007D01*
X182029671Y-79780006D01*
X181968752Y-79674492D01*
X181875415Y-79596172D01*
X181805378Y-79570681D01*
X181760921Y-79554500D01*
X181639079Y-79554500D01*
X181600070Y-79568698D01*
X181524584Y-79596172D01*
X181431247Y-79674492D01*
X181370328Y-79780006D01*
X181349170Y-79900000D01*
X175539564Y-79900000D01*
X175475415Y-79846172D01*
X175360921Y-79804500D01*
X175239079Y-79804500D01*
X175181832Y-79825336D01*
X175124584Y-79846172D01*
X175031247Y-79924492D01*
X174970328Y-80030006D01*
X174949170Y-80150000D01*
X174539368Y-80150000D01*
X174529672Y-80095012D01*
X174529671Y-80095010D01*
X174529671Y-80095009D01*
X174468752Y-79989495D01*
X174468751Y-79989494D01*
X174445562Y-79970036D01*
X174428246Y-79936771D01*
X174439524Y-79901004D01*
X174445557Y-79894970D01*
X174468751Y-79875509D01*
X174529672Y-79769991D01*
X174550830Y-79650000D01*
X174529672Y-79530009D01*
X174529671Y-79530007D01*
X174529671Y-79530006D01*
X174468752Y-79424492D01*
X174375415Y-79346172D01*
X174331048Y-79330024D01*
X174260921Y-79304500D01*
X174139079Y-79304500D01*
X174081832Y-79325336D01*
X174024584Y-79346172D01*
X173931247Y-79424492D01*
X173870328Y-79530006D01*
X173849170Y-79650000D01*
X172242014Y-79650000D01*
X172250830Y-79600000D01*
X172229672Y-79480009D01*
X172229671Y-79480007D01*
X172229671Y-79480006D01*
X172168752Y-79374492D01*
X172075415Y-79296171D01*
X172073693Y-79295545D01*
X172072608Y-79294550D01*
X172071704Y-79294029D01*
X172071819Y-79293828D01*
X172046043Y-79270210D01*
X172044406Y-79232742D01*
X172069741Y-79205092D01*
X172090451Y-79200500D01*
X187896654Y-79200500D01*
X187931302Y-79214852D01*
X188285148Y-79568698D01*
X188299500Y-79603346D01*
X188299500Y-92396654D01*
X188285148Y-92431302D01*
X187931302Y-92785148D01*
X187896654Y-92799500D01*
X149103346Y-92799500D01*
X149068698Y-92785148D01*
X148714852Y-92431302D01*
X148700500Y-92396654D01*
X148700500Y-80250000D01*
X149949170Y-80250000D01*
X149970328Y-80369993D01*
X150031247Y-80475507D01*
X150031248Y-80475508D01*
X150031249Y-80475509D01*
X150124585Y-80553828D01*
X150239079Y-80595500D01*
X150239080Y-80595500D01*
X150360920Y-80595500D01*
X150360921Y-80595500D01*
X150475415Y-80553828D01*
X150568751Y-80475509D01*
X150629672Y-80369991D01*
X150650830Y-80250000D01*
X150629672Y-80130009D01*
X150629671Y-80130007D01*
X150629671Y-80130006D01*
X150568752Y-80024492D01*
X150564795Y-80021172D01*
X150475415Y-79946172D01*
X150360921Y-79904500D01*
X150239079Y-79904500D01*
X150184154Y-79924491D01*
X150124584Y-79946172D01*
X150031247Y-80024492D01*
X149970328Y-80130006D01*
X149949170Y-80250000D01*
X148700500Y-80250000D01*
X148700500Y-79603346D01*
X148714852Y-79568698D01*
X149068698Y-79214852D01*
X149103346Y-79200500D01*
X152540081Y-79200500D01*
X152574729Y-79214852D01*
G37*
G04 #@! TD.AperFunction*
M02*
