%TF.GenerationSoftware,KiCad,Pcbnew,8.0.3*%
%TF.CreationDate,2024-07-15T22:17:10+10:00*%
%TF.ProjectId,rs-probe,72732d70-726f-4626-952e-6b696361645f,rev?*%
%TF.SameCoordinates,Original*%
%TF.FileFunction,Drillmap*%
%TF.FilePolarity,Positive*%
%FSLAX45Y45*%
G04 Gerber Fmt 4.5, Leading zero omitted, Abs format (unit mm)*
G04 Created by KiCad (PCBNEW 8.0.3) date 2024-07-15 22:17:10*
%MOMM*%
%LPD*%
G01*
G04 APERTURE LIST*
%ADD10C,0.100000*%
%ADD11C,0.200000*%
G04 APERTURE END LIST*
D10*
X18800000Y-9300000D02*
X14900000Y-9300000D01*
X14850000Y-9250000D02*
X14850000Y-7950000D01*
X18850000Y-9250000D02*
X18800000Y-9300000D01*
X14900000Y-7900000D02*
X18800000Y-7900000D01*
X18800000Y-7900000D02*
X18850000Y-7950000D01*
X14850000Y-9250000D02*
X14900000Y-9300000D01*
X14850000Y-7950000D02*
X14900000Y-7900000D01*
X18850000Y-7950000D02*
X18850000Y-9250000D01*
D11*
D10*
X14955000Y-8331000D02*
X14985000Y-8361000D01*
X14985000Y-8331000D02*
X14955000Y-8361000D01*
X14975000Y-9145000D02*
X15005000Y-9175000D01*
X15005000Y-9145000D02*
X14975000Y-9175000D01*
X15015000Y-8010000D02*
X15045000Y-8040000D01*
X15045000Y-8010000D02*
X15015000Y-8040000D01*
X15015000Y-8100000D02*
X15045000Y-8130000D01*
X15045000Y-8100000D02*
X15015000Y-8130000D01*
X15040000Y-8458000D02*
X15070000Y-8488000D01*
X15070000Y-8458000D02*
X15040000Y-8488000D01*
X15040000Y-8585000D02*
X15070000Y-8615000D01*
X15070000Y-8585000D02*
X15040000Y-8615000D01*
X15275000Y-8017500D02*
X15305000Y-8047500D01*
X15305000Y-8017500D02*
X15275000Y-8047500D01*
X15525000Y-8107500D02*
X15555000Y-8137500D01*
X15555000Y-8107500D02*
X15525000Y-8137500D01*
X15600000Y-8017500D02*
X15630000Y-8047500D01*
X15630000Y-8017500D02*
X15600000Y-8047500D01*
X15605000Y-8107500D02*
X15635000Y-8137500D01*
X15635000Y-8107500D02*
X15605000Y-8137500D01*
X15605000Y-8197500D02*
X15635000Y-8227500D01*
X15635000Y-8197500D02*
X15605000Y-8227500D01*
X15615000Y-8860000D02*
X15645000Y-8890000D01*
X15645000Y-8860000D02*
X15615000Y-8890000D01*
X15635000Y-9089000D02*
X15665000Y-9119000D01*
X15665000Y-9089000D02*
X15635000Y-9119000D01*
X15635000Y-9170000D02*
X15665000Y-9200000D01*
X15665000Y-9170000D02*
X15635000Y-9200000D01*
X15680000Y-8190000D02*
X15710000Y-8220000D01*
X15710000Y-8190000D02*
X15680000Y-8220000D01*
X15685000Y-8015000D02*
X15715000Y-8045000D01*
X15715000Y-8015000D02*
X15685000Y-8045000D01*
X15685000Y-8105000D02*
X15715000Y-8135000D01*
X15715000Y-8105000D02*
X15685000Y-8135000D01*
X15695000Y-8860000D02*
X15725000Y-8890000D01*
X15725000Y-8860000D02*
X15695000Y-8890000D01*
X15700000Y-8331000D02*
X15730000Y-8361000D01*
X15730000Y-8331000D02*
X15700000Y-8361000D01*
X15700000Y-8458000D02*
X15730000Y-8488000D01*
X15730000Y-8458000D02*
X15700000Y-8488000D01*
X15700000Y-8585000D02*
X15730000Y-8615000D01*
X15730000Y-8585000D02*
X15700000Y-8615000D01*
X15700000Y-8712000D02*
X15730000Y-8742000D01*
X15730000Y-8712000D02*
X15700000Y-8742000D01*
X15725000Y-9089000D02*
X15755000Y-9119000D01*
X15755000Y-9089000D02*
X15725000Y-9119000D01*
X15807000Y-8985000D02*
X15837000Y-9015000D01*
X15837000Y-8985000D02*
X15807000Y-9015000D01*
X15860000Y-8280000D02*
X15890000Y-8310000D01*
X15890000Y-8280000D02*
X15860000Y-8310000D01*
X15860000Y-8360000D02*
X15890000Y-8390000D01*
X15890000Y-8360000D02*
X15860000Y-8390000D01*
X15875000Y-8935000D02*
X15905000Y-8965000D01*
X15905000Y-8935000D02*
X15875000Y-8965000D01*
X15890000Y-8827000D02*
X15920000Y-8857000D01*
X15920000Y-8827000D02*
X15890000Y-8857000D01*
X15940000Y-8020000D02*
X15970000Y-8050000D01*
X15970000Y-8020000D02*
X15940000Y-8050000D01*
X15960000Y-8945000D02*
X15990000Y-8975000D01*
X15990000Y-8945000D02*
X15960000Y-8975000D01*
X15960000Y-9035000D02*
X15990000Y-9065000D01*
X15990000Y-9035000D02*
X15960000Y-9065000D01*
X15972733Y-8725000D02*
X16002733Y-8755000D01*
X16002733Y-8725000D02*
X15972733Y-8755000D01*
X15995000Y-8285000D02*
X16025000Y-8315000D01*
X16025000Y-8285000D02*
X15995000Y-8315000D01*
X15995000Y-8385000D02*
X16025000Y-8415000D01*
X16025000Y-8385000D02*
X15995000Y-8415000D01*
X16000214Y-8675634D02*
X16030214Y-8705634D01*
X16030214Y-8675634D02*
X16000214Y-8705634D01*
X16020000Y-8020000D02*
X16050000Y-8050000D01*
X16050000Y-8020000D02*
X16020000Y-8050000D01*
X16045000Y-8355000D02*
X16075000Y-8385000D01*
X16075000Y-8355000D02*
X16045000Y-8385000D01*
X16051109Y-8525000D02*
X16081109Y-8555000D01*
X16081109Y-8525000D02*
X16051109Y-8555000D01*
X16081000Y-8575000D02*
X16111000Y-8605000D01*
X16111000Y-8575000D02*
X16081000Y-8605000D01*
X16092733Y-8675000D02*
X16122733Y-8705000D01*
X16122733Y-8675000D02*
X16092733Y-8705000D01*
X16092733Y-8835000D02*
X16122733Y-8865000D01*
X16122733Y-8835000D02*
X16092733Y-8865000D01*
X16110000Y-8100000D02*
X16140000Y-8130000D01*
X16140000Y-8100000D02*
X16110000Y-8130000D01*
X16142733Y-8743000D02*
X16172733Y-8773000D01*
X16172733Y-8743000D02*
X16142733Y-8773000D01*
X16142733Y-8903000D02*
X16172733Y-8933000D01*
X16172733Y-8903000D02*
X16142733Y-8933000D01*
X16146500Y-8525000D02*
X16176500Y-8555000D01*
X16176500Y-8525000D02*
X16146500Y-8555000D01*
X16146733Y-8285000D02*
X16176733Y-8315000D01*
X16176733Y-8285000D02*
X16146733Y-8315000D01*
X16146733Y-8375000D02*
X16176733Y-8405000D01*
X16176733Y-8375000D02*
X16146733Y-8405000D01*
X16195000Y-8110000D02*
X16225000Y-8140000D01*
X16225000Y-8110000D02*
X16195000Y-8140000D01*
X16203000Y-8525000D02*
X16233000Y-8555000D01*
X16233000Y-8525000D02*
X16203000Y-8555000D01*
X16226733Y-8375000D02*
X16256733Y-8405000D01*
X16256733Y-8375000D02*
X16226733Y-8405000D01*
X16238733Y-8575000D02*
X16268733Y-8605000D01*
X16268733Y-8575000D02*
X16238733Y-8605000D01*
X16280000Y-8861000D02*
X16310000Y-8891000D01*
X16310000Y-8861000D02*
X16280000Y-8891000D01*
X16280000Y-8941000D02*
X16310000Y-8971000D01*
X16310000Y-8941000D02*
X16280000Y-8971000D01*
X16282733Y-8685000D02*
X16312733Y-8715000D01*
X16312733Y-8685000D02*
X16282733Y-8715000D01*
X16282733Y-8765000D02*
X16312733Y-8795000D01*
X16312733Y-8765000D02*
X16282733Y-8795000D01*
X16306733Y-8285000D02*
X16336733Y-8315000D01*
X16336733Y-8285000D02*
X16306733Y-8315000D01*
X16306733Y-8375000D02*
X16336733Y-8405000D01*
X16336733Y-8375000D02*
X16306733Y-8405000D01*
X16306733Y-8525000D02*
X16336733Y-8555000D01*
X16336733Y-8525000D02*
X16306733Y-8555000D01*
X16370000Y-8861000D02*
X16400000Y-8891000D01*
X16400000Y-8861000D02*
X16370000Y-8891000D01*
X16372733Y-8685000D02*
X16402733Y-8715000D01*
X16402733Y-8685000D02*
X16372733Y-8715000D01*
X16386733Y-8375000D02*
X16416733Y-8405000D01*
X16416733Y-8375000D02*
X16386733Y-8405000D01*
X16600000Y-8565000D02*
X16630000Y-8595000D01*
X16630000Y-8565000D02*
X16600000Y-8595000D01*
X16640000Y-8655000D02*
X16670000Y-8685000D01*
X16670000Y-8655000D02*
X16640000Y-8685000D01*
X16640000Y-8735000D02*
X16670000Y-8765000D01*
X16670000Y-8735000D02*
X16640000Y-8765000D01*
X16640000Y-8815000D02*
X16670000Y-8845000D01*
X16670000Y-8815000D02*
X16640000Y-8845000D01*
X16675000Y-8415000D02*
X16705000Y-8445000D01*
X16705000Y-8415000D02*
X16675000Y-8445000D01*
X16730000Y-8735000D02*
X16760000Y-8765000D01*
X16760000Y-8735000D02*
X16730000Y-8765000D01*
X16745000Y-8945000D02*
X16775000Y-8975000D01*
X16775000Y-8945000D02*
X16745000Y-8975000D01*
X16750000Y-8387500D02*
X16780000Y-8417500D01*
X16780000Y-8387500D02*
X16750000Y-8417500D01*
X16785000Y-8985000D02*
X16815000Y-9015000D01*
X16815000Y-8985000D02*
X16785000Y-9015000D01*
X16901250Y-8381250D02*
X16931250Y-8411250D01*
X16931250Y-8381250D02*
X16901250Y-8411250D01*
X16905000Y-8545000D02*
X16935000Y-8575000D01*
X16935000Y-8545000D02*
X16905000Y-8575000D01*
X16905000Y-8625000D02*
X16935000Y-8655000D01*
X16935000Y-8625000D02*
X16905000Y-8655000D01*
X16925984Y-8957459D02*
X16955984Y-8987459D01*
X16955984Y-8957459D02*
X16925984Y-8987459D01*
X16944903Y-8505000D02*
X16974903Y-8535000D01*
X16974903Y-8505000D02*
X16944903Y-8535000D01*
X16945000Y-8585000D02*
X16975000Y-8615000D01*
X16975000Y-8585000D02*
X16945000Y-8615000D01*
X16947500Y-8872500D02*
X16977500Y-8902500D01*
X16977500Y-8872500D02*
X16947500Y-8902500D01*
X16960000Y-9170000D02*
X16990000Y-9200000D01*
X16990000Y-9170000D02*
X16960000Y-9200000D01*
X16965000Y-8325000D02*
X16995000Y-8355000D01*
X16995000Y-8325000D02*
X16965000Y-8355000D01*
X16965000Y-9005000D02*
X16995000Y-9035000D01*
X16995000Y-9005000D02*
X16965000Y-9035000D01*
X17005000Y-8965000D02*
X17035000Y-8995000D01*
X17035000Y-8965000D02*
X17005000Y-8995000D01*
X17045000Y-9005000D02*
X17075000Y-9035000D01*
X17075000Y-9005000D02*
X17045000Y-9035000D01*
X17050000Y-9170000D02*
X17080000Y-9200000D01*
X17080000Y-9170000D02*
X17050000Y-9200000D01*
X17085000Y-8445000D02*
X17115000Y-8475000D01*
X17115000Y-8445000D02*
X17085000Y-8475000D01*
X17125000Y-9005000D02*
X17155000Y-9035000D01*
X17155000Y-9005000D02*
X17125000Y-9035000D01*
X17160000Y-9170000D02*
X17190000Y-9200000D01*
X17190000Y-9170000D02*
X17160000Y-9200000D01*
X17175000Y-7945000D02*
X17205000Y-7975000D01*
X17205000Y-7945000D02*
X17175000Y-7975000D01*
X17185000Y-8955000D02*
X17215000Y-8985000D01*
X17215000Y-8955000D02*
X17185000Y-8985000D01*
X17205000Y-8325000D02*
X17235000Y-8355000D01*
X17235000Y-8325000D02*
X17205000Y-8355000D01*
X17245000Y-9005000D02*
X17275000Y-9035000D01*
X17275000Y-9005000D02*
X17245000Y-9035000D01*
X17285000Y-8440000D02*
X17315000Y-8470000D01*
X17315000Y-8440000D02*
X17285000Y-8470000D01*
X17300000Y-8955000D02*
X17330000Y-8985000D01*
X17330000Y-8955000D02*
X17300000Y-8985000D01*
X17405000Y-7950000D02*
X17435000Y-7980000D01*
X17435000Y-7950000D02*
X17405000Y-7980000D01*
X17405000Y-8006500D02*
X17435000Y-8036500D01*
X17435000Y-8006500D02*
X17405000Y-8036500D01*
X17405000Y-8063001D02*
X17435000Y-8093001D01*
X17435000Y-8063001D02*
X17405000Y-8093001D01*
X17405000Y-8320000D02*
X17435000Y-8350000D01*
X17435000Y-8320000D02*
X17405000Y-8350000D01*
X17415000Y-8955000D02*
X17445000Y-8985000D01*
X17445000Y-8955000D02*
X17415000Y-8985000D01*
X17445000Y-8445000D02*
X17475000Y-8475000D01*
X17475000Y-8445000D02*
X17445000Y-8475000D01*
X17465000Y-8505000D02*
X17495000Y-8535000D01*
X17495000Y-8505000D02*
X17465000Y-8535000D01*
X17515000Y-8000000D02*
X17545000Y-8030000D01*
X17545000Y-8000000D02*
X17515000Y-8030000D01*
X17515000Y-8066667D02*
X17545000Y-8096667D01*
X17545000Y-8066667D02*
X17515000Y-8096667D01*
X17515000Y-8130000D02*
X17545000Y-8160000D01*
X17545000Y-8130000D02*
X17515000Y-8160000D01*
X17551000Y-9176000D02*
X17581000Y-9206000D01*
X17581000Y-9176000D02*
X17551000Y-9206000D01*
X17595000Y-8445000D02*
X17625000Y-8475000D01*
X17625000Y-8445000D02*
X17595000Y-8475000D01*
X17620000Y-8785000D02*
X17650000Y-8815000D01*
X17650000Y-8785000D02*
X17620000Y-8815000D01*
X17620000Y-8985000D02*
X17650000Y-9015000D01*
X17650000Y-8985000D02*
X17620000Y-9015000D01*
X17620000Y-9065000D02*
X17650000Y-9095000D01*
X17650000Y-9065000D02*
X17620000Y-9095000D01*
X17632500Y-8005000D02*
X17662500Y-8035000D01*
X17662500Y-8005000D02*
X17632500Y-8035000D01*
X17670000Y-8315000D02*
X17700000Y-8345000D01*
X17700000Y-8315000D02*
X17670000Y-8345000D01*
X17710000Y-8785000D02*
X17740000Y-8815000D01*
X17740000Y-8785000D02*
X17710000Y-8815000D01*
X17710000Y-8905000D02*
X17740000Y-8935000D01*
X17740000Y-8905000D02*
X17710000Y-8935000D01*
X17710000Y-8985000D02*
X17740000Y-9015000D01*
X17740000Y-8985000D02*
X17710000Y-9015000D01*
X17710000Y-9065000D02*
X17740000Y-9095000D01*
X17740000Y-9065000D02*
X17710000Y-9095000D01*
X17730000Y-8405000D02*
X17760000Y-8435000D01*
X17760000Y-8405000D02*
X17730000Y-8435000D01*
X17757500Y-8132500D02*
X17787500Y-8162500D01*
X17787500Y-8132500D02*
X17757500Y-8162500D01*
X17757500Y-8222500D02*
X17787500Y-8252500D01*
X17787500Y-8222500D02*
X17757500Y-8252500D01*
X17765000Y-8040000D02*
X17795000Y-8070000D01*
X17795000Y-8040000D02*
X17765000Y-8070000D01*
X17785000Y-8845000D02*
X17815000Y-8875000D01*
X17815000Y-8845000D02*
X17785000Y-8875000D01*
X17825000Y-8085000D02*
X17855000Y-8115000D01*
X17855000Y-8085000D02*
X17825000Y-8115000D01*
X17843722Y-8449888D02*
X17873722Y-8479888D01*
X17873722Y-8449888D02*
X17843722Y-8479888D01*
X17870200Y-8051100D02*
X17900200Y-8081100D01*
X17900200Y-8051100D02*
X17870200Y-8081100D01*
X17905000Y-8495000D02*
X17935000Y-8525000D01*
X17935000Y-8495000D02*
X17905000Y-8525000D01*
X17905000Y-8585000D02*
X17935000Y-8615000D01*
X17935000Y-8585000D02*
X17905000Y-8615000D01*
X17915000Y-8300000D02*
X17945000Y-8330000D01*
X17945000Y-8300000D02*
X17915000Y-8330000D01*
X17915000Y-8390000D02*
X17945000Y-8420000D01*
X17945000Y-8390000D02*
X17915000Y-8420000D01*
X17915000Y-9145000D02*
X17945000Y-9175000D01*
X17945000Y-9145000D02*
X17915000Y-9175000D01*
X17920000Y-7927500D02*
X17950000Y-7957500D01*
X17950000Y-7927500D02*
X17920000Y-7957500D01*
X17937500Y-9062500D02*
X17967500Y-9092500D01*
X17967500Y-9062500D02*
X17937500Y-9092500D01*
X17940999Y-8845000D02*
X17970999Y-8875000D01*
X17970999Y-8845000D02*
X17940999Y-8875000D01*
X17970000Y-8215000D02*
X18000000Y-8245000D01*
X18000000Y-8215000D02*
X17970000Y-8245000D01*
X18130500Y-8340000D02*
X18160500Y-8370000D01*
X18160500Y-8340000D02*
X18130500Y-8370000D01*
X18130500Y-8830000D02*
X18160500Y-8860000D01*
X18160500Y-8830000D02*
X18130500Y-8860000D01*
X18155000Y-7975000D02*
X18185000Y-8005000D01*
X18185000Y-7975000D02*
X18155000Y-8005000D01*
X18275000Y-8545000D02*
X18305000Y-8575000D01*
X18305000Y-8545000D02*
X18275000Y-8575000D01*
X18275000Y-8665000D02*
X18305000Y-8695000D01*
X18305000Y-8665000D02*
X18275000Y-8695000D01*
X18385000Y-8645000D02*
X18415000Y-8675000D01*
X18415000Y-8645000D02*
X18385000Y-8675000D01*
X18385000Y-8765000D02*
X18415000Y-8795000D01*
X18415000Y-8765000D02*
X18385000Y-8795000D01*
X18400000Y-7975000D02*
X18430000Y-8005000D01*
X18430000Y-7975000D02*
X18400000Y-8005000D01*
X18755000Y-7975000D02*
X18785000Y-8005000D01*
X18785000Y-7975000D02*
X18755000Y-8005000D01*
X17087500Y-8612500D02*
G75*
G02*
X17057500Y-8612500I-15000J0D01*
G01*
X17057500Y-8612500D02*
G75*
G02*
X17087500Y-8612500I15000J0D01*
G01*
X17087500Y-8740000D02*
G75*
G02*
X17057500Y-8740000I-15000J0D01*
G01*
X17057500Y-8740000D02*
G75*
G02*
X17087500Y-8740000I15000J0D01*
G01*
X17087500Y-8867500D02*
G75*
G02*
X17057500Y-8867500I-15000J0D01*
G01*
X17057500Y-8867500D02*
G75*
G02*
X17087500Y-8867500I15000J0D01*
G01*
X17215000Y-8612500D02*
G75*
G02*
X17185000Y-8612500I-15000J0D01*
G01*
X17185000Y-8612500D02*
G75*
G02*
X17215000Y-8612500I15000J0D01*
G01*
X17215000Y-8740000D02*
G75*
G02*
X17185000Y-8740000I-15000J0D01*
G01*
X17185000Y-8740000D02*
G75*
G02*
X17215000Y-8740000I15000J0D01*
G01*
X17215000Y-8867500D02*
G75*
G02*
X17185000Y-8867500I-15000J0D01*
G01*
X17185000Y-8867500D02*
G75*
G02*
X17215000Y-8867500I15000J0D01*
G01*
X17342500Y-8612500D02*
G75*
G02*
X17312500Y-8612500I-15000J0D01*
G01*
X17312500Y-8612500D02*
G75*
G02*
X17342500Y-8612500I15000J0D01*
G01*
X17342500Y-8740000D02*
G75*
G02*
X17312500Y-8740000I-15000J0D01*
G01*
X17312500Y-8740000D02*
G75*
G02*
X17342500Y-8740000I15000J0D01*
G01*
X17342500Y-8867500D02*
G75*
G02*
X17312500Y-8867500I-15000J0D01*
G01*
X17312500Y-8867500D02*
G75*
G02*
X17342500Y-8867500I15000J0D01*
G01*
X18237000Y-8138000D02*
X18237000Y-8198000D01*
X18207000Y-8168000D02*
X18267000Y-8168000D01*
X18182000Y-8198000D02*
X18292000Y-8198000D01*
X18292000Y-8138000D02*
G75*
G02*
X18292000Y-8198000I0J-30000D01*
G01*
X18292000Y-8138000D02*
X18182000Y-8138000D01*
X18182000Y-8138000D02*
G75*
G03*
X18182000Y-8198000I0J-30000D01*
G01*
X18237000Y-9002000D02*
X18237000Y-9062000D01*
X18207000Y-9032000D02*
X18267000Y-9032000D01*
X18182000Y-9062000D02*
X18292000Y-9062000D01*
X18292000Y-9002000D02*
G75*
G02*
X18292000Y-9062000I0J-30000D01*
G01*
X18292000Y-9002000D02*
X18182000Y-9002000D01*
X18182000Y-9002000D02*
G75*
G03*
X18182000Y-9062000I0J-30000D01*
G01*
X18655000Y-8138000D02*
X18655000Y-8198000D01*
X18625000Y-8168000D02*
X18685000Y-8168000D01*
X18625000Y-8198000D02*
X18685000Y-8198000D01*
X18685000Y-8138000D02*
G75*
G02*
X18685000Y-8198000I0J-30000D01*
G01*
X18685000Y-8138000D02*
X18625000Y-8138000D01*
X18625000Y-8138000D02*
G75*
G03*
X18625000Y-8198000I0J-30000D01*
G01*
X18655000Y-9002000D02*
X18655000Y-9062000D01*
X18625000Y-9032000D02*
X18685000Y-9032000D01*
X18625000Y-9062000D02*
X18685000Y-9062000D01*
X18685000Y-9002000D02*
G75*
G02*
X18685000Y-9062000I0J-30000D01*
G01*
X18685000Y-9002000D02*
X18625000Y-9002000D01*
X18625000Y-9002000D02*
G75*
G03*
X18625000Y-9062000I0J-30000D01*
G01*
D11*
X15105777Y-9616484D02*
X15105777Y-9416484D01*
X15105777Y-9416484D02*
X15153396Y-9416484D01*
X15153396Y-9416484D02*
X15181967Y-9426008D01*
X15181967Y-9426008D02*
X15201015Y-9445055D01*
X15201015Y-9445055D02*
X15210539Y-9464103D01*
X15210539Y-9464103D02*
X15220062Y-9502198D01*
X15220062Y-9502198D02*
X15220062Y-9530770D01*
X15220062Y-9530770D02*
X15210539Y-9568865D01*
X15210539Y-9568865D02*
X15201015Y-9587912D01*
X15201015Y-9587912D02*
X15181967Y-9606960D01*
X15181967Y-9606960D02*
X15153396Y-9616484D01*
X15153396Y-9616484D02*
X15105777Y-9616484D01*
X15305777Y-9616484D02*
X15305777Y-9483150D01*
X15305777Y-9521246D02*
X15315301Y-9502198D01*
X15315301Y-9502198D02*
X15324824Y-9492674D01*
X15324824Y-9492674D02*
X15343872Y-9483150D01*
X15343872Y-9483150D02*
X15362920Y-9483150D01*
X15429586Y-9616484D02*
X15429586Y-9483150D01*
X15429586Y-9416484D02*
X15420062Y-9426008D01*
X15420062Y-9426008D02*
X15429586Y-9435531D01*
X15429586Y-9435531D02*
X15439110Y-9426008D01*
X15439110Y-9426008D02*
X15429586Y-9416484D01*
X15429586Y-9416484D02*
X15429586Y-9435531D01*
X15553396Y-9616484D02*
X15534348Y-9606960D01*
X15534348Y-9606960D02*
X15524824Y-9587912D01*
X15524824Y-9587912D02*
X15524824Y-9416484D01*
X15658158Y-9616484D02*
X15639110Y-9606960D01*
X15639110Y-9606960D02*
X15629586Y-9587912D01*
X15629586Y-9587912D02*
X15629586Y-9416484D01*
X15886729Y-9616484D02*
X15886729Y-9416484D01*
X15886729Y-9416484D02*
X15953396Y-9559341D01*
X15953396Y-9559341D02*
X16020062Y-9416484D01*
X16020062Y-9416484D02*
X16020062Y-9616484D01*
X16201015Y-9616484D02*
X16201015Y-9511722D01*
X16201015Y-9511722D02*
X16191491Y-9492674D01*
X16191491Y-9492674D02*
X16172443Y-9483150D01*
X16172443Y-9483150D02*
X16134348Y-9483150D01*
X16134348Y-9483150D02*
X16115301Y-9492674D01*
X16201015Y-9606960D02*
X16181967Y-9616484D01*
X16181967Y-9616484D02*
X16134348Y-9616484D01*
X16134348Y-9616484D02*
X16115301Y-9606960D01*
X16115301Y-9606960D02*
X16105777Y-9587912D01*
X16105777Y-9587912D02*
X16105777Y-9568865D01*
X16105777Y-9568865D02*
X16115301Y-9549817D01*
X16115301Y-9549817D02*
X16134348Y-9540293D01*
X16134348Y-9540293D02*
X16181967Y-9540293D01*
X16181967Y-9540293D02*
X16201015Y-9530770D01*
X16296253Y-9483150D02*
X16296253Y-9683150D01*
X16296253Y-9492674D02*
X16315301Y-9483150D01*
X16315301Y-9483150D02*
X16353396Y-9483150D01*
X16353396Y-9483150D02*
X16372443Y-9492674D01*
X16372443Y-9492674D02*
X16381967Y-9502198D01*
X16381967Y-9502198D02*
X16391491Y-9521246D01*
X16391491Y-9521246D02*
X16391491Y-9578389D01*
X16391491Y-9578389D02*
X16381967Y-9597436D01*
X16381967Y-9597436D02*
X16372443Y-9606960D01*
X16372443Y-9606960D02*
X16353396Y-9616484D01*
X16353396Y-9616484D02*
X16315301Y-9616484D01*
X16315301Y-9616484D02*
X16296253Y-9606960D01*
X16477205Y-9597436D02*
X16486729Y-9606960D01*
X16486729Y-9606960D02*
X16477205Y-9616484D01*
X16477205Y-9616484D02*
X16467682Y-9606960D01*
X16467682Y-9606960D02*
X16477205Y-9597436D01*
X16477205Y-9597436D02*
X16477205Y-9616484D01*
X16477205Y-9492674D02*
X16486729Y-9502198D01*
X16486729Y-9502198D02*
X16477205Y-9511722D01*
X16477205Y-9511722D02*
X16467682Y-9502198D01*
X16467682Y-9502198D02*
X16477205Y-9492674D01*
X16477205Y-9492674D02*
X16477205Y-9511722D01*
D10*
X14815000Y-9930000D02*
X14845000Y-9960000D01*
X14845000Y-9930000D02*
X14815000Y-9960000D01*
D11*
X15143872Y-9836484D02*
X15162920Y-9836484D01*
X15162920Y-9836484D02*
X15181967Y-9846008D01*
X15181967Y-9846008D02*
X15191491Y-9855531D01*
X15191491Y-9855531D02*
X15201015Y-9874579D01*
X15201015Y-9874579D02*
X15210539Y-9912674D01*
X15210539Y-9912674D02*
X15210539Y-9960293D01*
X15210539Y-9960293D02*
X15201015Y-9998389D01*
X15201015Y-9998389D02*
X15191491Y-10017436D01*
X15191491Y-10017436D02*
X15181967Y-10026960D01*
X15181967Y-10026960D02*
X15162920Y-10036484D01*
X15162920Y-10036484D02*
X15143872Y-10036484D01*
X15143872Y-10036484D02*
X15124824Y-10026960D01*
X15124824Y-10026960D02*
X15115301Y-10017436D01*
X15115301Y-10017436D02*
X15105777Y-9998389D01*
X15105777Y-9998389D02*
X15096253Y-9960293D01*
X15096253Y-9960293D02*
X15096253Y-9912674D01*
X15096253Y-9912674D02*
X15105777Y-9874579D01*
X15105777Y-9874579D02*
X15115301Y-9855531D01*
X15115301Y-9855531D02*
X15124824Y-9846008D01*
X15124824Y-9846008D02*
X15143872Y-9836484D01*
X15296253Y-10017436D02*
X15305777Y-10026960D01*
X15305777Y-10026960D02*
X15296253Y-10036484D01*
X15296253Y-10036484D02*
X15286729Y-10026960D01*
X15286729Y-10026960D02*
X15296253Y-10017436D01*
X15296253Y-10017436D02*
X15296253Y-10036484D01*
X15372443Y-9836484D02*
X15496253Y-9836484D01*
X15496253Y-9836484D02*
X15429586Y-9912674D01*
X15429586Y-9912674D02*
X15458158Y-9912674D01*
X15458158Y-9912674D02*
X15477205Y-9922198D01*
X15477205Y-9922198D02*
X15486729Y-9931722D01*
X15486729Y-9931722D02*
X15496253Y-9950770D01*
X15496253Y-9950770D02*
X15496253Y-9998389D01*
X15496253Y-9998389D02*
X15486729Y-10017436D01*
X15486729Y-10017436D02*
X15477205Y-10026960D01*
X15477205Y-10026960D02*
X15458158Y-10036484D01*
X15458158Y-10036484D02*
X15401015Y-10036484D01*
X15401015Y-10036484D02*
X15381967Y-10026960D01*
X15381967Y-10026960D02*
X15372443Y-10017436D01*
X15620062Y-9836484D02*
X15639110Y-9836484D01*
X15639110Y-9836484D02*
X15658158Y-9846008D01*
X15658158Y-9846008D02*
X15667682Y-9855531D01*
X15667682Y-9855531D02*
X15677205Y-9874579D01*
X15677205Y-9874579D02*
X15686729Y-9912674D01*
X15686729Y-9912674D02*
X15686729Y-9960293D01*
X15686729Y-9960293D02*
X15677205Y-9998389D01*
X15677205Y-9998389D02*
X15667682Y-10017436D01*
X15667682Y-10017436D02*
X15658158Y-10026960D01*
X15658158Y-10026960D02*
X15639110Y-10036484D01*
X15639110Y-10036484D02*
X15620062Y-10036484D01*
X15620062Y-10036484D02*
X15601015Y-10026960D01*
X15601015Y-10026960D02*
X15591491Y-10017436D01*
X15591491Y-10017436D02*
X15581967Y-9998389D01*
X15581967Y-9998389D02*
X15572443Y-9960293D01*
X15572443Y-9960293D02*
X15572443Y-9912674D01*
X15572443Y-9912674D02*
X15581967Y-9874579D01*
X15581967Y-9874579D02*
X15591491Y-9855531D01*
X15591491Y-9855531D02*
X15601015Y-9846008D01*
X15601015Y-9846008D02*
X15620062Y-9836484D01*
X15810539Y-9836484D02*
X15829586Y-9836484D01*
X15829586Y-9836484D02*
X15848634Y-9846008D01*
X15848634Y-9846008D02*
X15858158Y-9855531D01*
X15858158Y-9855531D02*
X15867682Y-9874579D01*
X15867682Y-9874579D02*
X15877205Y-9912674D01*
X15877205Y-9912674D02*
X15877205Y-9960293D01*
X15877205Y-9960293D02*
X15867682Y-9998389D01*
X15867682Y-9998389D02*
X15858158Y-10017436D01*
X15858158Y-10017436D02*
X15848634Y-10026960D01*
X15848634Y-10026960D02*
X15829586Y-10036484D01*
X15829586Y-10036484D02*
X15810539Y-10036484D01*
X15810539Y-10036484D02*
X15791491Y-10026960D01*
X15791491Y-10026960D02*
X15781967Y-10017436D01*
X15781967Y-10017436D02*
X15772443Y-9998389D01*
X15772443Y-9998389D02*
X15762920Y-9960293D01*
X15762920Y-9960293D02*
X15762920Y-9912674D01*
X15762920Y-9912674D02*
X15772443Y-9874579D01*
X15772443Y-9874579D02*
X15781967Y-9855531D01*
X15781967Y-9855531D02*
X15791491Y-9846008D01*
X15791491Y-9846008D02*
X15810539Y-9836484D01*
X15962920Y-10036484D02*
X15962920Y-9903150D01*
X15962920Y-9922198D02*
X15972443Y-9912674D01*
X15972443Y-9912674D02*
X15991491Y-9903150D01*
X15991491Y-9903150D02*
X16020063Y-9903150D01*
X16020063Y-9903150D02*
X16039110Y-9912674D01*
X16039110Y-9912674D02*
X16048634Y-9931722D01*
X16048634Y-9931722D02*
X16048634Y-10036484D01*
X16048634Y-9931722D02*
X16058158Y-9912674D01*
X16058158Y-9912674D02*
X16077205Y-9903150D01*
X16077205Y-9903150D02*
X16105777Y-9903150D01*
X16105777Y-9903150D02*
X16124824Y-9912674D01*
X16124824Y-9912674D02*
X16134348Y-9931722D01*
X16134348Y-9931722D02*
X16134348Y-10036484D01*
X16229586Y-10036484D02*
X16229586Y-9903150D01*
X16229586Y-9922198D02*
X16239110Y-9912674D01*
X16239110Y-9912674D02*
X16258158Y-9903150D01*
X16258158Y-9903150D02*
X16286729Y-9903150D01*
X16286729Y-9903150D02*
X16305777Y-9912674D01*
X16305777Y-9912674D02*
X16315301Y-9931722D01*
X16315301Y-9931722D02*
X16315301Y-10036484D01*
X16315301Y-9931722D02*
X16324824Y-9912674D01*
X16324824Y-9912674D02*
X16343872Y-9903150D01*
X16343872Y-9903150D02*
X16372443Y-9903150D01*
X16372443Y-9903150D02*
X16391491Y-9912674D01*
X16391491Y-9912674D02*
X16401015Y-9931722D01*
X16401015Y-9931722D02*
X16401015Y-10036484D01*
X16791491Y-9826960D02*
X16620063Y-10084103D01*
X17048634Y-9836484D02*
X17067682Y-9836484D01*
X17067682Y-9836484D02*
X17086729Y-9846008D01*
X17086729Y-9846008D02*
X17096253Y-9855531D01*
X17096253Y-9855531D02*
X17105777Y-9874579D01*
X17105777Y-9874579D02*
X17115301Y-9912674D01*
X17115301Y-9912674D02*
X17115301Y-9960293D01*
X17115301Y-9960293D02*
X17105777Y-9998389D01*
X17105777Y-9998389D02*
X17096253Y-10017436D01*
X17096253Y-10017436D02*
X17086729Y-10026960D01*
X17086729Y-10026960D02*
X17067682Y-10036484D01*
X17067682Y-10036484D02*
X17048634Y-10036484D01*
X17048634Y-10036484D02*
X17029587Y-10026960D01*
X17029587Y-10026960D02*
X17020063Y-10017436D01*
X17020063Y-10017436D02*
X17010539Y-9998389D01*
X17010539Y-9998389D02*
X17001015Y-9960293D01*
X17001015Y-9960293D02*
X17001015Y-9912674D01*
X17001015Y-9912674D02*
X17010539Y-9874579D01*
X17010539Y-9874579D02*
X17020063Y-9855531D01*
X17020063Y-9855531D02*
X17029587Y-9846008D01*
X17029587Y-9846008D02*
X17048634Y-9836484D01*
X17201015Y-10017436D02*
X17210539Y-10026960D01*
X17210539Y-10026960D02*
X17201015Y-10036484D01*
X17201015Y-10036484D02*
X17191491Y-10026960D01*
X17191491Y-10026960D02*
X17201015Y-10017436D01*
X17201015Y-10017436D02*
X17201015Y-10036484D01*
X17334348Y-9836484D02*
X17353396Y-9836484D01*
X17353396Y-9836484D02*
X17372444Y-9846008D01*
X17372444Y-9846008D02*
X17381968Y-9855531D01*
X17381968Y-9855531D02*
X17391491Y-9874579D01*
X17391491Y-9874579D02*
X17401015Y-9912674D01*
X17401015Y-9912674D02*
X17401015Y-9960293D01*
X17401015Y-9960293D02*
X17391491Y-9998389D01*
X17391491Y-9998389D02*
X17381968Y-10017436D01*
X17381968Y-10017436D02*
X17372444Y-10026960D01*
X17372444Y-10026960D02*
X17353396Y-10036484D01*
X17353396Y-10036484D02*
X17334348Y-10036484D01*
X17334348Y-10036484D02*
X17315301Y-10026960D01*
X17315301Y-10026960D02*
X17305777Y-10017436D01*
X17305777Y-10017436D02*
X17296253Y-9998389D01*
X17296253Y-9998389D02*
X17286729Y-9960293D01*
X17286729Y-9960293D02*
X17286729Y-9912674D01*
X17286729Y-9912674D02*
X17296253Y-9874579D01*
X17296253Y-9874579D02*
X17305777Y-9855531D01*
X17305777Y-9855531D02*
X17315301Y-9846008D01*
X17315301Y-9846008D02*
X17334348Y-9836484D01*
X17591491Y-10036484D02*
X17477206Y-10036484D01*
X17534348Y-10036484D02*
X17534348Y-9836484D01*
X17534348Y-9836484D02*
X17515301Y-9865055D01*
X17515301Y-9865055D02*
X17496253Y-9884103D01*
X17496253Y-9884103D02*
X17477206Y-9893627D01*
X17781968Y-10036484D02*
X17667682Y-10036484D01*
X17724825Y-10036484D02*
X17724825Y-9836484D01*
X17724825Y-9836484D02*
X17705777Y-9865055D01*
X17705777Y-9865055D02*
X17686729Y-9884103D01*
X17686729Y-9884103D02*
X17667682Y-9893627D01*
X17896253Y-9922198D02*
X17877206Y-9912674D01*
X17877206Y-9912674D02*
X17867682Y-9903150D01*
X17867682Y-9903150D02*
X17858158Y-9884103D01*
X17858158Y-9884103D02*
X17858158Y-9874579D01*
X17858158Y-9874579D02*
X17867682Y-9855531D01*
X17867682Y-9855531D02*
X17877206Y-9846008D01*
X17877206Y-9846008D02*
X17896253Y-9836484D01*
X17896253Y-9836484D02*
X17934349Y-9836484D01*
X17934349Y-9836484D02*
X17953396Y-9846008D01*
X17953396Y-9846008D02*
X17962920Y-9855531D01*
X17962920Y-9855531D02*
X17972444Y-9874579D01*
X17972444Y-9874579D02*
X17972444Y-9884103D01*
X17972444Y-9884103D02*
X17962920Y-9903150D01*
X17962920Y-9903150D02*
X17953396Y-9912674D01*
X17953396Y-9912674D02*
X17934349Y-9922198D01*
X17934349Y-9922198D02*
X17896253Y-9922198D01*
X17896253Y-9922198D02*
X17877206Y-9931722D01*
X17877206Y-9931722D02*
X17867682Y-9941246D01*
X17867682Y-9941246D02*
X17858158Y-9960293D01*
X17858158Y-9960293D02*
X17858158Y-9998389D01*
X17858158Y-9998389D02*
X17867682Y-10017436D01*
X17867682Y-10017436D02*
X17877206Y-10026960D01*
X17877206Y-10026960D02*
X17896253Y-10036484D01*
X17896253Y-10036484D02*
X17934349Y-10036484D01*
X17934349Y-10036484D02*
X17953396Y-10026960D01*
X17953396Y-10026960D02*
X17962920Y-10017436D01*
X17962920Y-10017436D02*
X17972444Y-9998389D01*
X17972444Y-9998389D02*
X17972444Y-9960293D01*
X17972444Y-9960293D02*
X17962920Y-9941246D01*
X17962920Y-9941246D02*
X17953396Y-9931722D01*
X17953396Y-9931722D02*
X17934349Y-9922198D01*
X18048634Y-9836484D02*
X18048634Y-9874579D01*
X18124825Y-9836484D02*
X18124825Y-9874579D01*
X18420063Y-10112674D02*
X18410539Y-10103150D01*
X18410539Y-10103150D02*
X18391491Y-10074579D01*
X18391491Y-10074579D02*
X18381968Y-10055531D01*
X18381968Y-10055531D02*
X18372444Y-10026960D01*
X18372444Y-10026960D02*
X18362920Y-9979341D01*
X18362920Y-9979341D02*
X18362920Y-9941246D01*
X18362920Y-9941246D02*
X18372444Y-9893627D01*
X18372444Y-9893627D02*
X18381968Y-9865055D01*
X18381968Y-9865055D02*
X18391491Y-9846008D01*
X18391491Y-9846008D02*
X18410539Y-9817436D01*
X18410539Y-9817436D02*
X18420063Y-9807912D01*
X18601015Y-10036484D02*
X18486730Y-10036484D01*
X18543872Y-10036484D02*
X18543872Y-9836484D01*
X18543872Y-9836484D02*
X18524825Y-9865055D01*
X18524825Y-9865055D02*
X18505777Y-9884103D01*
X18505777Y-9884103D02*
X18486730Y-9893627D01*
X18667682Y-9836484D02*
X18791491Y-9836484D01*
X18791491Y-9836484D02*
X18724825Y-9912674D01*
X18724825Y-9912674D02*
X18753396Y-9912674D01*
X18753396Y-9912674D02*
X18772444Y-9922198D01*
X18772444Y-9922198D02*
X18781968Y-9931722D01*
X18781968Y-9931722D02*
X18791491Y-9950770D01*
X18791491Y-9950770D02*
X18791491Y-9998389D01*
X18791491Y-9998389D02*
X18781968Y-10017436D01*
X18781968Y-10017436D02*
X18772444Y-10026960D01*
X18772444Y-10026960D02*
X18753396Y-10036484D01*
X18753396Y-10036484D02*
X18696253Y-10036484D01*
X18696253Y-10036484D02*
X18677206Y-10026960D01*
X18677206Y-10026960D02*
X18667682Y-10017436D01*
X18886730Y-10036484D02*
X18924825Y-10036484D01*
X18924825Y-10036484D02*
X18943872Y-10026960D01*
X18943872Y-10026960D02*
X18953396Y-10017436D01*
X18953396Y-10017436D02*
X18972444Y-9988865D01*
X18972444Y-9988865D02*
X18981968Y-9950770D01*
X18981968Y-9950770D02*
X18981968Y-9874579D01*
X18981968Y-9874579D02*
X18972444Y-9855531D01*
X18972444Y-9855531D02*
X18962920Y-9846008D01*
X18962920Y-9846008D02*
X18943872Y-9836484D01*
X18943872Y-9836484D02*
X18905777Y-9836484D01*
X18905777Y-9836484D02*
X18886730Y-9846008D01*
X18886730Y-9846008D02*
X18877206Y-9855531D01*
X18877206Y-9855531D02*
X18867682Y-9874579D01*
X18867682Y-9874579D02*
X18867682Y-9922198D01*
X18867682Y-9922198D02*
X18877206Y-9941246D01*
X18877206Y-9941246D02*
X18886730Y-9950770D01*
X18886730Y-9950770D02*
X18905777Y-9960293D01*
X18905777Y-9960293D02*
X18943872Y-9960293D01*
X18943872Y-9960293D02*
X18962920Y-9950770D01*
X18962920Y-9950770D02*
X18972444Y-9941246D01*
X18972444Y-9941246D02*
X18981968Y-9922198D01*
X19220063Y-10036484D02*
X19220063Y-9836484D01*
X19305777Y-10036484D02*
X19305777Y-9931722D01*
X19305777Y-9931722D02*
X19296253Y-9912674D01*
X19296253Y-9912674D02*
X19277206Y-9903150D01*
X19277206Y-9903150D02*
X19248634Y-9903150D01*
X19248634Y-9903150D02*
X19229587Y-9912674D01*
X19229587Y-9912674D02*
X19220063Y-9922198D01*
X19429587Y-10036484D02*
X19410539Y-10026960D01*
X19410539Y-10026960D02*
X19401015Y-10017436D01*
X19401015Y-10017436D02*
X19391492Y-9998389D01*
X19391492Y-9998389D02*
X19391492Y-9941246D01*
X19391492Y-9941246D02*
X19401015Y-9922198D01*
X19401015Y-9922198D02*
X19410539Y-9912674D01*
X19410539Y-9912674D02*
X19429587Y-9903150D01*
X19429587Y-9903150D02*
X19458158Y-9903150D01*
X19458158Y-9903150D02*
X19477206Y-9912674D01*
X19477206Y-9912674D02*
X19486730Y-9922198D01*
X19486730Y-9922198D02*
X19496253Y-9941246D01*
X19496253Y-9941246D02*
X19496253Y-9998389D01*
X19496253Y-9998389D02*
X19486730Y-10017436D01*
X19486730Y-10017436D02*
X19477206Y-10026960D01*
X19477206Y-10026960D02*
X19458158Y-10036484D01*
X19458158Y-10036484D02*
X19429587Y-10036484D01*
X19610539Y-10036484D02*
X19591492Y-10026960D01*
X19591492Y-10026960D02*
X19581968Y-10007912D01*
X19581968Y-10007912D02*
X19581968Y-9836484D01*
X19762920Y-10026960D02*
X19743873Y-10036484D01*
X19743873Y-10036484D02*
X19705777Y-10036484D01*
X19705777Y-10036484D02*
X19686730Y-10026960D01*
X19686730Y-10026960D02*
X19677206Y-10007912D01*
X19677206Y-10007912D02*
X19677206Y-9931722D01*
X19677206Y-9931722D02*
X19686730Y-9912674D01*
X19686730Y-9912674D02*
X19705777Y-9903150D01*
X19705777Y-9903150D02*
X19743873Y-9903150D01*
X19743873Y-9903150D02*
X19762920Y-9912674D01*
X19762920Y-9912674D02*
X19772444Y-9931722D01*
X19772444Y-9931722D02*
X19772444Y-9950770D01*
X19772444Y-9950770D02*
X19677206Y-9969817D01*
X19848634Y-10026960D02*
X19867682Y-10036484D01*
X19867682Y-10036484D02*
X19905777Y-10036484D01*
X19905777Y-10036484D02*
X19924825Y-10026960D01*
X19924825Y-10026960D02*
X19934349Y-10007912D01*
X19934349Y-10007912D02*
X19934349Y-9998389D01*
X19934349Y-9998389D02*
X19924825Y-9979341D01*
X19924825Y-9979341D02*
X19905777Y-9969817D01*
X19905777Y-9969817D02*
X19877206Y-9969817D01*
X19877206Y-9969817D02*
X19858158Y-9960293D01*
X19858158Y-9960293D02*
X19848634Y-9941246D01*
X19848634Y-9941246D02*
X19848634Y-9931722D01*
X19848634Y-9931722D02*
X19858158Y-9912674D01*
X19858158Y-9912674D02*
X19877206Y-9903150D01*
X19877206Y-9903150D02*
X19905777Y-9903150D01*
X19905777Y-9903150D02*
X19924825Y-9912674D01*
X20001015Y-10112674D02*
X20010539Y-10103150D01*
X20010539Y-10103150D02*
X20029587Y-10074579D01*
X20029587Y-10074579D02*
X20039111Y-10055531D01*
X20039111Y-10055531D02*
X20048634Y-10026960D01*
X20048634Y-10026960D02*
X20058158Y-9979341D01*
X20058158Y-9979341D02*
X20058158Y-9941246D01*
X20058158Y-9941246D02*
X20048634Y-9893627D01*
X20048634Y-9893627D02*
X20039111Y-9865055D01*
X20039111Y-9865055D02*
X20029587Y-9846008D01*
X20029587Y-9846008D02*
X20010539Y-9817436D01*
X20010539Y-9817436D02*
X20001015Y-9807912D01*
D10*
X14845000Y-10209000D02*
G75*
G02*
X14815000Y-10209000I-15000J0D01*
G01*
X14815000Y-10209000D02*
G75*
G02*
X14845000Y-10209000I15000J0D01*
G01*
D11*
X15143872Y-10100484D02*
X15162920Y-10100484D01*
X15162920Y-10100484D02*
X15181967Y-10110008D01*
X15181967Y-10110008D02*
X15191491Y-10119531D01*
X15191491Y-10119531D02*
X15201015Y-10138579D01*
X15201015Y-10138579D02*
X15210539Y-10176674D01*
X15210539Y-10176674D02*
X15210539Y-10224293D01*
X15210539Y-10224293D02*
X15201015Y-10262389D01*
X15201015Y-10262389D02*
X15191491Y-10281436D01*
X15191491Y-10281436D02*
X15181967Y-10290960D01*
X15181967Y-10290960D02*
X15162920Y-10300484D01*
X15162920Y-10300484D02*
X15143872Y-10300484D01*
X15143872Y-10300484D02*
X15124824Y-10290960D01*
X15124824Y-10290960D02*
X15115301Y-10281436D01*
X15115301Y-10281436D02*
X15105777Y-10262389D01*
X15105777Y-10262389D02*
X15096253Y-10224293D01*
X15096253Y-10224293D02*
X15096253Y-10176674D01*
X15096253Y-10176674D02*
X15105777Y-10138579D01*
X15105777Y-10138579D02*
X15115301Y-10119531D01*
X15115301Y-10119531D02*
X15124824Y-10110008D01*
X15124824Y-10110008D02*
X15143872Y-10100484D01*
X15296253Y-10281436D02*
X15305777Y-10290960D01*
X15305777Y-10290960D02*
X15296253Y-10300484D01*
X15296253Y-10300484D02*
X15286729Y-10290960D01*
X15286729Y-10290960D02*
X15296253Y-10281436D01*
X15296253Y-10281436D02*
X15296253Y-10300484D01*
X15372443Y-10100484D02*
X15496253Y-10100484D01*
X15496253Y-10100484D02*
X15429586Y-10176674D01*
X15429586Y-10176674D02*
X15458158Y-10176674D01*
X15458158Y-10176674D02*
X15477205Y-10186198D01*
X15477205Y-10186198D02*
X15486729Y-10195722D01*
X15486729Y-10195722D02*
X15496253Y-10214770D01*
X15496253Y-10214770D02*
X15496253Y-10262389D01*
X15496253Y-10262389D02*
X15486729Y-10281436D01*
X15486729Y-10281436D02*
X15477205Y-10290960D01*
X15477205Y-10290960D02*
X15458158Y-10300484D01*
X15458158Y-10300484D02*
X15401015Y-10300484D01*
X15401015Y-10300484D02*
X15381967Y-10290960D01*
X15381967Y-10290960D02*
X15372443Y-10281436D01*
X15620062Y-10100484D02*
X15639110Y-10100484D01*
X15639110Y-10100484D02*
X15658158Y-10110008D01*
X15658158Y-10110008D02*
X15667682Y-10119531D01*
X15667682Y-10119531D02*
X15677205Y-10138579D01*
X15677205Y-10138579D02*
X15686729Y-10176674D01*
X15686729Y-10176674D02*
X15686729Y-10224293D01*
X15686729Y-10224293D02*
X15677205Y-10262389D01*
X15677205Y-10262389D02*
X15667682Y-10281436D01*
X15667682Y-10281436D02*
X15658158Y-10290960D01*
X15658158Y-10290960D02*
X15639110Y-10300484D01*
X15639110Y-10300484D02*
X15620062Y-10300484D01*
X15620062Y-10300484D02*
X15601015Y-10290960D01*
X15601015Y-10290960D02*
X15591491Y-10281436D01*
X15591491Y-10281436D02*
X15581967Y-10262389D01*
X15581967Y-10262389D02*
X15572443Y-10224293D01*
X15572443Y-10224293D02*
X15572443Y-10176674D01*
X15572443Y-10176674D02*
X15581967Y-10138579D01*
X15581967Y-10138579D02*
X15591491Y-10119531D01*
X15591491Y-10119531D02*
X15601015Y-10110008D01*
X15601015Y-10110008D02*
X15620062Y-10100484D01*
X15810539Y-10100484D02*
X15829586Y-10100484D01*
X15829586Y-10100484D02*
X15848634Y-10110008D01*
X15848634Y-10110008D02*
X15858158Y-10119531D01*
X15858158Y-10119531D02*
X15867682Y-10138579D01*
X15867682Y-10138579D02*
X15877205Y-10176674D01*
X15877205Y-10176674D02*
X15877205Y-10224293D01*
X15877205Y-10224293D02*
X15867682Y-10262389D01*
X15867682Y-10262389D02*
X15858158Y-10281436D01*
X15858158Y-10281436D02*
X15848634Y-10290960D01*
X15848634Y-10290960D02*
X15829586Y-10300484D01*
X15829586Y-10300484D02*
X15810539Y-10300484D01*
X15810539Y-10300484D02*
X15791491Y-10290960D01*
X15791491Y-10290960D02*
X15781967Y-10281436D01*
X15781967Y-10281436D02*
X15772443Y-10262389D01*
X15772443Y-10262389D02*
X15762920Y-10224293D01*
X15762920Y-10224293D02*
X15762920Y-10176674D01*
X15762920Y-10176674D02*
X15772443Y-10138579D01*
X15772443Y-10138579D02*
X15781967Y-10119531D01*
X15781967Y-10119531D02*
X15791491Y-10110008D01*
X15791491Y-10110008D02*
X15810539Y-10100484D01*
X15962920Y-10300484D02*
X15962920Y-10167150D01*
X15962920Y-10186198D02*
X15972443Y-10176674D01*
X15972443Y-10176674D02*
X15991491Y-10167150D01*
X15991491Y-10167150D02*
X16020063Y-10167150D01*
X16020063Y-10167150D02*
X16039110Y-10176674D01*
X16039110Y-10176674D02*
X16048634Y-10195722D01*
X16048634Y-10195722D02*
X16048634Y-10300484D01*
X16048634Y-10195722D02*
X16058158Y-10176674D01*
X16058158Y-10176674D02*
X16077205Y-10167150D01*
X16077205Y-10167150D02*
X16105777Y-10167150D01*
X16105777Y-10167150D02*
X16124824Y-10176674D01*
X16124824Y-10176674D02*
X16134348Y-10195722D01*
X16134348Y-10195722D02*
X16134348Y-10300484D01*
X16229586Y-10300484D02*
X16229586Y-10167150D01*
X16229586Y-10186198D02*
X16239110Y-10176674D01*
X16239110Y-10176674D02*
X16258158Y-10167150D01*
X16258158Y-10167150D02*
X16286729Y-10167150D01*
X16286729Y-10167150D02*
X16305777Y-10176674D01*
X16305777Y-10176674D02*
X16315301Y-10195722D01*
X16315301Y-10195722D02*
X16315301Y-10300484D01*
X16315301Y-10195722D02*
X16324824Y-10176674D01*
X16324824Y-10176674D02*
X16343872Y-10167150D01*
X16343872Y-10167150D02*
X16372443Y-10167150D01*
X16372443Y-10167150D02*
X16391491Y-10176674D01*
X16391491Y-10176674D02*
X16401015Y-10195722D01*
X16401015Y-10195722D02*
X16401015Y-10300484D01*
X16791491Y-10090960D02*
X16620063Y-10348103D01*
X17048634Y-10100484D02*
X17067682Y-10100484D01*
X17067682Y-10100484D02*
X17086729Y-10110008D01*
X17086729Y-10110008D02*
X17096253Y-10119531D01*
X17096253Y-10119531D02*
X17105777Y-10138579D01*
X17105777Y-10138579D02*
X17115301Y-10176674D01*
X17115301Y-10176674D02*
X17115301Y-10224293D01*
X17115301Y-10224293D02*
X17105777Y-10262389D01*
X17105777Y-10262389D02*
X17096253Y-10281436D01*
X17096253Y-10281436D02*
X17086729Y-10290960D01*
X17086729Y-10290960D02*
X17067682Y-10300484D01*
X17067682Y-10300484D02*
X17048634Y-10300484D01*
X17048634Y-10300484D02*
X17029587Y-10290960D01*
X17029587Y-10290960D02*
X17020063Y-10281436D01*
X17020063Y-10281436D02*
X17010539Y-10262389D01*
X17010539Y-10262389D02*
X17001015Y-10224293D01*
X17001015Y-10224293D02*
X17001015Y-10176674D01*
X17001015Y-10176674D02*
X17010539Y-10138579D01*
X17010539Y-10138579D02*
X17020063Y-10119531D01*
X17020063Y-10119531D02*
X17029587Y-10110008D01*
X17029587Y-10110008D02*
X17048634Y-10100484D01*
X17201015Y-10281436D02*
X17210539Y-10290960D01*
X17210539Y-10290960D02*
X17201015Y-10300484D01*
X17201015Y-10300484D02*
X17191491Y-10290960D01*
X17191491Y-10290960D02*
X17201015Y-10281436D01*
X17201015Y-10281436D02*
X17201015Y-10300484D01*
X17334348Y-10100484D02*
X17353396Y-10100484D01*
X17353396Y-10100484D02*
X17372444Y-10110008D01*
X17372444Y-10110008D02*
X17381968Y-10119531D01*
X17381968Y-10119531D02*
X17391491Y-10138579D01*
X17391491Y-10138579D02*
X17401015Y-10176674D01*
X17401015Y-10176674D02*
X17401015Y-10224293D01*
X17401015Y-10224293D02*
X17391491Y-10262389D01*
X17391491Y-10262389D02*
X17381968Y-10281436D01*
X17381968Y-10281436D02*
X17372444Y-10290960D01*
X17372444Y-10290960D02*
X17353396Y-10300484D01*
X17353396Y-10300484D02*
X17334348Y-10300484D01*
X17334348Y-10300484D02*
X17315301Y-10290960D01*
X17315301Y-10290960D02*
X17305777Y-10281436D01*
X17305777Y-10281436D02*
X17296253Y-10262389D01*
X17296253Y-10262389D02*
X17286729Y-10224293D01*
X17286729Y-10224293D02*
X17286729Y-10176674D01*
X17286729Y-10176674D02*
X17296253Y-10138579D01*
X17296253Y-10138579D02*
X17305777Y-10119531D01*
X17305777Y-10119531D02*
X17315301Y-10110008D01*
X17315301Y-10110008D02*
X17334348Y-10100484D01*
X17591491Y-10300484D02*
X17477206Y-10300484D01*
X17534348Y-10300484D02*
X17534348Y-10100484D01*
X17534348Y-10100484D02*
X17515301Y-10129055D01*
X17515301Y-10129055D02*
X17496253Y-10148103D01*
X17496253Y-10148103D02*
X17477206Y-10157627D01*
X17781968Y-10300484D02*
X17667682Y-10300484D01*
X17724825Y-10300484D02*
X17724825Y-10100484D01*
X17724825Y-10100484D02*
X17705777Y-10129055D01*
X17705777Y-10129055D02*
X17686729Y-10148103D01*
X17686729Y-10148103D02*
X17667682Y-10157627D01*
X17896253Y-10186198D02*
X17877206Y-10176674D01*
X17877206Y-10176674D02*
X17867682Y-10167150D01*
X17867682Y-10167150D02*
X17858158Y-10148103D01*
X17858158Y-10148103D02*
X17858158Y-10138579D01*
X17858158Y-10138579D02*
X17867682Y-10119531D01*
X17867682Y-10119531D02*
X17877206Y-10110008D01*
X17877206Y-10110008D02*
X17896253Y-10100484D01*
X17896253Y-10100484D02*
X17934349Y-10100484D01*
X17934349Y-10100484D02*
X17953396Y-10110008D01*
X17953396Y-10110008D02*
X17962920Y-10119531D01*
X17962920Y-10119531D02*
X17972444Y-10138579D01*
X17972444Y-10138579D02*
X17972444Y-10148103D01*
X17972444Y-10148103D02*
X17962920Y-10167150D01*
X17962920Y-10167150D02*
X17953396Y-10176674D01*
X17953396Y-10176674D02*
X17934349Y-10186198D01*
X17934349Y-10186198D02*
X17896253Y-10186198D01*
X17896253Y-10186198D02*
X17877206Y-10195722D01*
X17877206Y-10195722D02*
X17867682Y-10205246D01*
X17867682Y-10205246D02*
X17858158Y-10224293D01*
X17858158Y-10224293D02*
X17858158Y-10262389D01*
X17858158Y-10262389D02*
X17867682Y-10281436D01*
X17867682Y-10281436D02*
X17877206Y-10290960D01*
X17877206Y-10290960D02*
X17896253Y-10300484D01*
X17896253Y-10300484D02*
X17934349Y-10300484D01*
X17934349Y-10300484D02*
X17953396Y-10290960D01*
X17953396Y-10290960D02*
X17962920Y-10281436D01*
X17962920Y-10281436D02*
X17972444Y-10262389D01*
X17972444Y-10262389D02*
X17972444Y-10224293D01*
X17972444Y-10224293D02*
X17962920Y-10205246D01*
X17962920Y-10205246D02*
X17953396Y-10195722D01*
X17953396Y-10195722D02*
X17934349Y-10186198D01*
X18048634Y-10100484D02*
X18048634Y-10138579D01*
X18124825Y-10100484D02*
X18124825Y-10138579D01*
X18420063Y-10376674D02*
X18410539Y-10367150D01*
X18410539Y-10367150D02*
X18391491Y-10338579D01*
X18391491Y-10338579D02*
X18381968Y-10319531D01*
X18381968Y-10319531D02*
X18372444Y-10290960D01*
X18372444Y-10290960D02*
X18362920Y-10243341D01*
X18362920Y-10243341D02*
X18362920Y-10205246D01*
X18362920Y-10205246D02*
X18372444Y-10157627D01*
X18372444Y-10157627D02*
X18381968Y-10129055D01*
X18381968Y-10129055D02*
X18391491Y-10110008D01*
X18391491Y-10110008D02*
X18410539Y-10081436D01*
X18410539Y-10081436D02*
X18420063Y-10071912D01*
X18505777Y-10300484D02*
X18543872Y-10300484D01*
X18543872Y-10300484D02*
X18562920Y-10290960D01*
X18562920Y-10290960D02*
X18572444Y-10281436D01*
X18572444Y-10281436D02*
X18591491Y-10252865D01*
X18591491Y-10252865D02*
X18601015Y-10214770D01*
X18601015Y-10214770D02*
X18601015Y-10138579D01*
X18601015Y-10138579D02*
X18591491Y-10119531D01*
X18591491Y-10119531D02*
X18581968Y-10110008D01*
X18581968Y-10110008D02*
X18562920Y-10100484D01*
X18562920Y-10100484D02*
X18524825Y-10100484D01*
X18524825Y-10100484D02*
X18505777Y-10110008D01*
X18505777Y-10110008D02*
X18496253Y-10119531D01*
X18496253Y-10119531D02*
X18486730Y-10138579D01*
X18486730Y-10138579D02*
X18486730Y-10186198D01*
X18486730Y-10186198D02*
X18496253Y-10205246D01*
X18496253Y-10205246D02*
X18505777Y-10214770D01*
X18505777Y-10214770D02*
X18524825Y-10224293D01*
X18524825Y-10224293D02*
X18562920Y-10224293D01*
X18562920Y-10224293D02*
X18581968Y-10214770D01*
X18581968Y-10214770D02*
X18591491Y-10205246D01*
X18591491Y-10205246D02*
X18601015Y-10186198D01*
X18839111Y-10300484D02*
X18839111Y-10100484D01*
X18924825Y-10300484D02*
X18924825Y-10195722D01*
X18924825Y-10195722D02*
X18915301Y-10176674D01*
X18915301Y-10176674D02*
X18896253Y-10167150D01*
X18896253Y-10167150D02*
X18867682Y-10167150D01*
X18867682Y-10167150D02*
X18848634Y-10176674D01*
X18848634Y-10176674D02*
X18839111Y-10186198D01*
X19048634Y-10300484D02*
X19029587Y-10290960D01*
X19029587Y-10290960D02*
X19020063Y-10281436D01*
X19020063Y-10281436D02*
X19010539Y-10262389D01*
X19010539Y-10262389D02*
X19010539Y-10205246D01*
X19010539Y-10205246D02*
X19020063Y-10186198D01*
X19020063Y-10186198D02*
X19029587Y-10176674D01*
X19029587Y-10176674D02*
X19048634Y-10167150D01*
X19048634Y-10167150D02*
X19077206Y-10167150D01*
X19077206Y-10167150D02*
X19096253Y-10176674D01*
X19096253Y-10176674D02*
X19105777Y-10186198D01*
X19105777Y-10186198D02*
X19115301Y-10205246D01*
X19115301Y-10205246D02*
X19115301Y-10262389D01*
X19115301Y-10262389D02*
X19105777Y-10281436D01*
X19105777Y-10281436D02*
X19096253Y-10290960D01*
X19096253Y-10290960D02*
X19077206Y-10300484D01*
X19077206Y-10300484D02*
X19048634Y-10300484D01*
X19229587Y-10300484D02*
X19210539Y-10290960D01*
X19210539Y-10290960D02*
X19201015Y-10271912D01*
X19201015Y-10271912D02*
X19201015Y-10100484D01*
X19381968Y-10290960D02*
X19362920Y-10300484D01*
X19362920Y-10300484D02*
X19324825Y-10300484D01*
X19324825Y-10300484D02*
X19305777Y-10290960D01*
X19305777Y-10290960D02*
X19296253Y-10271912D01*
X19296253Y-10271912D02*
X19296253Y-10195722D01*
X19296253Y-10195722D02*
X19305777Y-10176674D01*
X19305777Y-10176674D02*
X19324825Y-10167150D01*
X19324825Y-10167150D02*
X19362920Y-10167150D01*
X19362920Y-10167150D02*
X19381968Y-10176674D01*
X19381968Y-10176674D02*
X19391492Y-10195722D01*
X19391492Y-10195722D02*
X19391492Y-10214770D01*
X19391492Y-10214770D02*
X19296253Y-10233817D01*
X19467682Y-10290960D02*
X19486730Y-10300484D01*
X19486730Y-10300484D02*
X19524825Y-10300484D01*
X19524825Y-10300484D02*
X19543873Y-10290960D01*
X19543873Y-10290960D02*
X19553396Y-10271912D01*
X19553396Y-10271912D02*
X19553396Y-10262389D01*
X19553396Y-10262389D02*
X19543873Y-10243341D01*
X19543873Y-10243341D02*
X19524825Y-10233817D01*
X19524825Y-10233817D02*
X19496253Y-10233817D01*
X19496253Y-10233817D02*
X19477206Y-10224293D01*
X19477206Y-10224293D02*
X19467682Y-10205246D01*
X19467682Y-10205246D02*
X19467682Y-10195722D01*
X19467682Y-10195722D02*
X19477206Y-10176674D01*
X19477206Y-10176674D02*
X19496253Y-10167150D01*
X19496253Y-10167150D02*
X19524825Y-10167150D01*
X19524825Y-10167150D02*
X19543873Y-10176674D01*
X19620063Y-10376674D02*
X19629587Y-10367150D01*
X19629587Y-10367150D02*
X19648634Y-10338579D01*
X19648634Y-10338579D02*
X19658158Y-10319531D01*
X19658158Y-10319531D02*
X19667682Y-10290960D01*
X19667682Y-10290960D02*
X19677206Y-10243341D01*
X19677206Y-10243341D02*
X19677206Y-10205246D01*
X19677206Y-10205246D02*
X19667682Y-10157627D01*
X19667682Y-10157627D02*
X19658158Y-10129055D01*
X19658158Y-10129055D02*
X19648634Y-10110008D01*
X19648634Y-10110008D02*
X19629587Y-10081436D01*
X19629587Y-10081436D02*
X19620063Y-10071912D01*
D10*
X14815000Y-10443000D02*
X14815000Y-10503000D01*
X14785000Y-10473000D02*
X14845000Y-10473000D01*
D11*
X15143872Y-10364484D02*
X15162920Y-10364484D01*
X15162920Y-10364484D02*
X15181967Y-10374008D01*
X15181967Y-10374008D02*
X15191491Y-10383531D01*
X15191491Y-10383531D02*
X15201015Y-10402579D01*
X15201015Y-10402579D02*
X15210539Y-10440674D01*
X15210539Y-10440674D02*
X15210539Y-10488293D01*
X15210539Y-10488293D02*
X15201015Y-10526389D01*
X15201015Y-10526389D02*
X15191491Y-10545436D01*
X15191491Y-10545436D02*
X15181967Y-10554960D01*
X15181967Y-10554960D02*
X15162920Y-10564484D01*
X15162920Y-10564484D02*
X15143872Y-10564484D01*
X15143872Y-10564484D02*
X15124824Y-10554960D01*
X15124824Y-10554960D02*
X15115301Y-10545436D01*
X15115301Y-10545436D02*
X15105777Y-10526389D01*
X15105777Y-10526389D02*
X15096253Y-10488293D01*
X15096253Y-10488293D02*
X15096253Y-10440674D01*
X15096253Y-10440674D02*
X15105777Y-10402579D01*
X15105777Y-10402579D02*
X15115301Y-10383531D01*
X15115301Y-10383531D02*
X15124824Y-10374008D01*
X15124824Y-10374008D02*
X15143872Y-10364484D01*
X15296253Y-10545436D02*
X15305777Y-10554960D01*
X15305777Y-10554960D02*
X15296253Y-10564484D01*
X15296253Y-10564484D02*
X15286729Y-10554960D01*
X15286729Y-10554960D02*
X15296253Y-10545436D01*
X15296253Y-10545436D02*
X15296253Y-10564484D01*
X15477205Y-10364484D02*
X15439110Y-10364484D01*
X15439110Y-10364484D02*
X15420062Y-10374008D01*
X15420062Y-10374008D02*
X15410539Y-10383531D01*
X15410539Y-10383531D02*
X15391491Y-10412103D01*
X15391491Y-10412103D02*
X15381967Y-10450198D01*
X15381967Y-10450198D02*
X15381967Y-10526389D01*
X15381967Y-10526389D02*
X15391491Y-10545436D01*
X15391491Y-10545436D02*
X15401015Y-10554960D01*
X15401015Y-10554960D02*
X15420062Y-10564484D01*
X15420062Y-10564484D02*
X15458158Y-10564484D01*
X15458158Y-10564484D02*
X15477205Y-10554960D01*
X15477205Y-10554960D02*
X15486729Y-10545436D01*
X15486729Y-10545436D02*
X15496253Y-10526389D01*
X15496253Y-10526389D02*
X15496253Y-10478770D01*
X15496253Y-10478770D02*
X15486729Y-10459722D01*
X15486729Y-10459722D02*
X15477205Y-10450198D01*
X15477205Y-10450198D02*
X15458158Y-10440674D01*
X15458158Y-10440674D02*
X15420062Y-10440674D01*
X15420062Y-10440674D02*
X15401015Y-10450198D01*
X15401015Y-10450198D02*
X15391491Y-10459722D01*
X15391491Y-10459722D02*
X15381967Y-10478770D01*
X15620062Y-10364484D02*
X15639110Y-10364484D01*
X15639110Y-10364484D02*
X15658158Y-10374008D01*
X15658158Y-10374008D02*
X15667682Y-10383531D01*
X15667682Y-10383531D02*
X15677205Y-10402579D01*
X15677205Y-10402579D02*
X15686729Y-10440674D01*
X15686729Y-10440674D02*
X15686729Y-10488293D01*
X15686729Y-10488293D02*
X15677205Y-10526389D01*
X15677205Y-10526389D02*
X15667682Y-10545436D01*
X15667682Y-10545436D02*
X15658158Y-10554960D01*
X15658158Y-10554960D02*
X15639110Y-10564484D01*
X15639110Y-10564484D02*
X15620062Y-10564484D01*
X15620062Y-10564484D02*
X15601015Y-10554960D01*
X15601015Y-10554960D02*
X15591491Y-10545436D01*
X15591491Y-10545436D02*
X15581967Y-10526389D01*
X15581967Y-10526389D02*
X15572443Y-10488293D01*
X15572443Y-10488293D02*
X15572443Y-10440674D01*
X15572443Y-10440674D02*
X15581967Y-10402579D01*
X15581967Y-10402579D02*
X15591491Y-10383531D01*
X15591491Y-10383531D02*
X15601015Y-10374008D01*
X15601015Y-10374008D02*
X15620062Y-10364484D01*
X15810539Y-10364484D02*
X15829586Y-10364484D01*
X15829586Y-10364484D02*
X15848634Y-10374008D01*
X15848634Y-10374008D02*
X15858158Y-10383531D01*
X15858158Y-10383531D02*
X15867682Y-10402579D01*
X15867682Y-10402579D02*
X15877205Y-10440674D01*
X15877205Y-10440674D02*
X15877205Y-10488293D01*
X15877205Y-10488293D02*
X15867682Y-10526389D01*
X15867682Y-10526389D02*
X15858158Y-10545436D01*
X15858158Y-10545436D02*
X15848634Y-10554960D01*
X15848634Y-10554960D02*
X15829586Y-10564484D01*
X15829586Y-10564484D02*
X15810539Y-10564484D01*
X15810539Y-10564484D02*
X15791491Y-10554960D01*
X15791491Y-10554960D02*
X15781967Y-10545436D01*
X15781967Y-10545436D02*
X15772443Y-10526389D01*
X15772443Y-10526389D02*
X15762920Y-10488293D01*
X15762920Y-10488293D02*
X15762920Y-10440674D01*
X15762920Y-10440674D02*
X15772443Y-10402579D01*
X15772443Y-10402579D02*
X15781967Y-10383531D01*
X15781967Y-10383531D02*
X15791491Y-10374008D01*
X15791491Y-10374008D02*
X15810539Y-10364484D01*
X15962920Y-10564484D02*
X15962920Y-10431150D01*
X15962920Y-10450198D02*
X15972443Y-10440674D01*
X15972443Y-10440674D02*
X15991491Y-10431150D01*
X15991491Y-10431150D02*
X16020063Y-10431150D01*
X16020063Y-10431150D02*
X16039110Y-10440674D01*
X16039110Y-10440674D02*
X16048634Y-10459722D01*
X16048634Y-10459722D02*
X16048634Y-10564484D01*
X16048634Y-10459722D02*
X16058158Y-10440674D01*
X16058158Y-10440674D02*
X16077205Y-10431150D01*
X16077205Y-10431150D02*
X16105777Y-10431150D01*
X16105777Y-10431150D02*
X16124824Y-10440674D01*
X16124824Y-10440674D02*
X16134348Y-10459722D01*
X16134348Y-10459722D02*
X16134348Y-10564484D01*
X16229586Y-10564484D02*
X16229586Y-10431150D01*
X16229586Y-10450198D02*
X16239110Y-10440674D01*
X16239110Y-10440674D02*
X16258158Y-10431150D01*
X16258158Y-10431150D02*
X16286729Y-10431150D01*
X16286729Y-10431150D02*
X16305777Y-10440674D01*
X16305777Y-10440674D02*
X16315301Y-10459722D01*
X16315301Y-10459722D02*
X16315301Y-10564484D01*
X16315301Y-10459722D02*
X16324824Y-10440674D01*
X16324824Y-10440674D02*
X16343872Y-10431150D01*
X16343872Y-10431150D02*
X16372443Y-10431150D01*
X16372443Y-10431150D02*
X16391491Y-10440674D01*
X16391491Y-10440674D02*
X16401015Y-10459722D01*
X16401015Y-10459722D02*
X16401015Y-10564484D01*
X16791491Y-10354960D02*
X16620063Y-10612103D01*
X17048634Y-10364484D02*
X17067682Y-10364484D01*
X17067682Y-10364484D02*
X17086729Y-10374008D01*
X17086729Y-10374008D02*
X17096253Y-10383531D01*
X17096253Y-10383531D02*
X17105777Y-10402579D01*
X17105777Y-10402579D02*
X17115301Y-10440674D01*
X17115301Y-10440674D02*
X17115301Y-10488293D01*
X17115301Y-10488293D02*
X17105777Y-10526389D01*
X17105777Y-10526389D02*
X17096253Y-10545436D01*
X17096253Y-10545436D02*
X17086729Y-10554960D01*
X17086729Y-10554960D02*
X17067682Y-10564484D01*
X17067682Y-10564484D02*
X17048634Y-10564484D01*
X17048634Y-10564484D02*
X17029587Y-10554960D01*
X17029587Y-10554960D02*
X17020063Y-10545436D01*
X17020063Y-10545436D02*
X17010539Y-10526389D01*
X17010539Y-10526389D02*
X17001015Y-10488293D01*
X17001015Y-10488293D02*
X17001015Y-10440674D01*
X17001015Y-10440674D02*
X17010539Y-10402579D01*
X17010539Y-10402579D02*
X17020063Y-10383531D01*
X17020063Y-10383531D02*
X17029587Y-10374008D01*
X17029587Y-10374008D02*
X17048634Y-10364484D01*
X17201015Y-10545436D02*
X17210539Y-10554960D01*
X17210539Y-10554960D02*
X17201015Y-10564484D01*
X17201015Y-10564484D02*
X17191491Y-10554960D01*
X17191491Y-10554960D02*
X17201015Y-10545436D01*
X17201015Y-10545436D02*
X17201015Y-10564484D01*
X17334348Y-10364484D02*
X17353396Y-10364484D01*
X17353396Y-10364484D02*
X17372444Y-10374008D01*
X17372444Y-10374008D02*
X17381968Y-10383531D01*
X17381968Y-10383531D02*
X17391491Y-10402579D01*
X17391491Y-10402579D02*
X17401015Y-10440674D01*
X17401015Y-10440674D02*
X17401015Y-10488293D01*
X17401015Y-10488293D02*
X17391491Y-10526389D01*
X17391491Y-10526389D02*
X17381968Y-10545436D01*
X17381968Y-10545436D02*
X17372444Y-10554960D01*
X17372444Y-10554960D02*
X17353396Y-10564484D01*
X17353396Y-10564484D02*
X17334348Y-10564484D01*
X17334348Y-10564484D02*
X17315301Y-10554960D01*
X17315301Y-10554960D02*
X17305777Y-10545436D01*
X17305777Y-10545436D02*
X17296253Y-10526389D01*
X17296253Y-10526389D02*
X17286729Y-10488293D01*
X17286729Y-10488293D02*
X17286729Y-10440674D01*
X17286729Y-10440674D02*
X17296253Y-10402579D01*
X17296253Y-10402579D02*
X17305777Y-10383531D01*
X17305777Y-10383531D02*
X17315301Y-10374008D01*
X17315301Y-10374008D02*
X17334348Y-10364484D01*
X17477206Y-10383531D02*
X17486729Y-10374008D01*
X17486729Y-10374008D02*
X17505777Y-10364484D01*
X17505777Y-10364484D02*
X17553396Y-10364484D01*
X17553396Y-10364484D02*
X17572444Y-10374008D01*
X17572444Y-10374008D02*
X17581968Y-10383531D01*
X17581968Y-10383531D02*
X17591491Y-10402579D01*
X17591491Y-10402579D02*
X17591491Y-10421627D01*
X17591491Y-10421627D02*
X17581968Y-10450198D01*
X17581968Y-10450198D02*
X17467682Y-10564484D01*
X17467682Y-10564484D02*
X17591491Y-10564484D01*
X17658158Y-10364484D02*
X17781968Y-10364484D01*
X17781968Y-10364484D02*
X17715301Y-10440674D01*
X17715301Y-10440674D02*
X17743872Y-10440674D01*
X17743872Y-10440674D02*
X17762920Y-10450198D01*
X17762920Y-10450198D02*
X17772444Y-10459722D01*
X17772444Y-10459722D02*
X17781968Y-10478770D01*
X17781968Y-10478770D02*
X17781968Y-10526389D01*
X17781968Y-10526389D02*
X17772444Y-10545436D01*
X17772444Y-10545436D02*
X17762920Y-10554960D01*
X17762920Y-10554960D02*
X17743872Y-10564484D01*
X17743872Y-10564484D02*
X17686729Y-10564484D01*
X17686729Y-10564484D02*
X17667682Y-10554960D01*
X17667682Y-10554960D02*
X17658158Y-10545436D01*
X17953396Y-10364484D02*
X17915301Y-10364484D01*
X17915301Y-10364484D02*
X17896253Y-10374008D01*
X17896253Y-10374008D02*
X17886729Y-10383531D01*
X17886729Y-10383531D02*
X17867682Y-10412103D01*
X17867682Y-10412103D02*
X17858158Y-10450198D01*
X17858158Y-10450198D02*
X17858158Y-10526389D01*
X17858158Y-10526389D02*
X17867682Y-10545436D01*
X17867682Y-10545436D02*
X17877206Y-10554960D01*
X17877206Y-10554960D02*
X17896253Y-10564484D01*
X17896253Y-10564484D02*
X17934349Y-10564484D01*
X17934349Y-10564484D02*
X17953396Y-10554960D01*
X17953396Y-10554960D02*
X17962920Y-10545436D01*
X17962920Y-10545436D02*
X17972444Y-10526389D01*
X17972444Y-10526389D02*
X17972444Y-10478770D01*
X17972444Y-10478770D02*
X17962920Y-10459722D01*
X17962920Y-10459722D02*
X17953396Y-10450198D01*
X17953396Y-10450198D02*
X17934349Y-10440674D01*
X17934349Y-10440674D02*
X17896253Y-10440674D01*
X17896253Y-10440674D02*
X17877206Y-10450198D01*
X17877206Y-10450198D02*
X17867682Y-10459722D01*
X17867682Y-10459722D02*
X17858158Y-10478770D01*
X18048634Y-10364484D02*
X18048634Y-10402579D01*
X18124825Y-10364484D02*
X18124825Y-10402579D01*
X18420063Y-10640674D02*
X18410539Y-10631150D01*
X18410539Y-10631150D02*
X18391491Y-10602579D01*
X18391491Y-10602579D02*
X18381968Y-10583531D01*
X18381968Y-10583531D02*
X18372444Y-10554960D01*
X18372444Y-10554960D02*
X18362920Y-10507341D01*
X18362920Y-10507341D02*
X18362920Y-10469246D01*
X18362920Y-10469246D02*
X18372444Y-10421627D01*
X18372444Y-10421627D02*
X18381968Y-10393055D01*
X18381968Y-10393055D02*
X18391491Y-10374008D01*
X18391491Y-10374008D02*
X18410539Y-10345436D01*
X18410539Y-10345436D02*
X18420063Y-10335912D01*
X18534349Y-10364484D02*
X18553396Y-10364484D01*
X18553396Y-10364484D02*
X18572444Y-10374008D01*
X18572444Y-10374008D02*
X18581968Y-10383531D01*
X18581968Y-10383531D02*
X18591491Y-10402579D01*
X18591491Y-10402579D02*
X18601015Y-10440674D01*
X18601015Y-10440674D02*
X18601015Y-10488293D01*
X18601015Y-10488293D02*
X18591491Y-10526389D01*
X18591491Y-10526389D02*
X18581968Y-10545436D01*
X18581968Y-10545436D02*
X18572444Y-10554960D01*
X18572444Y-10554960D02*
X18553396Y-10564484D01*
X18553396Y-10564484D02*
X18534349Y-10564484D01*
X18534349Y-10564484D02*
X18515301Y-10554960D01*
X18515301Y-10554960D02*
X18505777Y-10545436D01*
X18505777Y-10545436D02*
X18496253Y-10526389D01*
X18496253Y-10526389D02*
X18486730Y-10488293D01*
X18486730Y-10488293D02*
X18486730Y-10440674D01*
X18486730Y-10440674D02*
X18496253Y-10402579D01*
X18496253Y-10402579D02*
X18505777Y-10383531D01*
X18505777Y-10383531D02*
X18515301Y-10374008D01*
X18515301Y-10374008D02*
X18534349Y-10364484D01*
X18839111Y-10564484D02*
X18839111Y-10364484D01*
X18924825Y-10564484D02*
X18924825Y-10459722D01*
X18924825Y-10459722D02*
X18915301Y-10440674D01*
X18915301Y-10440674D02*
X18896253Y-10431150D01*
X18896253Y-10431150D02*
X18867682Y-10431150D01*
X18867682Y-10431150D02*
X18848634Y-10440674D01*
X18848634Y-10440674D02*
X18839111Y-10450198D01*
X19048634Y-10564484D02*
X19029587Y-10554960D01*
X19029587Y-10554960D02*
X19020063Y-10545436D01*
X19020063Y-10545436D02*
X19010539Y-10526389D01*
X19010539Y-10526389D02*
X19010539Y-10469246D01*
X19010539Y-10469246D02*
X19020063Y-10450198D01*
X19020063Y-10450198D02*
X19029587Y-10440674D01*
X19029587Y-10440674D02*
X19048634Y-10431150D01*
X19048634Y-10431150D02*
X19077206Y-10431150D01*
X19077206Y-10431150D02*
X19096253Y-10440674D01*
X19096253Y-10440674D02*
X19105777Y-10450198D01*
X19105777Y-10450198D02*
X19115301Y-10469246D01*
X19115301Y-10469246D02*
X19115301Y-10526389D01*
X19115301Y-10526389D02*
X19105777Y-10545436D01*
X19105777Y-10545436D02*
X19096253Y-10554960D01*
X19096253Y-10554960D02*
X19077206Y-10564484D01*
X19077206Y-10564484D02*
X19048634Y-10564484D01*
X19229587Y-10564484D02*
X19210539Y-10554960D01*
X19210539Y-10554960D02*
X19201015Y-10535912D01*
X19201015Y-10535912D02*
X19201015Y-10364484D01*
X19381968Y-10554960D02*
X19362920Y-10564484D01*
X19362920Y-10564484D02*
X19324825Y-10564484D01*
X19324825Y-10564484D02*
X19305777Y-10554960D01*
X19305777Y-10554960D02*
X19296253Y-10535912D01*
X19296253Y-10535912D02*
X19296253Y-10459722D01*
X19296253Y-10459722D02*
X19305777Y-10440674D01*
X19305777Y-10440674D02*
X19324825Y-10431150D01*
X19324825Y-10431150D02*
X19362920Y-10431150D01*
X19362920Y-10431150D02*
X19381968Y-10440674D01*
X19381968Y-10440674D02*
X19391492Y-10459722D01*
X19391492Y-10459722D02*
X19391492Y-10478770D01*
X19391492Y-10478770D02*
X19296253Y-10497817D01*
X19467682Y-10554960D02*
X19486730Y-10564484D01*
X19486730Y-10564484D02*
X19524825Y-10564484D01*
X19524825Y-10564484D02*
X19543873Y-10554960D01*
X19543873Y-10554960D02*
X19553396Y-10535912D01*
X19553396Y-10535912D02*
X19553396Y-10526389D01*
X19553396Y-10526389D02*
X19543873Y-10507341D01*
X19543873Y-10507341D02*
X19524825Y-10497817D01*
X19524825Y-10497817D02*
X19496253Y-10497817D01*
X19496253Y-10497817D02*
X19477206Y-10488293D01*
X19477206Y-10488293D02*
X19467682Y-10469246D01*
X19467682Y-10469246D02*
X19467682Y-10459722D01*
X19467682Y-10459722D02*
X19477206Y-10440674D01*
X19477206Y-10440674D02*
X19496253Y-10431150D01*
X19496253Y-10431150D02*
X19524825Y-10431150D01*
X19524825Y-10431150D02*
X19543873Y-10440674D01*
X19791492Y-10488293D02*
X19943873Y-10488293D01*
X19867682Y-10564484D02*
X19867682Y-10412103D01*
X20277206Y-10431150D02*
X20277206Y-10564484D01*
X20229587Y-10354960D02*
X20181968Y-10497817D01*
X20181968Y-10497817D02*
X20305777Y-10497817D01*
X20524825Y-10554960D02*
X20543873Y-10564484D01*
X20543873Y-10564484D02*
X20581968Y-10564484D01*
X20581968Y-10564484D02*
X20601016Y-10554960D01*
X20601016Y-10554960D02*
X20610539Y-10535912D01*
X20610539Y-10535912D02*
X20610539Y-10526389D01*
X20610539Y-10526389D02*
X20601016Y-10507341D01*
X20601016Y-10507341D02*
X20581968Y-10497817D01*
X20581968Y-10497817D02*
X20553396Y-10497817D01*
X20553396Y-10497817D02*
X20534349Y-10488293D01*
X20534349Y-10488293D02*
X20524825Y-10469246D01*
X20524825Y-10469246D02*
X20524825Y-10459722D01*
X20524825Y-10459722D02*
X20534349Y-10440674D01*
X20534349Y-10440674D02*
X20553396Y-10431150D01*
X20553396Y-10431150D02*
X20581968Y-10431150D01*
X20581968Y-10431150D02*
X20601016Y-10440674D01*
X20724825Y-10564484D02*
X20705777Y-10554960D01*
X20705777Y-10554960D02*
X20696254Y-10535912D01*
X20696254Y-10535912D02*
X20696254Y-10364484D01*
X20829587Y-10564484D02*
X20810539Y-10554960D01*
X20810539Y-10554960D02*
X20801016Y-10545436D01*
X20801016Y-10545436D02*
X20791492Y-10526389D01*
X20791492Y-10526389D02*
X20791492Y-10469246D01*
X20791492Y-10469246D02*
X20801016Y-10450198D01*
X20801016Y-10450198D02*
X20810539Y-10440674D01*
X20810539Y-10440674D02*
X20829587Y-10431150D01*
X20829587Y-10431150D02*
X20858158Y-10431150D01*
X20858158Y-10431150D02*
X20877206Y-10440674D01*
X20877206Y-10440674D02*
X20886730Y-10450198D01*
X20886730Y-10450198D02*
X20896254Y-10469246D01*
X20896254Y-10469246D02*
X20896254Y-10526389D01*
X20896254Y-10526389D02*
X20886730Y-10545436D01*
X20886730Y-10545436D02*
X20877206Y-10554960D01*
X20877206Y-10554960D02*
X20858158Y-10564484D01*
X20858158Y-10564484D02*
X20829587Y-10564484D01*
X20953397Y-10431150D02*
X21029587Y-10431150D01*
X20981968Y-10364484D02*
X20981968Y-10535912D01*
X20981968Y-10535912D02*
X20991492Y-10554960D01*
X20991492Y-10554960D02*
X21010539Y-10564484D01*
X21010539Y-10564484D02*
X21029587Y-10564484D01*
X21086730Y-10554960D02*
X21105777Y-10564484D01*
X21105777Y-10564484D02*
X21143873Y-10564484D01*
X21143873Y-10564484D02*
X21162920Y-10554960D01*
X21162920Y-10554960D02*
X21172444Y-10535912D01*
X21172444Y-10535912D02*
X21172444Y-10526389D01*
X21172444Y-10526389D02*
X21162920Y-10507341D01*
X21162920Y-10507341D02*
X21143873Y-10497817D01*
X21143873Y-10497817D02*
X21115301Y-10497817D01*
X21115301Y-10497817D02*
X21096254Y-10488293D01*
X21096254Y-10488293D02*
X21086730Y-10469246D01*
X21086730Y-10469246D02*
X21086730Y-10459722D01*
X21086730Y-10459722D02*
X21096254Y-10440674D01*
X21096254Y-10440674D02*
X21115301Y-10431150D01*
X21115301Y-10431150D02*
X21143873Y-10431150D01*
X21143873Y-10431150D02*
X21162920Y-10440674D01*
X21239111Y-10640674D02*
X21248635Y-10631150D01*
X21248635Y-10631150D02*
X21267682Y-10602579D01*
X21267682Y-10602579D02*
X21277206Y-10583531D01*
X21277206Y-10583531D02*
X21286730Y-10554960D01*
X21286730Y-10554960D02*
X21296254Y-10507341D01*
X21296254Y-10507341D02*
X21296254Y-10469246D01*
X21296254Y-10469246D02*
X21286730Y-10421627D01*
X21286730Y-10421627D02*
X21277206Y-10393055D01*
X21277206Y-10393055D02*
X21267682Y-10374008D01*
X21267682Y-10374008D02*
X21248635Y-10345436D01*
X21248635Y-10345436D02*
X21239111Y-10335912D01*
M02*
