%TF.GenerationSoftware,KiCad,Pcbnew,8.0.3*%
%TF.CreationDate,2024-06-14T23:01:07+10:00*%
%TF.ProjectId,rs-probe,72732d70-726f-4626-952e-6b696361645f,rev?*%
%TF.SameCoordinates,Original*%
%TF.FileFunction,Copper,L4,Bot*%
%TF.FilePolarity,Positive*%
%FSLAX46Y46*%
G04 Gerber Fmt 4.6, Leading zero omitted, Abs format (unit mm)*
G04 Created by KiCad (PCBNEW 8.0.3) date 2024-06-14 23:01:07*
%MOMM*%
%LPD*%
G01*
G04 APERTURE LIST*
G04 Aperture macros list*
%AMRoundRect*
0 Rectangle with rounded corners*
0 $1 Rounding radius*
0 $2 $3 $4 $5 $6 $7 $8 $9 X,Y pos of 4 corners*
0 Add a 4 corners polygon primitive as box body*
4,1,4,$2,$3,$4,$5,$6,$7,$8,$9,$2,$3,0*
0 Add four circle primitives for the rounded corners*
1,1,$1+$1,$2,$3*
1,1,$1+$1,$4,$5*
1,1,$1+$1,$6,$7*
1,1,$1+$1,$8,$9*
0 Add four rect primitives between the rounded corners*
20,1,$1+$1,$2,$3,$4,$5,0*
20,1,$1+$1,$4,$5,$6,$7,0*
20,1,$1+$1,$6,$7,$8,$9,0*
20,1,$1+$1,$8,$9,$2,$3,0*%
G04 Aperture macros list end*
%TA.AperFunction,ComponentPad*%
%ADD10O,2.100000X1.000000*%
%TD*%
%TA.AperFunction,ComponentPad*%
%ADD11O,1.600000X1.000000*%
%TD*%
%TA.AperFunction,ComponentPad*%
%ADD12C,0.600000*%
%TD*%
%TA.AperFunction,SMDPad,CuDef*%
%ADD13RoundRect,0.275000X0.325000X0.275000X-0.325000X0.275000X-0.325000X-0.275000X0.325000X-0.275000X0*%
%TD*%
%TA.AperFunction,ComponentPad*%
%ADD14C,1.100000*%
%TD*%
%TA.AperFunction,SMDPad,CuDef*%
%ADD15RoundRect,0.275000X0.275000X-0.325000X0.275000X0.325000X-0.275000X0.325000X-0.275000X-0.325000X0*%
%TD*%
%TA.AperFunction,SMDPad,CuDef*%
%ADD16RoundRect,0.275000X-0.275000X0.325000X-0.275000X-0.325000X0.275000X-0.325000X0.275000X0.325000X0*%
%TD*%
%TA.AperFunction,ConnectorPad*%
%ADD17C,0.787400*%
%TD*%
%TA.AperFunction,SMDPad,CuDef*%
%ADD18C,1.000000*%
%TD*%
%TA.AperFunction,SMDPad,CuDef*%
%ADD19RoundRect,0.375000X0.375000X0.625000X-0.375000X0.625000X-0.375000X-0.625000X0.375000X-0.625000X0*%
%TD*%
%TA.AperFunction,ViaPad*%
%ADD20C,0.450000*%
%TD*%
%TA.AperFunction,Conductor*%
%ADD21C,0.200000*%
%TD*%
%TA.AperFunction,Conductor*%
%ADD22C,0.100000*%
%TD*%
%TA.AperFunction,Conductor*%
%ADD23C,0.300000*%
%TD*%
%TA.AperFunction,Conductor*%
%ADD24C,0.600000*%
%TD*%
%TA.AperFunction,Conductor*%
%ADD25C,0.500000*%
%TD*%
G04 APERTURE END LIST*
D10*
%TO.P,J1,S1,SHIELD*%
%TO.N,GND*%
X33870000Y2680000D03*
D11*
X38050000Y2680000D03*
D10*
X33870000Y11320000D03*
D11*
X38050000Y11320000D03*
%TD*%
D12*
%TO.P,U6,57,GND*%
%TO.N,GND*%
X24775000Y6875000D03*
X23500000Y6875000D03*
X22225000Y6875000D03*
X24775000Y5600000D03*
X23500000Y5600000D03*
X22225000Y5600000D03*
X24775000Y4325000D03*
X23500000Y4325000D03*
X22225000Y4325000D03*
%TD*%
D13*
%TO.P,J2,1,Pin_1*%
%TO.N,GND*%
X300000Y1000000D03*
D14*
X0Y1000000D03*
D13*
%TO.P,J2,2,Pin_2*%
%TO.N,/T_VCP_RX*%
X308000Y2500000D03*
D14*
X0Y2500000D03*
D13*
%TO.P,J2,3,Pin_3*%
%TO.N,/T_VCP_TX*%
X308000Y4000000D03*
D14*
X0Y4000000D03*
D13*
%TO.P,J2,4,Pin_4*%
%TO.N,/T_~{RESET}*%
X308000Y5500000D03*
D14*
X0Y5500000D03*
D13*
%TO.P,J2,5,Pin_5*%
%TO.N,/T_TDI*%
X308000Y7000000D03*
D14*
X0Y7000000D03*
D13*
%TO.P,J2,6,Pin_6*%
%TO.N,/T_GNDDetect*%
X308000Y8500000D03*
D14*
X0Y8500000D03*
D13*
%TO.P,J2,7,Pin_7*%
%TO.N,/T_SWO_TDO*%
X308000Y10000000D03*
D14*
X0Y10000000D03*
D13*
%TO.P,J2,8,Pin_8*%
%TO.N,/T_SWDCLK_JCLK*%
X308000Y11500000D03*
D14*
X0Y11500000D03*
D13*
%TO.P,J2,9,Pin_9*%
%TO.N,/T_SWDIO_TMS*%
X308000Y13000000D03*
D14*
X0Y13000000D03*
%TD*%
D15*
%TO.P,J4,1,Pin_1*%
%TO.N,/GPIO2*%
X30500000Y13700000D03*
D14*
X30500000Y14000000D03*
D15*
%TO.P,J4,2,Pin_2*%
%TO.N,/GPIO1*%
X32000000Y13692000D03*
D14*
X32000000Y14000000D03*
D15*
%TO.P,J4,3,Pin_3*%
%TO.N,/T_VCC*%
X33500000Y13692000D03*
D14*
X33500000Y14000000D03*
%TD*%
D16*
%TO.P,J3,1,Pin_1*%
%TO.N,/5V_KEY*%
X33500000Y300000D03*
D14*
X33500000Y0D03*
D16*
%TO.P,J3,2,Pin_2*%
%TO.N,GND*%
X32000000Y308000D03*
D14*
X32000000Y0D03*
%TD*%
D17*
%TO.P,J5,1,VCC*%
%TO.N,+3.3V*%
X3330000Y12835000D03*
%TO.P,J5,2,SWDIO*%
%TO.N,/P_SWDIO*%
X3330000Y11565000D03*
%TO.P,J5,3,~{RESET}*%
%TO.N,unconnected-(J5-~{RESET}-Pad3)*%
X4600000Y12835000D03*
%TO.P,J5,4,SWCLK*%
%TO.N,/P_SWCLK*%
X4600000Y11565000D03*
%TO.P,J5,5,GND*%
%TO.N,GND*%
X5870000Y12835000D03*
%TO.P,J5,6,SWO*%
%TO.N,unconnected-(J5-SWO-Pad6)*%
X5870000Y11565000D03*
%TD*%
D18*
%TO.P,TP1,1,1*%
%TO.N,/DIR_SWDIO_TMS*%
X15000000Y7000000D03*
%TD*%
%TO.P,TP3,1,1*%
%TO.N,/SWDCLK_JCLK*%
X18100000Y6000000D03*
%TD*%
%TO.P,TP4,1,1*%
%TO.N,/SWDIO_TMS*%
X18400000Y8500000D03*
%TD*%
%TO.P,TP2,1,1*%
%TO.N,/DIR_SWDCLK_JCLK*%
X16200000Y4500000D03*
%TD*%
D19*
%TO.P,J8,1,Pin_1*%
%TO.N,/T_SWDIO_TMS*%
X9600000Y1200000D03*
%TD*%
%TO.P,J7,1,Pin_1*%
%TO.N,/T_VCC*%
X4560000Y1200000D03*
%TD*%
%TO.P,J6,1,Pin_1*%
%TO.N,GND*%
X2050000Y1200000D03*
%TD*%
%TO.P,J9,1,Pin_1*%
%TO.N,/T_SWDCLK_JCLK*%
X7100000Y1200000D03*
%TD*%
D20*
%TO.N,Net-(D3-A)*%
X10200000Y8450000D03*
X10120000Y11660000D03*
%TO.N,GND*%
X11030000Y10460000D03*
X8970000Y13380000D03*
X9800000Y5600000D03*
X15200000Y7900000D03*
X35575000Y450000D03*
X14350000Y12625000D03*
X5850000Y13500000D03*
X13850000Y11350000D03*
X32400000Y10800000D03*
X34500000Y13550000D03*
X18600000Y2100000D03*
X1900000Y500000D03*
X14770000Y1560000D03*
X13300000Y3800000D03*
X16500000Y7800000D03*
X29100000Y7850000D03*
X26050000Y6750000D03*
X29700000Y6200000D03*
X19075000Y12600000D03*
X15200000Y5400000D03*
X13200000Y6500000D03*
X20300000Y11460000D03*
X1900000Y1300000D03*
X1300000Y13550000D03*
X32000000Y10100000D03*
X31800000Y3900000D03*
X34100000Y7500000D03*
X39550000Y2725000D03*
X20714812Y985188D03*
X18400000Y4000000D03*
X32300000Y3100000D03*
X11000000Y7500000D03*
X28650000Y8900000D03*
X18280000Y11140000D03*
X1400000Y6000000D03*
X17312878Y5416746D03*
X26800000Y2300000D03*
X9500000Y3300000D03*
X15250000Y2950000D03*
X15870000Y9420000D03*
X10050000Y12250000D03*
X28800000Y2900000D03*
X17400000Y8200000D03*
X17200000Y2600000D03*
X6400000Y10500000D03*
X29700000Y5300000D03*
X30800000Y8300000D03*
X25200000Y3100000D03*
X8500000Y550000D03*
X31500000Y3300000D03*
X3000000Y13550000D03*
X27050000Y9500000D03*
X8230000Y6530000D03*
X37275000Y450000D03*
X39550000Y11300000D03*
X17100000Y3500000D03*
X3300000Y5900000D03*
X3200000Y7200000D03*
X1900000Y7300000D03*
X16500000Y5400000D03*
X37300000Y13550000D03*
X32200000Y1500000D03*
X11700000Y12288306D03*
%TO.N,+3.3V*%
X12600000Y3400000D03*
X22500000Y8200000D03*
X20900000Y3800000D03*
X30325000Y7150000D03*
X12550000Y949989D03*
X13700000Y9000000D03*
X20900000Y5700000D03*
X16100000Y2900000D03*
X31700000Y2200000D03*
X27500000Y1900000D03*
X29800000Y4600000D03*
X15800000Y7800000D03*
X26600000Y9000000D03*
X15800000Y5400000D03*
X3800000Y13300000D03*
X12500000Y5900000D03*
X13100000Y9100000D03*
X22500000Y3000000D03*
%TO.N,+5V*%
X31800000Y5400000D03*
X31900000Y9400000D03*
%TO.N,/T_GNDDetect*%
X3300000Y3500000D03*
%TO.N,/T_VCP_RX*%
X3300000Y1900000D03*
X2600000Y10000000D03*
X3300000Y700000D03*
X8200000Y1150000D03*
%TO.N,/T_VCP_TX*%
X5900000Y700000D03*
X9800000Y6425000D03*
X5900000Y1950000D03*
%TO.N,/P_SWCLK*%
X20900000Y4400000D03*
%TO.N,/P_SWDIO*%
X19200000Y3900000D03*
%TO.N,/T_SWO_TDO*%
X5300000Y5850000D03*
%TO.N,/T_SWDIO_TMS*%
X9550000Y600000D03*
X10100000Y950000D03*
X5300000Y8500000D03*
%TO.N,/T_SWDCLK_JCLK*%
X6750000Y700000D03*
X6750000Y1950000D03*
X5300000Y7250000D03*
%TO.N,/T_TDI*%
X3100000Y10350000D03*
X3850000Y4200000D03*
%TO.N,/T_VCC*%
X7700000Y9650000D03*
X2900000Y8400000D03*
X4325000Y1900000D03*
X4325000Y700000D03*
%TO.N,/T_VCC_EN*%
X10980000Y11250000D03*
X23300000Y10000000D03*
%TO.N,/T_VCC_MEAS*%
X8800000Y6400000D03*
X24500000Y2900000D03*
%TO.N,/GPIO2*%
X25300000Y10000000D03*
%TO.N,/GPIO1*%
X25900000Y9950000D03*
%TO.N,/PROTECTED_5V*%
X8350000Y13500000D03*
X16900000Y12550000D03*
%TO.N,/5V_KEY*%
X10850000Y650000D03*
X15390000Y1570000D03*
X4350000Y5350000D03*
%TO.N,/5V_KEY_EN*%
X24400000Y10000000D03*
X3900000Y12200000D03*
%TO.N,/VS_T*%
X10070000Y9950000D03*
X15959519Y975500D03*
%TO.N,/TRANS_VCC*%
X13500000Y4800000D03*
X11900000Y3400000D03*
X13100000Y700000D03*
X13514812Y2314812D03*
X11500000Y5800000D03*
X15000000Y3900000D03*
X13400000Y7300000D03*
X12300000Y9310000D03*
%TO.N,+1V1*%
X26100000Y3800000D03*
X20900000Y5000000D03*
X26100000Y5800000D03*
%TO.N,/PWM_VS*%
X22300000Y3600000D03*
X19400000Y2100000D03*
%TO.N,/DIR_VCP_RX*%
X23920000Y1420000D03*
X11450000Y1580000D03*
%TO.N,/DIR_VCP_TX*%
X23700000Y2900000D03*
X13300000Y2900000D03*
%TO.N,/~{RESET}*%
X21000000Y8200000D03*
X11000000Y2600000D03*
%TO.N,/GNDDetect*%
X11000000Y3200000D03*
X21800000Y8100000D03*
%TO.N,/SWDCLK_JCLK*%
X16900000Y6400000D03*
X20290000Y8880000D03*
%TO.N,/SWDIO_TMS*%
X19700000Y8800000D03*
X15200000Y8525500D03*
%TO.N,/DIR_TDI*%
X23120000Y1420000D03*
X11300000Y3700000D03*
%TO.N,/DIR_SWO_TDO*%
X13400000Y5500000D03*
X23100000Y3000000D03*
%TO.N,/DIR_SWDCLK_JCLK*%
X11530000Y6900000D03*
X21300000Y3000000D03*
%TO.N,/DIR_SWDIO_TMS*%
X19300000Y8200000D03*
X13500000Y7900000D03*
%TO.N,/VS2_T*%
X11300000Y9390000D03*
X28080000Y12860000D03*
%TO.N,/PWM2_VS*%
X32250000Y12150000D03*
X26600000Y9950000D03*
%TD*%
D21*
%TO.N,GND*%
X32000000Y308000D02*
X32000000Y1300000D01*
D22*
X5870000Y12835000D02*
X5870000Y13480000D01*
X5870000Y13480000D02*
X5850000Y13500000D01*
D23*
X2020000Y520000D02*
X2000000Y500000D01*
D21*
X32000000Y1300000D02*
X32200000Y1500000D01*
D23*
X1900000Y1300000D02*
X2020000Y520000D01*
X2020000Y1200000D02*
X1900000Y1300000D01*
D21*
%TO.N,+3.3V*%
X3335000Y12835000D02*
X3800000Y13300000D01*
D24*
%TO.N,+5V*%
X31800000Y5400000D02*
X31800000Y9300000D01*
X31800000Y9300000D02*
X31900000Y9400000D01*
D22*
%TO.N,/T_GNDDetect*%
X1300000Y7600000D02*
X400000Y8500000D01*
X3750000Y4750000D02*
X1300000Y7200000D01*
X4550000Y3500000D02*
X5000000Y3950000D01*
X1300000Y7200000D02*
X1300000Y7600000D01*
X400000Y8500000D02*
X308000Y8500000D01*
X4750000Y4750000D02*
X3750000Y4750000D01*
X3300000Y3500000D02*
X4550000Y3500000D01*
X5000000Y3950000D02*
X5000000Y4500000D01*
X5000000Y4500000D02*
X4750000Y4750000D01*
%TO.N,/P_SWCLK*%
X20450000Y4850000D02*
X20900000Y4400000D01*
X6650000Y10050000D02*
X7000000Y10400000D01*
X11299519Y10099519D02*
X21000481Y10099519D01*
X11250000Y10050000D02*
X11299519Y10099519D01*
X10860000Y10050000D02*
X11250000Y10050000D01*
X23350000Y7800000D02*
X22950000Y7400000D01*
X21000481Y10099519D02*
X21850000Y9250000D01*
X6115000Y10050000D02*
X6650000Y10050000D01*
X7504669Y10400000D02*
X7904669Y10800000D01*
X20450000Y6650000D02*
X20450000Y4850000D01*
X4600000Y11565000D02*
X6115000Y10050000D01*
X7000000Y10400000D02*
X7504669Y10400000D01*
X21850000Y9250000D02*
X22750000Y9250000D01*
X10110000Y10800000D02*
X10860000Y10050000D01*
X21700000Y7100000D02*
X20900000Y7100000D01*
X23350000Y8650000D02*
X23350000Y7800000D01*
X22000000Y7400000D02*
X21700000Y7100000D01*
X7904669Y10800000D02*
X10110000Y10800000D01*
X22750000Y9250000D02*
X23350000Y8650000D01*
X20900000Y7100000D02*
X20450000Y6650000D01*
X22950000Y7400000D02*
X22000000Y7400000D01*
%TO.N,/P_SWDIO*%
X23000000Y8500000D02*
X22600000Y8900000D01*
X5500000Y10050000D02*
X4845000Y10050000D01*
X22750000Y7700000D02*
X23000000Y7950000D01*
X19200000Y5800000D02*
X20800000Y7400000D01*
X10110000Y10475000D02*
X7975000Y10475000D01*
X7150000Y10050000D02*
X6850000Y9750000D01*
X21550000Y7400000D02*
X21850000Y7700000D01*
X7975000Y10475000D02*
X7550000Y10050000D01*
X22600000Y8900000D02*
X21800000Y8900000D01*
X4845000Y10050000D02*
X3330000Y11565000D01*
X20850000Y9850000D02*
X10735000Y9850000D01*
X10735000Y9850000D02*
X10110000Y10475000D01*
X19200000Y3900000D02*
X19200000Y5800000D01*
X7550000Y10050000D02*
X7150000Y10050000D01*
X5800000Y9750000D02*
X5500000Y10050000D01*
X21800000Y8900000D02*
X20850000Y9850000D01*
X23000000Y7950000D02*
X23000000Y8500000D01*
X20800000Y7400000D02*
X21550000Y7400000D01*
X6850000Y9750000D02*
X5800000Y9750000D01*
X21850000Y7700000D02*
X22750000Y7700000D01*
%TO.N,/T_SWO_TDO*%
X4250000Y5850000D02*
X3600000Y6500000D01*
X5300000Y5850000D02*
X4250000Y5850000D01*
X400000Y10000000D02*
X308000Y10000000D01*
X3200000Y6500000D02*
X2450000Y7250000D01*
X3600000Y6500000D02*
X3200000Y6500000D01*
X2450000Y7250000D02*
X2450000Y7950000D01*
X2450000Y7950000D02*
X400000Y10000000D01*
%TO.N,/T_SWDIO_TMS*%
X9600000Y1400000D02*
X8400000Y2600000D01*
X2300000Y9600000D02*
X1850000Y10050000D01*
X7400000Y2600000D02*
X6950000Y3050000D01*
X1850000Y10050000D02*
X1850000Y10900000D01*
X5300000Y8500000D02*
X4250000Y8500000D01*
X3150000Y9600000D02*
X2300000Y9600000D01*
X6950000Y6850000D02*
X5300000Y8500000D01*
X8400000Y2600000D02*
X7400000Y2600000D01*
X4250000Y8500000D02*
X3150000Y9600000D01*
X9600000Y1200000D02*
X9600000Y1400000D01*
X1850000Y10900000D02*
X1250000Y11500000D01*
X1250000Y12058000D02*
X308000Y13000000D01*
X1250000Y11500000D02*
X1250000Y12058000D01*
X6950000Y3050000D02*
X6950000Y6850000D01*
%TO.N,/T_SWDCLK_JCLK*%
X6600000Y6500000D02*
X6600000Y2100000D01*
X6600000Y2100000D02*
X7100000Y1600000D01*
X600000Y11500000D02*
X1300000Y10800000D01*
X3050000Y9100000D02*
X4900000Y7250000D01*
X308000Y11500000D02*
X600000Y11500000D01*
X1300000Y10800000D02*
X1300000Y9925000D01*
X4900000Y7250000D02*
X5850000Y7250000D01*
X7100000Y1600000D02*
X7100000Y1200000D01*
X1300000Y9925000D02*
X2125000Y9100000D01*
X5850000Y7250000D02*
X6600000Y6500000D01*
X2125000Y9100000D02*
X3050000Y9100000D01*
%TO.N,/T_TDI*%
X1000000Y7000000D02*
X308000Y7000000D01*
X3800000Y4200000D02*
X1000000Y7000000D01*
X3850000Y4200000D02*
X3800000Y4200000D01*
D25*
%TO.N,/T_VCC*%
X6050000Y3150000D02*
X4560000Y1660000D01*
X2900000Y8400000D02*
X2912482Y8400000D01*
X4762482Y6550000D02*
X5650000Y6550000D01*
X5650000Y6550000D02*
X6050000Y6150000D01*
X6050000Y6150000D02*
X6050000Y3150000D01*
X4560000Y1660000D02*
X4560000Y1200000D01*
X2912482Y8400000D02*
X4762482Y6550000D01*
D22*
%TO.N,/T_VCC_EN*%
X10980000Y11250000D02*
X12350000Y11250000D01*
X21200000Y10700000D02*
X21900000Y10000000D01*
X21900000Y10000000D02*
X23300000Y10000000D01*
X12900000Y10700000D02*
X21200000Y10700000D01*
X12350000Y11250000D02*
X12900000Y10700000D01*
%TO.N,/T_VCC_MEAS*%
X11900000Y950000D02*
X12450000Y1500000D01*
X24150000Y500000D02*
X24600000Y950000D01*
X10600000Y1525000D02*
X11175000Y950000D01*
X9050000Y2500000D02*
X10150000Y2500000D01*
X24600000Y950000D02*
X24600000Y2800000D01*
X8800000Y6400000D02*
X8650000Y6250000D01*
X8650000Y6250000D02*
X8650000Y2900000D01*
X8650000Y2900000D02*
X9050000Y2500000D01*
X24600000Y2800000D02*
X24500000Y2900000D01*
X10150000Y2500000D02*
X10600000Y2050000D01*
X11175000Y950000D02*
X11900000Y950000D01*
X12450000Y1500000D02*
X12925000Y1500000D01*
X10600000Y2050000D02*
X10600000Y1525000D01*
X12925000Y1500000D02*
X13925000Y500000D01*
X13925000Y500000D02*
X24150000Y500000D01*
%TO.N,/GPIO2*%
X27350000Y12050000D02*
X30000000Y12050000D01*
X30000000Y12050000D02*
X30500000Y12550000D01*
X30500000Y12550000D02*
X30500000Y13700000D01*
X25300000Y10000000D02*
X27350000Y12050000D01*
%TO.N,/GPIO1*%
X32000000Y13600000D02*
X32000000Y13692000D01*
X27650000Y11700000D02*
X30100000Y11700000D01*
X30100000Y11700000D02*
X32000000Y13600000D01*
X25900000Y9950000D02*
X27650000Y11700000D01*
D25*
%TO.N,/PROTECTED_5V*%
X8560000Y12730000D02*
X8350000Y12940000D01*
X16110000Y13340000D02*
X10010000Y13340000D01*
X9400000Y12730000D02*
X8560000Y12730000D01*
X16900000Y12550000D02*
X16110000Y13340000D01*
X8350000Y12940000D02*
X8350000Y13500000D01*
X10010000Y13340000D02*
X9400000Y12730000D01*
D22*
%TO.N,/5V_KEY_EN*%
X8300000Y11100000D02*
X7200000Y12200000D01*
X12500000Y10400000D02*
X12040000Y10860000D01*
X21900000Y9600000D02*
X21100000Y10400000D01*
X10480000Y10860000D02*
X10240000Y11100000D01*
X24400000Y10000000D02*
X24000000Y9600000D01*
X21100000Y10400000D02*
X12500000Y10400000D01*
X7200000Y12200000D02*
X3900000Y12200000D01*
X24000000Y9600000D02*
X21900000Y9600000D01*
X12040000Y10860000D02*
X10480000Y10860000D01*
X10240000Y11100000D02*
X8300000Y11100000D01*
%TO.N,/VS_T*%
X9300000Y9500000D02*
X9300000Y6300000D01*
X11670000Y1170000D02*
X12350000Y1850000D01*
X9050000Y6050000D02*
X9050000Y3100000D01*
X9750000Y9950000D02*
X9300000Y9500000D01*
X12350000Y1850000D02*
X13000000Y1850000D01*
X9300000Y2850000D02*
X10150000Y2850000D01*
X10070000Y9950000D02*
X9750000Y9950000D01*
X11270000Y1170000D02*
X11670000Y1170000D01*
X9050000Y3100000D02*
X9300000Y2850000D01*
X9300000Y6300000D02*
X9050000Y6050000D01*
X10900000Y2100000D02*
X10900000Y1540000D01*
X14050000Y800000D02*
X15784019Y800000D01*
X10900000Y1540000D02*
X11270000Y1170000D01*
X13000000Y1850000D02*
X14050000Y800000D01*
X10150000Y2850000D02*
X10900000Y2100000D01*
X15784019Y800000D02*
X15959519Y975500D01*
%TO.N,/PWM_VS*%
X19400000Y2100000D02*
X19900000Y2600000D01*
X21750000Y2600000D02*
X22000000Y2850000D01*
X22000000Y2850000D02*
X22000000Y3300000D01*
X22000000Y3300000D02*
X22300000Y3600000D01*
X19900000Y2600000D02*
X21750000Y2600000D01*
%TO.N,/DIR_VCP_RX*%
X12020000Y2150000D02*
X13110000Y2150000D01*
X22700000Y750000D02*
X23400000Y750000D01*
X19900000Y800000D02*
X20500000Y1400000D01*
X23400000Y750000D02*
X23920000Y1270000D01*
X23920000Y1270000D02*
X23920000Y1420000D01*
X17850000Y800000D02*
X19900000Y800000D01*
X14160000Y1100000D02*
X15500000Y1100000D01*
X11450000Y1580000D02*
X12020000Y2150000D01*
X15800000Y1400000D02*
X17250000Y1400000D01*
X15500000Y1100000D02*
X15800000Y1400000D01*
X22050000Y1400000D02*
X22700000Y750000D01*
X20500000Y1400000D02*
X22050000Y1400000D01*
X13110000Y2150000D02*
X14160000Y1100000D01*
X17250000Y1400000D02*
X17850000Y800000D01*
%TO.N,/DIR_VCP_TX*%
X23520000Y1220000D02*
X23270000Y970000D01*
X23270000Y970000D02*
X22930000Y970000D01*
X14525000Y2025000D02*
X13650000Y2900000D01*
X16535000Y1665000D02*
X16175000Y2025000D01*
X16175000Y2025000D02*
X14525000Y2025000D01*
X13650000Y2900000D02*
X13300000Y2900000D01*
X19775000Y1100000D02*
X18000000Y1100000D01*
X18000000Y1100000D02*
X17435000Y1665000D01*
X23520000Y2720000D02*
X23520000Y1220000D01*
X17435000Y1665000D02*
X16535000Y1665000D01*
X23700000Y2900000D02*
X23520000Y2720000D01*
X22930000Y970000D02*
X22200000Y1700000D01*
X20375000Y1700000D02*
X19775000Y1100000D01*
X22200000Y1700000D02*
X20375000Y1700000D01*
%TO.N,/~{RESET}*%
X17000000Y9600000D02*
X16400000Y9000000D01*
X10300000Y3300000D02*
X11000000Y2600000D01*
X16400000Y9000000D02*
X15725000Y9000000D01*
X21000000Y8200000D02*
X21000000Y9200000D01*
X15425000Y9300000D02*
X14800000Y9300000D01*
X10300000Y7900000D02*
X10300000Y3300000D01*
X11000000Y8600000D02*
X10300000Y7900000D01*
X15725000Y9000000D02*
X15425000Y9300000D01*
X14100000Y8600000D02*
X11000000Y8600000D01*
X20600000Y9600000D02*
X17000000Y9600000D01*
X21000000Y9200000D02*
X20600000Y9600000D01*
X14800000Y9300000D02*
X14100000Y8600000D01*
%TO.N,/GNDDetect*%
X20540000Y9300000D02*
X17233918Y9300000D01*
X21400000Y7700000D02*
X20900000Y7700000D01*
X21800000Y8100000D02*
X21400000Y7700000D01*
X14275000Y8300000D02*
X11200000Y8300000D01*
X20600000Y8000000D02*
X20600000Y8500000D01*
X15650000Y8700000D02*
X15400000Y8950000D01*
X20750000Y8650000D02*
X20750000Y9090000D01*
X17233918Y9300000D02*
X16633918Y8700000D01*
X15400000Y8950000D02*
X14925000Y8950000D01*
X20600000Y8500000D02*
X20750000Y8650000D01*
X16633918Y8700000D02*
X15650000Y8700000D01*
X14925000Y8950000D02*
X14275000Y8300000D01*
X20900000Y7700000D02*
X20600000Y8000000D01*
X20750000Y9090000D02*
X20540000Y9300000D01*
X11200000Y8300000D02*
X10600000Y7700000D01*
X10600000Y7700000D02*
X10600000Y3600000D01*
X10600000Y3600000D02*
X11000000Y3200000D01*
%TO.N,/SWDCLK_JCLK*%
X20290000Y8440000D02*
X18250000Y6400000D01*
X20290000Y8880000D02*
X20290000Y8440000D01*
X18250000Y6400000D02*
X16900000Y6400000D01*
%TO.N,/SWDIO_TMS*%
X17300000Y8800000D02*
X16850000Y8350000D01*
X15375500Y8350000D02*
X15200000Y8525500D01*
X19700000Y8800000D02*
X17300000Y8800000D01*
X16850000Y8350000D02*
X15375500Y8350000D01*
%TO.N,/DIR_TDI*%
X14762500Y2262500D02*
X13693403Y3331597D01*
X13693403Y3331597D02*
X13131597Y3331597D01*
X16675000Y1900000D02*
X16312500Y2262500D01*
X11452602Y3547398D02*
X11300000Y3700000D01*
X19700000Y1400000D02*
X18200000Y1400000D01*
X23120000Y1420000D02*
X22540000Y2000000D01*
X12727804Y2927804D02*
X11690296Y2927804D01*
X20300000Y2000000D02*
X19700000Y1400000D01*
X17700000Y1900000D02*
X16675000Y1900000D01*
X18200000Y1400000D02*
X17700000Y1900000D01*
X11452602Y3165498D02*
X11452602Y3547398D01*
X22540000Y2000000D02*
X20300000Y2000000D01*
X11690296Y2927804D02*
X11452602Y3165498D01*
X13131597Y3331597D02*
X12727804Y2927804D01*
X16312500Y2262500D02*
X14762500Y2262500D01*
%TO.N,/DIR_SWO_TDO*%
X14000000Y3500000D02*
X14000000Y5200000D01*
X23100000Y3000000D02*
X22400000Y2300000D01*
X17900000Y2200000D02*
X16800000Y2200000D01*
X16800000Y2200000D02*
X16500000Y2500000D01*
X20200000Y2300000D02*
X19600000Y1700000D01*
X18400000Y1700000D02*
X17900000Y2200000D01*
X15000000Y2500000D02*
X14000000Y3500000D01*
X22400000Y2300000D02*
X20200000Y2300000D01*
X14000000Y5200000D02*
X13700000Y5500000D01*
X13700000Y5500000D02*
X13400000Y5500000D01*
X16500000Y2500000D02*
X15000000Y2500000D01*
X19600000Y1700000D02*
X18400000Y1700000D01*
%TO.N,/DIR_SWDCLK_JCLK*%
X13800000Y6000000D02*
X14400000Y5400000D01*
X13050000Y6000000D02*
X13800000Y6000000D01*
X14800000Y4400000D02*
X16950000Y4400000D01*
X12150000Y6900000D02*
X13050000Y6000000D01*
X16950000Y4400000D02*
X18100000Y3250000D01*
X14400000Y4800000D02*
X14800000Y4400000D01*
X11530000Y6900000D02*
X12150000Y6900000D01*
X21050000Y3250000D02*
X21300000Y3000000D01*
X18100000Y3250000D02*
X21050000Y3250000D01*
X14400000Y5400000D02*
X14400000Y4800000D01*
%TO.N,/DIR_SWDIO_TMS*%
X14800000Y7300000D02*
X18400000Y7300000D01*
X13500000Y7900000D02*
X14200000Y7900000D01*
X14200000Y7900000D02*
X14800000Y7300000D01*
X18400000Y7300000D02*
X19300000Y8200000D01*
%TO.N,/PWM2_VS*%
X32250000Y12150000D02*
X31450000Y11350000D01*
X31450000Y11350000D02*
X28000000Y11350000D01*
X28000000Y11350000D02*
X26600000Y9950000D01*
%TD*%
%TA.AperFunction,Conductor*%
%TO.N,GND*%
G36*
X1101492Y6657385D02*
G01*
X3490082Y4268795D01*
X3504434Y4234147D01*
X3503690Y4225640D01*
X3500160Y4205617D01*
X3499170Y4200000D01*
X3503578Y4175000D01*
X3520328Y4080007D01*
X3581247Y3974493D01*
X3581248Y3974492D01*
X3581249Y3974491D01*
X3674585Y3896172D01*
X3789079Y3854500D01*
X3789080Y3854500D01*
X3910920Y3854500D01*
X3910921Y3854500D01*
X4025415Y3896172D01*
X4118751Y3974491D01*
X4179672Y4080009D01*
X4200830Y4200000D01*
X4179672Y4319991D01*
X4179671Y4319993D01*
X4179671Y4319994D01*
X4118752Y4425508D01*
X4092078Y4447890D01*
X4038361Y4492965D01*
X4021045Y4526230D01*
X4032323Y4561997D01*
X4065589Y4579314D01*
X4069859Y4579500D01*
X4659081Y4579500D01*
X4693729Y4565148D01*
X4815148Y4443729D01*
X4829500Y4409081D01*
X4829500Y4040919D01*
X4815148Y4006271D01*
X4493729Y3684852D01*
X4459081Y3670500D01*
X3628801Y3670500D01*
X3594153Y3684852D01*
X3586366Y3695000D01*
X3568752Y3725508D01*
X3568750Y3725511D01*
X3475415Y3803828D01*
X3431007Y3819991D01*
X3360921Y3845500D01*
X3239079Y3845500D01*
X3219462Y3838360D01*
X3124584Y3803828D01*
X3031247Y3725508D01*
X2970328Y3619994D01*
X2949170Y3500000D01*
X2970328Y3380007D01*
X3031247Y3274493D01*
X3031248Y3274492D01*
X3031249Y3274491D01*
X3124585Y3196172D01*
X3239079Y3154500D01*
X3239080Y3154500D01*
X3360920Y3154500D01*
X3360921Y3154500D01*
X3475415Y3196172D01*
X3568751Y3274491D01*
X3586366Y3305000D01*
X3616119Y3327830D01*
X3628801Y3329500D01*
X4583913Y3329500D01*
X4583915Y3329500D01*
X4646580Y3355457D01*
X4646582Y3355459D01*
X4646583Y3355459D01*
X5144541Y3853417D01*
X5144541Y3853418D01*
X5144543Y3853420D01*
X5170500Y3916085D01*
X5170500Y3983915D01*
X5170500Y4533915D01*
X5144543Y4596580D01*
X5096580Y4644543D01*
X4975038Y4766085D01*
X4846582Y4894542D01*
X4830880Y4901046D01*
X4824164Y4903828D01*
X4783916Y4920500D01*
X4783915Y4920500D01*
X4458025Y4920500D01*
X4423377Y4934852D01*
X4409025Y4969500D01*
X4423377Y5004148D01*
X4441264Y5015544D01*
X4525415Y5046172D01*
X4618751Y5124491D01*
X4679672Y5230009D01*
X4700830Y5350000D01*
X4679672Y5469991D01*
X4679671Y5469993D01*
X4679671Y5469994D01*
X4618752Y5575508D01*
X4613390Y5580007D01*
X4597948Y5592965D01*
X4580632Y5626230D01*
X4591910Y5661997D01*
X4625176Y5679314D01*
X4629446Y5679500D01*
X4971199Y5679500D01*
X5005847Y5665148D01*
X5013634Y5655000D01*
X5031247Y5624493D01*
X5031249Y5624490D01*
X5090836Y5574491D01*
X5124585Y5546172D01*
X5239079Y5504500D01*
X5239080Y5504500D01*
X5360920Y5504500D01*
X5360921Y5504500D01*
X5475415Y5546172D01*
X5568751Y5624491D01*
X5573919Y5633443D01*
X5588065Y5657943D01*
X5617818Y5680773D01*
X5655000Y5675878D01*
X5677830Y5646125D01*
X5679500Y5633443D01*
X5679500Y3323764D01*
X5665148Y3289116D01*
X4710883Y2334852D01*
X4676235Y2320500D01*
X4137603Y2320500D01*
X4078595Y2314157D01*
X3945087Y2264361D01*
X3831026Y2178974D01*
X3745638Y2064912D01*
X3745636Y2064908D01*
X3724425Y2008040D01*
X3698870Y1980592D01*
X3661391Y1979254D01*
X3633943Y2004809D01*
X3630260Y2016656D01*
X3629672Y2019991D01*
X3611128Y2052110D01*
X3568752Y2125508D01*
X3558735Y2133913D01*
X3475415Y2203828D01*
X3360921Y2245500D01*
X3239079Y2245500D01*
X3201837Y2231945D01*
X3124584Y2203828D01*
X3031247Y2125508D01*
X2986709Y2048365D01*
X2956956Y2025535D01*
X2919774Y2030430D01*
X2898690Y2054889D01*
X2886922Y2084730D01*
X2799720Y2199721D01*
X2684729Y2286923D01*
X2550464Y2339870D01*
X2550465Y2339870D01*
X2466105Y2350000D01*
X2125000Y2350000D01*
X2125000Y1275000D01*
X2950000Y1275000D01*
X2950000Y1637587D01*
X2964352Y1672235D01*
X2999000Y1686587D01*
X3030497Y1675123D01*
X3031247Y1674493D01*
X3031249Y1674491D01*
X3124585Y1596172D01*
X3239079Y1554500D01*
X3239080Y1554500D01*
X3360920Y1554500D01*
X3360921Y1554500D01*
X3475415Y1596172D01*
X3568751Y1674491D01*
X3598065Y1725264D01*
X3627818Y1748094D01*
X3665000Y1743199D01*
X3687830Y1713446D01*
X3689500Y1700764D01*
X3689500Y899236D01*
X3675148Y864588D01*
X3640500Y850236D01*
X3605852Y864588D01*
X3598065Y874736D01*
X3568752Y925508D01*
X3560077Y932787D01*
X3475415Y1003828D01*
X3360921Y1045500D01*
X3239079Y1045500D01*
X3196512Y1030007D01*
X3124584Y1003828D01*
X3030497Y924878D01*
X2994730Y913600D01*
X2961464Y930917D01*
X2950000Y962414D01*
X2950000Y1125000D01*
X1150000Y1125000D01*
X1150000Y533895D01*
X1160130Y449535D01*
X1213077Y315272D01*
X1240501Y279107D01*
X1250001Y242828D01*
X1231064Y210456D01*
X1201457Y200500D01*
X603346Y200500D01*
X568698Y214852D01*
X567197Y216353D01*
X552845Y251001D01*
X567197Y285649D01*
X601845Y300001D01*
X658449Y300001D01*
X757968Y315762D01*
X877916Y376878D01*
X877923Y376883D01*
X973117Y472077D01*
X973121Y472082D01*
X1034236Y592028D01*
X1050000Y691551D01*
X1050000Y925000D01*
X394014Y925000D01*
X400000Y947339D01*
X400000Y1052661D01*
X394014Y1075000D01*
X1049999Y1075000D01*
X1049999Y1308450D01*
X1034238Y1407969D01*
X973122Y1527917D01*
X973117Y1527924D01*
X877923Y1623118D01*
X877918Y1623122D01*
X757971Y1684237D01*
X757972Y1684237D01*
X658449Y1700000D01*
X375000Y1700000D01*
X375000Y1145964D01*
X372741Y1154394D01*
X320080Y1245606D01*
X245606Y1320080D01*
X225000Y1331977D01*
X225000Y1700000D01*
X214852Y1710148D01*
X200500Y1744796D01*
X200500Y1780500D01*
X214852Y1815148D01*
X249500Y1829500D01*
X664127Y1829500D01*
X664128Y1829500D01*
X756740Y1844168D01*
X799796Y1866106D01*
X1150000Y1866106D01*
X1150000Y1275000D01*
X1975000Y1275000D01*
X1975000Y2350000D01*
X1633895Y2350000D01*
X1549534Y2339870D01*
X1415270Y2286923D01*
X1300279Y2199721D01*
X1213077Y2084730D01*
X1160130Y1950466D01*
X1150000Y1866106D01*
X799796Y1866106D01*
X836587Y1884852D01*
X868360Y1901041D01*
X868362Y1901043D01*
X868367Y1901045D01*
X956955Y1989633D01*
X967163Y2009666D01*
X977742Y2030430D01*
X1013832Y2101260D01*
X1028500Y2193872D01*
X1028500Y2806128D01*
X1013832Y2898740D01*
X977206Y2970623D01*
X956959Y3010361D01*
X956954Y3010368D01*
X868367Y3098955D01*
X868360Y3098960D01*
X756742Y3155831D01*
X756741Y3155832D01*
X756740Y3155832D01*
X664128Y3170500D01*
X664127Y3170500D01*
X249500Y3170500D01*
X214852Y3184852D01*
X200500Y3219500D01*
X200500Y3280500D01*
X214852Y3315148D01*
X249500Y3329500D01*
X664127Y3329500D01*
X664128Y3329500D01*
X756740Y3344168D01*
X834161Y3383617D01*
X868360Y3401041D01*
X868362Y3401043D01*
X868367Y3401045D01*
X956955Y3489633D01*
X960288Y3496173D01*
X979518Y3533915D01*
X1013832Y3601260D01*
X1028500Y3693872D01*
X1028500Y4306128D01*
X1013832Y4398740D01*
X978469Y4468144D01*
X956959Y4510361D01*
X956954Y4510368D01*
X868367Y4598955D01*
X868360Y4598960D01*
X756742Y4655831D01*
X756741Y4655832D01*
X756740Y4655832D01*
X664128Y4670500D01*
X664127Y4670500D01*
X249500Y4670500D01*
X214852Y4684852D01*
X200500Y4719500D01*
X200500Y4780500D01*
X214852Y4815148D01*
X249500Y4829500D01*
X664127Y4829500D01*
X664128Y4829500D01*
X756740Y4844168D01*
X848494Y4890919D01*
X868360Y4901041D01*
X868362Y4901043D01*
X868367Y4901045D01*
X956955Y4989633D01*
X957249Y4990209D01*
X983678Y5042080D01*
X1013832Y5101260D01*
X1028500Y5193872D01*
X1028500Y5806128D01*
X1013832Y5898740D01*
X983087Y5959081D01*
X956959Y6010361D01*
X956954Y6010368D01*
X868367Y6098955D01*
X868360Y6098960D01*
X756742Y6155831D01*
X756741Y6155832D01*
X756740Y6155832D01*
X664128Y6170500D01*
X664127Y6170500D01*
X249500Y6170500D01*
X214852Y6184852D01*
X200500Y6219500D01*
X200500Y6280500D01*
X214852Y6315148D01*
X249500Y6329500D01*
X664127Y6329500D01*
X664128Y6329500D01*
X756740Y6344168D01*
X834161Y6383617D01*
X868360Y6401041D01*
X868362Y6401043D01*
X868367Y6401045D01*
X956955Y6489633D01*
X1013832Y6601260D01*
X1018447Y6630404D01*
X1038043Y6662379D01*
X1074509Y6671134D01*
X1101492Y6657385D01*
G37*
%TD.AperFunction*%
%TA.AperFunction,Conductor*%
G36*
X6854148Y2904729D02*
G01*
X7255457Y2503420D01*
X7303420Y2455457D01*
X7366085Y2429500D01*
X8309081Y2429500D01*
X8343729Y2415148D01*
X8738467Y2020410D01*
X8752819Y1985762D01*
X8749730Y1968640D01*
X8735844Y1931408D01*
X8729500Y1872398D01*
X8729500Y527604D01*
X8735843Y468596D01*
X8735845Y468591D01*
X8781504Y346173D01*
X8785639Y335088D01*
X8827728Y278865D01*
X8837003Y242527D01*
X8817867Y210274D01*
X8788502Y200500D01*
X7911498Y200500D01*
X7876850Y214852D01*
X7862498Y249500D01*
X7872272Y278865D01*
X7872453Y279107D01*
X7914362Y335090D01*
X7964155Y468591D01*
X7970500Y527609D01*
X7970499Y795880D01*
X7984851Y830527D01*
X8019499Y844879D01*
X8036254Y841925D01*
X8139079Y804500D01*
X8139080Y804500D01*
X8260920Y804500D01*
X8260921Y804500D01*
X8375415Y846172D01*
X8468751Y924491D01*
X8529672Y1030009D01*
X8550830Y1150000D01*
X8529672Y1269991D01*
X8529671Y1269993D01*
X8529671Y1269994D01*
X8468752Y1375508D01*
X8375415Y1453828D01*
X8283277Y1487363D01*
X8260921Y1495500D01*
X8139079Y1495500D01*
X8116723Y1487363D01*
X8036258Y1458077D01*
X7998790Y1459713D01*
X7973454Y1487363D01*
X7970499Y1504122D01*
X7970499Y1872397D01*
X7964156Y1931405D01*
X7964153Y1931414D01*
X7914362Y2064910D01*
X7912666Y2067175D01*
X7887150Y2101260D01*
X7828974Y2178974D01*
X7741385Y2244543D01*
X7714912Y2264361D01*
X7714910Y2264362D01*
X7581409Y2314155D01*
X7581408Y2314156D01*
X7581406Y2314156D01*
X7522397Y2320500D01*
X7522391Y2320500D01*
X6819500Y2320500D01*
X6784852Y2334852D01*
X6770500Y2369500D01*
X6770500Y2870081D01*
X6784852Y2904729D01*
X6819500Y2919081D01*
X6854148Y2904729D01*
G37*
%TD.AperFunction*%
%TA.AperFunction,Conductor*%
G36*
X6669985Y13785148D02*
G01*
X6684337Y13750500D01*
X6669985Y13715852D01*
X6607303Y13653171D01*
X6607302Y13653170D01*
X6532251Y13540848D01*
X6480555Y13416042D01*
X6480552Y13416031D01*
X6454200Y13283551D01*
X6454200Y13283545D01*
X6454200Y13148455D01*
X6473126Y13053308D01*
X6465809Y13016526D01*
X6448944Y13005258D01*
X6481495Y12996535D01*
X6496936Y12976412D01*
X6532251Y12891153D01*
X6607302Y12778831D01*
X6702830Y12683303D01*
X6815152Y12608252D01*
X6939960Y12556555D01*
X6939966Y12556554D01*
X6939969Y12556553D01*
X7072449Y12530201D01*
X7072452Y12530201D01*
X7072455Y12530200D01*
X7072456Y12530200D01*
X7207544Y12530200D01*
X7207545Y12530200D01*
X7340040Y12556555D01*
X7464848Y12608252D01*
X7577172Y12683305D01*
X7672695Y12778828D01*
X7747748Y12891152D01*
X7799445Y13015960D01*
X7825800Y13148455D01*
X7825800Y13283545D01*
X7825799Y13283551D01*
X7799447Y13416031D01*
X7799444Y13416042D01*
X7747748Y13540848D01*
X7672697Y13653170D01*
X7610015Y13715852D01*
X7595663Y13750500D01*
X7610015Y13785148D01*
X7644663Y13799500D01*
X8010230Y13799500D01*
X8044878Y13785148D01*
X8059230Y13750500D01*
X8052665Y13726000D01*
X8004749Y13643010D01*
X8004748Y13643007D01*
X7979500Y13548781D01*
X7979500Y12891222D01*
X7979499Y12891222D01*
X7984380Y12873008D01*
X7984381Y12873007D01*
X8004747Y12796996D01*
X8004748Y12796994D01*
X8004749Y12796992D01*
X8029137Y12754750D01*
X8053526Y12712507D01*
X8263526Y12502508D01*
X8332508Y12433526D01*
X8378463Y12406994D01*
X8416813Y12384852D01*
X8416992Y12384749D01*
X8463654Y12372246D01*
X8477757Y12368467D01*
X8511220Y12359500D01*
X8511222Y12359500D01*
X9448780Y12359500D01*
X9482243Y12368467D01*
X9496346Y12372246D01*
X9543008Y12384749D01*
X9543187Y12384852D01*
X9607955Y12422246D01*
X9627493Y12433526D01*
X10149114Y12955149D01*
X10183762Y12969500D01*
X15936237Y12969500D01*
X15970885Y12955148D01*
X16324774Y12601260D01*
X16672508Y12253526D01*
X16672511Y12253525D01*
X16672514Y12253522D01*
X16756990Y12204750D01*
X16756992Y12204750D01*
X16756993Y12204749D01*
X16780550Y12198437D01*
X16851220Y12179500D01*
X16851223Y12179500D01*
X16948780Y12179500D01*
X17004919Y12194543D01*
X17043008Y12204749D01*
X17127493Y12253526D01*
X17196474Y12322507D01*
X17227074Y12375508D01*
X17245250Y12406990D01*
X17245250Y12406991D01*
X17245251Y12406992D01*
X17268967Y12495500D01*
X17270500Y12501220D01*
X17270500Y12598780D01*
X17245251Y12693006D01*
X17245250Y12693010D01*
X17196478Y12777486D01*
X17196475Y12777489D01*
X17196474Y12777492D01*
X17113966Y12860000D01*
X27729170Y12860000D01*
X27750328Y12740007D01*
X27811247Y12634493D01*
X27811248Y12634492D01*
X27811249Y12634491D01*
X27904585Y12556172D01*
X28019079Y12514500D01*
X28019080Y12514500D01*
X28140920Y12514500D01*
X28140921Y12514500D01*
X28255415Y12556172D01*
X28348751Y12634491D01*
X28409672Y12740009D01*
X28430830Y12860000D01*
X28409672Y12979991D01*
X28409671Y12979993D01*
X28409671Y12979994D01*
X28348752Y13085508D01*
X28330885Y13100500D01*
X28255415Y13163828D01*
X28140921Y13205500D01*
X28019079Y13205500D01*
X27961832Y13184664D01*
X27904584Y13163828D01*
X27811247Y13085508D01*
X27750328Y12979994D01*
X27729170Y12860000D01*
X17113966Y12860000D01*
X16337493Y13636474D01*
X16337492Y13636475D01*
X16337489Y13636477D01*
X16300930Y13657583D01*
X16278557Y13670500D01*
X16253008Y13685251D01*
X16253007Y13685252D01*
X16196098Y13700500D01*
X16186132Y13703171D01*
X16156380Y13726001D01*
X16151486Y13763183D01*
X16174317Y13792936D01*
X16198816Y13799500D01*
X29780500Y13799500D01*
X29815148Y13785148D01*
X29829500Y13750500D01*
X29829500Y13343872D01*
X29844168Y13251260D01*
X29844168Y13251259D01*
X29844169Y13251258D01*
X29901040Y13139640D01*
X29901045Y13139633D01*
X29989632Y13051046D01*
X29989639Y13051041D01*
X30057380Y13016526D01*
X30101260Y12994168D01*
X30193872Y12979500D01*
X30280500Y12979500D01*
X30315148Y12965148D01*
X30329500Y12930500D01*
X30329500Y12640919D01*
X30315148Y12606271D01*
X29943729Y12234852D01*
X29909081Y12220500D01*
X27316083Y12220500D01*
X27253418Y12194542D01*
X27253416Y12194541D01*
X25414853Y10355978D01*
X25380205Y10341626D01*
X25363452Y10344579D01*
X25360921Y10345500D01*
X25239079Y10345500D01*
X25211772Y10335561D01*
X25124584Y10303828D01*
X25031247Y10225508D01*
X24970328Y10119994D01*
X24949170Y10000000D01*
X24970328Y9880007D01*
X25031247Y9774493D01*
X25031248Y9774492D01*
X25031249Y9774491D01*
X25124585Y9696172D01*
X25239079Y9654500D01*
X25239080Y9654500D01*
X25360920Y9654500D01*
X25360921Y9654500D01*
X25475415Y9696172D01*
X25546673Y9755966D01*
X25582438Y9767243D01*
X25615704Y9749926D01*
X25620603Y9742929D01*
X25631247Y9724493D01*
X25631248Y9724492D01*
X25631249Y9724491D01*
X25724585Y9646172D01*
X25839079Y9604500D01*
X25839080Y9604500D01*
X25960920Y9604500D01*
X25960921Y9604500D01*
X26075415Y9646172D01*
X26168751Y9724491D01*
X26195022Y9769994D01*
X26207565Y9791718D01*
X26237318Y9814548D01*
X26274500Y9809653D01*
X26292435Y9791718D01*
X26331247Y9724493D01*
X26331248Y9724492D01*
X26331249Y9724491D01*
X26424585Y9646172D01*
X26539079Y9604500D01*
X26539080Y9604500D01*
X26660920Y9604500D01*
X26660921Y9604500D01*
X26775415Y9646172D01*
X26868751Y9724491D01*
X26915810Y9806000D01*
X26929671Y9830007D01*
X26929671Y9830008D01*
X26929672Y9830009D01*
X26950830Y9950000D01*
X26949442Y9957870D01*
X33884500Y9957870D01*
X33884500Y9822131D01*
X33919629Y9691029D01*
X33919631Y9691023D01*
X33984019Y9579501D01*
X33987498Y9573476D01*
X34083476Y9477498D01*
X34121650Y9455458D01*
X34201022Y9409632D01*
X34201028Y9409630D01*
X34332130Y9374500D01*
X34332133Y9374500D01*
X34467869Y9374500D01*
X34598971Y9409630D01*
X34598969Y9409630D01*
X34598975Y9409631D01*
X34716524Y9477498D01*
X34812502Y9573476D01*
X34880369Y9691025D01*
X34885960Y9711889D01*
X34915500Y9822131D01*
X34915500Y9957870D01*
X34880370Y10088972D01*
X34880368Y10088978D01*
X34830409Y10175508D01*
X34812502Y10206524D01*
X34716524Y10302502D01*
X34710244Y10306128D01*
X34598977Y10370369D01*
X34598971Y10370371D01*
X34467870Y10405500D01*
X34467867Y10405500D01*
X34332133Y10405500D01*
X34332130Y10405500D01*
X34201028Y10370371D01*
X34201022Y10370369D01*
X34083475Y10302502D01*
X34083475Y10302501D01*
X33987499Y10206525D01*
X33987498Y10206525D01*
X33919631Y10088978D01*
X33919629Y10088972D01*
X33884500Y9957870D01*
X26949442Y9957870D01*
X26938814Y10018145D01*
X26946932Y10054758D01*
X26952416Y10061295D01*
X28056271Y11165148D01*
X28090919Y11179500D01*
X31483913Y11179500D01*
X31483915Y11179500D01*
X31546580Y11205457D01*
X31736123Y11395001D01*
X32672183Y11395001D01*
X32672184Y11395000D01*
X33029513Y11395000D01*
X33020000Y11359496D01*
X33020000Y11280504D01*
X33029513Y11245000D01*
X32672183Y11245000D01*
X32694976Y11130414D01*
X32694980Y11130399D01*
X32743976Y11012114D01*
X32815112Y10905649D01*
X32905648Y10815113D01*
X33012113Y10743977D01*
X33130398Y10694981D01*
X33130404Y10694979D01*
X33255984Y10670000D01*
X33795000Y10670000D01*
X33795000Y11020000D01*
X33945000Y11020000D01*
X33945000Y10670000D01*
X34484016Y10670000D01*
X34609595Y10694979D01*
X34609601Y10694981D01*
X34727886Y10743977D01*
X34834351Y10815113D01*
X34924887Y10905649D01*
X34996023Y11012114D01*
X35045019Y11130399D01*
X35045023Y11130414D01*
X35067816Y11245000D01*
X34710487Y11245000D01*
X34720000Y11280504D01*
X34720000Y11359496D01*
X34710487Y11395000D01*
X35067816Y11395000D01*
X35067816Y11395001D01*
X37102183Y11395001D01*
X37102184Y11395000D01*
X37459513Y11395000D01*
X37450000Y11359496D01*
X37450000Y11280504D01*
X37459513Y11245000D01*
X37102183Y11245000D01*
X37124976Y11130414D01*
X37124980Y11130399D01*
X37173976Y11012114D01*
X37245112Y10905649D01*
X37335648Y10815113D01*
X37442113Y10743977D01*
X37560398Y10694981D01*
X37560404Y10694979D01*
X37685984Y10670000D01*
X37975000Y10670000D01*
X37975000Y11020000D01*
X38125000Y11020000D01*
X38125000Y10670000D01*
X38414016Y10670000D01*
X38539595Y10694979D01*
X38539601Y10694981D01*
X38657886Y10743977D01*
X38764351Y10815113D01*
X38854887Y10905649D01*
X38926023Y11012114D01*
X38975019Y11130399D01*
X38975023Y11130414D01*
X38997816Y11245000D01*
X38640487Y11245000D01*
X38650000Y11280504D01*
X38650000Y11359496D01*
X38640487Y11395000D01*
X38997816Y11395000D01*
X38997816Y11395001D01*
X38975023Y11509587D01*
X38975019Y11509602D01*
X38926023Y11627887D01*
X38854887Y11734352D01*
X38764351Y11824888D01*
X38657886Y11896024D01*
X38539601Y11945020D01*
X38539595Y11945022D01*
X38414016Y11970000D01*
X38125000Y11970000D01*
X38125000Y11620000D01*
X37975000Y11620000D01*
X37975000Y11970000D01*
X37685984Y11970000D01*
X37560404Y11945022D01*
X37560398Y11945020D01*
X37442113Y11896024D01*
X37335648Y11824888D01*
X37245112Y11734352D01*
X37173976Y11627887D01*
X37124980Y11509602D01*
X37124976Y11509587D01*
X37102183Y11395001D01*
X35067816Y11395001D01*
X35045023Y11509587D01*
X35045019Y11509602D01*
X34996023Y11627887D01*
X34924887Y11734352D01*
X34834351Y11824888D01*
X34727886Y11896024D01*
X34609601Y11945020D01*
X34609595Y11945022D01*
X34484016Y11970000D01*
X33945000Y11970000D01*
X33945000Y11620000D01*
X33795000Y11620000D01*
X33795000Y11970000D01*
X33255984Y11970000D01*
X33130404Y11945022D01*
X33130398Y11945020D01*
X33012113Y11896024D01*
X32905648Y11824888D01*
X32815112Y11734352D01*
X32743976Y11627887D01*
X32694980Y11509602D01*
X32694976Y11509587D01*
X32672183Y11395001D01*
X31736123Y11395001D01*
X32135146Y11794025D01*
X32169793Y11808376D01*
X32186551Y11805421D01*
X32189079Y11804500D01*
X32189081Y11804500D01*
X32310920Y11804500D01*
X32310921Y11804500D01*
X32425415Y11846172D01*
X32518751Y11924491D01*
X32579672Y12030009D01*
X32600830Y12150000D01*
X32579672Y12269991D01*
X32579671Y12269993D01*
X32579671Y12269994D01*
X32518752Y12375508D01*
X32507616Y12384852D01*
X32425415Y12453828D01*
X32310921Y12495500D01*
X32189079Y12495500D01*
X32131832Y12474664D01*
X32074584Y12453828D01*
X31981247Y12375508D01*
X31920328Y12269994D01*
X31899170Y12150000D01*
X31911185Y12081858D01*
X31903067Y12045244D01*
X31897577Y12038702D01*
X31393729Y11534852D01*
X31359081Y11520500D01*
X30279920Y11520500D01*
X30245272Y11534852D01*
X30230920Y11569500D01*
X30245272Y11604148D01*
X31373820Y12732698D01*
X31606077Y12964956D01*
X31640724Y12979307D01*
X31648384Y12978705D01*
X31693872Y12971500D01*
X31693873Y12971500D01*
X32306127Y12971500D01*
X32306128Y12971500D01*
X32398740Y12986168D01*
X32494103Y13034758D01*
X32510360Y13043041D01*
X32510362Y13043043D01*
X32510367Y13043045D01*
X32598955Y13131633D01*
X32603032Y13139633D01*
X32624998Y13182746D01*
X32655832Y13243260D01*
X32670500Y13335872D01*
X32670500Y13750500D01*
X32684852Y13785148D01*
X32719500Y13799500D01*
X32780500Y13799500D01*
X32815148Y13785148D01*
X32829500Y13750500D01*
X32829500Y13335872D01*
X32844168Y13243260D01*
X32844168Y13243259D01*
X32844169Y13243258D01*
X32901040Y13131640D01*
X32901045Y13131633D01*
X32989632Y13043046D01*
X32989639Y13043041D01*
X33041679Y13016526D01*
X33101260Y12986168D01*
X33193872Y12971500D01*
X33193873Y12971500D01*
X33806127Y12971500D01*
X33806128Y12971500D01*
X33898740Y12986168D01*
X33994103Y13034758D01*
X34010360Y13043041D01*
X34010362Y13043043D01*
X34010367Y13043045D01*
X34098955Y13131633D01*
X34103032Y13139633D01*
X34124998Y13182746D01*
X34155832Y13243260D01*
X34170500Y13335872D01*
X34170500Y13750500D01*
X34184852Y13785148D01*
X34219500Y13799500D01*
X39396654Y13799500D01*
X39431302Y13785148D01*
X39785148Y13431302D01*
X39799500Y13396654D01*
X39799500Y603346D01*
X39785148Y568698D01*
X39431302Y214852D01*
X39396654Y200500D01*
X34219500Y200500D01*
X34184852Y214852D01*
X34170500Y249500D01*
X34170500Y656128D01*
X34167488Y675143D01*
X34155832Y748740D01*
X34136873Y785949D01*
X34098959Y860361D01*
X34098954Y860368D01*
X34010367Y948955D01*
X34010360Y948960D01*
X33898742Y1005831D01*
X33898741Y1005832D01*
X33898740Y1005832D01*
X33806128Y1020500D01*
X33193872Y1020500D01*
X33101260Y1005832D01*
X33101258Y1005832D01*
X33101257Y1005831D01*
X32989639Y948960D01*
X32989632Y948955D01*
X32901045Y860368D01*
X32901040Y860361D01*
X32844169Y748743D01*
X32844168Y748742D01*
X32844168Y748740D01*
X32833268Y679920D01*
X32829500Y656128D01*
X32829500Y249500D01*
X32815148Y214852D01*
X32780500Y200500D01*
X32748999Y200500D01*
X32714351Y214852D01*
X32711666Y221333D01*
X32699999Y233000D01*
X32327358Y233000D01*
X32320080Y245606D01*
X32245606Y320080D01*
X32154394Y372741D01*
X32116107Y383000D01*
X32699999Y383000D01*
X32699999Y666450D01*
X32684238Y765969D01*
X32623122Y885917D01*
X32623117Y885924D01*
X32527923Y981118D01*
X32527918Y981122D01*
X32407971Y1042237D01*
X32407972Y1042237D01*
X32308449Y1058000D01*
X32075000Y1058000D01*
X32075000Y394015D01*
X32052661Y400000D01*
X31947339Y400000D01*
X31925000Y394015D01*
X31925000Y1058000D01*
X31691550Y1058000D01*
X31592031Y1042239D01*
X31472083Y981123D01*
X31472076Y981118D01*
X31376882Y885924D01*
X31376878Y885919D01*
X31315763Y765973D01*
X31300000Y666450D01*
X31300000Y383000D01*
X31883893Y383000D01*
X31845606Y372741D01*
X31754394Y320080D01*
X31679920Y245606D01*
X31672642Y233000D01*
X31300000Y233000D01*
X31288332Y221333D01*
X31285648Y214852D01*
X31251000Y200500D01*
X10411498Y200500D01*
X10376850Y214852D01*
X10362498Y249500D01*
X10372272Y278865D01*
X10372453Y279107D01*
X10414362Y335090D01*
X10463774Y467571D01*
X10489328Y495017D01*
X10526808Y496356D01*
X10552119Y474945D01*
X10581247Y424493D01*
X10581248Y424492D01*
X10581249Y424491D01*
X10674585Y346172D01*
X10789079Y304500D01*
X10789080Y304500D01*
X10910920Y304500D01*
X10910921Y304500D01*
X11025415Y346172D01*
X11118751Y424491D01*
X11168006Y509803D01*
X11179671Y530007D01*
X11179671Y530008D01*
X11179672Y530009D01*
X11200830Y650000D01*
X11188135Y721994D01*
X11196252Y758605D01*
X11227882Y778756D01*
X11236391Y779500D01*
X11933913Y779500D01*
X11933915Y779500D01*
X11996580Y805457D01*
X12123911Y932789D01*
X12158555Y947139D01*
X12193204Y932788D01*
X12206811Y906648D01*
X12220327Y829999D01*
X12281247Y724482D01*
X12281248Y724481D01*
X12281249Y724480D01*
X12374585Y646161D01*
X12489079Y604489D01*
X12489080Y604489D01*
X12610920Y604489D01*
X12610921Y604489D01*
X12681650Y630233D01*
X12701784Y637560D01*
X12739252Y635924D01*
X12764588Y608274D01*
X12766798Y600024D01*
X12770327Y580010D01*
X12831247Y474493D01*
X12831248Y474492D01*
X12831249Y474491D01*
X12924585Y396172D01*
X13039079Y354500D01*
X13039080Y354500D01*
X13160920Y354500D01*
X13160921Y354500D01*
X13275415Y396172D01*
X13368751Y474491D01*
X13429672Y580009D01*
X13439438Y635398D01*
X13459587Y667025D01*
X13496201Y675143D01*
X13522341Y661535D01*
X13828417Y355458D01*
X13828419Y355457D01*
X13828420Y355456D01*
X13891085Y329500D01*
X24183913Y329500D01*
X24183915Y329500D01*
X24246580Y355457D01*
X24246582Y355459D01*
X24246583Y355459D01*
X24744541Y853417D01*
X24744541Y853418D01*
X24744543Y853420D01*
X24770500Y916085D01*
X24770500Y983915D01*
X24770500Y1900000D01*
X27149170Y1900000D01*
X27170328Y1780007D01*
X27231247Y1674493D01*
X27231248Y1674492D01*
X27231249Y1674491D01*
X27324585Y1596172D01*
X27439079Y1554500D01*
X27439080Y1554500D01*
X27560920Y1554500D01*
X27560921Y1554500D01*
X27675415Y1596172D01*
X27768751Y1674491D01*
X27821710Y1766218D01*
X27829671Y1780007D01*
X27829671Y1780008D01*
X27829672Y1780009D01*
X27850830Y1900000D01*
X27829672Y2019991D01*
X27829671Y2019993D01*
X27829671Y2019994D01*
X27768752Y2125508D01*
X27758735Y2133913D01*
X27679977Y2200000D01*
X31349170Y2200000D01*
X31370328Y2080007D01*
X31431247Y1974493D01*
X31431248Y1974492D01*
X31431249Y1974491D01*
X31524585Y1896172D01*
X31639079Y1854500D01*
X31639080Y1854500D01*
X31760920Y1854500D01*
X31760921Y1854500D01*
X31875415Y1896172D01*
X31968751Y1974491D01*
X32011402Y2048365D01*
X32029671Y2080007D01*
X32029671Y2080008D01*
X32029672Y2080009D01*
X32050830Y2200000D01*
X32029672Y2319991D01*
X32029671Y2319993D01*
X32029671Y2319994D01*
X31968752Y2425508D01*
X31963993Y2429501D01*
X31875415Y2503828D01*
X31760921Y2545500D01*
X31639079Y2545500D01*
X31581832Y2524664D01*
X31524584Y2503828D01*
X31431247Y2425508D01*
X31370328Y2319994D01*
X31349170Y2200000D01*
X27679977Y2200000D01*
X27675415Y2203828D01*
X27560921Y2245500D01*
X27439079Y2245500D01*
X27401837Y2231945D01*
X27324584Y2203828D01*
X27231247Y2125508D01*
X27170328Y2019994D01*
X27149170Y1900000D01*
X24770500Y1900000D01*
X24770500Y2664392D01*
X24777065Y2688892D01*
X24809195Y2744542D01*
X24815234Y2755001D01*
X32672183Y2755001D01*
X32672184Y2755000D01*
X33029513Y2755000D01*
X33020000Y2719496D01*
X33020000Y2640504D01*
X33029513Y2605000D01*
X32672183Y2605000D01*
X32694976Y2490414D01*
X32694980Y2490399D01*
X32743976Y2372114D01*
X32815112Y2265649D01*
X32905648Y2175113D01*
X33012113Y2103977D01*
X33130398Y2054981D01*
X33130404Y2054979D01*
X33255984Y2030000D01*
X33795000Y2030000D01*
X33795000Y2380000D01*
X33945000Y2380000D01*
X33945000Y2030000D01*
X34484016Y2030000D01*
X34609595Y2054979D01*
X34609601Y2054981D01*
X34727886Y2103977D01*
X34834351Y2175113D01*
X34924887Y2265649D01*
X34996023Y2372114D01*
X35045019Y2490399D01*
X35045023Y2490414D01*
X35067816Y2605000D01*
X34710487Y2605000D01*
X34720000Y2640504D01*
X34720000Y2719496D01*
X34710487Y2755000D01*
X35067816Y2755000D01*
X35067816Y2755001D01*
X37102183Y2755001D01*
X37102184Y2755000D01*
X37459513Y2755000D01*
X37450000Y2719496D01*
X37450000Y2640504D01*
X37459513Y2605000D01*
X37102183Y2605000D01*
X37124976Y2490414D01*
X37124980Y2490399D01*
X37173976Y2372114D01*
X37245112Y2265649D01*
X37335648Y2175113D01*
X37442113Y2103977D01*
X37560398Y2054981D01*
X37560404Y2054979D01*
X37685984Y2030000D01*
X37975000Y2030000D01*
X37975000Y2380000D01*
X38125000Y2380000D01*
X38125000Y2030000D01*
X38414016Y2030000D01*
X38539595Y2054979D01*
X38539601Y2054981D01*
X38657886Y2103977D01*
X38764351Y2175113D01*
X38854887Y2265649D01*
X38926023Y2372114D01*
X38975019Y2490399D01*
X38975023Y2490414D01*
X38997816Y2605000D01*
X38640487Y2605000D01*
X38650000Y2640504D01*
X38650000Y2719496D01*
X38640487Y2755000D01*
X38997816Y2755000D01*
X38997816Y2755001D01*
X38975023Y2869587D01*
X38975019Y2869602D01*
X38926023Y2987887D01*
X38854887Y3094352D01*
X38764351Y3184888D01*
X38657886Y3256024D01*
X38539601Y3305020D01*
X38539595Y3305022D01*
X38414016Y3330000D01*
X38125000Y3330000D01*
X38125000Y2980000D01*
X37975000Y2980000D01*
X37975000Y3330000D01*
X37685984Y3330000D01*
X37560404Y3305022D01*
X37560398Y3305020D01*
X37442113Y3256024D01*
X37335648Y3184888D01*
X37245112Y3094352D01*
X37173976Y2987887D01*
X37124980Y2869602D01*
X37124976Y2869587D01*
X37102183Y2755001D01*
X35067816Y2755001D01*
X35045023Y2869587D01*
X35045019Y2869602D01*
X34996023Y2987887D01*
X34924887Y3094352D01*
X34834351Y3184888D01*
X34727886Y3256024D01*
X34609601Y3305020D01*
X34609595Y3305022D01*
X34484016Y3330000D01*
X33945000Y3330000D01*
X33945000Y2980000D01*
X33795000Y2980000D01*
X33795000Y3330000D01*
X33255984Y3330000D01*
X33130404Y3305022D01*
X33130398Y3305020D01*
X33012113Y3256024D01*
X32905648Y3184888D01*
X32815112Y3094352D01*
X32743976Y2987887D01*
X32694980Y2869602D01*
X32694976Y2869587D01*
X32672183Y2755001D01*
X24815234Y2755001D01*
X24829672Y2780009D01*
X24850830Y2900000D01*
X24829672Y3019991D01*
X24829671Y3019993D01*
X24829671Y3019994D01*
X24768752Y3125508D01*
X24675415Y3203828D01*
X24615272Y3225718D01*
X24560921Y3245500D01*
X24439079Y3245500D01*
X24394781Y3229377D01*
X24324584Y3203828D01*
X24231247Y3125508D01*
X24170328Y3019994D01*
X24149170Y2900000D01*
X24170328Y2780007D01*
X24231247Y2674493D01*
X24231248Y2674492D01*
X24231249Y2674491D01*
X24324585Y2596172D01*
X24396738Y2569911D01*
X24397258Y2569722D01*
X24424909Y2544386D01*
X24429500Y2523677D01*
X24429500Y1040919D01*
X24415148Y1006271D01*
X24093729Y684852D01*
X24059081Y670500D01*
X23679919Y670500D01*
X23645271Y684852D01*
X23630919Y719500D01*
X23645271Y754148D01*
X23797771Y906648D01*
X23951425Y1060303D01*
X23977566Y1073909D01*
X23980914Y1074500D01*
X23980921Y1074500D01*
X24095415Y1116172D01*
X24188751Y1194491D01*
X24246248Y1294078D01*
X24249671Y1300007D01*
X24249671Y1300008D01*
X24249672Y1300009D01*
X24270830Y1420000D01*
X24249672Y1539991D01*
X24249671Y1539993D01*
X24249671Y1539994D01*
X24188752Y1645508D01*
X24187959Y1646173D01*
X24095415Y1723828D01*
X23980921Y1765500D01*
X23859079Y1765500D01*
X23756259Y1728077D01*
X23718791Y1729713D01*
X23693455Y1757363D01*
X23690500Y1774122D01*
X23690500Y2505500D01*
X23704852Y2540148D01*
X23739500Y2554500D01*
X23760920Y2554500D01*
X23760921Y2554500D01*
X23875415Y2596172D01*
X23968751Y2674491D01*
X24008882Y2744000D01*
X24029671Y2780007D01*
X24029671Y2780008D01*
X24029672Y2780009D01*
X24050830Y2900000D01*
X24029672Y3019991D01*
X24029671Y3019993D01*
X24029671Y3019994D01*
X23968752Y3125508D01*
X23875415Y3203828D01*
X23815272Y3225718D01*
X23760921Y3245500D01*
X23639079Y3245500D01*
X23594781Y3229377D01*
X23524584Y3203828D01*
X23472774Y3160354D01*
X23437006Y3149076D01*
X23403741Y3166393D01*
X23398842Y3173390D01*
X23368752Y3225508D01*
X23275415Y3303828D01*
X23244313Y3315148D01*
X23160921Y3345500D01*
X23039079Y3345500D01*
X22990531Y3327830D01*
X22924584Y3303828D01*
X22831497Y3225718D01*
X22795729Y3214440D01*
X22768503Y3225718D01*
X22675415Y3303828D01*
X22608434Y3328207D01*
X22580784Y3353544D01*
X22579148Y3391011D01*
X22582758Y3398752D01*
X22584083Y3401046D01*
X22629672Y3480009D01*
X22650830Y3600000D01*
X22629672Y3719991D01*
X22629671Y3719993D01*
X22629671Y3719994D01*
X22583479Y3800000D01*
X25749170Y3800000D01*
X25770328Y3680007D01*
X25831247Y3574493D01*
X25831248Y3574492D01*
X25831249Y3574491D01*
X25924585Y3496172D01*
X26039079Y3454500D01*
X26039080Y3454500D01*
X26160920Y3454500D01*
X26160921Y3454500D01*
X26275415Y3496172D01*
X26368751Y3574491D01*
X26429672Y3680009D01*
X26450830Y3800000D01*
X26429672Y3919991D01*
X26429671Y3919993D01*
X26429671Y3919994D01*
X26368752Y4025508D01*
X26324289Y4062817D01*
X26275415Y4103828D01*
X26160921Y4145500D01*
X26039079Y4145500D01*
X26017198Y4137536D01*
X25924584Y4103828D01*
X25831247Y4025508D01*
X25770328Y3919994D01*
X25749170Y3800000D01*
X22583479Y3800000D01*
X22568752Y3825508D01*
X22553436Y3838360D01*
X22494546Y3887775D01*
X22477230Y3921040D01*
X22484634Y3944523D01*
X22486069Y3957865D01*
X22264805Y4179129D01*
X22309968Y4197836D01*
X22352164Y4240032D01*
X22370870Y4285195D01*
X22593249Y4062816D01*
X22593250Y4062817D01*
X22607454Y4079208D01*
X22607458Y4079214D01*
X22661210Y4196916D01*
X22679627Y4324999D01*
X22679627Y4325002D01*
X23045373Y4325002D01*
X23045373Y4324999D01*
X23063789Y4196916D01*
X23117541Y4079215D01*
X23117545Y4079208D01*
X23131749Y4062816D01*
X23354128Y4285196D01*
X23372836Y4240032D01*
X23415032Y4197836D01*
X23460194Y4179130D01*
X23238929Y3957865D01*
X23311142Y3911456D01*
X23435298Y3875001D01*
X23435305Y3875000D01*
X23564695Y3875000D01*
X23564701Y3875001D01*
X23688858Y3911457D01*
X23761068Y3957866D01*
X23539805Y4179129D01*
X23584968Y4197836D01*
X23627164Y4240032D01*
X23645871Y4285195D01*
X23868249Y4062816D01*
X23868250Y4062817D01*
X23882454Y4079208D01*
X23882458Y4079214D01*
X23936210Y4196916D01*
X23954627Y4324999D01*
X23954627Y4325002D01*
X24320373Y4325002D01*
X24320373Y4324999D01*
X24338789Y4196916D01*
X24392541Y4079215D01*
X24392545Y4079208D01*
X24406749Y4062816D01*
X24629128Y4285196D01*
X24647836Y4240032D01*
X24690032Y4197836D01*
X24735194Y4179129D01*
X24513930Y3957865D01*
X24586142Y3911456D01*
X24710298Y3875001D01*
X24710305Y3875000D01*
X24839695Y3875000D01*
X24839701Y3875001D01*
X24963858Y3911457D01*
X25036068Y3957866D01*
X24814805Y4179129D01*
X24859968Y4197836D01*
X24902164Y4240032D01*
X24920871Y4285195D01*
X25143249Y4062816D01*
X25143250Y4062817D01*
X25157454Y4079208D01*
X25157458Y4079214D01*
X25202512Y4177870D01*
X33884500Y4177870D01*
X33884500Y4042131D01*
X33919629Y3911029D01*
X33919631Y3911023D01*
X33981521Y3803828D01*
X33987498Y3793476D01*
X34083476Y3697498D01*
X34113768Y3680009D01*
X34201022Y3629632D01*
X34201028Y3629630D01*
X34332130Y3594500D01*
X34332133Y3594500D01*
X34467869Y3594500D01*
X34598971Y3629630D01*
X34598969Y3629630D01*
X34598975Y3629631D01*
X34716524Y3697498D01*
X34812502Y3793476D01*
X34880369Y3911025D01*
X34900349Y3985589D01*
X34915500Y4042131D01*
X34915500Y4177870D01*
X34880370Y4308972D01*
X34880368Y4308978D01*
X34828541Y4398743D01*
X34812502Y4426524D01*
X34716524Y4522502D01*
X34696753Y4533917D01*
X34598977Y4590369D01*
X34598971Y4590371D01*
X34467870Y4625500D01*
X34467867Y4625500D01*
X34332133Y4625500D01*
X34332130Y4625500D01*
X34201028Y4590371D01*
X34201022Y4590369D01*
X34083475Y4522502D01*
X34083475Y4522501D01*
X33987499Y4426525D01*
X33987498Y4426525D01*
X33919631Y4308978D01*
X33919629Y4308972D01*
X33884500Y4177870D01*
X25202512Y4177870D01*
X25211210Y4196916D01*
X25229627Y4324999D01*
X25229627Y4325002D01*
X25211210Y4453085D01*
X25157458Y4570786D01*
X25157454Y4570793D01*
X25143249Y4587186D01*
X24920870Y4364807D01*
X24902164Y4409968D01*
X24859968Y4452164D01*
X24814805Y4470871D01*
X24943933Y4600000D01*
X29449170Y4600000D01*
X29470328Y4480007D01*
X29531247Y4374493D01*
X29531248Y4374492D01*
X29531249Y4374491D01*
X29624585Y4296172D01*
X29739079Y4254500D01*
X29739080Y4254500D01*
X29860920Y4254500D01*
X29860921Y4254500D01*
X29975415Y4296172D01*
X30068751Y4374491D01*
X30129672Y4480009D01*
X30150830Y4600000D01*
X30129672Y4719991D01*
X30129671Y4719993D01*
X30129671Y4719994D01*
X30068752Y4825508D01*
X30029013Y4858853D01*
X29975415Y4903828D01*
X29860921Y4945500D01*
X29739079Y4945500D01*
X29709824Y4934852D01*
X29624584Y4903828D01*
X29531247Y4825508D01*
X29470328Y4719994D01*
X29449170Y4600000D01*
X24943933Y4600000D01*
X25036069Y4692136D01*
X24963857Y4738545D01*
X24839701Y4775000D01*
X24710298Y4775000D01*
X24586141Y4738544D01*
X24586140Y4738544D01*
X24513930Y4692137D01*
X24513930Y4692136D01*
X24735194Y4470872D01*
X24690032Y4452164D01*
X24647836Y4409968D01*
X24629128Y4364806D01*
X24406749Y4587185D01*
X24406748Y4587185D01*
X24392544Y4570791D01*
X24392542Y4570788D01*
X24338789Y4453085D01*
X24320373Y4325002D01*
X23954627Y4325002D01*
X23936210Y4453085D01*
X23882458Y4570786D01*
X23882454Y4570793D01*
X23868249Y4587186D01*
X23645870Y4364807D01*
X23627164Y4409968D01*
X23584968Y4452164D01*
X23539805Y4470871D01*
X23761069Y4692136D01*
X23688857Y4738545D01*
X23564701Y4775000D01*
X23435298Y4775000D01*
X23311141Y4738544D01*
X23311140Y4738544D01*
X23238930Y4692137D01*
X23238930Y4692136D01*
X23460194Y4470872D01*
X23415032Y4452164D01*
X23372836Y4409968D01*
X23354128Y4364806D01*
X23131749Y4587185D01*
X23131748Y4587185D01*
X23117544Y4570791D01*
X23117542Y4570788D01*
X23063789Y4453085D01*
X23045373Y4325002D01*
X22679627Y4325002D01*
X22661210Y4453085D01*
X22607458Y4570786D01*
X22607454Y4570793D01*
X22593249Y4587186D01*
X22370870Y4364807D01*
X22352164Y4409968D01*
X22309968Y4452164D01*
X22264805Y4470871D01*
X22486069Y4692136D01*
X22413857Y4738545D01*
X22289701Y4775000D01*
X22160298Y4775000D01*
X22036141Y4738544D01*
X22036140Y4738544D01*
X21963930Y4692137D01*
X21963930Y4692136D01*
X22185194Y4470872D01*
X22140032Y4452164D01*
X22097836Y4409968D01*
X22079128Y4364806D01*
X21856749Y4587185D01*
X21856748Y4587185D01*
X21842544Y4570791D01*
X21842542Y4570788D01*
X21788789Y4453085D01*
X21770373Y4325002D01*
X21770373Y4324999D01*
X21788789Y4196916D01*
X21842541Y4079215D01*
X21842545Y4079208D01*
X21856749Y4062816D01*
X22079128Y4285196D01*
X22097836Y4240032D01*
X22140032Y4197836D01*
X22185194Y4179130D01*
X21963929Y3957865D01*
X22035388Y3911941D01*
X22056777Y3881136D01*
X22050118Y3844229D01*
X22040397Y3833187D01*
X22031249Y3825510D01*
X22031247Y3825508D01*
X21970328Y3719994D01*
X21949170Y3600000D01*
X21961184Y3531858D01*
X21953066Y3495244D01*
X21947577Y3488703D01*
X21903420Y3444544D01*
X21855458Y3396582D01*
X21829500Y3333917D01*
X21829500Y2940919D01*
X21815148Y2906271D01*
X21693729Y2784852D01*
X21659081Y2770500D01*
X21651317Y2770500D01*
X21616669Y2784852D01*
X21602317Y2819500D01*
X21608882Y2844000D01*
X21619542Y2862464D01*
X21629672Y2880009D01*
X21650830Y3000000D01*
X21629672Y3119991D01*
X21629671Y3119993D01*
X21629671Y3119994D01*
X21568752Y3225508D01*
X21475415Y3303828D01*
X21444313Y3315148D01*
X21360921Y3345500D01*
X21239079Y3345500D01*
X21239077Y3345500D01*
X21236549Y3344580D01*
X21199081Y3346218D01*
X21185147Y3355976D01*
X21146580Y3394543D01*
X21092448Y3416966D01*
X21065931Y3443484D01*
X21065931Y3480987D01*
X21079704Y3499771D01*
X21103801Y3519991D01*
X21168751Y3574491D01*
X21229672Y3680009D01*
X21250830Y3800000D01*
X21229672Y3919991D01*
X21229671Y3919993D01*
X21229671Y3919994D01*
X21168752Y4025508D01*
X21168748Y4025513D01*
X21124711Y4062464D01*
X21107393Y4095729D01*
X21118671Y4131496D01*
X21124711Y4137536D01*
X21168748Y4174488D01*
X21168749Y4174490D01*
X21168751Y4174491D01*
X21201262Y4230802D01*
X21229671Y4280007D01*
X21229671Y4280008D01*
X21229672Y4280009D01*
X21250830Y4400000D01*
X21229672Y4519991D01*
X21229671Y4519993D01*
X21229671Y4519994D01*
X21168752Y4625508D01*
X21168748Y4625513D01*
X21124711Y4662464D01*
X21107393Y4695729D01*
X21118671Y4731496D01*
X21124711Y4737536D01*
X21168748Y4774488D01*
X21168749Y4774490D01*
X21168751Y4774491D01*
X21229672Y4880009D01*
X21250830Y5000000D01*
X21229672Y5119991D01*
X21229671Y5119993D01*
X21229671Y5119994D01*
X21168752Y5225508D01*
X21163390Y5230007D01*
X21110375Y5274493D01*
X21075414Y5303829D01*
X21075067Y5303955D01*
X21074847Y5304157D01*
X21071704Y5305971D01*
X21072106Y5306668D01*
X21047416Y5329291D01*
X21045780Y5366758D01*
X21071116Y5394409D01*
X21075067Y5396045D01*
X21075234Y5396107D01*
X21075415Y5396172D01*
X21168751Y5474491D01*
X21214944Y5554500D01*
X21229671Y5580007D01*
X21229671Y5580008D01*
X21229672Y5580009D01*
X21233197Y5600002D01*
X21770373Y5600002D01*
X21770373Y5599999D01*
X21788789Y5471916D01*
X21842541Y5354215D01*
X21842545Y5354208D01*
X21856749Y5337816D01*
X22079128Y5560196D01*
X22097836Y5515032D01*
X22140032Y5472836D01*
X22185194Y5454130D01*
X21963929Y5232865D01*
X22036142Y5186456D01*
X22160298Y5150001D01*
X22160305Y5150000D01*
X22289695Y5150000D01*
X22289701Y5150001D01*
X22413858Y5186457D01*
X22486068Y5232866D01*
X22264805Y5454129D01*
X22309968Y5472836D01*
X22352164Y5515032D01*
X22370870Y5560195D01*
X22593249Y5337816D01*
X22593250Y5337817D01*
X22607454Y5354208D01*
X22607458Y5354214D01*
X22661210Y5471916D01*
X22679627Y5599999D01*
X22679627Y5600002D01*
X23045373Y5600002D01*
X23045373Y5599999D01*
X23063789Y5471916D01*
X23117541Y5354215D01*
X23117545Y5354208D01*
X23131749Y5337816D01*
X23354128Y5560196D01*
X23372836Y5515032D01*
X23415032Y5472836D01*
X23460194Y5454130D01*
X23238929Y5232865D01*
X23311142Y5186456D01*
X23435298Y5150001D01*
X23435305Y5150000D01*
X23564695Y5150000D01*
X23564701Y5150001D01*
X23688858Y5186457D01*
X23761068Y5232866D01*
X23539805Y5454129D01*
X23584968Y5472836D01*
X23627164Y5515032D01*
X23645871Y5560195D01*
X23868249Y5337816D01*
X23868250Y5337817D01*
X23882454Y5354208D01*
X23882458Y5354214D01*
X23936210Y5471916D01*
X23954627Y5599999D01*
X23954627Y5600002D01*
X24320373Y5600002D01*
X24320373Y5599999D01*
X24338789Y5471916D01*
X24392541Y5354215D01*
X24392545Y5354208D01*
X24406749Y5337816D01*
X24629128Y5560196D01*
X24647836Y5515032D01*
X24690032Y5472836D01*
X24735194Y5454129D01*
X24513930Y5232865D01*
X24586142Y5186456D01*
X24710298Y5150001D01*
X24710305Y5150000D01*
X24839695Y5150000D01*
X24839701Y5150001D01*
X24963858Y5186457D01*
X25036068Y5232866D01*
X24814805Y5454129D01*
X24859968Y5472836D01*
X24902164Y5515032D01*
X24920871Y5560195D01*
X25143249Y5337816D01*
X25143250Y5337817D01*
X25157454Y5354208D01*
X25157458Y5354214D01*
X25211210Y5471916D01*
X25229627Y5599999D01*
X25229627Y5600002D01*
X25211210Y5728085D01*
X25178368Y5800000D01*
X25749170Y5800000D01*
X25770328Y5680007D01*
X25831247Y5574493D01*
X25831248Y5574492D01*
X25831249Y5574491D01*
X25924585Y5496172D01*
X26039079Y5454500D01*
X26039080Y5454500D01*
X26160920Y5454500D01*
X26160921Y5454500D01*
X26275415Y5496172D01*
X26368751Y5574491D01*
X26410109Y5646125D01*
X26429671Y5680007D01*
X26429671Y5680008D01*
X26429672Y5680009D01*
X26450830Y5800000D01*
X26429672Y5919991D01*
X26429671Y5919993D01*
X26429671Y5919994D01*
X26368752Y6025508D01*
X26357616Y6034852D01*
X26275415Y6103828D01*
X26160921Y6145500D01*
X26039079Y6145500D01*
X25984154Y6125509D01*
X25924584Y6103828D01*
X25831247Y6025508D01*
X25770328Y5919994D01*
X25749170Y5800000D01*
X25178368Y5800000D01*
X25157458Y5845786D01*
X25157454Y5845793D01*
X25143249Y5862186D01*
X24920870Y5639807D01*
X24902164Y5684968D01*
X24859968Y5727164D01*
X24814805Y5745871D01*
X25036069Y5967136D01*
X24963857Y6013545D01*
X24839701Y6050000D01*
X24710298Y6050000D01*
X24586141Y6013544D01*
X24586140Y6013544D01*
X24513930Y5967137D01*
X24513930Y5967136D01*
X24735194Y5745872D01*
X24690032Y5727164D01*
X24647836Y5684968D01*
X24629128Y5639806D01*
X24406749Y5862185D01*
X24406748Y5862185D01*
X24392544Y5845791D01*
X24392542Y5845788D01*
X24338789Y5728085D01*
X24320373Y5600002D01*
X23954627Y5600002D01*
X23936210Y5728085D01*
X23882458Y5845786D01*
X23882454Y5845793D01*
X23868249Y5862186D01*
X23645870Y5639807D01*
X23627164Y5684968D01*
X23584968Y5727164D01*
X23539805Y5745871D01*
X23761069Y5967136D01*
X23688857Y6013545D01*
X23564701Y6050000D01*
X23435298Y6050000D01*
X23311141Y6013544D01*
X23311140Y6013544D01*
X23238930Y5967137D01*
X23238930Y5967136D01*
X23460194Y5745872D01*
X23415032Y5727164D01*
X23372836Y5684968D01*
X23354128Y5639806D01*
X23131749Y5862185D01*
X23131748Y5862185D01*
X23117544Y5845791D01*
X23117542Y5845788D01*
X23063789Y5728085D01*
X23045373Y5600002D01*
X22679627Y5600002D01*
X22661210Y5728085D01*
X22607458Y5845786D01*
X22607454Y5845793D01*
X22593249Y5862186D01*
X22370870Y5639807D01*
X22352164Y5684968D01*
X22309968Y5727164D01*
X22264805Y5745871D01*
X22486069Y5967136D01*
X22413857Y6013545D01*
X22289701Y6050000D01*
X22160298Y6050000D01*
X22036141Y6013544D01*
X22036140Y6013544D01*
X21963930Y5967137D01*
X21963930Y5967136D01*
X22185194Y5745872D01*
X22140032Y5727164D01*
X22097836Y5684968D01*
X22079128Y5639806D01*
X21856749Y5862185D01*
X21856748Y5862185D01*
X21842544Y5845791D01*
X21842542Y5845788D01*
X21788789Y5728085D01*
X21770373Y5600002D01*
X21233197Y5600002D01*
X21250830Y5700000D01*
X21229672Y5819991D01*
X21229671Y5819993D01*
X21229671Y5819994D01*
X21168752Y5925508D01*
X21146068Y5944542D01*
X21075415Y6003828D01*
X20960921Y6045500D01*
X20839079Y6045500D01*
X20810455Y6035082D01*
X20724582Y6003828D01*
X20700996Y5984036D01*
X20665229Y5972758D01*
X20631964Y5990076D01*
X20620500Y6021572D01*
X20620500Y6559081D01*
X20634852Y6593729D01*
X20956271Y6915148D01*
X20990919Y6929500D01*
X21721660Y6929500D01*
X21756308Y6915148D01*
X21770660Y6880500D01*
X21770373Y6876489D01*
X21770373Y6874999D01*
X21788789Y6746916D01*
X21842541Y6629215D01*
X21842545Y6629208D01*
X21856749Y6612816D01*
X22079128Y6835196D01*
X22097836Y6790032D01*
X22140032Y6747836D01*
X22185194Y6729130D01*
X21963929Y6507865D01*
X22036142Y6461456D01*
X22160298Y6425001D01*
X22160305Y6425000D01*
X22289695Y6425000D01*
X22289701Y6425001D01*
X22413858Y6461457D01*
X22486068Y6507866D01*
X22264805Y6729129D01*
X22309968Y6747836D01*
X22352164Y6790032D01*
X22370870Y6835195D01*
X22593249Y6612816D01*
X22593250Y6612817D01*
X22607454Y6629208D01*
X22607458Y6629214D01*
X22661210Y6746916D01*
X22679627Y6874999D01*
X22679627Y6875002D01*
X23045373Y6875002D01*
X23045373Y6874999D01*
X23063789Y6746916D01*
X23117541Y6629215D01*
X23117545Y6629208D01*
X23131749Y6612816D01*
X23354128Y6835196D01*
X23372836Y6790032D01*
X23415032Y6747836D01*
X23460194Y6729130D01*
X23238929Y6507865D01*
X23311142Y6461456D01*
X23435298Y6425001D01*
X23435305Y6425000D01*
X23564695Y6425000D01*
X23564701Y6425001D01*
X23688858Y6461457D01*
X23761068Y6507866D01*
X23539805Y6729129D01*
X23584968Y6747836D01*
X23627164Y6790032D01*
X23645871Y6835195D01*
X23868249Y6612816D01*
X23868250Y6612817D01*
X23882454Y6629208D01*
X23882458Y6629214D01*
X23936210Y6746916D01*
X23954627Y6874999D01*
X23954627Y6875002D01*
X24320373Y6875002D01*
X24320373Y6874999D01*
X24338789Y6746916D01*
X24392541Y6629215D01*
X24392545Y6629208D01*
X24406749Y6612816D01*
X24629128Y6835196D01*
X24647836Y6790032D01*
X24690032Y6747836D01*
X24735194Y6729129D01*
X24513930Y6507865D01*
X24586142Y6461456D01*
X24710298Y6425001D01*
X24710305Y6425000D01*
X24839695Y6425000D01*
X24839701Y6425001D01*
X24963858Y6461457D01*
X25036068Y6507866D01*
X24814805Y6729129D01*
X24859968Y6747836D01*
X24902164Y6790032D01*
X24920871Y6835195D01*
X25143249Y6612816D01*
X25143250Y6612817D01*
X25157454Y6629208D01*
X25157458Y6629214D01*
X25211210Y6746916D01*
X25229627Y6874999D01*
X25229627Y6875002D01*
X25211210Y7003085D01*
X25157458Y7120786D01*
X25157454Y7120793D01*
X25143249Y7137186D01*
X24920870Y6914807D01*
X24902164Y6959968D01*
X24859968Y7002164D01*
X24814805Y7020871D01*
X24943933Y7150000D01*
X29974170Y7150000D01*
X29995328Y7030007D01*
X30056247Y6924493D01*
X30056248Y6924492D01*
X30056249Y6924491D01*
X30149585Y6846172D01*
X30264079Y6804500D01*
X30264080Y6804500D01*
X30385920Y6804500D01*
X30385921Y6804500D01*
X30500415Y6846172D01*
X30593751Y6924491D01*
X30639741Y7004148D01*
X30654671Y7030007D01*
X30654671Y7030008D01*
X30654672Y7030009D01*
X30675830Y7150000D01*
X30654672Y7269991D01*
X30654671Y7269993D01*
X30654671Y7269994D01*
X30593752Y7375508D01*
X30571068Y7394542D01*
X30500415Y7453828D01*
X30385921Y7495500D01*
X30264079Y7495500D01*
X30234824Y7484852D01*
X30149584Y7453828D01*
X30056247Y7375508D01*
X29995328Y7269994D01*
X29974170Y7150000D01*
X24943933Y7150000D01*
X25036069Y7242136D01*
X24963857Y7288545D01*
X24839701Y7325000D01*
X24710298Y7325000D01*
X24586141Y7288544D01*
X24586140Y7288544D01*
X24513930Y7242137D01*
X24513930Y7242136D01*
X24735194Y7020872D01*
X24690032Y7002164D01*
X24647836Y6959968D01*
X24629128Y6914806D01*
X24406749Y7137185D01*
X24406748Y7137185D01*
X24392544Y7120791D01*
X24392542Y7120788D01*
X24338789Y7003085D01*
X24320373Y6875002D01*
X23954627Y6875002D01*
X23936210Y7003085D01*
X23882458Y7120786D01*
X23882454Y7120793D01*
X23868249Y7137186D01*
X23645870Y6914807D01*
X23627164Y6959968D01*
X23584968Y7002164D01*
X23539805Y7020871D01*
X23761069Y7242136D01*
X23688857Y7288545D01*
X23564701Y7325000D01*
X23435298Y7325000D01*
X23311141Y7288544D01*
X23311140Y7288544D01*
X23238930Y7242137D01*
X23238930Y7242136D01*
X23460194Y7020872D01*
X23415032Y7002164D01*
X23372836Y6959968D01*
X23354128Y6914806D01*
X23131749Y7137185D01*
X23131748Y7137185D01*
X23117544Y7120791D01*
X23117542Y7120788D01*
X23063789Y7003085D01*
X23045373Y6875002D01*
X22679627Y6875002D01*
X22661210Y7003085D01*
X22607457Y7120790D01*
X22607454Y7120794D01*
X22583523Y7148411D01*
X22571679Y7183995D01*
X22588465Y7217531D01*
X22620554Y7229500D01*
X22983913Y7229500D01*
X22983915Y7229500D01*
X23046580Y7255457D01*
X23046582Y7255459D01*
X23046583Y7255459D01*
X23494541Y7703417D01*
X23494541Y7703418D01*
X23494543Y7703420D01*
X23520500Y7766085D01*
X23520500Y8683915D01*
X23494543Y8746580D01*
X23446580Y8794543D01*
X23241123Y9000000D01*
X26249170Y9000000D01*
X26270328Y8880007D01*
X26331247Y8774493D01*
X26331248Y8774492D01*
X26331249Y8774491D01*
X26424585Y8696172D01*
X26539079Y8654500D01*
X26539080Y8654500D01*
X26660920Y8654500D01*
X26660921Y8654500D01*
X26775415Y8696172D01*
X26868751Y8774491D01*
X26909748Y8845500D01*
X26929671Y8880007D01*
X26929671Y8880008D01*
X26929672Y8880009D01*
X26950830Y9000000D01*
X26929672Y9119991D01*
X26929671Y9119993D01*
X26929671Y9119994D01*
X26868752Y9225508D01*
X26854229Y9237694D01*
X26775415Y9303828D01*
X26660921Y9345500D01*
X26539079Y9345500D01*
X26495119Y9329500D01*
X26424584Y9303828D01*
X26331247Y9225508D01*
X26270328Y9119994D01*
X26249170Y9000000D01*
X23241123Y9000000D01*
X23175201Y9065922D01*
X22895272Y9345852D01*
X22891333Y9355362D01*
X31379500Y9355362D01*
X31379500Y5344639D01*
X31408156Y5237695D01*
X31408157Y5237691D01*
X31458786Y5150001D01*
X31463517Y5141807D01*
X31541807Y5063517D01*
X31571848Y5046173D01*
X31637690Y5008158D01*
X31637692Y5008158D01*
X31637693Y5008157D01*
X31668135Y5000000D01*
X31744638Y4979500D01*
X31744640Y4979500D01*
X31855362Y4979500D01*
X31908833Y4993829D01*
X31962307Y5008157D01*
X32058193Y5063517D01*
X32136483Y5141807D01*
X32184809Y5225509D01*
X32191842Y5237691D01*
X32191842Y5237692D01*
X32191843Y5237693D01*
X32216410Y5329377D01*
X32220500Y5344639D01*
X32220500Y9105527D01*
X32234852Y9140175D01*
X32236484Y9141807D01*
X32291843Y9237693D01*
X32320498Y9344637D01*
X32320499Y9344637D01*
X32320499Y9455362D01*
X32320498Y9455363D01*
X32291844Y9562302D01*
X32291843Y9562306D01*
X32243424Y9646173D01*
X32236486Y9658190D01*
X32236481Y9658196D01*
X32158195Y9736482D01*
X32158189Y9736487D01*
X32105962Y9766639D01*
X32062306Y9791843D01*
X32062303Y9791844D01*
X32062301Y9791845D01*
X31955362Y9820499D01*
X31955359Y9820499D01*
X31844640Y9820499D01*
X31844637Y9820499D01*
X31737697Y9791845D01*
X31737693Y9791843D01*
X31641810Y9736487D01*
X31641804Y9736482D01*
X31463518Y9558196D01*
X31463513Y9558190D01*
X31447243Y9530007D01*
X31431894Y9503420D01*
X31418188Y9479682D01*
X31408156Y9462306D01*
X31379500Y9355362D01*
X22891333Y9355362D01*
X22880920Y9380500D01*
X22895272Y9415148D01*
X22929920Y9429500D01*
X24033913Y9429500D01*
X24033915Y9429500D01*
X24096580Y9455457D01*
X24285147Y9644026D01*
X24319793Y9658376D01*
X24336551Y9655421D01*
X24339079Y9654500D01*
X24339081Y9654500D01*
X24460920Y9654500D01*
X24460921Y9654500D01*
X24575415Y9696172D01*
X24668751Y9774491D01*
X24701088Y9830500D01*
X24729671Y9880007D01*
X24729671Y9880008D01*
X24729672Y9880009D01*
X24750830Y10000000D01*
X24729672Y10119991D01*
X24729671Y10119993D01*
X24729671Y10119994D01*
X24668752Y10225508D01*
X24668748Y10225511D01*
X24575415Y10303828D01*
X24460921Y10345500D01*
X24339079Y10345500D01*
X24311772Y10335561D01*
X24224584Y10303828D01*
X24131247Y10225508D01*
X24070328Y10119994D01*
X24049170Y10000000D01*
X24061185Y9931857D01*
X24053067Y9895243D01*
X24047577Y9888701D01*
X23943729Y9784852D01*
X23909081Y9770500D01*
X23651317Y9770500D01*
X23616669Y9784852D01*
X23602317Y9819500D01*
X23608882Y9844000D01*
X23629672Y9880009D01*
X23650830Y10000000D01*
X23629672Y10119991D01*
X23629671Y10119993D01*
X23629671Y10119994D01*
X23568752Y10225508D01*
X23568748Y10225511D01*
X23475415Y10303828D01*
X23360921Y10345500D01*
X23239079Y10345500D01*
X23211772Y10335561D01*
X23124584Y10303828D01*
X23031249Y10225511D01*
X23031247Y10225508D01*
X23013634Y10195000D01*
X22983881Y10172170D01*
X22971199Y10170500D01*
X21990920Y10170500D01*
X21956272Y10184852D01*
X21296583Y10844541D01*
X21296581Y10844542D01*
X21296580Y10844543D01*
X21259873Y10859748D01*
X21233916Y10870500D01*
X21233915Y10870500D01*
X12990920Y10870500D01*
X12956272Y10884852D01*
X12446583Y11394541D01*
X12446581Y11394542D01*
X12446580Y11394543D01*
X12406654Y11411081D01*
X12383916Y11420500D01*
X12383915Y11420500D01*
X11308801Y11420500D01*
X11274153Y11434852D01*
X11266366Y11445000D01*
X11248752Y11475508D01*
X11248750Y11475511D01*
X11155415Y11553828D01*
X11148703Y11556271D01*
X11040921Y11595500D01*
X10919079Y11595500D01*
X10906493Y11590919D01*
X10804584Y11553828D01*
X10711247Y11475508D01*
X10650328Y11369994D01*
X10629170Y11250000D01*
X10650328Y11130008D01*
X10665344Y11104001D01*
X10670240Y11066819D01*
X10647410Y11037065D01*
X10622909Y11030500D01*
X10570919Y11030500D01*
X10536271Y11044852D01*
X10336582Y11244542D01*
X10335476Y11245000D01*
X10319661Y11251551D01*
X10290289Y11263718D01*
X10263771Y11290238D01*
X10263772Y11327741D01*
X10290292Y11354259D01*
X10292258Y11355024D01*
X10295415Y11356172D01*
X10388751Y11434491D01*
X10426573Y11500000D01*
X10449671Y11540007D01*
X10449671Y11540008D01*
X10449672Y11540009D01*
X10470830Y11660000D01*
X10449672Y11779991D01*
X10449671Y11779993D01*
X10449671Y11779994D01*
X10388752Y11885508D01*
X10342294Y11924491D01*
X10295415Y11963828D01*
X10180921Y12005500D01*
X10059079Y12005500D01*
X10009286Y11987377D01*
X9944584Y11963828D01*
X9851247Y11885508D01*
X9790328Y11779994D01*
X9769170Y11660000D01*
X9790328Y11540007D01*
X9851247Y11434493D01*
X9851248Y11434492D01*
X9851249Y11434491D01*
X9855686Y11430768D01*
X9943555Y11357036D01*
X9960872Y11323770D01*
X9949594Y11288003D01*
X9916328Y11270686D01*
X9912058Y11270500D01*
X8390919Y11270500D01*
X8356271Y11284852D01*
X7296582Y12344542D01*
X7233916Y12370500D01*
X7233915Y12370500D01*
X6248062Y12370500D01*
X6213414Y12384852D01*
X6212941Y12385993D01*
X5884352Y12714582D01*
X5870000Y12749230D01*
X5870000Y12835000D01*
X5784230Y12835000D01*
X5784228Y12835001D01*
X5976066Y12835001D01*
X5976066Y12835000D01*
X6303821Y12507245D01*
X6344920Y12560804D01*
X6344923Y12560809D01*
X6399706Y12693067D01*
X6418391Y12835000D01*
X6403085Y12951265D01*
X6412792Y12987490D01*
X6428949Y12996820D01*
X6397844Y13003007D01*
X6379797Y13024998D01*
X6344923Y13109192D01*
X6344920Y13109197D01*
X6303822Y13162757D01*
X5976066Y12835001D01*
X5784228Y12835001D01*
X5749582Y12849352D01*
X5436177Y13162757D01*
X5436176Y13162757D01*
X5395081Y13109201D01*
X5395077Y13109195D01*
X5340293Y12976934D01*
X5327217Y12877604D01*
X5308465Y12845126D01*
X5278636Y12835000D01*
X5161609Y12835000D01*
X5126961Y12849352D01*
X5113028Y12877604D01*
X5109318Y12905781D01*
X5100965Y12969233D01*
X5096508Y12979994D01*
X5049154Y13094317D01*
X5049150Y13094323D01*
X4966732Y13201732D01*
X4966731Y13201733D01*
X4879296Y13268824D01*
X5542243Y13268824D01*
X5542243Y13268823D01*
X5870000Y12941066D01*
X5870001Y12941066D01*
X6197756Y13268823D01*
X6144191Y13309924D01*
X6011933Y13364707D01*
X5870000Y13383392D01*
X5728066Y13364707D01*
X5595805Y13309923D01*
X5595799Y13309919D01*
X5542243Y13268824D01*
X4879296Y13268824D01*
X4859319Y13284153D01*
X4859314Y13284156D01*
X4734232Y13335966D01*
X4600000Y13353637D01*
X4465767Y13335966D01*
X4340683Y13284155D01*
X4340677Y13284151D01*
X4233268Y13201733D01*
X4225637Y13191788D01*
X4193157Y13173038D01*
X4156933Y13182746D01*
X4138183Y13215226D01*
X4138508Y13230125D01*
X4150830Y13300000D01*
X4129672Y13419991D01*
X4129671Y13419993D01*
X4129671Y13419994D01*
X4068752Y13525508D01*
X4041021Y13548777D01*
X3975415Y13603828D01*
X3860921Y13645500D01*
X3739079Y13645500D01*
X3700705Y13631533D01*
X3624584Y13603828D01*
X3531247Y13525508D01*
X3470328Y13419994D01*
X3470327Y13419991D01*
X3463854Y13383282D01*
X3443703Y13351653D01*
X3409204Y13343211D01*
X3330000Y13353637D01*
X3195767Y13335966D01*
X3070683Y13284155D01*
X3070677Y13284151D01*
X2963268Y13201733D01*
X2963267Y13201732D01*
X2880849Y13094323D01*
X2880845Y13094317D01*
X2829034Y12969233D01*
X2811363Y12835000D01*
X2829034Y12700768D01*
X2880844Y12575686D01*
X2880847Y12575681D01*
X2919852Y12524848D01*
X2963268Y12468268D01*
X3070681Y12385847D01*
X3070683Y12385847D01*
X3070685Y12385845D01*
X3170398Y12344543D01*
X3195767Y12334035D01*
X3287396Y12321972D01*
X3319874Y12303220D01*
X3330000Y12273391D01*
X3330000Y12126610D01*
X3315648Y12091962D01*
X3287396Y12078029D01*
X3195767Y12065966D01*
X3070683Y12014155D01*
X3070677Y12014151D01*
X2963268Y11931733D01*
X2963267Y11931732D01*
X2880849Y11824323D01*
X2880845Y11824317D01*
X2829034Y11699233D01*
X2811363Y11565000D01*
X2829034Y11430768D01*
X2880844Y11305686D01*
X2880847Y11305681D01*
X2957751Y11205457D01*
X2963268Y11198268D01*
X3070681Y11115847D01*
X3070683Y11115847D01*
X3070685Y11115845D01*
X3158431Y11079500D01*
X3195767Y11064035D01*
X3330000Y11046363D01*
X3464233Y11064035D01*
X3522804Y11088296D01*
X3560305Y11088296D01*
X3576202Y11077674D01*
X4748417Y9905458D01*
X4748419Y9905457D01*
X4748420Y9905456D01*
X4811085Y9879500D01*
X4878915Y9879500D01*
X5409081Y9879500D01*
X5443729Y9865148D01*
X5655457Y9653420D01*
X5703420Y9605457D01*
X5766085Y9579500D01*
X5766087Y9579500D01*
X6883913Y9579500D01*
X6883915Y9579500D01*
X6946580Y9605457D01*
X7206271Y9865148D01*
X7240919Y9879500D01*
X7348683Y9879500D01*
X7383331Y9865148D01*
X7397683Y9830500D01*
X7391118Y9806001D01*
X7388848Y9802070D01*
X7370328Y9769993D01*
X7349170Y9650000D01*
X7370328Y9530007D01*
X7431247Y9424493D01*
X7431248Y9424492D01*
X7431249Y9424491D01*
X7524585Y9346172D01*
X7639079Y9304500D01*
X7639080Y9304500D01*
X7760920Y9304500D01*
X7760921Y9304500D01*
X7875415Y9346172D01*
X7968751Y9424491D01*
X8029672Y9530009D01*
X8050830Y9650000D01*
X8029672Y9769991D01*
X8029671Y9769993D01*
X8029671Y9769994D01*
X7968752Y9875508D01*
X7963390Y9880007D01*
X7875415Y9953828D01*
X7815381Y9975679D01*
X7787732Y10001015D01*
X7786096Y10038482D01*
X7797491Y10056369D01*
X8031271Y10290148D01*
X8065919Y10304500D01*
X9820347Y10304500D01*
X9854995Y10290148D01*
X9869347Y10255500D01*
X9854995Y10220852D01*
X9851844Y10217964D01*
X9801249Y10175511D01*
X9801247Y10175508D01*
X9783634Y10145000D01*
X9753881Y10122170D01*
X9741199Y10120500D01*
X9716083Y10120500D01*
X9653418Y10094542D01*
X9653417Y10094542D01*
X9314842Y9755965D01*
X9203420Y9644543D01*
X9189377Y9630500D01*
X9155457Y9596581D01*
X9129500Y9533917D01*
X9129500Y6679616D01*
X9115148Y6644968D01*
X9080500Y6630616D01*
X9049003Y6642080D01*
X8975415Y6703828D01*
X8944313Y6715148D01*
X8860921Y6745500D01*
X8739079Y6745500D01*
X8695119Y6729500D01*
X8624584Y6703828D01*
X8531247Y6625508D01*
X8470328Y6519994D01*
X8449170Y6400000D01*
X8470328Y6280007D01*
X8472934Y6275495D01*
X8479500Y6250993D01*
X8479500Y2866084D01*
X8491659Y2836731D01*
X8491659Y2799228D01*
X8465141Y2772709D01*
X8436831Y2769920D01*
X8433915Y2770500D01*
X7490919Y2770500D01*
X7456271Y2784852D01*
X7134852Y3106271D01*
X7120500Y3140919D01*
X7120500Y6883915D01*
X7120499Y6883917D01*
X7113837Y6900000D01*
X7094543Y6946580D01*
X7046580Y6994543D01*
X5652422Y8388701D01*
X5638070Y8423349D01*
X5638814Y8431858D01*
X5650830Y8500000D01*
X5629672Y8619991D01*
X5629671Y8619993D01*
X5629671Y8619994D01*
X5568752Y8725508D01*
X5568748Y8725511D01*
X5475415Y8803828D01*
X5360921Y8845500D01*
X5239079Y8845500D01*
X5210173Y8834979D01*
X5124584Y8803828D01*
X5031249Y8725511D01*
X5031247Y8725508D01*
X5013634Y8695000D01*
X4983881Y8672170D01*
X4971199Y8670500D01*
X4340919Y8670500D01*
X4306271Y8684852D01*
X3246582Y9744542D01*
X3183916Y9770500D01*
X3183915Y9770500D01*
X2951317Y9770500D01*
X2916669Y9784852D01*
X2902317Y9819500D01*
X2908882Y9844000D01*
X2929672Y9880009D01*
X2946757Y9976906D01*
X2966907Y10008533D01*
X3003520Y10016651D01*
X3011762Y10014443D01*
X3039079Y10004500D01*
X3039080Y10004500D01*
X3160920Y10004500D01*
X3160921Y10004500D01*
X3275415Y10046172D01*
X3368751Y10124491D01*
X3403601Y10184852D01*
X3429671Y10230007D01*
X3429671Y10230008D01*
X3429672Y10230009D01*
X3450830Y10350000D01*
X3429672Y10469991D01*
X3429671Y10469993D01*
X3429671Y10469994D01*
X3368752Y10575508D01*
X3367865Y10576252D01*
X3275415Y10653828D01*
X3160921Y10695500D01*
X3039079Y10695500D01*
X3009824Y10684852D01*
X2924584Y10653828D01*
X2831247Y10575508D01*
X2770328Y10469994D01*
X2753243Y10373097D01*
X2733092Y10341467D01*
X2696478Y10333350D01*
X2688228Y10335561D01*
X2660921Y10345500D01*
X2539079Y10345500D01*
X2511772Y10335561D01*
X2424584Y10303828D01*
X2331247Y10225508D01*
X2270327Y10119991D01*
X2249318Y10000847D01*
X2229168Y9969217D01*
X2192554Y9961101D01*
X2166415Y9974708D01*
X2034852Y10106271D01*
X2020500Y10140919D01*
X2020500Y10933913D01*
X2020499Y10933917D01*
X2016266Y10944136D01*
X1994543Y10996580D01*
X1946580Y11044543D01*
X1434852Y11556271D01*
X1420500Y11590919D01*
X1420500Y11761141D01*
X1434852Y11795789D01*
X1469500Y11810141D01*
X1504148Y11795789D01*
X1510242Y11788364D01*
X1527302Y11762831D01*
X1622830Y11667303D01*
X1691870Y11621172D01*
X1735152Y11592252D01*
X1859960Y11540555D01*
X1859966Y11540554D01*
X1859969Y11540553D01*
X1992449Y11514201D01*
X1992452Y11514201D01*
X1992455Y11514200D01*
X1992456Y11514200D01*
X2127544Y11514200D01*
X2127545Y11514200D01*
X2260040Y11540555D01*
X2384848Y11592252D01*
X2497172Y11667305D01*
X2592695Y11762828D01*
X2667748Y11875152D01*
X2719445Y11999960D01*
X2745800Y12132455D01*
X2745800Y12267545D01*
X2745799Y12267551D01*
X2719447Y12400031D01*
X2719444Y12400042D01*
X2716564Y12406994D01*
X2667748Y12524848D01*
X2643723Y12560804D01*
X2592697Y12637170D01*
X2497169Y12732698D01*
X2384847Y12807749D01*
X2260041Y12859445D01*
X2260030Y12859448D01*
X2127550Y12885800D01*
X2127545Y12885800D01*
X1992455Y12885800D01*
X1992449Y12885800D01*
X1859969Y12859448D01*
X1859958Y12859445D01*
X1735152Y12807749D01*
X1622830Y12732698D01*
X1527302Y12637170D01*
X1452251Y12524848D01*
X1400555Y12400042D01*
X1400552Y12400031D01*
X1376717Y12280201D01*
X1355882Y12249018D01*
X1319100Y12241702D01*
X1294011Y12255112D01*
X1016738Y12532385D01*
X1002386Y12567033D01*
X1007726Y12589278D01*
X1013832Y12601260D01*
X1028500Y12693872D01*
X1028500Y13306128D01*
X1013832Y13398740D01*
X988789Y13447890D01*
X956959Y13510361D01*
X956954Y13510368D01*
X868367Y13598955D01*
X868360Y13598960D01*
X756742Y13655831D01*
X756741Y13655832D01*
X756740Y13655832D01*
X664128Y13670500D01*
X664127Y13670500D01*
X572346Y13670500D01*
X537698Y13684852D01*
X523346Y13719500D01*
X537698Y13754148D01*
X568698Y13785148D01*
X603346Y13799500D01*
X6635337Y13799500D01*
X6669985Y13785148D01*
G37*
%TD.AperFunction*%
%TA.AperFunction,Conductor*%
G36*
X21993729Y1215148D02*
G01*
X22454729Y754148D01*
X22469081Y719500D01*
X22454729Y684852D01*
X22420081Y670500D01*
X20129919Y670500D01*
X20095271Y684852D01*
X20080919Y719500D01*
X20095271Y754148D01*
X20556271Y1215148D01*
X20590919Y1229500D01*
X21959081Y1229500D01*
X21993729Y1215148D01*
G37*
%TD.AperFunction*%
%TA.AperFunction,Conductor*%
G36*
X13941493Y2366331D02*
G01*
X13948039Y2360838D01*
X14380457Y1928420D01*
X14428420Y1880457D01*
X14491085Y1854500D01*
X15070437Y1854500D01*
X15105085Y1840148D01*
X15119437Y1805500D01*
X15112872Y1781000D01*
X15060328Y1689994D01*
X15039170Y1570000D01*
X15060328Y1450007D01*
X15121532Y1344000D01*
X15126427Y1306818D01*
X15103597Y1277065D01*
X15079097Y1270500D01*
X14250919Y1270500D01*
X14216271Y1284852D01*
X13597918Y1903205D01*
X13583566Y1937853D01*
X13597918Y1972501D01*
X13615805Y1983898D01*
X13690227Y2010984D01*
X13783563Y2089303D01*
X13840085Y2187201D01*
X13844483Y2194819D01*
X13844483Y2194820D01*
X13844484Y2194821D01*
X13865642Y2314812D01*
X13865136Y2317680D01*
X13873250Y2354292D01*
X13904878Y2374445D01*
X13941493Y2366331D01*
G37*
%TD.AperFunction*%
%TA.AperFunction,Conductor*%
G36*
X14254148Y4704729D02*
G01*
X14255457Y4703420D01*
X14655457Y4303420D01*
X14703420Y4255457D01*
X14740659Y4240032D01*
X14751132Y4235694D01*
X14777650Y4209175D01*
X14777650Y4171672D01*
X14763877Y4152888D01*
X14731247Y4125508D01*
X14670328Y4019994D01*
X14649170Y3900000D01*
X14670328Y3780007D01*
X14731247Y3674493D01*
X14731248Y3674492D01*
X14731249Y3674491D01*
X14824585Y3596172D01*
X14939079Y3554500D01*
X14939080Y3554500D01*
X15060920Y3554500D01*
X15060921Y3554500D01*
X15175415Y3596172D01*
X15268751Y3674491D01*
X15329672Y3780009D01*
X15350830Y3900000D01*
X15329672Y4019991D01*
X15329671Y4019993D01*
X15329671Y4019994D01*
X15268752Y4125508D01*
X15247949Y4142964D01*
X15230632Y4176230D01*
X15241910Y4211997D01*
X15275176Y4229314D01*
X15279446Y4229500D01*
X15607033Y4229500D01*
X15641681Y4215148D01*
X15647359Y4208335D01*
X15732136Y4085513D01*
X15732137Y4085512D01*
X15732138Y4085511D01*
X15828659Y4000000D01*
X15844926Y3985589D01*
X15844931Y3985585D01*
X15978350Y3915563D01*
X15978351Y3915563D01*
X15978352Y3915562D01*
X16124658Y3879500D01*
X16124659Y3879500D01*
X16275341Y3879500D01*
X16275342Y3879500D01*
X16421648Y3915562D01*
X16440601Y3925509D01*
X16555068Y3985585D01*
X16555069Y3985587D01*
X16555073Y3985588D01*
X16667862Y4085511D01*
X16729280Y4174491D01*
X16752641Y4208335D01*
X16784134Y4228697D01*
X16792967Y4229500D01*
X16859081Y4229500D01*
X16893729Y4215148D01*
X18003417Y3105458D01*
X18003419Y3105457D01*
X18003420Y3105456D01*
X18066085Y3079500D01*
X20904792Y3079500D01*
X20939440Y3065148D01*
X20953792Y3030500D01*
X20953048Y3021996D01*
X20952006Y3016085D01*
X20949871Y3003973D01*
X20949170Y3000000D01*
X20957383Y2953420D01*
X20970328Y2880008D01*
X20991118Y2844000D01*
X20996013Y2806818D01*
X20973183Y2777065D01*
X20948683Y2770500D01*
X19866083Y2770500D01*
X19803418Y2744542D01*
X19803416Y2744541D01*
X19514853Y2455978D01*
X19480205Y2441626D01*
X19463452Y2444579D01*
X19460921Y2445500D01*
X19339079Y2445500D01*
X19309689Y2434803D01*
X19224584Y2403828D01*
X19131247Y2325508D01*
X19070328Y2219994D01*
X19049170Y2100000D01*
X19070328Y1980008D01*
X19091118Y1944000D01*
X19096013Y1906818D01*
X19073183Y1877065D01*
X19048683Y1870500D01*
X18490919Y1870500D01*
X18456271Y1884852D01*
X17996582Y2344542D01*
X17933916Y2370500D01*
X17933915Y2370500D01*
X16890919Y2370500D01*
X16856271Y2384852D01*
X16596582Y2644542D01*
X16533916Y2670500D01*
X16533915Y2670500D01*
X16451317Y2670500D01*
X16416669Y2684852D01*
X16402317Y2719500D01*
X16408882Y2744000D01*
X16409195Y2744542D01*
X16429672Y2780009D01*
X16450830Y2900000D01*
X16429672Y3019991D01*
X16429671Y3019993D01*
X16429671Y3019994D01*
X16368752Y3125508D01*
X16275415Y3203828D01*
X16215272Y3225718D01*
X16160921Y3245500D01*
X16039079Y3245500D01*
X15994781Y3229377D01*
X15924584Y3203828D01*
X15831247Y3125508D01*
X15770328Y3019994D01*
X15749170Y2900000D01*
X15770328Y2780008D01*
X15791118Y2744000D01*
X15796013Y2706818D01*
X15773183Y2677065D01*
X15748683Y2670500D01*
X15090920Y2670500D01*
X15056272Y2684852D01*
X14184852Y3556272D01*
X14170500Y3590920D01*
X14170500Y4670081D01*
X14184852Y4704729D01*
X14219500Y4719081D01*
X14254148Y4704729D01*
G37*
%TD.AperFunction*%
%TA.AperFunction,Conductor*%
G36*
X9514023Y6219216D02*
G01*
X9529237Y6202974D01*
X9531245Y6199496D01*
X9531249Y6199491D01*
X9624585Y6121172D01*
X9739079Y6079500D01*
X9739080Y6079500D01*
X9860920Y6079500D01*
X9860921Y6079500D01*
X9975415Y6121172D01*
X10049004Y6182922D01*
X10084770Y6194199D01*
X10118036Y6176882D01*
X10129500Y6145385D01*
X10129500Y3266084D01*
X10138027Y3245500D01*
X10155457Y3203420D01*
X10155458Y3203419D01*
X10155459Y3203417D01*
X10273409Y3085467D01*
X10287761Y3050819D01*
X10273409Y3016171D01*
X10238761Y3001819D01*
X10220009Y3005549D01*
X10216525Y3006992D01*
X10194574Y3016085D01*
X10183916Y3020500D01*
X10183915Y3020500D01*
X9390919Y3020500D01*
X9356271Y3034852D01*
X9234852Y3156271D01*
X9220500Y3190919D01*
X9220500Y5959081D01*
X9234852Y5993729D01*
X9444539Y6203416D01*
X9444543Y6203420D01*
X9444545Y6203426D01*
X9446059Y6205690D01*
X9477240Y6226529D01*
X9514023Y6219216D01*
G37*
%TD.AperFunction*%
%TA.AperFunction,Conductor*%
G36*
X20415148Y8254730D02*
G01*
X20429500Y8220082D01*
X20429500Y7966084D01*
X20438592Y7944136D01*
X20455457Y7903420D01*
X20455458Y7903419D01*
X20455458Y7903418D01*
X20729993Y7628884D01*
X20744345Y7594236D01*
X20729993Y7559588D01*
X20714099Y7548967D01*
X20703419Y7544543D01*
X20703417Y7544542D01*
X19503047Y6344170D01*
X19103420Y5944543D01*
X19084386Y5925509D01*
X19055457Y5896581D01*
X19029500Y5833917D01*
X19029500Y4230802D01*
X19015148Y4196154D01*
X19011997Y4193266D01*
X18931247Y4125508D01*
X18870328Y4019994D01*
X18849170Y3900000D01*
X18870328Y3780007D01*
X18931247Y3674493D01*
X18931248Y3674492D01*
X18931249Y3674491D01*
X19024585Y3596172D01*
X19139079Y3554500D01*
X19139080Y3554500D01*
X19260920Y3554500D01*
X19260921Y3554500D01*
X19375415Y3596172D01*
X19468751Y3674491D01*
X19529672Y3780009D01*
X19550830Y3900000D01*
X19529672Y4019991D01*
X19529671Y4019993D01*
X19529671Y4019994D01*
X19468752Y4125508D01*
X19388003Y4193266D01*
X19370686Y4226532D01*
X19370500Y4230802D01*
X19370500Y5709081D01*
X19384852Y5743729D01*
X20195852Y6554729D01*
X20230500Y6569081D01*
X20265148Y6554729D01*
X20279500Y6520081D01*
X20279500Y4883915D01*
X20279500Y4816085D01*
X20305457Y4753420D01*
X20305458Y4753419D01*
X20305458Y4753418D01*
X20547577Y4511300D01*
X20561929Y4476652D01*
X20561185Y4468144D01*
X20549170Y4400001D01*
X20570328Y4280007D01*
X20631247Y4174493D01*
X20675290Y4137536D01*
X20692607Y4104270D01*
X20681329Y4068503D01*
X20675290Y4062464D01*
X20631247Y4025508D01*
X20570328Y3919994D01*
X20549170Y3800000D01*
X20570328Y3680007D01*
X20631247Y3574493D01*
X20631248Y3574492D01*
X20631249Y3574491D01*
X20671939Y3540348D01*
X20711638Y3507036D01*
X20728955Y3473770D01*
X20717677Y3438003D01*
X20684411Y3420686D01*
X20680141Y3420500D01*
X18190920Y3420500D01*
X18156272Y3434852D01*
X17046583Y4544541D01*
X17046581Y4544542D01*
X17046580Y4544543D01*
X16996836Y4565148D01*
X16983916Y4570500D01*
X16983915Y4570500D01*
X16859907Y4570500D01*
X16825259Y4584852D01*
X16811264Y4613593D01*
X16806894Y4649586D01*
X16753460Y4790478D01*
X16746887Y4800000D01*
X16667863Y4914488D01*
X16661651Y4919991D01*
X16555073Y5014412D01*
X16555068Y5014416D01*
X16421649Y5084438D01*
X16421651Y5084438D01*
X16311918Y5111485D01*
X16275342Y5120500D01*
X16124658Y5120500D01*
X16122450Y5120500D01*
X16087802Y5134852D01*
X16073450Y5169500D01*
X16080015Y5194000D01*
X16129671Y5280007D01*
X16129671Y5280008D01*
X16129672Y5280009D01*
X16150830Y5400000D01*
X16129672Y5519991D01*
X16129671Y5519993D01*
X16129671Y5519994D01*
X16068752Y5625508D01*
X16059400Y5633355D01*
X15975415Y5703828D01*
X15860921Y5745500D01*
X15739079Y5745500D01*
X15694781Y5729377D01*
X15624584Y5703828D01*
X15531247Y5625508D01*
X15470328Y5519994D01*
X15449170Y5400000D01*
X15470328Y5280007D01*
X15531247Y5174493D01*
X15531248Y5174492D01*
X15531249Y5174491D01*
X15624585Y5096172D01*
X15739079Y5054500D01*
X15739080Y5054500D01*
X15760975Y5054500D01*
X15795623Y5040148D01*
X15809975Y5005500D01*
X15795623Y4970852D01*
X15793468Y4968823D01*
X15732136Y4914488D01*
X15646540Y4790480D01*
X15593106Y4649588D01*
X15592081Y4641148D01*
X15590182Y4625500D01*
X15588736Y4613593D01*
X15570312Y4580928D01*
X15540093Y4570500D01*
X14890919Y4570500D01*
X14856271Y4584852D01*
X14584852Y4856271D01*
X14570500Y4890919D01*
X14570500Y5433913D01*
X14570499Y5433917D01*
X14561973Y5454500D01*
X14544543Y5496580D01*
X14496580Y5544543D01*
X14207206Y5833917D01*
X13896582Y6144542D01*
X13894269Y6145500D01*
X13846836Y6165148D01*
X13833916Y6170500D01*
X13833915Y6170500D01*
X13140919Y6170500D01*
X13106271Y6184852D01*
X12246582Y7044542D01*
X12183916Y7070500D01*
X12183915Y7070500D01*
X11858801Y7070500D01*
X11824153Y7084852D01*
X11816366Y7095000D01*
X11798752Y7125508D01*
X11798750Y7125511D01*
X11705415Y7203828D01*
X11700865Y7205484D01*
X11590921Y7245500D01*
X11469079Y7245500D01*
X11425122Y7229501D01*
X11354584Y7203828D01*
X11261247Y7125508D01*
X11200328Y7019994D01*
X11179170Y6900000D01*
X11200328Y6780007D01*
X11261247Y6674493D01*
X11261248Y6674492D01*
X11261249Y6674491D01*
X11354585Y6596172D01*
X11469079Y6554500D01*
X11469080Y6554500D01*
X11590920Y6554500D01*
X11590921Y6554500D01*
X11705415Y6596172D01*
X11798751Y6674491D01*
X11816366Y6705000D01*
X11846119Y6727830D01*
X11858801Y6729500D01*
X12059081Y6729500D01*
X12093729Y6715148D01*
X12479729Y6329148D01*
X12494081Y6294500D01*
X12479729Y6259852D01*
X12445081Y6245500D01*
X12439079Y6245500D01*
X12395122Y6229501D01*
X12324584Y6203828D01*
X12231247Y6125508D01*
X12170328Y6019994D01*
X12149170Y5900000D01*
X12170328Y5780007D01*
X12231247Y5674493D01*
X12231248Y5674492D01*
X12231249Y5674491D01*
X12324585Y5596172D01*
X12439079Y5554500D01*
X12439080Y5554500D01*
X12560920Y5554500D01*
X12560921Y5554500D01*
X12675415Y5596172D01*
X12768751Y5674491D01*
X12829672Y5780009D01*
X12843186Y5856652D01*
X12863336Y5888278D01*
X12899950Y5896396D01*
X12926087Y5882790D01*
X12953420Y5855457D01*
X13016085Y5829500D01*
X13083915Y5829500D01*
X13120554Y5829500D01*
X13155202Y5815148D01*
X13169554Y5780500D01*
X13155202Y5745852D01*
X13152051Y5742964D01*
X13131247Y5725508D01*
X13070328Y5619994D01*
X13049170Y5500000D01*
X13070328Y5380007D01*
X13131247Y5274493D01*
X13131248Y5274492D01*
X13131249Y5274491D01*
X13224585Y5196172D01*
X13284154Y5174491D01*
X13291336Y5171877D01*
X13318986Y5146541D01*
X13320622Y5109073D01*
X13306074Y5088296D01*
X13231247Y5025508D01*
X13170328Y4919994D01*
X13149170Y4800000D01*
X13170328Y4680007D01*
X13231247Y4574493D01*
X13231248Y4574492D01*
X13231249Y4574491D01*
X13324585Y4496172D01*
X13439079Y4454500D01*
X13439080Y4454500D01*
X13560920Y4454500D01*
X13560921Y4454500D01*
X13675415Y4496172D01*
X13749004Y4557922D01*
X13784770Y4569199D01*
X13818036Y4551882D01*
X13829500Y4520385D01*
X13829500Y3533106D01*
X13815148Y3498458D01*
X13780500Y3484106D01*
X13761749Y3487836D01*
X13727322Y3502096D01*
X13727319Y3502097D01*
X13727318Y3502097D01*
X13165512Y3502097D01*
X13097682Y3502097D01*
X13035016Y3476141D01*
X13018593Y3459718D01*
X12983945Y3445367D01*
X12949297Y3459720D01*
X12935691Y3485857D01*
X12929672Y3519991D01*
X12929671Y3519993D01*
X12929671Y3519994D01*
X12868752Y3625508D01*
X12863838Y3629631D01*
X12775415Y3703828D01*
X12660921Y3745500D01*
X12539079Y3745500D01*
X12504749Y3733005D01*
X12424584Y3703828D01*
X12331247Y3625508D01*
X12292435Y3558283D01*
X12262682Y3535453D01*
X12225500Y3540348D01*
X12207565Y3558283D01*
X12168752Y3625508D01*
X12163838Y3629631D01*
X12075415Y3703828D01*
X11960921Y3745500D01*
X11839079Y3745500D01*
X11804749Y3733005D01*
X11724586Y3703829D01*
X11720874Y3701685D01*
X11720354Y3702585D01*
X11688986Y3692700D01*
X11655723Y3710023D01*
X11645010Y3733001D01*
X11629672Y3819991D01*
X11615678Y3844229D01*
X11568752Y3925508D01*
X11475415Y4003828D01*
X11431007Y4019991D01*
X11360921Y4045500D01*
X11239079Y4045500D01*
X11229823Y4042131D01*
X11124584Y4003828D01*
X11031247Y3925508D01*
X10970328Y3819994D01*
X10952695Y3719991D01*
X10949170Y3700000D01*
X10966581Y3601258D01*
X10966722Y3600462D01*
X10958605Y3563848D01*
X10926975Y3543697D01*
X10890361Y3551814D01*
X10883818Y3557305D01*
X10784852Y3656271D01*
X10770500Y3690919D01*
X10770500Y5800000D01*
X11149170Y5800000D01*
X11170328Y5680007D01*
X11231247Y5574493D01*
X11231248Y5574492D01*
X11231249Y5574491D01*
X11324585Y5496172D01*
X11439079Y5454500D01*
X11439080Y5454500D01*
X11560920Y5454500D01*
X11560921Y5454500D01*
X11675415Y5496172D01*
X11768751Y5574491D01*
X11810109Y5646125D01*
X11829671Y5680007D01*
X11829671Y5680008D01*
X11829672Y5680009D01*
X11850830Y5800000D01*
X11829672Y5919991D01*
X11829671Y5919993D01*
X11829671Y5919994D01*
X11768752Y6025508D01*
X11757616Y6034852D01*
X11675415Y6103828D01*
X11560921Y6145500D01*
X11439079Y6145500D01*
X11384154Y6125509D01*
X11324584Y6103828D01*
X11231247Y6025508D01*
X11170328Y5919994D01*
X11149170Y5800000D01*
X10770500Y5800000D01*
X10770500Y7609081D01*
X10784852Y7643729D01*
X11256271Y8115148D01*
X11290919Y8129500D01*
X13148683Y8129500D01*
X13183331Y8115148D01*
X13197683Y8080500D01*
X13191118Y8056000D01*
X13170328Y8019993D01*
X13149170Y7900000D01*
X13170328Y7780007D01*
X13231247Y7674493D01*
X13231794Y7673841D01*
X13231998Y7673191D01*
X13233392Y7670778D01*
X13232856Y7670470D01*
X13243069Y7638073D01*
X13225753Y7604810D01*
X13131247Y7525508D01*
X13070328Y7419994D01*
X13049170Y7300000D01*
X13070328Y7180007D01*
X13131247Y7074493D01*
X13131248Y7074492D01*
X13131249Y7074491D01*
X13224585Y6996172D01*
X13339079Y6954500D01*
X13339080Y6954500D01*
X13460920Y6954500D01*
X13460921Y6954500D01*
X13575415Y6996172D01*
X13668751Y7074491D01*
X13700511Y7129501D01*
X13729671Y7180007D01*
X13729671Y7180008D01*
X13729672Y7180009D01*
X13750830Y7300000D01*
X13729672Y7419991D01*
X13729671Y7419993D01*
X13729671Y7419994D01*
X13668752Y7525508D01*
X13668206Y7526159D01*
X13668001Y7526810D01*
X13666608Y7529222D01*
X13667143Y7529531D01*
X13656930Y7561927D01*
X13674246Y7595191D01*
X13768750Y7674490D01*
X13768752Y7674493D01*
X13786366Y7705000D01*
X13816119Y7727830D01*
X13828801Y7729500D01*
X14109081Y7729500D01*
X14143729Y7715148D01*
X14467427Y7391450D01*
X14481779Y7356802D01*
X14473106Y7328968D01*
X14446540Y7290480D01*
X14393106Y7149588D01*
X14374943Y7000000D01*
X14393106Y6850413D01*
X14446540Y6709521D01*
X14532136Y6585513D01*
X14532137Y6585512D01*
X14532138Y6585511D01*
X14605758Y6520289D01*
X14644926Y6485589D01*
X14644931Y6485585D01*
X14778350Y6415563D01*
X14778351Y6415563D01*
X14778352Y6415562D01*
X14924658Y6379500D01*
X14924659Y6379500D01*
X15075341Y6379500D01*
X15075342Y6379500D01*
X15221648Y6415562D01*
X15224251Y6416928D01*
X15355068Y6485585D01*
X15355069Y6485587D01*
X15355073Y6485588D01*
X15467862Y6585511D01*
X15553460Y6709522D01*
X15606894Y6850414D01*
X15625057Y7000000D01*
X15616497Y7070500D01*
X15616000Y7074594D01*
X15626071Y7110720D01*
X15658737Y7129143D01*
X15664643Y7129500D01*
X18433913Y7129500D01*
X18433915Y7129500D01*
X18496580Y7155457D01*
X19185146Y7844025D01*
X19219793Y7858376D01*
X19236551Y7855421D01*
X19239079Y7854500D01*
X19239081Y7854500D01*
X19345081Y7854500D01*
X19379729Y7840148D01*
X19394081Y7805500D01*
X19379729Y7770853D01*
X19093728Y7484852D01*
X18238232Y6629357D01*
X18203584Y6615005D01*
X18191859Y6616429D01*
X18175342Y6620500D01*
X18024658Y6620500D01*
X18008142Y6616429D01*
X17878351Y6584439D01*
X17862490Y6576113D01*
X17839718Y6570500D01*
X17228801Y6570500D01*
X17194153Y6584852D01*
X17186366Y6595000D01*
X17168752Y6625508D01*
X17168750Y6625511D01*
X17075415Y6703828D01*
X17044313Y6715148D01*
X16960921Y6745500D01*
X16839079Y6745500D01*
X16795119Y6729500D01*
X16724584Y6703828D01*
X16631247Y6625508D01*
X16570328Y6519994D01*
X16549170Y6400000D01*
X16570328Y6280007D01*
X16631247Y6174493D01*
X16631248Y6174492D01*
X16631249Y6174491D01*
X16724585Y6096172D01*
X16839079Y6054500D01*
X16839080Y6054500D01*
X16960920Y6054500D01*
X16960921Y6054500D01*
X17075415Y6096172D01*
X17168751Y6174491D01*
X17185451Y6203416D01*
X17186366Y6205000D01*
X17216119Y6227830D01*
X17228801Y6229500D01*
X17452424Y6229500D01*
X17487072Y6215148D01*
X17501424Y6180500D01*
X17498240Y6163125D01*
X17493108Y6149594D01*
X17493106Y6149588D01*
X17474943Y6000000D01*
X17493106Y5850413D01*
X17546540Y5709521D01*
X17632136Y5585513D01*
X17632137Y5585512D01*
X17632138Y5585511D01*
X17736438Y5493109D01*
X17744926Y5485589D01*
X17744931Y5485585D01*
X17878350Y5415563D01*
X17878351Y5415563D01*
X17878352Y5415562D01*
X18024658Y5379500D01*
X18024659Y5379500D01*
X18175341Y5379500D01*
X18175342Y5379500D01*
X18321648Y5415562D01*
X18321650Y5415563D01*
X18455068Y5485585D01*
X18455069Y5485587D01*
X18455073Y5485588D01*
X18567862Y5585511D01*
X18653460Y5709522D01*
X18706894Y5850414D01*
X18725057Y6000000D01*
X18706894Y6149586D01*
X18653460Y6290478D01*
X18636432Y6315148D01*
X18566179Y6416928D01*
X18567513Y6417850D01*
X18556974Y6448456D01*
X18571234Y6480113D01*
X20345853Y8254731D01*
X20380500Y8269082D01*
X20415148Y8254730D01*
G37*
%TD.AperFunction*%
%TA.AperFunction,Conductor*%
G36*
X820315Y9338562D02*
G01*
X2265148Y7893729D01*
X2279500Y7859081D01*
X2279500Y7283915D01*
X2279500Y7216085D01*
X2305457Y7153420D01*
X2305458Y7153419D01*
X2305458Y7153418D01*
X3055457Y6403420D01*
X3103420Y6355457D01*
X3166085Y6329500D01*
X3509081Y6329500D01*
X3543729Y6315148D01*
X4105457Y5753420D01*
X4129500Y5729377D01*
X4153338Y5705539D01*
X4167689Y5670890D01*
X4153337Y5636242D01*
X4150186Y5633355D01*
X4081247Y5575508D01*
X4020328Y5469994D01*
X3999170Y5350000D01*
X4020328Y5230007D01*
X4081247Y5124493D01*
X4081248Y5124492D01*
X4081249Y5124491D01*
X4174585Y5046172D01*
X4258734Y5015545D01*
X4286384Y4990209D01*
X4288020Y4952741D01*
X4262684Y4925091D01*
X4241975Y4920500D01*
X3840919Y4920500D01*
X3806271Y4934852D01*
X1484852Y7256271D01*
X1470500Y7290919D01*
X1470500Y7633913D01*
X1470499Y7633917D01*
X1444543Y7696580D01*
X1396580Y7744543D01*
X1035045Y8106078D01*
X1020693Y8140726D01*
X1021295Y8148383D01*
X1028500Y8193872D01*
X1028500Y8806128D01*
X1013832Y8898740D01*
X984933Y8955458D01*
X956959Y9010361D01*
X956954Y9010368D01*
X868367Y9098955D01*
X868360Y9098960D01*
X756742Y9155831D01*
X756741Y9155832D01*
X756740Y9155832D01*
X664128Y9170500D01*
X664127Y9170500D01*
X249500Y9170500D01*
X214852Y9184852D01*
X200500Y9219500D01*
X200500Y9280500D01*
X214852Y9315148D01*
X249500Y9329500D01*
X664127Y9329500D01*
X664128Y9329500D01*
X756740Y9344168D01*
X763418Y9347572D01*
X800805Y9350517D01*
X820315Y9338562D01*
G37*
%TD.AperFunction*%
%TA.AperFunction,Conductor*%
G36*
X2669696Y8105131D02*
G01*
X2669964Y8105479D01*
X2672506Y8103528D01*
X2672508Y8103526D01*
X2696452Y8089702D01*
X2706600Y8081915D01*
X4534989Y6253526D01*
X4576604Y6229500D01*
X4619470Y6204751D01*
X4619474Y6204749D01*
X4666589Y6192125D01*
X4713702Y6179500D01*
X4713704Y6179500D01*
X4713705Y6179500D01*
X5020553Y6179500D01*
X5055201Y6165148D01*
X5069553Y6130500D01*
X5055201Y6095852D01*
X5052050Y6092964D01*
X5031249Y6075511D01*
X5031247Y6075508D01*
X5013634Y6045000D01*
X4983881Y6022170D01*
X4971199Y6020500D01*
X4340919Y6020500D01*
X4306271Y6034852D01*
X3696582Y6644542D01*
X3633916Y6670500D01*
X3633915Y6670500D01*
X3290919Y6670500D01*
X3256271Y6684852D01*
X2634852Y7306271D01*
X2620500Y7340919D01*
X2620500Y7983913D01*
X2620499Y7983917D01*
X2619807Y7985588D01*
X2594543Y8046580D01*
X2594541Y8046582D01*
X2593415Y8049301D01*
X2593415Y8086804D01*
X2619933Y8113323D01*
X2657436Y8113323D01*
X2669696Y8105131D01*
G37*
%TD.AperFunction*%
%TA.AperFunction,Conductor*%
G36*
X10483347Y9860529D02*
G01*
X10638419Y9705457D01*
X10638424Y9705455D01*
X10652969Y9699430D01*
X10652970Y9699430D01*
X10666388Y9693872D01*
X10701085Y9679500D01*
X10983323Y9679500D01*
X11017971Y9665148D01*
X11032323Y9630500D01*
X11025758Y9606000D01*
X10970328Y9509994D01*
X10949170Y9390000D01*
X10970328Y9270007D01*
X11031247Y9164493D01*
X11031248Y9164492D01*
X11031249Y9164491D01*
X11124585Y9086172D01*
X11239079Y9044500D01*
X11239080Y9044500D01*
X11360920Y9044500D01*
X11360921Y9044500D01*
X11475415Y9086172D01*
X11568751Y9164491D01*
X11619170Y9251819D01*
X11629671Y9270007D01*
X11629671Y9270008D01*
X11629672Y9270009D01*
X11650830Y9390000D01*
X11629672Y9509991D01*
X11629671Y9509993D01*
X11629671Y9509994D01*
X11574242Y9606000D01*
X11569347Y9643182D01*
X11592177Y9672935D01*
X11616677Y9679500D01*
X12068223Y9679500D01*
X12102871Y9665148D01*
X12117223Y9630500D01*
X12102871Y9595852D01*
X12099720Y9592964D01*
X12031247Y9535508D01*
X11970328Y9429994D01*
X11949170Y9310000D01*
X11970328Y9190007D01*
X12031247Y9084493D01*
X12031248Y9084492D01*
X12031249Y9084491D01*
X12124585Y9006172D01*
X12239079Y8964500D01*
X12239080Y8964500D01*
X12360920Y8964500D01*
X12360921Y8964500D01*
X12475415Y9006172D01*
X12568751Y9084491D01*
X12601841Y9141805D01*
X12629671Y9190007D01*
X12629671Y9190008D01*
X12629672Y9190009D01*
X12650830Y9310000D01*
X12629672Y9429991D01*
X12629671Y9429993D01*
X12629671Y9429994D01*
X12568752Y9535508D01*
X12500280Y9592964D01*
X12482963Y9626230D01*
X12494241Y9661997D01*
X12527507Y9679314D01*
X12531777Y9679500D01*
X16720081Y9679500D01*
X16754729Y9665148D01*
X16769081Y9630500D01*
X16754729Y9595852D01*
X16343729Y9184852D01*
X16309081Y9170500D01*
X15815919Y9170500D01*
X15781271Y9184852D01*
X15521582Y9444542D01*
X15519269Y9445500D01*
X15478697Y9462306D01*
X15458916Y9470500D01*
X15458915Y9470500D01*
X14766085Y9470500D01*
X14766083Y9470500D01*
X14729771Y9455458D01*
X14729532Y9455359D01*
X14705730Y9445500D01*
X14703417Y9444542D01*
X14116181Y8857306D01*
X14081533Y8842954D01*
X14046885Y8857306D01*
X14032533Y8891954D01*
X14033277Y8900456D01*
X14048159Y8984852D01*
X14050830Y8999998D01*
X14050227Y9003420D01*
X14029672Y9119991D01*
X14029671Y9119993D01*
X14029671Y9119994D01*
X13968752Y9225508D01*
X13954229Y9237694D01*
X13875415Y9303828D01*
X13760921Y9345500D01*
X13639079Y9345500D01*
X13595119Y9329500D01*
X13524584Y9303828D01*
X13472774Y9260354D01*
X13437006Y9249076D01*
X13403741Y9266393D01*
X13398842Y9273390D01*
X13368752Y9325508D01*
X13356883Y9335467D01*
X13275415Y9403828D01*
X13160921Y9445500D01*
X13039079Y9445500D01*
X12996476Y9429994D01*
X12924584Y9403828D01*
X12831247Y9325508D01*
X12770328Y9219994D01*
X12749170Y9100000D01*
X12770328Y8980007D01*
X12831247Y8874493D01*
X12831248Y8874492D01*
X12831249Y8874491D01*
X12851729Y8857306D01*
X12852051Y8857036D01*
X12869368Y8823770D01*
X12858090Y8788003D01*
X12824824Y8770686D01*
X12820554Y8770500D01*
X10966083Y8770500D01*
X10929773Y8755459D01*
X10927458Y8754500D01*
X10905129Y8745251D01*
X10903417Y8744542D01*
X10903415Y8744541D01*
X10626089Y8467215D01*
X10591441Y8452863D01*
X10556793Y8467215D01*
X10543185Y8493354D01*
X10542688Y8496173D01*
X10529672Y8569991D01*
X10529671Y8569993D01*
X10529671Y8569994D01*
X10468752Y8675508D01*
X10458735Y8683913D01*
X10375415Y8753828D01*
X10260921Y8795500D01*
X10139079Y8795500D01*
X10081832Y8774664D01*
X10024584Y8753828D01*
X9931247Y8675508D01*
X9870328Y8569994D01*
X9849170Y8450000D01*
X9870328Y8330007D01*
X9931247Y8224493D01*
X9931248Y8224492D01*
X9931249Y8224491D01*
X10024585Y8146172D01*
X10139079Y8104500D01*
X10139080Y8104500D01*
X10145081Y8104500D01*
X10179729Y8090148D01*
X10194081Y8055500D01*
X10179729Y8020852D01*
X10167593Y8008716D01*
X10155457Y7996581D01*
X10129500Y7933917D01*
X10129500Y6704616D01*
X10115148Y6669968D01*
X10080500Y6655616D01*
X10049003Y6667080D01*
X9975415Y6728828D01*
X9971159Y6730377D01*
X9860921Y6770500D01*
X9739079Y6770500D01*
X9681832Y6749664D01*
X9624584Y6728828D01*
X9550997Y6667080D01*
X9515230Y6655802D01*
X9481964Y6673119D01*
X9470500Y6704616D01*
X9470500Y9409082D01*
X9484851Y9443729D01*
X9750123Y9709002D01*
X9784770Y9723353D01*
X9816267Y9711889D01*
X9837739Y9693872D01*
X9894585Y9646172D01*
X10009079Y9604500D01*
X10009080Y9604500D01*
X10130920Y9604500D01*
X10130921Y9604500D01*
X10245415Y9646172D01*
X10338751Y9724491D01*
X10399672Y9830009D01*
X10400444Y9834388D01*
X10420590Y9866017D01*
X10457204Y9874137D01*
X10483347Y9860529D01*
G37*
%TD.AperFunction*%
%TA.AperFunction,Conductor*%
G36*
X14835786Y8550369D02*
G01*
X14849394Y8524230D01*
X14870328Y8405507D01*
X14931247Y8299993D01*
X14931248Y8299992D01*
X14931249Y8299991D01*
X15024585Y8221672D01*
X15139079Y8180000D01*
X15139080Y8180000D01*
X15260919Y8180000D01*
X15260921Y8180000D01*
X15285309Y8188877D01*
X15320818Y8188103D01*
X15341585Y8179500D01*
X15341587Y8179500D01*
X15580141Y8179500D01*
X15614789Y8165148D01*
X15629141Y8130500D01*
X15614789Y8095852D01*
X15611638Y8092964D01*
X15531247Y8025508D01*
X15470328Y7919994D01*
X15449170Y7800000D01*
X15470328Y7680007D01*
X15531247Y7574493D01*
X15531248Y7574492D01*
X15531249Y7574491D01*
X15546222Y7561927D01*
X15552051Y7557036D01*
X15569368Y7523770D01*
X15558090Y7488003D01*
X15524824Y7470686D01*
X15520554Y7470500D01*
X15423222Y7470500D01*
X15390729Y7482823D01*
X15375661Y7496172D01*
X15355073Y7514412D01*
X15355068Y7514416D01*
X15221649Y7584438D01*
X15221651Y7584438D01*
X15111918Y7611485D01*
X15075342Y7620500D01*
X14924658Y7620500D01*
X14787801Y7586768D01*
X14750725Y7592411D01*
X14741427Y7599696D01*
X14293168Y8047956D01*
X14294661Y8049450D01*
X14278199Y8074079D01*
X14285510Y8110862D01*
X14307504Y8128916D01*
X14308914Y8129500D01*
X14308915Y8129500D01*
X14371580Y8155457D01*
X14766492Y8550370D01*
X14801138Y8564721D01*
X14835786Y8550369D01*
G37*
%TD.AperFunction*%
%TA.AperFunction,Conductor*%
G36*
X17770005Y8615148D02*
G01*
X17784357Y8580500D01*
X17784000Y8574594D01*
X17778039Y8525500D01*
X17774943Y8500000D01*
X17783217Y8431858D01*
X17793106Y8350413D01*
X17846540Y8209521D01*
X17932136Y8085513D01*
X17932137Y8085512D01*
X17932138Y8085511D01*
X18005124Y8020851D01*
X18044926Y7985589D01*
X18044931Y7985585D01*
X18178350Y7915563D01*
X18178351Y7915563D01*
X18178352Y7915562D01*
X18324658Y7879500D01*
X18324659Y7879500D01*
X18475341Y7879500D01*
X18475342Y7879500D01*
X18621648Y7915562D01*
X18622645Y7916085D01*
X18658131Y7934709D01*
X18695480Y7938103D01*
X18724289Y7914093D01*
X18727683Y7876744D01*
X18715550Y7856674D01*
X18343729Y7484852D01*
X18309081Y7470500D01*
X16079446Y7470500D01*
X16044798Y7484852D01*
X16030446Y7519500D01*
X16044798Y7554148D01*
X16047949Y7557036D01*
X16050990Y7559588D01*
X16068751Y7574491D01*
X16124182Y7670500D01*
X16129671Y7680007D01*
X16129671Y7680008D01*
X16129672Y7680009D01*
X16150830Y7800000D01*
X16129672Y7919991D01*
X16129671Y7919993D01*
X16129671Y7919994D01*
X16068752Y8025508D01*
X16040219Y8049450D01*
X15988361Y8092965D01*
X15971045Y8126230D01*
X15982323Y8161997D01*
X16015589Y8179314D01*
X16019859Y8179500D01*
X16883913Y8179500D01*
X16883915Y8179500D01*
X16946580Y8205457D01*
X17356271Y8615148D01*
X17390919Y8629500D01*
X17735357Y8629500D01*
X17770005Y8615148D01*
G37*
%TD.AperFunction*%
%TA.AperFunction,Conductor*%
G36*
X7143729Y12015148D02*
G01*
X7205429Y11953448D01*
X7219781Y11918800D01*
X7205429Y11884152D01*
X7170781Y11869800D01*
X7072449Y11869800D01*
X6939969Y11843448D01*
X6939958Y11843445D01*
X6815152Y11791749D01*
X6702830Y11716698D01*
X6607302Y11621170D01*
X6532251Y11508848D01*
X6480555Y11384042D01*
X6480552Y11384031D01*
X6454200Y11251551D01*
X6454200Y11116450D01*
X6480552Y10983970D01*
X6480555Y10983959D01*
X6532251Y10859153D01*
X6607302Y10746831D01*
X6702830Y10651303D01*
X6747635Y10621366D01*
X6815152Y10576252D01*
X6832236Y10569176D01*
X6858755Y10542659D01*
X6858756Y10505156D01*
X6848133Y10489258D01*
X6593729Y10234852D01*
X6559081Y10220500D01*
X6205920Y10220500D01*
X6171272Y10234852D01*
X5087326Y11318798D01*
X5072974Y11353446D01*
X5076703Y11372195D01*
X5100965Y11430767D01*
X5113028Y11522397D01*
X5131780Y11554874D01*
X5161609Y11565000D01*
X5308391Y11565000D01*
X5343039Y11550648D01*
X5356971Y11522397D01*
X5357926Y11515148D01*
X5369034Y11430768D01*
X5420844Y11305686D01*
X5420847Y11305681D01*
X5497751Y11205457D01*
X5503268Y11198268D01*
X5610681Y11115847D01*
X5610683Y11115847D01*
X5610685Y11115845D01*
X5698431Y11079500D01*
X5735767Y11064035D01*
X5870000Y11046363D01*
X6004233Y11064035D01*
X6129319Y11115847D01*
X6236732Y11198268D01*
X6319153Y11305681D01*
X6370965Y11430767D01*
X6388637Y11565000D01*
X6370965Y11699233D01*
X6332644Y11791749D01*
X6319154Y11824317D01*
X6319150Y11824323D01*
X6236732Y11931732D01*
X6236731Y11931733D01*
X6223838Y11941626D01*
X6205086Y11974104D01*
X6214793Y12010329D01*
X6247271Y12029081D01*
X6253667Y12029500D01*
X7109081Y12029500D01*
X7143729Y12015148D01*
G37*
%TD.AperFunction*%
%TA.AperFunction,Conductor*%
G36*
X11983729Y10675148D02*
G01*
X12305210Y10353667D01*
X12319562Y10319019D01*
X12305210Y10284371D01*
X12270562Y10270019D01*
X11265602Y10270019D01*
X11215901Y10249431D01*
X11202937Y10244062D01*
X11202936Y10244060D01*
X11193728Y10234852D01*
X11159080Y10220500D01*
X10950919Y10220500D01*
X10916271Y10234852D01*
X10545271Y10605852D01*
X10530919Y10640500D01*
X10545271Y10675148D01*
X10579919Y10689500D01*
X11949081Y10689500D01*
X11983729Y10675148D01*
G37*
%TD.AperFunction*%
%TA.AperFunction,Conductor*%
G36*
X9955830Y13785148D02*
G01*
X9970182Y13750500D01*
X9955830Y13715852D01*
X9933864Y13703170D01*
X9870217Y13686117D01*
X9870218Y13686116D01*
X9866997Y13685253D01*
X9866990Y13685251D01*
X9782507Y13636474D01*
X9782507Y13636473D01*
X9260885Y13114852D01*
X9226237Y13100500D01*
X8769500Y13100500D01*
X8734852Y13114852D01*
X8720500Y13149500D01*
X8720500Y13548780D01*
X8720499Y13548781D01*
X8707055Y13598955D01*
X8695251Y13643008D01*
X8647334Y13726001D01*
X8642440Y13763182D01*
X8665270Y13792935D01*
X8689770Y13799500D01*
X9921182Y13799500D01*
X9955830Y13785148D01*
G37*
%TD.AperFunction*%
%TD*%
M02*
