%TF.GenerationSoftware,KiCad,Pcbnew,8.0.3*%
%TF.CreationDate,2024-06-14T23:01:07+10:00*%
%TF.ProjectId,rs-probe,72732d70-726f-4626-952e-6b696361645f,rev?*%
%TF.SameCoordinates,Original*%
%TF.FileFunction,Soldermask,Bot*%
%TF.FilePolarity,Negative*%
%FSLAX46Y46*%
G04 Gerber Fmt 4.6, Leading zero omitted, Abs format (unit mm)*
G04 Created by KiCad (PCBNEW 8.0.3) date 2024-06-14 23:01:07*
%MOMM*%
%LPD*%
G01*
G04 APERTURE LIST*
G04 Aperture macros list*
%AMRoundRect*
0 Rectangle with rounded corners*
0 $1 Rounding radius*
0 $2 $3 $4 $5 $6 $7 $8 $9 X,Y pos of 4 corners*
0 Add a 4 corners polygon primitive as box body*
4,1,4,$2,$3,$4,$5,$6,$7,$8,$9,$2,$3,0*
0 Add four circle primitives for the rounded corners*
1,1,$1+$1,$2,$3*
1,1,$1+$1,$4,$5*
1,1,$1+$1,$6,$7*
1,1,$1+$1,$8,$9*
0 Add four rect primitives between the rounded corners*
20,1,$1+$1,$2,$3,$4,$5,0*
20,1,$1+$1,$4,$5,$6,$7,0*
20,1,$1+$1,$6,$7,$8,$9,0*
20,1,$1+$1,$8,$9,$2,$3,0*%
G04 Aperture macros list end*
%ADD10C,0.650000*%
%ADD11O,2.100000X1.000000*%
%ADD12O,1.600000X1.000000*%
%ADD13RoundRect,0.275000X0.325000X0.275000X-0.325000X0.275000X-0.325000X-0.275000X0.325000X-0.275000X0*%
%ADD14C,1.100000*%
%ADD15RoundRect,0.275000X0.275000X-0.325000X0.275000X0.325000X-0.275000X0.325000X-0.275000X-0.325000X0*%
%ADD16RoundRect,0.275000X-0.275000X0.325000X-0.275000X-0.325000X0.275000X-0.325000X0.275000X0.325000X0*%
%ADD17C,0.990600*%
%ADD18C,0.787400*%
%ADD19C,1.000000*%
%ADD20RoundRect,0.375000X0.375000X0.625000X-0.375000X0.625000X-0.375000X-0.625000X0.375000X-0.625000X0*%
G04 APERTURE END LIST*
D10*
%TO.C,J1*%
X34400000Y4110000D03*
X34400000Y9890000D03*
D11*
X33870000Y2680000D03*
D12*
X38050000Y2680000D03*
D11*
X33870000Y11320000D03*
D12*
X38050000Y11320000D03*
%TD*%
D13*
%TO.C,J2*%
X300000Y1000000D03*
D14*
X0Y1000000D03*
D13*
X308000Y2500000D03*
D14*
X0Y2500000D03*
D13*
X308000Y4000000D03*
D14*
X0Y4000000D03*
D13*
X308000Y5500000D03*
D14*
X0Y5500000D03*
D13*
X308000Y7000000D03*
D14*
X0Y7000000D03*
D13*
X308000Y8500000D03*
D14*
X0Y8500000D03*
D13*
X308000Y10000000D03*
D14*
X0Y10000000D03*
D13*
X308000Y11500000D03*
D14*
X0Y11500000D03*
D13*
X308000Y13000000D03*
D14*
X0Y13000000D03*
%TD*%
D15*
%TO.C,J4*%
X30500000Y13700000D03*
D14*
X30500000Y14000000D03*
D15*
X32000000Y13692000D03*
D14*
X32000000Y14000000D03*
D15*
X33500000Y13692000D03*
D14*
X33500000Y14000000D03*
%TD*%
D16*
%TO.C,J3*%
X33500000Y300000D03*
D14*
X33500000Y0D03*
D16*
X32000000Y308000D03*
D14*
X32000000Y0D03*
%TD*%
D17*
%TO.C,J5*%
X2060000Y12200000D03*
X7140000Y13216000D03*
X7140000Y11184000D03*
D18*
X3330000Y12835000D03*
X3330000Y11565000D03*
X4600000Y12835000D03*
X4600000Y11565000D03*
X5870000Y12835000D03*
X5870000Y11565000D03*
%TD*%
D19*
%TO.C,TP1*%
X15000000Y7000000D03*
%TD*%
%TO.C,TP3*%
X18100000Y6000000D03*
%TD*%
%TO.C,TP4*%
X18400000Y8500000D03*
%TD*%
%TO.C,TP2*%
X16200000Y4500000D03*
%TD*%
D20*
%TO.C,J8*%
X9600000Y1200000D03*
%TD*%
%TO.C,J7*%
X4560000Y1200000D03*
%TD*%
%TO.C,J6*%
X2050000Y1200000D03*
%TD*%
%TO.C,J9*%
X7100000Y1200000D03*
%TD*%
M02*
