%TF.GenerationSoftware,KiCad,Pcbnew,8.0.3*%
%TF.CreationDate,2024-06-14T23:01:07+10:00*%
%TF.ProjectId,rs-probe,72732d70-726f-4626-952e-6b696361645f,rev?*%
%TF.SameCoordinates,Original*%
%TF.FileFunction,Legend,Bot*%
%TF.FilePolarity,Positive*%
%FSLAX46Y46*%
G04 Gerber Fmt 4.6, Leading zero omitted, Abs format (unit mm)*
G04 Created by KiCad (PCBNEW 8.0.3) date 2024-06-14 23:01:07*
%MOMM*%
%LPD*%
G01*
G04 APERTURE LIST*
G04 Aperture macros list*
%AMRoundRect*
0 Rectangle with rounded corners*
0 $1 Rounding radius*
0 $2 $3 $4 $5 $6 $7 $8 $9 X,Y pos of 4 corners*
0 Add a 4 corners polygon primitive as box body*
4,1,4,$2,$3,$4,$5,$6,$7,$8,$9,$2,$3,0*
0 Add four circle primitives for the rounded corners*
1,1,$1+$1,$2,$3*
1,1,$1+$1,$4,$5*
1,1,$1+$1,$6,$7*
1,1,$1+$1,$8,$9*
0 Add four rect primitives between the rounded corners*
20,1,$1+$1,$2,$3,$4,$5,0*
20,1,$1+$1,$4,$5,$6,$7,0*
20,1,$1+$1,$6,$7,$8,$9,0*
20,1,$1+$1,$8,$9,$2,$3,0*%
G04 Aperture macros list end*
%ADD10C,0.250000*%
%ADD11C,0.120000*%
%ADD12C,0.000000*%
%ADD13C,0.650000*%
%ADD14O,2.100000X1.000000*%
%ADD15O,1.600000X1.000000*%
%ADD16RoundRect,0.275000X0.325000X0.275000X-0.325000X0.275000X-0.325000X-0.275000X0.325000X-0.275000X0*%
%ADD17C,1.100000*%
%ADD18RoundRect,0.275000X0.275000X-0.325000X0.275000X0.325000X-0.275000X0.325000X-0.275000X-0.325000X0*%
%ADD19RoundRect,0.275000X-0.275000X0.325000X-0.275000X-0.325000X0.275000X-0.325000X0.275000X0.325000X0*%
%ADD20C,0.990600*%
%ADD21C,0.787400*%
%ADD22C,1.000000*%
%ADD23RoundRect,0.375000X0.375000X0.625000X-0.375000X0.625000X-0.375000X-0.625000X0.375000X-0.625000X0*%
G04 APERTURE END LIST*
D10*
X20605527Y12857858D02*
X20605527Y11886429D01*
X20605527Y11886429D02*
X20662669Y11772143D01*
X20662669Y11772143D02*
X20719812Y11715000D01*
X20719812Y11715000D02*
X20834098Y11657858D01*
X20834098Y11657858D02*
X21005527Y11657858D01*
X21005527Y11657858D02*
X21119812Y11715000D01*
X20605527Y12115000D02*
X20719812Y12057858D01*
X20719812Y12057858D02*
X20948384Y12057858D01*
X20948384Y12057858D02*
X21062669Y12115000D01*
X21062669Y12115000D02*
X21119812Y12172143D01*
X21119812Y12172143D02*
X21176955Y12286429D01*
X21176955Y12286429D02*
X21176955Y12629286D01*
X21176955Y12629286D02*
X21119812Y12743572D01*
X21119812Y12743572D02*
X21062669Y12800715D01*
X21062669Y12800715D02*
X20948384Y12857858D01*
X20948384Y12857858D02*
X20719812Y12857858D01*
X20719812Y12857858D02*
X20605527Y12800715D01*
X20034098Y12057858D02*
X20034098Y12857858D01*
X20034098Y13257858D02*
X20091241Y13200715D01*
X20091241Y13200715D02*
X20034098Y13143572D01*
X20034098Y13143572D02*
X19976955Y13200715D01*
X19976955Y13200715D02*
X20034098Y13257858D01*
X20034098Y13257858D02*
X20034098Y13143572D01*
X19634098Y12857858D02*
X19176955Y12857858D01*
X19462669Y13257858D02*
X19462669Y12229286D01*
X19462669Y12229286D02*
X19405526Y12115000D01*
X19405526Y12115000D02*
X19291241Y12057858D01*
X19291241Y12057858D02*
X19176955Y12057858D01*
X18776955Y12172143D02*
X18719812Y12115000D01*
X18719812Y12115000D02*
X18776955Y12057858D01*
X18776955Y12057858D02*
X18834098Y12115000D01*
X18834098Y12115000D02*
X18776955Y12172143D01*
X18776955Y12172143D02*
X18776955Y12057858D01*
X18776955Y12800715D02*
X18719812Y12743572D01*
X18719812Y12743572D02*
X18776955Y12686429D01*
X18776955Y12686429D02*
X18834098Y12743572D01*
X18834098Y12743572D02*
X18776955Y12800715D01*
X18776955Y12800715D02*
X18776955Y12686429D01*
X16948383Y11600715D02*
X17005526Y11600715D01*
X17005526Y11600715D02*
X17119812Y11657858D01*
X17119812Y11657858D02*
X17176955Y11772143D01*
X17176955Y11772143D02*
X17176955Y12343572D01*
X17176955Y12343572D02*
X17234097Y12457858D01*
X17234097Y12457858D02*
X17348383Y12515000D01*
X17348383Y12515000D02*
X17234097Y12572143D01*
X17234097Y12572143D02*
X17176955Y12686429D01*
X17176955Y12686429D02*
X17176955Y13257858D01*
X17176955Y13257858D02*
X17119812Y13372143D01*
X17119812Y13372143D02*
X17005526Y13429286D01*
X17005526Y13429286D02*
X16948383Y13429286D01*
X15862669Y13200715D02*
X15976955Y13257858D01*
X15976955Y13257858D02*
X16148383Y13257858D01*
X16148383Y13257858D02*
X16319812Y13200715D01*
X16319812Y13200715D02*
X16434097Y13086429D01*
X16434097Y13086429D02*
X16491240Y12972143D01*
X16491240Y12972143D02*
X16548383Y12743572D01*
X16548383Y12743572D02*
X16548383Y12572143D01*
X16548383Y12572143D02*
X16491240Y12343572D01*
X16491240Y12343572D02*
X16434097Y12229286D01*
X16434097Y12229286D02*
X16319812Y12115000D01*
X16319812Y12115000D02*
X16148383Y12057858D01*
X16148383Y12057858D02*
X16034097Y12057858D01*
X16034097Y12057858D02*
X15862669Y12115000D01*
X15862669Y12115000D02*
X15805526Y12172143D01*
X15805526Y12172143D02*
X15805526Y12572143D01*
X15805526Y12572143D02*
X16034097Y12572143D01*
X15291240Y12057858D02*
X15291240Y13257858D01*
X14891240Y13257858D02*
X14205526Y13257858D01*
X14548383Y12057858D02*
X14548383Y13257858D01*
X13805525Y12057858D02*
X13805525Y13257858D01*
X13805525Y12686429D02*
X13119811Y12686429D01*
X13119811Y12057858D02*
X13119811Y13257858D01*
X12605525Y12400715D02*
X12034097Y12400715D01*
X12719811Y12057858D02*
X12319811Y13257858D01*
X12319811Y13257858D02*
X11919811Y12057858D01*
X11576954Y12115000D02*
X11405526Y12057858D01*
X11405526Y12057858D02*
X11119811Y12057858D01*
X11119811Y12057858D02*
X11005526Y12115000D01*
X11005526Y12115000D02*
X10948383Y12172143D01*
X10948383Y12172143D02*
X10891240Y12286429D01*
X10891240Y12286429D02*
X10891240Y12400715D01*
X10891240Y12400715D02*
X10948383Y12515000D01*
X10948383Y12515000D02*
X11005526Y12572143D01*
X11005526Y12572143D02*
X11119811Y12629286D01*
X11119811Y12629286D02*
X11348383Y12686429D01*
X11348383Y12686429D02*
X11462668Y12743572D01*
X11462668Y12743572D02*
X11519811Y12800715D01*
X11519811Y12800715D02*
X11576954Y12915000D01*
X11576954Y12915000D02*
X11576954Y13029286D01*
X11576954Y13029286D02*
X11519811Y13143572D01*
X11519811Y13143572D02*
X11462668Y13200715D01*
X11462668Y13200715D02*
X11348383Y13257858D01*
X11348383Y13257858D02*
X11062668Y13257858D01*
X11062668Y13257858D02*
X10891240Y13200715D01*
X10376954Y12057858D02*
X10376954Y13257858D01*
X10376954Y12686429D02*
X9691240Y12686429D01*
X9691240Y12057858D02*
X9691240Y13257858D01*
X9234097Y11600715D02*
X9176954Y11600715D01*
X9176954Y11600715D02*
X9062668Y11657858D01*
X9062668Y11657858D02*
X9005526Y11772143D01*
X9005526Y11772143D02*
X9005526Y12343572D01*
X9005526Y12343572D02*
X8948383Y12457858D01*
X8948383Y12457858D02*
X8834097Y12515000D01*
X8834097Y12515000D02*
X8948383Y12572143D01*
X8948383Y12572143D02*
X9005526Y12686429D01*
X9005526Y12686429D02*
X9005526Y13257858D01*
X9005526Y13257858D02*
X9062668Y13372143D01*
X9062668Y13372143D02*
X9176954Y13429286D01*
X9176954Y13429286D02*
X9234097Y13429286D01*
X26592669Y3339011D02*
X26406955Y3277106D01*
X26406955Y3277106D02*
X26345050Y3215202D01*
X26345050Y3215202D02*
X26283146Y3091392D01*
X26283146Y3091392D02*
X26283146Y2905678D01*
X26283146Y2905678D02*
X26345050Y2781868D01*
X26345050Y2781868D02*
X26406955Y2719963D01*
X26406955Y2719963D02*
X26530765Y2658059D01*
X26530765Y2658059D02*
X27026003Y2658059D01*
X27026003Y2658059D02*
X27026003Y3958059D01*
X27026003Y3958059D02*
X26592669Y3958059D01*
X26592669Y3958059D02*
X26468860Y3896154D01*
X26468860Y3896154D02*
X26406955Y3834249D01*
X26406955Y3834249D02*
X26345050Y3710440D01*
X26345050Y3710440D02*
X26345050Y3586630D01*
X26345050Y3586630D02*
X26406955Y3462821D01*
X26406955Y3462821D02*
X26468860Y3400916D01*
X26468860Y3400916D02*
X26592669Y3339011D01*
X26592669Y3339011D02*
X27026003Y3339011D01*
X25849812Y3524725D02*
X25540288Y2658059D01*
X25230765Y3524725D02*
X25540288Y2658059D01*
X25540288Y2658059D02*
X25664098Y2348535D01*
X25664098Y2348535D02*
X25726003Y2286630D01*
X25726003Y2286630D02*
X25849812Y2224725D01*
X23745051Y3339011D02*
X23311717Y3339011D01*
X23126003Y2658059D02*
X23745051Y2658059D01*
X23745051Y2658059D02*
X23745051Y3958059D01*
X23745051Y3958059D02*
X23126003Y3958059D01*
X22568861Y2658059D02*
X22568861Y3524725D01*
X22568861Y3400916D02*
X22506956Y3462821D01*
X22506956Y3462821D02*
X22383146Y3524725D01*
X22383146Y3524725D02*
X22197432Y3524725D01*
X22197432Y3524725D02*
X22073623Y3462821D01*
X22073623Y3462821D02*
X22011718Y3339011D01*
X22011718Y3339011D02*
X22011718Y2658059D01*
X22011718Y3339011D02*
X21949813Y3462821D01*
X21949813Y3462821D02*
X21826004Y3524725D01*
X21826004Y3524725D02*
X21640289Y3524725D01*
X21640289Y3524725D02*
X21516480Y3462821D01*
X21516480Y3462821D02*
X21454575Y3339011D01*
X21454575Y3339011D02*
X21454575Y2658059D01*
X20835528Y2658059D02*
X20835528Y3524725D01*
X20835528Y3958059D02*
X20897432Y3896154D01*
X20897432Y3896154D02*
X20835528Y3834249D01*
X20835528Y3834249D02*
X20773623Y3896154D01*
X20773623Y3896154D02*
X20835528Y3958059D01*
X20835528Y3958059D02*
X20835528Y3834249D01*
X20030765Y2658059D02*
X20154575Y2719963D01*
X20154575Y2719963D02*
X20216480Y2843773D01*
X20216480Y2843773D02*
X20216480Y3958059D01*
X18111718Y3339011D02*
X18545052Y3339011D01*
X18545052Y2658059D02*
X18545052Y3958059D01*
X18545052Y3958059D02*
X17926004Y3958059D01*
X17430766Y2658059D02*
X17430766Y3524725D01*
X17430766Y3277106D02*
X17368861Y3400916D01*
X17368861Y3400916D02*
X17306956Y3462821D01*
X17306956Y3462821D02*
X17183147Y3524725D01*
X17183147Y3524725D02*
X17059337Y3524725D01*
X16130766Y2719963D02*
X16254575Y2658059D01*
X16254575Y2658059D02*
X16502194Y2658059D01*
X16502194Y2658059D02*
X16626004Y2719963D01*
X16626004Y2719963D02*
X16687908Y2843773D01*
X16687908Y2843773D02*
X16687908Y3339011D01*
X16687908Y3339011D02*
X16626004Y3462821D01*
X16626004Y3462821D02*
X16502194Y3524725D01*
X16502194Y3524725D02*
X16254575Y3524725D01*
X16254575Y3524725D02*
X16130766Y3462821D01*
X16130766Y3462821D02*
X16068861Y3339011D01*
X16068861Y3339011D02*
X16068861Y3215202D01*
X16068861Y3215202D02*
X16687908Y3091392D01*
X15573622Y2719963D02*
X15449813Y2658059D01*
X15449813Y2658059D02*
X15202194Y2658059D01*
X15202194Y2658059D02*
X15078384Y2719963D01*
X15078384Y2719963D02*
X15016480Y2843773D01*
X15016480Y2843773D02*
X15016480Y2905678D01*
X15016480Y2905678D02*
X15078384Y3029487D01*
X15078384Y3029487D02*
X15202194Y3091392D01*
X15202194Y3091392D02*
X15387908Y3091392D01*
X15387908Y3091392D02*
X15511718Y3153297D01*
X15511718Y3153297D02*
X15573622Y3277106D01*
X15573622Y3277106D02*
X15573622Y3339011D01*
X15573622Y3339011D02*
X15511718Y3462821D01*
X15511718Y3462821D02*
X15387908Y3524725D01*
X15387908Y3524725D02*
X15202194Y3524725D01*
X15202194Y3524725D02*
X15078384Y3462821D01*
X14459337Y2658059D02*
X14459337Y3958059D01*
X14335527Y3153297D02*
X13964099Y2658059D01*
X13964099Y3524725D02*
X14459337Y3029487D01*
X26221241Y1184179D02*
X26283146Y1246084D01*
X26283146Y1246084D02*
X26406955Y1307989D01*
X26406955Y1307989D02*
X26530765Y1307989D01*
X26530765Y1307989D02*
X26654574Y1246084D01*
X26654574Y1246084D02*
X26716479Y1184179D01*
X26716479Y1184179D02*
X26778384Y1060370D01*
X26778384Y1060370D02*
X26778384Y936560D01*
X26778384Y936560D02*
X26716479Y812751D01*
X26716479Y812751D02*
X26654574Y750846D01*
X26654574Y750846D02*
X26530765Y688941D01*
X26530765Y688941D02*
X26406955Y688941D01*
X26406955Y688941D02*
X26283146Y750846D01*
X26283146Y750846D02*
X26221241Y812751D01*
X26221241Y1307989D02*
X26221241Y812751D01*
X26221241Y812751D02*
X26159336Y750846D01*
X26159336Y750846D02*
X26097431Y750846D01*
X26097431Y750846D02*
X25973622Y812751D01*
X25973622Y812751D02*
X25911717Y936560D01*
X25911717Y936560D02*
X25911717Y1246084D01*
X25911717Y1246084D02*
X26035527Y1431798D01*
X26035527Y1431798D02*
X26221241Y1555608D01*
X26221241Y1555608D02*
X26468860Y1617513D01*
X26468860Y1617513D02*
X26716479Y1555608D01*
X26716479Y1555608D02*
X26902193Y1431798D01*
X26902193Y1431798D02*
X27026003Y1246084D01*
X27026003Y1246084D02*
X27087907Y998465D01*
X27087907Y998465D02*
X27026003Y750846D01*
X27026003Y750846D02*
X26902193Y565132D01*
X26902193Y565132D02*
X26716479Y441322D01*
X26716479Y441322D02*
X26468860Y379417D01*
X26468860Y379417D02*
X26221241Y441322D01*
X26221241Y441322D02*
X26035527Y565132D01*
X25354574Y565132D02*
X25354574Y1865132D01*
X25230764Y1060370D02*
X24859336Y565132D01*
X24859336Y1431798D02*
X25354574Y936560D01*
X24116478Y565132D02*
X24240288Y627036D01*
X24240288Y627036D02*
X24302193Y688941D01*
X24302193Y688941D02*
X24364097Y812751D01*
X24364097Y812751D02*
X24364097Y1184179D01*
X24364097Y1184179D02*
X24302193Y1307989D01*
X24302193Y1307989D02*
X24240288Y1369894D01*
X24240288Y1369894D02*
X24116478Y1431798D01*
X24116478Y1431798D02*
X23930764Y1431798D01*
X23930764Y1431798D02*
X23806955Y1369894D01*
X23806955Y1369894D02*
X23745050Y1307989D01*
X23745050Y1307989D02*
X23683145Y1184179D01*
X23683145Y1184179D02*
X23683145Y812751D01*
X23683145Y812751D02*
X23745050Y688941D01*
X23745050Y688941D02*
X23806955Y627036D01*
X23806955Y627036D02*
X23930764Y565132D01*
X23930764Y565132D02*
X24116478Y565132D01*
X23126003Y565132D02*
X23126003Y1431798D01*
X23126003Y1184179D02*
X23064098Y1307989D01*
X23064098Y1307989D02*
X23002193Y1369894D01*
X23002193Y1369894D02*
X22878384Y1431798D01*
X22878384Y1431798D02*
X22754574Y1431798D01*
X22321241Y565132D02*
X22321241Y1865132D01*
X22197431Y1060370D02*
X21826003Y565132D01*
X21826003Y1431798D02*
X22321241Y936560D01*
X20773622Y627036D02*
X20897431Y565132D01*
X20897431Y565132D02*
X21145050Y565132D01*
X21145050Y565132D02*
X21268860Y627036D01*
X21268860Y627036D02*
X21330764Y750846D01*
X21330764Y750846D02*
X21330764Y1246084D01*
X21330764Y1246084D02*
X21268860Y1369894D01*
X21268860Y1369894D02*
X21145050Y1431798D01*
X21145050Y1431798D02*
X20897431Y1431798D01*
X20897431Y1431798D02*
X20773622Y1369894D01*
X20773622Y1369894D02*
X20711717Y1246084D01*
X20711717Y1246084D02*
X20711717Y1122275D01*
X20711717Y1122275D02*
X21330764Y998465D01*
X20154574Y1431798D02*
X20154574Y565132D01*
X20154574Y1307989D02*
X20092669Y1369894D01*
X20092669Y1369894D02*
X19968859Y1431798D01*
X19968859Y1431798D02*
X19783145Y1431798D01*
X19783145Y1431798D02*
X19659336Y1369894D01*
X19659336Y1369894D02*
X19597431Y1246084D01*
X19597431Y1246084D02*
X19597431Y565132D01*
X18792669Y1307989D02*
X18916479Y1369894D01*
X18916479Y1369894D02*
X18978384Y1431798D01*
X18978384Y1431798D02*
X19040288Y1555608D01*
X19040288Y1555608D02*
X19040288Y1617513D01*
X19040288Y1617513D02*
X18978384Y1741322D01*
X18978384Y1741322D02*
X18916479Y1803227D01*
X18916479Y1803227D02*
X18792669Y1865132D01*
X18792669Y1865132D02*
X18545050Y1865132D01*
X18545050Y1865132D02*
X18421241Y1803227D01*
X18421241Y1803227D02*
X18359336Y1741322D01*
X18359336Y1741322D02*
X18297431Y1617513D01*
X18297431Y1617513D02*
X18297431Y1555608D01*
X18297431Y1555608D02*
X18359336Y1431798D01*
X18359336Y1431798D02*
X18421241Y1369894D01*
X18421241Y1369894D02*
X18545050Y1307989D01*
X18545050Y1307989D02*
X18792669Y1307989D01*
X18792669Y1307989D02*
X18916479Y1246084D01*
X18916479Y1246084D02*
X18978384Y1184179D01*
X18978384Y1184179D02*
X19040288Y1060370D01*
X19040288Y1060370D02*
X19040288Y812751D01*
X19040288Y812751D02*
X18978384Y688941D01*
X18978384Y688941D02*
X18916479Y627036D01*
X18916479Y627036D02*
X18792669Y565132D01*
X18792669Y565132D02*
X18545050Y565132D01*
X18545050Y565132D02*
X18421241Y627036D01*
X18421241Y627036D02*
X18359336Y688941D01*
X18359336Y688941D02*
X18297431Y812751D01*
X18297431Y812751D02*
X18297431Y1060370D01*
X18297431Y1060370D02*
X18359336Y1184179D01*
X18359336Y1184179D02*
X18421241Y1246084D01*
X18421241Y1246084D02*
X18545050Y1307989D01*
X17678384Y565132D02*
X17430765Y565132D01*
X17430765Y565132D02*
X17306955Y627036D01*
X17306955Y627036D02*
X17245051Y688941D01*
X17245051Y688941D02*
X17121241Y874656D01*
X17121241Y874656D02*
X17059336Y1122275D01*
X17059336Y1122275D02*
X17059336Y1617513D01*
X17059336Y1617513D02*
X17121241Y1741322D01*
X17121241Y1741322D02*
X17183146Y1803227D01*
X17183146Y1803227D02*
X17306955Y1865132D01*
X17306955Y1865132D02*
X17554574Y1865132D01*
X17554574Y1865132D02*
X17678384Y1803227D01*
X17678384Y1803227D02*
X17740289Y1741322D01*
X17740289Y1741322D02*
X17802193Y1617513D01*
X17802193Y1617513D02*
X17802193Y1307989D01*
X17802193Y1307989D02*
X17740289Y1184179D01*
X17740289Y1184179D02*
X17678384Y1122275D01*
X17678384Y1122275D02*
X17554574Y1060370D01*
X17554574Y1060370D02*
X17306955Y1060370D01*
X17306955Y1060370D02*
X17183146Y1122275D01*
X17183146Y1122275D02*
X17121241Y1184179D01*
X17121241Y1184179D02*
X17059336Y1307989D01*
D11*
%TO.C,J5*%
X2695000Y13470000D02*
X2695000Y12835000D01*
X3330000Y13470000D02*
X2695000Y13470000D01*
D12*
%TO.C,kibuzzard-61FE7ECB*%
G36*
X3834269Y10464093D02*
G01*
X3865702Y10459728D01*
X3865702Y9733287D01*
X3846493Y9731541D01*
X3827284Y9731541D01*
X3704174Y9759481D01*
X3623846Y9836316D01*
X3580190Y9952442D01*
X3570367Y10022947D01*
X3567093Y10100000D01*
X3577571Y10236208D01*
X3614242Y10353206D01*
X3685838Y10434407D01*
X3802837Y10464966D01*
X3834269Y10464093D01*
G37*
G36*
X5851188Y10882320D02*
G01*
X5851334Y10882320D01*
X5928014Y10878553D01*
X6003957Y10867288D01*
X6078429Y10848634D01*
X6150715Y10822769D01*
X6220117Y10789945D01*
X6285967Y10750475D01*
X6347632Y10704742D01*
X6404517Y10653184D01*
X6456075Y10596299D01*
X6501809Y10534634D01*
X6541278Y10468783D01*
X6574103Y10399381D01*
X6599967Y10327096D01*
X6618622Y10252623D01*
X6629887Y10176681D01*
X6633654Y10100000D01*
X6629887Y10023319D01*
X6618622Y9947377D01*
X6599967Y9872904D01*
X6574103Y9800619D01*
X6541278Y9731217D01*
X6501809Y9665366D01*
X6456075Y9603701D01*
X6404517Y9546816D01*
X6347632Y9495258D01*
X6285967Y9449525D01*
X6220117Y9410055D01*
X6150715Y9377231D01*
X6078429Y9351366D01*
X6003957Y9332712D01*
X5928014Y9321447D01*
X5851334Y9317680D01*
X5851188Y9317680D01*
X3348812Y9317680D01*
X3348666Y9317680D01*
X3271986Y9321447D01*
X3196043Y9332712D01*
X3121571Y9351366D01*
X3049285Y9377231D01*
X2979883Y9410055D01*
X2914033Y9449525D01*
X2852368Y9495258D01*
X2795483Y9546816D01*
X2743925Y9603701D01*
X2698191Y9665366D01*
X2658722Y9731217D01*
X2625897Y9800619D01*
X2600033Y9872904D01*
X2581378Y9947377D01*
X2570113Y10023319D01*
X2566346Y10100000D01*
X3348812Y10100000D01*
X3358198Y9960955D01*
X3386356Y9844174D01*
X3431104Y9748349D01*
X3490258Y9672169D01*
X3562946Y9614761D01*
X3648294Y9575252D01*
X3744556Y9552332D01*
X3849986Y9544692D01*
X3962619Y9550804D01*
X4080491Y9570886D01*
X4080491Y10625621D01*
X3988522Y10639591D01*
X4214952Y10639591D01*
X4220191Y10504912D01*
X4225429Y10366303D01*
X4231105Y10226167D01*
X4237653Y10086903D01*
X4245293Y9949168D01*
X4254242Y9813615D01*
X4264502Y9682646D01*
X4276071Y9558662D01*
X4454188Y9558662D01*
X4492606Y9672824D01*
X4531023Y9795279D01*
X4569441Y9919045D01*
X4607858Y10037135D01*
X4647149Y9922319D01*
X4688186Y9797899D01*
X4728349Y9673478D01*
X4765021Y9558662D01*
X4943138Y9558662D01*
X4956235Y9682865D01*
X4967586Y9814488D01*
X4970419Y9853779D01*
X5117763Y9853779D01*
X5142429Y9719099D01*
X5216426Y9618908D01*
X5293552Y9572827D01*
X5393380Y9545178D01*
X5515908Y9535961D01*
X5636836Y9543165D01*
X5730697Y9564774D01*
X5851188Y9618035D01*
X5788323Y9792660D01*
X5675690Y9740272D01*
X5603002Y9721937D01*
X5515908Y9715825D01*
X5425976Y9727176D01*
X5369223Y9758608D01*
X5340410Y9804011D01*
X5332552Y9855525D01*
X5351761Y9914897D01*
X5400656Y9961173D01*
X5467013Y9997844D01*
X5540356Y10028404D01*
X5641638Y10068567D01*
X5736809Y10126194D01*
X5807532Y10212633D01*
X5835472Y10340983D01*
X5810806Y10476317D01*
X5736809Y10578473D01*
X5662787Y10626009D01*
X5572273Y10654531D01*
X5465267Y10664039D01*
X5372061Y10658363D01*
X5291515Y10641338D01*
X5166658Y10590696D01*
X5229523Y10424803D01*
X5326440Y10466713D01*
X5449551Y10484175D01*
X5544624Y10470399D01*
X5601668Y10429071D01*
X5620683Y10360191D01*
X5603221Y10305184D01*
X5558691Y10263274D01*
X5497572Y10230969D01*
X5430342Y10204775D01*
X5324694Y10161992D01*
X5223411Y10099127D01*
X5147449Y10001337D01*
X5125185Y9935198D01*
X5117763Y9853779D01*
X4970419Y9853779D01*
X4977408Y9950696D01*
X4985921Y10088649D01*
X4993125Y10227913D01*
X4999018Y10368049D01*
X5003820Y10506221D01*
X5007749Y10639591D01*
X4808677Y10639591D01*
X4810423Y10534816D01*
X4812169Y10426549D01*
X4813916Y10316753D01*
X4815662Y10207394D01*
X4817408Y10099563D01*
X4819154Y9994352D01*
X4820464Y9893724D01*
X4820901Y9799645D01*
X4785102Y9921882D01*
X4746685Y10052851D01*
X4712633Y10171596D01*
X4688186Y10257163D01*
X4531023Y10257163D01*
X4510068Y10175089D01*
X4479509Y10066821D01*
X4442837Y9939345D01*
X4403547Y9799645D01*
X4403983Y9893724D01*
X4405293Y9994352D01*
X4407039Y10099345D01*
X4408786Y10206521D01*
X4410532Y10315444D01*
X4412278Y10425676D01*
X4413588Y10534598D01*
X4414024Y10639591D01*
X4214952Y10639591D01*
X3988522Y10639591D01*
X3942537Y10646576D01*
X3822046Y10651815D01*
X3720108Y10643957D01*
X3627339Y10620382D01*
X3545920Y10580000D01*
X3478034Y10521719D01*
X3423682Y10445321D01*
X3382864Y10350587D01*
X3357325Y10235989D01*
X3348812Y10100000D01*
X2566346Y10100000D01*
X2570113Y10176681D01*
X2581378Y10252623D01*
X2600033Y10327096D01*
X2625897Y10399381D01*
X2658722Y10468783D01*
X2698191Y10534634D01*
X2743925Y10596299D01*
X2795483Y10653184D01*
X2852368Y10704742D01*
X2914033Y10750475D01*
X2979883Y10789945D01*
X3049285Y10822769D01*
X3121571Y10848634D01*
X3196043Y10867288D01*
X3271986Y10878553D01*
X3348666Y10882320D01*
X3348812Y10882320D01*
X5851188Y10882320D01*
G37*
D11*
%TO.C,TP1*%
X15700000Y7000000D02*
G75*
G02*
X14300000Y7000000I-700000J0D01*
G01*
X14300000Y7000000D02*
G75*
G02*
X15700000Y7000000I700000J0D01*
G01*
D12*
%TO.C,kibuzzard-61FE8092*%
G36*
X4596494Y4058180D02*
G01*
X4661760Y4030677D01*
X4715021Y3915424D01*
X4706289Y3849940D01*
X4683588Y3794933D01*
X4288936Y3794933D01*
X4281951Y3838589D01*
X4280204Y3878753D01*
X4305428Y3983528D01*
X4381099Y4046393D01*
X4507217Y4067348D01*
X4596494Y4058180D01*
G37*
G36*
X4638748Y6968021D02*
G01*
X4726641Y6954983D01*
X4812833Y6933393D01*
X4896493Y6903459D01*
X4976817Y6865468D01*
X5053030Y6819788D01*
X5124399Y6766857D01*
X5190236Y6707186D01*
X5249907Y6641349D01*
X5302838Y6569980D01*
X5348519Y6493767D01*
X5386509Y6413443D01*
X5416443Y6329783D01*
X5438033Y6243591D01*
X5451071Y6155698D01*
X5455431Y6066950D01*
X5455431Y6066804D01*
X5455431Y2645901D01*
X5455431Y2427619D01*
X3644569Y2427619D01*
X3644569Y2645901D01*
X3644569Y3005628D01*
X3882059Y3005628D01*
X4123042Y3005628D01*
X4123042Y2661617D01*
X4301159Y2661617D01*
X4301159Y3005628D01*
X4632947Y3005628D01*
X4706289Y2996897D01*
X4749946Y2972449D01*
X4770901Y2934032D01*
X4776139Y2883391D01*
X4774393Y2828384D01*
X4768281Y2779489D01*
X4755184Y2730594D01*
X4732483Y2675587D01*
X4917586Y2645901D01*
X4952511Y2774250D01*
X4962988Y2907838D01*
X4950764Y3040553D01*
X4903616Y3138343D01*
X4804953Y3199462D01*
X4731392Y3215178D01*
X4638186Y3220417D01*
X4301159Y3220417D01*
X4301159Y3407266D01*
X4123042Y3407266D01*
X4123042Y3220417D01*
X3916984Y3220417D01*
X3882059Y3005628D01*
X3644569Y3005628D01*
X3644569Y3870022D01*
X4105579Y3870022D01*
X4110430Y3777859D01*
X4124982Y3680651D01*
X4149236Y3578398D01*
X4844243Y3578398D01*
X4966481Y3589167D01*
X5065435Y3621472D01*
X5141106Y3675315D01*
X5194463Y3753023D01*
X5226478Y3856925D01*
X5237149Y3987021D01*
X5233220Y4062328D01*
X5221433Y4134579D01*
X5184762Y4269913D01*
X5003152Y4229749D01*
X5038950Y4123228D01*
X5055539Y3983528D01*
X5042443Y3890977D01*
X5006644Y3833351D01*
X4953384Y3803664D01*
X4887899Y3794933D01*
X4854721Y3794933D01*
X4880914Y3877880D01*
X4889646Y3959081D01*
X4878392Y4057550D01*
X4844631Y4138750D01*
X4788363Y4202683D01*
X4712110Y4248764D01*
X4618395Y4276413D01*
X4507217Y4285629D01*
X4383621Y4273212D01*
X4282921Y4235958D01*
X4205116Y4173869D01*
X4149818Y4090438D01*
X4116639Y3989155D01*
X4105579Y3870022D01*
X3644569Y3870022D01*
X3644569Y4751878D01*
X3882059Y4751878D01*
X4123042Y4751878D01*
X4123042Y4407867D01*
X4301159Y4407867D01*
X4301159Y4751878D01*
X4632947Y4751878D01*
X4706289Y4743147D01*
X4749946Y4718699D01*
X4770901Y4680282D01*
X4776139Y4629641D01*
X4774393Y4574634D01*
X4768281Y4525739D01*
X4755184Y4476844D01*
X4732483Y4421837D01*
X4917586Y4392151D01*
X4952511Y4520500D01*
X4962988Y4654088D01*
X4950764Y4786803D01*
X4903616Y4884593D01*
X4804953Y4945712D01*
X4731392Y4961428D01*
X4638186Y4966667D01*
X4301159Y4966667D01*
X4301159Y5153516D01*
X4123042Y5153516D01*
X4123042Y4966667D01*
X3916984Y4966667D01*
X3882059Y4751878D01*
X3644569Y4751878D01*
X3644569Y5839792D01*
X3862851Y5839792D01*
X3953437Y5826695D01*
X4057557Y5808359D01*
X4170191Y5786313D01*
X4286316Y5762084D01*
X4403315Y5735890D01*
X4518567Y5707950D01*
X4627053Y5679355D01*
X4723752Y5651197D01*
X4628363Y5623257D01*
X4520314Y5595317D01*
X4405061Y5568250D01*
X4288062Y5542929D01*
X4171719Y5519355D01*
X4058431Y5497527D01*
X3953656Y5478318D01*
X3862851Y5462602D01*
X3862851Y5237336D01*
X3973737Y5260692D01*
X4096848Y5288850D01*
X4229345Y5321592D01*
X4368390Y5358700D01*
X4463852Y5385767D01*
X4560478Y5414580D01*
X4658268Y5445139D01*
X4755572Y5476960D01*
X4850743Y5509557D01*
X4943779Y5542929D01*
X4943779Y5764703D01*
X4815430Y5807923D01*
X4671364Y5853762D01*
X4570179Y5884612D01*
X4469187Y5914299D01*
X4368390Y5942821D01*
X4269533Y5969791D01*
X4174362Y5994820D01*
X4082878Y6017909D01*
X3960641Y6046723D01*
X3862851Y6066804D01*
X3862851Y5839792D01*
X3644569Y5839792D01*
X3644569Y6066804D01*
X3644569Y6066950D01*
X3648929Y6155698D01*
X3661967Y6243591D01*
X3683557Y6329783D01*
X3713491Y6413443D01*
X3751481Y6493767D01*
X3797162Y6569980D01*
X3850093Y6641349D01*
X3909764Y6707186D01*
X3975601Y6766857D01*
X4046970Y6819788D01*
X4123183Y6865468D01*
X4203507Y6903459D01*
X4287167Y6933393D01*
X4373359Y6954983D01*
X4461252Y6968021D01*
X4550000Y6972381D01*
X4638748Y6968021D01*
G37*
D11*
%TO.C,TP3*%
X18800000Y6000000D02*
G75*
G02*
X17400000Y6000000I-700000J0D01*
G01*
X17400000Y6000000D02*
G75*
G02*
X18800000Y6000000I700000J0D01*
G01*
%TO.C,TP4*%
X19100000Y8500000D02*
G75*
G02*
X17700000Y8500000I-700000J0D01*
G01*
X17700000Y8500000D02*
G75*
G02*
X19100000Y8500000I700000J0D01*
G01*
D12*
%TO.C,kibuzzard-63846A4C*%
G36*
X24368762Y12147656D02*
G01*
X24406862Y12000019D01*
X24440200Y11853572D01*
X24469966Y11701172D01*
X24181834Y11701172D01*
X24210409Y11853572D01*
X24242556Y12000019D01*
X24280656Y12147656D01*
X24324709Y12306009D01*
X24368762Y12147656D01*
G37*
G36*
X27981119Y12001209D02*
G01*
X28050175Y11948822D01*
X28093037Y11872622D01*
X28113278Y11784516D01*
X27665603Y11784516D01*
X27677509Y11871431D01*
X27715609Y11946441D01*
X27782284Y12000019D01*
X27882297Y12020259D01*
X27981119Y12001209D01*
G37*
G36*
X29211034Y12352444D02*
G01*
X29258659Y12346491D01*
X29258659Y11903578D01*
X29194366Y11903578D01*
X29065183Y11918163D01*
X28977672Y11961919D01*
X28910997Y12127416D01*
X28928856Y12228619D01*
X28982434Y12298866D01*
X29065183Y12339942D01*
X29170553Y12353634D01*
X29211034Y12352444D01*
G37*
G36*
X29655266Y12900999D02*
G01*
X29757783Y12885792D01*
X29858317Y12860610D01*
X29955898Y12825695D01*
X30049586Y12781383D01*
X30138481Y12728102D01*
X30221724Y12666364D01*
X30298516Y12596764D01*
X30368116Y12519973D01*
X30429854Y12436729D01*
X30483135Y12347835D01*
X30527446Y12254146D01*
X30562361Y12156565D01*
X30587544Y12056032D01*
X30602751Y11953514D01*
X30607836Y11850000D01*
X30602751Y11746486D01*
X30587544Y11643968D01*
X30562361Y11543435D01*
X30527446Y11445854D01*
X30483135Y11352165D01*
X30429854Y11263271D01*
X30368116Y11180027D01*
X30298516Y11103236D01*
X30221724Y11033636D01*
X30138481Y10971898D01*
X30049586Y10918617D01*
X29955898Y10874305D01*
X29858317Y10839390D01*
X29757783Y10814208D01*
X29655266Y10799001D01*
X29551752Y10793916D01*
X29551553Y10793916D01*
X28515709Y10793916D01*
X27801334Y10793916D01*
X26836928Y10793916D01*
X25510572Y10793916D01*
X24062772Y10793916D01*
X23748447Y10793916D01*
X23748248Y10793916D01*
X23644734Y10799001D01*
X23542217Y10814208D01*
X23441683Y10839390D01*
X23344102Y10874305D01*
X23250414Y10918617D01*
X23161519Y10971898D01*
X23078276Y11033636D01*
X23001484Y11103236D01*
X22988315Y11117766D01*
X23748447Y11117766D01*
X24062772Y11117766D01*
X24131828Y11458284D01*
X24524734Y11458284D01*
X24591409Y11117766D01*
X24896209Y11117766D01*
X24854204Y11288978D01*
X24849881Y11305884D01*
X25298641Y11305884D01*
X25362934Y11146341D01*
X25510572Y11091572D01*
X25591534Y11105859D01*
X25659400Y11147531D01*
X25707025Y11214206D01*
X25724884Y11305884D01*
X25707025Y11395181D01*
X25659400Y11460666D01*
X25591534Y11501147D01*
X25510572Y11515434D01*
X25362934Y11460666D01*
X25298641Y11305884D01*
X24849881Y11305884D01*
X24812008Y11453998D01*
X24769622Y11612828D01*
X24727045Y11765466D01*
X24684278Y11911913D01*
X24631146Y12088795D01*
X24586219Y12236953D01*
X26141603Y12236953D01*
X26192949Y12071233D01*
X26246973Y11912210D01*
X26303677Y11759885D01*
X26363059Y11614256D01*
X26442434Y11432620D01*
X26518634Y11267123D01*
X26591659Y11117766D01*
X26836928Y11117766D01*
X26908762Y11267123D01*
X26981391Y11432620D01*
X27054812Y11614256D01*
X27083878Y11691647D01*
X27382234Y11691647D01*
X27383425Y11632116D01*
X27386997Y11582109D01*
X28113278Y11582109D01*
X28090656Y11484180D01*
X28022791Y11409469D01*
X27919206Y11362141D01*
X27789428Y11346366D01*
X27621550Y11365416D01*
X27487009Y11403516D01*
X27446528Y11153484D01*
X27608453Y11109431D01*
X27801334Y11091572D01*
X27936768Y11100799D01*
X28010657Y11117766D01*
X28515709Y11117766D01*
X28822891Y11117766D01*
X28882124Y11257962D01*
X28950287Y11392800D01*
X29025595Y11525852D01*
X29106259Y11660691D01*
X29258659Y11660691D01*
X29258659Y11117766D01*
X29551553Y11117766D01*
X29551553Y12570328D01*
X29457494Y12588188D01*
X29353909Y12600094D01*
X29253897Y12606047D01*
X29170553Y12608428D01*
X29050300Y12601284D01*
X28941953Y12579853D01*
X28846703Y12543539D01*
X28765741Y12491747D01*
X28652631Y12340538D01*
X28623163Y12240823D01*
X28613341Y12125034D01*
X28626437Y12002400D01*
X28665728Y11891672D01*
X28735380Y11799398D01*
X28839559Y11732128D01*
X28753834Y11595206D01*
X28665728Y11438044D01*
X28583575Y11273738D01*
X28515709Y11117766D01*
X28010657Y11117766D01*
X28057319Y11128481D01*
X28162094Y11174320D01*
X28250200Y11238019D01*
X28320745Y11319279D01*
X28372834Y11417803D01*
X28404981Y11533889D01*
X28415697Y11667834D01*
X28404386Y11806542D01*
X28370453Y11927391D01*
X28318066Y12030082D01*
X28251391Y12114319D01*
X28172214Y12180101D01*
X28082322Y12227428D01*
X27985881Y12256003D01*
X27887059Y12265528D01*
X27735189Y12249256D01*
X27609776Y12200441D01*
X27510822Y12119081D01*
X27439384Y12006501D01*
X27396522Y11864023D01*
X27382234Y11691647D01*
X27083878Y11691647D01*
X27109507Y11759885D01*
X27162862Y11912210D01*
X27214877Y12071233D01*
X27265553Y12236953D01*
X26958372Y12236953D01*
X26934857Y12143489D01*
X26907175Y12044072D01*
X26876516Y11941380D01*
X26844072Y11838094D01*
X26810437Y11735998D01*
X26776206Y11636878D01*
X26710722Y11458284D01*
X26641666Y11636878D01*
X26603863Y11735998D01*
X26566656Y11838094D01*
X26530342Y11941380D01*
X26495219Y12044072D01*
X26463965Y12143489D01*
X26439259Y12236953D01*
X26141603Y12236953D01*
X24586219Y12236953D01*
X24578908Y12261063D01*
X24527562Y12428718D01*
X24477109Y12591759D01*
X24158022Y12591759D01*
X24105709Y12427379D01*
X24053545Y12258087D01*
X24001529Y12083883D01*
X23949662Y11904769D01*
X23908467Y11757084D01*
X23867747Y11604541D01*
X23827504Y11447140D01*
X23787737Y11284882D01*
X23748447Y11117766D01*
X22988315Y11117766D01*
X22931884Y11180027D01*
X22870146Y11263271D01*
X22816865Y11352165D01*
X22772554Y11445854D01*
X22737639Y11543435D01*
X22712456Y11643968D01*
X22697249Y11746486D01*
X22692164Y11850000D01*
X22697249Y11953514D01*
X22712456Y12056032D01*
X22737639Y12156565D01*
X22772554Y12254146D01*
X22816865Y12347835D01*
X22870146Y12436729D01*
X22931884Y12519973D01*
X23001484Y12596764D01*
X23078276Y12666364D01*
X23161519Y12728102D01*
X23250414Y12781383D01*
X23344102Y12825695D01*
X23441683Y12860610D01*
X23542217Y12885792D01*
X23644734Y12900999D01*
X23748248Y12906084D01*
X23748447Y12906084D01*
X29551553Y12906084D01*
X29551752Y12906084D01*
X29655266Y12900999D01*
G37*
D11*
%TO.C,TP2*%
X16900000Y4500000D02*
G75*
G02*
X15500000Y4500000I-700000J0D01*
G01*
X15500000Y4500000D02*
G75*
G02*
X16900000Y4500000I700000J0D01*
G01*
D12*
%TO.C,kibuzzard-6384B72D*%
G36*
X21708550Y7342900D02*
G01*
X21800625Y7273050D01*
X21857775Y7171450D01*
X21884762Y7053975D01*
X21287862Y7053975D01*
X21303737Y7169863D01*
X21354537Y7269875D01*
X21443437Y7341313D01*
X21576787Y7368300D01*
X21708550Y7342900D01*
G37*
G36*
X37635937Y7811213D02*
G01*
X37699437Y7803275D01*
X37699437Y7212725D01*
X37613712Y7212725D01*
X37441469Y7232172D01*
X37324787Y7290513D01*
X37235887Y7511175D01*
X37259700Y7646113D01*
X37331137Y7739775D01*
X37441469Y7794544D01*
X37581962Y7812800D01*
X37635937Y7811213D01*
G37*
G36*
X28077600Y7811213D02*
G01*
X28174437Y7803275D01*
X28174437Y7168275D01*
X28015687Y7168275D01*
X27851381Y7186928D01*
X27733112Y7242888D01*
X27661675Y7344091D01*
X27637862Y7498475D01*
X27661278Y7644922D01*
X27731525Y7741363D01*
X27840666Y7794941D01*
X27980762Y7812800D01*
X28077600Y7811213D01*
G37*
G36*
X23280175Y7334963D02*
G01*
X23386537Y7292100D01*
X23386537Y6482475D01*
X23292875Y6469775D01*
X23208737Y6466600D01*
X23072212Y6492397D01*
X22967437Y6569788D01*
X22900762Y6709091D01*
X22878537Y6920625D01*
X22895603Y7105569D01*
X22946800Y7241300D01*
X23032922Y7324644D01*
X23154762Y7352425D01*
X23280175Y7334963D01*
G37*
G36*
X24898234Y7325041D02*
G01*
X24994675Y7233363D01*
X25053016Y7091678D01*
X25072462Y6911100D01*
X25054603Y6730125D01*
X25001025Y6587250D01*
X24907759Y6494381D01*
X24770837Y6463425D01*
X24637091Y6494381D01*
X24540650Y6587250D01*
X24482309Y6730125D01*
X24462862Y6911100D01*
X24480722Y7091678D01*
X24534300Y7233363D01*
X24627566Y7325041D01*
X24764487Y7355600D01*
X24898234Y7325041D01*
G37*
G36*
X38263257Y8756800D02*
G01*
X38434620Y8731380D01*
X38602667Y8689287D01*
X38765778Y8630925D01*
X38922384Y8556856D01*
X39070975Y8467793D01*
X39210121Y8364595D01*
X39338483Y8248256D01*
X39454822Y8119894D01*
X39558020Y7980748D01*
X39647083Y7832157D01*
X39721151Y7675551D01*
X39779514Y7512440D01*
X39821607Y7344393D01*
X39847027Y7173030D01*
X39855527Y7000000D01*
X39847027Y6826970D01*
X39821607Y6655607D01*
X39779514Y6487560D01*
X39721151Y6324449D01*
X39647083Y6167843D01*
X39558020Y6019252D01*
X39454822Y5880106D01*
X39338483Y5751744D01*
X39210121Y5635405D01*
X39070975Y5532207D01*
X38922384Y5443144D01*
X38765778Y5369075D01*
X38602667Y5310713D01*
X38434620Y5268620D01*
X38263257Y5243200D01*
X38090227Y5234700D01*
X38089962Y5234700D01*
X36708837Y5234700D01*
X35880162Y5234700D01*
X34365687Y5234700D01*
X32476562Y5234700D01*
X31533587Y5234700D01*
X28174437Y5234700D01*
X26472637Y5234700D01*
X24764487Y5234700D01*
X23199212Y5234700D01*
X21468837Y5234700D01*
X20910037Y5234700D01*
X20909773Y5234700D01*
X20736743Y5243200D01*
X20565380Y5268620D01*
X20397333Y5310713D01*
X20234222Y5369076D01*
X20077616Y5443144D01*
X19929025Y5532207D01*
X19789878Y5635405D01*
X19661517Y5751744D01*
X19545178Y5880106D01*
X19441980Y6019252D01*
X19352917Y6167843D01*
X19278849Y6324449D01*
X19220486Y6487561D01*
X19178393Y6655607D01*
X19152973Y6826970D01*
X19147904Y6930150D01*
X20910037Y6930150D01*
X20911625Y6850775D01*
X20916387Y6784100D01*
X21884762Y6784100D01*
X21854600Y6653528D01*
X21764112Y6553913D01*
X21626000Y6490809D01*
X21452962Y6469775D01*
X21229125Y6495175D01*
X21049737Y6545975D01*
X20995762Y6212600D01*
X21211662Y6153863D01*
X21468837Y6130050D01*
X21649416Y6142353D01*
X21810150Y6179263D01*
X21949850Y6240381D01*
X22067325Y6325313D01*
X22161384Y6433659D01*
X22230837Y6565025D01*
X22273700Y6719806D01*
X22287987Y6898400D01*
X22286951Y6911100D01*
X22481662Y6911100D01*
X22493569Y6741634D01*
X22529287Y6588838D01*
X22588025Y6455091D01*
X22668987Y6342775D01*
X22771381Y6252684D01*
X22894412Y6185613D01*
X23037287Y6143941D01*
X23199212Y6130050D01*
X23353200Y6135606D01*
X23510362Y6152275D01*
X23656412Y6177675D01*
X23777062Y6209425D01*
X23777062Y6914275D01*
X24062812Y6914275D01*
X24075512Y6744809D01*
X24113612Y6592013D01*
X24174731Y6457472D01*
X24256487Y6342775D01*
X24357691Y6249906D01*
X24477150Y6180850D01*
X24613278Y6137988D01*
X24764487Y6123700D01*
X24915697Y6137988D01*
X25051825Y6180850D01*
X25171681Y6249906D01*
X25274075Y6342775D01*
X25357022Y6457472D01*
X25418537Y6592013D01*
X25456637Y6744809D01*
X25469337Y6914275D01*
X25456241Y7081359D01*
X25416950Y7233363D01*
X25354244Y7367506D01*
X25270900Y7481013D01*
X25168109Y7572294D01*
X25078393Y7622300D01*
X25691587Y7622300D01*
X25761437Y7260350D01*
X25851925Y7279400D01*
X25958287Y7296863D01*
X26063062Y7307975D01*
X26148787Y7311150D01*
X26310712Y7303213D01*
X26472637Y7273050D01*
X26472637Y6164975D01*
X26866337Y6164975D01*
X26866337Y7495300D01*
X27237812Y7495300D01*
X27260919Y7282046D01*
X27330240Y7112183D01*
X27445775Y6985713D01*
X27603643Y6898400D01*
X27799964Y6846013D01*
X28034737Y6828550D01*
X28174437Y6828550D01*
X28174437Y6164975D01*
X28564962Y6164975D01*
X28564962Y7657225D01*
X30412812Y7657225D01*
X30471947Y7449659D01*
X30528700Y7246063D01*
X30585453Y7046831D01*
X30644587Y6852363D01*
X30706897Y6662259D01*
X30773175Y6476125D01*
X30844216Y6294356D01*
X30920812Y6117350D01*
X31039875Y5898275D01*
X31170050Y5747463D01*
X31328800Y5660150D01*
X31533587Y5631575D01*
X31712975Y5647450D01*
X31847912Y5688725D01*
X31774887Y6015750D01*
X31662175Y5976063D01*
X31555812Y5964950D01*
X31371662Y6041150D01*
X31266386Y6212600D01*
X32000312Y6212600D01*
X32233675Y6149100D01*
X32476562Y6130050D01*
X32717862Y6152275D01*
X32895662Y6238000D01*
X33006787Y6417388D01*
X33035362Y6551134D01*
X33036857Y6577725D01*
X33683062Y6577725D01*
X33717987Y6403100D01*
X33833875Y6260225D01*
X34045012Y6164975D01*
X34190269Y6138781D01*
X34365687Y6130050D01*
X34545075Y6141163D01*
X34695887Y6174500D01*
X34809806Y6215775D01*
X35283262Y6215775D01*
X35402722Y6187200D01*
X35545200Y6158625D01*
X35705934Y6137194D01*
X35880162Y6130050D01*
X36047644Y6142750D01*
X36125894Y6164975D01*
X36708837Y6164975D01*
X37118412Y6164975D01*
X37197391Y6351903D01*
X37288275Y6531688D01*
X37388684Y6709091D01*
X37496237Y6888875D01*
X37699437Y6888875D01*
X37699437Y6164975D01*
X38089962Y6164975D01*
X38089962Y8101725D01*
X37964550Y8125538D01*
X37826437Y8141413D01*
X37693087Y8149350D01*
X37581962Y8152525D01*
X37421625Y8143000D01*
X37277162Y8114425D01*
X37150162Y8066006D01*
X37042212Y7996950D01*
X36891400Y7795338D01*
X36852109Y7662384D01*
X36839012Y7508000D01*
X36856475Y7344488D01*
X36908862Y7196850D01*
X37001731Y7073819D01*
X37140637Y6984125D01*
X37026337Y6801563D01*
X36908862Y6592013D01*
X36799325Y6372938D01*
X36708837Y6164975D01*
X36125894Y6164975D01*
X36181787Y6180850D01*
X36367525Y6325313D01*
X36461187Y6545975D01*
X36480237Y6679325D01*
X36486587Y6825375D01*
X36486587Y7657225D01*
X36096062Y7657225D01*
X36096062Y6876175D01*
X36083759Y6696391D01*
X36046850Y6569788D01*
X35854762Y6469775D01*
X35676962Y6485650D01*
X35676962Y7657225D01*
X35283262Y7657225D01*
X35283262Y6215775D01*
X34809806Y6215775D01*
X34914962Y6253875D01*
X34854637Y6580900D01*
X34618100Y6498350D01*
X34362512Y6460250D01*
X34143437Y6480887D01*
X34067237Y6565025D01*
X34091050Y6634875D01*
X34157725Y6684088D01*
X34256150Y6723775D01*
X34372037Y6761875D01*
X34546662Y6820613D01*
X34708587Y6904750D01*
X34829237Y7033338D01*
X34876862Y7228600D01*
X34840350Y7407988D01*
X34726050Y7557213D01*
X34527612Y7658813D01*
X34395056Y7686197D01*
X34238687Y7695325D01*
X34097797Y7689769D01*
X33967225Y7673100D01*
X33749737Y7609600D01*
X33810062Y7279400D01*
X33978337Y7331788D01*
X34235512Y7368300D01*
X34437125Y7331788D01*
X34489512Y7254000D01*
X34465700Y7192088D01*
X34402200Y7142875D01*
X34310125Y7100013D01*
X34197412Y7060325D01*
X34019612Y6996825D01*
X33852925Y6909513D01*
X33730687Y6776163D01*
X33683062Y6577725D01*
X33036857Y6577725D01*
X33044887Y6720600D01*
X33044887Y7333375D01*
X33384612Y7333375D01*
X33384612Y7657225D01*
X33044887Y7657225D01*
X33044887Y8031875D01*
X32654362Y8095375D01*
X32654362Y7657225D01*
X32028887Y7657225D01*
X32028887Y7333375D01*
X32654362Y7333375D01*
X32654362Y6730125D01*
X32638487Y6596775D01*
X32594037Y6517400D01*
X32524187Y6479300D01*
X32432112Y6469775D01*
X32332100Y6472950D01*
X32243200Y6484063D01*
X32154300Y6507875D01*
X32054287Y6549150D01*
X32000312Y6212600D01*
X31266386Y6212600D01*
X31260537Y6222125D01*
X31353671Y6417388D01*
X31446804Y6630642D01*
X31539937Y6861888D01*
X31608200Y7046732D01*
X31673287Y7240903D01*
X31735200Y7444401D01*
X31793937Y7657225D01*
X31387537Y7657225D01*
X31322450Y7406400D01*
X31284747Y7273050D01*
X31244662Y7139700D01*
X31202197Y7007541D01*
X31157350Y6877763D01*
X31063687Y6638050D01*
X30997012Y6877763D01*
X30962881Y7007144D01*
X30930337Y7138113D01*
X30898984Y7270272D01*
X30868425Y7403225D01*
X30812862Y7657225D01*
X30412812Y7657225D01*
X28564962Y7657225D01*
X28564962Y8104900D01*
X28436375Y8127125D01*
X28291912Y8141413D01*
X28149037Y8149350D01*
X28025212Y8152525D01*
X27794143Y8135415D01*
X27600468Y8084086D01*
X27444187Y7998538D01*
X27329535Y7874183D01*
X27260743Y7706438D01*
X27237812Y7495300D01*
X26866337Y7495300D01*
X26866337Y7558800D01*
X26708778Y7610394D01*
X26547250Y7650875D01*
X26369847Y7677069D01*
X26164662Y7685800D01*
X26074175Y7682625D01*
X25948762Y7671513D01*
X25813825Y7652463D01*
X25691587Y7622300D01*
X25078393Y7622300D01*
X25047062Y7639763D01*
X24911331Y7681434D01*
X24764487Y7695325D01*
X24615659Y7681434D01*
X24480325Y7639763D01*
X24360469Y7572294D01*
X24258075Y7481013D01*
X24175128Y7367506D01*
X24113612Y7233363D01*
X24075512Y7081359D01*
X24062812Y6914275D01*
X23777062Y6914275D01*
X23777062Y8301750D01*
X23386537Y8368425D01*
X23386537Y7622300D01*
X23227787Y7674688D01*
X23075387Y7688975D01*
X22938069Y7675084D01*
X22818212Y7633413D01*
X22632475Y7474663D01*
X22566991Y7361553D01*
X22519762Y7228600D01*
X22491187Y7077788D01*
X22481662Y6911100D01*
X22286951Y6911100D01*
X22272906Y7083344D01*
X22227662Y7244475D01*
X22157812Y7381397D01*
X22068912Y7493713D01*
X21963344Y7581422D01*
X21843487Y7644525D01*
X21714900Y7682625D01*
X21583137Y7695325D01*
X21380643Y7673629D01*
X21213426Y7608542D01*
X21081487Y7500063D01*
X20986237Y7349956D01*
X20929087Y7159985D01*
X20910037Y6930150D01*
X19147904Y6930150D01*
X19144473Y7000000D01*
X19152973Y7173030D01*
X19178393Y7344393D01*
X19220486Y7512439D01*
X19278849Y7675551D01*
X19352917Y7832157D01*
X19441980Y7980748D01*
X19545178Y8119894D01*
X19661517Y8248256D01*
X19789878Y8364595D01*
X19929025Y8467793D01*
X20077616Y8556856D01*
X20234222Y8630924D01*
X20397333Y8689287D01*
X20565380Y8731380D01*
X20736743Y8756800D01*
X20909773Y8765300D01*
X20910037Y8765300D01*
X38089962Y8765300D01*
X38090227Y8765300D01*
X38263257Y8756800D01*
G37*
%TO.C,kibuzzard-61FE8065*%
G36*
X2468459Y3153050D02*
G01*
X2468459Y3133842D01*
X2440519Y3010731D01*
X2363684Y2930403D01*
X2247558Y2886747D01*
X2177053Y2876925D01*
X2100000Y2873650D01*
X1963792Y2884128D01*
X1846794Y2920799D01*
X1765593Y2992395D01*
X1735034Y3109394D01*
X1735907Y3140827D01*
X1740272Y3172259D01*
X2466713Y3172259D01*
X2468459Y3153050D01*
G37*
G36*
X2176681Y5959145D02*
G01*
X2252623Y5947880D01*
X2327096Y5929226D01*
X2399381Y5903362D01*
X2468783Y5870537D01*
X2534634Y5831067D01*
X2596299Y5785334D01*
X2653184Y5733776D01*
X2704742Y5676891D01*
X2750475Y5615226D01*
X2789945Y5549375D01*
X2822769Y5479973D01*
X2848634Y5407688D01*
X2867288Y5333215D01*
X2878553Y5257273D01*
X2882320Y5180592D01*
X2882320Y5180447D01*
X2882320Y2655369D01*
X2882320Y2437088D01*
X1317680Y2437088D01*
X1317680Y2655369D01*
X1317680Y3128603D01*
X1548185Y3128603D01*
X1556043Y3026666D01*
X1579618Y2933896D01*
X1620000Y2852477D01*
X1678281Y2784592D01*
X1754679Y2730240D01*
X1849413Y2689421D01*
X1964011Y2663882D01*
X2100000Y2655369D01*
X2239045Y2664755D01*
X2355826Y2692913D01*
X2451651Y2737661D01*
X2527831Y2796815D01*
X2585239Y2869503D01*
X2624748Y2954851D01*
X2647668Y3051113D01*
X2655308Y3156543D01*
X2649196Y3269176D01*
X2629114Y3387048D01*
X1574379Y3387048D01*
X1553424Y3249094D01*
X1548185Y3128603D01*
X1317680Y3128603D01*
X1317680Y4274143D01*
X1560409Y4274143D01*
X1560409Y4101264D01*
X1640518Y4052369D01*
X1727176Y4003474D01*
X1816889Y3955234D01*
X1906166Y3908303D01*
X1993915Y3863774D01*
X2079045Y3822737D01*
X2157626Y3786284D01*
X2225730Y3755507D01*
X1560409Y3755507D01*
X1560409Y3561673D01*
X2641338Y3561673D01*
X2641338Y3734552D01*
X2521525Y3784902D01*
X2401907Y3838162D01*
X2282483Y3894333D01*
X2163059Y3953415D01*
X2043441Y4015407D01*
X1923629Y4080309D01*
X2641338Y4080309D01*
X2641338Y4274143D01*
X1560409Y4274143D01*
X1317680Y4274143D01*
X1317680Y4712452D01*
X1535961Y4712452D01*
X1545566Y4599818D01*
X1567394Y4513379D01*
X1593587Y4453133D01*
X1614542Y4417335D01*
X1785675Y4473215D01*
X1742019Y4567513D01*
X1722810Y4682765D01*
X1750750Y4811988D01*
X1828458Y4898427D01*
X1947203Y4947322D01*
X2019891Y4958455D01*
X2100000Y4962165D01*
X2217872Y4955374D01*
X2313043Y4935001D01*
X2385512Y4901047D01*
X2454270Y4825521D01*
X2477190Y4721183D01*
X2475444Y4679273D01*
X2470205Y4637363D01*
X2075552Y4637363D01*
X2075552Y4422574D01*
X2615144Y4422574D01*
X2646576Y4542192D01*
X2659673Y4631906D01*
X2664039Y4738645D01*
X2655089Y4834907D01*
X2628241Y4921128D01*
X2583711Y4996436D01*
X2521719Y5059955D01*
X2442265Y5111033D01*
X2345348Y5149014D01*
X2231187Y5172588D01*
X2100000Y5180447D01*
X1970123Y5171279D01*
X1856398Y5143775D01*
X1759263Y5100556D01*
X1679154Y5044239D01*
X1616507Y4975699D01*
X1571759Y4895808D01*
X1544911Y4807186D01*
X1535961Y4712452D01*
X1317680Y4712452D01*
X1317680Y5180447D01*
X1317680Y5180592D01*
X1321447Y5257273D01*
X1332712Y5333215D01*
X1351366Y5407688D01*
X1377231Y5479973D01*
X1410055Y5549375D01*
X1449525Y5615226D01*
X1495258Y5676891D01*
X1546816Y5733776D01*
X1603701Y5785334D01*
X1665366Y5831067D01*
X1731217Y5870537D01*
X1800619Y5903362D01*
X1872904Y5929226D01*
X1947377Y5947880D01*
X2023319Y5959145D01*
X2100000Y5962912D01*
X2176681Y5959145D01*
G37*
%TO.C,kibuzzard-61FE80BD*%
G36*
X9968459Y4937526D02*
G01*
X9968459Y4918317D01*
X9940519Y4795207D01*
X9863684Y4714879D01*
X9747558Y4671223D01*
X9677053Y4661400D01*
X9600000Y4658126D01*
X9463792Y4668603D01*
X9346794Y4705275D01*
X9265593Y4776871D01*
X9235034Y4893870D01*
X9235907Y4925302D01*
X9240272Y4956735D01*
X9966713Y4956735D01*
X9968459Y4937526D01*
G37*
G36*
X9676180Y3252613D02*
G01*
X9747558Y3248029D01*
X9867176Y3223582D01*
X9947504Y3172067D01*
X9977190Y3083008D01*
X9947504Y2994823D01*
X9866303Y2942435D01*
X9746685Y2917988D01*
X9675962Y2913404D01*
X9600000Y2911876D01*
X9523820Y2913404D01*
X9452442Y2917988D01*
X9332824Y2942435D01*
X9252496Y2993950D01*
X9222810Y3083008D01*
X9252496Y3172067D01*
X9333697Y3223582D01*
X9453315Y3248029D01*
X9524038Y3252613D01*
X9600000Y3254141D01*
X9676180Y3252613D01*
G37*
G36*
X9676681Y7720919D02*
G01*
X9752623Y7709654D01*
X9827096Y7691000D01*
X9899381Y7665136D01*
X9968783Y7632311D01*
X10034634Y7592842D01*
X10096299Y7547108D01*
X10153184Y7495550D01*
X10204742Y7438665D01*
X10250475Y7377000D01*
X10289945Y7311150D01*
X10322769Y7241747D01*
X10348634Y7169462D01*
X10367288Y7094990D01*
X10378553Y7019047D01*
X10382320Y6942367D01*
X10382320Y6942221D01*
X10382320Y2693595D01*
X10382320Y2475313D01*
X8817680Y2475313D01*
X8817680Y2693595D01*
X8817680Y3083008D01*
X9035961Y3083008D01*
X9051775Y2966204D01*
X9099214Y2869578D01*
X9178281Y2793131D01*
X9258008Y2749584D01*
X9354870Y2718479D01*
X9468868Y2699816D01*
X9600000Y2693595D01*
X9731132Y2699925D01*
X9845130Y2718915D01*
X9941992Y2750566D01*
X10021719Y2794877D01*
X10100786Y2871712D01*
X10148225Y2967174D01*
X10164039Y3081262D01*
X10148225Y3198164D01*
X10100786Y3295081D01*
X10021719Y3372013D01*
X9941992Y3415942D01*
X9845130Y3447320D01*
X9731132Y3466147D01*
X9600000Y3472422D01*
X9468868Y3465983D01*
X9354870Y3446665D01*
X9258008Y3414469D01*
X9178281Y3369393D01*
X9099214Y3291782D01*
X9051775Y3196321D01*
X9035961Y3083008D01*
X8817680Y3083008D01*
X8817680Y3612122D01*
X9060409Y3612122D01*
X9238526Y3612122D01*
X9238526Y3846120D01*
X9963220Y3846120D01*
X9963220Y3612122D01*
X10141338Y3612122D01*
X10141338Y4298398D01*
X9963220Y4298398D01*
X9963220Y4062655D01*
X9238526Y4062655D01*
X9238526Y4298398D01*
X9060409Y4298398D01*
X9060409Y3612122D01*
X8817680Y3612122D01*
X8817680Y4913078D01*
X9048185Y4913078D01*
X9056043Y4811141D01*
X9079618Y4718372D01*
X9120000Y4636953D01*
X9178281Y4569067D01*
X9254679Y4514715D01*
X9349413Y4473897D01*
X9464011Y4448358D01*
X9600000Y4439845D01*
X9739045Y4449231D01*
X9855826Y4477389D01*
X9951651Y4522137D01*
X10027831Y4581291D01*
X10085239Y4653979D01*
X10124748Y4739327D01*
X10147668Y4835589D01*
X10155308Y4941018D01*
X10149196Y5053652D01*
X10129114Y5171523D01*
X9074379Y5171523D01*
X9053424Y5033570D01*
X9048185Y4913078D01*
X8817680Y4913078D01*
X8817680Y5899710D01*
X9060409Y5899710D01*
X9165184Y5901456D01*
X9273451Y5903202D01*
X9383247Y5904948D01*
X9492606Y5906695D01*
X9600437Y5908441D01*
X9705648Y5910187D01*
X9806276Y5911497D01*
X9900355Y5911933D01*
X9778118Y5876135D01*
X9647149Y5837718D01*
X9528404Y5803666D01*
X9442837Y5779218D01*
X9442837Y5622056D01*
X9524911Y5601101D01*
X9633179Y5570542D01*
X9760655Y5533870D01*
X9900355Y5494580D01*
X9806276Y5495016D01*
X9705648Y5496326D01*
X9600655Y5498072D01*
X9493479Y5499818D01*
X9384556Y5501565D01*
X9274324Y5503311D01*
X9165402Y5504621D01*
X9060409Y5505057D01*
X9060409Y5305985D01*
X9195088Y5311223D01*
X9333697Y5316462D01*
X9473833Y5322138D01*
X9613097Y5328686D01*
X9750832Y5336326D01*
X9886385Y5345275D01*
X10017354Y5355535D01*
X10141338Y5367103D01*
X10141338Y5545221D01*
X10027176Y5583638D01*
X9904721Y5622056D01*
X9780955Y5660473D01*
X9662865Y5698891D01*
X9777681Y5738182D01*
X9902101Y5779218D01*
X10026522Y5819382D01*
X10141338Y5856053D01*
X10141338Y6034171D01*
X10017135Y6047268D01*
X9885512Y6058618D01*
X9749304Y6068441D01*
X9611351Y6076954D01*
X9472087Y6084157D01*
X9331951Y6090051D01*
X9193779Y6094853D01*
X9060409Y6098782D01*
X9060409Y5899710D01*
X8817680Y5899710D01*
X8817680Y6556300D01*
X9035961Y6556300D01*
X9041637Y6463094D01*
X9058662Y6382548D01*
X9109304Y6257691D01*
X9275197Y6320556D01*
X9233287Y6417473D01*
X9215825Y6540583D01*
X9229601Y6635657D01*
X9270929Y6692701D01*
X9339809Y6711716D01*
X9394816Y6694253D01*
X9436726Y6649724D01*
X9469031Y6588605D01*
X9495225Y6521375D01*
X9538008Y6415727D01*
X9600873Y6314444D01*
X9698663Y6238482D01*
X9764802Y6216218D01*
X9846221Y6208796D01*
X9980901Y6233462D01*
X10081092Y6307459D01*
X10127173Y6384585D01*
X10154822Y6484412D01*
X10164039Y6606941D01*
X10156835Y6727869D01*
X10135226Y6821730D01*
X10081965Y6942221D01*
X9907340Y6879356D01*
X9959728Y6766723D01*
X9978063Y6694035D01*
X9984175Y6606941D01*
X9972824Y6517009D01*
X9941392Y6460256D01*
X9895989Y6431443D01*
X9844475Y6423585D01*
X9785103Y6442793D01*
X9738827Y6491688D01*
X9702156Y6558046D01*
X9671596Y6631388D01*
X9631433Y6732671D01*
X9573806Y6827842D01*
X9487367Y6898565D01*
X9359017Y6926505D01*
X9223683Y6901839D01*
X9121527Y6827842D01*
X9073991Y6753820D01*
X9045469Y6663306D01*
X9035961Y6556300D01*
X8817680Y6556300D01*
X8817680Y6942221D01*
X8817680Y6942367D01*
X8821447Y7019047D01*
X8832712Y7094990D01*
X8851366Y7169462D01*
X8877231Y7241747D01*
X8910055Y7311150D01*
X8949525Y7377000D01*
X8995258Y7438665D01*
X9046816Y7495550D01*
X9103701Y7547108D01*
X9165366Y7592842D01*
X9231217Y7632311D01*
X9300619Y7665136D01*
X9372904Y7691000D01*
X9447377Y7709654D01*
X9523319Y7720919D01*
X9600000Y7724687D01*
X9676681Y7720919D01*
G37*
%TO.C,kibuzzard-61FE80B0*%
G36*
X7468459Y4951496D02*
G01*
X7468459Y4932287D01*
X7440519Y4809177D01*
X7363684Y4728849D01*
X7247558Y4685193D01*
X7177053Y4675370D01*
X7100000Y4672096D01*
X6963792Y4682573D01*
X6846794Y4719245D01*
X6765593Y4790841D01*
X6735034Y4907840D01*
X6735907Y4939272D01*
X6740272Y4970705D01*
X7466713Y4970705D01*
X7468459Y4951496D01*
G37*
G36*
X7176681Y7734889D02*
G01*
X7252623Y7723624D01*
X7327096Y7704970D01*
X7399381Y7679106D01*
X7468783Y7646281D01*
X7534634Y7606812D01*
X7596299Y7561078D01*
X7653184Y7509520D01*
X7704742Y7452635D01*
X7750475Y7390970D01*
X7789945Y7325120D01*
X7822769Y7255717D01*
X7848634Y7183432D01*
X7867288Y7108960D01*
X7878553Y7033017D01*
X7882320Y6956337D01*
X7882320Y6956191D01*
X7882320Y2679625D01*
X7882320Y2461343D01*
X6317680Y2461343D01*
X6317680Y2679625D01*
X6317680Y3240171D01*
X6560409Y3240171D01*
X7009195Y3240171D01*
X6900927Y3159843D01*
X6782182Y3080389D01*
X6665184Y3011412D01*
X6560409Y2959025D01*
X6560409Y2716296D01*
X6667803Y2774795D01*
X6729358Y2811248D01*
X6793533Y2852503D01*
X6859672Y2897688D01*
X6927121Y2945928D01*
X6993915Y2996787D01*
X7058090Y3049830D01*
X7114407Y2995259D01*
X7178581Y2939816D01*
X7249086Y2885464D01*
X7324393Y2834168D01*
X7402974Y2786801D01*
X7483302Y2744236D01*
X7563411Y2708001D01*
X7641338Y2679625D01*
X7641338Y2922353D01*
X7509496Y2977360D01*
X7439646Y3015123D01*
X7371542Y3056815D01*
X7306494Y3101562D01*
X7245812Y3148493D01*
X7147149Y3240171D01*
X7641338Y3240171D01*
X7641338Y3454960D01*
X6560409Y3454960D01*
X6560409Y3240171D01*
X6317680Y3240171D01*
X6317680Y3868821D01*
X6535961Y3868821D01*
X6545566Y3764919D01*
X6567394Y3683718D01*
X6593587Y3625219D01*
X6614542Y3589421D01*
X6785675Y3645301D01*
X6741146Y3742218D01*
X6722810Y3872313D01*
X6741146Y3970977D01*
X6802264Y4056543D01*
X6916644Y4117662D01*
X6996971Y4135342D01*
X7094761Y4141236D01*
X7208559Y4134154D01*
X7303147Y4112908D01*
X7378527Y4077498D01*
X7452524Y3993460D01*
X7477190Y3868821D01*
X7457981Y3729994D01*
X7419564Y3641808D01*
X7588950Y3587675D01*
X7640464Y3710785D01*
X7658145Y3794387D01*
X7664039Y3889776D01*
X7647740Y4030252D01*
X7598845Y4146669D01*
X7517354Y4239026D01*
X7436262Y4291741D01*
X7339673Y4329394D01*
X7227585Y4351987D01*
X7100000Y4359517D01*
X6972960Y4350349D01*
X6860764Y4322846D01*
X6764065Y4278971D01*
X6683519Y4220690D01*
X6619781Y4149094D01*
X6573506Y4065274D01*
X6545347Y3971195D01*
X6535961Y3868821D01*
X6317680Y3868821D01*
X6317680Y4927048D01*
X6548185Y4927048D01*
X6556043Y4825111D01*
X6579618Y4732342D01*
X6620000Y4650923D01*
X6678281Y4583037D01*
X6754679Y4528685D01*
X6849413Y4487867D01*
X6964011Y4462328D01*
X7100000Y4453815D01*
X7239045Y4463201D01*
X7355826Y4491359D01*
X7451651Y4536107D01*
X7527831Y4595261D01*
X7585239Y4667949D01*
X7624748Y4753297D01*
X7647668Y4849559D01*
X7655308Y4954988D01*
X7649196Y5067622D01*
X7629114Y5185493D01*
X6574379Y5185493D01*
X6553424Y5047540D01*
X6548185Y4927048D01*
X6317680Y4927048D01*
X6317680Y5913680D01*
X6560409Y5913680D01*
X6665184Y5915426D01*
X6773451Y5917172D01*
X6883247Y5918918D01*
X6992606Y5920665D01*
X7100437Y5922411D01*
X7205648Y5924157D01*
X7306276Y5925467D01*
X7400355Y5925903D01*
X7278118Y5890105D01*
X7147149Y5851688D01*
X7028404Y5817636D01*
X6942837Y5793188D01*
X6942837Y5636026D01*
X7024911Y5615071D01*
X7133179Y5584512D01*
X7260655Y5547840D01*
X7400355Y5508550D01*
X7306276Y5508986D01*
X7205648Y5510296D01*
X7100655Y5512042D01*
X6993479Y5513788D01*
X6884556Y5515535D01*
X6774324Y5517281D01*
X6665402Y5518591D01*
X6560409Y5519027D01*
X6560409Y5319955D01*
X6695088Y5325193D01*
X6833697Y5330432D01*
X6973833Y5336108D01*
X7113097Y5342656D01*
X7250832Y5350296D01*
X7386385Y5359245D01*
X7517354Y5369505D01*
X7641338Y5381073D01*
X7641338Y5559191D01*
X7527176Y5597608D01*
X7404721Y5636026D01*
X7280955Y5674443D01*
X7162865Y5712861D01*
X7277681Y5752152D01*
X7402101Y5793188D01*
X7526522Y5833352D01*
X7641338Y5870023D01*
X7641338Y6048141D01*
X7517135Y6061238D01*
X7385512Y6072588D01*
X7249304Y6082411D01*
X7111351Y6090924D01*
X6972087Y6098127D01*
X6831951Y6104021D01*
X6693779Y6108823D01*
X6560409Y6112752D01*
X6560409Y5913680D01*
X6317680Y5913680D01*
X6317680Y6570270D01*
X6535961Y6570270D01*
X6541637Y6477064D01*
X6558662Y6396518D01*
X6609304Y6271661D01*
X6775197Y6334526D01*
X6733287Y6431443D01*
X6715825Y6554553D01*
X6729601Y6649627D01*
X6770929Y6706671D01*
X6839809Y6725686D01*
X6894816Y6708223D01*
X6936726Y6663694D01*
X6969031Y6602575D01*
X6995225Y6535345D01*
X7038008Y6429697D01*
X7100873Y6328414D01*
X7198663Y6252452D01*
X7264802Y6230188D01*
X7346221Y6222766D01*
X7480901Y6247432D01*
X7581092Y6321429D01*
X7627173Y6398555D01*
X7654822Y6498382D01*
X7664039Y6620911D01*
X7656835Y6741839D01*
X7635226Y6835700D01*
X7581965Y6956191D01*
X7407340Y6893326D01*
X7459728Y6780693D01*
X7478063Y6708005D01*
X7484175Y6620911D01*
X7472824Y6530979D01*
X7441392Y6474226D01*
X7395989Y6445413D01*
X7344475Y6437555D01*
X7285103Y6456763D01*
X7238827Y6505658D01*
X7202156Y6572016D01*
X7171596Y6645358D01*
X7131433Y6746641D01*
X7073806Y6841812D01*
X6987367Y6912535D01*
X6859017Y6940475D01*
X6723683Y6915809D01*
X6621527Y6841812D01*
X6573991Y6767790D01*
X6545469Y6677276D01*
X6535961Y6570270D01*
X6317680Y6570270D01*
X6317680Y6956191D01*
X6317680Y6956337D01*
X6321447Y7033017D01*
X6332712Y7108960D01*
X6351366Y7183432D01*
X6377231Y7255717D01*
X6410055Y7325120D01*
X6449525Y7390970D01*
X6495258Y7452635D01*
X6546816Y7509520D01*
X6603701Y7561078D01*
X6665366Y7606812D01*
X6731217Y7646281D01*
X6800619Y7679106D01*
X6872904Y7704970D01*
X6947377Y7723624D01*
X7023319Y7734889D01*
X7100000Y7738657D01*
X7176681Y7734889D01*
G37*
%TD*%
%LPC*%
D13*
%TO.C,J1*%
X34400000Y4110000D03*
X34400000Y9890000D03*
D14*
X33870000Y2680000D03*
D15*
X38050000Y2680000D03*
D14*
X33870000Y11320000D03*
D15*
X38050000Y11320000D03*
%TD*%
D16*
%TO.C,J2*%
X300000Y1000000D03*
D17*
X0Y1000000D03*
D16*
X308000Y2500000D03*
D17*
X0Y2500000D03*
D16*
X308000Y4000000D03*
D17*
X0Y4000000D03*
D16*
X308000Y5500000D03*
D17*
X0Y5500000D03*
D16*
X308000Y7000000D03*
D17*
X0Y7000000D03*
D16*
X308000Y8500000D03*
D17*
X0Y8500000D03*
D16*
X308000Y10000000D03*
D17*
X0Y10000000D03*
D16*
X308000Y11500000D03*
D17*
X0Y11500000D03*
D16*
X308000Y13000000D03*
D17*
X0Y13000000D03*
%TD*%
D18*
%TO.C,J4*%
X30500000Y13700000D03*
D17*
X30500000Y14000000D03*
D18*
X32000000Y13692000D03*
D17*
X32000000Y14000000D03*
D18*
X33500000Y13692000D03*
D17*
X33500000Y14000000D03*
%TD*%
D19*
%TO.C,J3*%
X33500000Y300000D03*
D17*
X33500000Y0D03*
D19*
X32000000Y308000D03*
D17*
X32000000Y0D03*
%TD*%
D20*
%TO.C,J5*%
X2060000Y12200000D03*
X7140000Y13216000D03*
X7140000Y11184000D03*
D21*
X3330000Y12835000D03*
X3330000Y11565000D03*
X4600000Y12835000D03*
X4600000Y11565000D03*
X5870000Y12835000D03*
X5870000Y11565000D03*
%TD*%
D22*
%TO.C,TP1*%
X15000000Y7000000D03*
%TD*%
%TO.C,TP3*%
X18100000Y6000000D03*
%TD*%
%TO.C,TP4*%
X18400000Y8500000D03*
%TD*%
%TO.C,TP2*%
X16200000Y4500000D03*
%TD*%
D23*
%TO.C,J8*%
X9600000Y1200000D03*
%TD*%
%TO.C,J7*%
X4560000Y1200000D03*
%TD*%
%TO.C,J6*%
X2050000Y1200000D03*
%TD*%
%TO.C,J9*%
X7100000Y1200000D03*
%TD*%
%LPD*%
M02*
