%TF.GenerationSoftware,KiCad,Pcbnew,8.0.3*%
%TF.CreationDate,2024-06-14T23:01:07+10:00*%
%TF.ProjectId,rs-probe,72732d70-726f-4626-952e-6b696361645f,rev?*%
%TF.SameCoordinates,Original*%
%TF.FileFunction,Copper,L3,Inr*%
%TF.FilePolarity,Positive*%
%FSLAX46Y46*%
G04 Gerber Fmt 4.6, Leading zero omitted, Abs format (unit mm)*
G04 Created by KiCad (PCBNEW 8.0.3) date 2024-06-14 23:01:07*
%MOMM*%
%LPD*%
G01*
G04 APERTURE LIST*
%TA.AperFunction,ComponentPad*%
%ADD10O,2.100000X1.000000*%
%TD*%
%TA.AperFunction,ComponentPad*%
%ADD11O,1.600000X1.000000*%
%TD*%
%TA.AperFunction,ComponentPad*%
%ADD12C,0.600000*%
%TD*%
%TA.AperFunction,ComponentPad*%
%ADD13C,1.100000*%
%TD*%
%TA.AperFunction,ViaPad*%
%ADD14C,0.450000*%
%TD*%
%TA.AperFunction,Conductor*%
%ADD15C,0.200000*%
%TD*%
%TA.AperFunction,Conductor*%
%ADD16C,0.400000*%
%TD*%
%TA.AperFunction,Conductor*%
%ADD17C,0.500000*%
%TD*%
%TA.AperFunction,Conductor*%
%ADD18C,0.600000*%
%TD*%
G04 APERTURE END LIST*
D10*
%TO.N,GND*%
%TO.C,J1*%
X33870000Y2680000D03*
D11*
X38050000Y2680000D03*
D10*
X33870000Y11320000D03*
D11*
X38050000Y11320000D03*
%TD*%
D12*
%TO.N,GND*%
%TO.C,U6*%
X24775000Y6875000D03*
X23500000Y6875000D03*
X22225000Y6875000D03*
X24775000Y5600000D03*
X23500000Y5600000D03*
X22225000Y5600000D03*
X24775000Y4325000D03*
X23500000Y4325000D03*
X22225000Y4325000D03*
%TD*%
D13*
%TO.N,GND*%
%TO.C,J2*%
X0Y1000000D03*
%TO.N,/T_VCP_RX*%
X0Y2500000D03*
%TO.N,/T_VCP_TX*%
X0Y4000000D03*
%TO.N,/T_~{RESET}*%
X0Y5500000D03*
%TO.N,/T_TDI*%
X0Y7000000D03*
%TO.N,/T_GNDDetect*%
X0Y8500000D03*
%TO.N,/T_SWO_TDO*%
X0Y10000000D03*
%TO.N,/T_SWDCLK_JCLK*%
X0Y11500000D03*
%TO.N,/T_SWDIO_TMS*%
X0Y13000000D03*
%TD*%
%TO.N,/GPIO2*%
%TO.C,J4*%
X30500000Y14000000D03*
%TO.N,/GPIO1*%
X32000000Y14000000D03*
%TO.N,/T_VCC*%
X33500000Y14000000D03*
%TD*%
%TO.N,/5V_KEY*%
%TO.C,J3*%
X33500000Y0D03*
%TO.N,GND*%
X32000000Y0D03*
%TD*%
D14*
%TO.N,Net-(D3-A)*%
X10200000Y8450000D03*
X10120000Y11660000D03*
%TO.N,GND*%
X11030000Y10460000D03*
X8970000Y13380000D03*
X9800000Y5600000D03*
X15200000Y7900000D03*
X35575000Y450000D03*
X14350000Y12625000D03*
X5850000Y13500000D03*
X13850000Y11350000D03*
X32400000Y10800000D03*
X34500000Y13550000D03*
X18600000Y2100000D03*
X1900000Y500000D03*
X14770000Y1560000D03*
X13300000Y3800000D03*
X16500000Y7800000D03*
X29100000Y7850000D03*
X26050000Y6750000D03*
X29700000Y6200000D03*
X19075000Y12600000D03*
X15200000Y5400000D03*
X13200000Y6500000D03*
X20300000Y11460000D03*
X1900000Y1300000D03*
X1300000Y13550000D03*
X32000000Y10100000D03*
X31800000Y3900000D03*
X34100000Y7500000D03*
X39550000Y2725000D03*
X20714812Y985188D03*
X18400000Y4000000D03*
X32300000Y3100000D03*
X11000000Y7500000D03*
X28650000Y8900000D03*
X18280000Y11140000D03*
X1400000Y6000000D03*
X17312878Y5416746D03*
X26800000Y2300000D03*
X9500000Y3300000D03*
X15250000Y2950000D03*
X15870000Y9420000D03*
X10050000Y12250000D03*
X28800000Y2900000D03*
X17400000Y8200000D03*
X17200000Y2600000D03*
X6400000Y10500000D03*
X29700000Y5300000D03*
X30800000Y8300000D03*
X25200000Y3100000D03*
X8500000Y550000D03*
X31500000Y3300000D03*
X3000000Y13550000D03*
X27050000Y9500000D03*
X8230000Y6530000D03*
X37275000Y450000D03*
X39550000Y11300000D03*
X17100000Y3500000D03*
X3300000Y5900000D03*
X3200000Y7200000D03*
X1900000Y7300000D03*
X16500000Y5400000D03*
X37300000Y13550000D03*
X32200000Y1500000D03*
X11700000Y12288306D03*
%TO.N,+3.3V*%
X12600000Y3400000D03*
X22500000Y8200000D03*
X20900000Y3800000D03*
X30325000Y7150000D03*
X12550000Y949989D03*
X13700000Y9000000D03*
X20900000Y5700000D03*
X16100000Y2900000D03*
X31700000Y2200000D03*
X27500000Y1900000D03*
X29800000Y4600000D03*
X15800000Y7800000D03*
X26600000Y9000000D03*
X15800000Y5400000D03*
X3800000Y13300000D03*
X12500000Y5900000D03*
X13100000Y9100000D03*
X22500000Y3000000D03*
%TO.N,+5V*%
X31800000Y5400000D03*
X31900000Y9400000D03*
%TO.N,/T_GNDDetect*%
X3300000Y3500000D03*
%TO.N,/T_VCP_RX*%
X3300000Y1900000D03*
X2600000Y10000000D03*
X3300000Y700000D03*
X8200000Y1150000D03*
%TO.N,/T_VCP_TX*%
X5900000Y700000D03*
X9800000Y6425000D03*
X5900000Y1950000D03*
%TO.N,/P_SWCLK*%
X20900000Y4400000D03*
%TO.N,/P_SWDIO*%
X19200000Y3900000D03*
%TO.N,/T_SWO_TDO*%
X5300000Y5850000D03*
%TO.N,/T_SWDIO_TMS*%
X9550000Y600000D03*
X10100000Y950000D03*
X5300000Y8500000D03*
%TO.N,/T_SWDCLK_JCLK*%
X6750000Y700000D03*
X6750000Y1950000D03*
X5300000Y7250000D03*
%TO.N,/T_TDI*%
X3100000Y10350000D03*
X3850000Y4200000D03*
%TO.N,/T_VCC*%
X7700000Y9650000D03*
X2900000Y8400000D03*
X4325000Y1900000D03*
X4325000Y700000D03*
%TO.N,/T_VCC_EN*%
X10980000Y11250000D03*
X23300000Y10000000D03*
%TO.N,/T_VCC_MEAS*%
X8800000Y6400000D03*
X24500000Y2900000D03*
%TO.N,/GPIO2*%
X25300000Y10000000D03*
%TO.N,/GPIO1*%
X25900000Y9950000D03*
%TO.N,/PROTECTED_5V*%
X8350000Y13500000D03*
X16900000Y12550000D03*
%TO.N,/5V_KEY*%
X10850000Y650000D03*
X15390000Y1570000D03*
X4350000Y5350000D03*
%TO.N,/5V_KEY_EN*%
X24400000Y10000000D03*
X3900000Y12200000D03*
%TO.N,/VS_T*%
X10070000Y9950000D03*
X15959519Y975500D03*
%TO.N,/TRANS_VCC*%
X13500000Y4800000D03*
X11900000Y3400000D03*
X13100000Y700000D03*
X13514812Y2314812D03*
X11500000Y5800000D03*
X15000000Y3900000D03*
X13400000Y7300000D03*
X12300000Y9310000D03*
%TO.N,+1V1*%
X26100000Y3800000D03*
X20900000Y5000000D03*
X26100000Y5800000D03*
%TO.N,/PWM_VS*%
X22300000Y3600000D03*
X19400000Y2100000D03*
%TO.N,/DIR_VCP_RX*%
X23920000Y1420000D03*
X11450000Y1580000D03*
%TO.N,/DIR_VCP_TX*%
X23700000Y2900000D03*
X13300000Y2900000D03*
%TO.N,/~{RESET}*%
X21000000Y8200000D03*
X11000000Y2600000D03*
%TO.N,/GNDDetect*%
X11000000Y3200000D03*
X21800000Y8100000D03*
%TO.N,/SWDCLK_JCLK*%
X16900000Y6400000D03*
X20290000Y8880000D03*
%TO.N,/SWDIO_TMS*%
X19700000Y8800000D03*
X15200000Y8525500D03*
%TO.N,/DIR_TDI*%
X23120000Y1420000D03*
X11300000Y3700000D03*
%TO.N,/DIR_SWO_TDO*%
X13400000Y5500000D03*
X23100000Y3000000D03*
%TO.N,/DIR_SWDCLK_JCLK*%
X11530000Y6900000D03*
X21300000Y3000000D03*
%TO.N,/DIR_SWDIO_TMS*%
X19300000Y8200000D03*
X13500000Y7900000D03*
%TO.N,/VS2_T*%
X11300000Y9390000D03*
X28080000Y12860000D03*
%TO.N,/PWM2_VS*%
X32250000Y12150000D03*
X26600000Y9950000D03*
%TD*%
D15*
%TO.N,/T_VCP_RX*%
X4950000Y1750000D02*
X4950000Y2150000D01*
X8200000Y1150000D02*
X8150000Y1200000D01*
X2600000Y10650000D02*
X2800000Y10850000D01*
X2800000Y10850000D02*
X3350000Y10850000D01*
X4950000Y2150000D02*
X4500000Y2600000D01*
X3350000Y10850000D02*
X3800000Y10400000D01*
X3300000Y1900000D02*
X4000000Y2600000D01*
X4000000Y2600000D02*
X4500000Y2600000D01*
X3800000Y5000000D02*
X4500000Y4300000D01*
X5500000Y1200000D02*
X4950000Y1750000D01*
X2600000Y10000000D02*
X2600000Y10650000D01*
X8150000Y1200000D02*
X5500000Y1200000D01*
X3800000Y10400000D02*
X3800000Y5000000D01*
X4500000Y4300000D02*
X4500000Y2600000D01*
%TO.N,/T_VCP_TX*%
X5900000Y1950000D02*
X5900000Y2525000D01*
X5900000Y2525000D02*
X9800000Y6425000D01*
%TO.N,/T_TDI*%
X3100000Y9750000D02*
X700000Y7350000D01*
X3100000Y10350000D02*
X3100000Y9750000D01*
X700000Y7350000D02*
X450000Y7350000D01*
D16*
%TO.N,/T_VCC*%
X33150000Y12950000D02*
X33500000Y13300000D01*
X33500000Y13300000D02*
X33500000Y13550000D01*
X29700000Y13450000D02*
X30200000Y12950000D01*
D17*
X9300000Y11250000D02*
X7700000Y9650000D01*
D16*
X9300000Y12750000D02*
X10000000Y13450000D01*
D17*
X9300000Y12750000D02*
X9300000Y11250000D01*
D16*
X30200000Y12950000D02*
X33150000Y12950000D01*
X10000000Y13450000D02*
X29700000Y13450000D01*
%TO.N,/5V_KEY*%
X31300000Y900000D02*
X33100000Y900000D01*
X16800000Y500000D02*
X20200000Y500000D01*
X8000000Y7150000D02*
X6050000Y5200000D01*
X30900000Y500000D02*
X31300000Y900000D01*
X10150000Y7150000D02*
X8000000Y7150000D01*
X10800000Y700000D02*
X10800000Y1200000D01*
X10500000Y3900000D02*
X10500000Y6800000D01*
X15390000Y1570000D02*
X16330000Y1570000D01*
X21200000Y500000D02*
X30900000Y500000D01*
X10500000Y6800000D02*
X10150000Y7150000D01*
X10800000Y1200000D02*
X10250000Y1750000D01*
X21100000Y400000D02*
X21200000Y500000D01*
X16600000Y1300000D02*
X16600000Y700000D01*
X20300000Y400000D02*
X21100000Y400000D01*
X6050000Y5200000D02*
X4500000Y5200000D01*
X4500000Y5200000D02*
X4350000Y5350000D01*
X16330000Y1570000D02*
X16600000Y1300000D01*
X10250000Y3650000D02*
X10500000Y3900000D01*
X20200000Y500000D02*
X20300000Y400000D01*
X33100000Y900000D02*
X33500000Y500000D01*
X10250000Y1750000D02*
X10250000Y3650000D01*
X10850000Y650000D02*
X10800000Y700000D01*
X16600000Y700000D02*
X16800000Y500000D01*
D17*
%TO.N,/TRANS_VCC*%
X13400000Y7300000D02*
X12900000Y7300000D01*
X12900000Y7300000D02*
X12500000Y7700000D01*
X13664812Y2314812D02*
X15000000Y3650000D01*
X13514812Y2314812D02*
X13664812Y2314812D01*
X11500000Y5900000D02*
X12900000Y7300000D01*
X11900000Y2300000D02*
X12100000Y2100000D01*
X15000000Y3650000D02*
X15000000Y3900000D01*
X13514812Y2314812D02*
X13500000Y2300000D01*
D15*
X12900000Y500000D02*
X12250000Y500000D01*
X12250000Y500000D02*
X11900000Y850000D01*
D17*
X13500000Y4800000D02*
X12000000Y4800000D01*
X13500000Y2300000D02*
X11900000Y2300000D01*
X11900000Y3400000D02*
X11900000Y4700000D01*
X11900000Y4700000D02*
X11900000Y5400000D01*
D16*
X12300000Y9310000D02*
X12319970Y9310000D01*
D15*
X13100000Y700000D02*
X12900000Y500000D01*
D16*
X12100000Y2100000D02*
X12100000Y1313162D01*
X12319970Y9310000D02*
X12500000Y9129970D01*
D17*
X11900000Y3400000D02*
X11900000Y2300000D01*
D16*
X12100000Y1313162D02*
X11900000Y1113162D01*
D17*
X11900000Y5400000D02*
X11500000Y5800000D01*
X12500000Y7700000D02*
X12500000Y9129970D01*
D16*
X11500000Y5800000D02*
X11500000Y5900000D01*
X11900000Y1113162D02*
X11900000Y850000D01*
X12000000Y4800000D02*
X11900000Y4700000D01*
D18*
%TO.N,+1V1*%
X26100000Y4900000D02*
X26100000Y5800000D01*
D16*
X20900000Y5000000D02*
X20919521Y4980479D01*
X26019521Y4980479D02*
X26100000Y4900000D01*
D18*
X26100000Y3800000D02*
X26100000Y4900000D01*
D16*
X20919521Y4980479D02*
X26019521Y4980479D01*
D15*
%TO.N,/VS2_T*%
X17600000Y12475000D02*
X18425000Y12475000D01*
X11300000Y9390000D02*
X11300000Y9900000D01*
X19850000Y12100000D02*
X20250000Y12500000D01*
X27720000Y12500000D02*
X28080000Y12860000D01*
X11300000Y9900000D02*
X12000000Y10600000D01*
X20250000Y12500000D02*
X27720000Y12500000D01*
X15725000Y10600000D02*
X17600000Y12475000D01*
X12000000Y10600000D02*
X15725000Y10600000D01*
X18425000Y12475000D02*
X18800000Y12100000D01*
X18800000Y12100000D02*
X19850000Y12100000D01*
%TD*%
%TA.AperFunction,Conductor*%
%TO.N,GND*%
G36*
X3522745Y10244644D02*
G01*
X3547102Y10216126D01*
X3549500Y10200984D01*
X3549500Y5049828D01*
X3549500Y4950172D01*
X3587636Y4858103D01*
X3587637Y4858102D01*
X3587638Y4858100D01*
X3795429Y4650309D01*
X3809781Y4615661D01*
X3795429Y4581013D01*
X3768448Y4567265D01*
X3732518Y4561574D01*
X3732516Y4561574D01*
X3732514Y4561573D01*
X3626541Y4507578D01*
X3626534Y4507573D01*
X3542427Y4423466D01*
X3542422Y4423459D01*
X3488427Y4317485D01*
X3488426Y4317484D01*
X3488426Y4317482D01*
X3469819Y4200000D01*
X3488426Y4082518D01*
X3488426Y4082517D01*
X3488427Y4082516D01*
X3542422Y3976542D01*
X3542427Y3976535D01*
X3626534Y3892428D01*
X3626541Y3892423D01*
X3695118Y3857482D01*
X3732518Y3838426D01*
X3850000Y3819819D01*
X3967482Y3838426D01*
X4055888Y3883471D01*
X4073458Y3892423D01*
X4073460Y3892425D01*
X4073465Y3892427D01*
X4157573Y3976535D01*
X4157577Y3976542D01*
X4159843Y3979659D01*
X4161107Y3978741D01*
X4185358Y3999453D01*
X4222745Y3996511D01*
X4247102Y3967993D01*
X4249500Y3952851D01*
X4249500Y2899500D01*
X4235148Y2864852D01*
X4200500Y2850500D01*
X3950170Y2850500D01*
X3858101Y2812363D01*
X3858099Y2812362D01*
X3340029Y2294292D01*
X3305381Y2279940D01*
X3302311Y2280181D01*
X3300001Y2280181D01*
X3300000Y2280181D01*
X3182518Y2261574D01*
X3182516Y2261574D01*
X3182515Y2261573D01*
X3076541Y2207578D01*
X3076534Y2207573D01*
X2992427Y2123466D01*
X2992422Y2123459D01*
X2938427Y2017485D01*
X2938426Y2017484D01*
X2938426Y2017482D01*
X2919819Y1900000D01*
X2938426Y1782518D01*
X2938426Y1782517D01*
X2938427Y1782516D01*
X2992422Y1676542D01*
X2992427Y1676535D01*
X3076534Y1592428D01*
X3076541Y1592423D01*
X3147190Y1556427D01*
X3182518Y1538426D01*
X3300000Y1519819D01*
X3417482Y1538426D01*
X3499076Y1580000D01*
X3523458Y1592423D01*
X3523460Y1592425D01*
X3523465Y1592427D01*
X3607573Y1676535D01*
X3608793Y1678928D01*
X3630498Y1721528D01*
X3661574Y1782518D01*
X3680181Y1900000D01*
X3680181Y1900002D01*
X3680181Y1903856D01*
X3682015Y1903856D01*
X3689297Y1934186D01*
X3694284Y1940025D01*
X4089409Y2335148D01*
X4124057Y2349500D01*
X4175983Y2349500D01*
X4210631Y2335148D01*
X4224983Y2300500D01*
X4210631Y2265852D01*
X4198228Y2256841D01*
X4101541Y2207578D01*
X4101534Y2207573D01*
X4017427Y2123466D01*
X4017422Y2123459D01*
X3963427Y2017485D01*
X3963426Y2017484D01*
X3963426Y2017482D01*
X3944819Y1900000D01*
X3963426Y1782518D01*
X3963426Y1782517D01*
X3963427Y1782516D01*
X4017422Y1676542D01*
X4017427Y1676535D01*
X4101534Y1592428D01*
X4101541Y1592423D01*
X4172190Y1556427D01*
X4207518Y1538426D01*
X4325000Y1519819D01*
X4442482Y1538426D01*
X4524076Y1580000D01*
X4548458Y1592423D01*
X4548460Y1592425D01*
X4548465Y1592427D01*
X4632573Y1676535D01*
X4632574Y1676538D01*
X4634965Y1678928D01*
X4669613Y1693280D01*
X4704261Y1678928D01*
X4714883Y1663032D01*
X4737636Y1608102D01*
X4737637Y1608101D01*
X5287636Y1058103D01*
X5358100Y987638D01*
X5358101Y987638D01*
X5358103Y987636D01*
X5450172Y949500D01*
X5525732Y949500D01*
X5560380Y935148D01*
X5574732Y900500D01*
X5569391Y878255D01*
X5538427Y817485D01*
X5538426Y817484D01*
X5538426Y817482D01*
X5519819Y700000D01*
X5538426Y582518D01*
X5538426Y582517D01*
X5538427Y582516D01*
X5592422Y476542D01*
X5592427Y476535D01*
X5676534Y392428D01*
X5676541Y392423D01*
X5738410Y360900D01*
X5782518Y338426D01*
X5900000Y319819D01*
X6017482Y338426D01*
X6092289Y376542D01*
X6123458Y392423D01*
X6123460Y392425D01*
X6123465Y392427D01*
X6207573Y476535D01*
X6210621Y482516D01*
X6231445Y523387D01*
X6261574Y582518D01*
X6276603Y677414D01*
X6289703Y698790D01*
X6285358Y701453D01*
X6276603Y722589D01*
X6275978Y726535D01*
X6261574Y817482D01*
X6237438Y864852D01*
X6230609Y878255D01*
X6227666Y915642D01*
X6252023Y944159D01*
X6274268Y949500D01*
X6375732Y949500D01*
X6410380Y935148D01*
X6424732Y900500D01*
X6419391Y878255D01*
X6388427Y817485D01*
X6388426Y817484D01*
X6388426Y817482D01*
X6375274Y734443D01*
X6373397Y722589D01*
X6360296Y701212D01*
X6364642Y698548D01*
X6373396Y677414D01*
X6388426Y582518D01*
X6388426Y582517D01*
X6388427Y582516D01*
X6442422Y476542D01*
X6442427Y476535D01*
X6526534Y392428D01*
X6526541Y392423D01*
X6588410Y360900D01*
X6632518Y338426D01*
X6750000Y319819D01*
X6867482Y338426D01*
X6942289Y376542D01*
X6973458Y392423D01*
X6973460Y392425D01*
X6973465Y392427D01*
X7057573Y476535D01*
X7060621Y482516D01*
X7081445Y523387D01*
X7111574Y582518D01*
X7130181Y700000D01*
X7111574Y817482D01*
X7087438Y864852D01*
X7080609Y878255D01*
X7077666Y915642D01*
X7102023Y944159D01*
X7124268Y949500D01*
X7850775Y949500D01*
X7885423Y935148D01*
X7890415Y929304D01*
X7892427Y926535D01*
X7976534Y842428D01*
X7976541Y842423D01*
X8047190Y806427D01*
X8082518Y788426D01*
X8200000Y769819D01*
X8317482Y788426D01*
X8392432Y826615D01*
X8423458Y842423D01*
X8423460Y842425D01*
X8423465Y842427D01*
X8507573Y926535D01*
X8561574Y1032518D01*
X8580181Y1150000D01*
X8561574Y1267482D01*
X8529644Y1330148D01*
X8507577Y1373459D01*
X8507572Y1373466D01*
X8423465Y1457573D01*
X8423458Y1457578D01*
X8317484Y1511573D01*
X8317483Y1511574D01*
X8317482Y1511574D01*
X8200000Y1530181D01*
X8082517Y1511574D01*
X7973133Y1455840D01*
X7950888Y1450500D01*
X5624057Y1450500D01*
X5589409Y1464852D01*
X5214852Y1839409D01*
X5200500Y1874057D01*
X5200500Y2199826D01*
X5200499Y2199830D01*
X5192860Y2218273D01*
X5162364Y2291897D01*
X5162362Y2291899D01*
X5162362Y2291900D01*
X5091897Y2362364D01*
X4764852Y2689409D01*
X4750500Y2724057D01*
X4750500Y4349826D01*
X4750499Y4349830D01*
X4729613Y4400253D01*
X4712364Y4441897D01*
X4712362Y4441899D01*
X4712362Y4441900D01*
X4641897Y4512364D01*
X4379497Y4774764D01*
X4365145Y4809412D01*
X4379497Y4844060D01*
X4414145Y4858412D01*
X4426828Y4856742D01*
X4453854Y4849500D01*
X4453856Y4849500D01*
X6096146Y4849500D01*
X6140716Y4861443D01*
X6185288Y4873386D01*
X6265212Y4919530D01*
X8130830Y6785148D01*
X8165478Y6799500D01*
X8552851Y6799500D01*
X8587499Y6785148D01*
X8601851Y6750500D01*
X8587499Y6715852D01*
X8579510Y6710048D01*
X8579659Y6709843D01*
X8576534Y6707573D01*
X8492427Y6623466D01*
X8492422Y6623459D01*
X8438427Y6517485D01*
X8438426Y6517484D01*
X8438426Y6517482D01*
X8419819Y6400000D01*
X8438426Y6282518D01*
X8438426Y6282517D01*
X8438427Y6282516D01*
X8492422Y6176542D01*
X8492427Y6176535D01*
X8576534Y6092428D01*
X8576541Y6092423D01*
X8647190Y6056427D01*
X8682518Y6038426D01*
X8800000Y6019819D01*
X8917482Y6038426D01*
X8930698Y6045161D01*
X8968084Y6048103D01*
X8996602Y6023747D01*
X8999545Y5986360D01*
X8987591Y5966853D01*
X5687637Y2666899D01*
X5649500Y2574830D01*
X5649500Y2250834D01*
X5635148Y2216186D01*
X5592427Y2173466D01*
X5592422Y2173459D01*
X5538427Y2067485D01*
X5538426Y2067484D01*
X5538426Y2067482D01*
X5519819Y1950000D01*
X5538426Y1832518D01*
X5538426Y1832517D01*
X5538427Y1832516D01*
X5592422Y1726542D01*
X5592427Y1726535D01*
X5676534Y1642428D01*
X5676541Y1642423D01*
X5743900Y1608103D01*
X5782518Y1588426D01*
X5900000Y1569819D01*
X6017482Y1588426D01*
X6105896Y1633475D01*
X6123458Y1642423D01*
X6123460Y1642425D01*
X6123465Y1642427D01*
X6207573Y1726535D01*
X6207853Y1727083D01*
X6224120Y1759012D01*
X6261574Y1832518D01*
X6276603Y1927414D01*
X6289703Y1948790D01*
X6285751Y1951212D01*
X6360296Y1951212D01*
X6364642Y1948548D01*
X6373396Y1927414D01*
X6388426Y1832518D01*
X6388426Y1832517D01*
X6388427Y1832516D01*
X6442422Y1726542D01*
X6442427Y1726535D01*
X6526534Y1642428D01*
X6526541Y1642423D01*
X6593900Y1608103D01*
X6632518Y1588426D01*
X6750000Y1569819D01*
X6867482Y1588426D01*
X6955896Y1633475D01*
X6973458Y1642423D01*
X6973460Y1642425D01*
X6973465Y1642427D01*
X7057573Y1726535D01*
X7057853Y1727083D01*
X7074120Y1759012D01*
X7111574Y1832518D01*
X7130181Y1950000D01*
X7111574Y2067482D01*
X7088404Y2112955D01*
X7057577Y2173459D01*
X7057572Y2173466D01*
X6973465Y2257573D01*
X6973458Y2257578D01*
X6867484Y2311573D01*
X6867483Y2311574D01*
X6867482Y2311574D01*
X6750000Y2330181D01*
X6632518Y2311574D01*
X6632516Y2311574D01*
X6632515Y2311573D01*
X6526541Y2257578D01*
X6526534Y2257573D01*
X6442427Y2173466D01*
X6442422Y2173459D01*
X6388427Y2067485D01*
X6388426Y2067484D01*
X6388426Y2067482D01*
X6373397Y1972589D01*
X6360296Y1951212D01*
X6285751Y1951212D01*
X6285358Y1951453D01*
X6276603Y1972589D01*
X6261574Y2067482D01*
X6238404Y2112955D01*
X6207577Y2173459D01*
X6207572Y2173466D01*
X6164852Y2216186D01*
X6150500Y2250834D01*
X6150500Y2400945D01*
X6164851Y2435592D01*
X9759968Y6030710D01*
X9794615Y6045061D01*
X9797688Y6044819D01*
X9799998Y6044819D01*
X9799999Y6044820D01*
X9800000Y6044819D01*
X9917482Y6063426D01*
X9990988Y6100880D01*
X10023458Y6117423D01*
X10023460Y6117425D01*
X10023465Y6117427D01*
X10065852Y6159814D01*
X10100500Y6174166D01*
X10135148Y6159814D01*
X10149500Y6125166D01*
X10149500Y4065478D01*
X10135148Y4030830D01*
X9969531Y3865213D01*
X9969530Y3865213D01*
X9930004Y3796753D01*
X9930004Y3796751D01*
X9926968Y3791492D01*
X9923386Y3785288D01*
X9923384Y3785284D01*
X9899500Y3696147D01*
X9899500Y1703855D01*
X9906179Y1678928D01*
X9915959Y1642428D01*
X9916670Y1639777D01*
X9916670Y1639776D01*
X9923385Y1614713D01*
X9923386Y1614710D01*
X9969530Y1534788D01*
X10095999Y1408319D01*
X10110351Y1373671D01*
X10095999Y1339023D01*
X10069017Y1325274D01*
X10045043Y1321477D01*
X9982518Y1311574D01*
X9982516Y1311574D01*
X9982514Y1311573D01*
X9876541Y1257578D01*
X9876534Y1257573D01*
X9792427Y1173466D01*
X9792422Y1173459D01*
X9738427Y1067486D01*
X9738426Y1067484D01*
X9738426Y1067482D01*
X9728938Y1007573D01*
X9727976Y1001500D01*
X9708380Y969524D01*
X9671913Y960769D01*
X9670642Y961074D01*
X9550000Y980181D01*
X9432518Y961574D01*
X9432516Y961574D01*
X9432515Y961573D01*
X9326541Y907578D01*
X9326534Y907573D01*
X9242427Y823466D01*
X9242422Y823459D01*
X9188427Y717485D01*
X9188426Y717484D01*
X9188426Y717482D01*
X9169819Y600000D01*
X9188426Y482518D01*
X9188426Y482517D01*
X9188427Y482516D01*
X9242422Y376542D01*
X9242427Y376535D01*
X9326534Y292428D01*
X9329659Y290157D01*
X9328740Y288893D01*
X9349453Y264642D01*
X9346511Y227255D01*
X9317993Y202898D01*
X9302851Y200500D01*
X603346Y200500D01*
X568698Y214852D01*
X214852Y568698D01*
X200500Y603346D01*
X200500Y700000D01*
X2919819Y700000D01*
X2938426Y582518D01*
X2938426Y582517D01*
X2938427Y582516D01*
X2992422Y476542D01*
X2992427Y476535D01*
X3076534Y392428D01*
X3076541Y392423D01*
X3138410Y360900D01*
X3182518Y338426D01*
X3300000Y319819D01*
X3417482Y338426D01*
X3492289Y376542D01*
X3523458Y392423D01*
X3523460Y392425D01*
X3523465Y392427D01*
X3607573Y476535D01*
X3610621Y482516D01*
X3631445Y523387D01*
X3661574Y582518D01*
X3680181Y700000D01*
X3944819Y700000D01*
X3963426Y582518D01*
X3963426Y582517D01*
X3963427Y582516D01*
X4017422Y476542D01*
X4017427Y476535D01*
X4101534Y392428D01*
X4101541Y392423D01*
X4163410Y360900D01*
X4207518Y338426D01*
X4325000Y319819D01*
X4442482Y338426D01*
X4517289Y376542D01*
X4548458Y392423D01*
X4548460Y392425D01*
X4548465Y392427D01*
X4632573Y476535D01*
X4635621Y482516D01*
X4656445Y523387D01*
X4686574Y582518D01*
X4705181Y700000D01*
X4686574Y817482D01*
X4662438Y864852D01*
X4632577Y923459D01*
X4632572Y923466D01*
X4548465Y1007573D01*
X4548458Y1007578D01*
X4442484Y1061573D01*
X4442483Y1061574D01*
X4442482Y1061574D01*
X4325000Y1080181D01*
X4207518Y1061574D01*
X4207516Y1061574D01*
X4207515Y1061573D01*
X4101541Y1007578D01*
X4101534Y1007573D01*
X4017427Y923466D01*
X4017422Y923459D01*
X3963427Y817485D01*
X3963426Y817484D01*
X3963426Y817482D01*
X3944819Y700000D01*
X3680181Y700000D01*
X3661574Y817482D01*
X3637438Y864852D01*
X3607577Y923459D01*
X3607572Y923466D01*
X3523465Y1007573D01*
X3523458Y1007578D01*
X3417484Y1061573D01*
X3417483Y1061574D01*
X3417482Y1061574D01*
X3300000Y1080181D01*
X3182518Y1061574D01*
X3182516Y1061574D01*
X3182515Y1061573D01*
X3076541Y1007578D01*
X3076534Y1007573D01*
X2992427Y923466D01*
X2992422Y923459D01*
X2938427Y817485D01*
X2938426Y817484D01*
X2938426Y817482D01*
X2919819Y700000D01*
X200500Y700000D01*
X200500Y1789566D01*
X214852Y1824214D01*
X237774Y1837142D01*
X250225Y1840210D01*
X400852Y1919266D01*
X528183Y2032071D01*
X624818Y2172070D01*
X685140Y2331128D01*
X705645Y2500000D01*
X685140Y2668872D01*
X624818Y2827930D01*
X620995Y2833468D01*
X528183Y2967929D01*
X517096Y2977751D01*
X400852Y3080734D01*
X400844Y3080738D01*
X400843Y3080739D01*
X250226Y3159790D01*
X237771Y3162860D01*
X207566Y3185088D01*
X200500Y3210436D01*
X200500Y3289566D01*
X214852Y3324214D01*
X237774Y3337142D01*
X250225Y3340210D01*
X400852Y3419266D01*
X491982Y3500000D01*
X2919819Y3500000D01*
X2938426Y3382518D01*
X2938426Y3382517D01*
X2938427Y3382516D01*
X2992422Y3276542D01*
X2992427Y3276535D01*
X3076534Y3192428D01*
X3076541Y3192423D01*
X3145122Y3157480D01*
X3182518Y3138426D01*
X3300000Y3119819D01*
X3417482Y3138426D01*
X3506942Y3184008D01*
X3523458Y3192423D01*
X3523460Y3192425D01*
X3523465Y3192427D01*
X3607573Y3276535D01*
X3608596Y3278541D01*
X3628367Y3317345D01*
X3661574Y3382518D01*
X3680181Y3500000D01*
X3661574Y3617482D01*
X3641461Y3656956D01*
X3607577Y3723459D01*
X3607572Y3723466D01*
X3523465Y3807573D01*
X3523458Y3807578D01*
X3417484Y3861573D01*
X3417483Y3861574D01*
X3417482Y3861574D01*
X3300000Y3880181D01*
X3182518Y3861574D01*
X3182516Y3861574D01*
X3182515Y3861573D01*
X3076541Y3807578D01*
X3076534Y3807573D01*
X2992427Y3723466D01*
X2992422Y3723459D01*
X2938427Y3617485D01*
X2938426Y3617484D01*
X2938426Y3617482D01*
X2919819Y3500000D01*
X491982Y3500000D01*
X528183Y3532071D01*
X624818Y3672070D01*
X685140Y3831128D01*
X705645Y4000000D01*
X685140Y4168872D01*
X624818Y4327930D01*
X621548Y4332667D01*
X528183Y4467929D01*
X475496Y4514605D01*
X400852Y4580734D01*
X400844Y4580738D01*
X400843Y4580739D01*
X250226Y4659790D01*
X237771Y4662860D01*
X207566Y4685088D01*
X200500Y4710436D01*
X200500Y4789566D01*
X214852Y4824214D01*
X237774Y4837142D01*
X250225Y4840210D01*
X400852Y4919266D01*
X528183Y5032071D01*
X624818Y5172070D01*
X685140Y5331128D01*
X705645Y5500000D01*
X685140Y5668872D01*
X624818Y5827930D01*
X605175Y5856387D01*
X528183Y5967929D01*
X400852Y6080734D01*
X400844Y6080738D01*
X400843Y6080739D01*
X250226Y6159790D01*
X237771Y6162860D01*
X207566Y6185088D01*
X200500Y6210436D01*
X200500Y6289566D01*
X214852Y6324214D01*
X237774Y6337142D01*
X250225Y6340210D01*
X400852Y6419266D01*
X528183Y6532071D01*
X624818Y6672070D01*
X685140Y6831128D01*
X705645Y7000000D01*
X700230Y7044595D01*
X710301Y7080719D01*
X742967Y7099143D01*
X748873Y7099500D01*
X749826Y7099500D01*
X749828Y7099500D01*
X841897Y7137636D01*
X2104259Y8400000D01*
X2519819Y8400000D01*
X2538426Y8282518D01*
X2538426Y8282517D01*
X2538427Y8282516D01*
X2592422Y8176542D01*
X2592427Y8176535D01*
X2676534Y8092428D01*
X2676541Y8092423D01*
X2729855Y8065259D01*
X2782518Y8038426D01*
X2900000Y8019819D01*
X3017482Y8038426D01*
X3121913Y8091636D01*
X3123458Y8092423D01*
X3123460Y8092425D01*
X3123465Y8092427D01*
X3207573Y8176535D01*
X3215195Y8191493D01*
X3236859Y8234012D01*
X3261574Y8282518D01*
X3280181Y8400000D01*
X3261574Y8517482D01*
X3231951Y8575621D01*
X3207577Y8623459D01*
X3207572Y8623466D01*
X3123465Y8707573D01*
X3123458Y8707578D01*
X3017484Y8761573D01*
X3017483Y8761574D01*
X3017482Y8761574D01*
X2900000Y8780181D01*
X2782518Y8761574D01*
X2782516Y8761574D01*
X2782515Y8761573D01*
X2676541Y8707578D01*
X2676534Y8707573D01*
X2592427Y8623466D01*
X2592422Y8623459D01*
X2538427Y8517485D01*
X2538426Y8517484D01*
X2538426Y8517482D01*
X2519819Y8400000D01*
X2104259Y8400000D01*
X3235004Y9530746D01*
X3235007Y9530747D01*
X3241896Y9537636D01*
X3241897Y9537636D01*
X3312364Y9608103D01*
X3334067Y9660499D01*
X3350501Y9700173D01*
X3350501Y9799828D01*
X3350501Y9803771D01*
X3350500Y9803785D01*
X3350500Y10049166D01*
X3364852Y10083814D01*
X3371236Y10090198D01*
X3407573Y10126535D01*
X3456841Y10223231D01*
X3485358Y10247586D01*
X3522745Y10244644D01*
G37*
%TD.AperFunction*%
%TA.AperFunction,Conductor*%
G36*
X14811621Y1747045D02*
G01*
X14829942Y1740377D01*
X14858345Y1730040D01*
X14873082Y1721532D01*
X14894147Y1703856D01*
X14926879Y1676390D01*
X14926878Y1676390D01*
X14936593Y1668239D01*
X14938459Y1666530D01*
X14938479Y1666551D01*
X14939263Y1665833D01*
X14939268Y1665828D01*
X14952300Y1654893D01*
X14957581Y1650655D01*
X14982904Y1640164D01*
X15009421Y1613644D01*
X15012547Y1587233D01*
X15009819Y1570003D01*
X15009819Y1570000D01*
X15028426Y1452518D01*
X15028426Y1452517D01*
X15028427Y1452516D01*
X15082422Y1346542D01*
X15082427Y1346535D01*
X15166534Y1262428D01*
X15166541Y1262423D01*
X15227229Y1231502D01*
X15272518Y1208426D01*
X15390000Y1189819D01*
X15507482Y1208426D01*
X15518734Y1214160D01*
X15540979Y1219500D01*
X15582448Y1219500D01*
X15617096Y1205148D01*
X15631448Y1170500D01*
X15626108Y1148255D01*
X15597945Y1092983D01*
X15592970Y1061573D01*
X15579338Y975500D01*
X15597945Y858018D01*
X15597945Y858017D01*
X15597946Y858016D01*
X15651941Y752042D01*
X15651946Y752035D01*
X15736053Y667928D01*
X15736060Y667923D01*
X15801079Y634795D01*
X15842037Y613926D01*
X15959519Y595319D01*
X16077001Y613926D01*
X16182984Y667927D01*
X16182984Y667928D01*
X16184277Y668586D01*
X16221665Y671529D01*
X16250182Y647173D01*
X16253853Y637609D01*
X16260199Y613927D01*
X16269093Y580734D01*
X16272018Y569819D01*
X16273387Y564709D01*
X16319530Y484788D01*
X16520170Y284148D01*
X16534522Y249500D01*
X16520170Y214852D01*
X16485522Y200500D01*
X13073019Y200500D01*
X13038371Y214852D01*
X13024019Y249500D01*
X13038371Y284148D01*
X13038581Y284321D01*
X13041895Y287636D01*
X13041897Y287636D01*
X13059968Y305709D01*
X13094616Y320061D01*
X13097689Y319819D01*
X13099998Y319819D01*
X13099998Y319820D01*
X13100000Y319819D01*
X13217482Y338426D01*
X13292289Y376542D01*
X13323458Y392423D01*
X13323460Y392425D01*
X13323465Y392427D01*
X13407573Y476535D01*
X13454930Y569480D01*
X13483447Y593835D01*
X13495110Y596109D01*
X13516492Y597628D01*
X13575013Y613654D01*
X14566654Y1109474D01*
X14593446Y1126491D01*
X14609067Y1138819D01*
X14617779Y1146231D01*
X14661033Y1214115D01*
X14672313Y1249882D01*
X14679365Y1289861D01*
X14661947Y1368447D01*
X14661946Y1368449D01*
X14661946Y1368450D01*
X14661946Y1368451D01*
X14650255Y1390909D01*
X14644632Y1401713D01*
X14637567Y1410517D01*
X14633351Y1416681D01*
X14615006Y1448456D01*
X14593023Y1486531D01*
X14587204Y1502518D01*
X14578569Y1551494D01*
X14578569Y1568509D01*
X14578832Y1570001D01*
X14587204Y1617487D01*
X14593021Y1633468D01*
X14617887Y1676537D01*
X14628822Y1689566D01*
X14666911Y1721528D01*
X14681646Y1730037D01*
X14705015Y1738541D01*
X14705016Y1738542D01*
X14716013Y1742545D01*
X14728379Y1747045D01*
X14745137Y1750000D01*
X14794863Y1750000D01*
X14811621Y1747045D01*
G37*
%TD.AperFunction*%
%TA.AperFunction,Conductor*%
G36*
X32969169Y535148D02*
G01*
X32969533Y534784D01*
X32983885Y500136D01*
X32972788Y470859D01*
X32973500Y470368D01*
X32875182Y327932D01*
X32875181Y327930D01*
X32853144Y269819D01*
X32841239Y238426D01*
X32838849Y232125D01*
X32813144Y204817D01*
X32793033Y200500D01*
X31214478Y200500D01*
X31179830Y214852D01*
X31165478Y249500D01*
X31179830Y284148D01*
X31430829Y535148D01*
X31465477Y549500D01*
X32934521Y549500D01*
X32969169Y535148D01*
G37*
%TD.AperFunction*%
%TA.AperFunction,Conductor*%
G36*
X6669985Y13785148D02*
G01*
X6684337Y13750500D01*
X6669985Y13715852D01*
X6607303Y13653171D01*
X6607302Y13653170D01*
X6532251Y13540848D01*
X6480555Y13416042D01*
X6480552Y13416031D01*
X6454200Y13283551D01*
X6454200Y13148450D01*
X6480552Y13015970D01*
X6480555Y13015959D01*
X6532251Y12891153D01*
X6607302Y12778831D01*
X6702830Y12683303D01*
X6812576Y12609973D01*
X6815152Y12608252D01*
X6939960Y12556555D01*
X6939966Y12556554D01*
X6939969Y12556553D01*
X7072449Y12530201D01*
X7072452Y12530201D01*
X7072455Y12530200D01*
X7072456Y12530200D01*
X7207544Y12530200D01*
X7207545Y12530200D01*
X7340040Y12556555D01*
X7464848Y12608252D01*
X7577172Y12683305D01*
X7672695Y12778828D01*
X7747748Y12891152D01*
X7799445Y13015960D01*
X7825800Y13148455D01*
X7825800Y13283545D01*
X7822527Y13300000D01*
X7799447Y13416031D01*
X7799444Y13416042D01*
X7798107Y13419269D01*
X7747748Y13540848D01*
X7672697Y13653170D01*
X7610015Y13715852D01*
X7595663Y13750500D01*
X7610015Y13785148D01*
X7644663Y13799500D01*
X8001501Y13799500D01*
X8036149Y13785148D01*
X8050501Y13750500D01*
X8043024Y13727490D01*
X8044177Y13726902D01*
X7988427Y13617485D01*
X7988426Y13617484D01*
X7988426Y13617482D01*
X7969819Y13500000D01*
X7988426Y13382518D01*
X7988426Y13382517D01*
X7988427Y13382516D01*
X8042422Y13276542D01*
X8042427Y13276535D01*
X8126534Y13192428D01*
X8126541Y13192423D01*
X8197190Y13156427D01*
X8232518Y13138426D01*
X8350000Y13119819D01*
X8467482Y13138426D01*
X8554014Y13182516D01*
X8573458Y13192423D01*
X8573460Y13192425D01*
X8573465Y13192427D01*
X8657573Y13276535D01*
X8661145Y13283544D01*
X8680734Y13321992D01*
X8711574Y13382518D01*
X8730181Y13500000D01*
X8711574Y13617482D01*
X8683760Y13672071D01*
X8655823Y13726902D01*
X8657413Y13727713D01*
X8650102Y13758166D01*
X8669698Y13790142D01*
X8698499Y13799500D01*
X9735522Y13799500D01*
X9770170Y13785148D01*
X9784522Y13750500D01*
X9770170Y13715852D01*
X9198562Y13144246D01*
X9176598Y13131564D01*
X9145413Y13123208D01*
X9145410Y13123207D01*
X9054086Y13070480D01*
X9054086Y13070479D01*
X8979521Y12995914D01*
X8979520Y12995914D01*
X8926793Y12904590D01*
X8926792Y12904586D01*
X8899500Y12802731D01*
X8899500Y11436189D01*
X8885148Y11401541D01*
X7379521Y9895914D01*
X7379520Y9895914D01*
X7326793Y9804590D01*
X7326792Y9804588D01*
X7299500Y9702731D01*
X7299500Y9597270D01*
X7326792Y9495413D01*
X7326793Y9495411D01*
X7370756Y9419266D01*
X7379520Y9404087D01*
X7454087Y9329520D01*
X7499205Y9303471D01*
X7545410Y9276794D01*
X7545412Y9276793D01*
X7647269Y9249501D01*
X7647270Y9249500D01*
X7647273Y9249500D01*
X7752730Y9249500D01*
X7752730Y9249501D01*
X7854588Y9276793D01*
X7945913Y9329520D01*
X8566392Y9950000D01*
X9689819Y9950000D01*
X9708426Y9832518D01*
X9708426Y9832517D01*
X9708427Y9832516D01*
X9762422Y9726542D01*
X9762427Y9726535D01*
X9846534Y9642428D01*
X9846541Y9642423D01*
X9903374Y9613466D01*
X9952518Y9588426D01*
X10070000Y9569819D01*
X10187482Y9588426D01*
X10260988Y9625880D01*
X10293458Y9642423D01*
X10293460Y9642425D01*
X10293465Y9642427D01*
X10377573Y9726535D01*
X10431574Y9832518D01*
X10450181Y9950000D01*
X10431574Y10067482D01*
X10413573Y10102810D01*
X10377577Y10173459D01*
X10377572Y10173466D01*
X10293465Y10257573D01*
X10293458Y10257578D01*
X10187484Y10311573D01*
X10187483Y10311574D01*
X10187482Y10311574D01*
X10070000Y10330181D01*
X9952518Y10311574D01*
X9952516Y10311574D01*
X9952515Y10311573D01*
X9846541Y10257578D01*
X9846534Y10257573D01*
X9762427Y10173466D01*
X9762422Y10173459D01*
X9708427Y10067485D01*
X9708426Y10067484D01*
X9708426Y10067482D01*
X9689819Y9950000D01*
X8566392Y9950000D01*
X9541878Y10925488D01*
X9541883Y10925491D01*
X9545911Y10929520D01*
X9545913Y10929520D01*
X9620480Y11004087D01*
X9673207Y11095413D01*
X9678845Y11116455D01*
X9683149Y11132518D01*
X9700501Y11197272D01*
X9700501Y11250000D01*
X10599819Y11250000D01*
X10618426Y11132518D01*
X10618426Y11132517D01*
X10618427Y11132516D01*
X10672422Y11026542D01*
X10672427Y11026535D01*
X10756534Y10942428D01*
X10756541Y10942423D01*
X10827190Y10906427D01*
X10862518Y10888426D01*
X10980000Y10869819D01*
X11097482Y10888426D01*
X11178134Y10929520D01*
X11203458Y10942423D01*
X11203460Y10942425D01*
X11203465Y10942427D01*
X11287573Y11026535D01*
X11290395Y11032072D01*
X11305829Y11062364D01*
X11341574Y11132518D01*
X11360181Y11250000D01*
X11341574Y11367482D01*
X11323573Y11402810D01*
X11287577Y11473459D01*
X11287572Y11473466D01*
X11203465Y11557573D01*
X11203458Y11557578D01*
X11097484Y11611573D01*
X11097483Y11611574D01*
X11097482Y11611574D01*
X10980000Y11630181D01*
X10862518Y11611574D01*
X10862516Y11611574D01*
X10862515Y11611573D01*
X10756541Y11557578D01*
X10756534Y11557573D01*
X10672427Y11473466D01*
X10672422Y11473459D01*
X10618427Y11367485D01*
X10618426Y11367484D01*
X10618426Y11367482D01*
X10599819Y11250000D01*
X9700501Y11250000D01*
X9700501Y11305723D01*
X9700500Y11305741D01*
X9700500Y11452104D01*
X9714852Y11486752D01*
X9749500Y11501104D01*
X9784148Y11486752D01*
X9793160Y11474349D01*
X9812425Y11436538D01*
X9812427Y11436535D01*
X9896534Y11352428D01*
X9896541Y11352423D01*
X9967190Y11316427D01*
X10002518Y11298426D01*
X10120000Y11279819D01*
X10237482Y11298426D01*
X10310988Y11335880D01*
X10343458Y11352423D01*
X10343460Y11352425D01*
X10343465Y11352427D01*
X10427573Y11436535D01*
X10481574Y11542518D01*
X10500181Y11660000D01*
X10481574Y11777482D01*
X10457751Y11824238D01*
X10427577Y11883459D01*
X10427572Y11883466D01*
X10343465Y11967573D01*
X10343458Y11967578D01*
X10237484Y12021573D01*
X10237483Y12021574D01*
X10237482Y12021574D01*
X10120000Y12040181D01*
X10002518Y12021574D01*
X10002516Y12021574D01*
X10002515Y12021573D01*
X9896541Y11967578D01*
X9896534Y11967573D01*
X9812427Y11883466D01*
X9812423Y11883461D01*
X9793159Y11845651D01*
X9764642Y11821295D01*
X9727254Y11824238D01*
X9702898Y11852755D01*
X9700500Y11867897D01*
X9700500Y12634522D01*
X9714852Y12669170D01*
X10130830Y13085148D01*
X10165478Y13099500D01*
X27700636Y13099500D01*
X27735284Y13085148D01*
X27749636Y13050500D01*
X27744296Y13028255D01*
X27718426Y12977483D01*
X27699819Y12859999D01*
X27699819Y12856144D01*
X27697988Y12856144D01*
X27690689Y12825799D01*
X27685709Y12819970D01*
X27630590Y12764852D01*
X27595943Y12750500D01*
X20200170Y12750500D01*
X20108101Y12712363D01*
X20108100Y12712363D01*
X19760591Y12364852D01*
X19725943Y12350500D01*
X18924057Y12350500D01*
X18889409Y12364852D01*
X18566899Y12687363D01*
X18474829Y12725500D01*
X18474828Y12725500D01*
X17649827Y12725500D01*
X17550172Y12725500D01*
X17550170Y12725500D01*
X17458101Y12687363D01*
X17458099Y12687362D01*
X17353727Y12582990D01*
X17319079Y12568638D01*
X17284431Y12582990D01*
X17270682Y12609973D01*
X17261574Y12667482D01*
X17238706Y12712363D01*
X17207577Y12773459D01*
X17207572Y12773466D01*
X17123465Y12857573D01*
X17123458Y12857578D01*
X17017484Y12911573D01*
X17017483Y12911574D01*
X17017482Y12911574D01*
X16900000Y12930181D01*
X16782518Y12911574D01*
X16782516Y12911574D01*
X16782515Y12911573D01*
X16676541Y12857578D01*
X16676534Y12857573D01*
X16592427Y12773466D01*
X16592422Y12773459D01*
X16538427Y12667485D01*
X16538426Y12667484D01*
X16538426Y12667482D01*
X16519819Y12550000D01*
X16538426Y12432518D01*
X16538426Y12432517D01*
X16538427Y12432516D01*
X16592422Y12326542D01*
X16592427Y12326535D01*
X16676534Y12242428D01*
X16676541Y12242423D01*
X16739321Y12210436D01*
X16782518Y12188426D01*
X16840029Y12179318D01*
X16872005Y12159722D01*
X16880760Y12123256D01*
X16867011Y12096273D01*
X15635591Y10864852D01*
X15600943Y10850500D01*
X11950170Y10850500D01*
X11858101Y10812363D01*
X11858100Y10812363D01*
X11158103Y10112364D01*
X11087637Y10041900D01*
X11087637Y10041899D01*
X11049500Y9949830D01*
X11049500Y9690834D01*
X11035148Y9656186D01*
X10992427Y9613466D01*
X10992422Y9613459D01*
X10938427Y9507485D01*
X10938426Y9507484D01*
X10938426Y9507482D01*
X10919819Y9390000D01*
X10938426Y9272518D01*
X10938426Y9272517D01*
X10938427Y9272516D01*
X10992422Y9166542D01*
X10992427Y9166535D01*
X11076534Y9082428D01*
X11076541Y9082423D01*
X11147190Y9046427D01*
X11182518Y9028426D01*
X11300000Y9009819D01*
X11417482Y9028426D01*
X11499154Y9070040D01*
X11523458Y9082423D01*
X11523460Y9082425D01*
X11523465Y9082427D01*
X11607573Y9166535D01*
X11612669Y9176535D01*
X11639910Y9230000D01*
X11661574Y9272518D01*
X11680181Y9390000D01*
X11661574Y9507482D01*
X11636112Y9557454D01*
X11607577Y9613459D01*
X11607572Y9613466D01*
X11564852Y9656186D01*
X11550500Y9690834D01*
X11550500Y9775943D01*
X11564852Y9810591D01*
X12089409Y10335148D01*
X12124057Y10349500D01*
X15774826Y10349500D01*
X15774828Y10349500D01*
X15866897Y10387636D01*
X17689409Y12210148D01*
X17724057Y12224500D01*
X18300943Y12224500D01*
X18335591Y12210148D01*
X18587636Y11958103D01*
X18658100Y11887638D01*
X18658101Y11887638D01*
X18658103Y11887636D01*
X18750172Y11849500D01*
X18750174Y11849500D01*
X19899826Y11849500D01*
X19899828Y11849500D01*
X19991897Y11887636D01*
X20339409Y12235148D01*
X20374057Y12249500D01*
X27769826Y12249500D01*
X27769828Y12249500D01*
X27861897Y12287636D01*
X28039969Y12465710D01*
X28074616Y12480061D01*
X28077686Y12479819D01*
X28079998Y12479819D01*
X28079999Y12479820D01*
X28080000Y12479819D01*
X28197482Y12498426D01*
X28298702Y12550000D01*
X28303458Y12552423D01*
X28303460Y12552425D01*
X28303465Y12552427D01*
X28387573Y12636535D01*
X28441574Y12742518D01*
X28460181Y12860000D01*
X28441574Y12977482D01*
X28415704Y13028255D01*
X28412762Y13065642D01*
X28437119Y13094160D01*
X28459364Y13099500D01*
X29534522Y13099500D01*
X29569170Y13085148D01*
X29984788Y12669530D01*
X30010270Y12654818D01*
X30064709Y12623387D01*
X30064711Y12623387D01*
X30064712Y12623386D01*
X30086998Y12617415D01*
X30153853Y12599500D01*
X32100983Y12599500D01*
X32135631Y12585148D01*
X32149983Y12550500D01*
X32135631Y12515852D01*
X32123228Y12506841D01*
X32026541Y12457578D01*
X32026534Y12457573D01*
X31942427Y12373466D01*
X31942422Y12373459D01*
X31888427Y12267485D01*
X31888426Y12267484D01*
X31888426Y12267482D01*
X31869819Y12150000D01*
X31888426Y12032518D01*
X31888426Y12032517D01*
X31888427Y12032516D01*
X31942422Y11926542D01*
X31942427Y11926535D01*
X32026534Y11842428D01*
X32026541Y11842423D01*
X32097190Y11806427D01*
X32132518Y11788426D01*
X32250000Y11769819D01*
X32367482Y11788426D01*
X32465617Y11838428D01*
X32473458Y11842423D01*
X32473460Y11842425D01*
X32473465Y11842427D01*
X32557573Y11926535D01*
X32611574Y12032518D01*
X32630181Y12150000D01*
X32611574Y12267482D01*
X32581485Y12326535D01*
X32557577Y12373459D01*
X32557572Y12373466D01*
X32473465Y12457573D01*
X32473458Y12457578D01*
X32376772Y12506841D01*
X32352415Y12535358D01*
X32355358Y12572745D01*
X32383875Y12597102D01*
X32399017Y12599500D01*
X33196146Y12599500D01*
X33240716Y12611443D01*
X33285288Y12623386D01*
X33365212Y12669530D01*
X33780470Y13084788D01*
X33826614Y13164712D01*
X33841850Y13221574D01*
X33850500Y13253856D01*
X33850500Y13363218D01*
X33864852Y13397866D01*
X33876725Y13406604D01*
X33900852Y13419266D01*
X34028183Y13532071D01*
X34124818Y13672070D01*
X34161151Y13767876D01*
X34186856Y13795183D01*
X34206967Y13799500D01*
X39396654Y13799500D01*
X39431302Y13785148D01*
X39785148Y13431302D01*
X39799500Y13396654D01*
X39799500Y603346D01*
X39785148Y568698D01*
X39431302Y214852D01*
X39396654Y200500D01*
X34206967Y200500D01*
X34172319Y214852D01*
X34161151Y232125D01*
X34158761Y238426D01*
X34124818Y327930D01*
X34114811Y342427D01*
X34028183Y467929D01*
X34011719Y482515D01*
X33900852Y580734D01*
X33900844Y580738D01*
X33900843Y580739D01*
X33850479Y607173D01*
X33829094Y632833D01*
X33827846Y632315D01*
X33826615Y635286D01*
X33822494Y642423D01*
X33780469Y715212D01*
X33315212Y1180470D01*
X33299019Y1189819D01*
X33235291Y1226613D01*
X33235288Y1226614D01*
X33224517Y1229500D01*
X33198392Y1236500D01*
X33146146Y1250500D01*
X33146144Y1250500D01*
X31253856Y1250500D01*
X31253854Y1250500D01*
X31201607Y1236500D01*
X31175483Y1229500D01*
X31165669Y1226871D01*
X31164708Y1226613D01*
X31084794Y1180473D01*
X31084784Y1180466D01*
X30769170Y864852D01*
X30734522Y850500D01*
X21153853Y850500D01*
X21064713Y826615D01*
X21064710Y826614D01*
X20984794Y780473D01*
X20984784Y780466D01*
X20969171Y764852D01*
X20934523Y750500D01*
X20465478Y750500D01*
X20430830Y764852D01*
X20415212Y780470D01*
X20335290Y826614D01*
X20335286Y826615D01*
X20246147Y850500D01*
X20246144Y850500D01*
X16999500Y850500D01*
X16964852Y864852D01*
X16950500Y899500D01*
X16950500Y1295500D01*
X16964852Y1330148D01*
X16999500Y1344500D01*
X22709927Y1344500D01*
X22744575Y1330148D01*
X22756850Y1306059D01*
X22757235Y1306183D01*
X22758023Y1303756D01*
X22758323Y1303168D01*
X22758426Y1302518D01*
X22758427Y1302514D01*
X22812422Y1196542D01*
X22812427Y1196535D01*
X22896534Y1112428D01*
X22896541Y1112423D01*
X22959821Y1080181D01*
X23002518Y1058426D01*
X23120000Y1039819D01*
X23237482Y1058426D01*
X23337664Y1109471D01*
X23343458Y1112423D01*
X23343460Y1112425D01*
X23343465Y1112427D01*
X23427573Y1196535D01*
X23476341Y1292250D01*
X23504856Y1316604D01*
X23542244Y1313662D01*
X23563658Y1292248D01*
X23612423Y1196540D01*
X23612427Y1196535D01*
X23696534Y1112428D01*
X23696541Y1112423D01*
X23759821Y1080181D01*
X23802518Y1058426D01*
X23920000Y1039819D01*
X24037482Y1058426D01*
X24137664Y1109471D01*
X24143458Y1112423D01*
X24143460Y1112425D01*
X24143465Y1112427D01*
X24227573Y1196535D01*
X24228812Y1198965D01*
X24281573Y1302516D01*
X24281573Y1302517D01*
X24281574Y1302518D01*
X24281675Y1303161D01*
X24281903Y1303533D01*
X24282767Y1306189D01*
X24283404Y1305982D01*
X24301266Y1335138D01*
X24330073Y1344500D01*
X30690896Y1344500D01*
X30690902Y1344500D01*
X30719289Y1347113D01*
X30736879Y1350379D01*
X30764313Y1358131D01*
X30778868Y1363729D01*
X30778869Y1363729D01*
X30974330Y1438907D01*
X30974329Y1438908D01*
X30999144Y1448452D01*
X30999145Y1448453D01*
X32024411Y1842785D01*
X32053327Y1857536D01*
X32070385Y1868622D01*
X32080309Y1875639D01*
X32129311Y1939498D01*
X32143663Y1974146D01*
X32155500Y2033654D01*
X32155500Y2915487D01*
X32150201Y2955736D01*
X32145575Y2973000D01*
X32143638Y2980229D01*
X32143634Y2980239D01*
X32140627Y2987499D01*
X32128102Y3017736D01*
X32123023Y3026533D01*
X32117203Y3042524D01*
X32116487Y3046583D01*
X32108569Y3091494D01*
X32108569Y3108509D01*
X32110602Y3120040D01*
X32117204Y3157484D01*
X32123027Y3173476D01*
X32128101Y3182263D01*
X32143636Y3219767D01*
X32150201Y3244267D01*
X32155500Y3284515D01*
X32155500Y3535142D01*
X32153138Y3562144D01*
X32150183Y3578903D01*
X32148859Y3585559D01*
X32111691Y3656956D01*
X32086354Y3684606D01*
X32055259Y3710698D01*
X32055257Y3710699D01*
X31978492Y3734904D01*
X31941027Y3736539D01*
X31881059Y3727310D01*
X31836629Y3711139D01*
X31826269Y3708604D01*
X31796648Y3704703D01*
X31796641Y3704702D01*
X31796636Y3704701D01*
X31786982Y3702114D01*
X31772130Y3698135D01*
X31772129Y3698135D01*
X31752876Y3691599D01*
X31752875Y3691598D01*
X31741302Y3682718D01*
X31705077Y3673012D01*
X31672599Y3691765D01*
X31662893Y3715199D01*
X31661459Y3726093D01*
X31659721Y3739296D01*
X31640217Y3796751D01*
X31623024Y3826529D01*
X31617204Y3842519D01*
X31608569Y3891494D01*
X31608569Y3908509D01*
X31609013Y3911029D01*
X31617204Y3957487D01*
X31623021Y3973468D01*
X31647887Y4016537D01*
X31658822Y4029566D01*
X31696911Y4061528D01*
X31711646Y4070037D01*
X31737337Y4079386D01*
X31737338Y4079387D01*
X31757013Y4086548D01*
X31758379Y4087045D01*
X31775137Y4090000D01*
X31824863Y4090000D01*
X31841621Y4087046D01*
X31842987Y4086548D01*
X31857618Y4081223D01*
X31857624Y4081220D01*
X31862662Y4079387D01*
X31862663Y4079386D01*
X31881058Y4072691D01*
X31907239Y4065676D01*
X31907249Y4065675D01*
X31907250Y4065674D01*
X31923995Y4062721D01*
X31927653Y4062159D01*
X31930704Y4061689D01*
X32010508Y4072196D01*
X32045156Y4086548D01*
X32080309Y4106844D01*
X32129311Y4170703D01*
X32132280Y4177870D01*
X33884500Y4177870D01*
X33884500Y4042131D01*
X33919629Y3911029D01*
X33919631Y3911023D01*
X33966674Y3829544D01*
X33987498Y3793476D01*
X34083476Y3697498D01*
X34109076Y3682718D01*
X34201022Y3629632D01*
X34201028Y3629630D01*
X34332130Y3594500D01*
X34332133Y3594500D01*
X34467869Y3594500D01*
X34598971Y3629630D01*
X34598969Y3629630D01*
X34598975Y3629631D01*
X34599549Y3629962D01*
X34621433Y3642597D01*
X34716524Y3697498D01*
X34812502Y3793476D01*
X34874005Y3900002D01*
X34880368Y3911023D01*
X34880370Y3911029D01*
X34915500Y4042131D01*
X34915500Y4177870D01*
X34880370Y4308972D01*
X34880368Y4308978D01*
X34827672Y4400248D01*
X34812502Y4426524D01*
X34716524Y4522502D01*
X34713706Y4524129D01*
X34598977Y4590369D01*
X34598971Y4590371D01*
X34467870Y4625500D01*
X34467867Y4625500D01*
X34332133Y4625500D01*
X34332130Y4625500D01*
X34201028Y4590371D01*
X34201022Y4590369D01*
X34083475Y4522502D01*
X34083475Y4522501D01*
X33987499Y4426525D01*
X33987498Y4426525D01*
X33919631Y4308978D01*
X33919629Y4308972D01*
X33884500Y4177870D01*
X32132280Y4177870D01*
X32143663Y4205351D01*
X32145801Y4216096D01*
X32155499Y4264854D01*
X32155500Y4264859D01*
X32155500Y5035137D01*
X32155498Y5035164D01*
X32154215Y5049828D01*
X32153138Y5062144D01*
X32150183Y5078903D01*
X32148859Y5085559D01*
X32116220Y5148255D01*
X32112952Y5185613D01*
X32116020Y5193115D01*
X32161574Y5282518D01*
X32180181Y5400000D01*
X32161574Y5517482D01*
X32145428Y5549171D01*
X32115819Y5607283D01*
X32112876Y5644670D01*
X32120607Y5659361D01*
X32129311Y5670703D01*
X32143663Y5705351D01*
X32151389Y5744189D01*
X32155499Y5764854D01*
X32155500Y5764859D01*
X32155500Y6979704D01*
X32155499Y6979710D01*
X32143665Y7039204D01*
X32143662Y7039215D01*
X32129312Y7073858D01*
X32095605Y7124305D01*
X31128277Y8091633D01*
X31128274Y8091636D01*
X31107511Y8109059D01*
X31107510Y8109060D01*
X31107504Y8109065D01*
X31093579Y8118815D01*
X31087930Y8122590D01*
X31011163Y8146795D01*
X30973697Y8148430D01*
X30913731Y8139201D01*
X30841622Y8112955D01*
X30824863Y8110000D01*
X30775137Y8110000D01*
X30758378Y8112955D01*
X30711653Y8129962D01*
X30696915Y8138471D01*
X30658822Y8170435D01*
X30647884Y8183471D01*
X30623023Y8226531D01*
X30617204Y8242518D01*
X30608569Y8291493D01*
X30608569Y8308508D01*
X30612802Y8332516D01*
X30617204Y8357483D01*
X30623026Y8373474D01*
X30626341Y8379214D01*
X30641877Y8416722D01*
X30648441Y8441221D01*
X30652409Y8461169D01*
X30641902Y8540973D01*
X30627550Y8575621D01*
X30612189Y8598610D01*
X30593844Y8626066D01*
X29819910Y9400000D01*
X31519819Y9400000D01*
X31538426Y9282518D01*
X31538426Y9282517D01*
X31538427Y9282516D01*
X31592422Y9176542D01*
X31592427Y9176535D01*
X31676534Y9092428D01*
X31676541Y9092423D01*
X31726273Y9067084D01*
X31782518Y9038426D01*
X31900000Y9019819D01*
X32017482Y9038426D01*
X32097855Y9079378D01*
X32123458Y9092423D01*
X32123460Y9092425D01*
X32123465Y9092427D01*
X32207573Y9176535D01*
X32261574Y9282518D01*
X32280181Y9400000D01*
X32261574Y9517482D01*
X32234907Y9569819D01*
X32207577Y9623459D01*
X32207572Y9623466D01*
X32123465Y9707573D01*
X32123458Y9707578D01*
X32017484Y9761573D01*
X32017483Y9761574D01*
X32017482Y9761574D01*
X31900000Y9780181D01*
X31782518Y9761574D01*
X31782516Y9761574D01*
X31782515Y9761573D01*
X31676541Y9707578D01*
X31676534Y9707573D01*
X31592427Y9623466D01*
X31592422Y9623459D01*
X31538427Y9517485D01*
X31538426Y9517484D01*
X31538426Y9517482D01*
X31519819Y9400000D01*
X29819910Y9400000D01*
X29624304Y9595606D01*
X29573857Y9629313D01*
X29539214Y9643663D01*
X29539203Y9643666D01*
X29479709Y9655500D01*
X29479704Y9655500D01*
X27441946Y9655500D01*
X27433272Y9654165D01*
X27395189Y9648304D01*
X27367090Y9639446D01*
X27342044Y9629072D01*
X27294792Y9585775D01*
X27282696Y9574692D01*
X27262545Y9543063D01*
X27258813Y9533466D01*
X27240552Y9486514D01*
X27232794Y9442522D01*
X27226976Y9426534D01*
X27214545Y9405001D01*
X27214544Y9404999D01*
X27211658Y9400000D01*
X27202112Y9383467D01*
X27191173Y9370432D01*
X27153084Y9338472D01*
X27138348Y9329964D01*
X27091623Y9312956D01*
X27074863Y9310000D01*
X27025137Y9310000D01*
X27008378Y9312955D01*
X27008375Y9312956D01*
X26962867Y9329520D01*
X26961653Y9329962D01*
X26946915Y9338471D01*
X26908822Y9370435D01*
X26897884Y9383471D01*
X26885454Y9404999D01*
X26873025Y9426527D01*
X26867204Y9442519D01*
X26867190Y9442595D01*
X26859448Y9486511D01*
X26844238Y9531315D01*
X26830630Y9557454D01*
X26816069Y9580309D01*
X26816066Y9580311D01*
X26815904Y9580566D01*
X26809390Y9617499D01*
X26822581Y9641544D01*
X26823462Y9642426D01*
X26823465Y9642427D01*
X26907573Y9726535D01*
X26961574Y9832518D01*
X26980181Y9950000D01*
X26978935Y9957870D01*
X33884500Y9957870D01*
X33884500Y9822131D01*
X33919629Y9691029D01*
X33919631Y9691023D01*
X33985650Y9576676D01*
X33987498Y9573476D01*
X34083476Y9477498D01*
X34126500Y9452658D01*
X34201022Y9409632D01*
X34201028Y9409630D01*
X34332130Y9374500D01*
X34332133Y9374500D01*
X34467869Y9374500D01*
X34598971Y9409630D01*
X34598969Y9409630D01*
X34598975Y9409631D01*
X34716524Y9477498D01*
X34812502Y9573476D01*
X34880369Y9691025D01*
X34908562Y9796239D01*
X34915500Y9822131D01*
X34915500Y9957870D01*
X34880370Y10088972D01*
X34880368Y10088978D01*
X34831586Y10173469D01*
X34812502Y10206524D01*
X34716524Y10302502D01*
X34700811Y10311574D01*
X34598977Y10370369D01*
X34598971Y10370371D01*
X34467870Y10405500D01*
X34467867Y10405500D01*
X34332133Y10405500D01*
X34332130Y10405500D01*
X34201028Y10370371D01*
X34201022Y10370369D01*
X34083475Y10302502D01*
X34083475Y10302501D01*
X33987499Y10206525D01*
X33987498Y10206525D01*
X33919631Y10088978D01*
X33919629Y10088972D01*
X33884500Y9957870D01*
X26978935Y9957870D01*
X26961574Y10067482D01*
X26943573Y10102810D01*
X26907577Y10173459D01*
X26907572Y10173466D01*
X26823465Y10257573D01*
X26823458Y10257578D01*
X26717484Y10311573D01*
X26717483Y10311574D01*
X26717482Y10311574D01*
X26600000Y10330181D01*
X26482518Y10311574D01*
X26482516Y10311574D01*
X26482515Y10311573D01*
X26376541Y10257578D01*
X26376534Y10257573D01*
X26292430Y10173469D01*
X26290161Y10170345D01*
X26288549Y10171516D01*
X26265131Y10151524D01*
X26227744Y10154475D01*
X26211017Y10171202D01*
X26209839Y10170345D01*
X26207575Y10173460D01*
X26207573Y10173465D01*
X26123465Y10257573D01*
X26123458Y10257578D01*
X26017484Y10311573D01*
X26017483Y10311574D01*
X26017482Y10311574D01*
X25900000Y10330181D01*
X25782518Y10311574D01*
X25782516Y10311574D01*
X25782515Y10311573D01*
X25676540Y10257577D01*
X25676532Y10257571D01*
X25659645Y10240685D01*
X25624997Y10226335D01*
X25590351Y10240687D01*
X25523465Y10307573D01*
X25523458Y10307578D01*
X25417484Y10361573D01*
X25417483Y10361574D01*
X25417482Y10361574D01*
X25300000Y10380181D01*
X25182518Y10361574D01*
X25182516Y10361574D01*
X25182515Y10361573D01*
X25076541Y10307578D01*
X25076534Y10307573D01*
X24992427Y10223466D01*
X24992422Y10223459D01*
X24938427Y10117485D01*
X24938426Y10117484D01*
X24938426Y10117482D01*
X24919819Y10000000D01*
X24938426Y9882518D01*
X24938426Y9882517D01*
X24938427Y9882516D01*
X24992422Y9776542D01*
X24992427Y9776535D01*
X25029814Y9739148D01*
X25044166Y9704500D01*
X25029814Y9669852D01*
X24995166Y9655500D01*
X24704834Y9655500D01*
X24670186Y9669852D01*
X24655834Y9704500D01*
X24670186Y9739148D01*
X24680663Y9749625D01*
X24707573Y9776535D01*
X24761574Y9882518D01*
X24780181Y10000000D01*
X24761574Y10117482D01*
X24734639Y10170345D01*
X24707577Y10223459D01*
X24707572Y10223466D01*
X24623465Y10307573D01*
X24623458Y10307578D01*
X24517484Y10361573D01*
X24517483Y10361574D01*
X24517482Y10361574D01*
X24400000Y10380181D01*
X24282518Y10361574D01*
X24282516Y10361574D01*
X24282515Y10361573D01*
X24176541Y10307578D01*
X24176534Y10307573D01*
X24092427Y10223466D01*
X24092422Y10223459D01*
X24038427Y10117485D01*
X24038426Y10117484D01*
X24038426Y10117482D01*
X24019819Y10000000D01*
X24038426Y9882518D01*
X24038426Y9882517D01*
X24038427Y9882516D01*
X24092422Y9776542D01*
X24092427Y9776535D01*
X24129814Y9739148D01*
X24144166Y9704500D01*
X24129814Y9669852D01*
X24095166Y9655500D01*
X23604834Y9655500D01*
X23570186Y9669852D01*
X23555834Y9704500D01*
X23570186Y9739148D01*
X23580663Y9749625D01*
X23607573Y9776535D01*
X23661574Y9882518D01*
X23680181Y10000000D01*
X23661574Y10117482D01*
X23634639Y10170345D01*
X23607577Y10223459D01*
X23607572Y10223466D01*
X23523465Y10307573D01*
X23523458Y10307578D01*
X23417484Y10361573D01*
X23417483Y10361574D01*
X23417482Y10361574D01*
X23300000Y10380181D01*
X23182518Y10361574D01*
X23182516Y10361574D01*
X23182515Y10361573D01*
X23076541Y10307578D01*
X23076534Y10307573D01*
X22992427Y10223466D01*
X22992422Y10223459D01*
X22938427Y10117485D01*
X22938426Y10117484D01*
X22938426Y10117482D01*
X22919819Y10000000D01*
X22938426Y9882518D01*
X22938426Y9882517D01*
X22938427Y9882516D01*
X22992422Y9776542D01*
X22992427Y9776535D01*
X23029814Y9739148D01*
X23044166Y9704500D01*
X23029814Y9669852D01*
X22995166Y9655500D01*
X16265109Y9655500D01*
X16251594Y9654911D01*
X16243063Y9654165D01*
X16173065Y9630406D01*
X16173064Y9630405D01*
X16141433Y9610255D01*
X16110338Y9584164D01*
X16110337Y9584163D01*
X16073169Y9512766D01*
X16073168Y9512763D01*
X16065051Y9476155D01*
X16065050Y9476145D01*
X16064031Y9429538D01*
X16063299Y9422101D01*
X16052795Y9362523D01*
X16046974Y9346530D01*
X16022111Y9303468D01*
X16011173Y9290433D01*
X15973083Y9258471D01*
X15958345Y9249962D01*
X15911620Y9232955D01*
X15894863Y9230000D01*
X15845137Y9230000D01*
X15828378Y9232955D01*
X15781653Y9249962D01*
X15766915Y9258471D01*
X15728822Y9290435D01*
X15717884Y9303471D01*
X15714114Y9310000D01*
X15693024Y9346530D01*
X15687204Y9362519D01*
X15685808Y9370435D01*
X15678261Y9413234D01*
X15677940Y9428150D01*
X15678045Y9428946D01*
X15678789Y9437454D01*
X15667543Y9510508D01*
X15653191Y9545156D01*
X15636138Y9574692D01*
X15632896Y9580308D01*
X15625771Y9585775D01*
X15569036Y9629311D01*
X15569032Y9629313D01*
X15534386Y9643664D01*
X15534379Y9643666D01*
X15474885Y9655500D01*
X15474880Y9655500D01*
X12772232Y9655500D01*
X12772226Y9655500D01*
X12712732Y9643666D01*
X12712725Y9643664D01*
X12678074Y9629311D01*
X12642922Y9609016D01*
X12642921Y9609014D01*
X12628783Y9590591D01*
X12596304Y9571842D01*
X12560079Y9581551D01*
X12555263Y9585775D01*
X12523465Y9617573D01*
X12523458Y9617578D01*
X12417484Y9671573D01*
X12417483Y9671574D01*
X12417482Y9671574D01*
X12300000Y9690181D01*
X12182518Y9671574D01*
X12182516Y9671574D01*
X12182515Y9671573D01*
X12076541Y9617578D01*
X12076534Y9617573D01*
X11992427Y9533466D01*
X11992422Y9533459D01*
X11938427Y9427485D01*
X11938426Y9427484D01*
X11938426Y9427482D01*
X11919819Y9310000D01*
X11938426Y9192518D01*
X11938426Y9192517D01*
X11938427Y9192516D01*
X11992422Y9086542D01*
X11992427Y9086535D01*
X12076535Y9002427D01*
X12076538Y9002426D01*
X12079300Y9000419D01*
X12098896Y8968444D01*
X12099500Y8960776D01*
X12099500Y8783715D01*
X12085148Y8749067D01*
X12064542Y8738883D01*
X12065124Y8737175D01*
X11984364Y8709666D01*
X11984362Y8709665D01*
X11953202Y8688797D01*
X11953201Y8688796D01*
X11910353Y8645860D01*
X11910339Y8645843D01*
X11878850Y8598610D01*
X11878845Y8598600D01*
X11859403Y8557410D01*
X11859403Y8557409D01*
X11851173Y8530229D01*
X11844500Y8485165D01*
X11844500Y8485160D01*
X11844500Y7234834D01*
X11830148Y7200186D01*
X11795500Y7185834D01*
X11760852Y7200186D01*
X11753465Y7207573D01*
X11753458Y7207578D01*
X11647484Y7261573D01*
X11647483Y7261574D01*
X11647482Y7261574D01*
X11530000Y7280181D01*
X11412518Y7261574D01*
X11412516Y7261574D01*
X11412515Y7261573D01*
X11306541Y7207578D01*
X11306534Y7207573D01*
X11222427Y7123466D01*
X11222422Y7123459D01*
X11168427Y7017485D01*
X11168426Y7017484D01*
X11168426Y7017482D01*
X11149819Y6900000D01*
X11168426Y6782518D01*
X11168426Y6782517D01*
X11168427Y6782516D01*
X11222422Y6676542D01*
X11222427Y6676535D01*
X11306534Y6592428D01*
X11306541Y6592423D01*
X11375118Y6557482D01*
X11412518Y6538426D01*
X11455240Y6531660D01*
X11487215Y6512066D01*
X11495970Y6475599D01*
X11482221Y6448616D01*
X11179521Y6145915D01*
X11179520Y6145914D01*
X11126793Y6054590D01*
X11126792Y6054588D01*
X11099500Y5952731D01*
X11099500Y5747270D01*
X11126792Y5645413D01*
X11126793Y5645411D01*
X11179520Y5554087D01*
X11485148Y5248459D01*
X11499500Y5213811D01*
X11499500Y4099745D01*
X11485148Y4065097D01*
X11450500Y4050745D01*
X11428257Y4056085D01*
X11417485Y4061573D01*
X11417483Y4061574D01*
X11417482Y4061574D01*
X11300000Y4080181D01*
X11182518Y4061574D01*
X11182516Y4061574D01*
X11182515Y4061573D01*
X11076541Y4007578D01*
X11076534Y4007573D01*
X10992427Y3923466D01*
X10992422Y3923459D01*
X10942870Y3826206D01*
X10928141Y3813626D01*
X10933358Y3785484D01*
X10919819Y3700000D01*
X10932628Y3619121D01*
X10923872Y3582654D01*
X10891899Y3563060D01*
X10882518Y3561574D01*
X10882517Y3561574D01*
X10882513Y3561573D01*
X10882512Y3561573D01*
X10776541Y3507578D01*
X10776534Y3507573D01*
X10692427Y3423466D01*
X10690157Y3420341D01*
X10688894Y3421259D01*
X10664633Y3400545D01*
X10627246Y3403495D01*
X10602895Y3432017D01*
X10600500Y3447150D01*
X10600500Y3484523D01*
X10614852Y3519171D01*
X10690181Y3594500D01*
X10780469Y3684788D01*
X10826614Y3764712D01*
X10834321Y3793476D01*
X10837631Y3805832D01*
X10855825Y3829544D01*
X10852609Y3833309D01*
X10851017Y3850644D01*
X10850500Y3850644D01*
X10850500Y6846147D01*
X10850499Y6846148D01*
X10826614Y6935289D01*
X10824804Y6938423D01*
X10824802Y6938426D01*
X10780470Y7015212D01*
X10365212Y7430470D01*
X10285290Y7476614D01*
X10285286Y7476615D01*
X10283385Y7477124D01*
X10283381Y7477125D01*
X10196147Y7500500D01*
X10196144Y7500500D01*
X7953856Y7500500D01*
X7953853Y7500500D01*
X7866619Y7477125D01*
X7866615Y7477124D01*
X7864713Y7476615D01*
X7864709Y7476614D01*
X7784786Y7430469D01*
X7784786Y7430468D01*
X5919170Y5564852D01*
X5884522Y5550500D01*
X5648499Y5550500D01*
X5613851Y5564852D01*
X5599499Y5599500D01*
X5606975Y5622511D01*
X5605823Y5623098D01*
X5644240Y5698499D01*
X5661574Y5732518D01*
X5680181Y5850000D01*
X5661574Y5967482D01*
X5634907Y6019819D01*
X5607577Y6073459D01*
X5607572Y6073466D01*
X5523465Y6157573D01*
X5523458Y6157578D01*
X5417484Y6211573D01*
X5417483Y6211574D01*
X5417482Y6211574D01*
X5300000Y6230181D01*
X5182518Y6211574D01*
X5182516Y6211574D01*
X5182515Y6211573D01*
X5076541Y6157578D01*
X5076534Y6157573D01*
X4992427Y6073466D01*
X4992422Y6073459D01*
X4938427Y5967485D01*
X4938426Y5967484D01*
X4938426Y5967482D01*
X4919819Y5850000D01*
X4938426Y5732518D01*
X4938426Y5732517D01*
X4938427Y5732516D01*
X4994177Y5623098D01*
X4992586Y5622288D01*
X4999898Y5591834D01*
X4980302Y5559858D01*
X4951501Y5550500D01*
X4699225Y5550500D01*
X4664577Y5564852D01*
X4659585Y5570696D01*
X4657572Y5573466D01*
X4573465Y5657573D01*
X4573458Y5657578D01*
X4467484Y5711573D01*
X4467483Y5711574D01*
X4467482Y5711574D01*
X4350000Y5730181D01*
X4232518Y5711574D01*
X4232516Y5711574D01*
X4232515Y5711573D01*
X4123098Y5655823D01*
X4122287Y5657414D01*
X4091834Y5650102D01*
X4059858Y5669698D01*
X4050500Y5698499D01*
X4050500Y7250000D01*
X4919819Y7250000D01*
X4938426Y7132518D01*
X4938426Y7132517D01*
X4938427Y7132516D01*
X4992422Y7026542D01*
X4992427Y7026535D01*
X5076534Y6942428D01*
X5076541Y6942423D01*
X5147190Y6906427D01*
X5182518Y6888426D01*
X5300000Y6869819D01*
X5417482Y6888426D01*
X5499816Y6930377D01*
X5523458Y6942423D01*
X5523460Y6942425D01*
X5523465Y6942427D01*
X5607573Y7026535D01*
X5610717Y7032704D01*
X5638167Y7086579D01*
X5661574Y7132518D01*
X5680181Y7250000D01*
X5661574Y7367482D01*
X5629480Y7430470D01*
X5607577Y7473459D01*
X5607572Y7473466D01*
X5523465Y7557573D01*
X5523458Y7557578D01*
X5417484Y7611573D01*
X5417483Y7611574D01*
X5417482Y7611574D01*
X5300000Y7630181D01*
X5182518Y7611574D01*
X5182516Y7611574D01*
X5182515Y7611573D01*
X5076541Y7557578D01*
X5076534Y7557573D01*
X4992427Y7473466D01*
X4992422Y7473459D01*
X4938427Y7367485D01*
X4938426Y7367484D01*
X4938426Y7367482D01*
X4919819Y7250000D01*
X4050500Y7250000D01*
X4050500Y8500000D01*
X4919819Y8500000D01*
X4938426Y8382518D01*
X4938426Y8382517D01*
X4938427Y8382516D01*
X4992422Y8276542D01*
X4992427Y8276535D01*
X5076534Y8192428D01*
X5076541Y8192423D01*
X5147190Y8156427D01*
X5182518Y8138426D01*
X5300000Y8119819D01*
X5417482Y8138426D01*
X5505888Y8183471D01*
X5523458Y8192423D01*
X5523460Y8192425D01*
X5523465Y8192427D01*
X5607573Y8276535D01*
X5610621Y8282516D01*
X5631765Y8324014D01*
X5661574Y8382518D01*
X5672262Y8450000D01*
X9819819Y8450000D01*
X9838426Y8332518D01*
X9838426Y8332517D01*
X9838427Y8332516D01*
X9892422Y8226542D01*
X9892427Y8226535D01*
X9976534Y8142428D01*
X9976541Y8142423D01*
X10042012Y8109065D01*
X10082518Y8088426D01*
X10200000Y8069819D01*
X10317482Y8088426D01*
X10412192Y8136683D01*
X10423458Y8142423D01*
X10423460Y8142425D01*
X10423465Y8142427D01*
X10507573Y8226535D01*
X10561574Y8332518D01*
X10580181Y8450000D01*
X10561574Y8567482D01*
X10536096Y8617485D01*
X10507577Y8673459D01*
X10507572Y8673466D01*
X10423465Y8757573D01*
X10423458Y8757578D01*
X10317484Y8811573D01*
X10317483Y8811574D01*
X10317482Y8811574D01*
X10200000Y8830181D01*
X10082518Y8811574D01*
X10082516Y8811574D01*
X10082515Y8811573D01*
X9976541Y8757578D01*
X9976534Y8757573D01*
X9892427Y8673466D01*
X9892422Y8673459D01*
X9838427Y8567485D01*
X9838426Y8567484D01*
X9838426Y8567482D01*
X9819819Y8450000D01*
X5672262Y8450000D01*
X5680181Y8500000D01*
X5661574Y8617482D01*
X5635388Y8668875D01*
X5607577Y8723459D01*
X5607572Y8723466D01*
X5523465Y8807573D01*
X5523458Y8807578D01*
X5417484Y8861573D01*
X5417483Y8861574D01*
X5417482Y8861574D01*
X5300000Y8880181D01*
X5182518Y8861574D01*
X5182516Y8861574D01*
X5182515Y8861573D01*
X5076541Y8807578D01*
X5076534Y8807573D01*
X4992427Y8723466D01*
X4992422Y8723459D01*
X4938427Y8617485D01*
X4938426Y8617484D01*
X4938426Y8617482D01*
X4919819Y8500000D01*
X4050500Y8500000D01*
X4050500Y10449826D01*
X4050499Y10449830D01*
X4043002Y10467929D01*
X4012364Y10541897D01*
X4012362Y10541899D01*
X4012362Y10541900D01*
X3941897Y10612364D01*
X3491899Y11062363D01*
X3399829Y11100500D01*
X3399828Y11100500D01*
X2855537Y11100500D01*
X2855529Y11100501D01*
X2849828Y11100501D01*
X2750173Y11100501D01*
X2750171Y11100501D01*
X2696240Y11078161D01*
X2658101Y11062364D01*
X2658100Y11062363D01*
X2599826Y11004087D01*
X2587636Y10991897D01*
X2587635Y10991896D01*
X2521222Y10925483D01*
X2451211Y10855473D01*
X2387637Y10791899D01*
X2387636Y10791898D01*
X2387636Y10791897D01*
X2381093Y10776102D01*
X2349500Y10699830D01*
X2349500Y10300834D01*
X2335148Y10266186D01*
X2292427Y10223466D01*
X2292422Y10223459D01*
X2238427Y10117485D01*
X2238426Y10117484D01*
X2238426Y10117482D01*
X2219819Y10000000D01*
X2238426Y9882518D01*
X2238426Y9882517D01*
X2238427Y9882516D01*
X2292422Y9776542D01*
X2292427Y9776535D01*
X2376534Y9692428D01*
X2376541Y9692423D01*
X2439197Y9660499D01*
X2482518Y9638426D01*
X2518448Y9632736D01*
X2550423Y9613142D01*
X2559179Y9576676D01*
X2545430Y9549692D01*
X610591Y7614852D01*
X575943Y7600500D01*
X400170Y7600500D01*
X395440Y7599559D01*
X395209Y7600719D01*
X363191Y7600727D01*
X359182Y7602605D01*
X250226Y7659790D01*
X237771Y7662860D01*
X207566Y7685088D01*
X200500Y7710436D01*
X200500Y7789566D01*
X214852Y7824214D01*
X237774Y7837142D01*
X250225Y7840210D01*
X400852Y7919266D01*
X528183Y8032071D01*
X624818Y8172070D01*
X685140Y8331128D01*
X705645Y8500000D01*
X685140Y8668872D01*
X624818Y8827930D01*
X623264Y8830181D01*
X528183Y8967929D01*
X491509Y9000419D01*
X400852Y9080734D01*
X400844Y9080738D01*
X400843Y9080739D01*
X250226Y9159790D01*
X237771Y9162860D01*
X207566Y9185088D01*
X200500Y9210436D01*
X200500Y9289566D01*
X214852Y9324214D01*
X237774Y9337142D01*
X250225Y9340210D01*
X400852Y9419266D01*
X528183Y9532071D01*
X624818Y9672070D01*
X685140Y9831128D01*
X705645Y10000000D01*
X685140Y10168872D01*
X624818Y10327930D01*
X623264Y10330181D01*
X528183Y10467929D01*
X464265Y10524555D01*
X400852Y10580734D01*
X400844Y10580738D01*
X400843Y10580739D01*
X250226Y10659790D01*
X237771Y10662860D01*
X207566Y10685088D01*
X200500Y10710436D01*
X200500Y10789566D01*
X214852Y10824214D01*
X237774Y10837142D01*
X250225Y10840210D01*
X400852Y10919266D01*
X528183Y11032071D01*
X624818Y11172070D01*
X654961Y11251551D01*
X6454200Y11251551D01*
X6454200Y11116455D01*
X6480552Y10983970D01*
X6480555Y10983959D01*
X6532251Y10859153D01*
X6607302Y10746831D01*
X6702830Y10651303D01*
X6808437Y10580739D01*
X6815152Y10576252D01*
X6939960Y10524555D01*
X6939966Y10524554D01*
X6939969Y10524553D01*
X7072449Y10498201D01*
X7072452Y10498201D01*
X7072455Y10498200D01*
X7072456Y10498200D01*
X7207544Y10498200D01*
X7207545Y10498200D01*
X7340040Y10524555D01*
X7464848Y10576252D01*
X7577172Y10651305D01*
X7672695Y10746828D01*
X7747748Y10859152D01*
X7799445Y10983960D01*
X7825800Y11116455D01*
X7825800Y11251545D01*
X7816475Y11298426D01*
X7799447Y11384031D01*
X7799444Y11384042D01*
X7747748Y11508848D01*
X7672697Y11621170D01*
X7577169Y11716698D01*
X7464847Y11791749D01*
X7340041Y11843445D01*
X7340030Y11843448D01*
X7207550Y11869800D01*
X7207545Y11869800D01*
X7072455Y11869800D01*
X7072449Y11869800D01*
X6939969Y11843448D01*
X6939958Y11843445D01*
X6815152Y11791749D01*
X6702830Y11716698D01*
X6607302Y11621170D01*
X6532251Y11508848D01*
X6480555Y11384042D01*
X6480552Y11384031D01*
X6454200Y11251551D01*
X654961Y11251551D01*
X685140Y11331128D01*
X705645Y11500000D01*
X685140Y11668872D01*
X624818Y11827930D01*
X614811Y11842427D01*
X528183Y11967929D01*
X467631Y12021573D01*
X400852Y12080734D01*
X400844Y12080738D01*
X400843Y12080739D01*
X250226Y12159790D01*
X237771Y12162860D01*
X207566Y12185088D01*
X200500Y12210436D01*
X200500Y12267551D01*
X1374200Y12267551D01*
X1374200Y12132450D01*
X1400552Y11999970D01*
X1400555Y11999959D01*
X1452251Y11875153D01*
X1527302Y11762831D01*
X1622830Y11667303D01*
X1691870Y11621172D01*
X1735152Y11592252D01*
X1859960Y11540555D01*
X1859966Y11540554D01*
X1859969Y11540553D01*
X1992449Y11514201D01*
X1992452Y11514201D01*
X1992455Y11514200D01*
X1992456Y11514200D01*
X2127544Y11514200D01*
X2127545Y11514200D01*
X2260040Y11540555D01*
X2384848Y11592252D01*
X2497172Y11667305D01*
X2592695Y11762828D01*
X2667748Y11875152D01*
X2719445Y11999960D01*
X2745800Y12132455D01*
X2745800Y12200000D01*
X3519819Y12200000D01*
X3538426Y12082518D01*
X3538426Y12082517D01*
X3538427Y12082516D01*
X3592422Y11976542D01*
X3592427Y11976535D01*
X3676534Y11892428D01*
X3676541Y11892423D01*
X3747190Y11856427D01*
X3782518Y11838426D01*
X3900000Y11819819D01*
X4017482Y11838426D01*
X4090988Y11875880D01*
X4123458Y11892423D01*
X4123460Y11892425D01*
X4123465Y11892427D01*
X4207573Y11976535D01*
X4261574Y12082518D01*
X4280181Y12200000D01*
X4261574Y12317482D01*
X4237438Y12364852D01*
X4207577Y12423459D01*
X4207572Y12423466D01*
X4123465Y12507573D01*
X4123458Y12507578D01*
X4017484Y12561573D01*
X4017483Y12561574D01*
X4017482Y12561574D01*
X3900000Y12580181D01*
X3782518Y12561574D01*
X3782516Y12561574D01*
X3782515Y12561573D01*
X3676541Y12507578D01*
X3676534Y12507573D01*
X3592427Y12423466D01*
X3592422Y12423459D01*
X3538427Y12317485D01*
X3538426Y12317484D01*
X3538426Y12317482D01*
X3519819Y12200000D01*
X2745800Y12200000D01*
X2745800Y12267545D01*
X2741804Y12287636D01*
X2719447Y12400031D01*
X2719444Y12400042D01*
X2709744Y12423459D01*
X2667748Y12524848D01*
X2643209Y12561573D01*
X2592697Y12637170D01*
X2497169Y12732698D01*
X2384847Y12807749D01*
X2260041Y12859445D01*
X2260030Y12859448D01*
X2127550Y12885800D01*
X2127545Y12885800D01*
X1992455Y12885800D01*
X1992449Y12885800D01*
X1859969Y12859448D01*
X1859958Y12859445D01*
X1735152Y12807749D01*
X1622830Y12732698D01*
X1527302Y12637170D01*
X1452251Y12524848D01*
X1400555Y12400042D01*
X1400552Y12400031D01*
X1374200Y12267551D01*
X200500Y12267551D01*
X200500Y12289566D01*
X214852Y12324214D01*
X237774Y12337142D01*
X250225Y12340210D01*
X400852Y12419266D01*
X528183Y12532071D01*
X624818Y12672070D01*
X685140Y12831128D01*
X705645Y13000000D01*
X685140Y13168872D01*
X635410Y13300000D01*
X3419819Y13300000D01*
X3438426Y13182518D01*
X3438426Y13182517D01*
X3438427Y13182516D01*
X3492422Y13076542D01*
X3492427Y13076535D01*
X3576534Y12992428D01*
X3576541Y12992423D01*
X3647190Y12956427D01*
X3682518Y12938426D01*
X3800000Y12919819D01*
X3917482Y12938426D01*
X3994136Y12977483D01*
X4023458Y12992423D01*
X4023460Y12992425D01*
X4023465Y12992427D01*
X4107573Y13076535D01*
X4116554Y13094160D01*
X4129628Y13119820D01*
X4161574Y13182518D01*
X4180181Y13300000D01*
X4161574Y13417482D01*
X4135870Y13467929D01*
X4107577Y13523459D01*
X4107572Y13523466D01*
X4023465Y13607573D01*
X4023458Y13607578D01*
X3917484Y13661573D01*
X3917483Y13661574D01*
X3917482Y13661574D01*
X3800000Y13680181D01*
X3682518Y13661574D01*
X3682516Y13661574D01*
X3682515Y13661573D01*
X3576541Y13607578D01*
X3576534Y13607573D01*
X3492427Y13523466D01*
X3492422Y13523459D01*
X3438427Y13417485D01*
X3438426Y13417484D01*
X3438426Y13417482D01*
X3419819Y13300000D01*
X635410Y13300000D01*
X624818Y13327930D01*
X609929Y13349500D01*
X528183Y13467929D01*
X465502Y13523459D01*
X420422Y13563397D01*
X404005Y13597113D01*
X416239Y13632565D01*
X418248Y13634700D01*
X568698Y13785148D01*
X603346Y13799500D01*
X6635337Y13799500D01*
X6669985Y13785148D01*
G37*
%TD.AperFunction*%
%TA.AperFunction,Conductor*%
G36*
X18641621Y2287046D02*
G01*
X18677823Y2273869D01*
X18688344Y2270040D01*
X18703082Y2261532D01*
X18707794Y2257578D01*
X18741175Y2229567D01*
X18752113Y2216531D01*
X18776973Y2173473D01*
X18782794Y2157482D01*
X18791429Y2108510D01*
X18791429Y2091493D01*
X18782795Y2042523D01*
X18776974Y2026530D01*
X18752111Y1983468D01*
X18741173Y1970433D01*
X18703083Y1938471D01*
X18688346Y1929962D01*
X18677223Y1925914D01*
X18641620Y1912955D01*
X18624863Y1910000D01*
X18575137Y1910000D01*
X18558378Y1912955D01*
X18551446Y1915478D01*
X18511653Y1929962D01*
X18496915Y1938471D01*
X18458822Y1970435D01*
X18447884Y1983471D01*
X18444044Y1990122D01*
X18423023Y2026531D01*
X18417204Y2042518D01*
X18408569Y2091494D01*
X18408569Y2108509D01*
X18411206Y2123466D01*
X18417204Y2157487D01*
X18423021Y2173468D01*
X18447887Y2216537D01*
X18458822Y2229566D01*
X18496911Y2261528D01*
X18511646Y2270037D01*
X18535015Y2278541D01*
X18535016Y2278542D01*
X18546013Y2282545D01*
X18558379Y2287045D01*
X18575137Y2290000D01*
X18624863Y2290000D01*
X18641621Y2287046D01*
G37*
%TD.AperFunction*%
%TA.AperFunction,Conductor*%
G36*
X26841621Y2487045D02*
G01*
X26859942Y2480377D01*
X26888345Y2470040D01*
X26903082Y2461532D01*
X26922129Y2445549D01*
X26941175Y2429567D01*
X26952112Y2416533D01*
X26976974Y2373470D01*
X26982794Y2357482D01*
X26991429Y2308508D01*
X26991429Y2291492D01*
X26982795Y2242523D01*
X26976974Y2226530D01*
X26952111Y2183468D01*
X26941173Y2170433D01*
X26903083Y2138471D01*
X26888345Y2129962D01*
X26841620Y2112955D01*
X26824863Y2110000D01*
X26775137Y2110000D01*
X26758378Y2112955D01*
X26711653Y2129962D01*
X26696915Y2138471D01*
X26658822Y2170435D01*
X26647884Y2183471D01*
X26638439Y2199830D01*
X26623023Y2226531D01*
X26617204Y2242518D01*
X26608569Y2291494D01*
X26608569Y2308509D01*
X26609109Y2311573D01*
X26617204Y2357487D01*
X26623021Y2373468D01*
X26647887Y2416537D01*
X26658822Y2429566D01*
X26696911Y2461528D01*
X26711646Y2470037D01*
X26735015Y2478541D01*
X26735016Y2478542D01*
X26748550Y2483468D01*
X26758379Y2487045D01*
X26775137Y2490000D01*
X26824863Y2490000D01*
X26841621Y2487045D01*
G37*
%TD.AperFunction*%
%TA.AperFunction,Conductor*%
G36*
X17241621Y2787045D02*
G01*
X17268794Y2777156D01*
X17288345Y2770040D01*
X17303082Y2761532D01*
X17322129Y2745549D01*
X17341176Y2729567D01*
X17352115Y2716530D01*
X17376973Y2673473D01*
X17382792Y2657483D01*
X17391428Y2608509D01*
X17391429Y2591492D01*
X17382795Y2542523D01*
X17376974Y2526530D01*
X17352111Y2483468D01*
X17341173Y2470433D01*
X17303083Y2438471D01*
X17288345Y2429962D01*
X17241620Y2412955D01*
X17224863Y2410000D01*
X17175137Y2410000D01*
X17158378Y2412955D01*
X17111653Y2429962D01*
X17096915Y2438471D01*
X17058822Y2470435D01*
X17047884Y2483471D01*
X17045821Y2487045D01*
X17023023Y2526531D01*
X17017204Y2542518D01*
X17008569Y2591494D01*
X17008569Y2608509D01*
X17017204Y2657487D01*
X17023021Y2673468D01*
X17047887Y2716537D01*
X17058821Y2729566D01*
X17096914Y2761532D01*
X17111645Y2770037D01*
X17158383Y2787047D01*
X17175138Y2790000D01*
X17224863Y2790000D01*
X17241621Y2787045D01*
G37*
%TD.AperFunction*%
%TA.AperFunction,Conductor*%
G36*
X28841622Y3087045D02*
G01*
X28877424Y3074014D01*
X28877823Y3073869D01*
X28888344Y3070040D01*
X28903082Y3061532D01*
X28920897Y3046583D01*
X28941175Y3029567D01*
X28952112Y3016533D01*
X28976974Y2973470D01*
X28982794Y2957482D01*
X28991429Y2908508D01*
X28991429Y2891492D01*
X28982795Y2842523D01*
X28976974Y2826530D01*
X28952111Y2783468D01*
X28941173Y2770433D01*
X28903083Y2738471D01*
X28888345Y2729962D01*
X28841620Y2712955D01*
X28824863Y2710000D01*
X28775137Y2710000D01*
X28758378Y2712955D01*
X28711653Y2729962D01*
X28696915Y2738471D01*
X28658822Y2770435D01*
X28647884Y2783471D01*
X28644997Y2788471D01*
X28623023Y2826531D01*
X28617204Y2842518D01*
X28608569Y2891494D01*
X28608569Y2908509D01*
X28609799Y2915487D01*
X28617204Y2957487D01*
X28623021Y2973468D01*
X28647887Y3016537D01*
X28658822Y3029566D01*
X28696911Y3061528D01*
X28711646Y3070037D01*
X28737337Y3079386D01*
X28737338Y3079387D01*
X28747454Y3083070D01*
X28758379Y3087045D01*
X28775137Y3090000D01*
X28824863Y3090000D01*
X28841622Y3087045D01*
G37*
%TD.AperFunction*%
%TA.AperFunction,Conductor*%
G36*
X15164877Y3188234D02*
G01*
X15172660Y3182262D01*
X15193606Y3166189D01*
X15228254Y3151837D01*
X15274695Y3142600D01*
X15281894Y3140587D01*
X15338347Y3120039D01*
X15353082Y3111532D01*
X15356684Y3108509D01*
X15391176Y3079567D01*
X15402114Y3066531D01*
X15426976Y3023469D01*
X15432796Y3007477D01*
X15433536Y3003284D01*
X15434115Y3000001D01*
X15438876Y2973000D01*
X15438875Y2973000D01*
X15438876Y2972999D01*
X15441430Y2958511D01*
X15441430Y2941495D01*
X15432795Y2892522D01*
X15426974Y2876530D01*
X15402111Y2833468D01*
X15391173Y2820433D01*
X15353083Y2788471D01*
X15338345Y2779962D01*
X15291620Y2762955D01*
X15274863Y2760000D01*
X15225137Y2760000D01*
X15208378Y2762955D01*
X15187827Y2770435D01*
X15185015Y2771459D01*
X15161653Y2779962D01*
X15146915Y2788471D01*
X15108822Y2820435D01*
X15097884Y2833470D01*
X15073021Y2876536D01*
X15067202Y2892524D01*
X15065884Y2900001D01*
X15057378Y2948238D01*
X15042171Y2993036D01*
X15028564Y3019175D01*
X15014001Y3042035D01*
X15014000Y3042036D01*
X15013503Y3042816D01*
X15006992Y3079749D01*
X15020180Y3103789D01*
X15100400Y3184009D01*
X15135047Y3198360D01*
X15164877Y3188234D01*
G37*
%TD.AperFunction*%
%TA.AperFunction,Conductor*%
G36*
X25241621Y3287045D02*
G01*
X25264984Y3278542D01*
X25288343Y3270041D01*
X25303080Y3261533D01*
X25341173Y3229568D01*
X25341176Y3229566D01*
X25352114Y3216530D01*
X25361658Y3200000D01*
X25376971Y3173476D01*
X25376973Y3173474D01*
X25382793Y3157484D01*
X25384376Y3148509D01*
X25391430Y3108507D01*
X25391429Y3091488D01*
X25382794Y3042522D01*
X25376975Y3026533D01*
X25352115Y2983472D01*
X25341176Y2970435D01*
X25303083Y2938471D01*
X25288345Y2929962D01*
X25241620Y2912955D01*
X25224863Y2910000D01*
X25175137Y2910000D01*
X25158378Y2912955D01*
X25111653Y2929962D01*
X25096916Y2938471D01*
X25020241Y3002808D01*
X25018401Y3003279D01*
X25014356Y3005975D01*
X25010047Y3009204D01*
X25006362Y3012295D01*
X25006358Y3012297D01*
X25005139Y3013320D01*
X24987817Y3046583D01*
X24990961Y3068619D01*
X25010307Y3118364D01*
X25015622Y3148506D01*
X25015623Y3148509D01*
X25017205Y3157486D01*
X25023025Y3173474D01*
X25047887Y3216537D01*
X25058817Y3229563D01*
X25096914Y3261532D01*
X25111646Y3270037D01*
X25135015Y3278541D01*
X25135016Y3278542D01*
X25151427Y3284515D01*
X25158379Y3287045D01*
X25175137Y3290000D01*
X25224863Y3290000D01*
X25241621Y3287045D01*
G37*
%TD.AperFunction*%
%TA.AperFunction,Conductor*%
G36*
X31627398Y3508239D02*
G01*
X31637106Y3484804D01*
X31640278Y3460708D01*
X31652733Y3424014D01*
X31659782Y3403250D01*
X31676973Y3373475D01*
X31682794Y3357483D01*
X31691429Y3308508D01*
X31691429Y3291492D01*
X31682795Y3242523D01*
X31676974Y3226530D01*
X31652111Y3183468D01*
X31641173Y3170433D01*
X31603083Y3138471D01*
X31588345Y3129962D01*
X31541620Y3112955D01*
X31524863Y3110000D01*
X31475137Y3110000D01*
X31458378Y3112955D01*
X31411653Y3129962D01*
X31396915Y3138471D01*
X31358822Y3170435D01*
X31347884Y3183471D01*
X31345134Y3188234D01*
X31323023Y3226531D01*
X31317204Y3242518D01*
X31308569Y3291494D01*
X31308569Y3308509D01*
X31311338Y3324214D01*
X31317204Y3357487D01*
X31323021Y3373468D01*
X31347887Y3416537D01*
X31358821Y3429566D01*
X31361742Y3432017D01*
X31396914Y3461532D01*
X31411644Y3470037D01*
X31463382Y3488867D01*
X31473726Y3491398D01*
X31503364Y3495299D01*
X31527864Y3501864D01*
X31547124Y3508402D01*
X31558695Y3517282D01*
X31594919Y3526989D01*
X31627398Y3508239D01*
G37*
%TD.AperFunction*%
%TA.AperFunction,Conductor*%
G36*
X17141621Y3687045D02*
G01*
X17162662Y3679387D01*
X17188345Y3670040D01*
X17203082Y3661532D01*
X17208535Y3656956D01*
X17241175Y3629567D01*
X17252112Y3616533D01*
X17276974Y3573470D01*
X17282794Y3557482D01*
X17291429Y3508508D01*
X17291429Y3491492D01*
X17282795Y3442523D01*
X17276974Y3426530D01*
X17252111Y3383468D01*
X17241173Y3370433D01*
X17203083Y3338471D01*
X17188345Y3329962D01*
X17141620Y3312955D01*
X17124863Y3310000D01*
X17075137Y3310000D01*
X17058378Y3312955D01*
X17011653Y3329962D01*
X16996915Y3338471D01*
X16958822Y3370435D01*
X16947884Y3383471D01*
X16938026Y3400545D01*
X16923023Y3426531D01*
X16917204Y3442518D01*
X16908569Y3491494D01*
X16908569Y3508509D01*
X16912723Y3532071D01*
X16917204Y3557487D01*
X16923021Y3573468D01*
X16947887Y3616537D01*
X16958822Y3629566D01*
X16996911Y3661528D01*
X17011646Y3670037D01*
X17037337Y3679386D01*
X17037338Y3679387D01*
X17052177Y3684788D01*
X17058379Y3687045D01*
X17075137Y3690000D01*
X17124863Y3690000D01*
X17141621Y3687045D01*
G37*
%TD.AperFunction*%
%TA.AperFunction,Conductor*%
G36*
X13341622Y3987045D02*
G01*
X13377820Y3973870D01*
X13379380Y3973303D01*
X13388344Y3970040D01*
X13403083Y3961531D01*
X13441175Y3929567D01*
X13452112Y3916533D01*
X13476974Y3873470D01*
X13482793Y3857484D01*
X13484000Y3850644D01*
X13491429Y3808510D01*
X13491428Y3791492D01*
X13482792Y3742519D01*
X13477002Y3726579D01*
X13476717Y3726084D01*
X13476702Y3726093D01*
X13476686Y3726030D01*
X13452110Y3683467D01*
X13441173Y3670433D01*
X13403083Y3638471D01*
X13388346Y3629962D01*
X13387437Y3629631D01*
X13341620Y3612955D01*
X13324863Y3610000D01*
X13275137Y3610000D01*
X13258378Y3612955D01*
X13211653Y3629962D01*
X13196915Y3638471D01*
X13158822Y3670435D01*
X13147884Y3683471D01*
X13145821Y3687045D01*
X13123023Y3726531D01*
X13117204Y3742519D01*
X13108569Y3791494D01*
X13108569Y3808509D01*
X13111746Y3826529D01*
X13117204Y3857487D01*
X13123021Y3873468D01*
X13147887Y3916537D01*
X13158821Y3929566D01*
X13196914Y3961532D01*
X13211647Y3970037D01*
X13242788Y3981370D01*
X13242789Y3981371D01*
X13258381Y3987047D01*
X13275137Y3990000D01*
X13324863Y3990000D01*
X13341622Y3987045D01*
G37*
%TD.AperFunction*%
%TA.AperFunction,Conductor*%
G36*
X18441621Y4187045D02*
G01*
X18459022Y4180712D01*
X18488343Y4170041D01*
X18503079Y4161533D01*
X18503084Y4161529D01*
X18541176Y4129566D01*
X18552114Y4116530D01*
X18557074Y4107939D01*
X18575378Y4076235D01*
X18576973Y4073474D01*
X18582794Y4057483D01*
X18591429Y4008510D01*
X18591429Y3991493D01*
X18582795Y3942522D01*
X18576974Y3926530D01*
X18561658Y3900002D01*
X18561656Y3899999D01*
X18552109Y3883466D01*
X18541173Y3870433D01*
X18503083Y3838471D01*
X18488345Y3829962D01*
X18441620Y3812955D01*
X18424863Y3810000D01*
X18375137Y3810000D01*
X18358378Y3812955D01*
X18356534Y3813626D01*
X18311653Y3829962D01*
X18296915Y3838471D01*
X18258822Y3870435D01*
X18247884Y3883471D01*
X18223023Y3926531D01*
X18217204Y3942518D01*
X18208569Y3991494D01*
X18208569Y4008509D01*
X18208888Y4010316D01*
X18217204Y4057487D01*
X18223021Y4073468D01*
X18247887Y4116537D01*
X18258821Y4129566D01*
X18296914Y4161532D01*
X18311647Y4170037D01*
X18335938Y4178877D01*
X18335939Y4178878D01*
X18340979Y4180712D01*
X18340983Y4180714D01*
X18358379Y4187045D01*
X18375137Y4190000D01*
X18424863Y4190000D01*
X18441621Y4187045D01*
G37*
%TD.AperFunction*%
%TA.AperFunction,Conductor*%
G36*
X22391672Y4615627D02*
G01*
X22405605Y4587375D01*
X22410331Y4551473D01*
X22416582Y4536383D01*
X22416582Y4536338D01*
X22423445Y4519806D01*
X22423469Y4519199D01*
X22423828Y4518495D01*
X22425435Y4515008D01*
X22429577Y4505008D01*
X22431700Y4503046D01*
X22467422Y4432934D01*
X22476647Y4414829D01*
X22481385Y4400248D01*
X22492088Y4332666D01*
X22492088Y4317336D01*
X22481385Y4249754D01*
X22476648Y4235176D01*
X22467576Y4217369D01*
X22467576Y4217368D01*
X22466928Y4216096D01*
X22466926Y4216093D01*
X22448901Y4180714D01*
X22445700Y4174432D01*
X22445627Y4174289D01*
X22445514Y4174069D01*
X22436575Y4161809D01*
X22362440Y4087675D01*
X22362285Y4087481D01*
X22320025Y4020508D01*
X22320023Y4020502D01*
X22316811Y4010316D01*
X22292703Y3981589D01*
X22277744Y3976657D01*
X22257865Y3973509D01*
X22221399Y3982265D01*
X22205974Y4000813D01*
X22201517Y4010157D01*
X22177161Y4038674D01*
X22129515Y4076235D01*
X22074206Y4104417D01*
X22061804Y4113428D01*
X22013423Y4161809D01*
X22004412Y4174212D01*
X21973351Y4235173D01*
X21968614Y4249748D01*
X21957909Y4317342D01*
X21957909Y4332659D01*
X21968614Y4400256D01*
X21973352Y4414833D01*
X21977748Y4423459D01*
X22018297Y4503043D01*
X22020418Y4505003D01*
X22024396Y4514605D01*
X22024406Y4514626D01*
X22024537Y4514943D01*
X22026181Y4518516D01*
X22026519Y4519181D01*
X22026543Y4519787D01*
X22027668Y4522501D01*
X22039667Y4551468D01*
X22050175Y4590683D01*
X22050174Y4590684D01*
X22050973Y4593661D01*
X22073803Y4623414D01*
X22098303Y4629979D01*
X22357024Y4629979D01*
X22391672Y4615627D01*
G37*
%TD.AperFunction*%
%TA.AperFunction,Conductor*%
G36*
X23666672Y4615627D02*
G01*
X23680605Y4587375D01*
X23685331Y4551473D01*
X23691582Y4536383D01*
X23691582Y4536338D01*
X23698445Y4519806D01*
X23698469Y4519199D01*
X23698828Y4518495D01*
X23700435Y4515008D01*
X23704577Y4505008D01*
X23706700Y4503046D01*
X23742422Y4432934D01*
X23751647Y4414829D01*
X23756385Y4400248D01*
X23767088Y4332666D01*
X23767088Y4317336D01*
X23756385Y4249754D01*
X23751648Y4235176D01*
X23742576Y4217369D01*
X23742576Y4217368D01*
X23741928Y4216096D01*
X23741926Y4216093D01*
X23723901Y4180714D01*
X23720700Y4174432D01*
X23720627Y4174289D01*
X23720514Y4174069D01*
X23711575Y4161809D01*
X23663193Y4113427D01*
X23650795Y4104418D01*
X23643284Y4100590D01*
X23643281Y4100588D01*
X23642005Y4099938D01*
X23641964Y4099919D01*
X23589828Y4073354D01*
X23575248Y4068616D01*
X23507665Y4057912D01*
X23492335Y4057912D01*
X23424753Y4068615D01*
X23410174Y4073352D01*
X23377576Y4089961D01*
X23377572Y4089963D01*
X23349209Y4104414D01*
X23336808Y4113424D01*
X23288423Y4161809D01*
X23279412Y4174212D01*
X23248351Y4235173D01*
X23243614Y4249748D01*
X23232909Y4317342D01*
X23232909Y4332659D01*
X23243614Y4400256D01*
X23248352Y4414833D01*
X23252748Y4423459D01*
X23293297Y4503043D01*
X23295418Y4505003D01*
X23299396Y4514605D01*
X23299406Y4514626D01*
X23299537Y4514943D01*
X23301181Y4518516D01*
X23301519Y4519181D01*
X23301543Y4519787D01*
X23302668Y4522501D01*
X23314667Y4551468D01*
X23325175Y4590683D01*
X23325174Y4590684D01*
X23325973Y4593661D01*
X23348803Y4623414D01*
X23373303Y4629979D01*
X23632024Y4629979D01*
X23666672Y4615627D01*
G37*
%TD.AperFunction*%
%TA.AperFunction,Conductor*%
G36*
X24941672Y4615627D02*
G01*
X24955605Y4587375D01*
X24960331Y4551473D01*
X24966582Y4536383D01*
X24966582Y4536338D01*
X24973445Y4519806D01*
X24973469Y4519199D01*
X24973828Y4518495D01*
X24975435Y4515008D01*
X24979577Y4505008D01*
X24981700Y4503046D01*
X25017422Y4432934D01*
X25026647Y4414829D01*
X25031385Y4400248D01*
X25042088Y4332666D01*
X25042088Y4317336D01*
X25031385Y4249754D01*
X25026648Y4235176D01*
X25017576Y4217369D01*
X25017576Y4217368D01*
X25016928Y4216096D01*
X25016926Y4216093D01*
X24998901Y4180714D01*
X24995700Y4174432D01*
X24995627Y4174289D01*
X24995514Y4174069D01*
X24986575Y4161809D01*
X24938193Y4113427D01*
X24925795Y4104418D01*
X24918284Y4100590D01*
X24918281Y4100588D01*
X24917005Y4099938D01*
X24916964Y4099919D01*
X24864828Y4073354D01*
X24850248Y4068616D01*
X24782665Y4057912D01*
X24767335Y4057912D01*
X24699753Y4068615D01*
X24685174Y4073352D01*
X24652576Y4089961D01*
X24652572Y4089963D01*
X24624209Y4104414D01*
X24611808Y4113424D01*
X24563423Y4161809D01*
X24554412Y4174212D01*
X24523351Y4235173D01*
X24518614Y4249748D01*
X24507909Y4317342D01*
X24507909Y4332659D01*
X24518614Y4400256D01*
X24523352Y4414833D01*
X24527748Y4423459D01*
X24568297Y4503043D01*
X24570418Y4505003D01*
X24574396Y4514605D01*
X24574406Y4514626D01*
X24574537Y4514943D01*
X24576181Y4518516D01*
X24576519Y4519181D01*
X24576543Y4519787D01*
X24577668Y4522501D01*
X24589667Y4551468D01*
X24600175Y4590683D01*
X24600174Y4590684D01*
X24600973Y4593661D01*
X24623803Y4623414D01*
X24648303Y4629979D01*
X24907024Y4629979D01*
X24941672Y4615627D01*
G37*
%TD.AperFunction*%
%TA.AperFunction,Conductor*%
G36*
X29741621Y5487045D02*
G01*
X29768794Y5477156D01*
X29788345Y5470040D01*
X29803083Y5461531D01*
X29841176Y5429567D01*
X29852114Y5416531D01*
X29856902Y5408238D01*
X29876973Y5373473D01*
X29882792Y5357483D01*
X29891428Y5308509D01*
X29891429Y5291492D01*
X29882795Y5242523D01*
X29876974Y5226530D01*
X29852111Y5183468D01*
X29841173Y5170433D01*
X29803083Y5138471D01*
X29788345Y5129962D01*
X29741620Y5112955D01*
X29724863Y5110000D01*
X29675137Y5110000D01*
X29658378Y5112955D01*
X29611653Y5129962D01*
X29596915Y5138471D01*
X29558822Y5170435D01*
X29547884Y5183471D01*
X29523024Y5226529D01*
X29517204Y5242518D01*
X29508569Y5291494D01*
X29508569Y5308509D01*
X29517204Y5357487D01*
X29523021Y5373468D01*
X29547887Y5416537D01*
X29558821Y5429566D01*
X29596914Y5461532D01*
X29611645Y5470037D01*
X29658383Y5487047D01*
X29675138Y5490000D01*
X29724863Y5490000D01*
X29741621Y5487045D01*
G37*
%TD.AperFunction*%
%TA.AperFunction,Conductor*%
G36*
X15241621Y5587045D02*
G01*
X15268794Y5577156D01*
X15288345Y5570040D01*
X15303082Y5561532D01*
X15305077Y5559858D01*
X15341176Y5529567D01*
X15352114Y5516531D01*
X15376914Y5473575D01*
X15376973Y5473474D01*
X15382794Y5457483D01*
X15391429Y5408510D01*
X15391428Y5391492D01*
X15382792Y5342519D01*
X15376972Y5326527D01*
X15352111Y5283468D01*
X15341173Y5270433D01*
X15303083Y5238471D01*
X15288345Y5229962D01*
X15241620Y5212955D01*
X15224863Y5210000D01*
X15175137Y5210000D01*
X15158378Y5212955D01*
X15156026Y5213811D01*
X15121082Y5226530D01*
X15111653Y5229962D01*
X15096915Y5238471D01*
X15058822Y5270435D01*
X15047884Y5283471D01*
X15043253Y5291492D01*
X15023023Y5326531D01*
X15017204Y5342519D01*
X15008569Y5391494D01*
X15008569Y5408509D01*
X15009983Y5416530D01*
X15017204Y5457487D01*
X15023021Y5473468D01*
X15047887Y5516537D01*
X15058822Y5529566D01*
X15096911Y5561528D01*
X15111646Y5570037D01*
X15137337Y5579386D01*
X15137338Y5579387D01*
X15153977Y5585443D01*
X15158379Y5587045D01*
X15175137Y5590000D01*
X15224863Y5590000D01*
X15241621Y5587045D01*
G37*
%TD.AperFunction*%
%TA.AperFunction,Conductor*%
G36*
X16541621Y5587045D02*
G01*
X16568794Y5577156D01*
X16588345Y5570040D01*
X16603082Y5561532D01*
X16605077Y5559858D01*
X16641176Y5529567D01*
X16652114Y5516531D01*
X16676973Y5473473D01*
X16682793Y5457483D01*
X16689977Y5416748D01*
X16689977Y5416747D01*
X16691429Y5408513D01*
X16691429Y5391494D01*
X16682792Y5342518D01*
X16676972Y5326527D01*
X16652111Y5283468D01*
X16641173Y5270433D01*
X16603083Y5238471D01*
X16588345Y5229962D01*
X16541620Y5212955D01*
X16524863Y5210000D01*
X16475137Y5210000D01*
X16458378Y5212955D01*
X16456026Y5213811D01*
X16421082Y5226530D01*
X16411653Y5229962D01*
X16396915Y5238471D01*
X16358822Y5270435D01*
X16347884Y5283471D01*
X16343253Y5291492D01*
X16323023Y5326531D01*
X16317204Y5342519D01*
X16308569Y5391494D01*
X16308569Y5408509D01*
X16309983Y5416530D01*
X16317204Y5457487D01*
X16323021Y5473468D01*
X16347887Y5516537D01*
X16358822Y5529566D01*
X16396911Y5561528D01*
X16411646Y5570037D01*
X16437337Y5579386D01*
X16437338Y5579387D01*
X16453977Y5585443D01*
X16458379Y5587045D01*
X16475137Y5590000D01*
X16524863Y5590000D01*
X16541621Y5587045D01*
G37*
%TD.AperFunction*%
%TA.AperFunction,Conductor*%
G36*
X17354499Y5603792D02*
G01*
X17385972Y5592336D01*
X17401224Y5586785D01*
X17415962Y5578276D01*
X17431960Y5564852D01*
X17454054Y5546312D01*
X17464990Y5533279D01*
X17470339Y5524014D01*
X17489851Y5490220D01*
X17495672Y5474228D01*
X17504307Y5425254D01*
X17504307Y5408238D01*
X17495673Y5359269D01*
X17489852Y5343276D01*
X17464989Y5300214D01*
X17454051Y5287179D01*
X17415961Y5255217D01*
X17401223Y5246708D01*
X17354498Y5229701D01*
X17337741Y5226746D01*
X17288015Y5226746D01*
X17271256Y5229701D01*
X17262420Y5232917D01*
X17224531Y5246708D01*
X17209793Y5255217D01*
X17171700Y5287181D01*
X17160762Y5300217D01*
X17145572Y5326527D01*
X17135901Y5343277D01*
X17130082Y5359264D01*
X17121447Y5408240D01*
X17121447Y5425255D01*
X17124543Y5442815D01*
X17130082Y5474233D01*
X17135899Y5490214D01*
X17160765Y5533283D01*
X17171699Y5546312D01*
X17209792Y5578278D01*
X17224523Y5586783D01*
X17271261Y5603793D01*
X17288017Y5606746D01*
X17337741Y5606746D01*
X17354499Y5603792D01*
G37*
%TD.AperFunction*%
%TA.AperFunction,Conductor*%
G36*
X22300252Y5856386D02*
G01*
X22314827Y5851649D01*
X22375788Y5820588D01*
X22388191Y5811577D01*
X22436575Y5763193D01*
X22445586Y5750791D01*
X22451584Y5739020D01*
X22451584Y5739019D01*
X22476646Y5689831D01*
X22476648Y5689827D01*
X22481385Y5675247D01*
X22492088Y5607666D01*
X22492088Y5592336D01*
X22481385Y5524756D01*
X22476648Y5510176D01*
X22458019Y5473613D01*
X22457999Y5473575D01*
X22442329Y5442817D01*
X22429679Y5408526D01*
X22424340Y5386287D01*
X22421515Y5371047D01*
X22401088Y5339595D01*
X22373336Y5330979D01*
X22073640Y5330979D01*
X22038992Y5345331D01*
X22024791Y5376135D01*
X22024139Y5384423D01*
X22024138Y5384427D01*
X22007671Y5442817D01*
X22007670Y5442819D01*
X21973352Y5510173D01*
X21968614Y5524752D01*
X21957909Y5592343D01*
X21957910Y5607671D01*
X21958796Y5613262D01*
X21959538Y5617936D01*
X21966098Y5659361D01*
X21968615Y5675256D01*
X21973350Y5689827D01*
X22004413Y5750795D01*
X22013420Y5763191D01*
X22061811Y5811582D01*
X22074207Y5820588D01*
X22135170Y5851650D01*
X22149742Y5856385D01*
X22217341Y5867091D01*
X22232659Y5867091D01*
X22300252Y5856386D01*
G37*
%TD.AperFunction*%
%TA.AperFunction,Conductor*%
G36*
X23575252Y5856386D02*
G01*
X23589827Y5851649D01*
X23650788Y5820588D01*
X23663191Y5811577D01*
X23711575Y5763193D01*
X23720586Y5750791D01*
X23726584Y5739020D01*
X23726584Y5739019D01*
X23751646Y5689831D01*
X23751648Y5689827D01*
X23756385Y5675247D01*
X23767088Y5607666D01*
X23767088Y5592336D01*
X23756385Y5524756D01*
X23751648Y5510176D01*
X23733019Y5473613D01*
X23732999Y5473575D01*
X23717329Y5442817D01*
X23704679Y5408526D01*
X23699340Y5386287D01*
X23696515Y5371047D01*
X23676088Y5339595D01*
X23648336Y5330979D01*
X23348640Y5330979D01*
X23313992Y5345331D01*
X23299791Y5376135D01*
X23299139Y5384423D01*
X23299138Y5384427D01*
X23282671Y5442817D01*
X23282670Y5442819D01*
X23248352Y5510173D01*
X23243614Y5524752D01*
X23232909Y5592343D01*
X23232910Y5607671D01*
X23233796Y5613262D01*
X23234538Y5617936D01*
X23241098Y5659361D01*
X23243615Y5675256D01*
X23248350Y5689827D01*
X23279413Y5750795D01*
X23288420Y5763191D01*
X23336811Y5811582D01*
X23349207Y5820588D01*
X23410170Y5851650D01*
X23424742Y5856385D01*
X23492341Y5867091D01*
X23507659Y5867091D01*
X23575252Y5856386D01*
G37*
%TD.AperFunction*%
%TA.AperFunction,Conductor*%
G36*
X24850252Y5856386D02*
G01*
X24864827Y5851649D01*
X24925788Y5820588D01*
X24938191Y5811577D01*
X24986575Y5763193D01*
X24995586Y5750791D01*
X25001584Y5739020D01*
X25001584Y5739019D01*
X25026646Y5689831D01*
X25026648Y5689827D01*
X25031385Y5675247D01*
X25042088Y5607666D01*
X25042088Y5592336D01*
X25031385Y5524756D01*
X25026648Y5510176D01*
X25008019Y5473613D01*
X25007999Y5473575D01*
X24992329Y5442817D01*
X24979679Y5408526D01*
X24974340Y5386287D01*
X24971515Y5371047D01*
X24951088Y5339595D01*
X24923336Y5330979D01*
X24623640Y5330979D01*
X24588992Y5345331D01*
X24574791Y5376135D01*
X24574139Y5384423D01*
X24574138Y5384427D01*
X24557671Y5442817D01*
X24557670Y5442819D01*
X24523352Y5510173D01*
X24518614Y5524752D01*
X24507909Y5592343D01*
X24507910Y5607671D01*
X24508796Y5613262D01*
X24509538Y5617936D01*
X24516098Y5659361D01*
X24518615Y5675256D01*
X24523350Y5689827D01*
X24554413Y5750795D01*
X24563420Y5763191D01*
X24611811Y5811582D01*
X24624207Y5820588D01*
X24685170Y5851650D01*
X24699742Y5856385D01*
X24767341Y5867091D01*
X24782659Y5867091D01*
X24850252Y5856386D01*
G37*
%TD.AperFunction*%
%TA.AperFunction,Conductor*%
G36*
X29741621Y6387046D02*
G01*
X29747323Y6384970D01*
X29772006Y6375986D01*
X29777823Y6373869D01*
X29788344Y6370040D01*
X29803083Y6361531D01*
X29841175Y6329567D01*
X29852112Y6316533D01*
X29876974Y6273470D01*
X29882794Y6257482D01*
X29891429Y6208508D01*
X29891429Y6191491D01*
X29882794Y6142520D01*
X29876973Y6126529D01*
X29852111Y6083467D01*
X29841172Y6070431D01*
X29803084Y6038472D01*
X29788348Y6029964D01*
X29741623Y6012956D01*
X29724863Y6010000D01*
X29675137Y6010000D01*
X29658378Y6012955D01*
X29658375Y6012956D01*
X29611653Y6029962D01*
X29596915Y6038471D01*
X29558822Y6070435D01*
X29547884Y6083471D01*
X29523023Y6126531D01*
X29517204Y6142518D01*
X29508569Y6191494D01*
X29508569Y6208509D01*
X29509109Y6211573D01*
X29517204Y6257487D01*
X29523021Y6273468D01*
X29547887Y6316537D01*
X29558821Y6329566D01*
X29596914Y6361532D01*
X29611645Y6370037D01*
X29651234Y6384444D01*
X29651234Y6384445D01*
X29656278Y6386280D01*
X29656278Y6386279D01*
X29656285Y6386283D01*
X29658385Y6387047D01*
X29675137Y6390000D01*
X29724863Y6390000D01*
X29741621Y6387046D01*
G37*
%TD.AperFunction*%
%TA.AperFunction,Conductor*%
G36*
X13097681Y6861994D02*
G01*
X13111288Y6835857D01*
X13115313Y6813030D01*
X13115314Y6813028D01*
X13156443Y6748471D01*
X13158563Y6745143D01*
X13186212Y6719808D01*
X13226664Y6695262D01*
X13238082Y6688333D01*
X13270512Y6676530D01*
X13288344Y6670040D01*
X13303082Y6661532D01*
X13316124Y6650588D01*
X13341175Y6629567D01*
X13352113Y6616531D01*
X13376973Y6573473D01*
X13382794Y6557482D01*
X13391429Y6508510D01*
X13391429Y6491493D01*
X13382795Y6442522D01*
X13376974Y6426530D01*
X13361658Y6400002D01*
X13361656Y6399999D01*
X13352109Y6383466D01*
X13341173Y6370433D01*
X13303083Y6338471D01*
X13288345Y6329962D01*
X13241620Y6312955D01*
X13224863Y6310000D01*
X13175137Y6310000D01*
X13158378Y6312955D01*
X13111653Y6329962D01*
X13096915Y6338471D01*
X13058822Y6370435D01*
X13047884Y6383471D01*
X13046262Y6386280D01*
X13023023Y6426531D01*
X13017204Y6442518D01*
X13008569Y6491494D01*
X13008569Y6508510D01*
X13010151Y6517482D01*
X13023532Y6593366D01*
X13025303Y6606823D01*
X13026047Y6615332D01*
X13014801Y6688385D01*
X13000449Y6723033D01*
X12980153Y6758186D01*
X12980151Y6758188D01*
X12978610Y6760857D01*
X12973714Y6798039D01*
X12986395Y6820003D01*
X13028387Y6861996D01*
X13063033Y6876346D01*
X13097681Y6861994D01*
G37*
%TD.AperFunction*%
%TA.AperFunction,Conductor*%
G36*
X26091621Y6937045D02*
G01*
X26109942Y6930377D01*
X26138345Y6920040D01*
X26153082Y6911532D01*
X26166825Y6900000D01*
X26191176Y6879567D01*
X26202115Y6866530D01*
X26226973Y6823473D01*
X26232792Y6807483D01*
X26241428Y6758509D01*
X26241429Y6741492D01*
X26232795Y6692523D01*
X26226974Y6676530D01*
X26202111Y6633468D01*
X26191173Y6620433D01*
X26153083Y6588471D01*
X26138345Y6579962D01*
X26091620Y6562955D01*
X26074863Y6560000D01*
X26025137Y6560000D01*
X26008378Y6562955D01*
X26000042Y6565989D01*
X25961653Y6579962D01*
X25946915Y6588471D01*
X25908822Y6620435D01*
X25897884Y6633471D01*
X25889227Y6648465D01*
X25873023Y6676531D01*
X25867204Y6692518D01*
X25858569Y6741494D01*
X25858569Y6758509D01*
X25858983Y6760857D01*
X25867204Y6807487D01*
X25873021Y6823468D01*
X25897887Y6866537D01*
X25908822Y6879566D01*
X25946911Y6911528D01*
X25961646Y6920037D01*
X25985015Y6928541D01*
X25985016Y6928542D01*
X26003551Y6935288D01*
X26008379Y6937045D01*
X26025137Y6940000D01*
X26074863Y6940000D01*
X26091621Y6937045D01*
G37*
%TD.AperFunction*%
%TA.AperFunction,Conductor*%
G36*
X22300252Y7131386D02*
G01*
X22314827Y7126649D01*
X22375788Y7095588D01*
X22388191Y7086577D01*
X22436576Y7038192D01*
X22445585Y7025793D01*
X22464635Y6988406D01*
X22464637Y6988401D01*
X22476648Y6964827D01*
X22481385Y6950247D01*
X22492088Y6882666D01*
X22492088Y6867336D01*
X22481385Y6799756D01*
X22476648Y6785178D01*
X22457557Y6747705D01*
X22457556Y6747703D01*
X22455315Y6743303D01*
X22445586Y6724210D01*
X22436575Y6711809D01*
X22388193Y6663427D01*
X22375795Y6654418D01*
X22368284Y6650590D01*
X22368281Y6650588D01*
X22367005Y6649938D01*
X22366964Y6649919D01*
X22314828Y6623354D01*
X22300248Y6618616D01*
X22232665Y6607912D01*
X22217335Y6607912D01*
X22149753Y6618615D01*
X22135174Y6623352D01*
X22097828Y6642380D01*
X22097827Y6642380D01*
X22092660Y6645013D01*
X22074208Y6654415D01*
X22061806Y6663426D01*
X22013423Y6711809D01*
X22004412Y6724212D01*
X21973351Y6785173D01*
X21968614Y6799748D01*
X21957909Y6867342D01*
X21957909Y6882659D01*
X21968615Y6950258D01*
X21973350Y6964830D01*
X22004412Y7025793D01*
X22013418Y7038189D01*
X22061811Y7086582D01*
X22074207Y7095588D01*
X22135170Y7126650D01*
X22149742Y7131385D01*
X22217341Y7142091D01*
X22232659Y7142091D01*
X22300252Y7131386D01*
G37*
%TD.AperFunction*%
%TA.AperFunction,Conductor*%
G36*
X23575252Y7131386D02*
G01*
X23589827Y7126649D01*
X23650788Y7095588D01*
X23663191Y7086577D01*
X23711576Y7038192D01*
X23720585Y7025793D01*
X23739635Y6988406D01*
X23739637Y6988401D01*
X23751648Y6964827D01*
X23756385Y6950247D01*
X23767088Y6882666D01*
X23767088Y6867336D01*
X23756385Y6799756D01*
X23751648Y6785178D01*
X23732557Y6747705D01*
X23732556Y6747703D01*
X23730315Y6743303D01*
X23720586Y6724210D01*
X23711575Y6711809D01*
X23663193Y6663427D01*
X23650795Y6654418D01*
X23643284Y6650590D01*
X23643281Y6650588D01*
X23642005Y6649938D01*
X23641964Y6649919D01*
X23589828Y6623354D01*
X23575248Y6618616D01*
X23507665Y6607912D01*
X23492335Y6607912D01*
X23424753Y6618615D01*
X23410174Y6623352D01*
X23372828Y6642380D01*
X23372827Y6642380D01*
X23367660Y6645013D01*
X23349208Y6654415D01*
X23336806Y6663426D01*
X23288423Y6711809D01*
X23279412Y6724212D01*
X23248351Y6785173D01*
X23243614Y6799748D01*
X23232909Y6867342D01*
X23232909Y6882659D01*
X23243615Y6950258D01*
X23248350Y6964830D01*
X23279412Y7025793D01*
X23288418Y7038189D01*
X23336811Y7086582D01*
X23349207Y7095588D01*
X23410170Y7126650D01*
X23424742Y7131385D01*
X23492341Y7142091D01*
X23507659Y7142091D01*
X23575252Y7131386D01*
G37*
%TD.AperFunction*%
%TA.AperFunction,Conductor*%
G36*
X24850252Y7131386D02*
G01*
X24864827Y7126649D01*
X24925788Y7095588D01*
X24938191Y7086577D01*
X24986576Y7038192D01*
X24995585Y7025793D01*
X25014635Y6988406D01*
X25014637Y6988401D01*
X25026648Y6964827D01*
X25031385Y6950247D01*
X25042088Y6882666D01*
X25042088Y6867336D01*
X25031384Y6799755D01*
X25026648Y6785177D01*
X25014623Y6761574D01*
X25008727Y6750001D01*
X25007948Y6748473D01*
X25005320Y6743320D01*
X25005315Y6743303D01*
X24995586Y6724210D01*
X24986575Y6711809D01*
X24938193Y6663427D01*
X24925795Y6654418D01*
X24918284Y6650590D01*
X24918281Y6650588D01*
X24917005Y6649938D01*
X24916964Y6649919D01*
X24864828Y6623354D01*
X24850248Y6618616D01*
X24782665Y6607912D01*
X24767335Y6607912D01*
X24699753Y6618615D01*
X24685174Y6623352D01*
X24647828Y6642380D01*
X24647827Y6642380D01*
X24642660Y6645013D01*
X24624208Y6654415D01*
X24611806Y6663426D01*
X24563423Y6711809D01*
X24554412Y6724212D01*
X24523351Y6785173D01*
X24518614Y6799748D01*
X24507909Y6867342D01*
X24507909Y6882659D01*
X24518615Y6950258D01*
X24523350Y6964830D01*
X24554412Y7025793D01*
X24563418Y7038189D01*
X24611811Y7086582D01*
X24624207Y7095588D01*
X24685170Y7126650D01*
X24699742Y7131385D01*
X24767341Y7142091D01*
X24782659Y7142091D01*
X24850252Y7131386D01*
G37*
%TD.AperFunction*%
%TA.AperFunction,Conductor*%
G36*
X16541621Y7987046D02*
G01*
X16562662Y7979387D01*
X16562663Y7979387D01*
X16588345Y7970040D01*
X16603081Y7961533D01*
X16641176Y7929566D01*
X16652112Y7916533D01*
X16666569Y7891493D01*
X16676973Y7873474D01*
X16682794Y7857481D01*
X16684113Y7850001D01*
X16691429Y7808509D01*
X16691429Y7791492D01*
X16682795Y7742523D01*
X16676974Y7726530D01*
X16652111Y7683468D01*
X16641173Y7670433D01*
X16603083Y7638471D01*
X16588345Y7629962D01*
X16541620Y7612955D01*
X16524863Y7610000D01*
X16475137Y7610000D01*
X16458378Y7612955D01*
X16411653Y7629962D01*
X16396915Y7638471D01*
X16358822Y7670435D01*
X16347884Y7683471D01*
X16332567Y7710000D01*
X16323023Y7726531D01*
X16317204Y7742518D01*
X16308569Y7791494D01*
X16308569Y7808509D01*
X16311746Y7826529D01*
X16317204Y7857487D01*
X16323021Y7873468D01*
X16347887Y7916537D01*
X16358822Y7929566D01*
X16396911Y7961528D01*
X16411646Y7970037D01*
X16437337Y7979386D01*
X16437338Y7979387D01*
X16447454Y7983070D01*
X16458379Y7987045D01*
X16475137Y7990000D01*
X16524863Y7990000D01*
X16541621Y7987046D01*
G37*
%TD.AperFunction*%
%TA.AperFunction,Conductor*%
G36*
X29141621Y8037045D02*
G01*
X29162173Y8029565D01*
X29188345Y8020040D01*
X29203082Y8011532D01*
X29222129Y7995549D01*
X29241176Y7979567D01*
X29252115Y7966530D01*
X29276973Y7923473D01*
X29282792Y7907483D01*
X29291428Y7858509D01*
X29291429Y7841492D01*
X29282795Y7792523D01*
X29276974Y7776530D01*
X29252111Y7733468D01*
X29241173Y7720433D01*
X29203083Y7688471D01*
X29188345Y7679962D01*
X29141620Y7662955D01*
X29124863Y7660000D01*
X29075137Y7660000D01*
X29058378Y7662955D01*
X29037827Y7670435D01*
X29033401Y7672046D01*
X29011653Y7679962D01*
X28996915Y7688471D01*
X28958822Y7720435D01*
X28947884Y7733471D01*
X28926544Y7770433D01*
X28923023Y7776531D01*
X28917204Y7792518D01*
X28908569Y7841494D01*
X28908569Y7858509D01*
X28909888Y7865990D01*
X28917204Y7907487D01*
X28923021Y7923468D01*
X28947887Y7966537D01*
X28958821Y7979566D01*
X28996914Y8011532D01*
X29011645Y8020037D01*
X29049695Y8033884D01*
X29049695Y8033885D01*
X29054739Y8035720D01*
X29054741Y8035722D01*
X29058384Y8037048D01*
X29075137Y8040000D01*
X29124863Y8040000D01*
X29141621Y8037045D01*
G37*
%TD.AperFunction*%
%TA.AperFunction,Conductor*%
G36*
X15199998Y8145319D02*
G01*
X15200000Y8145319D01*
X15200001Y8145319D01*
X15203204Y8145827D01*
X15211134Y8147083D01*
X15247601Y8138331D01*
X15262265Y8121313D01*
X15271582Y8103415D01*
X15271584Y8103412D01*
X15271585Y8103411D01*
X15281038Y8091633D01*
X15309559Y8056096D01*
X15309566Y8056088D01*
X15341176Y8029565D01*
X15352115Y8016529D01*
X15355001Y8011531D01*
X15376971Y7973476D01*
X15376973Y7973474D01*
X15382794Y7957483D01*
X15391429Y7908510D01*
X15391429Y7891493D01*
X15382795Y7842522D01*
X15376974Y7826530D01*
X15361658Y7800002D01*
X15361656Y7799999D01*
X15352109Y7783466D01*
X15341173Y7770433D01*
X15303083Y7738471D01*
X15288345Y7729962D01*
X15241620Y7712955D01*
X15224863Y7710000D01*
X15175137Y7710000D01*
X15158378Y7712955D01*
X15137827Y7720435D01*
X15135015Y7721459D01*
X15111653Y7729962D01*
X15096915Y7738471D01*
X15058822Y7770435D01*
X15047884Y7783471D01*
X15043253Y7791492D01*
X15023023Y7826531D01*
X15017204Y7842518D01*
X15008569Y7891494D01*
X15008569Y7908508D01*
X15010466Y7919269D01*
X15017204Y7957487D01*
X15023020Y7973467D01*
X15047886Y8016535D01*
X15058822Y8029566D01*
X15061808Y8032071D01*
X15090438Y8056094D01*
X15100439Y8065259D01*
X15106478Y8071298D01*
X15138592Y8124221D01*
X15168837Y8146396D01*
X15188150Y8147196D01*
X15199998Y8145319D01*
G37*
%TD.AperFunction*%
%TA.AperFunction,Conductor*%
G36*
X17441621Y8387045D02*
G01*
X17468794Y8377156D01*
X17488345Y8370040D01*
X17503083Y8361531D01*
X17541175Y8329567D01*
X17552113Y8316531D01*
X17576973Y8273473D01*
X17582794Y8257482D01*
X17591429Y8208510D01*
X17591429Y8191493D01*
X17582795Y8142523D01*
X17576974Y8126530D01*
X17552111Y8083468D01*
X17541173Y8070433D01*
X17503083Y8038471D01*
X17488346Y8029962D01*
X17477223Y8025914D01*
X17441620Y8012955D01*
X17424863Y8010000D01*
X17375137Y8010000D01*
X17358378Y8012955D01*
X17311653Y8029962D01*
X17296915Y8038471D01*
X17258822Y8070435D01*
X17247884Y8083471D01*
X17243170Y8091636D01*
X17223023Y8126531D01*
X17217204Y8142518D01*
X17208569Y8191494D01*
X17208569Y8208509D01*
X17211747Y8226535D01*
X17217204Y8257487D01*
X17223021Y8273468D01*
X17247887Y8316537D01*
X17258821Y8329566D01*
X17296914Y8361532D01*
X17311645Y8370037D01*
X17356311Y8386292D01*
X17356311Y8386293D01*
X17358382Y8387046D01*
X17375139Y8390000D01*
X17424863Y8390000D01*
X17441621Y8387045D01*
G37*
%TD.AperFunction*%
%TA.AperFunction,Conductor*%
G36*
X28691622Y9087045D02*
G01*
X28712687Y9079378D01*
X28712686Y9079378D01*
X28728082Y9073775D01*
X28738345Y9070040D01*
X28753083Y9061531D01*
X28791175Y9029567D01*
X28802112Y9016533D01*
X28826974Y8973470D01*
X28832794Y8957482D01*
X28841429Y8908508D01*
X28841429Y8891492D01*
X28832795Y8842523D01*
X28826974Y8826530D01*
X28802111Y8783468D01*
X28791173Y8770433D01*
X28753083Y8738471D01*
X28738345Y8729962D01*
X28691620Y8712955D01*
X28674863Y8710000D01*
X28625137Y8710000D01*
X28608378Y8712955D01*
X28561653Y8729962D01*
X28546915Y8738471D01*
X28508822Y8770435D01*
X28497884Y8783471D01*
X28497743Y8783715D01*
X28473023Y8826531D01*
X28467204Y8842518D01*
X28458569Y8891494D01*
X28458569Y8908509D01*
X28467204Y8957487D01*
X28473021Y8973468D01*
X28497887Y9016537D01*
X28508820Y9029566D01*
X28546914Y9061531D01*
X28561650Y9070038D01*
X28587312Y9079377D01*
X28587313Y9079378D01*
X28592353Y9081212D01*
X28592357Y9081214D01*
X28608379Y9087045D01*
X28625137Y9090000D01*
X28674863Y9090000D01*
X28691622Y9087045D01*
G37*
%TD.AperFunction*%
%TD*%
%TA.AperFunction,Conductor*%
%TO.N,+3.3V*%
G36*
X15509528Y9485648D02*
G01*
X15523880Y9451000D01*
X15523136Y9442492D01*
X15519170Y9420001D01*
X15540328Y9300007D01*
X15601247Y9194493D01*
X15601248Y9194492D01*
X15601249Y9194491D01*
X15694585Y9116172D01*
X15809079Y9074500D01*
X15809080Y9074500D01*
X15930920Y9074500D01*
X15930921Y9074500D01*
X16045415Y9116172D01*
X16138751Y9194491D01*
X16199672Y9300009D01*
X16220830Y9420000D01*
X16216864Y9442492D01*
X16224982Y9479106D01*
X16256612Y9499256D01*
X16265120Y9500000D01*
X26658054Y9500000D01*
X26692702Y9485648D01*
X26706310Y9459509D01*
X26720328Y9380007D01*
X26781247Y9274493D01*
X26781248Y9274492D01*
X26781249Y9274491D01*
X26874585Y9196172D01*
X26989079Y9154500D01*
X26989080Y9154500D01*
X27110920Y9154500D01*
X27110921Y9154500D01*
X27225415Y9196172D01*
X27318751Y9274491D01*
X27349211Y9327250D01*
X27379671Y9380007D01*
X27379671Y9380008D01*
X27379672Y9380009D01*
X27393690Y9459510D01*
X27413841Y9491139D01*
X27441946Y9500000D01*
X29479704Y9500000D01*
X29514352Y9485648D01*
X30483887Y8516113D01*
X30498239Y8481465D01*
X30491675Y8456966D01*
X30470328Y8419993D01*
X30449170Y8300000D01*
X30470328Y8180007D01*
X30531247Y8074493D01*
X30531248Y8074492D01*
X30531249Y8074491D01*
X30624585Y7996172D01*
X30739079Y7954500D01*
X30739080Y7954500D01*
X30860920Y7954500D01*
X30860921Y7954500D01*
X30966913Y7993078D01*
X31004379Y7991442D01*
X31018319Y7981681D01*
X31985648Y7014352D01*
X32000000Y6979704D01*
X32000000Y5764859D01*
X31985648Y5730211D01*
X31951000Y5715859D01*
X31934241Y5718814D01*
X31915846Y5725509D01*
X31860921Y5745500D01*
X31739079Y5745500D01*
X31684154Y5725509D01*
X31624584Y5703828D01*
X31531247Y5625508D01*
X31470328Y5519994D01*
X31449170Y5400000D01*
X31470328Y5280007D01*
X31531247Y5174493D01*
X31531248Y5174492D01*
X31531249Y5174491D01*
X31624585Y5096172D01*
X31739079Y5054500D01*
X31739080Y5054500D01*
X31860920Y5054500D01*
X31860921Y5054500D01*
X31934243Y5081187D01*
X31971708Y5079551D01*
X31997045Y5051901D01*
X32000000Y5035142D01*
X32000000Y4264859D01*
X31985648Y4230211D01*
X31951000Y4215859D01*
X31934241Y4218814D01*
X31915846Y4225509D01*
X31860921Y4245500D01*
X31739079Y4245500D01*
X31684154Y4225509D01*
X31624584Y4203828D01*
X31531247Y4125508D01*
X31470328Y4019994D01*
X31449170Y3900000D01*
X31470328Y3780007D01*
X31505551Y3719000D01*
X31510446Y3681818D01*
X31487616Y3652065D01*
X31463116Y3645500D01*
X31439079Y3645500D01*
X31417624Y3637691D01*
X31324584Y3603828D01*
X31231247Y3525508D01*
X31170328Y3419994D01*
X31149170Y3300000D01*
X31170328Y3180007D01*
X31231247Y3074493D01*
X31231248Y3074492D01*
X31231249Y3074491D01*
X31324585Y2996172D01*
X31439079Y2954500D01*
X31439080Y2954500D01*
X31560920Y2954500D01*
X31560921Y2954500D01*
X31675415Y2996172D01*
X31768751Y3074491D01*
X31829672Y3180009D01*
X31850830Y3300000D01*
X31829672Y3419991D01*
X31829671Y3419993D01*
X31829671Y3419994D01*
X31794449Y3481000D01*
X31789554Y3518182D01*
X31812384Y3547935D01*
X31836884Y3554500D01*
X31860920Y3554500D01*
X31860921Y3554500D01*
X31934243Y3581187D01*
X31971708Y3579551D01*
X31997045Y3551901D01*
X32000000Y3535142D01*
X32000000Y3284515D01*
X31993435Y3260015D01*
X31970328Y3219994D01*
X31949170Y3100000D01*
X31970328Y2980008D01*
X31970329Y2980007D01*
X31993435Y2939986D01*
X32000000Y2915487D01*
X32000000Y2033654D01*
X31985648Y1999006D01*
X31968590Y1987920D01*
X30918508Y1584042D01*
X30723047Y1508864D01*
X30708492Y1503266D01*
X30690902Y1500000D01*
X24297839Y1500000D01*
X24263191Y1514352D01*
X24251812Y1536212D01*
X24251137Y1535966D01*
X24249671Y1539994D01*
X24188752Y1645508D01*
X24095415Y1723828D01*
X24090796Y1725509D01*
X23980921Y1765500D01*
X23859079Y1765500D01*
X23801832Y1744664D01*
X23744584Y1723828D01*
X23651247Y1645508D01*
X23590328Y1539994D01*
X23588863Y1535966D01*
X23587782Y1536360D01*
X23570269Y1508864D01*
X23542161Y1500000D01*
X23497839Y1500000D01*
X23463191Y1514352D01*
X23451812Y1536212D01*
X23451137Y1535966D01*
X23449671Y1539994D01*
X23388752Y1645508D01*
X23295415Y1723828D01*
X23290796Y1725509D01*
X23180921Y1765500D01*
X23059079Y1765500D01*
X23001832Y1744664D01*
X22944584Y1723828D01*
X22851247Y1645508D01*
X22790328Y1539994D01*
X22788863Y1535966D01*
X22787782Y1536360D01*
X22770269Y1508864D01*
X22742161Y1500000D01*
X16873552Y1500000D01*
X16838904Y1514352D01*
X16795086Y1558170D01*
X16795075Y1558180D01*
X16589259Y1763996D01*
X16589257Y1763999D01*
X16526795Y1826461D01*
X16526792Y1826464D01*
X16526788Y1826466D01*
X16526786Y1826468D01*
X16453711Y1868659D01*
X16453708Y1868660D01*
X16372198Y1890500D01*
X16372195Y1890500D01*
X15528249Y1890500D01*
X15511490Y1893455D01*
X15478396Y1905500D01*
X15450921Y1915500D01*
X15329079Y1915500D01*
X15301604Y1905500D01*
X15214584Y1873828D01*
X15121246Y1795507D01*
X15121245Y1795506D01*
X15119189Y1791944D01*
X15089434Y1769116D01*
X15052253Y1774014D01*
X15039221Y1784949D01*
X15038752Y1785508D01*
X15026833Y1795509D01*
X14945415Y1863828D01*
X14830921Y1905500D01*
X14709079Y1905500D01*
X14651832Y1884664D01*
X14594584Y1863828D01*
X14501247Y1785508D01*
X14440328Y1679994D01*
X14419170Y1560000D01*
X14440328Y1440007D01*
X14501247Y1334493D01*
X14501248Y1334492D01*
X14506698Y1329918D01*
X14524013Y1296652D01*
X14512733Y1260885D01*
X14497112Y1248557D01*
X13505471Y752737D01*
X13468063Y750079D01*
X13439731Y774651D01*
X13435304Y788049D01*
X13429672Y819991D01*
X13429671Y819993D01*
X13429671Y819994D01*
X13368752Y925508D01*
X13348865Y942195D01*
X13275415Y1003828D01*
X13160921Y1045500D01*
X13039079Y1045500D01*
X12981832Y1024664D01*
X12924584Y1003828D01*
X12831247Y925508D01*
X12770328Y819994D01*
X12764697Y788056D01*
X12762623Y776291D01*
X12759925Y760991D01*
X12739774Y729361D01*
X12711669Y720500D01*
X12361630Y720500D01*
X12326982Y734852D01*
X12234852Y826982D01*
X12220500Y861630D01*
X12220500Y960112D01*
X12234849Y994757D01*
X12292760Y1052669D01*
X12292765Y1052672D01*
X12296790Y1056698D01*
X12296792Y1056698D01*
X12356464Y1116370D01*
X12398659Y1189453D01*
X12411364Y1236870D01*
X12420501Y1270968D01*
X12420501Y1355357D01*
X12420501Y1358353D01*
X12420500Y1358371D01*
X12420500Y1880500D01*
X12434852Y1915148D01*
X12469500Y1929500D01*
X13548780Y1929500D01*
X13586457Y1939597D01*
X13597824Y1942643D01*
X13610506Y1944312D01*
X13713592Y1944312D01*
X13745138Y1952766D01*
X13760912Y1956992D01*
X13807820Y1969561D01*
X13850062Y1993950D01*
X13892305Y2018338D01*
X13973967Y2100000D01*
X18249170Y2100000D01*
X18270328Y1980007D01*
X18331247Y1874493D01*
X18331248Y1874492D01*
X18331249Y1874491D01*
X18424585Y1796172D01*
X18539079Y1754500D01*
X18539080Y1754500D01*
X18660920Y1754500D01*
X18660921Y1754500D01*
X18775415Y1796172D01*
X18868751Y1874491D01*
X18929672Y1980009D01*
X18950830Y2100000D01*
X19049170Y2100000D01*
X19070328Y1980007D01*
X19131247Y1874493D01*
X19131248Y1874492D01*
X19131249Y1874491D01*
X19224585Y1796172D01*
X19339079Y1754500D01*
X19339080Y1754500D01*
X19460920Y1754500D01*
X19460921Y1754500D01*
X19575415Y1796172D01*
X19668751Y1874491D01*
X19729672Y1980009D01*
X19750830Y2100000D01*
X19729672Y2219991D01*
X19729671Y2219993D01*
X19729671Y2219994D01*
X19683479Y2300000D01*
X26449170Y2300000D01*
X26470328Y2180007D01*
X26531247Y2074493D01*
X26531248Y2074492D01*
X26531249Y2074491D01*
X26624585Y1996172D01*
X26739079Y1954500D01*
X26739080Y1954500D01*
X26860920Y1954500D01*
X26860921Y1954500D01*
X26975415Y1996172D01*
X27068751Y2074491D01*
X27129672Y2180009D01*
X27150830Y2300000D01*
X27129672Y2419991D01*
X27129671Y2419993D01*
X27129671Y2419994D01*
X27068752Y2525508D01*
X26975415Y2603828D01*
X26973569Y2604500D01*
X26860921Y2645500D01*
X26739079Y2645500D01*
X26681832Y2624664D01*
X26624584Y2603828D01*
X26531247Y2525508D01*
X26470328Y2419994D01*
X26449170Y2300000D01*
X19683479Y2300000D01*
X19668752Y2325508D01*
X19575415Y2403828D01*
X19531007Y2419991D01*
X19460921Y2445500D01*
X19339079Y2445500D01*
X19281832Y2424664D01*
X19224584Y2403828D01*
X19131247Y2325508D01*
X19070328Y2219994D01*
X19049170Y2100000D01*
X18950830Y2100000D01*
X18929672Y2219991D01*
X18929671Y2219993D01*
X18929671Y2219994D01*
X18868752Y2325508D01*
X18775415Y2403828D01*
X18731007Y2419991D01*
X18660921Y2445500D01*
X18539079Y2445500D01*
X18481832Y2424664D01*
X18424584Y2403828D01*
X18331247Y2325508D01*
X18270328Y2219994D01*
X18249170Y2100000D01*
X13973967Y2100000D01*
X14473966Y2600000D01*
X16849170Y2600000D01*
X16870328Y2480007D01*
X16931247Y2374493D01*
X16931248Y2374492D01*
X16931249Y2374491D01*
X17024585Y2296172D01*
X17139079Y2254500D01*
X17139080Y2254500D01*
X17260920Y2254500D01*
X17260921Y2254500D01*
X17375415Y2296172D01*
X17468751Y2374491D01*
X17529672Y2480009D01*
X17550830Y2600000D01*
X17529672Y2719991D01*
X17529671Y2719993D01*
X17529671Y2719994D01*
X17468752Y2825508D01*
X17463390Y2830007D01*
X17375415Y2903828D01*
X17260921Y2945500D01*
X17139079Y2945500D01*
X17123935Y2939988D01*
X17024584Y2903828D01*
X16931247Y2825508D01*
X16870328Y2719994D01*
X16849170Y2600000D01*
X14473966Y2600000D01*
X14821340Y2947375D01*
X14855986Y2961726D01*
X14890634Y2947374D01*
X14904241Y2921235D01*
X14920327Y2830010D01*
X14981247Y2724493D01*
X14981248Y2724492D01*
X14981249Y2724491D01*
X15074585Y2646172D01*
X15189079Y2604500D01*
X15189080Y2604500D01*
X15310920Y2604500D01*
X15310921Y2604500D01*
X15425415Y2646172D01*
X15518751Y2724491D01*
X15579672Y2830009D01*
X15600830Y2950000D01*
X15592014Y3000000D01*
X20949170Y3000000D01*
X20970328Y2880007D01*
X21031247Y2774493D01*
X21031248Y2774492D01*
X21031249Y2774491D01*
X21124585Y2696172D01*
X21239079Y2654500D01*
X21239080Y2654500D01*
X21360920Y2654500D01*
X21360921Y2654500D01*
X21475415Y2696172D01*
X21568751Y2774491D01*
X21626487Y2874493D01*
X21629671Y2880007D01*
X21629671Y2880008D01*
X21629672Y2880009D01*
X21650830Y3000000D01*
X22749170Y3000000D01*
X22770328Y2880007D01*
X22831247Y2774493D01*
X22831248Y2774492D01*
X22831249Y2774491D01*
X22924585Y2696172D01*
X23039079Y2654500D01*
X23039080Y2654500D01*
X23160920Y2654500D01*
X23160921Y2654500D01*
X23275415Y2696172D01*
X23327226Y2739648D01*
X23362992Y2750925D01*
X23396258Y2733608D01*
X23401157Y2726611D01*
X23431247Y2674493D01*
X23431248Y2674492D01*
X23431249Y2674491D01*
X23524585Y2596172D01*
X23639079Y2554500D01*
X23639080Y2554500D01*
X23760920Y2554500D01*
X23760921Y2554500D01*
X23875415Y2596172D01*
X23968751Y2674491D01*
X24029672Y2780009D01*
X24050830Y2900000D01*
X24149170Y2900000D01*
X24170328Y2780007D01*
X24231247Y2674493D01*
X24231248Y2674492D01*
X24231249Y2674491D01*
X24324585Y2596172D01*
X24439079Y2554500D01*
X24439080Y2554500D01*
X24560920Y2554500D01*
X24560921Y2554500D01*
X24675415Y2596172D01*
X24768751Y2674491D01*
X24829672Y2780009D01*
X24842830Y2854637D01*
X24862979Y2886263D01*
X24899593Y2894381D01*
X24928618Y2877625D01*
X24931245Y2874495D01*
X24931248Y2874493D01*
X24931249Y2874491D01*
X25024585Y2796172D01*
X25139079Y2754500D01*
X25139080Y2754500D01*
X25260920Y2754500D01*
X25260921Y2754500D01*
X25375415Y2796172D01*
X25468751Y2874491D01*
X25483479Y2900000D01*
X28449170Y2900000D01*
X28470328Y2780007D01*
X28531247Y2674493D01*
X28531248Y2674492D01*
X28531249Y2674491D01*
X28624585Y2596172D01*
X28739079Y2554500D01*
X28739080Y2554500D01*
X28860920Y2554500D01*
X28860921Y2554500D01*
X28975415Y2596172D01*
X29068751Y2674491D01*
X29129672Y2780009D01*
X29150830Y2900000D01*
X29129672Y3019991D01*
X29129671Y3019993D01*
X29129671Y3019994D01*
X29068752Y3125508D01*
X28975415Y3203828D01*
X28931007Y3219991D01*
X28860921Y3245500D01*
X28739079Y3245500D01*
X28684154Y3225509D01*
X28624584Y3203828D01*
X28531247Y3125508D01*
X28470328Y3019994D01*
X28449170Y2900000D01*
X25483479Y2900000D01*
X25529672Y2980009D01*
X25550830Y3100000D01*
X25529672Y3219991D01*
X25529671Y3219993D01*
X25529671Y3219994D01*
X25468752Y3325508D01*
X25446118Y3344500D01*
X25375415Y3403828D01*
X25260921Y3445500D01*
X25139079Y3445500D01*
X25081832Y3424664D01*
X25024584Y3403828D01*
X24931247Y3325508D01*
X24870328Y3219994D01*
X24867478Y3203828D01*
X24862485Y3175509D01*
X24857170Y3145367D01*
X24837019Y3113737D01*
X24800405Y3105620D01*
X24771380Y3122376D01*
X24768753Y3125506D01*
X24768751Y3125509D01*
X24675415Y3203828D01*
X24560921Y3245500D01*
X24439079Y3245500D01*
X24384154Y3225509D01*
X24324584Y3203828D01*
X24231247Y3125508D01*
X24170328Y3019994D01*
X24149170Y2900000D01*
X24050830Y2900000D01*
X24029672Y3019991D01*
X24029671Y3019993D01*
X24029671Y3019994D01*
X23968752Y3125508D01*
X23875415Y3203828D01*
X23831007Y3219991D01*
X23760921Y3245500D01*
X23639079Y3245500D01*
X23584154Y3225509D01*
X23524584Y3203828D01*
X23472774Y3160354D01*
X23437006Y3149076D01*
X23403741Y3166393D01*
X23398842Y3173390D01*
X23368752Y3225508D01*
X23275415Y3303828D01*
X23215846Y3325509D01*
X23160921Y3345500D01*
X23039079Y3345500D01*
X22984154Y3325509D01*
X22924584Y3303828D01*
X22831247Y3225508D01*
X22770328Y3119994D01*
X22749170Y3000000D01*
X21650830Y3000000D01*
X21629672Y3119991D01*
X21629671Y3119993D01*
X21629671Y3119994D01*
X21568752Y3225508D01*
X21475415Y3303828D01*
X21415846Y3325509D01*
X21360921Y3345500D01*
X21239079Y3345500D01*
X21184154Y3325509D01*
X21124584Y3303828D01*
X21031247Y3225508D01*
X20970328Y3119994D01*
X20949170Y3000000D01*
X15592014Y3000000D01*
X15579672Y3069991D01*
X15579671Y3069993D01*
X15579671Y3069994D01*
X15518752Y3175508D01*
X15513390Y3180007D01*
X15425415Y3253828D01*
X15310921Y3295500D01*
X15287762Y3295500D01*
X15253114Y3309852D01*
X15238762Y3344500D01*
X15253114Y3379148D01*
X15263466Y3389502D01*
X15296474Y3422508D01*
X15311640Y3448777D01*
X15341214Y3500000D01*
X16749170Y3500000D01*
X16770328Y3380007D01*
X16831247Y3274493D01*
X16831248Y3274492D01*
X16831249Y3274491D01*
X16924585Y3196172D01*
X17039079Y3154500D01*
X17039080Y3154500D01*
X17160920Y3154500D01*
X17160921Y3154500D01*
X17275415Y3196172D01*
X17368751Y3274491D01*
X17429672Y3380009D01*
X17450830Y3500000D01*
X17429672Y3619991D01*
X17429671Y3619993D01*
X17429671Y3619994D01*
X17368752Y3725508D01*
X17275415Y3803828D01*
X17160921Y3845500D01*
X17039079Y3845500D01*
X16984154Y3825509D01*
X16924584Y3803828D01*
X16831247Y3725508D01*
X16770328Y3619994D01*
X16749170Y3500000D01*
X15341214Y3500000D01*
X15345251Y3506992D01*
X15370020Y3599431D01*
X15370500Y3601222D01*
X15370500Y3698778D01*
X15370500Y3948777D01*
X15370500Y3948780D01*
X15370499Y3948781D01*
X15356775Y4000000D01*
X18049170Y4000000D01*
X18070328Y3880007D01*
X18131247Y3774493D01*
X18131248Y3774492D01*
X18131249Y3774491D01*
X18224585Y3696172D01*
X18339079Y3654500D01*
X18339080Y3654500D01*
X18460920Y3654500D01*
X18460921Y3654500D01*
X18575415Y3696172D01*
X18668751Y3774491D01*
X18729672Y3880009D01*
X18733197Y3900000D01*
X18849170Y3900000D01*
X18870328Y3780007D01*
X18931247Y3674493D01*
X18931248Y3674492D01*
X18931249Y3674491D01*
X19024585Y3596172D01*
X19139079Y3554500D01*
X19139080Y3554500D01*
X19260920Y3554500D01*
X19260921Y3554500D01*
X19375415Y3596172D01*
X19468751Y3674491D01*
X19529672Y3780009D01*
X19550830Y3900000D01*
X19529672Y4019991D01*
X19529671Y4019993D01*
X19529671Y4019994D01*
X19468752Y4125508D01*
X19466386Y4127493D01*
X19375415Y4203828D01*
X19260921Y4245500D01*
X19139079Y4245500D01*
X19084154Y4225509D01*
X19024584Y4203828D01*
X18931247Y4125508D01*
X18870328Y4019994D01*
X18849170Y3900000D01*
X18733197Y3900000D01*
X18750830Y4000000D01*
X18729672Y4119991D01*
X18729671Y4119993D01*
X18729671Y4119994D01*
X18668752Y4225508D01*
X18645223Y4245251D01*
X18575415Y4303828D01*
X18460921Y4345500D01*
X18339079Y4345500D01*
X18282755Y4325000D01*
X18224584Y4303828D01*
X18131247Y4225508D01*
X18070328Y4119994D01*
X18049170Y4000000D01*
X15356775Y4000000D01*
X15351418Y4019991D01*
X15345251Y4043008D01*
X15296474Y4127492D01*
X15227492Y4196474D01*
X15214755Y4203828D01*
X15143009Y4245251D01*
X15143006Y4245252D01*
X15048780Y4270500D01*
X15048777Y4270500D01*
X14951223Y4270500D01*
X14951220Y4270500D01*
X14856993Y4245252D01*
X14856990Y4245251D01*
X14772507Y4196474D01*
X14772507Y4196473D01*
X14703527Y4127493D01*
X14703526Y4127493D01*
X14654749Y4043010D01*
X14654748Y4043007D01*
X14629500Y3948781D01*
X14629500Y3823764D01*
X14615148Y3789116D01*
X13728660Y2902629D01*
X13694012Y2888277D01*
X13659364Y2902629D01*
X13645758Y2928765D01*
X13629672Y3019991D01*
X13629671Y3019993D01*
X13629671Y3019994D01*
X13568752Y3125508D01*
X13475415Y3203828D01*
X13431007Y3219991D01*
X13360921Y3245500D01*
X13239079Y3245500D01*
X13184154Y3225509D01*
X13124584Y3203828D01*
X13031247Y3125508D01*
X12970328Y3019994D01*
X12949170Y2900000D01*
X12970328Y2780008D01*
X12991118Y2744000D01*
X12996013Y2706818D01*
X12973183Y2677065D01*
X12948683Y2670500D01*
X12319500Y2670500D01*
X12284852Y2684852D01*
X12270500Y2719500D01*
X12270500Y3800000D01*
X12949170Y3800000D01*
X12970328Y3680007D01*
X13031247Y3574493D01*
X13031248Y3574492D01*
X13031249Y3574491D01*
X13124585Y3496172D01*
X13239079Y3454500D01*
X13239080Y3454500D01*
X13360920Y3454500D01*
X13360921Y3454500D01*
X13475415Y3496172D01*
X13568751Y3574491D01*
X13609748Y3645500D01*
X13629671Y3680007D01*
X13629671Y3680008D01*
X13629672Y3680009D01*
X13650830Y3800000D01*
X13629672Y3919991D01*
X13629671Y3919993D01*
X13629671Y3919994D01*
X13568752Y4025508D01*
X13475415Y4103828D01*
X13431007Y4119991D01*
X13360921Y4145500D01*
X13239079Y4145500D01*
X13189605Y4127493D01*
X13124584Y4103828D01*
X13031247Y4025508D01*
X12970328Y3919994D01*
X12949170Y3800000D01*
X12270500Y3800000D01*
X12270500Y4380500D01*
X12284852Y4415148D01*
X12319500Y4429500D01*
X13548780Y4429500D01*
X13548780Y4429501D01*
X13643008Y4454749D01*
X13727492Y4503526D01*
X13796474Y4572508D01*
X13845251Y4656992D01*
X13870499Y4751220D01*
X13870500Y4751220D01*
X13870500Y4848780D01*
X13870499Y4848781D01*
X13845251Y4943007D01*
X13845250Y4943010D01*
X13832180Y4965648D01*
X13812347Y5000000D01*
X20549170Y5000000D01*
X20570328Y4880007D01*
X20631247Y4774493D01*
X20631248Y4774492D01*
X20631249Y4774491D01*
X20675290Y4737536D01*
X20692607Y4704270D01*
X20681329Y4668503D01*
X20675290Y4662464D01*
X20631247Y4625508D01*
X20570328Y4519994D01*
X20549170Y4400000D01*
X20570328Y4280007D01*
X20631247Y4174493D01*
X20631248Y4174492D01*
X20631249Y4174491D01*
X20724585Y4096172D01*
X20839079Y4054500D01*
X20839080Y4054500D01*
X20960920Y4054500D01*
X20960921Y4054500D01*
X21075415Y4096172D01*
X21168751Y4174491D01*
X21229672Y4280009D01*
X21250830Y4400000D01*
X21229672Y4519991D01*
X21229671Y4519993D01*
X21229671Y4519994D01*
X21191286Y4586479D01*
X21186391Y4623661D01*
X21209221Y4653414D01*
X21233721Y4659979D01*
X21847005Y4659979D01*
X21881653Y4645627D01*
X21896005Y4610979D01*
X21882571Y4578549D01*
X21882831Y4578360D01*
X21882046Y4577280D01*
X21881653Y4576331D01*
X21880567Y4575246D01*
X21880562Y4575239D01*
X21820096Y4456565D01*
X21820095Y4456564D01*
X21820095Y4456562D01*
X21799258Y4325000D01*
X21820095Y4193438D01*
X21820095Y4193437D01*
X21820096Y4193436D01*
X21880562Y4074762D01*
X21880567Y4074755D01*
X21974755Y3980567D01*
X22058918Y3937684D01*
X22083274Y3909167D01*
X22080332Y3871780D01*
X22068169Y3856489D01*
X22031247Y3825508D01*
X21970328Y3719994D01*
X21949170Y3600000D01*
X21970328Y3480007D01*
X22031247Y3374493D01*
X22031248Y3374492D01*
X22031249Y3374491D01*
X22124585Y3296172D01*
X22239079Y3254500D01*
X22239080Y3254500D01*
X22360920Y3254500D01*
X22360921Y3254500D01*
X22475415Y3296172D01*
X22568751Y3374491D01*
X22629672Y3480009D01*
X22650830Y3600000D01*
X22629672Y3719991D01*
X22629671Y3719993D01*
X22629671Y3719994D01*
X22568752Y3825508D01*
X22474365Y3904709D01*
X22457048Y3937975D01*
X22468326Y3973742D01*
X22472616Y3977742D01*
X22472518Y3977840D01*
X22520187Y4025509D01*
X22569433Y4074755D01*
X22584247Y4103828D01*
X22605479Y4145500D01*
X22629905Y4193438D01*
X22650742Y4325000D01*
X22629905Y4456562D01*
X22605975Y4503527D01*
X22569437Y4575239D01*
X22569432Y4575246D01*
X22568347Y4576331D01*
X22567953Y4577280D01*
X22567169Y4578360D01*
X22567428Y4578549D01*
X22553995Y4610979D01*
X22568347Y4645627D01*
X22602995Y4659979D01*
X23122005Y4659979D01*
X23156653Y4645627D01*
X23171005Y4610979D01*
X23157571Y4578549D01*
X23157831Y4578360D01*
X23157046Y4577280D01*
X23156653Y4576331D01*
X23155567Y4575246D01*
X23155562Y4575239D01*
X23095096Y4456565D01*
X23095095Y4456564D01*
X23095095Y4456562D01*
X23074258Y4325000D01*
X23095095Y4193438D01*
X23095095Y4193437D01*
X23095096Y4193436D01*
X23155562Y4074762D01*
X23155567Y4074755D01*
X23249754Y3980568D01*
X23249761Y3980563D01*
X23312146Y3948777D01*
X23368438Y3920095D01*
X23500000Y3899258D01*
X23631562Y3920095D01*
X23713877Y3962037D01*
X23750238Y3980563D01*
X23750240Y3980565D01*
X23750245Y3980567D01*
X23844433Y4074755D01*
X23859247Y4103828D01*
X23880479Y4145500D01*
X23904905Y4193438D01*
X23925742Y4325000D01*
X23904905Y4456562D01*
X23880975Y4503527D01*
X23844437Y4575239D01*
X23844432Y4575246D01*
X23843347Y4576331D01*
X23842953Y4577280D01*
X23842169Y4578360D01*
X23842428Y4578549D01*
X23828995Y4610979D01*
X23843347Y4645627D01*
X23877995Y4659979D01*
X24397005Y4659979D01*
X24431653Y4645627D01*
X24446005Y4610979D01*
X24432571Y4578549D01*
X24432831Y4578360D01*
X24432046Y4577280D01*
X24431653Y4576331D01*
X24430567Y4575246D01*
X24430562Y4575239D01*
X24370096Y4456565D01*
X24370095Y4456564D01*
X24370095Y4456562D01*
X24349258Y4325000D01*
X24370095Y4193438D01*
X24370095Y4193437D01*
X24370096Y4193436D01*
X24430562Y4074762D01*
X24430567Y4074755D01*
X24524754Y3980568D01*
X24524761Y3980563D01*
X24587146Y3948777D01*
X24643438Y3920095D01*
X24775000Y3899258D01*
X24906562Y3920095D01*
X24988877Y3962037D01*
X25025238Y3980563D01*
X25025240Y3980565D01*
X25025245Y3980567D01*
X25119433Y4074755D01*
X25134247Y4103828D01*
X25155479Y4145500D01*
X25179905Y4193438D01*
X25200742Y4325000D01*
X25179905Y4456562D01*
X25155975Y4503527D01*
X25119437Y4575239D01*
X25119432Y4575246D01*
X25118347Y4576331D01*
X25117953Y4577280D01*
X25117169Y4578360D01*
X25117428Y4578549D01*
X25103995Y4610979D01*
X25118347Y4645627D01*
X25152995Y4659979D01*
X25630500Y4659979D01*
X25665148Y4645627D01*
X25679500Y4610979D01*
X25679500Y3744639D01*
X25708156Y3637695D01*
X25708157Y3637691D01*
X25754378Y3557636D01*
X25763517Y3541807D01*
X25841807Y3463517D01*
X25867341Y3448775D01*
X25937690Y3408158D01*
X25937692Y3408158D01*
X25937693Y3408157D01*
X25953849Y3403828D01*
X26044638Y3379500D01*
X26044640Y3379500D01*
X26155362Y3379500D01*
X26208833Y3393829D01*
X26262307Y3408157D01*
X26358193Y3463517D01*
X26436483Y3541807D01*
X26491843Y3637693D01*
X26513896Y3719994D01*
X26520500Y3744639D01*
X26520500Y5300000D01*
X29349170Y5300000D01*
X29370328Y5180007D01*
X29431247Y5074493D01*
X29431248Y5074492D01*
X29431249Y5074491D01*
X29524585Y4996172D01*
X29639079Y4954500D01*
X29639080Y4954500D01*
X29760920Y4954500D01*
X29760921Y4954500D01*
X29875415Y4996172D01*
X29968751Y5074491D01*
X30029672Y5180009D01*
X30050830Y5300000D01*
X30029672Y5419991D01*
X30029671Y5419993D01*
X30029671Y5419994D01*
X29968752Y5525508D01*
X29955366Y5536740D01*
X29875415Y5603828D01*
X29760921Y5645500D01*
X29639079Y5645500D01*
X29630161Y5642254D01*
X29524584Y5603828D01*
X29431247Y5525508D01*
X29370328Y5419994D01*
X29349170Y5300000D01*
X26520500Y5300000D01*
X26520500Y5855362D01*
X26491843Y5962306D01*
X26491842Y5962310D01*
X26455219Y6025742D01*
X26436483Y6058193D01*
X26358193Y6136483D01*
X26326987Y6154500D01*
X26262309Y6191843D01*
X26262305Y6191844D01*
X26231867Y6200000D01*
X29349170Y6200000D01*
X29370328Y6080007D01*
X29431247Y5974493D01*
X29431248Y5974492D01*
X29431249Y5974491D01*
X29524585Y5896172D01*
X29639079Y5854500D01*
X29639080Y5854500D01*
X29760920Y5854500D01*
X29760921Y5854500D01*
X29875415Y5896172D01*
X29968751Y5974491D01*
X30014944Y6054500D01*
X30029671Y6080007D01*
X30029671Y6080008D01*
X30029672Y6080009D01*
X30050830Y6200000D01*
X30029672Y6319991D01*
X30029671Y6319993D01*
X30029671Y6319994D01*
X29968752Y6425508D01*
X29875415Y6503828D01*
X29831007Y6519991D01*
X29760921Y6545500D01*
X29639079Y6545500D01*
X29598051Y6530567D01*
X29524584Y6503828D01*
X29431247Y6425508D01*
X29370328Y6319994D01*
X29349170Y6200000D01*
X26231867Y6200000D01*
X26155362Y6220500D01*
X26155360Y6220500D01*
X26044640Y6220500D01*
X26044638Y6220500D01*
X25937694Y6191844D01*
X25937690Y6191843D01*
X25841806Y6136483D01*
X25841806Y6136482D01*
X25763518Y6058194D01*
X25763517Y6058194D01*
X25708157Y5962310D01*
X25708156Y5962306D01*
X25679500Y5855362D01*
X25679500Y5349979D01*
X25665148Y5315331D01*
X25630500Y5300979D01*
X25174542Y5300979D01*
X25139894Y5315331D01*
X25125542Y5349979D01*
X25130882Y5372224D01*
X25146654Y5403181D01*
X25179905Y5468438D01*
X25200742Y5600000D01*
X25179905Y5731562D01*
X25140136Y5809614D01*
X25119437Y5850239D01*
X25119432Y5850246D01*
X25025245Y5944433D01*
X25025238Y5944438D01*
X24906564Y6004904D01*
X24906563Y6004905D01*
X24906562Y6004905D01*
X24775000Y6025742D01*
X24643438Y6004905D01*
X24643436Y6004905D01*
X24643435Y6004904D01*
X24524761Y5944438D01*
X24524754Y5944433D01*
X24430567Y5850246D01*
X24430562Y5850239D01*
X24370096Y5731565D01*
X24370095Y5731564D01*
X24370095Y5731562D01*
X24355950Y5642254D01*
X24349258Y5600000D01*
X24370095Y5468438D01*
X24419118Y5372224D01*
X24422060Y5334837D01*
X24397703Y5306319D01*
X24375458Y5300979D01*
X23899542Y5300979D01*
X23864894Y5315331D01*
X23850542Y5349979D01*
X23855882Y5372224D01*
X23871654Y5403181D01*
X23904905Y5468438D01*
X23925742Y5600000D01*
X23904905Y5731562D01*
X23865136Y5809614D01*
X23844437Y5850239D01*
X23844432Y5850246D01*
X23750245Y5944433D01*
X23750238Y5944438D01*
X23631564Y6004904D01*
X23631563Y6004905D01*
X23631562Y6004905D01*
X23500000Y6025742D01*
X23368438Y6004905D01*
X23368436Y6004905D01*
X23368435Y6004904D01*
X23249761Y5944438D01*
X23249754Y5944433D01*
X23155567Y5850246D01*
X23155562Y5850239D01*
X23095096Y5731565D01*
X23095095Y5731564D01*
X23095095Y5731562D01*
X23080950Y5642254D01*
X23074258Y5600000D01*
X23095095Y5468438D01*
X23144118Y5372224D01*
X23147060Y5334837D01*
X23122703Y5306319D01*
X23100458Y5300979D01*
X22624542Y5300979D01*
X22589894Y5315331D01*
X22575542Y5349979D01*
X22580882Y5372224D01*
X22596654Y5403181D01*
X22629905Y5468438D01*
X22650742Y5600000D01*
X22629905Y5731562D01*
X22590136Y5809614D01*
X22569437Y5850239D01*
X22569432Y5850246D01*
X22475245Y5944433D01*
X22475238Y5944438D01*
X22356564Y6004904D01*
X22356563Y6004905D01*
X22356562Y6004905D01*
X22225000Y6025742D01*
X22093438Y6004905D01*
X22093436Y6004905D01*
X22093435Y6004904D01*
X21974761Y5944438D01*
X21974754Y5944433D01*
X21880567Y5850246D01*
X21880562Y5850239D01*
X21820096Y5731565D01*
X21820095Y5731564D01*
X21820095Y5731562D01*
X21805950Y5642254D01*
X21799258Y5600000D01*
X21820095Y5468438D01*
X21869118Y5372224D01*
X21872060Y5334837D01*
X21847703Y5306319D01*
X21825458Y5300979D01*
X21091884Y5300979D01*
X21075125Y5303934D01*
X21012007Y5326907D01*
X20960921Y5345500D01*
X20839079Y5345500D01*
X20781832Y5324664D01*
X20724584Y5303828D01*
X20631247Y5225508D01*
X20570328Y5119994D01*
X20549170Y5000000D01*
X13812347Y5000000D01*
X13796474Y5027492D01*
X13727492Y5096474D01*
X13643009Y5145251D01*
X13643006Y5145252D01*
X13636698Y5146942D01*
X13606945Y5169772D01*
X13602050Y5206954D01*
X13617881Y5231807D01*
X13668751Y5274491D01*
X13729672Y5380009D01*
X13733197Y5400000D01*
X14849170Y5400000D01*
X14870328Y5280007D01*
X14931247Y5174493D01*
X14931248Y5174492D01*
X14931249Y5174491D01*
X15024585Y5096172D01*
X15139079Y5054500D01*
X15139080Y5054500D01*
X15260920Y5054500D01*
X15260921Y5054500D01*
X15375415Y5096172D01*
X15468751Y5174491D01*
X15510345Y5246534D01*
X15529671Y5280007D01*
X15529671Y5280008D01*
X15529672Y5280009D01*
X15550830Y5400000D01*
X16149170Y5400000D01*
X16170328Y5280007D01*
X16231247Y5174493D01*
X16231248Y5174492D01*
X16231249Y5174491D01*
X16324585Y5096172D01*
X16439079Y5054500D01*
X16439080Y5054500D01*
X16560920Y5054500D01*
X16560921Y5054500D01*
X16675415Y5096172D01*
X16768751Y5174491D01*
X16810345Y5246534D01*
X16829671Y5280007D01*
X16829671Y5280008D01*
X16829672Y5280009D01*
X16850830Y5400000D01*
X16847877Y5416746D01*
X16962048Y5416746D01*
X16983206Y5296753D01*
X17044125Y5191239D01*
X17044126Y5191238D01*
X17044127Y5191237D01*
X17137463Y5112918D01*
X17251957Y5071246D01*
X17251958Y5071246D01*
X17373798Y5071246D01*
X17373799Y5071246D01*
X17488293Y5112918D01*
X17581629Y5191237D01*
X17642550Y5296755D01*
X17663708Y5416746D01*
X17642550Y5536737D01*
X17642549Y5536739D01*
X17642549Y5536740D01*
X17581630Y5642254D01*
X17488293Y5720574D01*
X17458095Y5731565D01*
X17373799Y5762246D01*
X17251957Y5762246D01*
X17221669Y5751222D01*
X17137462Y5720574D01*
X17044125Y5642254D01*
X16983206Y5536740D01*
X16962048Y5416746D01*
X16847877Y5416746D01*
X16829672Y5519991D01*
X16829671Y5519993D01*
X16829671Y5519994D01*
X16768752Y5625508D01*
X16766386Y5627493D01*
X16675415Y5703828D01*
X16560921Y5745500D01*
X16439079Y5745500D01*
X16384154Y5725509D01*
X16324584Y5703828D01*
X16231247Y5625508D01*
X16170328Y5519994D01*
X16149170Y5400000D01*
X15550830Y5400000D01*
X15529672Y5519991D01*
X15529671Y5519993D01*
X15529671Y5519994D01*
X15468752Y5625508D01*
X15466386Y5627493D01*
X15375415Y5703828D01*
X15260921Y5745500D01*
X15139079Y5745500D01*
X15084154Y5725509D01*
X15024584Y5703828D01*
X14931247Y5625508D01*
X14870328Y5519994D01*
X14849170Y5400000D01*
X13733197Y5400000D01*
X13750830Y5500000D01*
X13729672Y5619991D01*
X13729671Y5619993D01*
X13729671Y5619994D01*
X13668752Y5725508D01*
X13575415Y5803828D01*
X13559518Y5809614D01*
X13460921Y5845500D01*
X13339079Y5845500D01*
X13281832Y5824664D01*
X13224584Y5803828D01*
X13131247Y5725508D01*
X13070328Y5619994D01*
X13049170Y5500000D01*
X13070328Y5380007D01*
X13131247Y5274493D01*
X13152051Y5257036D01*
X13169368Y5223770D01*
X13158090Y5188003D01*
X13124824Y5170686D01*
X13120554Y5170500D01*
X12319500Y5170500D01*
X12284852Y5184852D01*
X12270500Y5219500D01*
X12270500Y5448779D01*
X12256622Y5500568D01*
X12256622Y5500572D01*
X12245251Y5543007D01*
X12245250Y5543011D01*
X12212675Y5599431D01*
X12210136Y5603828D01*
X12196474Y5627492D01*
X12127492Y5696474D01*
X12014352Y5809614D01*
X12000000Y5844262D01*
X12000000Y5855738D01*
X12014352Y5890386D01*
X12398459Y6274493D01*
X12787492Y6663527D01*
X12822138Y6677877D01*
X12856786Y6663525D01*
X12871138Y6628877D01*
X12870394Y6620368D01*
X12849170Y6500001D01*
X12870328Y6380007D01*
X12931247Y6274493D01*
X12931248Y6274492D01*
X12931249Y6274491D01*
X13024585Y6196172D01*
X13139079Y6154500D01*
X13139080Y6154500D01*
X13260920Y6154500D01*
X13260921Y6154500D01*
X13375415Y6196172D01*
X13468751Y6274491D01*
X13529672Y6380009D01*
X13533197Y6400000D01*
X16549170Y6400000D01*
X16570328Y6280007D01*
X16631247Y6174493D01*
X16631248Y6174492D01*
X16631249Y6174491D01*
X16724585Y6096172D01*
X16839079Y6054500D01*
X16839080Y6054500D01*
X16960920Y6054500D01*
X16960921Y6054500D01*
X17075415Y6096172D01*
X17168751Y6174491D01*
X17229672Y6280009D01*
X17250830Y6400000D01*
X17229672Y6519991D01*
X17229671Y6519993D01*
X17229671Y6519994D01*
X17168752Y6625508D01*
X17163390Y6630007D01*
X17075415Y6703828D01*
X16960921Y6745500D01*
X16839079Y6745500D01*
X16784154Y6725509D01*
X16724584Y6703828D01*
X16631247Y6625508D01*
X16570328Y6519994D01*
X16549170Y6400000D01*
X13533197Y6400000D01*
X13550830Y6500000D01*
X13529672Y6619991D01*
X13529671Y6619993D01*
X13529671Y6619994D01*
X13468752Y6725508D01*
X13375415Y6803828D01*
X13291265Y6834456D01*
X13263616Y6859791D01*
X13262952Y6875000D01*
X21799258Y6875000D01*
X21820095Y6743438D01*
X21820095Y6743437D01*
X21820096Y6743436D01*
X21880562Y6624762D01*
X21880567Y6624755D01*
X21974754Y6530568D01*
X21974761Y6530563D01*
X22027233Y6503828D01*
X22093438Y6470095D01*
X22225000Y6449258D01*
X22356562Y6470095D01*
X22438877Y6512037D01*
X22475238Y6530563D01*
X22475240Y6530565D01*
X22475245Y6530567D01*
X22569433Y6624755D01*
X22569818Y6625509D01*
X22596500Y6677877D01*
X22629905Y6743438D01*
X22650742Y6875000D01*
X23074258Y6875000D01*
X23095095Y6743438D01*
X23095095Y6743437D01*
X23095096Y6743436D01*
X23155562Y6624762D01*
X23155567Y6624755D01*
X23249754Y6530568D01*
X23249761Y6530563D01*
X23302233Y6503828D01*
X23368438Y6470095D01*
X23500000Y6449258D01*
X23631562Y6470095D01*
X23713877Y6512037D01*
X23750238Y6530563D01*
X23750240Y6530565D01*
X23750245Y6530567D01*
X23844433Y6624755D01*
X23844818Y6625509D01*
X23871500Y6677877D01*
X23904905Y6743438D01*
X23925742Y6875000D01*
X24349258Y6875000D01*
X24370095Y6743438D01*
X24370095Y6743437D01*
X24370096Y6743436D01*
X24430562Y6624762D01*
X24430567Y6624755D01*
X24524754Y6530568D01*
X24524761Y6530563D01*
X24577233Y6503828D01*
X24643438Y6470095D01*
X24775000Y6449258D01*
X24906562Y6470095D01*
X24988877Y6512037D01*
X25025238Y6530563D01*
X25025240Y6530565D01*
X25025245Y6530567D01*
X25119433Y6624755D01*
X25119818Y6625509D01*
X25146500Y6677877D01*
X25179905Y6743438D01*
X25180944Y6750000D01*
X25699170Y6750000D01*
X25720328Y6630007D01*
X25781247Y6524493D01*
X25781248Y6524492D01*
X25781249Y6524491D01*
X25874585Y6446172D01*
X25989079Y6404500D01*
X25989080Y6404500D01*
X26110920Y6404500D01*
X26110921Y6404500D01*
X26225415Y6446172D01*
X26318751Y6524491D01*
X26377074Y6625509D01*
X26379671Y6630007D01*
X26379671Y6630008D01*
X26379672Y6630009D01*
X26400830Y6750000D01*
X26379672Y6869991D01*
X26379671Y6869993D01*
X26379671Y6869994D01*
X26318752Y6975508D01*
X26313751Y6979704D01*
X26225415Y7053828D01*
X26110921Y7095500D01*
X25989079Y7095500D01*
X25931832Y7074664D01*
X25874584Y7053828D01*
X25781247Y6975508D01*
X25720328Y6869994D01*
X25699170Y6750000D01*
X25180944Y6750000D01*
X25200742Y6875000D01*
X25179905Y7006562D01*
X25155822Y7053828D01*
X25119437Y7125239D01*
X25119432Y7125246D01*
X25025245Y7219433D01*
X25025238Y7219438D01*
X24906564Y7279904D01*
X24906563Y7279905D01*
X24906562Y7279905D01*
X24775000Y7300742D01*
X24643438Y7279905D01*
X24643436Y7279905D01*
X24643435Y7279904D01*
X24524761Y7219438D01*
X24524754Y7219433D01*
X24430567Y7125246D01*
X24430562Y7125239D01*
X24370096Y7006565D01*
X24370095Y7006564D01*
X24370095Y7006562D01*
X24349258Y6875000D01*
X23925742Y6875000D01*
X23904905Y7006562D01*
X23880822Y7053828D01*
X23844437Y7125239D01*
X23844432Y7125246D01*
X23750245Y7219433D01*
X23750238Y7219438D01*
X23631564Y7279904D01*
X23631563Y7279905D01*
X23631562Y7279905D01*
X23500000Y7300742D01*
X23368438Y7279905D01*
X23368436Y7279905D01*
X23368435Y7279904D01*
X23249761Y7219438D01*
X23249754Y7219433D01*
X23155567Y7125246D01*
X23155562Y7125239D01*
X23095096Y7006565D01*
X23095095Y7006564D01*
X23095095Y7006562D01*
X23074258Y6875000D01*
X22650742Y6875000D01*
X22629905Y7006562D01*
X22605822Y7053828D01*
X22569437Y7125239D01*
X22569432Y7125246D01*
X22475245Y7219433D01*
X22475238Y7219438D01*
X22356564Y7279904D01*
X22356563Y7279905D01*
X22356562Y7279905D01*
X22225000Y7300742D01*
X22093438Y7279905D01*
X22093436Y7279905D01*
X22093435Y7279904D01*
X21974761Y7219438D01*
X21974754Y7219433D01*
X21880567Y7125246D01*
X21880562Y7125239D01*
X21820096Y7006565D01*
X21820095Y7006564D01*
X21820095Y7006562D01*
X21799258Y6875000D01*
X13262952Y6875000D01*
X13261980Y6897259D01*
X13287316Y6924909D01*
X13308025Y6929500D01*
X13448780Y6929500D01*
X13448780Y6929501D01*
X13543008Y6954749D01*
X13627492Y7003526D01*
X13696474Y7072508D01*
X13745251Y7156992D01*
X13770499Y7251220D01*
X13770500Y7251220D01*
X13770500Y7348780D01*
X13770499Y7348781D01*
X13745251Y7443007D01*
X13745250Y7443010D01*
X13728219Y7472508D01*
X13696474Y7527492D01*
X13687333Y7536633D01*
X13672981Y7571281D01*
X13687333Y7605929D01*
X13690477Y7608812D01*
X13768751Y7674491D01*
X13829672Y7780009D01*
X13850830Y7900000D01*
X13829672Y8019991D01*
X13829671Y8019993D01*
X13829671Y8019994D01*
X13768752Y8125508D01*
X13675415Y8203828D01*
X13560921Y8245500D01*
X13439079Y8245500D01*
X13381832Y8224664D01*
X13324584Y8203828D01*
X13231247Y8125508D01*
X13170328Y8019994D01*
X13149170Y7900000D01*
X13170328Y7780008D01*
X13191118Y7744000D01*
X13196013Y7706818D01*
X13173183Y7677065D01*
X13148683Y7670500D01*
X13073762Y7670500D01*
X13039114Y7684852D01*
X12884852Y7839115D01*
X12870500Y7873763D01*
X12870500Y8525500D01*
X14849170Y8525500D01*
X14870328Y8405507D01*
X14931247Y8299993D01*
X14990484Y8250286D01*
X15007801Y8217020D01*
X14996523Y8181253D01*
X14990484Y8175214D01*
X14931247Y8125508D01*
X14870328Y8019994D01*
X14849170Y7900000D01*
X14870328Y7780007D01*
X14931247Y7674493D01*
X14931248Y7674492D01*
X14931249Y7674491D01*
X15024585Y7596172D01*
X15139079Y7554500D01*
X15139080Y7554500D01*
X15260920Y7554500D01*
X15260921Y7554500D01*
X15375415Y7596172D01*
X15468751Y7674491D01*
X15529672Y7780009D01*
X15533197Y7800000D01*
X16149170Y7800000D01*
X16170328Y7680007D01*
X16231247Y7574493D01*
X16231248Y7574492D01*
X16231249Y7574491D01*
X16324585Y7496172D01*
X16439079Y7454500D01*
X16439080Y7454500D01*
X16560920Y7454500D01*
X16560921Y7454500D01*
X16675415Y7496172D01*
X16768751Y7574491D01*
X16829672Y7680009D01*
X16850830Y7800000D01*
X16829672Y7919991D01*
X16829671Y7919993D01*
X16829671Y7919994D01*
X16768752Y8025508D01*
X16675415Y8103828D01*
X16615846Y8125509D01*
X16560921Y8145500D01*
X16439079Y8145500D01*
X16384154Y8125509D01*
X16324584Y8103828D01*
X16231247Y8025508D01*
X16170328Y7919994D01*
X16149170Y7800000D01*
X15533197Y7800000D01*
X15550830Y7900000D01*
X15529672Y8019991D01*
X15529671Y8019993D01*
X15529671Y8019994D01*
X15468752Y8125508D01*
X15409515Y8175214D01*
X15396612Y8200000D01*
X17049170Y8200000D01*
X17070328Y8080007D01*
X17131247Y7974493D01*
X17131248Y7974492D01*
X17131249Y7974491D01*
X17224585Y7896172D01*
X17339079Y7854500D01*
X17339080Y7854500D01*
X17460920Y7854500D01*
X17460921Y7854500D01*
X17575415Y7896172D01*
X17668751Y7974491D01*
X17729672Y8080009D01*
X17750830Y8200000D01*
X18949170Y8200000D01*
X18970328Y8080007D01*
X19031247Y7974493D01*
X19031248Y7974492D01*
X19031249Y7974491D01*
X19124585Y7896172D01*
X19239079Y7854500D01*
X19239080Y7854500D01*
X19360920Y7854500D01*
X19360921Y7854500D01*
X19475415Y7896172D01*
X19568751Y7974491D01*
X19629672Y8080009D01*
X19650830Y8200000D01*
X20649170Y8200000D01*
X20670328Y8080007D01*
X20731247Y7974493D01*
X20731248Y7974492D01*
X20731249Y7974491D01*
X20824585Y7896172D01*
X20939079Y7854500D01*
X20939080Y7854500D01*
X21060920Y7854500D01*
X21060921Y7854500D01*
X21175415Y7896172D01*
X21268751Y7974491D01*
X21329672Y8080009D01*
X21333197Y8100000D01*
X21449170Y8100000D01*
X21470328Y7980007D01*
X21531247Y7874493D01*
X21531248Y7874492D01*
X21531249Y7874491D01*
X21624585Y7796172D01*
X21739079Y7754500D01*
X21739080Y7754500D01*
X21860920Y7754500D01*
X21860921Y7754500D01*
X21975415Y7796172D01*
X22039564Y7850000D01*
X28749170Y7850000D01*
X28770328Y7730007D01*
X28831247Y7624493D01*
X28831248Y7624492D01*
X28831249Y7624491D01*
X28924585Y7546172D01*
X29039079Y7504500D01*
X29039080Y7504500D01*
X29160920Y7504500D01*
X29160921Y7504500D01*
X29275415Y7546172D01*
X29368751Y7624491D01*
X29429672Y7730009D01*
X29450830Y7850000D01*
X29429672Y7969991D01*
X29429671Y7969993D01*
X29429671Y7969994D01*
X29368752Y8075508D01*
X29363390Y8080007D01*
X29275415Y8153828D01*
X29160921Y8195500D01*
X29039079Y8195500D01*
X28996512Y8180007D01*
X28924584Y8153828D01*
X28831247Y8075508D01*
X28770328Y7969994D01*
X28749170Y7850000D01*
X22039564Y7850000D01*
X22068751Y7874491D01*
X22129672Y7980009D01*
X22150830Y8100000D01*
X22129672Y8219991D01*
X22129671Y8219993D01*
X22129671Y8219994D01*
X22068752Y8325508D01*
X21975415Y8403828D01*
X21931007Y8419991D01*
X21860921Y8445500D01*
X21739079Y8445500D01*
X21684154Y8425509D01*
X21624584Y8403828D01*
X21531247Y8325508D01*
X21470328Y8219994D01*
X21449170Y8100000D01*
X21333197Y8100000D01*
X21350830Y8200000D01*
X21329672Y8319991D01*
X21329671Y8319993D01*
X21329671Y8319994D01*
X21268752Y8425508D01*
X21175415Y8503828D01*
X21060921Y8545500D01*
X20939079Y8545500D01*
X20903128Y8532415D01*
X20824584Y8503828D01*
X20731247Y8425508D01*
X20670328Y8319994D01*
X20649170Y8200000D01*
X19650830Y8200000D01*
X19629672Y8319991D01*
X19629671Y8319993D01*
X19629671Y8319994D01*
X19594449Y8381000D01*
X19589554Y8418182D01*
X19612384Y8447935D01*
X19636884Y8454500D01*
X19760920Y8454500D01*
X19760921Y8454500D01*
X19875415Y8496172D01*
X19968751Y8574491D01*
X19987800Y8607487D01*
X20017552Y8630316D01*
X20054734Y8625422D01*
X20061727Y8620526D01*
X20114585Y8576172D01*
X20229079Y8534500D01*
X20229080Y8534500D01*
X20350920Y8534500D01*
X20350921Y8534500D01*
X20465415Y8576172D01*
X20558751Y8654491D01*
X20619672Y8760009D01*
X20640830Y8880000D01*
X20637303Y8900000D01*
X28299170Y8900000D01*
X28320328Y8780007D01*
X28381247Y8674493D01*
X28381248Y8674492D01*
X28381249Y8674491D01*
X28474585Y8596172D01*
X28589079Y8554500D01*
X28589080Y8554500D01*
X28710920Y8554500D01*
X28710921Y8554500D01*
X28825415Y8596172D01*
X28918751Y8674491D01*
X28979672Y8780009D01*
X29000830Y8900000D01*
X28979672Y9019991D01*
X28979671Y9019993D01*
X28979671Y9019994D01*
X28918752Y9125508D01*
X28825415Y9203828D01*
X28765871Y9225500D01*
X28710921Y9245500D01*
X28589079Y9245500D01*
X28534129Y9225500D01*
X28474584Y9203828D01*
X28381247Y9125508D01*
X28320328Y9019994D01*
X28299170Y8900000D01*
X20637303Y8900000D01*
X20619672Y8999991D01*
X20619671Y8999993D01*
X20619671Y8999994D01*
X20558752Y9105508D01*
X20558748Y9105511D01*
X20465415Y9183828D01*
X20350921Y9225500D01*
X20229079Y9225500D01*
X20171832Y9204664D01*
X20114584Y9183828D01*
X20021249Y9105511D01*
X20021249Y9105510D01*
X20002199Y9072515D01*
X19972445Y9049685D01*
X19935263Y9054581D01*
X19928267Y9059480D01*
X19875415Y9103828D01*
X19815846Y9125509D01*
X19760921Y9145500D01*
X19639079Y9145500D01*
X19584154Y9125509D01*
X19524584Y9103828D01*
X19431247Y9025508D01*
X19370328Y8919994D01*
X19349170Y8800000D01*
X19370328Y8680007D01*
X19405551Y8619000D01*
X19410446Y8581818D01*
X19387616Y8552065D01*
X19363116Y8545500D01*
X19360921Y8545500D01*
X19239079Y8545500D01*
X19203128Y8532415D01*
X19124584Y8503828D01*
X19031247Y8425508D01*
X18970328Y8319994D01*
X18949170Y8200000D01*
X17750830Y8200000D01*
X17729672Y8319991D01*
X17729671Y8319993D01*
X17729671Y8319994D01*
X17668752Y8425508D01*
X17575415Y8503828D01*
X17460921Y8545500D01*
X17339079Y8545500D01*
X17303128Y8532415D01*
X17224584Y8503828D01*
X17131247Y8425508D01*
X17070328Y8319994D01*
X17049170Y8200000D01*
X15396612Y8200000D01*
X15392198Y8208480D01*
X15403476Y8244247D01*
X15409515Y8250286D01*
X15468751Y8299991D01*
X15515522Y8381000D01*
X15529671Y8405507D01*
X15529671Y8405508D01*
X15529672Y8405509D01*
X15550830Y8525500D01*
X15529672Y8645491D01*
X15529671Y8645493D01*
X15529671Y8645494D01*
X15468752Y8751008D01*
X15375415Y8829328D01*
X15260921Y8871000D01*
X15139079Y8871000D01*
X15081832Y8850164D01*
X15024584Y8829328D01*
X14931247Y8751008D01*
X14870328Y8645494D01*
X14849170Y8525500D01*
X12870500Y8525500D01*
X12870500Y9178750D01*
X12870499Y9178751D01*
X12845251Y9272977D01*
X12845250Y9272980D01*
X12796473Y9357463D01*
X12737584Y9416352D01*
X12723232Y9451000D01*
X12737584Y9485648D01*
X12772232Y9500000D01*
X15474880Y9500000D01*
X15509528Y9485648D01*
G37*
%TD.AperFunction*%
%TD*%
M02*
