%TF.GenerationSoftware,KiCad,Pcbnew,8.0.3*%
%TF.CreationDate,2024-06-14T23:01:07+10:00*%
%TF.ProjectId,rs-probe,72732d70-726f-4626-952e-6b696361645f,rev?*%
%TF.SameCoordinates,Original*%
%TF.FileFunction,Legend,Top*%
%TF.FilePolarity,Positive*%
%FSLAX46Y46*%
G04 Gerber Fmt 4.6, Leading zero omitted, Abs format (unit mm)*
G04 Created by KiCad (PCBNEW 8.0.3) date 2024-06-14 23:01:07*
%MOMM*%
%LPD*%
G01*
G04 APERTURE LIST*
G04 Aperture macros list*
%AMRoundRect*
0 Rectangle with rounded corners*
0 $1 Rounding radius*
0 $2 $3 $4 $5 $6 $7 $8 $9 X,Y pos of 4 corners*
0 Add a 4 corners polygon primitive as box body*
4,1,4,$2,$3,$4,$5,$6,$7,$8,$9,$2,$3,0*
0 Add four circle primitives for the rounded corners*
1,1,$1+$1,$2,$3*
1,1,$1+$1,$4,$5*
1,1,$1+$1,$6,$7*
1,1,$1+$1,$8,$9*
0 Add four rect primitives between the rounded corners*
20,1,$1+$1,$2,$3,$4,$5,0*
20,1,$1+$1,$4,$5,$6,$7,0*
20,1,$1+$1,$6,$7,$8,$9,0*
20,1,$1+$1,$8,$9,$2,$3,0*%
G04 Aperture macros list end*
%ADD10C,0.200000*%
%ADD11C,0.265000*%
%ADD12C,0.275000*%
%ADD13C,0.120000*%
%ADD14C,0.150000*%
%ADD15C,0.000000*%
%ADD16C,0.100000*%
%ADD17RoundRect,0.185000X-1.015000X-0.185000X1.015000X-0.185000X1.015000X0.185000X-1.015000X0.185000X0*%
%ADD18C,0.650000*%
%ADD19RoundRect,0.150000X0.575000X-0.150000X0.575000X0.150000X-0.575000X0.150000X-0.575000X-0.150000X0*%
%ADD20O,1.450000X0.300000*%
%ADD21O,2.100000X1.000000*%
%ADD22O,1.600000X1.000000*%
%ADD23RoundRect,0.125000X0.200000X0.000010X-0.200000X0.000010X-0.200000X-0.000010X0.200000X-0.000010X0*%
%ADD24RoundRect,0.125000X0.125000X1.925000X-0.125000X1.925000X-0.125000X-1.925000X0.125000X-1.925000X0*%
%ADD25RoundRect,0.137500X-0.137500X-0.137500X0.137500X-0.137500X0.137500X0.137500X-0.137500X0.137500X0*%
%ADD26RoundRect,0.137500X0.137500X-0.137500X0.137500X0.137500X-0.137500X0.137500X-0.137500X-0.137500X0*%
%ADD27RoundRect,0.050000X-0.050000X0.387500X-0.050000X-0.387500X0.050000X-0.387500X0.050000X0.387500X0*%
%ADD28RoundRect,0.050000X-0.387500X0.050000X-0.387500X-0.050000X0.387500X-0.050000X0.387500X0.050000X0*%
%ADD29RoundRect,0.144000X-1.456000X1.456000X-1.456000X-1.456000X1.456000X-1.456000X1.456000X1.456000X0*%
%ADD30RoundRect,0.137500X-0.137500X0.137500X-0.137500X-0.137500X0.137500X-0.137500X0.137500X0.137500X0*%
%ADD31RoundRect,0.067500X0.097500X0.067500X-0.097500X0.067500X-0.097500X-0.067500X0.097500X-0.067500X0*%
%ADD32RoundRect,0.137500X0.137500X0.137500X-0.137500X0.137500X-0.137500X-0.137500X0.137500X-0.137500X0*%
%ADD33RoundRect,0.147500X0.147500X0.172500X-0.147500X0.172500X-0.147500X-0.172500X0.147500X-0.172500X0*%
%ADD34RoundRect,0.075000X-0.150000X-0.075000X0.150000X-0.075000X0.150000X0.075000X-0.150000X0.075000X0*%
%ADD35RoundRect,0.062500X0.087500X-0.062500X0.087500X0.062500X-0.087500X0.062500X-0.087500X-0.062500X0*%
%ADD36R,0.940000X0.300000*%
%ADD37R,0.650000X0.850000*%
%ADD38O,0.250000X0.600000*%
%ADD39R,1.600000X0.200000*%
%ADD40RoundRect,0.075000X0.075000X-0.150000X0.075000X0.150000X-0.075000X0.150000X-0.075000X-0.150000X0*%
%ADD41RoundRect,0.375000X-0.375000X-0.625000X0.375000X-0.625000X0.375000X0.625000X-0.375000X0.625000X0*%
%ADD42RoundRect,0.147500X-0.147500X-0.172500X0.147500X-0.172500X0.147500X0.172500X-0.147500X0.172500X0*%
%ADD43RoundRect,0.218750X0.218750X0.256250X-0.218750X0.256250X-0.218750X-0.256250X0.218750X-0.256250X0*%
%ADD44RoundRect,0.175000X-0.175000X0.275000X-0.175000X-0.275000X0.175000X-0.275000X0.175000X0.275000X0*%
%ADD45R,1.450000X0.700000*%
%ADD46C,1.100000*%
%ADD47C,0.990600*%
G04 APERTURE END LIST*
D10*
X7700000Y2835000D02*
X900000Y2835000D01*
D11*
X33900000Y13350000D02*
X33900000Y12050000D01*
D10*
X29600000Y13700000D02*
X30050000Y13250000D01*
X7700000Y9235000D02*
X7700000Y2835000D01*
X26450000Y13700000D02*
X29600000Y13700000D01*
X900000Y2835000D02*
X900000Y4935000D01*
X900000Y9235000D02*
X7700000Y9235000D01*
D12*
X1037500Y9235000D02*
G75*
G02*
X762500Y9235000I-137500J0D01*
G01*
X762500Y9235000D02*
G75*
G02*
X1037500Y9235000I137500J0D01*
G01*
D10*
X900000Y7135000D02*
X900000Y9235000D01*
X30050000Y13250000D02*
X33800000Y13250000D01*
D13*
%TO.C,U5*%
X1210000Y9170000D02*
X2535000Y9170000D01*
X2475000Y2825000D02*
X2475000Y2760000D01*
X2475000Y2760000D02*
X6005000Y2760000D01*
X2535000Y9235000D02*
X2535000Y9170000D01*
X2535000Y9235000D02*
X6065000Y9235000D01*
X6005000Y2825000D02*
X6005000Y2760000D01*
X6065000Y9235000D02*
X6065000Y9170000D01*
%TO.C,J1*%
X35100000Y11700000D02*
X37100000Y11700000D01*
X35100000Y2300000D02*
X37100000Y2300000D01*
X39000000Y11700000D02*
X39540000Y11700000D01*
X39000000Y2300000D02*
X39540000Y2300000D01*
D14*
%TO.C,U4*%
X10300000Y5450000D02*
X8700000Y5450000D01*
X10600000Y950000D02*
X8700000Y950000D01*
D13*
%TO.C,U6*%
X19890000Y9210000D02*
X20540000Y9210000D01*
X19890000Y8560000D02*
X19890000Y9210000D01*
X19890000Y2640000D02*
X19890000Y1990000D01*
X19890000Y1990000D02*
X20540000Y1990000D01*
X27110000Y8560000D02*
X27110000Y9210000D01*
X27110000Y2640000D02*
X27110000Y1990000D01*
X27110000Y1990000D02*
X26460000Y1990000D01*
%TO.C,U10*%
X11540000Y7870000D02*
X11540000Y5930000D01*
X11540000Y5930000D02*
X12570000Y5930000D01*
X13060000Y7870000D02*
X11540000Y7870000D01*
X13060000Y6430000D02*
X13060000Y7870000D01*
X12900000Y5780000D02*
X12900000Y6060000D01*
X13180000Y6060000D01*
X12900000Y5780000D01*
G36*
X12900000Y5780000D02*
G01*
X12900000Y6060000D01*
X13180000Y6060000D01*
X12900000Y5780000D01*
G37*
D15*
%TO.C,kibuzzard-61EE8014*%
G36*
X34640644Y12597844D02*
G01*
X34690412Y12485211D01*
X34672950Y12407503D01*
X34628421Y12360354D01*
X34566429Y12337653D01*
X34494832Y12331541D01*
X34441572Y12333287D01*
X34391804Y12338526D01*
X34391804Y12631896D01*
X34507056Y12631896D01*
X34640644Y12597844D01*
G37*
G36*
X34547220Y13060601D02*
G01*
X34596115Y13043138D01*
X34629294Y13006467D01*
X34641517Y12944475D01*
X34599607Y12845812D01*
X34475624Y12810014D01*
X34391804Y12810014D01*
X34391804Y13057981D01*
X34438952Y13063220D01*
X34489594Y13064966D01*
X34547220Y13060601D01*
G37*
G36*
X35481464Y13047504D02*
G01*
X35532978Y12967176D01*
X35557426Y12847558D01*
X35562010Y12776180D01*
X35563537Y12700000D01*
X35562010Y12624038D01*
X35557426Y12553315D01*
X35532978Y12433697D01*
X35480591Y12352496D01*
X35392405Y12322810D01*
X35303346Y12352496D01*
X35251832Y12432824D01*
X35227384Y12552442D01*
X35222800Y12623820D01*
X35221272Y12700000D01*
X35222800Y12775962D01*
X35227384Y12846685D01*
X35251832Y12966303D01*
X35303346Y13047504D01*
X35392405Y13077190D01*
X35481464Y13047504D01*
G37*
G36*
X36354589Y13047504D02*
G01*
X36406103Y12967176D01*
X36430551Y12847558D01*
X36435135Y12776180D01*
X36436662Y12700000D01*
X36435135Y12624038D01*
X36430551Y12553315D01*
X36406103Y12433697D01*
X36353716Y12352496D01*
X36265530Y12322810D01*
X36176471Y12352496D01*
X36124957Y12432824D01*
X36100509Y12552442D01*
X36095925Y12623820D01*
X36094397Y12700000D01*
X36095925Y12775962D01*
X36100509Y12846685D01*
X36124957Y12966303D01*
X36176471Y13047504D01*
X36265530Y13077190D01*
X36354589Y13047504D01*
G37*
G36*
X34177015Y13482320D02*
G01*
X37531561Y13482320D01*
X37531707Y13482320D01*
X37608388Y13478553D01*
X37684330Y13467288D01*
X37758802Y13448634D01*
X37831088Y13422769D01*
X37900490Y13389945D01*
X37966340Y13350475D01*
X38028005Y13304742D01*
X38084890Y13253184D01*
X38136448Y13196299D01*
X38182182Y13134634D01*
X38221651Y13068783D01*
X38254476Y12999381D01*
X38280340Y12927095D01*
X38298995Y12852623D01*
X38310260Y12776681D01*
X38314027Y12700000D01*
X38310260Y12623319D01*
X38298995Y12547377D01*
X38280340Y12472905D01*
X38254476Y12400619D01*
X38221651Y12331217D01*
X38182182Y12265366D01*
X38136448Y12203701D01*
X38084890Y12146816D01*
X38028005Y12095258D01*
X37966340Y12049525D01*
X37900490Y12010055D01*
X37831088Y11977231D01*
X37758802Y11951366D01*
X37684330Y11932712D01*
X37608388Y11921447D01*
X37531707Y11917680D01*
X37531561Y11917680D01*
X34177015Y11917680D01*
X33885973Y11917680D01*
X33885973Y13225621D01*
X34177015Y13225621D01*
X34177015Y12176125D01*
X34252540Y12162373D01*
X34328939Y12152551D01*
X34404464Y12146657D01*
X34477370Y12144692D01*
X34563591Y12148840D01*
X34644137Y12161282D01*
X34716606Y12183547D01*
X34778598Y12217162D01*
X34868530Y12321937D01*
X34893414Y12395498D01*
X34901709Y12485211D01*
X34891886Y12558554D01*
X34862418Y12628404D01*
X34805447Y12689522D01*
X34784928Y12700000D01*
X35002991Y12700000D01*
X35009267Y12568868D01*
X35028094Y12454870D01*
X35059472Y12358008D01*
X35103401Y12278281D01*
X35180333Y12199214D01*
X35277249Y12151775D01*
X35394151Y12135961D01*
X35508240Y12151775D01*
X35603701Y12199214D01*
X35680536Y12278281D01*
X35724847Y12358008D01*
X35756498Y12454870D01*
X35775489Y12568868D01*
X35781819Y12700000D01*
X35876116Y12700000D01*
X35882392Y12568868D01*
X35901219Y12454870D01*
X35932597Y12358008D01*
X35976526Y12278281D01*
X36053458Y12199214D01*
X36150374Y12151775D01*
X36267276Y12135961D01*
X36381365Y12151775D01*
X36476826Y12199214D01*
X36553661Y12278281D01*
X36597972Y12358008D01*
X36629623Y12454870D01*
X36648614Y12568868D01*
X36654944Y12700000D01*
X36648723Y12831132D01*
X36630060Y12945130D01*
X36598955Y13041992D01*
X36588314Y13061474D01*
X36745749Y13061474D01*
X37030387Y13061474D01*
X37030387Y12158662D01*
X37246922Y12158662D01*
X37246922Y13061474D01*
X37531561Y13061474D01*
X37531561Y13239591D01*
X36745749Y13239591D01*
X36745749Y13061474D01*
X36588314Y13061474D01*
X36555407Y13121719D01*
X36478961Y13200786D01*
X36382335Y13248225D01*
X36265530Y13264039D01*
X36152218Y13248225D01*
X36056756Y13200786D01*
X35979145Y13121719D01*
X35934070Y13041992D01*
X35901873Y12945130D01*
X35882556Y12831132D01*
X35876116Y12700000D01*
X35781819Y12700000D01*
X35775598Y12831132D01*
X35756935Y12945130D01*
X35725830Y13041992D01*
X35682282Y13121719D01*
X35605836Y13200786D01*
X35509210Y13248225D01*
X35392405Y13264039D01*
X35279093Y13248225D01*
X35183631Y13200786D01*
X35106020Y13121719D01*
X35060945Y13041992D01*
X35028748Y12945130D01*
X35009431Y12831132D01*
X35002991Y12700000D01*
X34784928Y12700000D01*
X34713114Y12736671D01*
X34813523Y12830969D01*
X34841681Y12894707D01*
X34851067Y12967176D01*
X34835351Y13068459D01*
X34775979Y13160137D01*
X34655487Y13226494D01*
X34567302Y13245485D01*
X34456415Y13251815D01*
X34311476Y13243957D01*
X34177015Y13225621D01*
X33885973Y13225621D01*
X33885973Y13482320D01*
X34177015Y13482320D01*
G37*
D16*
%TO.C,D2*%
X17640000Y13100000D02*
G75*
G02*
X17540000Y13100000I-50000J0D01*
G01*
X17540000Y13100000D02*
G75*
G02*
X17640000Y13100000I50000J0D01*
G01*
D14*
%TO.C,Q1*%
X4200000Y13200000D02*
X5800000Y13200000D01*
X5800000Y11400000D02*
X4600000Y11400000D01*
D13*
%TO.C,U8*%
X11540000Y5370000D02*
X11540000Y3430000D01*
X11540000Y3430000D02*
X12570000Y3430000D01*
X13060000Y5370000D02*
X11540000Y5370000D01*
X13060000Y3930000D02*
X13060000Y5370000D01*
X12900000Y3280000D02*
X12900000Y3560000D01*
X13180000Y3560000D01*
X12900000Y3280000D01*
G36*
X12900000Y3280000D02*
G01*
X12900000Y3560000D01*
X13180000Y3560000D01*
X12900000Y3280000D01*
G37*
D15*
%TO.C,kibuzzard-6228D4B3*%
G36*
X1726231Y1782521D02*
G01*
X1727025Y1755534D01*
X1717897Y1685287D01*
X1690513Y1630121D01*
X1643681Y1594403D01*
X1576213Y1582496D01*
X1465881Y1626946D01*
X1436711Y1685287D01*
X1426988Y1771409D01*
X1426988Y1814271D01*
X1722263Y1814271D01*
X1726231Y1782521D01*
G37*
G36*
X2095325Y2009666D02*
G01*
X2095325Y2009534D01*
X2095325Y525221D01*
X2095325Y326784D01*
X704675Y326784D01*
X704675Y525221D01*
X704675Y1072909D01*
X903112Y1072909D01*
X989036Y1036396D01*
X1084881Y993534D01*
X1183902Y947496D01*
X1279350Y901459D01*
X1180925Y854826D01*
X1082500Y810178D01*
X988441Y769895D01*
X903112Y736359D01*
X903112Y525221D01*
X1007094Y568084D01*
X1070594Y597254D01*
X1138856Y630790D01*
X1210492Y667898D01*
X1284112Y707784D01*
X1357137Y749456D01*
X1426988Y791921D01*
X1885775Y541096D01*
X1885775Y737946D01*
X1571450Y901459D01*
X1885775Y1057034D01*
X1885775Y1268171D01*
X1422225Y1010996D01*
X1352573Y1049890D01*
X1280144Y1090371D01*
X1207317Y1130654D01*
X1136475Y1168953D01*
X1069006Y1204671D01*
X1006300Y1237215D01*
X903112Y1284046D01*
X903112Y1072909D01*
X704675Y1072909D01*
X704675Y1814271D01*
X903112Y1814271D01*
X1265062Y1814271D01*
X1265062Y1712671D01*
X1175170Y1658895D01*
X1086469Y1608690D01*
X996577Y1563248D01*
X903112Y1523759D01*
X903112Y1318971D01*
X1007094Y1364215D01*
X1116631Y1418984D01*
X1221406Y1477721D01*
X1312687Y1534871D01*
X1357534Y1465418D01*
X1419050Y1418984D01*
X1492869Y1392790D01*
X1574625Y1384059D01*
X1651817Y1390607D01*
X1718294Y1410253D01*
X1819100Y1485659D01*
X1853628Y1539634D01*
X1877838Y1603134D01*
X1892125Y1675365D01*
X1896888Y1755534D01*
X1895300Y1811096D01*
X1891331Y1877771D01*
X1883394Y1946828D01*
X1871488Y2009534D01*
X903112Y2009534D01*
X903112Y1814271D01*
X704675Y1814271D01*
X704675Y2009534D01*
X704675Y2009666D01*
X1400000Y2473216D01*
X2095325Y2009666D01*
G37*
D13*
%TO.C,U14*%
X12755000Y12300000D02*
X12755000Y12900000D01*
X14175000Y11700000D02*
X14175000Y12900000D01*
%TO.C,U9*%
X13540000Y6370000D02*
X13540000Y4430000D01*
X13540000Y4430000D02*
X14570000Y4430000D01*
X15060000Y6370000D02*
X13540000Y6370000D01*
X15060000Y4930000D02*
X15060000Y6370000D01*
X14900000Y4280000D02*
X14900000Y4560000D01*
X15180000Y4560000D01*
X14900000Y4280000D01*
G36*
X14900000Y4280000D02*
G01*
X14900000Y4560000D01*
X15180000Y4560000D01*
X14900000Y4280000D01*
G37*
%TO.C,D1*%
X29650000Y700000D02*
X29650000Y2300000D01*
X31550000Y1150000D02*
X31550000Y2300000D01*
D14*
%TO.C,U3*%
X27950000Y9850000D02*
X27950000Y6750000D01*
X30250000Y9300000D02*
X30250000Y6800000D01*
D10*
X30450000Y9700000D02*
G75*
G02*
X30250000Y9700000I-100000J0D01*
G01*
X30250000Y9700000D02*
G75*
G02*
X30450000Y9700000I100000J0D01*
G01*
D14*
%TO.C,U7*%
X29900000Y3900000D02*
X29900000Y5500000D01*
X31700000Y5500000D02*
X31700000Y4300000D01*
D15*
%TO.C,kibuzzard-6228D4CF*%
G36*
X7989769Y2295945D02*
G01*
X7989769Y765595D01*
X7989769Y765463D01*
X7300000Y305617D01*
X6610231Y765463D01*
X6610231Y765595D01*
X6610231Y1313283D01*
X6808669Y1313283D01*
X6894592Y1276770D01*
X6990437Y1233908D01*
X7089458Y1187870D01*
X7184906Y1141833D01*
X7086481Y1095200D01*
X6988056Y1050552D01*
X6893997Y1010269D01*
X6808669Y976733D01*
X6808669Y765595D01*
X6912650Y808458D01*
X6976150Y837628D01*
X7044412Y871164D01*
X7116048Y908272D01*
X7189669Y948158D01*
X7262694Y989830D01*
X7332544Y1032295D01*
X7791331Y781470D01*
X7791331Y978320D01*
X7477006Y1141833D01*
X7791331Y1297408D01*
X7791331Y1508545D01*
X7327781Y1251370D01*
X7258130Y1290264D01*
X7185700Y1330745D01*
X7112873Y1371028D01*
X7042031Y1409327D01*
X6974562Y1445045D01*
X6911856Y1477589D01*
X6808669Y1524420D01*
X6808669Y1313283D01*
X6610231Y1313283D01*
X6610231Y2037183D01*
X6808669Y2037183D01*
X6808669Y1840333D01*
X7629406Y1840333D01*
X7629406Y1581570D01*
X7791331Y1581570D01*
X7791331Y2295945D01*
X7629406Y2295945D01*
X7629406Y2037183D01*
X6808669Y2037183D01*
X6610231Y2037183D01*
X6610231Y2295945D01*
X6610231Y2494383D01*
X7989769Y2494383D01*
X7989769Y2295945D01*
G37*
D13*
%TO.C,U13*%
X10240000Y12300000D02*
X10240000Y12900000D01*
X11660000Y11700000D02*
X11660000Y12900000D01*
%TO.C,U1*%
X11540000Y2870000D02*
X11540000Y930000D01*
X11540000Y930000D02*
X12570000Y930000D01*
X13060000Y2870000D02*
X11540000Y2870000D01*
X13060000Y1430000D02*
X13060000Y2870000D01*
X12900000Y780000D02*
X12900000Y1060000D01*
X13180000Y1060000D01*
X12900000Y780000D01*
G36*
X12900000Y780000D02*
G01*
X12900000Y1060000D01*
X13180000Y1060000D01*
X12900000Y780000D01*
G37*
%TO.C,U11*%
X13540000Y8870000D02*
X13540000Y6930000D01*
X13540000Y6930000D02*
X14570000Y6930000D01*
X15060000Y8870000D02*
X13540000Y8870000D01*
X15060000Y7430000D02*
X15060000Y8870000D01*
X14900000Y6780000D02*
X14900000Y7060000D01*
X15180000Y7060000D01*
X14900000Y6780000D01*
G36*
X14900000Y6780000D02*
G01*
X14900000Y7060000D01*
X15180000Y7060000D01*
X14900000Y6780000D01*
G37*
D16*
%TO.C,D3*%
X8160000Y8850000D02*
G75*
G02*
X8060000Y8850000I-50000J0D01*
G01*
X8060000Y8850000D02*
G75*
G02*
X8160000Y8850000I50000J0D01*
G01*
D13*
%TO.C,F1*%
X30312779Y11660000D02*
X29987221Y11660000D01*
X30312779Y10640000D02*
X29987221Y10640000D01*
%TO.C,U2*%
X13540000Y3870000D02*
X13540000Y1930000D01*
X13540000Y1930000D02*
X14570000Y1930000D01*
X15060000Y3870000D02*
X13540000Y3870000D01*
X15060000Y2430000D02*
X15060000Y3870000D01*
X14900000Y1780000D02*
X14900000Y2060000D01*
X15180000Y2060000D01*
X14900000Y1780000D01*
G36*
X14900000Y1780000D02*
G01*
X14900000Y2060000D01*
X15180000Y2060000D01*
X14900000Y1780000D01*
G37*
D14*
%TO.C,X1*%
X16900000Y9750000D02*
X16900000Y9300000D01*
X17400000Y9750000D02*
X16900000Y9750000D01*
D13*
%TO.C,U12*%
X14640000Y10825000D02*
X14640000Y11425000D01*
X16060000Y10225000D02*
X16060000Y11425000D01*
%TO.C,SW1*%
X21550000Y13750000D02*
X21550000Y13650000D01*
X21550000Y12350000D02*
X21550000Y11650000D01*
X21550000Y10350000D02*
X21550000Y10250000D01*
X21550000Y10250000D02*
X26450000Y10250000D01*
X26450000Y13750000D02*
X21550000Y13750000D01*
X26450000Y13750000D02*
X26450000Y13650000D01*
X26450000Y12350000D02*
X26450000Y11650000D01*
X26450000Y10250000D02*
X26450000Y10350000D01*
%TD*%
%LPC*%
D17*
%TO.C,U5*%
X2350000Y8540000D03*
X6250000Y8540000D03*
X2350000Y7270000D03*
X6250000Y7270000D03*
X2350000Y6000000D03*
X6250000Y6000000D03*
X2350000Y4730000D03*
X6250000Y4730000D03*
X2350000Y3460000D03*
X6250000Y3460000D03*
%TD*%
D18*
%TO.C,J1*%
X34400000Y4110000D03*
X34400000Y9890000D03*
D19*
X32955000Y3750000D03*
X32955000Y4550000D03*
D20*
X32955000Y5750000D03*
X32955000Y6750000D03*
X32955000Y7250000D03*
X32955000Y8250000D03*
D19*
X32955000Y9450000D03*
X32955000Y10250000D03*
X32955000Y10250000D03*
X32955000Y9450000D03*
D20*
X32955000Y8750000D03*
X32955000Y7750000D03*
X32955000Y6250000D03*
X32955000Y5250000D03*
D19*
X32955000Y4550000D03*
X32955000Y3750000D03*
D21*
X33870000Y2680000D03*
D22*
X38050000Y2680000D03*
D21*
X33870000Y11320000D03*
D22*
X38050000Y11320000D03*
%TD*%
D23*
%TO.C,U4*%
X10325000Y1450000D03*
X10325000Y1950000D03*
X10325000Y2450000D03*
X10325000Y2950000D03*
X10325000Y3450000D03*
X10325000Y3950000D03*
X10325000Y4450000D03*
X10325000Y4950000D03*
X8675000Y4950000D03*
X8675000Y4450000D03*
X8675000Y3950000D03*
X8675000Y3450000D03*
X8675000Y2950000D03*
X8675000Y2450000D03*
X8675000Y1950000D03*
X8675000Y1450000D03*
D24*
X9500000Y3200000D03*
%TD*%
D25*
%TO.C,R29*%
X30250000Y12750000D03*
X31150000Y12750000D03*
%TD*%
%TO.C,R9*%
X8075000Y7900000D03*
X8975000Y7900000D03*
%TD*%
D26*
%TO.C,R2*%
X30800000Y8950000D03*
X30800000Y9850000D03*
%TD*%
D27*
%TO.C,U6*%
X26100000Y9037500D03*
X25700000Y9037500D03*
X25300000Y9037500D03*
X24900000Y9037500D03*
X24500000Y9037500D03*
X24100000Y9037500D03*
X23700000Y9037500D03*
X23300000Y9037500D03*
X22900000Y9037500D03*
X22500000Y9037500D03*
X22100000Y9037500D03*
X21700000Y9037500D03*
X21300000Y9037500D03*
X20900000Y9037500D03*
D28*
X20062500Y8200000D03*
X20062500Y7800000D03*
X20062500Y7400000D03*
X20062500Y7000000D03*
X20062500Y6600000D03*
X20062500Y6200000D03*
X20062500Y5800000D03*
X20062500Y5400000D03*
X20062500Y5000000D03*
X20062500Y4600000D03*
X20062500Y4200000D03*
X20062500Y3800000D03*
X20062500Y3400000D03*
X20062500Y3000000D03*
D27*
X20900000Y2162500D03*
X21300000Y2162500D03*
X21700000Y2162500D03*
X22100000Y2162500D03*
X22500000Y2162500D03*
X22900000Y2162500D03*
X23300000Y2162500D03*
X23700000Y2162500D03*
X24100000Y2162500D03*
X24500000Y2162500D03*
X24900000Y2162500D03*
X25300000Y2162500D03*
X25700000Y2162500D03*
X26100000Y2162500D03*
D28*
X26937500Y3000000D03*
X26937500Y3400000D03*
X26937500Y3800000D03*
X26937500Y4200000D03*
X26937500Y4600000D03*
X26937500Y5000000D03*
X26937500Y5400000D03*
X26937500Y5800000D03*
X26937500Y6200000D03*
X26937500Y6600000D03*
X26937500Y7000000D03*
X26937500Y7400000D03*
X26937500Y7800000D03*
X26937500Y8200000D03*
D29*
X23500000Y5600000D03*
%TD*%
D30*
%TO.C,R17*%
X16500000Y9350000D03*
X16500000Y8450000D03*
%TD*%
D31*
%TO.C,U10*%
X12640000Y6400000D03*
X12640000Y6900000D03*
X12640000Y7400000D03*
X11960000Y7400000D03*
X11960000Y6900000D03*
X11960000Y6400000D03*
%TD*%
D32*
%TO.C,C22*%
X23950000Y800000D03*
X23050000Y800000D03*
%TD*%
D33*
%TO.C,D2*%
X16985000Y13100000D03*
X16015000Y13100000D03*
%TD*%
D25*
%TO.C,C25*%
X14350000Y9350000D03*
X15250000Y9350000D03*
%TD*%
D26*
%TO.C,C13*%
X20000000Y10050000D03*
X20000000Y10950000D03*
%TD*%
D25*
%TO.C,C18*%
X15650000Y7200000D03*
X16550000Y7200000D03*
%TD*%
D26*
%TO.C,R8*%
X16400000Y650000D03*
X16400000Y1550000D03*
%TD*%
D32*
%TO.C,R11*%
X8975000Y7000000D03*
X8075000Y7000000D03*
%TD*%
D25*
%TO.C,C17*%
X15650000Y3800000D03*
X16550000Y3800000D03*
%TD*%
D32*
%TO.C,R13*%
X13600000Y10800000D03*
X12700000Y10800000D03*
%TD*%
%TO.C,C1*%
X18450000Y6300000D03*
X17550000Y6300000D03*
%TD*%
D34*
%TO.C,Q1*%
X4500000Y12800000D03*
X4500000Y12300000D03*
X4500000Y11800000D03*
X5900000Y11800000D03*
X5900000Y12300000D03*
X5900000Y12800000D03*
%TD*%
D31*
%TO.C,U8*%
X12640000Y3900000D03*
X12640000Y4400000D03*
X12640000Y4900000D03*
X11960000Y4900000D03*
X11960000Y4400000D03*
X11960000Y3900000D03*
%TD*%
D32*
%TO.C,C3*%
X22250000Y800000D03*
X21350000Y800000D03*
%TD*%
D25*
%TO.C,R16*%
X8550000Y10900000D03*
X9450000Y10900000D03*
%TD*%
D30*
%TO.C,C26*%
X9500000Y12750000D03*
X9500000Y11850000D03*
%TD*%
D32*
%TO.C,C24*%
X15775000Y12175000D03*
X14875000Y12175000D03*
%TD*%
D30*
%TO.C,C23*%
X29300000Y13150000D03*
X29300000Y12250000D03*
%TD*%
%TO.C,C28*%
X28400000Y13150000D03*
X28400000Y12250000D03*
%TD*%
D25*
%TO.C,C16*%
X13650000Y700000D03*
X14550000Y700000D03*
%TD*%
%TO.C,C6*%
X29950000Y3300000D03*
X30850000Y3300000D03*
%TD*%
D35*
%TO.C,U14*%
X13065000Y11825000D03*
X13465000Y11825000D03*
X13865000Y11825000D03*
X13865000Y12775000D03*
X13465000Y12775000D03*
X13065000Y12775000D03*
D36*
X13465000Y12300000D03*
%TD*%
D30*
%TO.C,C2*%
X12200000Y12800000D03*
X12200000Y11900000D03*
%TD*%
D26*
%TO.C,C27*%
X10700000Y9000000D03*
X10700000Y9900000D03*
%TD*%
D32*
%TO.C,R4*%
X35700000Y1250000D03*
X34800000Y1250000D03*
%TD*%
D26*
%TO.C,C21*%
X11550000Y10000000D03*
X11550000Y10900000D03*
%TD*%
D31*
%TO.C,U9*%
X14640000Y4900000D03*
X14640000Y5400000D03*
X14640000Y5900000D03*
X13960000Y5900000D03*
X13960000Y5400000D03*
X13960000Y4900000D03*
%TD*%
D37*
%TO.C,D1*%
X31025000Y775000D03*
X30175000Y775000D03*
X30175000Y2225000D03*
X31025000Y2225000D03*
%TD*%
D25*
%TO.C,C4*%
X28250000Y3500000D03*
X29150000Y3500000D03*
%TD*%
%TO.C,R14*%
X8550000Y10000000D03*
X9450000Y10000000D03*
%TD*%
D30*
%TO.C,R21*%
X16850000Y11150000D03*
X16850000Y10250000D03*
%TD*%
D38*
%TO.C,U3*%
X29850000Y9650000D03*
X29350000Y9650000D03*
X28850000Y9650000D03*
X28350000Y9650000D03*
X28350000Y6950000D03*
X28850000Y6950000D03*
X29350000Y6950000D03*
X29850000Y6950000D03*
D39*
X29100000Y8300000D03*
%TD*%
D30*
%TO.C,R25*%
X17750000Y11150000D03*
X17750000Y10250000D03*
%TD*%
%TO.C,R15*%
X8600000Y12750000D03*
X8600000Y11850000D03*
%TD*%
D26*
%TO.C,C15*%
X10900000Y6050000D03*
X10900000Y6950000D03*
%TD*%
D40*
%TO.C,U7*%
X30300000Y4200000D03*
X30800000Y4200000D03*
X31300000Y4200000D03*
X31300000Y5600000D03*
X30800000Y5600000D03*
X30300000Y5600000D03*
%TD*%
D32*
%TO.C,R10*%
X3550000Y10900000D03*
X2650000Y10900000D03*
%TD*%
D25*
%TO.C,C19*%
X15650000Y2400000D03*
X16550000Y2400000D03*
%TD*%
D30*
%TO.C,R23*%
X1000000Y12650000D03*
X1000000Y11750000D03*
%TD*%
D35*
%TO.C,U13*%
X10550000Y11825000D03*
X10950000Y11825000D03*
X11350000Y11825000D03*
X11350000Y12775000D03*
X10950000Y12775000D03*
X10550000Y12775000D03*
D36*
X10950000Y12300000D03*
%TD*%
D31*
%TO.C,U1*%
X12640000Y1400000D03*
X12640000Y1900000D03*
X12640000Y2400000D03*
X11960000Y2400000D03*
X11960000Y1900000D03*
X11960000Y1400000D03*
%TD*%
D41*
%TO.C,J10*%
X3060000Y1200000D03*
%TD*%
D32*
%TO.C,R6*%
X25650000Y800000D03*
X24750000Y800000D03*
%TD*%
%TO.C,R7*%
X29150000Y1500000D03*
X28250000Y1500000D03*
%TD*%
D31*
%TO.C,U11*%
X14640000Y7400000D03*
X14640000Y7900000D03*
X14640000Y8400000D03*
X13960000Y8400000D03*
X13960000Y7900000D03*
X13960000Y7400000D03*
%TD*%
D41*
%TO.C,J11*%
X5600000Y1200000D03*
%TD*%
D26*
%TO.C,R1*%
X19100000Y650000D03*
X19100000Y1550000D03*
%TD*%
D32*
%TO.C,C10*%
X18850000Y4500000D03*
X17950000Y4500000D03*
%TD*%
%TO.C,R12*%
X13600000Y9950000D03*
X12700000Y9950000D03*
%TD*%
D25*
%TO.C,C7*%
X28250000Y5800000D03*
X29150000Y5800000D03*
%TD*%
D32*
%TO.C,R22*%
X9250000Y5900000D03*
X8350000Y5900000D03*
%TD*%
D25*
%TO.C,C20*%
X15650000Y4800000D03*
X16550000Y4800000D03*
%TD*%
%TO.C,C11*%
X28250000Y2400000D03*
X29150000Y2400000D03*
%TD*%
D26*
%TO.C,C14*%
X30800000Y6750000D03*
X30800000Y7650000D03*
%TD*%
D42*
%TO.C,D3*%
X8715000Y8850000D03*
X9685000Y8850000D03*
%TD*%
D32*
%TO.C,R27*%
X12400000Y8650000D03*
X11500000Y8650000D03*
%TD*%
D25*
%TO.C,R18*%
X1100000Y9950000D03*
X2000000Y9950000D03*
%TD*%
%TO.C,R20*%
X4850000Y10900000D03*
X5750000Y10900000D03*
%TD*%
D26*
%TO.C,C8*%
X17300000Y650000D03*
X17300000Y1550000D03*
%TD*%
D43*
%TO.C,F1*%
X30937500Y11150000D03*
X29362500Y11150000D03*
%TD*%
D32*
%TO.C,R5*%
X27450000Y900000D03*
X26550000Y900000D03*
%TD*%
D31*
%TO.C,U2*%
X14640000Y2400000D03*
X14640000Y2900000D03*
X14640000Y3400000D03*
X13960000Y3400000D03*
X13960000Y2900000D03*
X13960000Y2400000D03*
%TD*%
D30*
%TO.C,R19*%
X3400000Y12750000D03*
X3400000Y11850000D03*
%TD*%
D32*
%TO.C,C9*%
X18850000Y5400000D03*
X17950000Y5400000D03*
%TD*%
D44*
%TO.C,X1*%
X17450000Y9100000D03*
X17450000Y7300000D03*
X18950000Y7325000D03*
X18950000Y9075000D03*
%TD*%
D26*
%TO.C,C30*%
X18200000Y12225000D03*
X18200000Y13125000D03*
%TD*%
D32*
%TO.C,R3*%
X33700000Y1250000D03*
X32800000Y1250000D03*
%TD*%
D26*
%TO.C,C29*%
X20000000Y12225000D03*
X20000000Y13125000D03*
%TD*%
D35*
%TO.C,U12*%
X14950000Y10350000D03*
X15350000Y10350000D03*
X15750000Y10350000D03*
X15750000Y11300000D03*
X15350000Y11300000D03*
X14950000Y11300000D03*
D36*
X15350000Y10825000D03*
%TD*%
D45*
%TO.C,SW1*%
X21420000Y13000000D03*
X26580000Y13000000D03*
X21420000Y11000000D03*
X26580000Y11000000D03*
%TD*%
D26*
%TO.C,C5*%
X18200000Y650000D03*
X18200000Y1550000D03*
%TD*%
D30*
%TO.C,FB1*%
X19100000Y11925000D03*
X19100000Y11025000D03*
%TD*%
%TO.C,R26*%
X9750000Y7900000D03*
X9750000Y7000000D03*
%TD*%
D25*
%TO.C,R28*%
X31950000Y12750000D03*
X32850000Y12750000D03*
%TD*%
%TO.C,C12*%
X28250000Y4900000D03*
X29150000Y4900000D03*
%TD*%
D32*
%TO.C,R24*%
X1800000Y10900000D03*
X900000Y10900000D03*
%TD*%
D46*
%TO.C,J2*%
X0Y1000000D03*
X0Y2500000D03*
X0Y4000000D03*
X0Y5500000D03*
X0Y7000000D03*
X0Y8500000D03*
X0Y10000000D03*
X0Y11500000D03*
X0Y13000000D03*
%TD*%
%TO.C,J4*%
X30500000Y14000000D03*
X32000000Y14000000D03*
X33500000Y14000000D03*
%TD*%
%TO.C,J3*%
X33500000Y0D03*
X32000000Y0D03*
%TD*%
D47*
%TO.C,J5*%
X2060000Y12200000D03*
X7140000Y13216000D03*
X7140000Y11184000D03*
%TD*%
%LPD*%
M02*
