%TF.GenerationSoftware,KiCad,Pcbnew,8.0.3*%
%TF.CreationDate,2024-06-14T23:01:07+10:00*%
%TF.ProjectId,rs-probe,72732d70-726f-4626-952e-6b696361645f,rev?*%
%TF.SameCoordinates,Original*%
%TF.FileFunction,Copper,L2,Inr*%
%TF.FilePolarity,Positive*%
%FSLAX46Y46*%
G04 Gerber Fmt 4.6, Leading zero omitted, Abs format (unit mm)*
G04 Created by KiCad (PCBNEW 8.0.3) date 2024-06-14 23:01:07*
%MOMM*%
%LPD*%
G01*
G04 APERTURE LIST*
%TA.AperFunction,ComponentPad*%
%ADD10O,2.100000X1.000000*%
%TD*%
%TA.AperFunction,ComponentPad*%
%ADD11O,1.600000X1.000000*%
%TD*%
%TA.AperFunction,ComponentPad*%
%ADD12C,0.600000*%
%TD*%
%TA.AperFunction,ComponentPad*%
%ADD13C,1.100000*%
%TD*%
%TA.AperFunction,ViaPad*%
%ADD14C,0.450000*%
%TD*%
%TA.AperFunction,Conductor*%
%ADD15C,0.500000*%
%TD*%
%TA.AperFunction,Conductor*%
%ADD16C,0.300000*%
%TD*%
%TA.AperFunction,Conductor*%
%ADD17C,0.400000*%
%TD*%
G04 APERTURE END LIST*
D10*
%TO.N,GND*%
%TO.C,J1*%
X33870000Y2680000D03*
D11*
X38050000Y2680000D03*
D10*
X33870000Y11320000D03*
D11*
X38050000Y11320000D03*
%TD*%
D12*
%TO.N,GND*%
%TO.C,U6*%
X24775000Y6875000D03*
X23500000Y6875000D03*
X22225000Y6875000D03*
X24775000Y5600000D03*
X23500000Y5600000D03*
X22225000Y5600000D03*
X24775000Y4325000D03*
X23500000Y4325000D03*
X22225000Y4325000D03*
%TD*%
D13*
%TO.N,GND*%
%TO.C,J2*%
X0Y1000000D03*
%TO.N,/T_VCP_RX*%
X0Y2500000D03*
%TO.N,/T_VCP_TX*%
X0Y4000000D03*
%TO.N,/T_~{RESET}*%
X0Y5500000D03*
%TO.N,/T_TDI*%
X0Y7000000D03*
%TO.N,/T_GNDDetect*%
X0Y8500000D03*
%TO.N,/T_SWO_TDO*%
X0Y10000000D03*
%TO.N,/T_SWDCLK_JCLK*%
X0Y11500000D03*
%TO.N,/T_SWDIO_TMS*%
X0Y13000000D03*
%TD*%
%TO.N,/GPIO2*%
%TO.C,J4*%
X30500000Y14000000D03*
%TO.N,/GPIO1*%
X32000000Y14000000D03*
%TO.N,/T_VCC*%
X33500000Y14000000D03*
%TD*%
%TO.N,/5V_KEY*%
%TO.C,J3*%
X33500000Y0D03*
%TO.N,GND*%
X32000000Y0D03*
%TD*%
D14*
%TO.N,Net-(D3-A)*%
X10200000Y8450000D03*
X10120000Y11660000D03*
%TO.N,GND*%
X11030000Y10460000D03*
X8970000Y13380000D03*
X9800000Y5600000D03*
X15200000Y7900000D03*
X35575000Y450000D03*
X14350000Y12625000D03*
X5850000Y13500000D03*
X13850000Y11350000D03*
X32400000Y10800000D03*
X34500000Y13550000D03*
X18600000Y2100000D03*
X1900000Y500000D03*
X14770000Y1560000D03*
X13300000Y3800000D03*
X16500000Y7800000D03*
X29100000Y7850000D03*
X26050000Y6750000D03*
X29700000Y6200000D03*
X19075000Y12600000D03*
X15200000Y5400000D03*
X13200000Y6500000D03*
X20300000Y11460000D03*
X1900000Y1300000D03*
X1300000Y13550000D03*
X32000000Y10100000D03*
X31800000Y3900000D03*
X34100000Y7500000D03*
X39550000Y2725000D03*
X20714812Y985188D03*
X18400000Y4000000D03*
X32300000Y3100000D03*
X11000000Y7500000D03*
X28650000Y8900000D03*
X18280000Y11140000D03*
X1400000Y6000000D03*
X17312878Y5416746D03*
X26800000Y2300000D03*
X9500000Y3300000D03*
X15250000Y2950000D03*
X15870000Y9420000D03*
X10050000Y12250000D03*
X28800000Y2900000D03*
X17400000Y8200000D03*
X17200000Y2600000D03*
X6400000Y10500000D03*
X29700000Y5300000D03*
X30800000Y8300000D03*
X25200000Y3100000D03*
X8500000Y550000D03*
X31500000Y3300000D03*
X3000000Y13550000D03*
X27050000Y9500000D03*
X8230000Y6530000D03*
X37275000Y450000D03*
X39550000Y11300000D03*
X17100000Y3500000D03*
X3300000Y5900000D03*
X3200000Y7200000D03*
X1900000Y7300000D03*
X16500000Y5400000D03*
X37300000Y13550000D03*
X32200000Y1500000D03*
X11700000Y12288306D03*
%TO.N,+3.3V*%
X12600000Y3400000D03*
X22500000Y8200000D03*
X20900000Y3800000D03*
X30325000Y7150000D03*
X12550000Y949989D03*
X13700000Y9000000D03*
X20900000Y5700000D03*
X16100000Y2900000D03*
X31700000Y2200000D03*
X27500000Y1900000D03*
X29800000Y4600000D03*
X15800000Y7800000D03*
X26600000Y9000000D03*
X15800000Y5400000D03*
X3800000Y13300000D03*
X12500000Y5900000D03*
X13100000Y9100000D03*
X22500000Y3000000D03*
%TO.N,+5V*%
X31800000Y5400000D03*
X31900000Y9400000D03*
%TO.N,/T_GNDDetect*%
X3300000Y3500000D03*
%TO.N,/T_VCP_RX*%
X3300000Y1900000D03*
X2600000Y10000000D03*
X3300000Y700000D03*
X8200000Y1150000D03*
%TO.N,/T_VCP_TX*%
X5900000Y700000D03*
X9800000Y6425000D03*
X5900000Y1950000D03*
%TO.N,/P_SWCLK*%
X20900000Y4400000D03*
%TO.N,/P_SWDIO*%
X19200000Y3900000D03*
%TO.N,/T_SWO_TDO*%
X5300000Y5850000D03*
%TO.N,/T_SWDIO_TMS*%
X9550000Y600000D03*
X10100000Y950000D03*
X5300000Y8500000D03*
%TO.N,/T_SWDCLK_JCLK*%
X6750000Y700000D03*
X6750000Y1950000D03*
X5300000Y7250000D03*
%TO.N,/T_TDI*%
X3100000Y10350000D03*
X3850000Y4200000D03*
%TO.N,/T_VCC*%
X7700000Y9650000D03*
X2900000Y8400000D03*
X4325000Y1900000D03*
X4325000Y700000D03*
%TO.N,/T_VCC_EN*%
X10980000Y11250000D03*
X23300000Y10000000D03*
%TO.N,/T_VCC_MEAS*%
X8800000Y6400000D03*
X24500000Y2900000D03*
%TO.N,/GPIO2*%
X25300000Y10000000D03*
%TO.N,/GPIO1*%
X25900000Y9950000D03*
%TO.N,/PROTECTED_5V*%
X8350000Y13500000D03*
X16900000Y12550000D03*
%TO.N,/5V_KEY*%
X10850000Y650000D03*
X15390000Y1570000D03*
X4350000Y5350000D03*
%TO.N,/5V_KEY_EN*%
X24400000Y10000000D03*
X3900000Y12200000D03*
%TO.N,/VS_T*%
X10070000Y9950000D03*
X15959519Y975500D03*
%TO.N,/TRANS_VCC*%
X13500000Y4800000D03*
X11900000Y3400000D03*
X13100000Y700000D03*
X13514812Y2314812D03*
X11500000Y5800000D03*
X15000000Y3900000D03*
X13400000Y7300000D03*
X12300000Y9310000D03*
%TO.N,+1V1*%
X26100000Y3800000D03*
X20900000Y5000000D03*
X26100000Y5800000D03*
%TO.N,/PWM_VS*%
X22300000Y3600000D03*
X19400000Y2100000D03*
%TO.N,/DIR_VCP_RX*%
X23920000Y1420000D03*
X11450000Y1580000D03*
%TO.N,/DIR_VCP_TX*%
X23700000Y2900000D03*
X13300000Y2900000D03*
%TO.N,/~{RESET}*%
X21000000Y8200000D03*
X11000000Y2600000D03*
%TO.N,/GNDDetect*%
X11000000Y3200000D03*
X21800000Y8100000D03*
%TO.N,/SWDCLK_JCLK*%
X16900000Y6400000D03*
X20290000Y8880000D03*
%TO.N,/SWDIO_TMS*%
X19700000Y8800000D03*
X15200000Y8525500D03*
%TO.N,/DIR_TDI*%
X23120000Y1420000D03*
X11300000Y3700000D03*
%TO.N,/DIR_SWO_TDO*%
X13400000Y5500000D03*
X23100000Y3000000D03*
%TO.N,/DIR_SWDCLK_JCLK*%
X11530000Y6900000D03*
X21300000Y3000000D03*
%TO.N,/DIR_SWDIO_TMS*%
X19300000Y8200000D03*
X13500000Y7900000D03*
%TO.N,/VS2_T*%
X11300000Y9390000D03*
X28080000Y12860000D03*
%TO.N,/PWM2_VS*%
X32250000Y12150000D03*
X26600000Y9950000D03*
%TD*%
D15*
%TO.N,Net-(D3-A)*%
X10120000Y11660000D02*
X10120000Y11570000D01*
X9350000Y10800000D02*
X9350000Y9650000D01*
X10200000Y8800000D02*
X10200000Y8450000D01*
X9350000Y9650000D02*
X10200000Y8800000D01*
X10120000Y11570000D02*
X9350000Y10800000D01*
D16*
%TO.N,+3.3V*%
X13300000Y12400000D02*
X12850000Y12850000D01*
X8340000Y12850000D02*
X7590000Y12100000D01*
X7590000Y12100000D02*
X5000000Y12100000D01*
X13100000Y9100000D02*
X13300000Y9300000D01*
X12850000Y12850000D02*
X8340000Y12850000D01*
X13300000Y9300000D02*
X13300000Y12400000D01*
X5000000Y12100000D02*
X3800000Y13300000D01*
D17*
%TO.N,/5V_KEY*%
X11350000Y650000D02*
X10850000Y650000D01*
X15390000Y1150000D02*
X15180000Y940000D01*
X15180000Y940000D02*
X13810000Y940000D01*
X13200000Y1550000D02*
X12250000Y1550000D01*
X12250000Y1550000D02*
X11350000Y650000D01*
X13810000Y940000D02*
X13200000Y1550000D01*
X15390000Y1570000D02*
X15390000Y1150000D01*
%TD*%
%TA.AperFunction,Conductor*%
%TO.N,GND*%
G36*
X6669985Y13785148D02*
G01*
X6684337Y13750500D01*
X6669985Y13715852D01*
X6607303Y13653171D01*
X6607302Y13653170D01*
X6532251Y13540848D01*
X6480555Y13416042D01*
X6480552Y13416031D01*
X6454200Y13283551D01*
X6454200Y13148450D01*
X6480552Y13015970D01*
X6480555Y13015959D01*
X6532251Y12891153D01*
X6607302Y12778831D01*
X6702830Y12683303D01*
X6815152Y12608252D01*
X6939960Y12556555D01*
X6939966Y12556554D01*
X6939969Y12556553D01*
X7072449Y12530201D01*
X7072452Y12530201D01*
X7072455Y12530200D01*
X7072456Y12530200D01*
X7207544Y12530200D01*
X7207545Y12530200D01*
X7307086Y12550000D01*
X7340030Y12556553D01*
X7340030Y12556554D01*
X7340040Y12556555D01*
X7464848Y12608252D01*
X7577172Y12683305D01*
X7672695Y12778828D01*
X7747748Y12891152D01*
X7799445Y13015960D01*
X7825800Y13148455D01*
X7825800Y13283545D01*
X7819765Y13313886D01*
X7799447Y13416031D01*
X7799444Y13416042D01*
X7747748Y13540848D01*
X7672697Y13653170D01*
X7610015Y13715852D01*
X7595663Y13750500D01*
X7610015Y13785148D01*
X7644663Y13799500D01*
X8039097Y13799500D01*
X8073745Y13785148D01*
X8088097Y13750500D01*
X8081532Y13726000D01*
X8020328Y13619994D01*
X7999170Y13500000D01*
X8020328Y13380007D01*
X8081247Y13274493D01*
X8174584Y13196172D01*
X8189959Y13190577D01*
X8212829Y13182253D01*
X8240480Y13156917D01*
X8242116Y13119450D01*
X8216780Y13091799D01*
X8214824Y13090938D01*
X8186771Y13079318D01*
X7492307Y12384852D01*
X7457659Y12370500D01*
X5132341Y12370500D01*
X5097693Y12384852D01*
X4154965Y13327580D01*
X4141357Y13353719D01*
X4138757Y13368467D01*
X4129672Y13419991D01*
X4129671Y13419993D01*
X4129671Y13419994D01*
X4068752Y13525508D01*
X3975415Y13603828D01*
X3931007Y13619991D01*
X3860921Y13645500D01*
X3739079Y13645500D01*
X3700705Y13631533D01*
X3624584Y13603828D01*
X3531247Y13525508D01*
X3470328Y13419994D01*
X3449170Y13300000D01*
X3470328Y13180007D01*
X3531247Y13074493D01*
X3531248Y13074492D01*
X3531249Y13074491D01*
X3624585Y12996172D01*
X3739079Y12954500D01*
X3742659Y12954500D01*
X3777307Y12940148D01*
X4140828Y12576627D01*
X4155180Y12541979D01*
X4140828Y12507331D01*
X4106180Y12492979D01*
X4079673Y12502626D01*
X4079130Y12501684D01*
X4075417Y12503827D01*
X4075415Y12503828D01*
X3960921Y12545500D01*
X3839079Y12545500D01*
X3797045Y12530201D01*
X3724584Y12503828D01*
X3631247Y12425508D01*
X3570328Y12319994D01*
X3549170Y12200000D01*
X3570328Y12080007D01*
X3631247Y11974493D01*
X3631248Y11974492D01*
X3631249Y11974491D01*
X3724585Y11896172D01*
X3839079Y11854500D01*
X3839080Y11854500D01*
X3960920Y11854500D01*
X3960921Y11854500D01*
X4075415Y11896172D01*
X4168751Y11974491D01*
X4229672Y12080009D01*
X4250830Y12200000D01*
X4229672Y12319991D01*
X4229671Y12319993D01*
X4229671Y12319994D01*
X4186560Y12394663D01*
X4181665Y12431845D01*
X4204495Y12461598D01*
X4241677Y12466493D01*
X4263643Y12453811D01*
X4846770Y11870684D01*
X4846772Y11870683D01*
X4846774Y11870681D01*
X4885840Y11854500D01*
X4946194Y11829500D01*
X6710121Y11829500D01*
X6744769Y11815148D01*
X6759121Y11780500D01*
X6744769Y11745852D01*
X6737344Y11739758D01*
X6702830Y11716698D01*
X6607302Y11621170D01*
X6532251Y11508848D01*
X6480555Y11384042D01*
X6480552Y11384031D01*
X6454200Y11251551D01*
X6454200Y11116450D01*
X6480552Y10983970D01*
X6480555Y10983959D01*
X6532251Y10859153D01*
X6607302Y10746831D01*
X6702830Y10651303D01*
X6740343Y10626238D01*
X6815152Y10576252D01*
X6939960Y10524555D01*
X6939966Y10524554D01*
X6939969Y10524553D01*
X7072449Y10498201D01*
X7072452Y10498201D01*
X7072455Y10498200D01*
X7072456Y10498200D01*
X7207544Y10498200D01*
X7207545Y10498200D01*
X7340040Y10524555D01*
X7464848Y10576252D01*
X7577172Y10651305D01*
X7672695Y10746828D01*
X7740818Y10848781D01*
X8979500Y10848781D01*
X8979500Y9601220D01*
X9004747Y9506997D01*
X9004748Y9506995D01*
X9004749Y9506992D01*
X9021777Y9477498D01*
X9029137Y9464750D01*
X9053526Y9422507D01*
X9815148Y8660886D01*
X9829500Y8626238D01*
X9829500Y8401220D01*
X9854748Y8306994D01*
X9854749Y8306991D01*
X9903526Y8222508D01*
X9972508Y8153526D01*
X10056992Y8104749D01*
X10131307Y8084837D01*
X10151219Y8079501D01*
X10151220Y8079500D01*
X10151223Y8079500D01*
X10248780Y8079500D01*
X10248780Y8079501D01*
X10343008Y8104749D01*
X10427492Y8153526D01*
X10496474Y8222508D01*
X10545251Y8306992D01*
X10570499Y8401220D01*
X10570500Y8401220D01*
X10570500Y8525500D01*
X14849170Y8525500D01*
X14870328Y8405507D01*
X14931247Y8299993D01*
X14931248Y8299992D01*
X14931249Y8299991D01*
X15024585Y8221672D01*
X15139079Y8180000D01*
X15139080Y8180000D01*
X15260920Y8180000D01*
X15260921Y8180000D01*
X15315871Y8200000D01*
X18949170Y8200000D01*
X18970328Y8080007D01*
X19031247Y7974493D01*
X19031248Y7974492D01*
X19031249Y7974491D01*
X19124585Y7896172D01*
X19239079Y7854500D01*
X19239080Y7854500D01*
X19360920Y7854500D01*
X19360921Y7854500D01*
X19475415Y7896172D01*
X19568751Y7974491D01*
X19613563Y8052107D01*
X19629671Y8080007D01*
X19629671Y8080008D01*
X19629672Y8080009D01*
X19650830Y8200000D01*
X20649170Y8200000D01*
X20670328Y8080007D01*
X20731247Y7974493D01*
X20731248Y7974492D01*
X20731249Y7974491D01*
X20824585Y7896172D01*
X20939079Y7854500D01*
X20939080Y7854500D01*
X21060920Y7854500D01*
X21060921Y7854500D01*
X21175415Y7896172D01*
X21268751Y7974491D01*
X21313563Y8052107D01*
X21329671Y8080007D01*
X21329671Y8080008D01*
X21329672Y8080009D01*
X21333197Y8100000D01*
X21449170Y8100000D01*
X21470328Y7980007D01*
X21531247Y7874493D01*
X21531248Y7874492D01*
X21531249Y7874491D01*
X21624585Y7796172D01*
X21739079Y7754500D01*
X21739080Y7754500D01*
X21860920Y7754500D01*
X21860921Y7754500D01*
X21975415Y7796172D01*
X22068751Y7874491D01*
X22129672Y7980009D01*
X22129672Y7980011D01*
X22131138Y7984036D01*
X22132795Y7983433D01*
X22149445Y8009593D01*
X22186056Y8017726D01*
X22217694Y7997590D01*
X22220003Y7993968D01*
X22228063Y7980009D01*
X22231249Y7974491D01*
X22324585Y7896172D01*
X22439079Y7854500D01*
X22439080Y7854500D01*
X22560920Y7854500D01*
X22560921Y7854500D01*
X22675415Y7896172D01*
X22768751Y7974491D01*
X22813563Y8052107D01*
X22829671Y8080007D01*
X22829671Y8080008D01*
X22829672Y8080009D01*
X22850830Y8200000D01*
X22829672Y8319991D01*
X22829671Y8319993D01*
X22829671Y8319994D01*
X22768752Y8425508D01*
X22675415Y8503828D01*
X22631007Y8519991D01*
X22560921Y8545500D01*
X22439079Y8545500D01*
X22384129Y8525500D01*
X22324584Y8503828D01*
X22231247Y8425508D01*
X22170327Y8319991D01*
X22168862Y8315964D01*
X22167209Y8316566D01*
X22150533Y8290393D01*
X22113918Y8282279D01*
X22082290Y8302432D01*
X22079996Y8306033D01*
X22068751Y8325509D01*
X21975415Y8403828D01*
X21915846Y8425509D01*
X21860921Y8445500D01*
X21739079Y8445500D01*
X21684154Y8425509D01*
X21624584Y8403828D01*
X21531247Y8325508D01*
X21470328Y8219994D01*
X21449170Y8100000D01*
X21333197Y8100000D01*
X21350830Y8200000D01*
X21329672Y8319991D01*
X21329671Y8319993D01*
X21329671Y8319994D01*
X21268752Y8425508D01*
X21175415Y8503828D01*
X21131007Y8519991D01*
X21060921Y8545500D01*
X20939079Y8545500D01*
X20884129Y8525500D01*
X20824584Y8503828D01*
X20731247Y8425508D01*
X20670328Y8319994D01*
X20649170Y8200000D01*
X19650830Y8200000D01*
X19629672Y8319991D01*
X19629671Y8319993D01*
X19629671Y8319994D01*
X19594449Y8381000D01*
X19589554Y8418182D01*
X19612384Y8447935D01*
X19636884Y8454500D01*
X19760920Y8454500D01*
X19760921Y8454500D01*
X19875415Y8496172D01*
X19968751Y8574491D01*
X19987800Y8607487D01*
X20017552Y8630316D01*
X20054734Y8625422D01*
X20061727Y8620526D01*
X20114585Y8576172D01*
X20229079Y8534500D01*
X20229080Y8534500D01*
X20350920Y8534500D01*
X20350921Y8534500D01*
X20465415Y8576172D01*
X20558751Y8654491D01*
X20614476Y8751009D01*
X20619671Y8760007D01*
X20619671Y8760008D01*
X20619672Y8760009D01*
X20640830Y8880000D01*
X20619672Y8999991D01*
X20619671Y8999993D01*
X20619671Y8999994D01*
X20619668Y9000000D01*
X26249170Y9000000D01*
X26270328Y8880007D01*
X26331247Y8774493D01*
X26331248Y8774492D01*
X26331249Y8774491D01*
X26424585Y8696172D01*
X26539079Y8654500D01*
X26539080Y8654500D01*
X26660920Y8654500D01*
X26660921Y8654500D01*
X26775415Y8696172D01*
X26868751Y8774491D01*
X26924286Y8870680D01*
X26929671Y8880007D01*
X26929671Y8880008D01*
X26929672Y8880009D01*
X26950830Y9000000D01*
X26929672Y9119991D01*
X26929671Y9119993D01*
X26929671Y9119994D01*
X26868752Y9225508D01*
X26815718Y9270009D01*
X26775415Y9303828D01*
X26660921Y9345500D01*
X26539079Y9345500D01*
X26484154Y9325509D01*
X26424584Y9303828D01*
X26331247Y9225508D01*
X26270328Y9119994D01*
X26249170Y9000000D01*
X20619668Y9000000D01*
X20558752Y9105508D01*
X20558748Y9105511D01*
X20465415Y9183828D01*
X20350921Y9225500D01*
X20229079Y9225500D01*
X20171832Y9204664D01*
X20114584Y9183828D01*
X20021249Y9105511D01*
X20021249Y9105510D01*
X20002199Y9072515D01*
X19972445Y9049685D01*
X19935263Y9054581D01*
X19928267Y9059480D01*
X19875415Y9103828D01*
X19831007Y9119991D01*
X19760921Y9145500D01*
X19639079Y9145500D01*
X19600705Y9131533D01*
X19524584Y9103828D01*
X19431247Y9025508D01*
X19370328Y8919994D01*
X19349170Y8800000D01*
X19370328Y8680007D01*
X19405551Y8619000D01*
X19410446Y8581818D01*
X19387616Y8552065D01*
X19363116Y8545500D01*
X19360921Y8545500D01*
X19239079Y8545500D01*
X19184129Y8525500D01*
X19124584Y8503828D01*
X19031247Y8425508D01*
X18970328Y8319994D01*
X18949170Y8200000D01*
X15315871Y8200000D01*
X15375415Y8221672D01*
X15468751Y8299991D01*
X15515522Y8381000D01*
X15529671Y8405507D01*
X15529671Y8405508D01*
X15529672Y8405509D01*
X15550830Y8525500D01*
X15529672Y8645491D01*
X15529671Y8645493D01*
X15529671Y8645494D01*
X15468752Y8751008D01*
X15464590Y8754500D01*
X15375415Y8829328D01*
X15260921Y8871000D01*
X15139079Y8871000D01*
X15083923Y8850925D01*
X15024584Y8829328D01*
X14931247Y8751008D01*
X14870328Y8645494D01*
X14849170Y8525500D01*
X10570500Y8525500D01*
X10570500Y8848779D01*
X10564631Y8870680D01*
X10564631Y8870681D01*
X10545252Y8943007D01*
X10542433Y8947889D01*
X10508783Y9006172D01*
X10496474Y9027492D01*
X10253957Y9270009D01*
X10133966Y9390000D01*
X10949170Y9390000D01*
X10970328Y9270007D01*
X11031247Y9164493D01*
X11031248Y9164492D01*
X11031249Y9164491D01*
X11124585Y9086172D01*
X11239079Y9044500D01*
X11239080Y9044500D01*
X11360920Y9044500D01*
X11360921Y9044500D01*
X11475415Y9086172D01*
X11568751Y9164491D01*
X11629672Y9270009D01*
X11636724Y9310000D01*
X11949170Y9310000D01*
X11970328Y9190007D01*
X12031247Y9084493D01*
X12031248Y9084492D01*
X12031249Y9084491D01*
X12124585Y9006172D01*
X12239079Y8964500D01*
X12239080Y8964500D01*
X12360920Y8964500D01*
X12360921Y8964500D01*
X12475415Y9006172D01*
X12568751Y9084491D01*
X12623627Y9179538D01*
X12629671Y9190007D01*
X12629671Y9190008D01*
X12629672Y9190009D01*
X12650830Y9310000D01*
X12629672Y9429991D01*
X12629671Y9429993D01*
X12629671Y9429994D01*
X12568752Y9535508D01*
X12548964Y9552112D01*
X12475415Y9613828D01*
X12360921Y9655500D01*
X12239079Y9655500D01*
X12181832Y9634664D01*
X12124584Y9613828D01*
X12031247Y9535508D01*
X11970328Y9429994D01*
X11949170Y9310000D01*
X11636724Y9310000D01*
X11650830Y9390000D01*
X11629672Y9509991D01*
X11629671Y9509993D01*
X11629671Y9509994D01*
X11568752Y9615508D01*
X11556833Y9625509D01*
X11475415Y9693828D01*
X11360921Y9735500D01*
X11239079Y9735500D01*
X11208832Y9724491D01*
X11124584Y9693828D01*
X11031247Y9615508D01*
X10970328Y9509994D01*
X10949170Y9390000D01*
X10133966Y9390000D01*
X10003115Y9520852D01*
X9988763Y9555500D01*
X10003115Y9590148D01*
X10037763Y9604500D01*
X10130920Y9604500D01*
X10130921Y9604500D01*
X10245415Y9646172D01*
X10338751Y9724491D01*
X10384434Y9803616D01*
X10399671Y9830007D01*
X10399671Y9830008D01*
X10399672Y9830009D01*
X10420830Y9950000D01*
X10399672Y10069991D01*
X10399671Y10069993D01*
X10399671Y10069994D01*
X10338752Y10175508D01*
X10331805Y10181337D01*
X10245415Y10253828D01*
X10130921Y10295500D01*
X10009079Y10295500D01*
X9951832Y10274664D01*
X9894584Y10253828D01*
X9800997Y10175298D01*
X9765230Y10164020D01*
X9731964Y10181337D01*
X9720500Y10212834D01*
X9720500Y10626238D01*
X9734852Y10660886D01*
X10323966Y11250000D01*
X10629170Y11250000D01*
X10650328Y11130007D01*
X10711247Y11024493D01*
X10711248Y11024492D01*
X10711249Y11024491D01*
X10804585Y10946172D01*
X10919079Y10904500D01*
X10919080Y10904500D01*
X11040920Y10904500D01*
X11040921Y10904500D01*
X11155415Y10946172D01*
X11248751Y11024491D01*
X11309672Y11130009D01*
X11330830Y11250000D01*
X11309672Y11369991D01*
X11309671Y11369993D01*
X11309671Y11369994D01*
X11248752Y11475508D01*
X11248751Y11475509D01*
X11155415Y11553828D01*
X11040921Y11595500D01*
X10919079Y11595500D01*
X10861832Y11574664D01*
X10804584Y11553828D01*
X10711249Y11475509D01*
X10711247Y11475508D01*
X10650328Y11369994D01*
X10629170Y11250000D01*
X10323966Y11250000D01*
X10416472Y11342506D01*
X10426903Y11360570D01*
X10465250Y11426990D01*
X10465251Y11426993D01*
X10478251Y11475509D01*
X10478251Y11475510D01*
X10490500Y11521221D01*
X10490500Y11708780D01*
X10490499Y11708781D01*
X10476016Y11762831D01*
X10465251Y11803008D01*
X10416474Y11887492D01*
X10347492Y11956474D01*
X10263009Y12005251D01*
X10263006Y12005252D01*
X10168780Y12030500D01*
X10168777Y12030500D01*
X10071223Y12030500D01*
X10071220Y12030500D01*
X9976993Y12005252D01*
X9976990Y12005251D01*
X9892507Y11956474D01*
X9892507Y11956473D01*
X9823527Y11887493D01*
X9823526Y11887493D01*
X9774749Y11803011D01*
X9774747Y11803005D01*
X9758274Y11741526D01*
X9745592Y11719560D01*
X9053528Y11027497D01*
X9053522Y11027489D01*
X9051792Y11024491D01*
X9051791Y11024489D01*
X9004749Y10943011D01*
X9004748Y10943007D01*
X8979500Y10848781D01*
X7740818Y10848781D01*
X7747748Y10859152D01*
X7799445Y10983960D01*
X7825800Y11116455D01*
X7825800Y11251545D01*
X7808532Y11338359D01*
X7799447Y11384031D01*
X7799444Y11384042D01*
X7781654Y11426990D01*
X7747748Y11508848D01*
X7689849Y11595500D01*
X7672697Y11621170D01*
X7577169Y11716698D01*
X7542656Y11739758D01*
X7521821Y11770940D01*
X7529137Y11807723D01*
X7560319Y11828558D01*
X7569879Y11829500D01*
X7643804Y11829500D01*
X7643806Y11829500D01*
X7704160Y11854500D01*
X7743226Y11870681D01*
X8437693Y12565148D01*
X8472341Y12579500D01*
X12717659Y12579500D01*
X12752307Y12565148D01*
X13015148Y12302307D01*
X13029500Y12267659D01*
X13029500Y9476325D01*
X13015148Y9441677D01*
X12997259Y9430280D01*
X12924584Y9403828D01*
X12831247Y9325508D01*
X12770328Y9219994D01*
X12749170Y9100000D01*
X12770328Y8980007D01*
X12831247Y8874493D01*
X12831248Y8874492D01*
X12831249Y8874491D01*
X12924585Y8796172D01*
X13039079Y8754500D01*
X13039080Y8754500D01*
X13160920Y8754500D01*
X13160921Y8754500D01*
X13275415Y8796172D01*
X13327226Y8839648D01*
X13362992Y8850925D01*
X13396258Y8833608D01*
X13401157Y8826611D01*
X13431247Y8774493D01*
X13431248Y8774492D01*
X13431249Y8774491D01*
X13524585Y8696172D01*
X13639079Y8654500D01*
X13639080Y8654500D01*
X13760920Y8654500D01*
X13760921Y8654500D01*
X13875415Y8696172D01*
X13968751Y8774491D01*
X14024286Y8870680D01*
X14029671Y8880007D01*
X14029671Y8880008D01*
X14029672Y8880009D01*
X14050830Y9000000D01*
X14029672Y9119991D01*
X14029671Y9119993D01*
X14029671Y9119994D01*
X13968752Y9225508D01*
X13915718Y9270009D01*
X13875415Y9303828D01*
X13760921Y9345500D01*
X13639079Y9345500D01*
X13636254Y9344472D01*
X13598787Y9346112D01*
X13573453Y9373765D01*
X13570500Y9390519D01*
X13570500Y9400000D01*
X31549170Y9400000D01*
X31570328Y9280007D01*
X31631247Y9174493D01*
X31631248Y9174492D01*
X31631249Y9174491D01*
X31724585Y9096172D01*
X31839079Y9054500D01*
X31839080Y9054500D01*
X31960920Y9054500D01*
X31960921Y9054500D01*
X32075415Y9096172D01*
X32168751Y9174491D01*
X32223897Y9270007D01*
X32229671Y9280007D01*
X32229671Y9280008D01*
X32229672Y9280009D01*
X32250830Y9400000D01*
X32229672Y9519991D01*
X32229671Y9519993D01*
X32229671Y9519994D01*
X32168752Y9625508D01*
X32096525Y9686114D01*
X32075415Y9703828D01*
X31960921Y9745500D01*
X31839079Y9745500D01*
X31811604Y9735500D01*
X31724584Y9703828D01*
X31631247Y9625508D01*
X31570328Y9519994D01*
X31549170Y9400000D01*
X13570500Y9400000D01*
X13570500Y10000000D01*
X22949170Y10000000D01*
X22970328Y9880007D01*
X23031247Y9774493D01*
X23031248Y9774492D01*
X23031249Y9774491D01*
X23124585Y9696172D01*
X23239079Y9654500D01*
X23239080Y9654500D01*
X23360920Y9654500D01*
X23360921Y9654500D01*
X23475415Y9696172D01*
X23568751Y9774491D01*
X23629672Y9880009D01*
X23650830Y10000000D01*
X24049170Y10000000D01*
X24070328Y9880007D01*
X24131247Y9774493D01*
X24131248Y9774492D01*
X24131249Y9774491D01*
X24224585Y9696172D01*
X24339079Y9654500D01*
X24339080Y9654500D01*
X24460920Y9654500D01*
X24460921Y9654500D01*
X24575415Y9696172D01*
X24668751Y9774491D01*
X24729672Y9880009D01*
X24750830Y10000000D01*
X24949170Y10000000D01*
X24970328Y9880007D01*
X25031247Y9774493D01*
X25031248Y9774492D01*
X25031249Y9774491D01*
X25124585Y9696172D01*
X25239079Y9654500D01*
X25239080Y9654500D01*
X25360920Y9654500D01*
X25360921Y9654500D01*
X25475415Y9696172D01*
X25546673Y9755966D01*
X25582438Y9767243D01*
X25615704Y9749926D01*
X25620603Y9742929D01*
X25631247Y9724493D01*
X25631248Y9724492D01*
X25631249Y9724491D01*
X25724585Y9646172D01*
X25839079Y9604500D01*
X25839080Y9604500D01*
X25960920Y9604500D01*
X25960921Y9604500D01*
X26075415Y9646172D01*
X26168751Y9724491D01*
X26207565Y9791718D01*
X26237318Y9814548D01*
X26274500Y9809653D01*
X26292435Y9791718D01*
X26331247Y9724493D01*
X26331248Y9724492D01*
X26331249Y9724491D01*
X26424585Y9646172D01*
X26539079Y9604500D01*
X26539080Y9604500D01*
X26660920Y9604500D01*
X26660921Y9604500D01*
X26775415Y9646172D01*
X26868751Y9724491D01*
X26914434Y9803616D01*
X26929671Y9830007D01*
X26929671Y9830008D01*
X26929672Y9830009D01*
X26950830Y9950000D01*
X26949442Y9957870D01*
X33884500Y9957870D01*
X33884500Y9822131D01*
X33919629Y9691029D01*
X33919631Y9691023D01*
X33969586Y9604500D01*
X33987498Y9573476D01*
X34083476Y9477498D01*
X34126500Y9452658D01*
X34201022Y9409632D01*
X34201028Y9409630D01*
X34332130Y9374500D01*
X34332133Y9374500D01*
X34467869Y9374500D01*
X34598971Y9409630D01*
X34598969Y9409630D01*
X34598975Y9409631D01*
X34716524Y9477498D01*
X34812502Y9573476D01*
X34880369Y9691025D01*
X34900792Y9767243D01*
X34915500Y9822131D01*
X34915500Y9957870D01*
X34880370Y10088972D01*
X34880368Y10088978D01*
X34830409Y10175508D01*
X34812502Y10206524D01*
X34716524Y10302502D01*
X34702032Y10310869D01*
X34598977Y10370369D01*
X34598971Y10370371D01*
X34467870Y10405500D01*
X34467867Y10405500D01*
X34332133Y10405500D01*
X34332130Y10405500D01*
X34201028Y10370371D01*
X34201022Y10370369D01*
X34083475Y10302502D01*
X34083475Y10302501D01*
X33987499Y10206525D01*
X33987498Y10206525D01*
X33919631Y10088978D01*
X33919629Y10088972D01*
X33884500Y9957870D01*
X26949442Y9957870D01*
X26929672Y10069991D01*
X26929671Y10069993D01*
X26929671Y10069994D01*
X26868752Y10175508D01*
X26861805Y10181337D01*
X26775415Y10253828D01*
X26660921Y10295500D01*
X26539079Y10295500D01*
X26481832Y10274664D01*
X26424584Y10253828D01*
X26331247Y10175508D01*
X26292435Y10108283D01*
X26262682Y10085453D01*
X26225500Y10090348D01*
X26207565Y10108283D01*
X26168752Y10175508D01*
X26161805Y10181337D01*
X26075415Y10253828D01*
X25960921Y10295500D01*
X25839079Y10295500D01*
X25781832Y10274664D01*
X25724584Y10253828D01*
X25653327Y10194036D01*
X25617559Y10182758D01*
X25584294Y10200075D01*
X25579399Y10207066D01*
X25568751Y10225509D01*
X25475415Y10303828D01*
X25360921Y10345500D01*
X25239079Y10345500D01*
X25211772Y10335561D01*
X25124584Y10303828D01*
X25031247Y10225508D01*
X24970328Y10119994D01*
X24949170Y10000000D01*
X24750830Y10000000D01*
X24729672Y10119991D01*
X24729671Y10119993D01*
X24729671Y10119994D01*
X24668752Y10225508D01*
X24663390Y10230007D01*
X24575415Y10303828D01*
X24460921Y10345500D01*
X24339079Y10345500D01*
X24311772Y10335561D01*
X24224584Y10303828D01*
X24131247Y10225508D01*
X24070328Y10119994D01*
X24049170Y10000000D01*
X23650830Y10000000D01*
X23629672Y10119991D01*
X23629671Y10119993D01*
X23629671Y10119994D01*
X23568752Y10225508D01*
X23563390Y10230007D01*
X23475415Y10303828D01*
X23360921Y10345500D01*
X23239079Y10345500D01*
X23211772Y10335561D01*
X23124584Y10303828D01*
X23031247Y10225508D01*
X22970328Y10119994D01*
X22949170Y10000000D01*
X13570500Y10000000D01*
X13570500Y11395001D01*
X32672183Y11395001D01*
X32672184Y11395000D01*
X33029513Y11395000D01*
X33020000Y11359496D01*
X33020000Y11280504D01*
X33029513Y11245000D01*
X32672183Y11245000D01*
X32694976Y11130414D01*
X32694980Y11130399D01*
X32743976Y11012114D01*
X32815112Y10905649D01*
X32905648Y10815113D01*
X33012113Y10743977D01*
X33130398Y10694981D01*
X33130404Y10694979D01*
X33255984Y10670000D01*
X33795000Y10670000D01*
X33795000Y11020000D01*
X33945000Y11020000D01*
X33945000Y10670000D01*
X34484016Y10670000D01*
X34609595Y10694979D01*
X34609601Y10694981D01*
X34727886Y10743977D01*
X34834351Y10815113D01*
X34924887Y10905649D01*
X34996023Y11012114D01*
X35045019Y11130399D01*
X35045023Y11130414D01*
X35067816Y11245000D01*
X34710487Y11245000D01*
X34720000Y11280504D01*
X34720000Y11359496D01*
X34710487Y11395000D01*
X35067816Y11395000D01*
X35067816Y11395001D01*
X37102183Y11395001D01*
X37102184Y11395000D01*
X37459513Y11395000D01*
X37450000Y11359496D01*
X37450000Y11280504D01*
X37459513Y11245000D01*
X37102183Y11245000D01*
X37124976Y11130414D01*
X37124980Y11130399D01*
X37173976Y11012114D01*
X37245112Y10905649D01*
X37335648Y10815113D01*
X37442113Y10743977D01*
X37560398Y10694981D01*
X37560404Y10694979D01*
X37685984Y10670000D01*
X37975000Y10670000D01*
X37975000Y11020000D01*
X38125000Y11020000D01*
X38125000Y10670000D01*
X38414016Y10670000D01*
X38539595Y10694979D01*
X38539601Y10694981D01*
X38657886Y10743977D01*
X38764351Y10815113D01*
X38854887Y10905649D01*
X38926023Y11012114D01*
X38975019Y11130399D01*
X38975023Y11130414D01*
X38997816Y11245000D01*
X38640487Y11245000D01*
X38650000Y11280504D01*
X38650000Y11359496D01*
X38640487Y11395000D01*
X38997816Y11395000D01*
X38997816Y11395001D01*
X38975023Y11509587D01*
X38975019Y11509602D01*
X38926023Y11627887D01*
X38854887Y11734352D01*
X38764351Y11824888D01*
X38657886Y11896024D01*
X38539601Y11945020D01*
X38539595Y11945022D01*
X38414016Y11970000D01*
X38125000Y11970000D01*
X38125000Y11620000D01*
X37975000Y11620000D01*
X37975000Y11970000D01*
X37685984Y11970000D01*
X37560404Y11945022D01*
X37560398Y11945020D01*
X37442113Y11896024D01*
X37335648Y11824888D01*
X37245112Y11734352D01*
X37173976Y11627887D01*
X37124980Y11509602D01*
X37124976Y11509587D01*
X37102183Y11395001D01*
X35067816Y11395001D01*
X35045023Y11509587D01*
X35045019Y11509602D01*
X34996023Y11627887D01*
X34924887Y11734352D01*
X34834351Y11824888D01*
X34727886Y11896024D01*
X34609601Y11945020D01*
X34609595Y11945022D01*
X34484016Y11970000D01*
X33945000Y11970000D01*
X33945000Y11620000D01*
X33795000Y11620000D01*
X33795000Y11970000D01*
X33255984Y11970000D01*
X33130404Y11945022D01*
X33130398Y11945020D01*
X33012113Y11896024D01*
X32905648Y11824888D01*
X32815112Y11734352D01*
X32743976Y11627887D01*
X32694980Y11509602D01*
X32694976Y11509587D01*
X32672183Y11395001D01*
X13570500Y11395001D01*
X13570500Y12150000D01*
X31899170Y12150000D01*
X31920328Y12030007D01*
X31981247Y11924493D01*
X31981248Y11924492D01*
X31981249Y11924491D01*
X32074585Y11846172D01*
X32189079Y11804500D01*
X32189080Y11804500D01*
X32310920Y11804500D01*
X32310921Y11804500D01*
X32425415Y11846172D01*
X32518751Y11924491D01*
X32579672Y12030009D01*
X32600830Y12150000D01*
X32579672Y12269991D01*
X32579671Y12269993D01*
X32579671Y12269994D01*
X32518752Y12375508D01*
X32507616Y12384852D01*
X32425415Y12453828D01*
X32310921Y12495500D01*
X32189079Y12495500D01*
X32182153Y12492979D01*
X32074584Y12453828D01*
X31981247Y12375508D01*
X31920328Y12269994D01*
X31899170Y12150000D01*
X13570500Y12150000D01*
X13570500Y12453804D01*
X13570499Y12453808D01*
X13553229Y12495500D01*
X13541073Y12524848D01*
X13530655Y12550000D01*
X16549170Y12550000D01*
X16570328Y12430007D01*
X16631247Y12324493D01*
X16631248Y12324492D01*
X16631249Y12324491D01*
X16724585Y12246172D01*
X16839079Y12204500D01*
X16839080Y12204500D01*
X16960920Y12204500D01*
X16960921Y12204500D01*
X17075415Y12246172D01*
X17168751Y12324491D01*
X17229672Y12430009D01*
X17250830Y12550000D01*
X17229672Y12669991D01*
X17229671Y12669993D01*
X17229671Y12669994D01*
X17168752Y12775508D01*
X17164795Y12778828D01*
X17075415Y12853828D01*
X17058457Y12860000D01*
X27729170Y12860000D01*
X27750328Y12740007D01*
X27811247Y12634493D01*
X27811248Y12634492D01*
X27811249Y12634491D01*
X27904585Y12556172D01*
X28019079Y12514500D01*
X28019080Y12514500D01*
X28140920Y12514500D01*
X28140921Y12514500D01*
X28255415Y12556172D01*
X28348751Y12634491D01*
X28409672Y12740009D01*
X28430830Y12860000D01*
X28409672Y12979991D01*
X28409671Y12979993D01*
X28409671Y12979994D01*
X28348752Y13085508D01*
X28255415Y13163828D01*
X28210963Y13180007D01*
X28140921Y13205500D01*
X28019079Y13205500D01*
X27961832Y13184664D01*
X27904584Y13163828D01*
X27811247Y13085508D01*
X27750328Y12979994D01*
X27729170Y12860000D01*
X17058457Y12860000D01*
X16960921Y12895500D01*
X16839079Y12895500D01*
X16781832Y12874664D01*
X16724584Y12853828D01*
X16631247Y12775508D01*
X16570328Y12669994D01*
X16549170Y12550000D01*
X13530655Y12550000D01*
X13529319Y12553226D01*
X13529317Y12553228D01*
X13529316Y12553230D01*
X13003229Y13079317D01*
X13003226Y13079319D01*
X12962044Y13096377D01*
X12903807Y13120500D01*
X12903806Y13120500D01*
X8569859Y13120500D01*
X8535211Y13134852D01*
X8520859Y13169500D01*
X8535211Y13204148D01*
X8538362Y13207036D01*
X8618751Y13274491D01*
X8655710Y13338505D01*
X8679671Y13380007D01*
X8679671Y13380008D01*
X8679672Y13380009D01*
X8700830Y13500000D01*
X8679672Y13619991D01*
X8679671Y13619993D01*
X8679671Y13619994D01*
X8618468Y13726000D01*
X8613573Y13763182D01*
X8636403Y13792935D01*
X8660903Y13799500D01*
X29825118Y13799500D01*
X29859766Y13785148D01*
X29870933Y13767877D01*
X29877523Y13750500D01*
X29901939Y13686118D01*
X29901941Y13686113D01*
X29994435Y13552112D01*
X29994439Y13552107D01*
X30116316Y13444135D01*
X30238499Y13380009D01*
X30260491Y13368467D01*
X30418587Y13329500D01*
X30581413Y13329500D01*
X30739509Y13368467D01*
X30883685Y13444136D01*
X30975537Y13525509D01*
X31005560Y13552107D01*
X31005560Y13552109D01*
X31005563Y13552110D01*
X31098059Y13686114D01*
X31129066Y13767876D01*
X31154771Y13795183D01*
X31174882Y13799500D01*
X31325118Y13799500D01*
X31359766Y13785148D01*
X31370933Y13767877D01*
X31377523Y13750500D01*
X31401939Y13686118D01*
X31401941Y13686113D01*
X31494435Y13552112D01*
X31494439Y13552107D01*
X31616316Y13444135D01*
X31738499Y13380009D01*
X31760491Y13368467D01*
X31918587Y13329500D01*
X32081413Y13329500D01*
X32239509Y13368467D01*
X32383685Y13444136D01*
X32475537Y13525509D01*
X32505560Y13552107D01*
X32505560Y13552109D01*
X32505563Y13552110D01*
X32598059Y13686114D01*
X32629066Y13767876D01*
X32654771Y13795183D01*
X32674882Y13799500D01*
X32825118Y13799500D01*
X32859766Y13785148D01*
X32870933Y13767877D01*
X32877523Y13750500D01*
X32901939Y13686118D01*
X32901941Y13686113D01*
X32994435Y13552112D01*
X32994439Y13552107D01*
X33116316Y13444135D01*
X33238499Y13380009D01*
X33260491Y13368467D01*
X33418587Y13329500D01*
X33581413Y13329500D01*
X33739509Y13368467D01*
X33883685Y13444136D01*
X33975537Y13525509D01*
X34005560Y13552107D01*
X34005560Y13552109D01*
X34005563Y13552110D01*
X34098059Y13686114D01*
X34129066Y13767876D01*
X34154771Y13795183D01*
X34174882Y13799500D01*
X39396654Y13799500D01*
X39431302Y13785148D01*
X39785148Y13431302D01*
X39799500Y13396654D01*
X39799500Y603346D01*
X39785148Y568698D01*
X39431302Y214852D01*
X39396654Y200500D01*
X34174882Y200500D01*
X34140234Y214852D01*
X34129066Y232125D01*
X34123953Y245606D01*
X34098059Y313886D01*
X34089321Y326545D01*
X34005564Y447889D01*
X34005560Y447894D01*
X33883683Y555866D01*
X33739510Y631533D01*
X33581413Y670500D01*
X33418587Y670500D01*
X33260489Y631533D01*
X33116316Y555866D01*
X32994439Y447894D01*
X32994435Y447889D01*
X32901941Y313888D01*
X32901940Y313886D01*
X32870934Y232125D01*
X32845229Y204817D01*
X32825118Y200500D01*
X32706433Y200500D01*
X32671785Y214852D01*
X32660617Y232124D01*
X32624370Y327697D01*
X32546531Y440466D01*
X32546530Y440467D01*
X32331643Y225578D01*
X32320080Y245606D01*
X32245606Y320080D01*
X32225577Y331644D01*
X32439637Y545705D01*
X32439637Y545706D01*
X32400566Y580320D01*
X32400561Y580323D01*
X32250047Y659318D01*
X32084995Y700000D01*
X31915005Y700000D01*
X31749952Y659318D01*
X31599435Y580322D01*
X31560361Y545706D01*
X31560361Y545705D01*
X31774422Y331644D01*
X31754394Y320080D01*
X31679920Y245606D01*
X31668356Y225578D01*
X31453468Y440467D01*
X31453467Y440466D01*
X31375629Y327697D01*
X31339383Y232124D01*
X31313677Y204817D01*
X31293567Y200500D01*
X9740451Y200500D01*
X9705803Y214852D01*
X9691451Y249500D01*
X9705803Y284148D01*
X9723693Y295545D01*
X9725415Y296172D01*
X9735340Y304500D01*
X9818751Y374491D01*
X9856842Y440467D01*
X9879671Y480007D01*
X9879671Y480008D01*
X9879672Y480009D01*
X9899773Y594006D01*
X9919923Y625633D01*
X9956537Y633751D01*
X9964785Y631541D01*
X10039079Y604500D01*
X10039080Y604500D01*
X10160920Y604500D01*
X10160921Y604500D01*
X10275415Y646172D01*
X10279977Y650000D01*
X10499170Y650000D01*
X10520328Y530007D01*
X10581247Y424493D01*
X10581248Y424492D01*
X10581249Y424491D01*
X10674585Y346172D01*
X10789079Y304500D01*
X10789080Y304500D01*
X10910920Y304500D01*
X10910921Y304500D01*
X10971490Y326546D01*
X10988249Y329500D01*
X11392198Y329500D01*
X11392198Y329501D01*
X11473709Y351341D01*
X11479181Y354500D01*
X11534477Y386426D01*
X11546792Y393536D01*
X11606464Y453208D01*
X11606464Y453210D01*
X11610493Y457238D01*
X11610497Y457243D01*
X12118233Y964980D01*
X12152880Y979331D01*
X12187528Y964979D01*
X12201136Y938840D01*
X12220328Y829996D01*
X12281247Y724482D01*
X12281248Y724481D01*
X12281249Y724480D01*
X12374585Y646161D01*
X12489079Y604489D01*
X12489080Y604489D01*
X12610920Y604489D01*
X12610921Y604489D01*
X12685244Y631540D01*
X12701784Y637560D01*
X12739252Y635924D01*
X12764588Y608274D01*
X12766798Y600024D01*
X12770327Y580010D01*
X12831247Y474493D01*
X12831248Y474492D01*
X12831249Y474491D01*
X12924585Y396172D01*
X13039079Y354500D01*
X13039080Y354500D01*
X13160920Y354500D01*
X13160921Y354500D01*
X13275415Y396172D01*
X13368751Y474491D01*
X13429672Y580009D01*
X13450830Y700000D01*
X13450829Y700002D01*
X13450830Y700003D01*
X13446580Y724104D01*
X13454696Y760718D01*
X13486326Y780868D01*
X13522940Y772752D01*
X13529483Y767261D01*
X13613208Y683536D01*
X13613212Y683534D01*
X13613213Y683533D01*
X13686288Y641342D01*
X13686291Y641341D01*
X13767801Y619501D01*
X13767802Y619500D01*
X13767805Y619500D01*
X15222198Y619500D01*
X15222198Y619501D01*
X15303709Y641341D01*
X15312058Y646161D01*
X15334846Y659318D01*
X15376792Y683536D01*
X15436464Y743208D01*
X15436464Y743210D01*
X15440493Y747238D01*
X15440497Y747243D01*
X15555014Y861761D01*
X15589661Y876112D01*
X15624309Y861760D01*
X15632096Y851612D01*
X15690766Y749993D01*
X15690767Y749992D01*
X15690768Y749991D01*
X15784104Y671672D01*
X15898598Y630000D01*
X15898599Y630000D01*
X16020439Y630000D01*
X16020440Y630000D01*
X16134934Y671672D01*
X16228270Y749991D01*
X16271870Y825508D01*
X16289190Y855507D01*
X16289190Y855508D01*
X16289191Y855509D01*
X16310349Y975500D01*
X16289191Y1095491D01*
X16289190Y1095493D01*
X16289190Y1095494D01*
X16228271Y1201008D01*
X16134934Y1279328D01*
X16078118Y1300007D01*
X16020440Y1321000D01*
X15898598Y1321000D01*
X15869974Y1310582D01*
X15784101Y1279328D01*
X15783994Y1279265D01*
X15783895Y1279252D01*
X15780076Y1277862D01*
X15779767Y1278710D01*
X15746811Y1274375D01*
X15717061Y1297210D01*
X15710500Y1321704D01*
X15710500Y1420000D01*
X22769170Y1420000D01*
X22790328Y1300007D01*
X22851247Y1194493D01*
X22851248Y1194492D01*
X22851249Y1194491D01*
X22944585Y1116172D01*
X23059079Y1074500D01*
X23059080Y1074500D01*
X23180920Y1074500D01*
X23180921Y1074500D01*
X23295415Y1116172D01*
X23388751Y1194491D01*
X23437688Y1279252D01*
X23449671Y1300007D01*
X23449671Y1300008D01*
X23449672Y1300009D01*
X23470830Y1420000D01*
X23569170Y1420000D01*
X23590328Y1300007D01*
X23651247Y1194493D01*
X23651248Y1194492D01*
X23651249Y1194491D01*
X23744585Y1116172D01*
X23859079Y1074500D01*
X23859080Y1074500D01*
X23980920Y1074500D01*
X23980921Y1074500D01*
X24095415Y1116172D01*
X24188751Y1194491D01*
X24237688Y1279252D01*
X24249671Y1300007D01*
X24249671Y1300008D01*
X24249672Y1300009D01*
X24270830Y1420000D01*
X24249672Y1539991D01*
X24249671Y1539993D01*
X24249671Y1539994D01*
X24188752Y1645508D01*
X24187959Y1646173D01*
X24095415Y1723828D01*
X23980921Y1765500D01*
X23859079Y1765500D01*
X23807679Y1746792D01*
X23744584Y1723828D01*
X23651247Y1645508D01*
X23590328Y1539994D01*
X23569170Y1420000D01*
X23470830Y1420000D01*
X23449672Y1539991D01*
X23449671Y1539993D01*
X23449671Y1539994D01*
X23388752Y1645508D01*
X23387959Y1646173D01*
X23295415Y1723828D01*
X23180921Y1765500D01*
X23059079Y1765500D01*
X23007679Y1746792D01*
X22944584Y1723828D01*
X22851247Y1645508D01*
X22790328Y1539994D01*
X22769170Y1420000D01*
X15710500Y1420000D01*
X15710500Y1420993D01*
X15717066Y1445495D01*
X15719671Y1450007D01*
X15719671Y1450008D01*
X15719672Y1450009D01*
X15740830Y1570000D01*
X15719672Y1689991D01*
X15719671Y1689993D01*
X15719671Y1689994D01*
X15658752Y1795508D01*
X15657959Y1796173D01*
X15565415Y1873828D01*
X15450921Y1915500D01*
X15329079Y1915500D01*
X15286493Y1900000D01*
X15214584Y1873828D01*
X15121247Y1795508D01*
X15060328Y1689994D01*
X15039170Y1570000D01*
X15060328Y1450007D01*
X15062934Y1445495D01*
X15069500Y1420993D01*
X15069500Y1309500D01*
X15055148Y1274852D01*
X15020500Y1260500D01*
X13963052Y1260500D01*
X13928404Y1274852D01*
X13459259Y1743996D01*
X13459257Y1743999D01*
X13396795Y1806461D01*
X13396792Y1806464D01*
X13396788Y1806466D01*
X13396786Y1806468D01*
X13323711Y1848659D01*
X13323708Y1848660D01*
X13242198Y1870500D01*
X13242195Y1870500D01*
X12207805Y1870500D01*
X12207802Y1870500D01*
X12126291Y1848660D01*
X12126288Y1848659D01*
X12053213Y1806468D01*
X12053204Y1806461D01*
X11993534Y1746790D01*
X11871272Y1624529D01*
X11836624Y1610177D01*
X11801976Y1624529D01*
X11788369Y1650667D01*
X11779672Y1699991D01*
X11779670Y1699994D01*
X11718752Y1805508D01*
X11700928Y1820464D01*
X11625415Y1883828D01*
X11510921Y1925500D01*
X11389079Y1925500D01*
X11361604Y1915500D01*
X11274584Y1883828D01*
X11181247Y1805508D01*
X11120328Y1699994D01*
X11099170Y1580000D01*
X11120328Y1460007D01*
X11181247Y1354493D01*
X11181248Y1354492D01*
X11181249Y1354491D01*
X11274585Y1276172D01*
X11384374Y1236213D01*
X11412025Y1210877D01*
X11413661Y1173410D01*
X11402264Y1155520D01*
X11231597Y984852D01*
X11196949Y970500D01*
X10988249Y970500D01*
X10971490Y973455D01*
X10965871Y975500D01*
X10910921Y995500D01*
X10789079Y995500D01*
X10759824Y984852D01*
X10674584Y953828D01*
X10581247Y875508D01*
X10520328Y769994D01*
X10499170Y650000D01*
X10279977Y650000D01*
X10368751Y724491D01*
X10427074Y825509D01*
X10429671Y830007D01*
X10429671Y830008D01*
X10429672Y830009D01*
X10450830Y950000D01*
X10429672Y1069991D01*
X10429671Y1069993D01*
X10429671Y1069994D01*
X10368752Y1175508D01*
X10338361Y1201009D01*
X10275415Y1253828D01*
X10160921Y1295500D01*
X10039079Y1295500D01*
X9990619Y1277862D01*
X9924584Y1253828D01*
X9831247Y1175508D01*
X9770327Y1069991D01*
X9750226Y955997D01*
X9730076Y924367D01*
X9693462Y916251D01*
X9685213Y918461D01*
X9610921Y945500D01*
X9489079Y945500D01*
X9470781Y938840D01*
X9374584Y903828D01*
X9281247Y825508D01*
X9220328Y719994D01*
X9199170Y600000D01*
X9220328Y480007D01*
X9281247Y374493D01*
X9374584Y296172D01*
X9376307Y295545D01*
X9377391Y294551D01*
X9378296Y294029D01*
X9378180Y293829D01*
X9403957Y270210D01*
X9405594Y232742D01*
X9380259Y205092D01*
X9359549Y200500D01*
X603346Y200500D01*
X568698Y214852D01*
X417915Y365635D01*
X403563Y400283D01*
X417915Y434931D01*
X420070Y436960D01*
X439637Y454296D01*
X439637Y454298D01*
X225578Y668357D01*
X245606Y679920D01*
X320080Y754394D01*
X331643Y774423D01*
X546530Y559536D01*
X624370Y672304D01*
X634874Y700000D01*
X2949170Y700000D01*
X2970328Y580007D01*
X3031247Y474493D01*
X3031248Y474492D01*
X3031249Y474491D01*
X3124585Y396172D01*
X3239079Y354500D01*
X3239080Y354500D01*
X3360920Y354500D01*
X3360921Y354500D01*
X3475415Y396172D01*
X3568751Y474491D01*
X3629672Y580009D01*
X3650830Y700000D01*
X3974170Y700000D01*
X3995328Y580007D01*
X4056247Y474493D01*
X4056248Y474492D01*
X4056249Y474491D01*
X4149585Y396172D01*
X4264079Y354500D01*
X4264080Y354500D01*
X4385920Y354500D01*
X4385921Y354500D01*
X4500415Y396172D01*
X4593751Y474491D01*
X4654672Y580009D01*
X4675830Y700000D01*
X5549170Y700000D01*
X5570328Y580007D01*
X5631247Y474493D01*
X5631248Y474492D01*
X5631249Y474491D01*
X5724585Y396172D01*
X5839079Y354500D01*
X5839080Y354500D01*
X5960920Y354500D01*
X5960921Y354500D01*
X6075415Y396172D01*
X6168751Y474491D01*
X6229672Y580009D01*
X6250830Y700000D01*
X6399170Y700000D01*
X6420328Y580007D01*
X6481247Y474493D01*
X6481248Y474492D01*
X6481249Y474491D01*
X6574585Y396172D01*
X6689079Y354500D01*
X6689080Y354500D01*
X6810920Y354500D01*
X6810921Y354500D01*
X6925415Y396172D01*
X7018751Y474491D01*
X7079672Y580009D01*
X7100830Y700000D01*
X7079672Y819991D01*
X7079671Y819993D01*
X7079671Y819994D01*
X7018752Y925508D01*
X6925415Y1003828D01*
X6897289Y1014065D01*
X6810921Y1045500D01*
X6689079Y1045500D01*
X6646512Y1030007D01*
X6574584Y1003828D01*
X6481247Y925508D01*
X6420328Y819994D01*
X6399170Y700000D01*
X6250830Y700000D01*
X6229672Y819991D01*
X6229671Y819993D01*
X6229671Y819994D01*
X6168752Y925508D01*
X6075415Y1003828D01*
X6047289Y1014065D01*
X5960921Y1045500D01*
X5839079Y1045500D01*
X5796512Y1030007D01*
X5724584Y1003828D01*
X5631247Y925508D01*
X5570328Y819994D01*
X5549170Y700000D01*
X4675830Y700000D01*
X4654672Y819991D01*
X4654671Y819993D01*
X4654671Y819994D01*
X4593752Y925508D01*
X4500415Y1003828D01*
X4472289Y1014065D01*
X4385921Y1045500D01*
X4264079Y1045500D01*
X4221512Y1030007D01*
X4149584Y1003828D01*
X4056247Y925508D01*
X3995328Y819994D01*
X3974170Y700000D01*
X3650830Y700000D01*
X3629672Y819991D01*
X3629671Y819993D01*
X3629671Y819994D01*
X3568752Y925508D01*
X3475415Y1003828D01*
X3447289Y1014065D01*
X3360921Y1045500D01*
X3239079Y1045500D01*
X3196512Y1030007D01*
X3124584Y1003828D01*
X3031247Y925508D01*
X2970328Y819994D01*
X2949170Y700000D01*
X634874Y700000D01*
X684650Y831248D01*
X705140Y1000000D01*
X686927Y1150000D01*
X7849170Y1150000D01*
X7870328Y1030007D01*
X7931247Y924493D01*
X7931248Y924492D01*
X7931249Y924491D01*
X8024585Y846172D01*
X8139079Y804500D01*
X8139080Y804500D01*
X8260920Y804500D01*
X8260921Y804500D01*
X8375415Y846172D01*
X8468751Y924491D01*
X8529672Y1030009D01*
X8550830Y1150000D01*
X8529672Y1269991D01*
X8529671Y1269993D01*
X8529671Y1269994D01*
X8468752Y1375508D01*
X8375415Y1453828D01*
X8358433Y1460009D01*
X8260921Y1495500D01*
X8139079Y1495500D01*
X8081832Y1474664D01*
X8024584Y1453828D01*
X7931247Y1375508D01*
X7870328Y1269994D01*
X7849170Y1150000D01*
X686927Y1150000D01*
X684650Y1168753D01*
X624370Y1327697D01*
X546531Y1440466D01*
X546530Y1440467D01*
X331642Y1225579D01*
X320080Y1245606D01*
X245606Y1320080D01*
X225576Y1331644D01*
X439637Y1545705D01*
X439637Y1545706D01*
X400566Y1580320D01*
X400561Y1580323D01*
X250048Y1659318D01*
X237772Y1662344D01*
X207566Y1684572D01*
X200500Y1709920D01*
X200500Y1820464D01*
X214852Y1855112D01*
X237778Y1868041D01*
X239509Y1868467D01*
X299591Y1900000D01*
X2949170Y1900000D01*
X2970328Y1780007D01*
X3031247Y1674493D01*
X3031248Y1674492D01*
X3031249Y1674491D01*
X3124585Y1596172D01*
X3239079Y1554500D01*
X3239080Y1554500D01*
X3360920Y1554500D01*
X3360921Y1554500D01*
X3475415Y1596172D01*
X3568751Y1674491D01*
X3629672Y1780009D01*
X3650830Y1900000D01*
X3974170Y1900000D01*
X3995328Y1780007D01*
X4056247Y1674493D01*
X4056248Y1674492D01*
X4056249Y1674491D01*
X4149585Y1596172D01*
X4264079Y1554500D01*
X4264080Y1554500D01*
X4385920Y1554500D01*
X4385921Y1554500D01*
X4500415Y1596172D01*
X4593751Y1674491D01*
X4654672Y1780009D01*
X4675830Y1900000D01*
X4667014Y1950000D01*
X5549170Y1950000D01*
X5570328Y1830007D01*
X5631247Y1724493D01*
X5631248Y1724492D01*
X5631249Y1724491D01*
X5724585Y1646172D01*
X5839079Y1604500D01*
X5839080Y1604500D01*
X5960920Y1604500D01*
X5960921Y1604500D01*
X6075415Y1646172D01*
X6168751Y1724491D01*
X6229672Y1830009D01*
X6250830Y1950000D01*
X6399170Y1950000D01*
X6420328Y1830007D01*
X6481247Y1724493D01*
X6481248Y1724492D01*
X6481249Y1724491D01*
X6574585Y1646172D01*
X6689079Y1604500D01*
X6689080Y1604500D01*
X6810920Y1604500D01*
X6810921Y1604500D01*
X6925415Y1646172D01*
X7018751Y1724491D01*
X7079672Y1830009D01*
X7100830Y1950000D01*
X7079672Y2069991D01*
X7079671Y2069993D01*
X7079671Y2069994D01*
X7018752Y2175508D01*
X7006112Y2186114D01*
X6925415Y2253828D01*
X6810921Y2295500D01*
X6689079Y2295500D01*
X6631832Y2274664D01*
X6574584Y2253828D01*
X6481247Y2175508D01*
X6420328Y2069994D01*
X6399170Y1950000D01*
X6250830Y1950000D01*
X6229672Y2069991D01*
X6229671Y2069993D01*
X6229671Y2069994D01*
X6168752Y2175508D01*
X6156112Y2186114D01*
X6075415Y2253828D01*
X5960921Y2295500D01*
X5839079Y2295500D01*
X5781832Y2274664D01*
X5724584Y2253828D01*
X5631247Y2175508D01*
X5570328Y2069994D01*
X5549170Y1950000D01*
X4667014Y1950000D01*
X4654672Y2019991D01*
X4654671Y2019993D01*
X4654671Y2019994D01*
X4593752Y2125508D01*
X4521525Y2186114D01*
X4500415Y2203828D01*
X4385921Y2245500D01*
X4264079Y2245500D01*
X4206832Y2224664D01*
X4149584Y2203828D01*
X4056247Y2125508D01*
X3995328Y2019994D01*
X3974170Y1900000D01*
X3650830Y1900000D01*
X3629672Y2019991D01*
X3629671Y2019993D01*
X3629671Y2019994D01*
X3568752Y2125508D01*
X3496525Y2186114D01*
X3475415Y2203828D01*
X3360921Y2245500D01*
X3239079Y2245500D01*
X3181832Y2224664D01*
X3124584Y2203828D01*
X3031247Y2125508D01*
X2970328Y2019994D01*
X2949170Y1900000D01*
X299591Y1900000D01*
X383683Y1944135D01*
X383682Y1944135D01*
X383685Y1944136D01*
X505563Y2052110D01*
X598059Y2186114D01*
X655798Y2338360D01*
X675425Y2500000D01*
X655798Y2661640D01*
X598059Y2813886D01*
X590036Y2825509D01*
X505564Y2947889D01*
X505560Y2947894D01*
X383683Y3055866D01*
X239510Y3131533D01*
X239509Y3131534D01*
X237764Y3131964D01*
X237115Y3132442D01*
X236739Y3132584D01*
X236778Y3132690D01*
X207562Y3154197D01*
X200500Y3179538D01*
X200500Y3320464D01*
X214852Y3355112D01*
X237778Y3368041D01*
X239509Y3368467D01*
X299591Y3400000D01*
X383683Y3444135D01*
X383682Y3444135D01*
X383685Y3444136D01*
X446743Y3500000D01*
X2949170Y3500000D01*
X2970328Y3380007D01*
X3031247Y3274493D01*
X3031248Y3274492D01*
X3031249Y3274491D01*
X3124585Y3196172D01*
X3239079Y3154500D01*
X3239080Y3154500D01*
X3360920Y3154500D01*
X3360921Y3154500D01*
X3475415Y3196172D01*
X3479977Y3200000D01*
X10649170Y3200000D01*
X10670328Y3080007D01*
X10731247Y2974493D01*
X10775290Y2937536D01*
X10792607Y2904270D01*
X10781329Y2868503D01*
X10775290Y2862464D01*
X10731247Y2825508D01*
X10670328Y2719994D01*
X10649170Y2600000D01*
X10670328Y2480007D01*
X10731247Y2374493D01*
X10731248Y2374492D01*
X10731249Y2374491D01*
X10824585Y2296172D01*
X10939079Y2254500D01*
X10939080Y2254500D01*
X11060920Y2254500D01*
X11060921Y2254500D01*
X11175415Y2296172D01*
X11268751Y2374491D01*
X11329672Y2480009D01*
X11350830Y2600000D01*
X11329672Y2719991D01*
X11329671Y2719993D01*
X11329671Y2719994D01*
X11268752Y2825508D01*
X11268748Y2825513D01*
X11224711Y2862464D01*
X11207393Y2895729D01*
X11208740Y2900000D01*
X12949170Y2900000D01*
X12970328Y2780007D01*
X13031247Y2674493D01*
X13031248Y2674492D01*
X13031249Y2674491D01*
X13124585Y2596172D01*
X13196738Y2569911D01*
X13224388Y2544575D01*
X13226024Y2507107D01*
X13222415Y2499367D01*
X13185140Y2434805D01*
X13163982Y2314812D01*
X13185140Y2194819D01*
X13246059Y2089305D01*
X13246060Y2089304D01*
X13246061Y2089303D01*
X13339397Y2010984D01*
X13453891Y1969312D01*
X13453892Y1969312D01*
X13575732Y1969312D01*
X13575733Y1969312D01*
X13690227Y2010984D01*
X13783563Y2089303D01*
X13789739Y2100000D01*
X19049170Y2100000D01*
X19070328Y1980007D01*
X19131247Y1874493D01*
X19131248Y1874492D01*
X19131249Y1874491D01*
X19224585Y1796172D01*
X19339079Y1754500D01*
X19339080Y1754500D01*
X19460920Y1754500D01*
X19460921Y1754500D01*
X19575415Y1796172D01*
X19668751Y1874491D01*
X19683479Y1900000D01*
X27149170Y1900000D01*
X27170328Y1780007D01*
X27231247Y1674493D01*
X27231248Y1674492D01*
X27231249Y1674491D01*
X27324585Y1596172D01*
X27439079Y1554500D01*
X27439080Y1554500D01*
X27560920Y1554500D01*
X27560921Y1554500D01*
X27675415Y1596172D01*
X27768751Y1674491D01*
X27829672Y1780009D01*
X27850830Y1900000D01*
X27829672Y2019991D01*
X27829671Y2019993D01*
X27829671Y2019994D01*
X27768752Y2125508D01*
X27696525Y2186114D01*
X27679977Y2200000D01*
X31349170Y2200000D01*
X31370328Y2080007D01*
X31431247Y1974493D01*
X31431248Y1974492D01*
X31431249Y1974491D01*
X31524585Y1896172D01*
X31639079Y1854500D01*
X31639080Y1854500D01*
X31760920Y1854500D01*
X31760921Y1854500D01*
X31875415Y1896172D01*
X31968751Y1974491D01*
X32013563Y2052107D01*
X32029671Y2080007D01*
X32029671Y2080008D01*
X32029672Y2080009D01*
X32050830Y2200000D01*
X32029672Y2319991D01*
X32029671Y2319993D01*
X32029671Y2319994D01*
X31968752Y2425508D01*
X31957672Y2434805D01*
X31875415Y2503828D01*
X31760921Y2545500D01*
X31639079Y2545500D01*
X31581832Y2524664D01*
X31524584Y2503828D01*
X31431247Y2425508D01*
X31370328Y2319994D01*
X31349170Y2200000D01*
X27679977Y2200000D01*
X27675415Y2203828D01*
X27560921Y2245500D01*
X27439079Y2245500D01*
X27381832Y2224664D01*
X27324584Y2203828D01*
X27231247Y2125508D01*
X27170328Y2019994D01*
X27149170Y1900000D01*
X19683479Y1900000D01*
X19729672Y1980009D01*
X19750830Y2100000D01*
X19729672Y2219991D01*
X19729671Y2219993D01*
X19729671Y2219994D01*
X19668752Y2325508D01*
X19575415Y2403828D01*
X19515846Y2425509D01*
X19460921Y2445500D01*
X19339079Y2445500D01*
X19309689Y2434803D01*
X19224584Y2403828D01*
X19131247Y2325508D01*
X19070328Y2219994D01*
X19049170Y2100000D01*
X13789739Y2100000D01*
X13833334Y2175509D01*
X13844483Y2194819D01*
X13844483Y2194820D01*
X13844484Y2194821D01*
X13865642Y2314812D01*
X13844484Y2434803D01*
X13844483Y2434805D01*
X13844483Y2434806D01*
X13783564Y2540320D01*
X13690227Y2618640D01*
X13618073Y2644902D01*
X13590423Y2670239D01*
X13588787Y2707706D01*
X13592397Y2715447D01*
X13595021Y2719991D01*
X13629672Y2780009D01*
X13650830Y2900000D01*
X15749170Y2900000D01*
X15770328Y2780007D01*
X15831247Y2674493D01*
X15831248Y2674492D01*
X15831249Y2674491D01*
X15924585Y2596172D01*
X16039079Y2554500D01*
X16039080Y2554500D01*
X16160920Y2554500D01*
X16160921Y2554500D01*
X16275415Y2596172D01*
X16368751Y2674491D01*
X16429672Y2780009D01*
X16450830Y2900000D01*
X16433197Y3000000D01*
X20949170Y3000000D01*
X20970328Y2880007D01*
X21031247Y2774493D01*
X21031248Y2774492D01*
X21031249Y2774491D01*
X21124585Y2696172D01*
X21239079Y2654500D01*
X21239080Y2654500D01*
X21360920Y2654500D01*
X21360921Y2654500D01*
X21475415Y2696172D01*
X21568751Y2774491D01*
X21629672Y2880009D01*
X21650830Y3000000D01*
X21629672Y3119991D01*
X21629671Y3119993D01*
X21629671Y3119994D01*
X21568752Y3225508D01*
X21475415Y3303828D01*
X21431007Y3319991D01*
X21360921Y3345500D01*
X21239079Y3345500D01*
X21181832Y3324664D01*
X21124584Y3303828D01*
X21031247Y3225508D01*
X20970328Y3119994D01*
X20949170Y3000000D01*
X16433197Y3000000D01*
X16429672Y3019991D01*
X16429671Y3019993D01*
X16429671Y3019994D01*
X16368752Y3125508D01*
X16360488Y3132442D01*
X16275415Y3203828D01*
X16160921Y3245500D01*
X16039079Y3245500D01*
X15984728Y3225718D01*
X15924584Y3203828D01*
X15831247Y3125508D01*
X15770328Y3019994D01*
X15749170Y2900000D01*
X13650830Y2900000D01*
X13629672Y3019991D01*
X13629671Y3019993D01*
X13629671Y3019994D01*
X13568752Y3125508D01*
X13560488Y3132442D01*
X13475415Y3203828D01*
X13360921Y3245500D01*
X13239079Y3245500D01*
X13184728Y3225718D01*
X13124584Y3203828D01*
X13031247Y3125508D01*
X12970328Y3019994D01*
X12949170Y2900000D01*
X11208740Y2900000D01*
X11218671Y2931496D01*
X11224711Y2937536D01*
X11268748Y2974488D01*
X11268749Y2974490D01*
X11268751Y2974491D01*
X11329672Y3080009D01*
X11350830Y3200000D01*
X11350829Y3200002D01*
X11350830Y3200003D01*
X11339448Y3264548D01*
X11332978Y3301241D01*
X11341094Y3337854D01*
X11364471Y3355793D01*
X11475415Y3396172D01*
X11475418Y3396175D01*
X11479130Y3398316D01*
X11479651Y3397414D01*
X11510998Y3407301D01*
X11544266Y3389989D01*
X11554989Y3366998D01*
X11556965Y3355794D01*
X11570328Y3280007D01*
X11631247Y3174493D01*
X11631248Y3174492D01*
X11631249Y3174491D01*
X11724585Y3096172D01*
X11839079Y3054500D01*
X11839080Y3054500D01*
X11960920Y3054500D01*
X11960921Y3054500D01*
X12075415Y3096172D01*
X12168751Y3174491D01*
X12198206Y3225508D01*
X12207565Y3241718D01*
X12237318Y3264548D01*
X12274500Y3259653D01*
X12292435Y3241718D01*
X12331247Y3174493D01*
X12331248Y3174492D01*
X12331249Y3174491D01*
X12424585Y3096172D01*
X12539079Y3054500D01*
X12539080Y3054500D01*
X12660920Y3054500D01*
X12660921Y3054500D01*
X12775415Y3096172D01*
X12868751Y3174491D01*
X12915824Y3256024D01*
X12929671Y3280007D01*
X12929671Y3280008D01*
X12929672Y3280009D01*
X12950830Y3400000D01*
X12929672Y3519991D01*
X12929671Y3519993D01*
X12929671Y3519994D01*
X12868752Y3625508D01*
X12863838Y3629631D01*
X12775415Y3703828D01*
X12660921Y3745500D01*
X12539079Y3745500D01*
X12504749Y3733005D01*
X12424584Y3703828D01*
X12331247Y3625508D01*
X12292435Y3558283D01*
X12262682Y3535453D01*
X12225500Y3540348D01*
X12207565Y3558283D01*
X12168752Y3625508D01*
X12163838Y3629631D01*
X12075415Y3703828D01*
X11960921Y3745500D01*
X11839079Y3745500D01*
X11804749Y3733005D01*
X11724586Y3703829D01*
X11720874Y3701685D01*
X11720354Y3702585D01*
X11688986Y3692700D01*
X11655723Y3710023D01*
X11645010Y3733001D01*
X11629672Y3819991D01*
X11615678Y3844229D01*
X11583479Y3900000D01*
X14649170Y3900000D01*
X14670328Y3780007D01*
X14731247Y3674493D01*
X14731248Y3674492D01*
X14731249Y3674491D01*
X14824585Y3596172D01*
X14939079Y3554500D01*
X14939080Y3554500D01*
X15060920Y3554500D01*
X15060921Y3554500D01*
X15175415Y3596172D01*
X15268751Y3674491D01*
X15329672Y3780009D01*
X15350830Y3900000D01*
X18849170Y3900000D01*
X18870328Y3780007D01*
X18931247Y3674493D01*
X18931248Y3674492D01*
X18931249Y3674491D01*
X19024585Y3596172D01*
X19139079Y3554500D01*
X19139080Y3554500D01*
X19260920Y3554500D01*
X19260921Y3554500D01*
X19375415Y3596172D01*
X19468751Y3674491D01*
X19529672Y3780009D01*
X19550830Y3900000D01*
X19529672Y4019991D01*
X19529671Y4019993D01*
X19529671Y4019994D01*
X19468752Y4125508D01*
X19409770Y4175000D01*
X19375415Y4203828D01*
X19260921Y4245500D01*
X19139079Y4245500D01*
X19124056Y4240032D01*
X19024584Y4203828D01*
X18931247Y4125508D01*
X18870328Y4019994D01*
X18849170Y3900000D01*
X15350830Y3900000D01*
X15329672Y4019991D01*
X15329671Y4019993D01*
X15329671Y4019994D01*
X15268752Y4125508D01*
X15209770Y4175000D01*
X15175415Y4203828D01*
X15060921Y4245500D01*
X14939079Y4245500D01*
X14924056Y4240032D01*
X14824584Y4203828D01*
X14731247Y4125508D01*
X14670328Y4019994D01*
X14649170Y3900000D01*
X11583479Y3900000D01*
X11568752Y3925508D01*
X11475415Y4003828D01*
X11431007Y4019991D01*
X11360921Y4045500D01*
X11239079Y4045500D01*
X11229823Y4042131D01*
X11124584Y4003828D01*
X11031247Y3925508D01*
X10970328Y3819994D01*
X10952695Y3719991D01*
X10949170Y3700000D01*
X10967021Y3598760D01*
X10958905Y3562147D01*
X10935525Y3544207D01*
X10824584Y3503828D01*
X10731247Y3425508D01*
X10670328Y3319994D01*
X10649170Y3200000D01*
X3479977Y3200000D01*
X3568751Y3274491D01*
X3615298Y3355112D01*
X3629671Y3380007D01*
X3629671Y3380008D01*
X3629672Y3380009D01*
X3650830Y3500000D01*
X3629672Y3619991D01*
X3629671Y3619993D01*
X3629671Y3619994D01*
X3568752Y3725508D01*
X3475415Y3803828D01*
X3431007Y3819991D01*
X3360921Y3845500D01*
X3239079Y3845500D01*
X3205249Y3833187D01*
X3124584Y3803828D01*
X3031247Y3725508D01*
X2970328Y3619994D01*
X2949170Y3500000D01*
X446743Y3500000D01*
X486761Y3535453D01*
X505560Y3552107D01*
X505560Y3552109D01*
X505563Y3552110D01*
X598059Y3686114D01*
X655798Y3838360D01*
X675425Y4000000D01*
X655798Y4161640D01*
X641250Y4200000D01*
X3499170Y4200000D01*
X3520328Y4080007D01*
X3581247Y3974493D01*
X3581248Y3974492D01*
X3581249Y3974491D01*
X3674585Y3896172D01*
X3789079Y3854500D01*
X3789080Y3854500D01*
X3910920Y3854500D01*
X3910921Y3854500D01*
X4025415Y3896172D01*
X4118751Y3974491D01*
X4179672Y4080009D01*
X4200830Y4200000D01*
X4179672Y4319991D01*
X4179671Y4319993D01*
X4179671Y4319994D01*
X4118752Y4425508D01*
X4092078Y4447890D01*
X4025415Y4503828D01*
X3910921Y4545500D01*
X3789079Y4545500D01*
X3731832Y4524664D01*
X3674584Y4503828D01*
X3581247Y4425508D01*
X3520328Y4319994D01*
X3499170Y4200000D01*
X641250Y4200000D01*
X598059Y4313886D01*
X590388Y4324999D01*
X505564Y4447889D01*
X505560Y4447894D01*
X383683Y4555866D01*
X239510Y4631533D01*
X239509Y4631534D01*
X237764Y4631964D01*
X237115Y4632442D01*
X236739Y4632584D01*
X236778Y4632690D01*
X207562Y4654197D01*
X200500Y4679538D01*
X200500Y4820464D01*
X214852Y4855112D01*
X237778Y4868041D01*
X239509Y4868467D01*
X383685Y4944136D01*
X475537Y5025509D01*
X505560Y5052107D01*
X505560Y5052109D01*
X505563Y5052110D01*
X598059Y5186114D01*
X655798Y5338360D01*
X657211Y5350000D01*
X3999170Y5350000D01*
X4020328Y5230007D01*
X4081247Y5124493D01*
X4081248Y5124492D01*
X4081249Y5124491D01*
X4174585Y5046172D01*
X4289079Y5004500D01*
X4289080Y5004500D01*
X4410920Y5004500D01*
X4410921Y5004500D01*
X4525415Y5046172D01*
X4618751Y5124491D01*
X4679672Y5230009D01*
X4700830Y5350000D01*
X4679672Y5469991D01*
X4679671Y5469993D01*
X4679671Y5469994D01*
X4618752Y5575508D01*
X4613390Y5580007D01*
X4525415Y5653828D01*
X4410921Y5695500D01*
X4289079Y5695500D01*
X4246512Y5680007D01*
X4174584Y5653828D01*
X4081247Y5575508D01*
X4020328Y5469994D01*
X3999170Y5350000D01*
X657211Y5350000D01*
X675425Y5500000D01*
X655798Y5661640D01*
X598059Y5813886D01*
X576237Y5845500D01*
X573131Y5850000D01*
X4949170Y5850000D01*
X4970328Y5730007D01*
X5031247Y5624493D01*
X5031248Y5624492D01*
X5031249Y5624491D01*
X5124585Y5546172D01*
X5239079Y5504500D01*
X5239080Y5504500D01*
X5360920Y5504500D01*
X5360921Y5504500D01*
X5475415Y5546172D01*
X5568751Y5624491D01*
X5614556Y5703828D01*
X5629671Y5730007D01*
X5629671Y5730008D01*
X5629672Y5730009D01*
X5642014Y5800000D01*
X11149170Y5800000D01*
X11170328Y5680007D01*
X11231247Y5574493D01*
X11231248Y5574492D01*
X11231249Y5574491D01*
X11324585Y5496172D01*
X11439079Y5454500D01*
X11439080Y5454500D01*
X11560920Y5454500D01*
X11560921Y5454500D01*
X11675415Y5496172D01*
X11679977Y5500000D01*
X13049170Y5500000D01*
X13070328Y5380007D01*
X13131247Y5274493D01*
X13131248Y5274492D01*
X13131249Y5274491D01*
X13224585Y5196172D01*
X13284154Y5174491D01*
X13291336Y5171877D01*
X13318986Y5146541D01*
X13320622Y5109073D01*
X13306074Y5088296D01*
X13231247Y5025508D01*
X13170328Y4919994D01*
X13149170Y4800000D01*
X13170328Y4680007D01*
X13231247Y4574493D01*
X13231248Y4574492D01*
X13231249Y4574491D01*
X13324585Y4496172D01*
X13439079Y4454500D01*
X13439080Y4454500D01*
X13560920Y4454500D01*
X13560921Y4454500D01*
X13675415Y4496172D01*
X13768751Y4574491D01*
X13829672Y4680009D01*
X13850830Y4800000D01*
X13829672Y4919991D01*
X13829671Y4919993D01*
X13829671Y4919994D01*
X13768752Y5025508D01*
X13675415Y5103828D01*
X13608663Y5128124D01*
X13581013Y5153461D01*
X13579377Y5190928D01*
X13593923Y5211703D01*
X13668751Y5274491D01*
X13729672Y5380009D01*
X13733197Y5400000D01*
X15449170Y5400000D01*
X15470328Y5280007D01*
X15531247Y5174493D01*
X15531248Y5174492D01*
X15531249Y5174491D01*
X15624585Y5096172D01*
X15739079Y5054500D01*
X15739080Y5054500D01*
X15860920Y5054500D01*
X15860921Y5054500D01*
X15975415Y5096172D01*
X16068751Y5174491D01*
X16129672Y5280009D01*
X16150830Y5400000D01*
X16129672Y5519991D01*
X16129671Y5519993D01*
X16129671Y5519994D01*
X16068752Y5625508D01*
X15979977Y5700000D01*
X20549170Y5700000D01*
X20570328Y5580007D01*
X20631247Y5474493D01*
X20631248Y5474492D01*
X20631249Y5474491D01*
X20636612Y5469991D01*
X20724585Y5396172D01*
X20724935Y5396044D01*
X20725155Y5395843D01*
X20728296Y5394029D01*
X20727893Y5393333D01*
X20752584Y5370706D01*
X20754218Y5333239D01*
X20728880Y5305590D01*
X20724935Y5303956D01*
X20724585Y5303829D01*
X20631247Y5225508D01*
X20570328Y5119994D01*
X20549170Y5000000D01*
X20570328Y4880007D01*
X20631247Y4774493D01*
X20631248Y4774492D01*
X20631249Y4774491D01*
X20674089Y4738544D01*
X20675290Y4737536D01*
X20692607Y4704270D01*
X20681329Y4668503D01*
X20675290Y4662464D01*
X20631247Y4625508D01*
X20570328Y4519994D01*
X20549170Y4400000D01*
X20570328Y4280007D01*
X20631247Y4174493D01*
X20675290Y4137536D01*
X20692607Y4104270D01*
X20681329Y4068503D01*
X20675290Y4062464D01*
X20631247Y4025508D01*
X20570328Y3919994D01*
X20549170Y3800000D01*
X20570328Y3680007D01*
X20631247Y3574493D01*
X20631248Y3574492D01*
X20631249Y3574491D01*
X20724585Y3496172D01*
X20839079Y3454500D01*
X20839080Y3454500D01*
X20960920Y3454500D01*
X20960921Y3454500D01*
X21075415Y3496172D01*
X21168751Y3574491D01*
X21229672Y3680009D01*
X21250830Y3800000D01*
X21229672Y3919991D01*
X21229671Y3919993D01*
X21229671Y3919994D01*
X21168752Y4025508D01*
X21168748Y4025513D01*
X21124711Y4062464D01*
X21107393Y4095729D01*
X21118671Y4131496D01*
X21124711Y4137536D01*
X21168748Y4174488D01*
X21168749Y4174490D01*
X21168751Y4174491D01*
X21229672Y4280009D01*
X21237606Y4325002D01*
X21770373Y4325002D01*
X21770373Y4324999D01*
X21788789Y4196916D01*
X21842541Y4079215D01*
X21842545Y4079208D01*
X21856749Y4062816D01*
X22079128Y4285196D01*
X22097836Y4240032D01*
X22140032Y4197836D01*
X22185194Y4179129D01*
X21963930Y3957865D01*
X22035388Y3911941D01*
X22056777Y3881136D01*
X22050118Y3844229D01*
X22040397Y3833187D01*
X22031249Y3825510D01*
X22031247Y3825508D01*
X21970328Y3719994D01*
X21949170Y3600000D01*
X21970328Y3480007D01*
X22031247Y3374493D01*
X22031248Y3374492D01*
X22031249Y3374491D01*
X22124585Y3296172D01*
X22191565Y3271794D01*
X22219215Y3246458D01*
X22220851Y3208990D01*
X22217241Y3201249D01*
X22170328Y3119994D01*
X22149170Y3000000D01*
X22170328Y2880007D01*
X22231247Y2774493D01*
X22231248Y2774492D01*
X22231249Y2774491D01*
X22324585Y2696172D01*
X22439079Y2654500D01*
X22439080Y2654500D01*
X22560920Y2654500D01*
X22560921Y2654500D01*
X22675415Y2696172D01*
X22768505Y2774285D01*
X22804270Y2785562D01*
X22831494Y2774286D01*
X22924585Y2696172D01*
X23039079Y2654500D01*
X23039080Y2654500D01*
X23160920Y2654500D01*
X23160921Y2654500D01*
X23275415Y2696172D01*
X23327226Y2739648D01*
X23362992Y2750925D01*
X23396258Y2733608D01*
X23401157Y2726611D01*
X23431247Y2674493D01*
X23431248Y2674492D01*
X23431249Y2674491D01*
X23524585Y2596172D01*
X23639079Y2554500D01*
X23639080Y2554500D01*
X23760920Y2554500D01*
X23760921Y2554500D01*
X23875415Y2596172D01*
X23968751Y2674491D01*
X24029672Y2780009D01*
X24050830Y2900000D01*
X24149170Y2900000D01*
X24170328Y2780007D01*
X24231247Y2674493D01*
X24231248Y2674492D01*
X24231249Y2674491D01*
X24324585Y2596172D01*
X24439079Y2554500D01*
X24439080Y2554500D01*
X24560920Y2554500D01*
X24560921Y2554500D01*
X24675415Y2596172D01*
X24768751Y2674491D01*
X24815234Y2755001D01*
X32672183Y2755001D01*
X32672184Y2755000D01*
X33029513Y2755000D01*
X33020000Y2719496D01*
X33020000Y2640504D01*
X33029513Y2605000D01*
X32672183Y2605000D01*
X32694976Y2490414D01*
X32694980Y2490399D01*
X32743976Y2372114D01*
X32815112Y2265649D01*
X32905648Y2175113D01*
X33012113Y2103977D01*
X33130398Y2054981D01*
X33130404Y2054979D01*
X33255984Y2030000D01*
X33795000Y2030000D01*
X33795000Y2380000D01*
X33945000Y2380000D01*
X33945000Y2030000D01*
X34484016Y2030000D01*
X34609595Y2054979D01*
X34609601Y2054981D01*
X34727886Y2103977D01*
X34834351Y2175113D01*
X34924887Y2265649D01*
X34996023Y2372114D01*
X35045019Y2490399D01*
X35045023Y2490414D01*
X35067816Y2605000D01*
X34710487Y2605000D01*
X34720000Y2640504D01*
X34720000Y2719496D01*
X34710487Y2755000D01*
X35067816Y2755000D01*
X35067816Y2755001D01*
X37102183Y2755001D01*
X37102184Y2755000D01*
X37459513Y2755000D01*
X37450000Y2719496D01*
X37450000Y2640504D01*
X37459513Y2605000D01*
X37102183Y2605000D01*
X37124976Y2490414D01*
X37124980Y2490399D01*
X37173976Y2372114D01*
X37245112Y2265649D01*
X37335648Y2175113D01*
X37442113Y2103977D01*
X37560398Y2054981D01*
X37560404Y2054979D01*
X37685984Y2030000D01*
X37975000Y2030000D01*
X37975000Y2380000D01*
X38125000Y2380000D01*
X38125000Y2030000D01*
X38414016Y2030000D01*
X38539595Y2054979D01*
X38539601Y2054981D01*
X38657886Y2103977D01*
X38764351Y2175113D01*
X38854887Y2265649D01*
X38926023Y2372114D01*
X38975019Y2490399D01*
X38975023Y2490414D01*
X38997816Y2605000D01*
X38640487Y2605000D01*
X38650000Y2640504D01*
X38650000Y2719496D01*
X38640487Y2755000D01*
X38997816Y2755000D01*
X38997816Y2755001D01*
X38975023Y2869587D01*
X38975019Y2869602D01*
X38926023Y2987887D01*
X38854887Y3094352D01*
X38764351Y3184888D01*
X38657886Y3256024D01*
X38539601Y3305020D01*
X38539595Y3305022D01*
X38414016Y3330000D01*
X38125000Y3330000D01*
X38125000Y2980000D01*
X37975000Y2980000D01*
X37975000Y3330000D01*
X37685984Y3330000D01*
X37560404Y3305022D01*
X37560398Y3305020D01*
X37442113Y3256024D01*
X37335648Y3184888D01*
X37245112Y3094352D01*
X37173976Y2987887D01*
X37124980Y2869602D01*
X37124976Y2869587D01*
X37102183Y2755001D01*
X35067816Y2755001D01*
X35045023Y2869587D01*
X35045019Y2869602D01*
X34996023Y2987887D01*
X34924887Y3094352D01*
X34834351Y3184888D01*
X34727886Y3256024D01*
X34609601Y3305020D01*
X34609595Y3305022D01*
X34484016Y3330000D01*
X33945000Y3330000D01*
X33945000Y2980000D01*
X33795000Y2980000D01*
X33795000Y3330000D01*
X33255984Y3330000D01*
X33130404Y3305022D01*
X33130398Y3305020D01*
X33012113Y3256024D01*
X32905648Y3184888D01*
X32815112Y3094352D01*
X32743976Y2987887D01*
X32694980Y2869602D01*
X32694976Y2869587D01*
X32672183Y2755001D01*
X24815234Y2755001D01*
X24829672Y2780009D01*
X24850830Y2900000D01*
X24829672Y3019991D01*
X24829671Y3019993D01*
X24829671Y3019994D01*
X24768752Y3125508D01*
X24760488Y3132442D01*
X24675415Y3203828D01*
X24560921Y3245500D01*
X24439079Y3245500D01*
X24384728Y3225718D01*
X24324584Y3203828D01*
X24231247Y3125508D01*
X24170328Y3019994D01*
X24149170Y2900000D01*
X24050830Y2900000D01*
X24029672Y3019991D01*
X24029671Y3019993D01*
X24029671Y3019994D01*
X23968752Y3125508D01*
X23960488Y3132442D01*
X23875415Y3203828D01*
X23760921Y3245500D01*
X23639079Y3245500D01*
X23584728Y3225718D01*
X23524584Y3203828D01*
X23472774Y3160354D01*
X23437006Y3149076D01*
X23403741Y3166393D01*
X23398842Y3173390D01*
X23368752Y3225508D01*
X23275415Y3303828D01*
X23231007Y3319991D01*
X23160921Y3345500D01*
X23039079Y3345500D01*
X22981832Y3324664D01*
X22924584Y3303828D01*
X22831497Y3225718D01*
X22795729Y3214440D01*
X22768503Y3225718D01*
X22675415Y3303828D01*
X22608434Y3328207D01*
X22580784Y3353544D01*
X22579148Y3391011D01*
X22582758Y3398752D01*
X22629671Y3480007D01*
X22629671Y3480008D01*
X22629672Y3480009D01*
X22650830Y3600000D01*
X22629672Y3719991D01*
X22629671Y3719993D01*
X22629671Y3719994D01*
X22583479Y3800000D01*
X25749170Y3800000D01*
X25770328Y3680007D01*
X25831247Y3574493D01*
X25831248Y3574492D01*
X25831249Y3574491D01*
X25924585Y3496172D01*
X26039079Y3454500D01*
X26039080Y3454500D01*
X26160920Y3454500D01*
X26160921Y3454500D01*
X26275415Y3496172D01*
X26368751Y3574491D01*
X26429672Y3680009D01*
X26450830Y3800000D01*
X26429672Y3919991D01*
X26429671Y3919993D01*
X26429671Y3919994D01*
X26368752Y4025508D01*
X26324289Y4062817D01*
X26275415Y4103828D01*
X26160921Y4145500D01*
X26039079Y4145500D01*
X26017198Y4137536D01*
X25924584Y4103828D01*
X25831247Y4025508D01*
X25770328Y3919994D01*
X25749170Y3800000D01*
X22583479Y3800000D01*
X22568752Y3825508D01*
X22553436Y3838360D01*
X22494546Y3887775D01*
X22477230Y3921040D01*
X22484634Y3944523D01*
X22486069Y3957865D01*
X22264805Y4179129D01*
X22309968Y4197836D01*
X22352164Y4240032D01*
X22370870Y4285195D01*
X22593249Y4062816D01*
X22593250Y4062817D01*
X22607454Y4079208D01*
X22607458Y4079214D01*
X22661210Y4196916D01*
X22679627Y4324999D01*
X22679627Y4325002D01*
X23045373Y4325002D01*
X23045373Y4324999D01*
X23063789Y4196916D01*
X23117541Y4079215D01*
X23117545Y4079208D01*
X23131749Y4062816D01*
X23354128Y4285196D01*
X23372836Y4240032D01*
X23415032Y4197836D01*
X23460194Y4179129D01*
X23238930Y3957865D01*
X23311142Y3911456D01*
X23435298Y3875001D01*
X23435305Y3875000D01*
X23564695Y3875000D01*
X23564701Y3875001D01*
X23688858Y3911457D01*
X23761068Y3957866D01*
X23539805Y4179129D01*
X23584968Y4197836D01*
X23627164Y4240032D01*
X23645871Y4285195D01*
X23868249Y4062816D01*
X23868250Y4062817D01*
X23882454Y4079208D01*
X23882458Y4079214D01*
X23936210Y4196916D01*
X23954627Y4324999D01*
X23954627Y4325002D01*
X24320373Y4325002D01*
X24320373Y4324999D01*
X24338789Y4196916D01*
X24392541Y4079215D01*
X24392545Y4079208D01*
X24406749Y4062816D01*
X24629128Y4285196D01*
X24647836Y4240032D01*
X24690032Y4197836D01*
X24735194Y4179129D01*
X24513930Y3957865D01*
X24586142Y3911456D01*
X24710298Y3875001D01*
X24710305Y3875000D01*
X24839695Y3875000D01*
X24839701Y3875001D01*
X24963858Y3911457D01*
X25036068Y3957866D01*
X24814805Y4179129D01*
X24859968Y4197836D01*
X24902164Y4240032D01*
X24920871Y4285195D01*
X25143249Y4062816D01*
X25143250Y4062817D01*
X25157454Y4079208D01*
X25157458Y4079214D01*
X25202512Y4177870D01*
X33884500Y4177870D01*
X33884500Y4042131D01*
X33919629Y3911029D01*
X33919631Y3911023D01*
X33981521Y3803828D01*
X33987498Y3793476D01*
X34083476Y3697498D01*
X34113768Y3680009D01*
X34201022Y3629632D01*
X34201028Y3629630D01*
X34332130Y3594500D01*
X34332133Y3594500D01*
X34467869Y3594500D01*
X34598971Y3629630D01*
X34598969Y3629630D01*
X34598975Y3629631D01*
X34716524Y3697498D01*
X34812502Y3793476D01*
X34880369Y3911025D01*
X34897376Y3974493D01*
X34915500Y4042131D01*
X34915500Y4177870D01*
X34880370Y4308972D01*
X34880368Y4308978D01*
X34837342Y4383500D01*
X34812502Y4426524D01*
X34716524Y4522502D01*
X34598977Y4590369D01*
X34598971Y4590371D01*
X34467870Y4625500D01*
X34467867Y4625500D01*
X34332133Y4625500D01*
X34332130Y4625500D01*
X34201028Y4590371D01*
X34201022Y4590369D01*
X34083475Y4522502D01*
X34083475Y4522501D01*
X33987499Y4426525D01*
X33987498Y4426525D01*
X33919631Y4308978D01*
X33919629Y4308972D01*
X33884500Y4177870D01*
X25202512Y4177870D01*
X25211210Y4196916D01*
X25229627Y4324999D01*
X25229627Y4325002D01*
X25211210Y4453085D01*
X25157458Y4570786D01*
X25157454Y4570793D01*
X25143249Y4587186D01*
X24920870Y4364807D01*
X24902164Y4409968D01*
X24859968Y4452164D01*
X24814805Y4470871D01*
X24943933Y4600000D01*
X29449170Y4600000D01*
X29470328Y4480007D01*
X29531247Y4374493D01*
X29531248Y4374492D01*
X29531249Y4374491D01*
X29624585Y4296172D01*
X29739079Y4254500D01*
X29739080Y4254500D01*
X29860920Y4254500D01*
X29860921Y4254500D01*
X29975415Y4296172D01*
X30068751Y4374491D01*
X30101415Y4431066D01*
X30129671Y4480007D01*
X30129671Y4480008D01*
X30129672Y4480009D01*
X30150830Y4600000D01*
X30129672Y4719991D01*
X30129671Y4719993D01*
X30129671Y4719994D01*
X30068752Y4825508D01*
X30029013Y4858853D01*
X29975415Y4903828D01*
X29860921Y4945500D01*
X29739079Y4945500D01*
X29681832Y4924664D01*
X29624584Y4903828D01*
X29531247Y4825508D01*
X29470328Y4719994D01*
X29449170Y4600000D01*
X24943933Y4600000D01*
X25036069Y4692136D01*
X24963857Y4738545D01*
X24839701Y4775000D01*
X24710298Y4775000D01*
X24586141Y4738544D01*
X24586140Y4738544D01*
X24513930Y4692137D01*
X24513930Y4692136D01*
X24735194Y4470872D01*
X24690032Y4452164D01*
X24647836Y4409968D01*
X24629128Y4364806D01*
X24406749Y4587185D01*
X24406748Y4587185D01*
X24392544Y4570791D01*
X24392542Y4570788D01*
X24338789Y4453085D01*
X24320373Y4325002D01*
X23954627Y4325002D01*
X23936210Y4453085D01*
X23882458Y4570786D01*
X23882454Y4570793D01*
X23868249Y4587186D01*
X23645870Y4364807D01*
X23627164Y4409968D01*
X23584968Y4452164D01*
X23539805Y4470871D01*
X23761069Y4692136D01*
X23688857Y4738545D01*
X23564701Y4775000D01*
X23435298Y4775000D01*
X23311141Y4738544D01*
X23311140Y4738544D01*
X23238930Y4692137D01*
X23238930Y4692136D01*
X23460194Y4470872D01*
X23415032Y4452164D01*
X23372836Y4409968D01*
X23354128Y4364806D01*
X23131749Y4587185D01*
X23131748Y4587185D01*
X23117544Y4570791D01*
X23117542Y4570788D01*
X23063789Y4453085D01*
X23045373Y4325002D01*
X22679627Y4325002D01*
X22661210Y4453085D01*
X22607458Y4570786D01*
X22607454Y4570793D01*
X22593249Y4587186D01*
X22370870Y4364807D01*
X22352164Y4409968D01*
X22309968Y4452164D01*
X22264805Y4470871D01*
X22486069Y4692136D01*
X22413857Y4738545D01*
X22289701Y4775000D01*
X22160298Y4775000D01*
X22036141Y4738544D01*
X22036140Y4738544D01*
X21963930Y4692137D01*
X21963930Y4692136D01*
X22185194Y4470872D01*
X22140032Y4452164D01*
X22097836Y4409968D01*
X22079128Y4364806D01*
X21856749Y4587185D01*
X21856748Y4587185D01*
X21842544Y4570791D01*
X21842542Y4570788D01*
X21788789Y4453085D01*
X21770373Y4325002D01*
X21237606Y4325002D01*
X21250830Y4400000D01*
X21229672Y4519991D01*
X21229671Y4519993D01*
X21229671Y4519994D01*
X21168752Y4625508D01*
X21168748Y4625513D01*
X21124711Y4662464D01*
X21107393Y4695729D01*
X21118671Y4731496D01*
X21124711Y4737536D01*
X21168748Y4774488D01*
X21168749Y4774490D01*
X21168751Y4774491D01*
X21217458Y4858853D01*
X21229671Y4880007D01*
X21229671Y4880008D01*
X21229672Y4880009D01*
X21250830Y5000000D01*
X21229672Y5119991D01*
X21229671Y5119993D01*
X21229671Y5119994D01*
X21168752Y5225508D01*
X21163390Y5230007D01*
X21110375Y5274493D01*
X21075414Y5303829D01*
X21075067Y5303955D01*
X21074847Y5304157D01*
X21071704Y5305971D01*
X21072106Y5306668D01*
X21047416Y5329291D01*
X21045780Y5366758D01*
X21071116Y5394409D01*
X21075067Y5396045D01*
X21075234Y5396107D01*
X21075415Y5396172D01*
X21168751Y5474491D01*
X21214944Y5554500D01*
X21229671Y5580007D01*
X21229671Y5580008D01*
X21229672Y5580009D01*
X21233197Y5600002D01*
X21770373Y5600002D01*
X21770373Y5599999D01*
X21788789Y5471916D01*
X21842541Y5354215D01*
X21842545Y5354208D01*
X21856749Y5337816D01*
X22079128Y5560196D01*
X22097836Y5515032D01*
X22140032Y5472836D01*
X22185194Y5454130D01*
X21963929Y5232865D01*
X22036142Y5186456D01*
X22160298Y5150001D01*
X22160305Y5150000D01*
X22289695Y5150000D01*
X22289701Y5150001D01*
X22413858Y5186457D01*
X22486068Y5232866D01*
X22264805Y5454129D01*
X22309968Y5472836D01*
X22352164Y5515032D01*
X22370870Y5560195D01*
X22593249Y5337816D01*
X22593250Y5337817D01*
X22607454Y5354208D01*
X22607458Y5354214D01*
X22661210Y5471916D01*
X22679627Y5599999D01*
X22679627Y5600002D01*
X23045373Y5600002D01*
X23045373Y5599999D01*
X23063789Y5471916D01*
X23117541Y5354215D01*
X23117545Y5354208D01*
X23131749Y5337816D01*
X23354128Y5560196D01*
X23372836Y5515032D01*
X23415032Y5472836D01*
X23460194Y5454130D01*
X23238929Y5232865D01*
X23311142Y5186456D01*
X23435298Y5150001D01*
X23435305Y5150000D01*
X23564695Y5150000D01*
X23564701Y5150001D01*
X23688858Y5186457D01*
X23761068Y5232866D01*
X23539805Y5454129D01*
X23584968Y5472836D01*
X23627164Y5515032D01*
X23645871Y5560195D01*
X23868249Y5337816D01*
X23868250Y5337817D01*
X23882454Y5354208D01*
X23882458Y5354214D01*
X23936210Y5471916D01*
X23954627Y5599999D01*
X23954627Y5600002D01*
X24320373Y5600002D01*
X24320373Y5599999D01*
X24338789Y5471916D01*
X24392541Y5354215D01*
X24392545Y5354208D01*
X24406749Y5337816D01*
X24629128Y5560196D01*
X24647836Y5515032D01*
X24690032Y5472836D01*
X24735194Y5454130D01*
X24513929Y5232865D01*
X24586142Y5186456D01*
X24710298Y5150001D01*
X24710305Y5150000D01*
X24839695Y5150000D01*
X24839701Y5150001D01*
X24963858Y5186457D01*
X25036068Y5232866D01*
X24814805Y5454129D01*
X24859968Y5472836D01*
X24902164Y5515032D01*
X24920871Y5560195D01*
X25143249Y5337816D01*
X25143250Y5337817D01*
X25157454Y5354208D01*
X25157458Y5354214D01*
X25178367Y5400000D01*
X31449170Y5400000D01*
X31470328Y5280007D01*
X31531247Y5174493D01*
X31531248Y5174492D01*
X31531249Y5174491D01*
X31624585Y5096172D01*
X31739079Y5054500D01*
X31739080Y5054500D01*
X31860920Y5054500D01*
X31860921Y5054500D01*
X31975415Y5096172D01*
X32068751Y5174491D01*
X32129672Y5280009D01*
X32150830Y5400000D01*
X32129672Y5519991D01*
X32129671Y5519993D01*
X32129671Y5519994D01*
X32068752Y5625508D01*
X31975415Y5703828D01*
X31911299Y5727164D01*
X31860921Y5745500D01*
X31739079Y5745500D01*
X31696512Y5730007D01*
X31624584Y5703828D01*
X31531247Y5625508D01*
X31470328Y5519994D01*
X31449170Y5400000D01*
X25178367Y5400000D01*
X25211210Y5471916D01*
X25229627Y5599999D01*
X25229627Y5600002D01*
X25211210Y5728085D01*
X25178368Y5800000D01*
X25749170Y5800000D01*
X25770328Y5680007D01*
X25831247Y5574493D01*
X25831248Y5574492D01*
X25831249Y5574491D01*
X25924585Y5496172D01*
X26039079Y5454500D01*
X26039080Y5454500D01*
X26160920Y5454500D01*
X26160921Y5454500D01*
X26275415Y5496172D01*
X26368751Y5574491D01*
X26429672Y5680009D01*
X26450830Y5800000D01*
X26429672Y5919991D01*
X26429671Y5919993D01*
X26429671Y5919994D01*
X26368752Y6025508D01*
X26275415Y6103828D01*
X26227762Y6121172D01*
X26160921Y6145500D01*
X26039079Y6145500D01*
X26000705Y6131533D01*
X25924584Y6103828D01*
X25831247Y6025508D01*
X25770328Y5919994D01*
X25749170Y5800000D01*
X25178368Y5800000D01*
X25157458Y5845786D01*
X25157454Y5845793D01*
X25143249Y5862186D01*
X24920870Y5639807D01*
X24902164Y5684968D01*
X24859968Y5727164D01*
X24814805Y5745871D01*
X25036069Y5967136D01*
X24963857Y6013545D01*
X24839701Y6050000D01*
X24710298Y6050000D01*
X24586141Y6013544D01*
X24586140Y6013544D01*
X24513930Y5967137D01*
X24513930Y5967136D01*
X24735194Y5745872D01*
X24690032Y5727164D01*
X24647836Y5684968D01*
X24629128Y5639806D01*
X24406749Y5862185D01*
X24406748Y5862185D01*
X24392544Y5845791D01*
X24392542Y5845788D01*
X24338789Y5728085D01*
X24320373Y5600002D01*
X23954627Y5600002D01*
X23936210Y5728085D01*
X23882458Y5845786D01*
X23882454Y5845793D01*
X23868249Y5862186D01*
X23645870Y5639807D01*
X23627164Y5684968D01*
X23584968Y5727164D01*
X23539805Y5745871D01*
X23761069Y5967136D01*
X23688857Y6013545D01*
X23564701Y6050000D01*
X23435298Y6050000D01*
X23311141Y6013544D01*
X23311140Y6013544D01*
X23238930Y5967137D01*
X23238930Y5967136D01*
X23460194Y5745872D01*
X23415032Y5727164D01*
X23372836Y5684968D01*
X23354128Y5639806D01*
X23131749Y5862185D01*
X23131748Y5862185D01*
X23117544Y5845791D01*
X23117542Y5845788D01*
X23063789Y5728085D01*
X23045373Y5600002D01*
X22679627Y5600002D01*
X22661210Y5728085D01*
X22607458Y5845786D01*
X22607454Y5845793D01*
X22593249Y5862186D01*
X22370870Y5639807D01*
X22352164Y5684968D01*
X22309968Y5727164D01*
X22264805Y5745871D01*
X22486069Y5967136D01*
X22413857Y6013545D01*
X22289701Y6050000D01*
X22160298Y6050000D01*
X22036141Y6013544D01*
X22036140Y6013544D01*
X21963930Y5967137D01*
X21963930Y5967136D01*
X22185194Y5745872D01*
X22140032Y5727164D01*
X22097836Y5684968D01*
X22079128Y5639806D01*
X21856749Y5862185D01*
X21856748Y5862185D01*
X21842544Y5845791D01*
X21842542Y5845788D01*
X21788789Y5728085D01*
X21770373Y5600002D01*
X21233197Y5600002D01*
X21250830Y5700000D01*
X21229672Y5819991D01*
X21229671Y5819993D01*
X21229671Y5819994D01*
X21168752Y5925508D01*
X21142078Y5947890D01*
X21075415Y6003828D01*
X20960921Y6045500D01*
X20839079Y6045500D01*
X20784154Y6025509D01*
X20724584Y6003828D01*
X20631247Y5925508D01*
X20570328Y5819994D01*
X20549170Y5700000D01*
X15979977Y5700000D01*
X15975415Y5703828D01*
X15911299Y5727164D01*
X15860921Y5745500D01*
X15739079Y5745500D01*
X15696512Y5730007D01*
X15624584Y5703828D01*
X15531247Y5625508D01*
X15470328Y5519994D01*
X15449170Y5400000D01*
X13733197Y5400000D01*
X13750830Y5500000D01*
X13729672Y5619991D01*
X13729671Y5619993D01*
X13729671Y5619994D01*
X13668752Y5725508D01*
X13666778Y5727164D01*
X13575415Y5803828D01*
X13460921Y5845500D01*
X13339079Y5845500D01*
X13281832Y5824664D01*
X13224584Y5803828D01*
X13131247Y5725508D01*
X13070328Y5619994D01*
X13049170Y5500000D01*
X11679977Y5500000D01*
X11768751Y5574491D01*
X11829672Y5680009D01*
X11850830Y5800000D01*
X11833197Y5900000D01*
X12149170Y5900000D01*
X12170328Y5780007D01*
X12231247Y5674493D01*
X12231248Y5674492D01*
X12231249Y5674491D01*
X12324585Y5596172D01*
X12439079Y5554500D01*
X12439080Y5554500D01*
X12560920Y5554500D01*
X12560921Y5554500D01*
X12675415Y5596172D01*
X12768751Y5674491D01*
X12829672Y5780009D01*
X12850830Y5900000D01*
X12829672Y6019991D01*
X12829671Y6019993D01*
X12829671Y6019994D01*
X12768752Y6125508D01*
X12760488Y6132442D01*
X12675415Y6203828D01*
X12560921Y6245500D01*
X12439079Y6245500D01*
X12381832Y6224664D01*
X12324584Y6203828D01*
X12231247Y6125508D01*
X12170328Y6019994D01*
X12149170Y5900000D01*
X11833197Y5900000D01*
X11829672Y5919991D01*
X11829671Y5919993D01*
X11829671Y5919994D01*
X11768752Y6025508D01*
X11675415Y6103828D01*
X11627762Y6121172D01*
X11560921Y6145500D01*
X11439079Y6145500D01*
X11400705Y6131533D01*
X11324584Y6103828D01*
X11231247Y6025508D01*
X11170328Y5919994D01*
X11149170Y5800000D01*
X5642014Y5800000D01*
X5650830Y5850000D01*
X5629672Y5969991D01*
X5629671Y5969993D01*
X5629671Y5969994D01*
X5568752Y6075508D01*
X5514332Y6121172D01*
X5475415Y6153828D01*
X5360921Y6195500D01*
X5239079Y6195500D01*
X5181832Y6174664D01*
X5124584Y6153828D01*
X5031247Y6075508D01*
X4970328Y5969994D01*
X4949170Y5850000D01*
X573131Y5850000D01*
X505564Y5947889D01*
X505560Y5947894D01*
X383683Y6055866D01*
X239510Y6131533D01*
X239509Y6131534D01*
X237764Y6131964D01*
X237115Y6132442D01*
X236739Y6132584D01*
X236778Y6132690D01*
X207562Y6154197D01*
X200500Y6179538D01*
X200500Y6320464D01*
X214852Y6355112D01*
X237778Y6368041D01*
X239509Y6368467D01*
X299591Y6400000D01*
X8449170Y6400000D01*
X8470328Y6280007D01*
X8531247Y6174493D01*
X8531248Y6174492D01*
X8531249Y6174491D01*
X8624585Y6096172D01*
X8739079Y6054500D01*
X8739080Y6054500D01*
X8860920Y6054500D01*
X8860921Y6054500D01*
X8975415Y6096172D01*
X9068751Y6174491D01*
X9129672Y6280009D01*
X9150830Y6400000D01*
X9146422Y6425000D01*
X9449170Y6425000D01*
X9470328Y6305007D01*
X9531247Y6199493D01*
X9531248Y6199492D01*
X9531249Y6199491D01*
X9624585Y6121172D01*
X9739079Y6079500D01*
X9739080Y6079500D01*
X9860920Y6079500D01*
X9860921Y6079500D01*
X9975415Y6121172D01*
X10068751Y6199491D01*
X10129672Y6305009D01*
X10146422Y6400000D01*
X16549170Y6400000D01*
X16570328Y6280007D01*
X16631247Y6174493D01*
X16631248Y6174492D01*
X16631249Y6174491D01*
X16724585Y6096172D01*
X16839079Y6054500D01*
X16839080Y6054500D01*
X16960920Y6054500D01*
X16960921Y6054500D01*
X17075415Y6096172D01*
X17168751Y6174491D01*
X17229672Y6280009D01*
X17250830Y6400000D01*
X17229672Y6519991D01*
X17229671Y6519993D01*
X17229671Y6519994D01*
X17168752Y6625508D01*
X17164335Y6629214D01*
X17075415Y6703828D01*
X16960921Y6745500D01*
X16839079Y6745500D01*
X16793273Y6728828D01*
X16724584Y6703828D01*
X16631247Y6625508D01*
X16570328Y6519994D01*
X16549170Y6400000D01*
X10146422Y6400000D01*
X10150830Y6425000D01*
X10129672Y6544991D01*
X10129671Y6544993D01*
X10129671Y6544994D01*
X10068752Y6650508D01*
X10005208Y6703828D01*
X9975415Y6728828D01*
X9860921Y6770500D01*
X9739079Y6770500D01*
X9681832Y6749664D01*
X9624584Y6728828D01*
X9531247Y6650508D01*
X9470328Y6544994D01*
X9449170Y6425000D01*
X9146422Y6425000D01*
X9129672Y6519991D01*
X9129671Y6519993D01*
X9129671Y6519994D01*
X9068752Y6625508D01*
X9064335Y6629214D01*
X8975415Y6703828D01*
X8860921Y6745500D01*
X8739079Y6745500D01*
X8693273Y6728828D01*
X8624584Y6703828D01*
X8531247Y6625508D01*
X8470328Y6519994D01*
X8449170Y6400000D01*
X299591Y6400000D01*
X383683Y6444135D01*
X383682Y6444135D01*
X383685Y6444136D01*
X469311Y6519994D01*
X505560Y6552107D01*
X505560Y6552109D01*
X505563Y6552110D01*
X598059Y6686114D01*
X655798Y6838360D01*
X663283Y6900000D01*
X11179170Y6900000D01*
X11200328Y6780007D01*
X11261247Y6674493D01*
X11261248Y6674492D01*
X11261249Y6674491D01*
X11354585Y6596172D01*
X11469079Y6554500D01*
X11469080Y6554500D01*
X11590920Y6554500D01*
X11590921Y6554500D01*
X11705415Y6596172D01*
X11798751Y6674491D01*
X11859672Y6780009D01*
X11876422Y6875002D01*
X21770373Y6875002D01*
X21770373Y6874999D01*
X21788789Y6746916D01*
X21842541Y6629215D01*
X21842545Y6629208D01*
X21856749Y6612816D01*
X22079128Y6835196D01*
X22097836Y6790032D01*
X22140032Y6747836D01*
X22185194Y6729129D01*
X21963930Y6507865D01*
X22036142Y6461456D01*
X22160298Y6425001D01*
X22160305Y6425000D01*
X22289695Y6425000D01*
X22289701Y6425001D01*
X22413858Y6461457D01*
X22486068Y6507866D01*
X22264805Y6729129D01*
X22309968Y6747836D01*
X22352164Y6790032D01*
X22370870Y6835195D01*
X22593249Y6612816D01*
X22593250Y6612817D01*
X22607454Y6629208D01*
X22607458Y6629214D01*
X22661210Y6746916D01*
X22679627Y6874999D01*
X22679627Y6875002D01*
X23045373Y6875002D01*
X23045373Y6874999D01*
X23063789Y6746916D01*
X23117541Y6629215D01*
X23117545Y6629208D01*
X23131749Y6612816D01*
X23354128Y6835196D01*
X23372836Y6790032D01*
X23415032Y6747836D01*
X23460194Y6729129D01*
X23238930Y6507865D01*
X23311142Y6461456D01*
X23435298Y6425001D01*
X23435305Y6425000D01*
X23564695Y6425000D01*
X23564701Y6425001D01*
X23688858Y6461457D01*
X23761068Y6507866D01*
X23539805Y6729129D01*
X23584968Y6747836D01*
X23627164Y6790032D01*
X23645871Y6835195D01*
X23868249Y6612816D01*
X23868250Y6612817D01*
X23882454Y6629208D01*
X23882458Y6629214D01*
X23936210Y6746916D01*
X23954627Y6874999D01*
X23954627Y6875002D01*
X24320373Y6875002D01*
X24320373Y6874999D01*
X24338789Y6746916D01*
X24392541Y6629215D01*
X24392545Y6629208D01*
X24406749Y6612816D01*
X24629128Y6835196D01*
X24647836Y6790032D01*
X24690032Y6747836D01*
X24735194Y6729129D01*
X24513930Y6507865D01*
X24586142Y6461456D01*
X24710298Y6425001D01*
X24710305Y6425000D01*
X24839695Y6425000D01*
X24839701Y6425001D01*
X24963858Y6461457D01*
X25036068Y6507866D01*
X24814805Y6729129D01*
X24859968Y6747836D01*
X24902164Y6790032D01*
X24920871Y6835195D01*
X25143249Y6612816D01*
X25143250Y6612817D01*
X25157454Y6629208D01*
X25157458Y6629214D01*
X25211210Y6746916D01*
X25229627Y6874999D01*
X25229627Y6875002D01*
X25211210Y7003085D01*
X25157458Y7120786D01*
X25157454Y7120793D01*
X25143249Y7137186D01*
X24920870Y6914807D01*
X24902164Y6959968D01*
X24859968Y7002164D01*
X24814805Y7020871D01*
X24943933Y7150000D01*
X29974170Y7150000D01*
X29995328Y7030007D01*
X30056247Y6924493D01*
X30056248Y6924492D01*
X30056249Y6924491D01*
X30149585Y6846172D01*
X30264079Y6804500D01*
X30264080Y6804500D01*
X30385920Y6804500D01*
X30385921Y6804500D01*
X30500415Y6846172D01*
X30593751Y6924491D01*
X30654672Y7030009D01*
X30675830Y7150000D01*
X30654672Y7269991D01*
X30654671Y7269993D01*
X30654671Y7269994D01*
X30593752Y7375508D01*
X30500415Y7453828D01*
X30440846Y7475509D01*
X30385921Y7495500D01*
X30264079Y7495500D01*
X30209154Y7475509D01*
X30149584Y7453828D01*
X30056247Y7375508D01*
X29995328Y7269994D01*
X29974170Y7150000D01*
X24943933Y7150000D01*
X25036069Y7242136D01*
X24963857Y7288545D01*
X24839701Y7325000D01*
X24710298Y7325000D01*
X24586141Y7288544D01*
X24586140Y7288544D01*
X24513930Y7242137D01*
X24513930Y7242136D01*
X24735194Y7020872D01*
X24690032Y7002164D01*
X24647836Y6959968D01*
X24629128Y6914806D01*
X24406749Y7137185D01*
X24406748Y7137185D01*
X24392544Y7120791D01*
X24392542Y7120788D01*
X24338789Y7003085D01*
X24320373Y6875002D01*
X23954627Y6875002D01*
X23936210Y7003085D01*
X23882458Y7120786D01*
X23882454Y7120793D01*
X23868249Y7137186D01*
X23645870Y6914807D01*
X23627164Y6959968D01*
X23584968Y7002164D01*
X23539805Y7020871D01*
X23761069Y7242136D01*
X23688857Y7288545D01*
X23564701Y7325000D01*
X23435298Y7325000D01*
X23311141Y7288544D01*
X23311140Y7288544D01*
X23238930Y7242137D01*
X23238930Y7242136D01*
X23460194Y7020872D01*
X23415032Y7002164D01*
X23372836Y6959968D01*
X23354128Y6914806D01*
X23131749Y7137185D01*
X23131748Y7137185D01*
X23117544Y7120791D01*
X23117542Y7120788D01*
X23063789Y7003085D01*
X23045373Y6875002D01*
X22679627Y6875002D01*
X22661210Y7003085D01*
X22607458Y7120786D01*
X22607454Y7120793D01*
X22593249Y7137186D01*
X22370870Y6914807D01*
X22352164Y6959968D01*
X22309968Y7002164D01*
X22264805Y7020871D01*
X22486069Y7242136D01*
X22413857Y7288545D01*
X22289701Y7325000D01*
X22160298Y7325000D01*
X22036141Y7288544D01*
X22036140Y7288544D01*
X21963930Y7242137D01*
X21963930Y7242136D01*
X22185194Y7020872D01*
X22140032Y7002164D01*
X22097836Y6959968D01*
X22079128Y6914806D01*
X21856749Y7137185D01*
X21856748Y7137185D01*
X21842544Y7120791D01*
X21842542Y7120788D01*
X21788789Y7003085D01*
X21770373Y6875002D01*
X11876422Y6875002D01*
X11880830Y6900000D01*
X11859672Y7019991D01*
X11859671Y7019993D01*
X11859671Y7019994D01*
X11798752Y7125508D01*
X11793390Y7130007D01*
X11705415Y7203828D01*
X11590921Y7245500D01*
X11469079Y7245500D01*
X11411832Y7224664D01*
X11354584Y7203828D01*
X11261247Y7125508D01*
X11200328Y7019994D01*
X11179170Y6900000D01*
X663283Y6900000D01*
X675425Y7000000D01*
X655798Y7161640D01*
X622288Y7250000D01*
X4949170Y7250000D01*
X4970328Y7130007D01*
X5031247Y7024493D01*
X5031248Y7024492D01*
X5031249Y7024491D01*
X5124585Y6946172D01*
X5239079Y6904500D01*
X5239080Y6904500D01*
X5360920Y6904500D01*
X5360921Y6904500D01*
X5475415Y6946172D01*
X5568751Y7024491D01*
X5629672Y7130009D01*
X5650830Y7250000D01*
X5642014Y7300000D01*
X13049170Y7300000D01*
X13070328Y7180007D01*
X13131247Y7074493D01*
X13131248Y7074492D01*
X13131249Y7074491D01*
X13224585Y6996172D01*
X13339079Y6954500D01*
X13339080Y6954500D01*
X13460920Y6954500D01*
X13460921Y6954500D01*
X13575415Y6996172D01*
X13668751Y7074491D01*
X13700804Y7130009D01*
X13729671Y7180007D01*
X13729671Y7180008D01*
X13729672Y7180009D01*
X13750830Y7300000D01*
X13729672Y7419991D01*
X13729671Y7419993D01*
X13729671Y7419994D01*
X13668752Y7525508D01*
X13668206Y7526159D01*
X13668001Y7526810D01*
X13666608Y7529222D01*
X13667143Y7529531D01*
X13656930Y7561927D01*
X13674246Y7595191D01*
X13717557Y7631534D01*
X13768751Y7674491D01*
X13829672Y7780009D01*
X13833197Y7800000D01*
X15449170Y7800000D01*
X15470328Y7680007D01*
X15531247Y7574493D01*
X15531248Y7574492D01*
X15531249Y7574491D01*
X15624585Y7496172D01*
X15739079Y7454500D01*
X15739080Y7454500D01*
X15860920Y7454500D01*
X15860921Y7454500D01*
X15975415Y7496172D01*
X16068751Y7574491D01*
X16124165Y7670470D01*
X16129671Y7680007D01*
X16129671Y7680008D01*
X16129672Y7680009D01*
X16150830Y7800000D01*
X16129672Y7919991D01*
X16129671Y7919993D01*
X16129671Y7919994D01*
X16068752Y8025508D01*
X15975415Y8103828D01*
X15915846Y8125509D01*
X15860921Y8145500D01*
X15739079Y8145500D01*
X15684154Y8125509D01*
X15624584Y8103828D01*
X15531247Y8025508D01*
X15470328Y7919994D01*
X15449170Y7800000D01*
X13833197Y7800000D01*
X13850830Y7900000D01*
X13829672Y8019991D01*
X13829671Y8019993D01*
X13829671Y8019994D01*
X13768752Y8125508D01*
X13696525Y8186114D01*
X13675415Y8203828D01*
X13560921Y8245500D01*
X13439079Y8245500D01*
X13381832Y8224664D01*
X13324584Y8203828D01*
X13231247Y8125508D01*
X13170328Y8019994D01*
X13149170Y7900000D01*
X13170328Y7780007D01*
X13231247Y7674493D01*
X13231794Y7673841D01*
X13231998Y7673191D01*
X13233392Y7670778D01*
X13232856Y7670470D01*
X13243069Y7638073D01*
X13225753Y7604810D01*
X13131247Y7525508D01*
X13070328Y7419994D01*
X13049170Y7300000D01*
X5642014Y7300000D01*
X5629672Y7369991D01*
X5629671Y7369993D01*
X5629671Y7369994D01*
X5568752Y7475508D01*
X5475415Y7553828D01*
X5453163Y7561927D01*
X5360921Y7595500D01*
X5239079Y7595500D01*
X5181832Y7574664D01*
X5124584Y7553828D01*
X5031247Y7475508D01*
X4970328Y7369994D01*
X4949170Y7250000D01*
X622288Y7250000D01*
X598059Y7313886D01*
X524820Y7419991D01*
X505564Y7447889D01*
X505560Y7447894D01*
X383683Y7555866D01*
X239510Y7631533D01*
X239509Y7631534D01*
X237764Y7631964D01*
X237115Y7632442D01*
X236739Y7632584D01*
X236778Y7632690D01*
X207562Y7654197D01*
X200500Y7679538D01*
X200500Y7820464D01*
X214852Y7855112D01*
X237778Y7868041D01*
X239509Y7868467D01*
X299591Y7900000D01*
X383683Y7944135D01*
X383682Y7944135D01*
X383685Y7944136D01*
X505563Y8052110D01*
X598059Y8186114D01*
X655798Y8338360D01*
X663283Y8400000D01*
X2549170Y8400000D01*
X2570328Y8280007D01*
X2631247Y8174493D01*
X2631248Y8174492D01*
X2631249Y8174491D01*
X2724585Y8096172D01*
X2839079Y8054500D01*
X2839080Y8054500D01*
X2960920Y8054500D01*
X2960921Y8054500D01*
X3075415Y8096172D01*
X3168751Y8174491D01*
X3229672Y8280009D01*
X3250830Y8400000D01*
X3233197Y8500000D01*
X4949170Y8500000D01*
X4970328Y8380007D01*
X5031247Y8274493D01*
X5031248Y8274492D01*
X5031249Y8274491D01*
X5124585Y8196172D01*
X5239079Y8154500D01*
X5239080Y8154500D01*
X5360920Y8154500D01*
X5360921Y8154500D01*
X5475415Y8196172D01*
X5568751Y8274491D01*
X5629672Y8380009D01*
X5650830Y8500000D01*
X5629672Y8619991D01*
X5629671Y8619993D01*
X5629671Y8619994D01*
X5568752Y8725508D01*
X5538361Y8751009D01*
X5475415Y8803828D01*
X5360921Y8845500D01*
X5239079Y8845500D01*
X5187181Y8826611D01*
X5124584Y8803828D01*
X5031247Y8725508D01*
X4970328Y8619994D01*
X4949170Y8500000D01*
X3233197Y8500000D01*
X3229672Y8519991D01*
X3229671Y8519993D01*
X3229671Y8519994D01*
X3168752Y8625508D01*
X3144937Y8645491D01*
X3075415Y8703828D01*
X2960921Y8745500D01*
X2839079Y8745500D01*
X2784154Y8725509D01*
X2724584Y8703828D01*
X2631247Y8625508D01*
X2570328Y8519994D01*
X2549170Y8400000D01*
X663283Y8400000D01*
X675425Y8500000D01*
X655798Y8661640D01*
X598059Y8813886D01*
X587400Y8829328D01*
X505564Y8947889D01*
X505560Y8947894D01*
X383683Y9055866D01*
X239510Y9131533D01*
X239509Y9131534D01*
X237764Y9131964D01*
X237115Y9132442D01*
X236739Y9132584D01*
X236778Y9132690D01*
X207562Y9154197D01*
X200500Y9179538D01*
X200500Y9320464D01*
X214852Y9355112D01*
X237778Y9368041D01*
X239509Y9368467D01*
X299591Y9400000D01*
X383683Y9444135D01*
X383682Y9444135D01*
X383685Y9444136D01*
X505563Y9552110D01*
X573131Y9650000D01*
X7349170Y9650000D01*
X7370328Y9530007D01*
X7431247Y9424493D01*
X7431248Y9424492D01*
X7431249Y9424491D01*
X7524585Y9346172D01*
X7639079Y9304500D01*
X7639080Y9304500D01*
X7760920Y9304500D01*
X7760921Y9304500D01*
X7875415Y9346172D01*
X7968751Y9424491D01*
X8029672Y9530009D01*
X8050830Y9650000D01*
X8029672Y9769991D01*
X8029671Y9769993D01*
X8029671Y9769994D01*
X7968752Y9875508D01*
X7963390Y9880007D01*
X7875415Y9953828D01*
X7760921Y9995500D01*
X7639079Y9995500D01*
X7587984Y9976903D01*
X7524584Y9953828D01*
X7431247Y9875508D01*
X7370328Y9769994D01*
X7349170Y9650000D01*
X573131Y9650000D01*
X598059Y9686114D01*
X655798Y9838360D01*
X675425Y10000000D01*
X2249170Y10000000D01*
X2270328Y9880007D01*
X2331247Y9774493D01*
X2331248Y9774492D01*
X2331249Y9774491D01*
X2424585Y9696172D01*
X2539079Y9654500D01*
X2539080Y9654500D01*
X2660920Y9654500D01*
X2660921Y9654500D01*
X2775415Y9696172D01*
X2868751Y9774491D01*
X2929672Y9880009D01*
X2946757Y9976906D01*
X2966907Y10008533D01*
X3003520Y10016651D01*
X3011762Y10014443D01*
X3039079Y10004500D01*
X3039080Y10004500D01*
X3160920Y10004500D01*
X3160921Y10004500D01*
X3275415Y10046172D01*
X3368751Y10124491D01*
X3416113Y10206524D01*
X3429671Y10230007D01*
X3429671Y10230008D01*
X3429672Y10230009D01*
X3450830Y10350000D01*
X3429672Y10469991D01*
X3429671Y10469993D01*
X3429671Y10469994D01*
X3368752Y10575508D01*
X3367865Y10576252D01*
X3275415Y10653828D01*
X3160921Y10695500D01*
X3039079Y10695500D01*
X2981832Y10674664D01*
X2924584Y10653828D01*
X2831247Y10575508D01*
X2770328Y10469994D01*
X2753243Y10373097D01*
X2733092Y10341467D01*
X2696478Y10333350D01*
X2688228Y10335561D01*
X2660921Y10345500D01*
X2539079Y10345500D01*
X2511772Y10335561D01*
X2424584Y10303828D01*
X2331247Y10225508D01*
X2270328Y10119994D01*
X2249170Y10000000D01*
X675425Y10000000D01*
X655798Y10161640D01*
X598059Y10313886D01*
X579021Y10341467D01*
X505564Y10447889D01*
X505560Y10447894D01*
X383683Y10555866D01*
X239510Y10631533D01*
X239509Y10631534D01*
X237764Y10631964D01*
X237115Y10632442D01*
X236739Y10632584D01*
X236778Y10632690D01*
X207562Y10654197D01*
X200500Y10679538D01*
X200500Y10820464D01*
X214852Y10855112D01*
X237778Y10868041D01*
X239509Y10868467D01*
X383685Y10944136D01*
X474385Y11024489D01*
X505560Y11052107D01*
X505560Y11052109D01*
X505563Y11052110D01*
X598059Y11186114D01*
X655798Y11338360D01*
X675425Y11500000D01*
X655798Y11661640D01*
X598059Y11813886D01*
X587281Y11829500D01*
X505564Y11947889D01*
X505560Y11947894D01*
X383683Y12055866D01*
X239510Y12131533D01*
X239509Y12131534D01*
X237764Y12131964D01*
X237115Y12132442D01*
X236739Y12132584D01*
X236778Y12132690D01*
X207562Y12154197D01*
X200500Y12179538D01*
X200500Y12267551D01*
X1374200Y12267551D01*
X1374200Y12132450D01*
X1400552Y11999970D01*
X1400555Y11999959D01*
X1452251Y11875153D01*
X1527302Y11762831D01*
X1622830Y11667303D01*
X1724221Y11599556D01*
X1735152Y11592252D01*
X1859960Y11540555D01*
X1859966Y11540554D01*
X1859969Y11540553D01*
X1992449Y11514201D01*
X1992452Y11514201D01*
X1992455Y11514200D01*
X1992456Y11514200D01*
X2127544Y11514200D01*
X2127545Y11514200D01*
X2260040Y11540555D01*
X2384848Y11592252D01*
X2497172Y11667305D01*
X2592695Y11762828D01*
X2667748Y11875152D01*
X2719445Y11999960D01*
X2745800Y12132455D01*
X2745800Y12267545D01*
X2745799Y12267551D01*
X2719447Y12400031D01*
X2719444Y12400042D01*
X2697174Y12453808D01*
X2667748Y12524848D01*
X2664172Y12530200D01*
X2592697Y12637170D01*
X2497169Y12732698D01*
X2384847Y12807749D01*
X2260041Y12859445D01*
X2260030Y12859448D01*
X2127550Y12885800D01*
X2127545Y12885800D01*
X1992455Y12885800D01*
X1992449Y12885800D01*
X1859969Y12859448D01*
X1859958Y12859445D01*
X1735152Y12807749D01*
X1622830Y12732698D01*
X1527302Y12637170D01*
X1452253Y12524850D01*
X1400555Y12400042D01*
X1400552Y12400031D01*
X1374200Y12267551D01*
X200500Y12267551D01*
X200500Y12320464D01*
X214852Y12355112D01*
X237778Y12368041D01*
X239509Y12368467D01*
X252927Y12375509D01*
X383683Y12444135D01*
X383682Y12444135D01*
X383685Y12444136D01*
X480833Y12530201D01*
X505560Y12552107D01*
X505560Y12552109D01*
X505563Y12552110D01*
X598059Y12686114D01*
X655798Y12838360D01*
X675425Y13000000D01*
X655798Y13161640D01*
X598059Y13313886D01*
X587281Y13329500D01*
X505564Y13447889D01*
X505560Y13447894D01*
X399172Y13542144D01*
X382754Y13575862D01*
X394988Y13611314D01*
X396997Y13613449D01*
X568698Y13785148D01*
X603346Y13799500D01*
X6635337Y13799500D01*
X6669985Y13785148D01*
G37*
%TD.AperFunction*%
%TD*%
%TA.AperFunction,Conductor*%
%TO.N,GND*%
G36*
X6669985Y13785148D02*
G01*
X6684337Y13750500D01*
X6669985Y13715852D01*
X6607303Y13653171D01*
X6607302Y13653170D01*
X6532251Y13540848D01*
X6480555Y13416042D01*
X6480552Y13416031D01*
X6454200Y13283551D01*
X6454200Y13148450D01*
X6480552Y13015970D01*
X6480555Y13015959D01*
X6532251Y12891153D01*
X6607302Y12778831D01*
X6702830Y12683303D01*
X6815152Y12608252D01*
X6939960Y12556555D01*
X6939966Y12556554D01*
X6939969Y12556553D01*
X7072449Y12530201D01*
X7072452Y12530201D01*
X7072455Y12530200D01*
X7072456Y12530200D01*
X7207544Y12530200D01*
X7207545Y12530200D01*
X7307086Y12550000D01*
X7340030Y12556553D01*
X7340030Y12556554D01*
X7340040Y12556555D01*
X7464848Y12608252D01*
X7577172Y12683305D01*
X7672695Y12778828D01*
X7747748Y12891152D01*
X7799445Y13015960D01*
X7825800Y13148455D01*
X7825800Y13283545D01*
X7819765Y13313886D01*
X7799447Y13416031D01*
X7799444Y13416042D01*
X7747748Y13540848D01*
X7672697Y13653170D01*
X7610015Y13715852D01*
X7595663Y13750500D01*
X7610015Y13785148D01*
X7644663Y13799500D01*
X8039097Y13799500D01*
X8073745Y13785148D01*
X8088097Y13750500D01*
X8081532Y13726000D01*
X8020328Y13619994D01*
X7999170Y13500000D01*
X8020328Y13380007D01*
X8081247Y13274493D01*
X8174584Y13196172D01*
X8189959Y13190577D01*
X8212829Y13182253D01*
X8240480Y13156917D01*
X8242116Y13119450D01*
X8216780Y13091799D01*
X8214824Y13090938D01*
X8186771Y13079318D01*
X7492307Y12384852D01*
X7457659Y12370500D01*
X5132341Y12370500D01*
X5097693Y12384852D01*
X4154965Y13327580D01*
X4141357Y13353719D01*
X4138757Y13368467D01*
X4129672Y13419991D01*
X4129671Y13419993D01*
X4129671Y13419994D01*
X4068752Y13525508D01*
X3975415Y13603828D01*
X3931007Y13619991D01*
X3860921Y13645500D01*
X3739079Y13645500D01*
X3700705Y13631533D01*
X3624584Y13603828D01*
X3531247Y13525508D01*
X3470328Y13419994D01*
X3449170Y13300000D01*
X3470328Y13180007D01*
X3531247Y13074493D01*
X3531248Y13074492D01*
X3531249Y13074491D01*
X3624585Y12996172D01*
X3739079Y12954500D01*
X3742659Y12954500D01*
X3777307Y12940148D01*
X4140828Y12576627D01*
X4155180Y12541979D01*
X4140828Y12507331D01*
X4106180Y12492979D01*
X4079673Y12502626D01*
X4079130Y12501684D01*
X4075417Y12503827D01*
X4075415Y12503828D01*
X3960921Y12545500D01*
X3839079Y12545500D01*
X3797045Y12530201D01*
X3724584Y12503828D01*
X3631247Y12425508D01*
X3570328Y12319994D01*
X3549170Y12200000D01*
X3570328Y12080007D01*
X3631247Y11974493D01*
X3631248Y11974492D01*
X3631249Y11974491D01*
X3724585Y11896172D01*
X3839079Y11854500D01*
X3839080Y11854500D01*
X3960920Y11854500D01*
X3960921Y11854500D01*
X4075415Y11896172D01*
X4168751Y11974491D01*
X4229672Y12080009D01*
X4250830Y12200000D01*
X4229672Y12319991D01*
X4229671Y12319993D01*
X4229671Y12319994D01*
X4186560Y12394663D01*
X4181665Y12431845D01*
X4204495Y12461598D01*
X4241677Y12466493D01*
X4263643Y12453811D01*
X4846770Y11870684D01*
X4846772Y11870683D01*
X4846774Y11870681D01*
X4885840Y11854500D01*
X4946194Y11829500D01*
X6710121Y11829500D01*
X6744769Y11815148D01*
X6759121Y11780500D01*
X6744769Y11745852D01*
X6737344Y11739758D01*
X6702830Y11716698D01*
X6607302Y11621170D01*
X6532251Y11508848D01*
X6480555Y11384042D01*
X6480552Y11384031D01*
X6454200Y11251551D01*
X6454200Y11116450D01*
X6480552Y10983970D01*
X6480555Y10983959D01*
X6532251Y10859153D01*
X6607302Y10746831D01*
X6702830Y10651303D01*
X6740343Y10626238D01*
X6815152Y10576252D01*
X6939960Y10524555D01*
X6939966Y10524554D01*
X6939969Y10524553D01*
X7072449Y10498201D01*
X7072452Y10498201D01*
X7072455Y10498200D01*
X7072456Y10498200D01*
X7207544Y10498200D01*
X7207545Y10498200D01*
X7340040Y10524555D01*
X7464848Y10576252D01*
X7577172Y10651305D01*
X7672695Y10746828D01*
X7740818Y10848781D01*
X8979500Y10848781D01*
X8979500Y9601220D01*
X9004747Y9506997D01*
X9004748Y9506995D01*
X9004749Y9506992D01*
X9021777Y9477498D01*
X9029137Y9464750D01*
X9053526Y9422507D01*
X9815148Y8660886D01*
X9829500Y8626238D01*
X9829500Y8401220D01*
X9854748Y8306994D01*
X9854749Y8306991D01*
X9903526Y8222508D01*
X9972508Y8153526D01*
X10056992Y8104749D01*
X10131307Y8084837D01*
X10151219Y8079501D01*
X10151220Y8079500D01*
X10151223Y8079500D01*
X10248780Y8079500D01*
X10248780Y8079501D01*
X10343008Y8104749D01*
X10427492Y8153526D01*
X10496474Y8222508D01*
X10545251Y8306992D01*
X10570499Y8401220D01*
X10570500Y8401220D01*
X10570500Y8525500D01*
X14849170Y8525500D01*
X14870328Y8405507D01*
X14931247Y8299993D01*
X14931248Y8299992D01*
X14931249Y8299991D01*
X15024585Y8221672D01*
X15139079Y8180000D01*
X15139080Y8180000D01*
X15260920Y8180000D01*
X15260921Y8180000D01*
X15315871Y8200000D01*
X18949170Y8200000D01*
X18970328Y8080007D01*
X19031247Y7974493D01*
X19031248Y7974492D01*
X19031249Y7974491D01*
X19124585Y7896172D01*
X19239079Y7854500D01*
X19239080Y7854500D01*
X19360920Y7854500D01*
X19360921Y7854500D01*
X19475415Y7896172D01*
X19568751Y7974491D01*
X19613563Y8052107D01*
X19629671Y8080007D01*
X19629671Y8080008D01*
X19629672Y8080009D01*
X19650830Y8200000D01*
X20649170Y8200000D01*
X20670328Y8080007D01*
X20731247Y7974493D01*
X20731248Y7974492D01*
X20731249Y7974491D01*
X20824585Y7896172D01*
X20939079Y7854500D01*
X20939080Y7854500D01*
X21060920Y7854500D01*
X21060921Y7854500D01*
X21175415Y7896172D01*
X21268751Y7974491D01*
X21313563Y8052107D01*
X21329671Y8080007D01*
X21329671Y8080008D01*
X21329672Y8080009D01*
X21333197Y8100000D01*
X21449170Y8100000D01*
X21470328Y7980007D01*
X21531247Y7874493D01*
X21531248Y7874492D01*
X21531249Y7874491D01*
X21624585Y7796172D01*
X21739079Y7754500D01*
X21739080Y7754500D01*
X21860920Y7754500D01*
X21860921Y7754500D01*
X21975415Y7796172D01*
X22068751Y7874491D01*
X22129672Y7980009D01*
X22129672Y7980011D01*
X22131138Y7984036D01*
X22132795Y7983433D01*
X22149445Y8009593D01*
X22186056Y8017726D01*
X22217694Y7997590D01*
X22220003Y7993968D01*
X22228063Y7980009D01*
X22231249Y7974491D01*
X22324585Y7896172D01*
X22439079Y7854500D01*
X22439080Y7854500D01*
X22560920Y7854500D01*
X22560921Y7854500D01*
X22675415Y7896172D01*
X22768751Y7974491D01*
X22813563Y8052107D01*
X22829671Y8080007D01*
X22829671Y8080008D01*
X22829672Y8080009D01*
X22850830Y8200000D01*
X22829672Y8319991D01*
X22829671Y8319993D01*
X22829671Y8319994D01*
X22768752Y8425508D01*
X22675415Y8503828D01*
X22631007Y8519991D01*
X22560921Y8545500D01*
X22439079Y8545500D01*
X22384129Y8525500D01*
X22324584Y8503828D01*
X22231247Y8425508D01*
X22170327Y8319991D01*
X22168862Y8315964D01*
X22167209Y8316566D01*
X22150533Y8290393D01*
X22113918Y8282279D01*
X22082290Y8302432D01*
X22079996Y8306033D01*
X22068751Y8325509D01*
X21975415Y8403828D01*
X21915846Y8425509D01*
X21860921Y8445500D01*
X21739079Y8445500D01*
X21684154Y8425509D01*
X21624584Y8403828D01*
X21531247Y8325508D01*
X21470328Y8219994D01*
X21449170Y8100000D01*
X21333197Y8100000D01*
X21350830Y8200000D01*
X21329672Y8319991D01*
X21329671Y8319993D01*
X21329671Y8319994D01*
X21268752Y8425508D01*
X21175415Y8503828D01*
X21131007Y8519991D01*
X21060921Y8545500D01*
X20939079Y8545500D01*
X20884129Y8525500D01*
X20824584Y8503828D01*
X20731247Y8425508D01*
X20670328Y8319994D01*
X20649170Y8200000D01*
X19650830Y8200000D01*
X19629672Y8319991D01*
X19629671Y8319993D01*
X19629671Y8319994D01*
X19594449Y8381000D01*
X19589554Y8418182D01*
X19612384Y8447935D01*
X19636884Y8454500D01*
X19760920Y8454500D01*
X19760921Y8454500D01*
X19875415Y8496172D01*
X19968751Y8574491D01*
X19987800Y8607487D01*
X20017552Y8630316D01*
X20054734Y8625422D01*
X20061727Y8620526D01*
X20114585Y8576172D01*
X20229079Y8534500D01*
X20229080Y8534500D01*
X20350920Y8534500D01*
X20350921Y8534500D01*
X20465415Y8576172D01*
X20558751Y8654491D01*
X20614476Y8751009D01*
X20619671Y8760007D01*
X20619671Y8760008D01*
X20619672Y8760009D01*
X20640830Y8880000D01*
X20619672Y8999991D01*
X20619671Y8999993D01*
X20619671Y8999994D01*
X20619668Y9000000D01*
X26249170Y9000000D01*
X26270328Y8880007D01*
X26331247Y8774493D01*
X26331248Y8774492D01*
X26331249Y8774491D01*
X26424585Y8696172D01*
X26539079Y8654500D01*
X26539080Y8654500D01*
X26660920Y8654500D01*
X26660921Y8654500D01*
X26775415Y8696172D01*
X26868751Y8774491D01*
X26924286Y8870680D01*
X26929671Y8880007D01*
X26929671Y8880008D01*
X26929672Y8880009D01*
X26950830Y9000000D01*
X26929672Y9119991D01*
X26929671Y9119993D01*
X26929671Y9119994D01*
X26868752Y9225508D01*
X26815718Y9270009D01*
X26775415Y9303828D01*
X26660921Y9345500D01*
X26539079Y9345500D01*
X26484154Y9325509D01*
X26424584Y9303828D01*
X26331247Y9225508D01*
X26270328Y9119994D01*
X26249170Y9000000D01*
X20619668Y9000000D01*
X20558752Y9105508D01*
X20558748Y9105511D01*
X20465415Y9183828D01*
X20350921Y9225500D01*
X20229079Y9225500D01*
X20171832Y9204664D01*
X20114584Y9183828D01*
X20021249Y9105511D01*
X20021249Y9105510D01*
X20002199Y9072515D01*
X19972445Y9049685D01*
X19935263Y9054581D01*
X19928267Y9059480D01*
X19875415Y9103828D01*
X19831007Y9119991D01*
X19760921Y9145500D01*
X19639079Y9145500D01*
X19600705Y9131533D01*
X19524584Y9103828D01*
X19431247Y9025508D01*
X19370328Y8919994D01*
X19349170Y8800000D01*
X19370328Y8680007D01*
X19405551Y8619000D01*
X19410446Y8581818D01*
X19387616Y8552065D01*
X19363116Y8545500D01*
X19360921Y8545500D01*
X19239079Y8545500D01*
X19184129Y8525500D01*
X19124584Y8503828D01*
X19031247Y8425508D01*
X18970328Y8319994D01*
X18949170Y8200000D01*
X15315871Y8200000D01*
X15375415Y8221672D01*
X15468751Y8299991D01*
X15515522Y8381000D01*
X15529671Y8405507D01*
X15529671Y8405508D01*
X15529672Y8405509D01*
X15550830Y8525500D01*
X15529672Y8645491D01*
X15529671Y8645493D01*
X15529671Y8645494D01*
X15468752Y8751008D01*
X15464590Y8754500D01*
X15375415Y8829328D01*
X15260921Y8871000D01*
X15139079Y8871000D01*
X15083923Y8850925D01*
X15024584Y8829328D01*
X14931247Y8751008D01*
X14870328Y8645494D01*
X14849170Y8525500D01*
X10570500Y8525500D01*
X10570500Y8848779D01*
X10564631Y8870680D01*
X10564631Y8870681D01*
X10545252Y8943007D01*
X10542433Y8947889D01*
X10508783Y9006172D01*
X10496474Y9027492D01*
X10253957Y9270009D01*
X10133966Y9390000D01*
X10949170Y9390000D01*
X10970328Y9270007D01*
X11031247Y9164493D01*
X11031248Y9164492D01*
X11031249Y9164491D01*
X11124585Y9086172D01*
X11239079Y9044500D01*
X11239080Y9044500D01*
X11360920Y9044500D01*
X11360921Y9044500D01*
X11475415Y9086172D01*
X11568751Y9164491D01*
X11629672Y9270009D01*
X11636724Y9310000D01*
X11949170Y9310000D01*
X11970328Y9190007D01*
X12031247Y9084493D01*
X12031248Y9084492D01*
X12031249Y9084491D01*
X12124585Y9006172D01*
X12239079Y8964500D01*
X12239080Y8964500D01*
X12360920Y8964500D01*
X12360921Y8964500D01*
X12475415Y9006172D01*
X12568751Y9084491D01*
X12623627Y9179538D01*
X12629671Y9190007D01*
X12629671Y9190008D01*
X12629672Y9190009D01*
X12650830Y9310000D01*
X12629672Y9429991D01*
X12629671Y9429993D01*
X12629671Y9429994D01*
X12568752Y9535508D01*
X12548964Y9552112D01*
X12475415Y9613828D01*
X12360921Y9655500D01*
X12239079Y9655500D01*
X12181832Y9634664D01*
X12124584Y9613828D01*
X12031247Y9535508D01*
X11970328Y9429994D01*
X11949170Y9310000D01*
X11636724Y9310000D01*
X11650830Y9390000D01*
X11629672Y9509991D01*
X11629671Y9509993D01*
X11629671Y9509994D01*
X11568752Y9615508D01*
X11556833Y9625509D01*
X11475415Y9693828D01*
X11360921Y9735500D01*
X11239079Y9735500D01*
X11208832Y9724491D01*
X11124584Y9693828D01*
X11031247Y9615508D01*
X10970328Y9509994D01*
X10949170Y9390000D01*
X10133966Y9390000D01*
X10003115Y9520852D01*
X9988763Y9555500D01*
X10003115Y9590148D01*
X10037763Y9604500D01*
X10130920Y9604500D01*
X10130921Y9604500D01*
X10245415Y9646172D01*
X10338751Y9724491D01*
X10384434Y9803616D01*
X10399671Y9830007D01*
X10399671Y9830008D01*
X10399672Y9830009D01*
X10420830Y9950000D01*
X10399672Y10069991D01*
X10399671Y10069993D01*
X10399671Y10069994D01*
X10338752Y10175508D01*
X10331805Y10181337D01*
X10245415Y10253828D01*
X10130921Y10295500D01*
X10009079Y10295500D01*
X9951832Y10274664D01*
X9894584Y10253828D01*
X9800997Y10175298D01*
X9765230Y10164020D01*
X9731964Y10181337D01*
X9720500Y10212834D01*
X9720500Y10626238D01*
X9734852Y10660886D01*
X10323966Y11250000D01*
X10629170Y11250000D01*
X10650328Y11130007D01*
X10711247Y11024493D01*
X10711248Y11024492D01*
X10711249Y11024491D01*
X10804585Y10946172D01*
X10919079Y10904500D01*
X10919080Y10904500D01*
X11040920Y10904500D01*
X11040921Y10904500D01*
X11155415Y10946172D01*
X11248751Y11024491D01*
X11309672Y11130009D01*
X11330830Y11250000D01*
X11309672Y11369991D01*
X11309671Y11369993D01*
X11309671Y11369994D01*
X11248752Y11475508D01*
X11248751Y11475509D01*
X11155415Y11553828D01*
X11040921Y11595500D01*
X10919079Y11595500D01*
X10861832Y11574664D01*
X10804584Y11553828D01*
X10711249Y11475509D01*
X10711247Y11475508D01*
X10650328Y11369994D01*
X10629170Y11250000D01*
X10323966Y11250000D01*
X10416472Y11342506D01*
X10426903Y11360570D01*
X10465250Y11426990D01*
X10465251Y11426993D01*
X10478251Y11475509D01*
X10478251Y11475510D01*
X10490500Y11521221D01*
X10490500Y11708780D01*
X10490499Y11708781D01*
X10476016Y11762831D01*
X10465251Y11803008D01*
X10416474Y11887492D01*
X10347492Y11956474D01*
X10263009Y12005251D01*
X10263006Y12005252D01*
X10168780Y12030500D01*
X10168777Y12030500D01*
X10071223Y12030500D01*
X10071220Y12030500D01*
X9976993Y12005252D01*
X9976990Y12005251D01*
X9892507Y11956474D01*
X9892507Y11956473D01*
X9823527Y11887493D01*
X9823526Y11887493D01*
X9774749Y11803011D01*
X9774747Y11803005D01*
X9758274Y11741526D01*
X9745592Y11719560D01*
X9053528Y11027497D01*
X9053522Y11027489D01*
X9051792Y11024491D01*
X9051791Y11024489D01*
X9004749Y10943011D01*
X9004748Y10943007D01*
X8979500Y10848781D01*
X7740818Y10848781D01*
X7747748Y10859152D01*
X7799445Y10983960D01*
X7825800Y11116455D01*
X7825800Y11251545D01*
X7808532Y11338359D01*
X7799447Y11384031D01*
X7799444Y11384042D01*
X7781654Y11426990D01*
X7747748Y11508848D01*
X7689849Y11595500D01*
X7672697Y11621170D01*
X7577169Y11716698D01*
X7542656Y11739758D01*
X7521821Y11770940D01*
X7529137Y11807723D01*
X7560319Y11828558D01*
X7569879Y11829500D01*
X7643804Y11829500D01*
X7643806Y11829500D01*
X7704160Y11854500D01*
X7743226Y11870681D01*
X8437693Y12565148D01*
X8472341Y12579500D01*
X12717659Y12579500D01*
X12752307Y12565148D01*
X13015148Y12302307D01*
X13029500Y12267659D01*
X13029500Y9476325D01*
X13015148Y9441677D01*
X12997259Y9430280D01*
X12924584Y9403828D01*
X12831247Y9325508D01*
X12770328Y9219994D01*
X12749170Y9100000D01*
X12770328Y8980007D01*
X12831247Y8874493D01*
X12831248Y8874492D01*
X12831249Y8874491D01*
X12924585Y8796172D01*
X13039079Y8754500D01*
X13039080Y8754500D01*
X13160920Y8754500D01*
X13160921Y8754500D01*
X13275415Y8796172D01*
X13327226Y8839648D01*
X13362992Y8850925D01*
X13396258Y8833608D01*
X13401157Y8826611D01*
X13431247Y8774493D01*
X13431248Y8774492D01*
X13431249Y8774491D01*
X13524585Y8696172D01*
X13639079Y8654500D01*
X13639080Y8654500D01*
X13760920Y8654500D01*
X13760921Y8654500D01*
X13875415Y8696172D01*
X13968751Y8774491D01*
X14024286Y8870680D01*
X14029671Y8880007D01*
X14029671Y8880008D01*
X14029672Y8880009D01*
X14050830Y9000000D01*
X14029672Y9119991D01*
X14029671Y9119993D01*
X14029671Y9119994D01*
X13968752Y9225508D01*
X13915718Y9270009D01*
X13875415Y9303828D01*
X13760921Y9345500D01*
X13639079Y9345500D01*
X13636254Y9344472D01*
X13598787Y9346112D01*
X13573453Y9373765D01*
X13570500Y9390519D01*
X13570500Y9400000D01*
X31549170Y9400000D01*
X31570328Y9280007D01*
X31631247Y9174493D01*
X31631248Y9174492D01*
X31631249Y9174491D01*
X31724585Y9096172D01*
X31839079Y9054500D01*
X31839080Y9054500D01*
X31960920Y9054500D01*
X31960921Y9054500D01*
X32075415Y9096172D01*
X32168751Y9174491D01*
X32223897Y9270007D01*
X32229671Y9280007D01*
X32229671Y9280008D01*
X32229672Y9280009D01*
X32250830Y9400000D01*
X32229672Y9519991D01*
X32229671Y9519993D01*
X32229671Y9519994D01*
X32168752Y9625508D01*
X32096525Y9686114D01*
X32075415Y9703828D01*
X31960921Y9745500D01*
X31839079Y9745500D01*
X31811604Y9735500D01*
X31724584Y9703828D01*
X31631247Y9625508D01*
X31570328Y9519994D01*
X31549170Y9400000D01*
X13570500Y9400000D01*
X13570500Y10000000D01*
X22949170Y10000000D01*
X22970328Y9880007D01*
X23031247Y9774493D01*
X23031248Y9774492D01*
X23031249Y9774491D01*
X23124585Y9696172D01*
X23239079Y9654500D01*
X23239080Y9654500D01*
X23360920Y9654500D01*
X23360921Y9654500D01*
X23475415Y9696172D01*
X23568751Y9774491D01*
X23629672Y9880009D01*
X23650830Y10000000D01*
X24049170Y10000000D01*
X24070328Y9880007D01*
X24131247Y9774493D01*
X24131248Y9774492D01*
X24131249Y9774491D01*
X24224585Y9696172D01*
X24339079Y9654500D01*
X24339080Y9654500D01*
X24460920Y9654500D01*
X24460921Y9654500D01*
X24575415Y9696172D01*
X24668751Y9774491D01*
X24729672Y9880009D01*
X24750830Y10000000D01*
X24949170Y10000000D01*
X24970328Y9880007D01*
X25031247Y9774493D01*
X25031248Y9774492D01*
X25031249Y9774491D01*
X25124585Y9696172D01*
X25239079Y9654500D01*
X25239080Y9654500D01*
X25360920Y9654500D01*
X25360921Y9654500D01*
X25475415Y9696172D01*
X25546673Y9755966D01*
X25582438Y9767243D01*
X25615704Y9749926D01*
X25620603Y9742929D01*
X25631247Y9724493D01*
X25631248Y9724492D01*
X25631249Y9724491D01*
X25724585Y9646172D01*
X25839079Y9604500D01*
X25839080Y9604500D01*
X25960920Y9604500D01*
X25960921Y9604500D01*
X26075415Y9646172D01*
X26168751Y9724491D01*
X26207565Y9791718D01*
X26237318Y9814548D01*
X26274500Y9809653D01*
X26292435Y9791718D01*
X26331247Y9724493D01*
X26331248Y9724492D01*
X26331249Y9724491D01*
X26424585Y9646172D01*
X26539079Y9604500D01*
X26539080Y9604500D01*
X26660920Y9604500D01*
X26660921Y9604500D01*
X26775415Y9646172D01*
X26868751Y9724491D01*
X26914434Y9803616D01*
X26929671Y9830007D01*
X26929671Y9830008D01*
X26929672Y9830009D01*
X26950830Y9950000D01*
X26949442Y9957870D01*
X33884500Y9957870D01*
X33884500Y9822131D01*
X33919629Y9691029D01*
X33919631Y9691023D01*
X33969586Y9604500D01*
X33987498Y9573476D01*
X34083476Y9477498D01*
X34126500Y9452658D01*
X34201022Y9409632D01*
X34201028Y9409630D01*
X34332130Y9374500D01*
X34332133Y9374500D01*
X34467869Y9374500D01*
X34598971Y9409630D01*
X34598969Y9409630D01*
X34598975Y9409631D01*
X34716524Y9477498D01*
X34812502Y9573476D01*
X34880369Y9691025D01*
X34900792Y9767243D01*
X34915500Y9822131D01*
X34915500Y9957870D01*
X34880370Y10088972D01*
X34880368Y10088978D01*
X34830409Y10175508D01*
X34812502Y10206524D01*
X34716524Y10302502D01*
X34702032Y10310869D01*
X34598977Y10370369D01*
X34598971Y10370371D01*
X34467870Y10405500D01*
X34467867Y10405500D01*
X34332133Y10405500D01*
X34332130Y10405500D01*
X34201028Y10370371D01*
X34201022Y10370369D01*
X34083475Y10302502D01*
X34083475Y10302501D01*
X33987499Y10206525D01*
X33987498Y10206525D01*
X33919631Y10088978D01*
X33919629Y10088972D01*
X33884500Y9957870D01*
X26949442Y9957870D01*
X26929672Y10069991D01*
X26929671Y10069993D01*
X26929671Y10069994D01*
X26868752Y10175508D01*
X26861805Y10181337D01*
X26775415Y10253828D01*
X26660921Y10295500D01*
X26539079Y10295500D01*
X26481832Y10274664D01*
X26424584Y10253828D01*
X26331247Y10175508D01*
X26292435Y10108283D01*
X26262682Y10085453D01*
X26225500Y10090348D01*
X26207565Y10108283D01*
X26168752Y10175508D01*
X26161805Y10181337D01*
X26075415Y10253828D01*
X25960921Y10295500D01*
X25839079Y10295500D01*
X25781832Y10274664D01*
X25724584Y10253828D01*
X25653327Y10194036D01*
X25617559Y10182758D01*
X25584294Y10200075D01*
X25579399Y10207066D01*
X25568751Y10225509D01*
X25475415Y10303828D01*
X25360921Y10345500D01*
X25239079Y10345500D01*
X25211772Y10335561D01*
X25124584Y10303828D01*
X25031247Y10225508D01*
X24970328Y10119994D01*
X24949170Y10000000D01*
X24750830Y10000000D01*
X24729672Y10119991D01*
X24729671Y10119993D01*
X24729671Y10119994D01*
X24668752Y10225508D01*
X24663390Y10230007D01*
X24575415Y10303828D01*
X24460921Y10345500D01*
X24339079Y10345500D01*
X24311772Y10335561D01*
X24224584Y10303828D01*
X24131247Y10225508D01*
X24070328Y10119994D01*
X24049170Y10000000D01*
X23650830Y10000000D01*
X23629672Y10119991D01*
X23629671Y10119993D01*
X23629671Y10119994D01*
X23568752Y10225508D01*
X23563390Y10230007D01*
X23475415Y10303828D01*
X23360921Y10345500D01*
X23239079Y10345500D01*
X23211772Y10335561D01*
X23124584Y10303828D01*
X23031247Y10225508D01*
X22970328Y10119994D01*
X22949170Y10000000D01*
X13570500Y10000000D01*
X13570500Y11395001D01*
X32672183Y11395001D01*
X32672184Y11395000D01*
X33029513Y11395000D01*
X33020000Y11359496D01*
X33020000Y11280504D01*
X33029513Y11245000D01*
X32672183Y11245000D01*
X32694976Y11130414D01*
X32694980Y11130399D01*
X32743976Y11012114D01*
X32815112Y10905649D01*
X32905648Y10815113D01*
X33012113Y10743977D01*
X33130398Y10694981D01*
X33130404Y10694979D01*
X33255984Y10670000D01*
X33795000Y10670000D01*
X33795000Y11020000D01*
X33945000Y11020000D01*
X33945000Y10670000D01*
X34484016Y10670000D01*
X34609595Y10694979D01*
X34609601Y10694981D01*
X34727886Y10743977D01*
X34834351Y10815113D01*
X34924887Y10905649D01*
X34996023Y11012114D01*
X35045019Y11130399D01*
X35045023Y11130414D01*
X35067816Y11245000D01*
X34710487Y11245000D01*
X34720000Y11280504D01*
X34720000Y11359496D01*
X34710487Y11395000D01*
X35067816Y11395000D01*
X35067816Y11395001D01*
X37102183Y11395001D01*
X37102184Y11395000D01*
X37459513Y11395000D01*
X37450000Y11359496D01*
X37450000Y11280504D01*
X37459513Y11245000D01*
X37102183Y11245000D01*
X37124976Y11130414D01*
X37124980Y11130399D01*
X37173976Y11012114D01*
X37245112Y10905649D01*
X37335648Y10815113D01*
X37442113Y10743977D01*
X37560398Y10694981D01*
X37560404Y10694979D01*
X37685984Y10670000D01*
X37975000Y10670000D01*
X37975000Y11020000D01*
X38125000Y11020000D01*
X38125000Y10670000D01*
X38414016Y10670000D01*
X38539595Y10694979D01*
X38539601Y10694981D01*
X38657886Y10743977D01*
X38764351Y10815113D01*
X38854887Y10905649D01*
X38926023Y11012114D01*
X38975019Y11130399D01*
X38975023Y11130414D01*
X38997816Y11245000D01*
X38640487Y11245000D01*
X38650000Y11280504D01*
X38650000Y11359496D01*
X38640487Y11395000D01*
X38997816Y11395000D01*
X38997816Y11395001D01*
X38975023Y11509587D01*
X38975019Y11509602D01*
X38926023Y11627887D01*
X38854887Y11734352D01*
X38764351Y11824888D01*
X38657886Y11896024D01*
X38539601Y11945020D01*
X38539595Y11945022D01*
X38414016Y11970000D01*
X38125000Y11970000D01*
X38125000Y11620000D01*
X37975000Y11620000D01*
X37975000Y11970000D01*
X37685984Y11970000D01*
X37560404Y11945022D01*
X37560398Y11945020D01*
X37442113Y11896024D01*
X37335648Y11824888D01*
X37245112Y11734352D01*
X37173976Y11627887D01*
X37124980Y11509602D01*
X37124976Y11509587D01*
X37102183Y11395001D01*
X35067816Y11395001D01*
X35045023Y11509587D01*
X35045019Y11509602D01*
X34996023Y11627887D01*
X34924887Y11734352D01*
X34834351Y11824888D01*
X34727886Y11896024D01*
X34609601Y11945020D01*
X34609595Y11945022D01*
X34484016Y11970000D01*
X33945000Y11970000D01*
X33945000Y11620000D01*
X33795000Y11620000D01*
X33795000Y11970000D01*
X33255984Y11970000D01*
X33130404Y11945022D01*
X33130398Y11945020D01*
X33012113Y11896024D01*
X32905648Y11824888D01*
X32815112Y11734352D01*
X32743976Y11627887D01*
X32694980Y11509602D01*
X32694976Y11509587D01*
X32672183Y11395001D01*
X13570500Y11395001D01*
X13570500Y12150000D01*
X31899170Y12150000D01*
X31920328Y12030007D01*
X31981247Y11924493D01*
X31981248Y11924492D01*
X31981249Y11924491D01*
X32074585Y11846172D01*
X32189079Y11804500D01*
X32189080Y11804500D01*
X32310920Y11804500D01*
X32310921Y11804500D01*
X32425415Y11846172D01*
X32518751Y11924491D01*
X32579672Y12030009D01*
X32600830Y12150000D01*
X32579672Y12269991D01*
X32579671Y12269993D01*
X32579671Y12269994D01*
X32518752Y12375508D01*
X32507616Y12384852D01*
X32425415Y12453828D01*
X32310921Y12495500D01*
X32189079Y12495500D01*
X32182153Y12492979D01*
X32074584Y12453828D01*
X31981247Y12375508D01*
X31920328Y12269994D01*
X31899170Y12150000D01*
X13570500Y12150000D01*
X13570500Y12453804D01*
X13570499Y12453808D01*
X13553229Y12495500D01*
X13541073Y12524848D01*
X13530655Y12550000D01*
X16549170Y12550000D01*
X16570328Y12430007D01*
X16631247Y12324493D01*
X16631248Y12324492D01*
X16631249Y12324491D01*
X16724585Y12246172D01*
X16839079Y12204500D01*
X16839080Y12204500D01*
X16960920Y12204500D01*
X16960921Y12204500D01*
X17075415Y12246172D01*
X17168751Y12324491D01*
X17229672Y12430009D01*
X17250830Y12550000D01*
X17229672Y12669991D01*
X17229671Y12669993D01*
X17229671Y12669994D01*
X17168752Y12775508D01*
X17164795Y12778828D01*
X17075415Y12853828D01*
X17058457Y12860000D01*
X27729170Y12860000D01*
X27750328Y12740007D01*
X27811247Y12634493D01*
X27811248Y12634492D01*
X27811249Y12634491D01*
X27904585Y12556172D01*
X28019079Y12514500D01*
X28019080Y12514500D01*
X28140920Y12514500D01*
X28140921Y12514500D01*
X28255415Y12556172D01*
X28348751Y12634491D01*
X28409672Y12740009D01*
X28430830Y12860000D01*
X28409672Y12979991D01*
X28409671Y12979993D01*
X28409671Y12979994D01*
X28348752Y13085508D01*
X28255415Y13163828D01*
X28210963Y13180007D01*
X28140921Y13205500D01*
X28019079Y13205500D01*
X27961832Y13184664D01*
X27904584Y13163828D01*
X27811247Y13085508D01*
X27750328Y12979994D01*
X27729170Y12860000D01*
X17058457Y12860000D01*
X16960921Y12895500D01*
X16839079Y12895500D01*
X16781832Y12874664D01*
X16724584Y12853828D01*
X16631247Y12775508D01*
X16570328Y12669994D01*
X16549170Y12550000D01*
X13530655Y12550000D01*
X13529319Y12553226D01*
X13529317Y12553228D01*
X13529316Y12553230D01*
X13003229Y13079317D01*
X13003226Y13079319D01*
X12962044Y13096377D01*
X12903807Y13120500D01*
X12903806Y13120500D01*
X8569859Y13120500D01*
X8535211Y13134852D01*
X8520859Y13169500D01*
X8535211Y13204148D01*
X8538362Y13207036D01*
X8618751Y13274491D01*
X8655710Y13338505D01*
X8679671Y13380007D01*
X8679671Y13380008D01*
X8679672Y13380009D01*
X8700830Y13500000D01*
X8679672Y13619991D01*
X8679671Y13619993D01*
X8679671Y13619994D01*
X8618468Y13726000D01*
X8613573Y13763182D01*
X8636403Y13792935D01*
X8660903Y13799500D01*
X29825118Y13799500D01*
X29859766Y13785148D01*
X29870933Y13767877D01*
X29877523Y13750500D01*
X29901939Y13686118D01*
X29901941Y13686113D01*
X29994435Y13552112D01*
X29994439Y13552107D01*
X30116316Y13444135D01*
X30238499Y13380009D01*
X30260491Y13368467D01*
X30418587Y13329500D01*
X30581413Y13329500D01*
X30739509Y13368467D01*
X30883685Y13444136D01*
X30975537Y13525509D01*
X31005560Y13552107D01*
X31005560Y13552109D01*
X31005563Y13552110D01*
X31098059Y13686114D01*
X31129066Y13767876D01*
X31154771Y13795183D01*
X31174882Y13799500D01*
X31325118Y13799500D01*
X31359766Y13785148D01*
X31370933Y13767877D01*
X31377523Y13750500D01*
X31401939Y13686118D01*
X31401941Y13686113D01*
X31494435Y13552112D01*
X31494439Y13552107D01*
X31616316Y13444135D01*
X31738499Y13380009D01*
X31760491Y13368467D01*
X31918587Y13329500D01*
X32081413Y13329500D01*
X32239509Y13368467D01*
X32383685Y13444136D01*
X32475537Y13525509D01*
X32505560Y13552107D01*
X32505560Y13552109D01*
X32505563Y13552110D01*
X32598059Y13686114D01*
X32629066Y13767876D01*
X32654771Y13795183D01*
X32674882Y13799500D01*
X32825118Y13799500D01*
X32859766Y13785148D01*
X32870933Y13767877D01*
X32877523Y13750500D01*
X32901939Y13686118D01*
X32901941Y13686113D01*
X32994435Y13552112D01*
X32994439Y13552107D01*
X33116316Y13444135D01*
X33238499Y13380009D01*
X33260491Y13368467D01*
X33418587Y13329500D01*
X33581413Y13329500D01*
X33739509Y13368467D01*
X33883685Y13444136D01*
X33975537Y13525509D01*
X34005560Y13552107D01*
X34005560Y13552109D01*
X34005563Y13552110D01*
X34098059Y13686114D01*
X34129066Y13767876D01*
X34154771Y13795183D01*
X34174882Y13799500D01*
X39396654Y13799500D01*
X39431302Y13785148D01*
X39785148Y13431302D01*
X39799500Y13396654D01*
X39799500Y603346D01*
X39785148Y568698D01*
X39431302Y214852D01*
X39396654Y200500D01*
X34174882Y200500D01*
X34140234Y214852D01*
X34129066Y232125D01*
X34123953Y245606D01*
X34098059Y313886D01*
X34089321Y326545D01*
X34005564Y447889D01*
X34005560Y447894D01*
X33883683Y555866D01*
X33739510Y631533D01*
X33581413Y670500D01*
X33418587Y670500D01*
X33260489Y631533D01*
X33116316Y555866D01*
X32994439Y447894D01*
X32994435Y447889D01*
X32901941Y313888D01*
X32901940Y313886D01*
X32870934Y232125D01*
X32845229Y204817D01*
X32825118Y200500D01*
X32706433Y200500D01*
X32671785Y214852D01*
X32660617Y232124D01*
X32624370Y327697D01*
X32546531Y440466D01*
X32546530Y440467D01*
X32331643Y225578D01*
X32320080Y245606D01*
X32245606Y320080D01*
X32225577Y331644D01*
X32439637Y545705D01*
X32439637Y545706D01*
X32400566Y580320D01*
X32400561Y580323D01*
X32250047Y659318D01*
X32084995Y700000D01*
X31915005Y700000D01*
X31749952Y659318D01*
X31599435Y580322D01*
X31560361Y545706D01*
X31560361Y545705D01*
X31774422Y331644D01*
X31754394Y320080D01*
X31679920Y245606D01*
X31668356Y225578D01*
X31453468Y440467D01*
X31453467Y440466D01*
X31375629Y327697D01*
X31339383Y232124D01*
X31313677Y204817D01*
X31293567Y200500D01*
X9740451Y200500D01*
X9705803Y214852D01*
X9691451Y249500D01*
X9705803Y284148D01*
X9723693Y295545D01*
X9725415Y296172D01*
X9735340Y304500D01*
X9818751Y374491D01*
X9856842Y440467D01*
X9879671Y480007D01*
X9879671Y480008D01*
X9879672Y480009D01*
X9899773Y594006D01*
X9919923Y625633D01*
X9956537Y633751D01*
X9964785Y631541D01*
X10039079Y604500D01*
X10039080Y604500D01*
X10160920Y604500D01*
X10160921Y604500D01*
X10275415Y646172D01*
X10279977Y650000D01*
X10499170Y650000D01*
X10520328Y530007D01*
X10581247Y424493D01*
X10581248Y424492D01*
X10581249Y424491D01*
X10674585Y346172D01*
X10789079Y304500D01*
X10789080Y304500D01*
X10910920Y304500D01*
X10910921Y304500D01*
X10971490Y326546D01*
X10988249Y329500D01*
X11392198Y329500D01*
X11392198Y329501D01*
X11473709Y351341D01*
X11479181Y354500D01*
X11534477Y386426D01*
X11546792Y393536D01*
X11606464Y453208D01*
X11606464Y453210D01*
X11610493Y457238D01*
X11610497Y457243D01*
X12118233Y964980D01*
X12152880Y979331D01*
X12187528Y964979D01*
X12201136Y938840D01*
X12220328Y829996D01*
X12281247Y724482D01*
X12281248Y724481D01*
X12281249Y724480D01*
X12374585Y646161D01*
X12489079Y604489D01*
X12489080Y604489D01*
X12610920Y604489D01*
X12610921Y604489D01*
X12685244Y631540D01*
X12701784Y637560D01*
X12739252Y635924D01*
X12764588Y608274D01*
X12766798Y600024D01*
X12770327Y580010D01*
X12831247Y474493D01*
X12831248Y474492D01*
X12831249Y474491D01*
X12924585Y396172D01*
X13039079Y354500D01*
X13039080Y354500D01*
X13160920Y354500D01*
X13160921Y354500D01*
X13275415Y396172D01*
X13368751Y474491D01*
X13429672Y580009D01*
X13450830Y700000D01*
X13450829Y700002D01*
X13450830Y700003D01*
X13446580Y724104D01*
X13454696Y760718D01*
X13486326Y780868D01*
X13522940Y772752D01*
X13529483Y767261D01*
X13613208Y683536D01*
X13613212Y683534D01*
X13613213Y683533D01*
X13686288Y641342D01*
X13686291Y641341D01*
X13767801Y619501D01*
X13767802Y619500D01*
X13767805Y619500D01*
X15222198Y619500D01*
X15222198Y619501D01*
X15303709Y641341D01*
X15312058Y646161D01*
X15334846Y659318D01*
X15376792Y683536D01*
X15436464Y743208D01*
X15436464Y743210D01*
X15440493Y747238D01*
X15440497Y747243D01*
X15555014Y861761D01*
X15589661Y876112D01*
X15624309Y861760D01*
X15632096Y851612D01*
X15690766Y749993D01*
X15690767Y749992D01*
X15690768Y749991D01*
X15784104Y671672D01*
X15898598Y630000D01*
X15898599Y630000D01*
X16020439Y630000D01*
X16020440Y630000D01*
X16134934Y671672D01*
X16228270Y749991D01*
X16271870Y825508D01*
X16289190Y855507D01*
X16289190Y855508D01*
X16289191Y855509D01*
X16310349Y975500D01*
X16289191Y1095491D01*
X16289190Y1095493D01*
X16289190Y1095494D01*
X16228271Y1201008D01*
X16134934Y1279328D01*
X16078118Y1300007D01*
X16020440Y1321000D01*
X15898598Y1321000D01*
X15869974Y1310582D01*
X15784101Y1279328D01*
X15783994Y1279265D01*
X15783895Y1279252D01*
X15780076Y1277862D01*
X15779767Y1278710D01*
X15746811Y1274375D01*
X15717061Y1297210D01*
X15710500Y1321704D01*
X15710500Y1420000D01*
X22769170Y1420000D01*
X22790328Y1300007D01*
X22851247Y1194493D01*
X22851248Y1194492D01*
X22851249Y1194491D01*
X22944585Y1116172D01*
X23059079Y1074500D01*
X23059080Y1074500D01*
X23180920Y1074500D01*
X23180921Y1074500D01*
X23295415Y1116172D01*
X23388751Y1194491D01*
X23437688Y1279252D01*
X23449671Y1300007D01*
X23449671Y1300008D01*
X23449672Y1300009D01*
X23470830Y1420000D01*
X23569170Y1420000D01*
X23590328Y1300007D01*
X23651247Y1194493D01*
X23651248Y1194492D01*
X23651249Y1194491D01*
X23744585Y1116172D01*
X23859079Y1074500D01*
X23859080Y1074500D01*
X23980920Y1074500D01*
X23980921Y1074500D01*
X24095415Y1116172D01*
X24188751Y1194491D01*
X24237688Y1279252D01*
X24249671Y1300007D01*
X24249671Y1300008D01*
X24249672Y1300009D01*
X24270830Y1420000D01*
X24249672Y1539991D01*
X24249671Y1539993D01*
X24249671Y1539994D01*
X24188752Y1645508D01*
X24187959Y1646173D01*
X24095415Y1723828D01*
X23980921Y1765500D01*
X23859079Y1765500D01*
X23807679Y1746792D01*
X23744584Y1723828D01*
X23651247Y1645508D01*
X23590328Y1539994D01*
X23569170Y1420000D01*
X23470830Y1420000D01*
X23449672Y1539991D01*
X23449671Y1539993D01*
X23449671Y1539994D01*
X23388752Y1645508D01*
X23387959Y1646173D01*
X23295415Y1723828D01*
X23180921Y1765500D01*
X23059079Y1765500D01*
X23007679Y1746792D01*
X22944584Y1723828D01*
X22851247Y1645508D01*
X22790328Y1539994D01*
X22769170Y1420000D01*
X15710500Y1420000D01*
X15710500Y1420993D01*
X15717066Y1445495D01*
X15719671Y1450007D01*
X15719671Y1450008D01*
X15719672Y1450009D01*
X15740830Y1570000D01*
X15719672Y1689991D01*
X15719671Y1689993D01*
X15719671Y1689994D01*
X15658752Y1795508D01*
X15657959Y1796173D01*
X15565415Y1873828D01*
X15450921Y1915500D01*
X15329079Y1915500D01*
X15286493Y1900000D01*
X15214584Y1873828D01*
X15121247Y1795508D01*
X15060328Y1689994D01*
X15039170Y1570000D01*
X15060328Y1450007D01*
X15062934Y1445495D01*
X15069500Y1420993D01*
X15069500Y1309500D01*
X15055148Y1274852D01*
X15020500Y1260500D01*
X13963052Y1260500D01*
X13928404Y1274852D01*
X13459259Y1743996D01*
X13459257Y1743999D01*
X13396795Y1806461D01*
X13396792Y1806464D01*
X13396788Y1806466D01*
X13396786Y1806468D01*
X13323711Y1848659D01*
X13323708Y1848660D01*
X13242198Y1870500D01*
X13242195Y1870500D01*
X12207805Y1870500D01*
X12207802Y1870500D01*
X12126291Y1848660D01*
X12126288Y1848659D01*
X12053213Y1806468D01*
X12053204Y1806461D01*
X11993534Y1746790D01*
X11871272Y1624529D01*
X11836624Y1610177D01*
X11801976Y1624529D01*
X11788369Y1650667D01*
X11779672Y1699991D01*
X11779670Y1699994D01*
X11718752Y1805508D01*
X11700928Y1820464D01*
X11625415Y1883828D01*
X11510921Y1925500D01*
X11389079Y1925500D01*
X11361604Y1915500D01*
X11274584Y1883828D01*
X11181247Y1805508D01*
X11120328Y1699994D01*
X11099170Y1580000D01*
X11120328Y1460007D01*
X11181247Y1354493D01*
X11181248Y1354492D01*
X11181249Y1354491D01*
X11274585Y1276172D01*
X11384374Y1236213D01*
X11412025Y1210877D01*
X11413661Y1173410D01*
X11402264Y1155520D01*
X11231597Y984852D01*
X11196949Y970500D01*
X10988249Y970500D01*
X10971490Y973455D01*
X10965871Y975500D01*
X10910921Y995500D01*
X10789079Y995500D01*
X10759824Y984852D01*
X10674584Y953828D01*
X10581247Y875508D01*
X10520328Y769994D01*
X10499170Y650000D01*
X10279977Y650000D01*
X10368751Y724491D01*
X10427074Y825509D01*
X10429671Y830007D01*
X10429671Y830008D01*
X10429672Y830009D01*
X10450830Y950000D01*
X10429672Y1069991D01*
X10429671Y1069993D01*
X10429671Y1069994D01*
X10368752Y1175508D01*
X10338361Y1201009D01*
X10275415Y1253828D01*
X10160921Y1295500D01*
X10039079Y1295500D01*
X9990619Y1277862D01*
X9924584Y1253828D01*
X9831247Y1175508D01*
X9770327Y1069991D01*
X9750226Y955997D01*
X9730076Y924367D01*
X9693462Y916251D01*
X9685213Y918461D01*
X9610921Y945500D01*
X9489079Y945500D01*
X9470781Y938840D01*
X9374584Y903828D01*
X9281247Y825508D01*
X9220328Y719994D01*
X9199170Y600000D01*
X9220328Y480007D01*
X9281247Y374493D01*
X9374584Y296172D01*
X9376307Y295545D01*
X9377391Y294551D01*
X9378296Y294029D01*
X9378180Y293829D01*
X9403957Y270210D01*
X9405594Y232742D01*
X9380259Y205092D01*
X9359549Y200500D01*
X603346Y200500D01*
X568698Y214852D01*
X417915Y365635D01*
X403563Y400283D01*
X417915Y434931D01*
X420070Y436960D01*
X439637Y454296D01*
X439637Y454298D01*
X225578Y668357D01*
X245606Y679920D01*
X320080Y754394D01*
X331643Y774423D01*
X546530Y559536D01*
X624370Y672304D01*
X634874Y700000D01*
X2949170Y700000D01*
X2970328Y580007D01*
X3031247Y474493D01*
X3031248Y474492D01*
X3031249Y474491D01*
X3124585Y396172D01*
X3239079Y354500D01*
X3239080Y354500D01*
X3360920Y354500D01*
X3360921Y354500D01*
X3475415Y396172D01*
X3568751Y474491D01*
X3629672Y580009D01*
X3650830Y700000D01*
X3974170Y700000D01*
X3995328Y580007D01*
X4056247Y474493D01*
X4056248Y474492D01*
X4056249Y474491D01*
X4149585Y396172D01*
X4264079Y354500D01*
X4264080Y354500D01*
X4385920Y354500D01*
X4385921Y354500D01*
X4500415Y396172D01*
X4593751Y474491D01*
X4654672Y580009D01*
X4675830Y700000D01*
X5549170Y700000D01*
X5570328Y580007D01*
X5631247Y474493D01*
X5631248Y474492D01*
X5631249Y474491D01*
X5724585Y396172D01*
X5839079Y354500D01*
X5839080Y354500D01*
X5960920Y354500D01*
X5960921Y354500D01*
X6075415Y396172D01*
X6168751Y474491D01*
X6229672Y580009D01*
X6250830Y700000D01*
X6399170Y700000D01*
X6420328Y580007D01*
X6481247Y474493D01*
X6481248Y474492D01*
X6481249Y474491D01*
X6574585Y396172D01*
X6689079Y354500D01*
X6689080Y354500D01*
X6810920Y354500D01*
X6810921Y354500D01*
X6925415Y396172D01*
X7018751Y474491D01*
X7079672Y580009D01*
X7100830Y700000D01*
X7079672Y819991D01*
X7079671Y819993D01*
X7079671Y819994D01*
X7018752Y925508D01*
X6925415Y1003828D01*
X6897289Y1014065D01*
X6810921Y1045500D01*
X6689079Y1045500D01*
X6646512Y1030007D01*
X6574584Y1003828D01*
X6481247Y925508D01*
X6420328Y819994D01*
X6399170Y700000D01*
X6250830Y700000D01*
X6229672Y819991D01*
X6229671Y819993D01*
X6229671Y819994D01*
X6168752Y925508D01*
X6075415Y1003828D01*
X6047289Y1014065D01*
X5960921Y1045500D01*
X5839079Y1045500D01*
X5796512Y1030007D01*
X5724584Y1003828D01*
X5631247Y925508D01*
X5570328Y819994D01*
X5549170Y700000D01*
X4675830Y700000D01*
X4654672Y819991D01*
X4654671Y819993D01*
X4654671Y819994D01*
X4593752Y925508D01*
X4500415Y1003828D01*
X4472289Y1014065D01*
X4385921Y1045500D01*
X4264079Y1045500D01*
X4221512Y1030007D01*
X4149584Y1003828D01*
X4056247Y925508D01*
X3995328Y819994D01*
X3974170Y700000D01*
X3650830Y700000D01*
X3629672Y819991D01*
X3629671Y819993D01*
X3629671Y819994D01*
X3568752Y925508D01*
X3475415Y1003828D01*
X3447289Y1014065D01*
X3360921Y1045500D01*
X3239079Y1045500D01*
X3196512Y1030007D01*
X3124584Y1003828D01*
X3031247Y925508D01*
X2970328Y819994D01*
X2949170Y700000D01*
X634874Y700000D01*
X684650Y831248D01*
X705140Y1000000D01*
X686927Y1150000D01*
X7849170Y1150000D01*
X7870328Y1030007D01*
X7931247Y924493D01*
X7931248Y924492D01*
X7931249Y924491D01*
X8024585Y846172D01*
X8139079Y804500D01*
X8139080Y804500D01*
X8260920Y804500D01*
X8260921Y804500D01*
X8375415Y846172D01*
X8468751Y924491D01*
X8529672Y1030009D01*
X8550830Y1150000D01*
X8529672Y1269991D01*
X8529671Y1269993D01*
X8529671Y1269994D01*
X8468752Y1375508D01*
X8375415Y1453828D01*
X8358433Y1460009D01*
X8260921Y1495500D01*
X8139079Y1495500D01*
X8081832Y1474664D01*
X8024584Y1453828D01*
X7931247Y1375508D01*
X7870328Y1269994D01*
X7849170Y1150000D01*
X686927Y1150000D01*
X684650Y1168753D01*
X624370Y1327697D01*
X546531Y1440466D01*
X546530Y1440467D01*
X331642Y1225579D01*
X320080Y1245606D01*
X245606Y1320080D01*
X225576Y1331644D01*
X439637Y1545705D01*
X439637Y1545706D01*
X400566Y1580320D01*
X400561Y1580323D01*
X250048Y1659318D01*
X237772Y1662344D01*
X207566Y1684572D01*
X200500Y1709920D01*
X200500Y1820464D01*
X214852Y1855112D01*
X237778Y1868041D01*
X239509Y1868467D01*
X299591Y1900000D01*
X2949170Y1900000D01*
X2970328Y1780007D01*
X3031247Y1674493D01*
X3031248Y1674492D01*
X3031249Y1674491D01*
X3124585Y1596172D01*
X3239079Y1554500D01*
X3239080Y1554500D01*
X3360920Y1554500D01*
X3360921Y1554500D01*
X3475415Y1596172D01*
X3568751Y1674491D01*
X3629672Y1780009D01*
X3650830Y1900000D01*
X3974170Y1900000D01*
X3995328Y1780007D01*
X4056247Y1674493D01*
X4056248Y1674492D01*
X4056249Y1674491D01*
X4149585Y1596172D01*
X4264079Y1554500D01*
X4264080Y1554500D01*
X4385920Y1554500D01*
X4385921Y1554500D01*
X4500415Y1596172D01*
X4593751Y1674491D01*
X4654672Y1780009D01*
X4675830Y1900000D01*
X4667014Y1950000D01*
X5549170Y1950000D01*
X5570328Y1830007D01*
X5631247Y1724493D01*
X5631248Y1724492D01*
X5631249Y1724491D01*
X5724585Y1646172D01*
X5839079Y1604500D01*
X5839080Y1604500D01*
X5960920Y1604500D01*
X5960921Y1604500D01*
X6075415Y1646172D01*
X6168751Y1724491D01*
X6229672Y1830009D01*
X6250830Y1950000D01*
X6399170Y1950000D01*
X6420328Y1830007D01*
X6481247Y1724493D01*
X6481248Y1724492D01*
X6481249Y1724491D01*
X6574585Y1646172D01*
X6689079Y1604500D01*
X6689080Y1604500D01*
X6810920Y1604500D01*
X6810921Y1604500D01*
X6925415Y1646172D01*
X7018751Y1724491D01*
X7079672Y1830009D01*
X7100830Y1950000D01*
X7079672Y2069991D01*
X7079671Y2069993D01*
X7079671Y2069994D01*
X7018752Y2175508D01*
X7006112Y2186114D01*
X6925415Y2253828D01*
X6810921Y2295500D01*
X6689079Y2295500D01*
X6631832Y2274664D01*
X6574584Y2253828D01*
X6481247Y2175508D01*
X6420328Y2069994D01*
X6399170Y1950000D01*
X6250830Y1950000D01*
X6229672Y2069991D01*
X6229671Y2069993D01*
X6229671Y2069994D01*
X6168752Y2175508D01*
X6156112Y2186114D01*
X6075415Y2253828D01*
X5960921Y2295500D01*
X5839079Y2295500D01*
X5781832Y2274664D01*
X5724584Y2253828D01*
X5631247Y2175508D01*
X5570328Y2069994D01*
X5549170Y1950000D01*
X4667014Y1950000D01*
X4654672Y2019991D01*
X4654671Y2019993D01*
X4654671Y2019994D01*
X4593752Y2125508D01*
X4521525Y2186114D01*
X4500415Y2203828D01*
X4385921Y2245500D01*
X4264079Y2245500D01*
X4206832Y2224664D01*
X4149584Y2203828D01*
X4056247Y2125508D01*
X3995328Y2019994D01*
X3974170Y1900000D01*
X3650830Y1900000D01*
X3629672Y2019991D01*
X3629671Y2019993D01*
X3629671Y2019994D01*
X3568752Y2125508D01*
X3496525Y2186114D01*
X3475415Y2203828D01*
X3360921Y2245500D01*
X3239079Y2245500D01*
X3181832Y2224664D01*
X3124584Y2203828D01*
X3031247Y2125508D01*
X2970328Y2019994D01*
X2949170Y1900000D01*
X299591Y1900000D01*
X383683Y1944135D01*
X383682Y1944135D01*
X383685Y1944136D01*
X505563Y2052110D01*
X598059Y2186114D01*
X655798Y2338360D01*
X675425Y2500000D01*
X655798Y2661640D01*
X598059Y2813886D01*
X590036Y2825509D01*
X505564Y2947889D01*
X505560Y2947894D01*
X383683Y3055866D01*
X239510Y3131533D01*
X239509Y3131534D01*
X237764Y3131964D01*
X237115Y3132442D01*
X236739Y3132584D01*
X236778Y3132690D01*
X207562Y3154197D01*
X200500Y3179538D01*
X200500Y3320464D01*
X214852Y3355112D01*
X237778Y3368041D01*
X239509Y3368467D01*
X299591Y3400000D01*
X383683Y3444135D01*
X383682Y3444135D01*
X383685Y3444136D01*
X446743Y3500000D01*
X2949170Y3500000D01*
X2970328Y3380007D01*
X3031247Y3274493D01*
X3031248Y3274492D01*
X3031249Y3274491D01*
X3124585Y3196172D01*
X3239079Y3154500D01*
X3239080Y3154500D01*
X3360920Y3154500D01*
X3360921Y3154500D01*
X3475415Y3196172D01*
X3479977Y3200000D01*
X10649170Y3200000D01*
X10670328Y3080007D01*
X10731247Y2974493D01*
X10775290Y2937536D01*
X10792607Y2904270D01*
X10781329Y2868503D01*
X10775290Y2862464D01*
X10731247Y2825508D01*
X10670328Y2719994D01*
X10649170Y2600000D01*
X10670328Y2480007D01*
X10731247Y2374493D01*
X10731248Y2374492D01*
X10731249Y2374491D01*
X10824585Y2296172D01*
X10939079Y2254500D01*
X10939080Y2254500D01*
X11060920Y2254500D01*
X11060921Y2254500D01*
X11175415Y2296172D01*
X11268751Y2374491D01*
X11329672Y2480009D01*
X11350830Y2600000D01*
X11329672Y2719991D01*
X11329671Y2719993D01*
X11329671Y2719994D01*
X11268752Y2825508D01*
X11268748Y2825513D01*
X11224711Y2862464D01*
X11207393Y2895729D01*
X11208740Y2900000D01*
X12949170Y2900000D01*
X12970328Y2780007D01*
X13031247Y2674493D01*
X13031248Y2674492D01*
X13031249Y2674491D01*
X13124585Y2596172D01*
X13196738Y2569911D01*
X13224388Y2544575D01*
X13226024Y2507107D01*
X13222415Y2499367D01*
X13185140Y2434805D01*
X13163982Y2314812D01*
X13185140Y2194819D01*
X13246059Y2089305D01*
X13246060Y2089304D01*
X13246061Y2089303D01*
X13339397Y2010984D01*
X13453891Y1969312D01*
X13453892Y1969312D01*
X13575732Y1969312D01*
X13575733Y1969312D01*
X13690227Y2010984D01*
X13783563Y2089303D01*
X13789739Y2100000D01*
X19049170Y2100000D01*
X19070328Y1980007D01*
X19131247Y1874493D01*
X19131248Y1874492D01*
X19131249Y1874491D01*
X19224585Y1796172D01*
X19339079Y1754500D01*
X19339080Y1754500D01*
X19460920Y1754500D01*
X19460921Y1754500D01*
X19575415Y1796172D01*
X19668751Y1874491D01*
X19683479Y1900000D01*
X27149170Y1900000D01*
X27170328Y1780007D01*
X27231247Y1674493D01*
X27231248Y1674492D01*
X27231249Y1674491D01*
X27324585Y1596172D01*
X27439079Y1554500D01*
X27439080Y1554500D01*
X27560920Y1554500D01*
X27560921Y1554500D01*
X27675415Y1596172D01*
X27768751Y1674491D01*
X27829672Y1780009D01*
X27850830Y1900000D01*
X27829672Y2019991D01*
X27829671Y2019993D01*
X27829671Y2019994D01*
X27768752Y2125508D01*
X27696525Y2186114D01*
X27679977Y2200000D01*
X31349170Y2200000D01*
X31370328Y2080007D01*
X31431247Y1974493D01*
X31431248Y1974492D01*
X31431249Y1974491D01*
X31524585Y1896172D01*
X31639079Y1854500D01*
X31639080Y1854500D01*
X31760920Y1854500D01*
X31760921Y1854500D01*
X31875415Y1896172D01*
X31968751Y1974491D01*
X32013563Y2052107D01*
X32029671Y2080007D01*
X32029671Y2080008D01*
X32029672Y2080009D01*
X32050830Y2200000D01*
X32029672Y2319991D01*
X32029671Y2319993D01*
X32029671Y2319994D01*
X31968752Y2425508D01*
X31957672Y2434805D01*
X31875415Y2503828D01*
X31760921Y2545500D01*
X31639079Y2545500D01*
X31581832Y2524664D01*
X31524584Y2503828D01*
X31431247Y2425508D01*
X31370328Y2319994D01*
X31349170Y2200000D01*
X27679977Y2200000D01*
X27675415Y2203828D01*
X27560921Y2245500D01*
X27439079Y2245500D01*
X27381832Y2224664D01*
X27324584Y2203828D01*
X27231247Y2125508D01*
X27170328Y2019994D01*
X27149170Y1900000D01*
X19683479Y1900000D01*
X19729672Y1980009D01*
X19750830Y2100000D01*
X19729672Y2219991D01*
X19729671Y2219993D01*
X19729671Y2219994D01*
X19668752Y2325508D01*
X19575415Y2403828D01*
X19515846Y2425509D01*
X19460921Y2445500D01*
X19339079Y2445500D01*
X19309689Y2434803D01*
X19224584Y2403828D01*
X19131247Y2325508D01*
X19070328Y2219994D01*
X19049170Y2100000D01*
X13789739Y2100000D01*
X13833334Y2175509D01*
X13844483Y2194819D01*
X13844483Y2194820D01*
X13844484Y2194821D01*
X13865642Y2314812D01*
X13844484Y2434803D01*
X13844483Y2434805D01*
X13844483Y2434806D01*
X13783564Y2540320D01*
X13690227Y2618640D01*
X13618073Y2644902D01*
X13590423Y2670239D01*
X13588787Y2707706D01*
X13592397Y2715447D01*
X13595021Y2719991D01*
X13629672Y2780009D01*
X13650830Y2900000D01*
X15749170Y2900000D01*
X15770328Y2780007D01*
X15831247Y2674493D01*
X15831248Y2674492D01*
X15831249Y2674491D01*
X15924585Y2596172D01*
X16039079Y2554500D01*
X16039080Y2554500D01*
X16160920Y2554500D01*
X16160921Y2554500D01*
X16275415Y2596172D01*
X16368751Y2674491D01*
X16429672Y2780009D01*
X16450830Y2900000D01*
X16433197Y3000000D01*
X20949170Y3000000D01*
X20970328Y2880007D01*
X21031247Y2774493D01*
X21031248Y2774492D01*
X21031249Y2774491D01*
X21124585Y2696172D01*
X21239079Y2654500D01*
X21239080Y2654500D01*
X21360920Y2654500D01*
X21360921Y2654500D01*
X21475415Y2696172D01*
X21568751Y2774491D01*
X21629672Y2880009D01*
X21650830Y3000000D01*
X21629672Y3119991D01*
X21629671Y3119993D01*
X21629671Y3119994D01*
X21568752Y3225508D01*
X21475415Y3303828D01*
X21431007Y3319991D01*
X21360921Y3345500D01*
X21239079Y3345500D01*
X21181832Y3324664D01*
X21124584Y3303828D01*
X21031247Y3225508D01*
X20970328Y3119994D01*
X20949170Y3000000D01*
X16433197Y3000000D01*
X16429672Y3019991D01*
X16429671Y3019993D01*
X16429671Y3019994D01*
X16368752Y3125508D01*
X16360488Y3132442D01*
X16275415Y3203828D01*
X16160921Y3245500D01*
X16039079Y3245500D01*
X15984728Y3225718D01*
X15924584Y3203828D01*
X15831247Y3125508D01*
X15770328Y3019994D01*
X15749170Y2900000D01*
X13650830Y2900000D01*
X13629672Y3019991D01*
X13629671Y3019993D01*
X13629671Y3019994D01*
X13568752Y3125508D01*
X13560488Y3132442D01*
X13475415Y3203828D01*
X13360921Y3245500D01*
X13239079Y3245500D01*
X13184728Y3225718D01*
X13124584Y3203828D01*
X13031247Y3125508D01*
X12970328Y3019994D01*
X12949170Y2900000D01*
X11208740Y2900000D01*
X11218671Y2931496D01*
X11224711Y2937536D01*
X11268748Y2974488D01*
X11268749Y2974490D01*
X11268751Y2974491D01*
X11329672Y3080009D01*
X11350830Y3200000D01*
X11350829Y3200002D01*
X11350830Y3200003D01*
X11339448Y3264548D01*
X11332978Y3301241D01*
X11341094Y3337854D01*
X11364471Y3355793D01*
X11475415Y3396172D01*
X11475418Y3396175D01*
X11479130Y3398316D01*
X11479651Y3397414D01*
X11510998Y3407301D01*
X11544266Y3389989D01*
X11554989Y3366998D01*
X11556965Y3355794D01*
X11570328Y3280007D01*
X11631247Y3174493D01*
X11631248Y3174492D01*
X11631249Y3174491D01*
X11724585Y3096172D01*
X11839079Y3054500D01*
X11839080Y3054500D01*
X11960920Y3054500D01*
X11960921Y3054500D01*
X12075415Y3096172D01*
X12168751Y3174491D01*
X12198206Y3225508D01*
X12207565Y3241718D01*
X12237318Y3264548D01*
X12274500Y3259653D01*
X12292435Y3241718D01*
X12331247Y3174493D01*
X12331248Y3174492D01*
X12331249Y3174491D01*
X12424585Y3096172D01*
X12539079Y3054500D01*
X12539080Y3054500D01*
X12660920Y3054500D01*
X12660921Y3054500D01*
X12775415Y3096172D01*
X12868751Y3174491D01*
X12915824Y3256024D01*
X12929671Y3280007D01*
X12929671Y3280008D01*
X12929672Y3280009D01*
X12950830Y3400000D01*
X12929672Y3519991D01*
X12929671Y3519993D01*
X12929671Y3519994D01*
X12868752Y3625508D01*
X12863838Y3629631D01*
X12775415Y3703828D01*
X12660921Y3745500D01*
X12539079Y3745500D01*
X12504749Y3733005D01*
X12424584Y3703828D01*
X12331247Y3625508D01*
X12292435Y3558283D01*
X12262682Y3535453D01*
X12225500Y3540348D01*
X12207565Y3558283D01*
X12168752Y3625508D01*
X12163838Y3629631D01*
X12075415Y3703828D01*
X11960921Y3745500D01*
X11839079Y3745500D01*
X11804749Y3733005D01*
X11724586Y3703829D01*
X11720874Y3701685D01*
X11720354Y3702585D01*
X11688986Y3692700D01*
X11655723Y3710023D01*
X11645010Y3733001D01*
X11629672Y3819991D01*
X11615678Y3844229D01*
X11583479Y3900000D01*
X14649170Y3900000D01*
X14670328Y3780007D01*
X14731247Y3674493D01*
X14731248Y3674492D01*
X14731249Y3674491D01*
X14824585Y3596172D01*
X14939079Y3554500D01*
X14939080Y3554500D01*
X15060920Y3554500D01*
X15060921Y3554500D01*
X15175415Y3596172D01*
X15268751Y3674491D01*
X15329672Y3780009D01*
X15350830Y3900000D01*
X18849170Y3900000D01*
X18870328Y3780007D01*
X18931247Y3674493D01*
X18931248Y3674492D01*
X18931249Y3674491D01*
X19024585Y3596172D01*
X19139079Y3554500D01*
X19139080Y3554500D01*
X19260920Y3554500D01*
X19260921Y3554500D01*
X19375415Y3596172D01*
X19468751Y3674491D01*
X19529672Y3780009D01*
X19550830Y3900000D01*
X19529672Y4019991D01*
X19529671Y4019993D01*
X19529671Y4019994D01*
X19468752Y4125508D01*
X19409770Y4175000D01*
X19375415Y4203828D01*
X19260921Y4245500D01*
X19139079Y4245500D01*
X19124056Y4240032D01*
X19024584Y4203828D01*
X18931247Y4125508D01*
X18870328Y4019994D01*
X18849170Y3900000D01*
X15350830Y3900000D01*
X15329672Y4019991D01*
X15329671Y4019993D01*
X15329671Y4019994D01*
X15268752Y4125508D01*
X15209770Y4175000D01*
X15175415Y4203828D01*
X15060921Y4245500D01*
X14939079Y4245500D01*
X14924056Y4240032D01*
X14824584Y4203828D01*
X14731247Y4125508D01*
X14670328Y4019994D01*
X14649170Y3900000D01*
X11583479Y3900000D01*
X11568752Y3925508D01*
X11475415Y4003828D01*
X11431007Y4019991D01*
X11360921Y4045500D01*
X11239079Y4045500D01*
X11229823Y4042131D01*
X11124584Y4003828D01*
X11031247Y3925508D01*
X10970328Y3819994D01*
X10952695Y3719991D01*
X10949170Y3700000D01*
X10967021Y3598760D01*
X10958905Y3562147D01*
X10935525Y3544207D01*
X10824584Y3503828D01*
X10731247Y3425508D01*
X10670328Y3319994D01*
X10649170Y3200000D01*
X3479977Y3200000D01*
X3568751Y3274491D01*
X3615298Y3355112D01*
X3629671Y3380007D01*
X3629671Y3380008D01*
X3629672Y3380009D01*
X3650830Y3500000D01*
X3629672Y3619991D01*
X3629671Y3619993D01*
X3629671Y3619994D01*
X3568752Y3725508D01*
X3475415Y3803828D01*
X3431007Y3819991D01*
X3360921Y3845500D01*
X3239079Y3845500D01*
X3205249Y3833187D01*
X3124584Y3803828D01*
X3031247Y3725508D01*
X2970328Y3619994D01*
X2949170Y3500000D01*
X446743Y3500000D01*
X486761Y3535453D01*
X505560Y3552107D01*
X505560Y3552109D01*
X505563Y3552110D01*
X598059Y3686114D01*
X655798Y3838360D01*
X675425Y4000000D01*
X655798Y4161640D01*
X641250Y4200000D01*
X3499170Y4200000D01*
X3520328Y4080007D01*
X3581247Y3974493D01*
X3581248Y3974492D01*
X3581249Y3974491D01*
X3674585Y3896172D01*
X3789079Y3854500D01*
X3789080Y3854500D01*
X3910920Y3854500D01*
X3910921Y3854500D01*
X4025415Y3896172D01*
X4118751Y3974491D01*
X4179672Y4080009D01*
X4200830Y4200000D01*
X4179672Y4319991D01*
X4179671Y4319993D01*
X4179671Y4319994D01*
X4118752Y4425508D01*
X4092078Y4447890D01*
X4025415Y4503828D01*
X3910921Y4545500D01*
X3789079Y4545500D01*
X3731832Y4524664D01*
X3674584Y4503828D01*
X3581247Y4425508D01*
X3520328Y4319994D01*
X3499170Y4200000D01*
X641250Y4200000D01*
X598059Y4313886D01*
X590388Y4324999D01*
X505564Y4447889D01*
X505560Y4447894D01*
X383683Y4555866D01*
X239510Y4631533D01*
X239509Y4631534D01*
X237764Y4631964D01*
X237115Y4632442D01*
X236739Y4632584D01*
X236778Y4632690D01*
X207562Y4654197D01*
X200500Y4679538D01*
X200500Y4820464D01*
X214852Y4855112D01*
X237778Y4868041D01*
X239509Y4868467D01*
X383685Y4944136D01*
X475537Y5025509D01*
X505560Y5052107D01*
X505560Y5052109D01*
X505563Y5052110D01*
X598059Y5186114D01*
X655798Y5338360D01*
X657211Y5350000D01*
X3999170Y5350000D01*
X4020328Y5230007D01*
X4081247Y5124493D01*
X4081248Y5124492D01*
X4081249Y5124491D01*
X4174585Y5046172D01*
X4289079Y5004500D01*
X4289080Y5004500D01*
X4410920Y5004500D01*
X4410921Y5004500D01*
X4525415Y5046172D01*
X4618751Y5124491D01*
X4679672Y5230009D01*
X4700830Y5350000D01*
X4679672Y5469991D01*
X4679671Y5469993D01*
X4679671Y5469994D01*
X4618752Y5575508D01*
X4613390Y5580007D01*
X4525415Y5653828D01*
X4410921Y5695500D01*
X4289079Y5695500D01*
X4246512Y5680007D01*
X4174584Y5653828D01*
X4081247Y5575508D01*
X4020328Y5469994D01*
X3999170Y5350000D01*
X657211Y5350000D01*
X675425Y5500000D01*
X655798Y5661640D01*
X598059Y5813886D01*
X576237Y5845500D01*
X573131Y5850000D01*
X4949170Y5850000D01*
X4970328Y5730007D01*
X5031247Y5624493D01*
X5031248Y5624492D01*
X5031249Y5624491D01*
X5124585Y5546172D01*
X5239079Y5504500D01*
X5239080Y5504500D01*
X5360920Y5504500D01*
X5360921Y5504500D01*
X5475415Y5546172D01*
X5568751Y5624491D01*
X5614556Y5703828D01*
X5629671Y5730007D01*
X5629671Y5730008D01*
X5629672Y5730009D01*
X5642014Y5800000D01*
X11149170Y5800000D01*
X11170328Y5680007D01*
X11231247Y5574493D01*
X11231248Y5574492D01*
X11231249Y5574491D01*
X11324585Y5496172D01*
X11439079Y5454500D01*
X11439080Y5454500D01*
X11560920Y5454500D01*
X11560921Y5454500D01*
X11675415Y5496172D01*
X11679977Y5500000D01*
X13049170Y5500000D01*
X13070328Y5380007D01*
X13131247Y5274493D01*
X13131248Y5274492D01*
X13131249Y5274491D01*
X13224585Y5196172D01*
X13284154Y5174491D01*
X13291336Y5171877D01*
X13318986Y5146541D01*
X13320622Y5109073D01*
X13306074Y5088296D01*
X13231247Y5025508D01*
X13170328Y4919994D01*
X13149170Y4800000D01*
X13170328Y4680007D01*
X13231247Y4574493D01*
X13231248Y4574492D01*
X13231249Y4574491D01*
X13324585Y4496172D01*
X13439079Y4454500D01*
X13439080Y4454500D01*
X13560920Y4454500D01*
X13560921Y4454500D01*
X13675415Y4496172D01*
X13768751Y4574491D01*
X13829672Y4680009D01*
X13850830Y4800000D01*
X13829672Y4919991D01*
X13829671Y4919993D01*
X13829671Y4919994D01*
X13768752Y5025508D01*
X13675415Y5103828D01*
X13608663Y5128124D01*
X13581013Y5153461D01*
X13579377Y5190928D01*
X13593923Y5211703D01*
X13668751Y5274491D01*
X13729672Y5380009D01*
X13733197Y5400000D01*
X15449170Y5400000D01*
X15470328Y5280007D01*
X15531247Y5174493D01*
X15531248Y5174492D01*
X15531249Y5174491D01*
X15624585Y5096172D01*
X15739079Y5054500D01*
X15739080Y5054500D01*
X15860920Y5054500D01*
X15860921Y5054500D01*
X15975415Y5096172D01*
X16068751Y5174491D01*
X16129672Y5280009D01*
X16150830Y5400000D01*
X16129672Y5519991D01*
X16129671Y5519993D01*
X16129671Y5519994D01*
X16068752Y5625508D01*
X15979977Y5700000D01*
X20549170Y5700000D01*
X20570328Y5580007D01*
X20631247Y5474493D01*
X20631248Y5474492D01*
X20631249Y5474491D01*
X20636612Y5469991D01*
X20724585Y5396172D01*
X20724935Y5396044D01*
X20725155Y5395843D01*
X20728296Y5394029D01*
X20727893Y5393333D01*
X20752584Y5370706D01*
X20754218Y5333239D01*
X20728880Y5305590D01*
X20724935Y5303956D01*
X20724585Y5303829D01*
X20631247Y5225508D01*
X20570328Y5119994D01*
X20549170Y5000000D01*
X20570328Y4880007D01*
X20631247Y4774493D01*
X20631248Y4774492D01*
X20631249Y4774491D01*
X20674089Y4738544D01*
X20675290Y4737536D01*
X20692607Y4704270D01*
X20681329Y4668503D01*
X20675290Y4662464D01*
X20631247Y4625508D01*
X20570328Y4519994D01*
X20549170Y4400000D01*
X20570328Y4280007D01*
X20631247Y4174493D01*
X20675290Y4137536D01*
X20692607Y4104270D01*
X20681329Y4068503D01*
X20675290Y4062464D01*
X20631247Y4025508D01*
X20570328Y3919994D01*
X20549170Y3800000D01*
X20570328Y3680007D01*
X20631247Y3574493D01*
X20631248Y3574492D01*
X20631249Y3574491D01*
X20724585Y3496172D01*
X20839079Y3454500D01*
X20839080Y3454500D01*
X20960920Y3454500D01*
X20960921Y3454500D01*
X21075415Y3496172D01*
X21168751Y3574491D01*
X21229672Y3680009D01*
X21250830Y3800000D01*
X21229672Y3919991D01*
X21229671Y3919993D01*
X21229671Y3919994D01*
X21168752Y4025508D01*
X21168748Y4025513D01*
X21124711Y4062464D01*
X21107393Y4095729D01*
X21118671Y4131496D01*
X21124711Y4137536D01*
X21168748Y4174488D01*
X21168749Y4174490D01*
X21168751Y4174491D01*
X21229672Y4280009D01*
X21237606Y4325002D01*
X21770373Y4325002D01*
X21770373Y4324999D01*
X21788789Y4196916D01*
X21842541Y4079215D01*
X21842545Y4079208D01*
X21856749Y4062816D01*
X22079128Y4285196D01*
X22097836Y4240032D01*
X22140032Y4197836D01*
X22185194Y4179129D01*
X21963930Y3957865D01*
X22035388Y3911941D01*
X22056777Y3881136D01*
X22050118Y3844229D01*
X22040397Y3833187D01*
X22031249Y3825510D01*
X22031247Y3825508D01*
X21970328Y3719994D01*
X21949170Y3600000D01*
X21970328Y3480007D01*
X22031247Y3374493D01*
X22031248Y3374492D01*
X22031249Y3374491D01*
X22124585Y3296172D01*
X22191565Y3271794D01*
X22219215Y3246458D01*
X22220851Y3208990D01*
X22217241Y3201249D01*
X22170328Y3119994D01*
X22149170Y3000000D01*
X22170328Y2880007D01*
X22231247Y2774493D01*
X22231248Y2774492D01*
X22231249Y2774491D01*
X22324585Y2696172D01*
X22439079Y2654500D01*
X22439080Y2654500D01*
X22560920Y2654500D01*
X22560921Y2654500D01*
X22675415Y2696172D01*
X22768505Y2774285D01*
X22804270Y2785562D01*
X22831494Y2774286D01*
X22924585Y2696172D01*
X23039079Y2654500D01*
X23039080Y2654500D01*
X23160920Y2654500D01*
X23160921Y2654500D01*
X23275415Y2696172D01*
X23327226Y2739648D01*
X23362992Y2750925D01*
X23396258Y2733608D01*
X23401157Y2726611D01*
X23431247Y2674493D01*
X23431248Y2674492D01*
X23431249Y2674491D01*
X23524585Y2596172D01*
X23639079Y2554500D01*
X23639080Y2554500D01*
X23760920Y2554500D01*
X23760921Y2554500D01*
X23875415Y2596172D01*
X23968751Y2674491D01*
X24029672Y2780009D01*
X24050830Y2900000D01*
X24149170Y2900000D01*
X24170328Y2780007D01*
X24231247Y2674493D01*
X24231248Y2674492D01*
X24231249Y2674491D01*
X24324585Y2596172D01*
X24439079Y2554500D01*
X24439080Y2554500D01*
X24560920Y2554500D01*
X24560921Y2554500D01*
X24675415Y2596172D01*
X24768751Y2674491D01*
X24815234Y2755001D01*
X32672183Y2755001D01*
X32672184Y2755000D01*
X33029513Y2755000D01*
X33020000Y2719496D01*
X33020000Y2640504D01*
X33029513Y2605000D01*
X32672183Y2605000D01*
X32694976Y2490414D01*
X32694980Y2490399D01*
X32743976Y2372114D01*
X32815112Y2265649D01*
X32905648Y2175113D01*
X33012113Y2103977D01*
X33130398Y2054981D01*
X33130404Y2054979D01*
X33255984Y2030000D01*
X33795000Y2030000D01*
X33795000Y2380000D01*
X33945000Y2380000D01*
X33945000Y2030000D01*
X34484016Y2030000D01*
X34609595Y2054979D01*
X34609601Y2054981D01*
X34727886Y2103977D01*
X34834351Y2175113D01*
X34924887Y2265649D01*
X34996023Y2372114D01*
X35045019Y2490399D01*
X35045023Y2490414D01*
X35067816Y2605000D01*
X34710487Y2605000D01*
X34720000Y2640504D01*
X34720000Y2719496D01*
X34710487Y2755000D01*
X35067816Y2755000D01*
X35067816Y2755001D01*
X37102183Y2755001D01*
X37102184Y2755000D01*
X37459513Y2755000D01*
X37450000Y2719496D01*
X37450000Y2640504D01*
X37459513Y2605000D01*
X37102183Y2605000D01*
X37124976Y2490414D01*
X37124980Y2490399D01*
X37173976Y2372114D01*
X37245112Y2265649D01*
X37335648Y2175113D01*
X37442113Y2103977D01*
X37560398Y2054981D01*
X37560404Y2054979D01*
X37685984Y2030000D01*
X37975000Y2030000D01*
X37975000Y2380000D01*
X38125000Y2380000D01*
X38125000Y2030000D01*
X38414016Y2030000D01*
X38539595Y2054979D01*
X38539601Y2054981D01*
X38657886Y2103977D01*
X38764351Y2175113D01*
X38854887Y2265649D01*
X38926023Y2372114D01*
X38975019Y2490399D01*
X38975023Y2490414D01*
X38997816Y2605000D01*
X38640487Y2605000D01*
X38650000Y2640504D01*
X38650000Y2719496D01*
X38640487Y2755000D01*
X38997816Y2755000D01*
X38997816Y2755001D01*
X38975023Y2869587D01*
X38975019Y2869602D01*
X38926023Y2987887D01*
X38854887Y3094352D01*
X38764351Y3184888D01*
X38657886Y3256024D01*
X38539601Y3305020D01*
X38539595Y3305022D01*
X38414016Y3330000D01*
X38125000Y3330000D01*
X38125000Y2980000D01*
X37975000Y2980000D01*
X37975000Y3330000D01*
X37685984Y3330000D01*
X37560404Y3305022D01*
X37560398Y3305020D01*
X37442113Y3256024D01*
X37335648Y3184888D01*
X37245112Y3094352D01*
X37173976Y2987887D01*
X37124980Y2869602D01*
X37124976Y2869587D01*
X37102183Y2755001D01*
X35067816Y2755001D01*
X35045023Y2869587D01*
X35045019Y2869602D01*
X34996023Y2987887D01*
X34924887Y3094352D01*
X34834351Y3184888D01*
X34727886Y3256024D01*
X34609601Y3305020D01*
X34609595Y3305022D01*
X34484016Y3330000D01*
X33945000Y3330000D01*
X33945000Y2980000D01*
X33795000Y2980000D01*
X33795000Y3330000D01*
X33255984Y3330000D01*
X33130404Y3305022D01*
X33130398Y3305020D01*
X33012113Y3256024D01*
X32905648Y3184888D01*
X32815112Y3094352D01*
X32743976Y2987887D01*
X32694980Y2869602D01*
X32694976Y2869587D01*
X32672183Y2755001D01*
X24815234Y2755001D01*
X24829672Y2780009D01*
X24850830Y2900000D01*
X24829672Y3019991D01*
X24829671Y3019993D01*
X24829671Y3019994D01*
X24768752Y3125508D01*
X24760488Y3132442D01*
X24675415Y3203828D01*
X24560921Y3245500D01*
X24439079Y3245500D01*
X24384728Y3225718D01*
X24324584Y3203828D01*
X24231247Y3125508D01*
X24170328Y3019994D01*
X24149170Y2900000D01*
X24050830Y2900000D01*
X24029672Y3019991D01*
X24029671Y3019993D01*
X24029671Y3019994D01*
X23968752Y3125508D01*
X23960488Y3132442D01*
X23875415Y3203828D01*
X23760921Y3245500D01*
X23639079Y3245500D01*
X23584728Y3225718D01*
X23524584Y3203828D01*
X23472774Y3160354D01*
X23437006Y3149076D01*
X23403741Y3166393D01*
X23398842Y3173390D01*
X23368752Y3225508D01*
X23275415Y3303828D01*
X23231007Y3319991D01*
X23160921Y3345500D01*
X23039079Y3345500D01*
X22981832Y3324664D01*
X22924584Y3303828D01*
X22831497Y3225718D01*
X22795729Y3214440D01*
X22768503Y3225718D01*
X22675415Y3303828D01*
X22608434Y3328207D01*
X22580784Y3353544D01*
X22579148Y3391011D01*
X22582758Y3398752D01*
X22629671Y3480007D01*
X22629671Y3480008D01*
X22629672Y3480009D01*
X22650830Y3600000D01*
X22629672Y3719991D01*
X22629671Y3719993D01*
X22629671Y3719994D01*
X22583479Y3800000D01*
X25749170Y3800000D01*
X25770328Y3680007D01*
X25831247Y3574493D01*
X25831248Y3574492D01*
X25831249Y3574491D01*
X25924585Y3496172D01*
X26039079Y3454500D01*
X26039080Y3454500D01*
X26160920Y3454500D01*
X26160921Y3454500D01*
X26275415Y3496172D01*
X26368751Y3574491D01*
X26429672Y3680009D01*
X26450830Y3800000D01*
X26429672Y3919991D01*
X26429671Y3919993D01*
X26429671Y3919994D01*
X26368752Y4025508D01*
X26324289Y4062817D01*
X26275415Y4103828D01*
X26160921Y4145500D01*
X26039079Y4145500D01*
X26017198Y4137536D01*
X25924584Y4103828D01*
X25831247Y4025508D01*
X25770328Y3919994D01*
X25749170Y3800000D01*
X22583479Y3800000D01*
X22568752Y3825508D01*
X22553436Y3838360D01*
X22494546Y3887775D01*
X22477230Y3921040D01*
X22484634Y3944523D01*
X22486069Y3957865D01*
X22264805Y4179129D01*
X22309968Y4197836D01*
X22352164Y4240032D01*
X22370870Y4285195D01*
X22593249Y4062816D01*
X22593250Y4062817D01*
X22607454Y4079208D01*
X22607458Y4079214D01*
X22661210Y4196916D01*
X22679627Y4324999D01*
X22679627Y4325002D01*
X23045373Y4325002D01*
X23045373Y4324999D01*
X23063789Y4196916D01*
X23117541Y4079215D01*
X23117545Y4079208D01*
X23131749Y4062816D01*
X23354128Y4285196D01*
X23372836Y4240032D01*
X23415032Y4197836D01*
X23460194Y4179129D01*
X23238930Y3957865D01*
X23311142Y3911456D01*
X23435298Y3875001D01*
X23435305Y3875000D01*
X23564695Y3875000D01*
X23564701Y3875001D01*
X23688858Y3911457D01*
X23761068Y3957866D01*
X23539805Y4179129D01*
X23584968Y4197836D01*
X23627164Y4240032D01*
X23645871Y4285195D01*
X23868249Y4062816D01*
X23868250Y4062817D01*
X23882454Y4079208D01*
X23882458Y4079214D01*
X23936210Y4196916D01*
X23954627Y4324999D01*
X23954627Y4325002D01*
X24320373Y4325002D01*
X24320373Y4324999D01*
X24338789Y4196916D01*
X24392541Y4079215D01*
X24392545Y4079208D01*
X24406749Y4062816D01*
X24629128Y4285196D01*
X24647836Y4240032D01*
X24690032Y4197836D01*
X24735194Y4179129D01*
X24513930Y3957865D01*
X24586142Y3911456D01*
X24710298Y3875001D01*
X24710305Y3875000D01*
X24839695Y3875000D01*
X24839701Y3875001D01*
X24963858Y3911457D01*
X25036068Y3957866D01*
X24814805Y4179129D01*
X24859968Y4197836D01*
X24902164Y4240032D01*
X24920871Y4285195D01*
X25143249Y4062816D01*
X25143250Y4062817D01*
X25157454Y4079208D01*
X25157458Y4079214D01*
X25202512Y4177870D01*
X33884500Y4177870D01*
X33884500Y4042131D01*
X33919629Y3911029D01*
X33919631Y3911023D01*
X33981521Y3803828D01*
X33987498Y3793476D01*
X34083476Y3697498D01*
X34113768Y3680009D01*
X34201022Y3629632D01*
X34201028Y3629630D01*
X34332130Y3594500D01*
X34332133Y3594500D01*
X34467869Y3594500D01*
X34598971Y3629630D01*
X34598969Y3629630D01*
X34598975Y3629631D01*
X34716524Y3697498D01*
X34812502Y3793476D01*
X34880369Y3911025D01*
X34897376Y3974493D01*
X34915500Y4042131D01*
X34915500Y4177870D01*
X34880370Y4308972D01*
X34880368Y4308978D01*
X34837342Y4383500D01*
X34812502Y4426524D01*
X34716524Y4522502D01*
X34598977Y4590369D01*
X34598971Y4590371D01*
X34467870Y4625500D01*
X34467867Y4625500D01*
X34332133Y4625500D01*
X34332130Y4625500D01*
X34201028Y4590371D01*
X34201022Y4590369D01*
X34083475Y4522502D01*
X34083475Y4522501D01*
X33987499Y4426525D01*
X33987498Y4426525D01*
X33919631Y4308978D01*
X33919629Y4308972D01*
X33884500Y4177870D01*
X25202512Y4177870D01*
X25211210Y4196916D01*
X25229627Y4324999D01*
X25229627Y4325002D01*
X25211210Y4453085D01*
X25157458Y4570786D01*
X25157454Y4570793D01*
X25143249Y4587186D01*
X24920870Y4364807D01*
X24902164Y4409968D01*
X24859968Y4452164D01*
X24814805Y4470871D01*
X24943933Y4600000D01*
X29449170Y4600000D01*
X29470328Y4480007D01*
X29531247Y4374493D01*
X29531248Y4374492D01*
X29531249Y4374491D01*
X29624585Y4296172D01*
X29739079Y4254500D01*
X29739080Y4254500D01*
X29860920Y4254500D01*
X29860921Y4254500D01*
X29975415Y4296172D01*
X30068751Y4374491D01*
X30101415Y4431066D01*
X30129671Y4480007D01*
X30129671Y4480008D01*
X30129672Y4480009D01*
X30150830Y4600000D01*
X30129672Y4719991D01*
X30129671Y4719993D01*
X30129671Y4719994D01*
X30068752Y4825508D01*
X30029013Y4858853D01*
X29975415Y4903828D01*
X29860921Y4945500D01*
X29739079Y4945500D01*
X29681832Y4924664D01*
X29624584Y4903828D01*
X29531247Y4825508D01*
X29470328Y4719994D01*
X29449170Y4600000D01*
X24943933Y4600000D01*
X25036069Y4692136D01*
X24963857Y4738545D01*
X24839701Y4775000D01*
X24710298Y4775000D01*
X24586141Y4738544D01*
X24586140Y4738544D01*
X24513930Y4692137D01*
X24513930Y4692136D01*
X24735194Y4470872D01*
X24690032Y4452164D01*
X24647836Y4409968D01*
X24629128Y4364806D01*
X24406749Y4587185D01*
X24406748Y4587185D01*
X24392544Y4570791D01*
X24392542Y4570788D01*
X24338789Y4453085D01*
X24320373Y4325002D01*
X23954627Y4325002D01*
X23936210Y4453085D01*
X23882458Y4570786D01*
X23882454Y4570793D01*
X23868249Y4587186D01*
X23645870Y4364807D01*
X23627164Y4409968D01*
X23584968Y4452164D01*
X23539805Y4470871D01*
X23761069Y4692136D01*
X23688857Y4738545D01*
X23564701Y4775000D01*
X23435298Y4775000D01*
X23311141Y4738544D01*
X23311140Y4738544D01*
X23238930Y4692137D01*
X23238930Y4692136D01*
X23460194Y4470872D01*
X23415032Y4452164D01*
X23372836Y4409968D01*
X23354128Y4364806D01*
X23131749Y4587185D01*
X23131748Y4587185D01*
X23117544Y4570791D01*
X23117542Y4570788D01*
X23063789Y4453085D01*
X23045373Y4325002D01*
X22679627Y4325002D01*
X22661210Y4453085D01*
X22607458Y4570786D01*
X22607454Y4570793D01*
X22593249Y4587186D01*
X22370870Y4364807D01*
X22352164Y4409968D01*
X22309968Y4452164D01*
X22264805Y4470871D01*
X22486069Y4692136D01*
X22413857Y4738545D01*
X22289701Y4775000D01*
X22160298Y4775000D01*
X22036141Y4738544D01*
X22036140Y4738544D01*
X21963930Y4692137D01*
X21963930Y4692136D01*
X22185194Y4470872D01*
X22140032Y4452164D01*
X22097836Y4409968D01*
X22079128Y4364806D01*
X21856749Y4587185D01*
X21856748Y4587185D01*
X21842544Y4570791D01*
X21842542Y4570788D01*
X21788789Y4453085D01*
X21770373Y4325002D01*
X21237606Y4325002D01*
X21250830Y4400000D01*
X21229672Y4519991D01*
X21229671Y4519993D01*
X21229671Y4519994D01*
X21168752Y4625508D01*
X21168748Y4625513D01*
X21124711Y4662464D01*
X21107393Y4695729D01*
X21118671Y4731496D01*
X21124711Y4737536D01*
X21168748Y4774488D01*
X21168749Y4774490D01*
X21168751Y4774491D01*
X21217458Y4858853D01*
X21229671Y4880007D01*
X21229671Y4880008D01*
X21229672Y4880009D01*
X21250830Y5000000D01*
X21229672Y5119991D01*
X21229671Y5119993D01*
X21229671Y5119994D01*
X21168752Y5225508D01*
X21163390Y5230007D01*
X21110375Y5274493D01*
X21075414Y5303829D01*
X21075067Y5303955D01*
X21074847Y5304157D01*
X21071704Y5305971D01*
X21072106Y5306668D01*
X21047416Y5329291D01*
X21045780Y5366758D01*
X21071116Y5394409D01*
X21075067Y5396045D01*
X21075234Y5396107D01*
X21075415Y5396172D01*
X21168751Y5474491D01*
X21214944Y5554500D01*
X21229671Y5580007D01*
X21229671Y5580008D01*
X21229672Y5580009D01*
X21233197Y5600002D01*
X21770373Y5600002D01*
X21770373Y5599999D01*
X21788789Y5471916D01*
X21842541Y5354215D01*
X21842545Y5354208D01*
X21856749Y5337816D01*
X22079128Y5560196D01*
X22097836Y5515032D01*
X22140032Y5472836D01*
X22185194Y5454130D01*
X21963929Y5232865D01*
X22036142Y5186456D01*
X22160298Y5150001D01*
X22160305Y5150000D01*
X22289695Y5150000D01*
X22289701Y5150001D01*
X22413858Y5186457D01*
X22486068Y5232866D01*
X22264805Y5454129D01*
X22309968Y5472836D01*
X22352164Y5515032D01*
X22370870Y5560195D01*
X22593249Y5337816D01*
X22593250Y5337817D01*
X22607454Y5354208D01*
X22607458Y5354214D01*
X22661210Y5471916D01*
X22679627Y5599999D01*
X22679627Y5600002D01*
X23045373Y5600002D01*
X23045373Y5599999D01*
X23063789Y5471916D01*
X23117541Y5354215D01*
X23117545Y5354208D01*
X23131749Y5337816D01*
X23354128Y5560196D01*
X23372836Y5515032D01*
X23415032Y5472836D01*
X23460194Y5454130D01*
X23238929Y5232865D01*
X23311142Y5186456D01*
X23435298Y5150001D01*
X23435305Y5150000D01*
X23564695Y5150000D01*
X23564701Y5150001D01*
X23688858Y5186457D01*
X23761068Y5232866D01*
X23539805Y5454129D01*
X23584968Y5472836D01*
X23627164Y5515032D01*
X23645871Y5560195D01*
X23868249Y5337816D01*
X23868250Y5337817D01*
X23882454Y5354208D01*
X23882458Y5354214D01*
X23936210Y5471916D01*
X23954627Y5599999D01*
X23954627Y5600002D01*
X24320373Y5600002D01*
X24320373Y5599999D01*
X24338789Y5471916D01*
X24392541Y5354215D01*
X24392545Y5354208D01*
X24406749Y5337816D01*
X24629128Y5560196D01*
X24647836Y5515032D01*
X24690032Y5472836D01*
X24735194Y5454130D01*
X24513929Y5232865D01*
X24586142Y5186456D01*
X24710298Y5150001D01*
X24710305Y5150000D01*
X24839695Y5150000D01*
X24839701Y5150001D01*
X24963858Y5186457D01*
X25036068Y5232866D01*
X24814805Y5454129D01*
X24859968Y5472836D01*
X24902164Y5515032D01*
X24920871Y5560195D01*
X25143249Y5337816D01*
X25143250Y5337817D01*
X25157454Y5354208D01*
X25157458Y5354214D01*
X25178367Y5400000D01*
X31449170Y5400000D01*
X31470328Y5280007D01*
X31531247Y5174493D01*
X31531248Y5174492D01*
X31531249Y5174491D01*
X31624585Y5096172D01*
X31739079Y5054500D01*
X31739080Y5054500D01*
X31860920Y5054500D01*
X31860921Y5054500D01*
X31975415Y5096172D01*
X32068751Y5174491D01*
X32129672Y5280009D01*
X32150830Y5400000D01*
X32129672Y5519991D01*
X32129671Y5519993D01*
X32129671Y5519994D01*
X32068752Y5625508D01*
X31975415Y5703828D01*
X31911299Y5727164D01*
X31860921Y5745500D01*
X31739079Y5745500D01*
X31696512Y5730007D01*
X31624584Y5703828D01*
X31531247Y5625508D01*
X31470328Y5519994D01*
X31449170Y5400000D01*
X25178367Y5400000D01*
X25211210Y5471916D01*
X25229627Y5599999D01*
X25229627Y5600002D01*
X25211210Y5728085D01*
X25178368Y5800000D01*
X25749170Y5800000D01*
X25770328Y5680007D01*
X25831247Y5574493D01*
X25831248Y5574492D01*
X25831249Y5574491D01*
X25924585Y5496172D01*
X26039079Y5454500D01*
X26039080Y5454500D01*
X26160920Y5454500D01*
X26160921Y5454500D01*
X26275415Y5496172D01*
X26368751Y5574491D01*
X26429672Y5680009D01*
X26450830Y5800000D01*
X26429672Y5919991D01*
X26429671Y5919993D01*
X26429671Y5919994D01*
X26368752Y6025508D01*
X26275415Y6103828D01*
X26227762Y6121172D01*
X26160921Y6145500D01*
X26039079Y6145500D01*
X26000705Y6131533D01*
X25924584Y6103828D01*
X25831247Y6025508D01*
X25770328Y5919994D01*
X25749170Y5800000D01*
X25178368Y5800000D01*
X25157458Y5845786D01*
X25157454Y5845793D01*
X25143249Y5862186D01*
X24920870Y5639807D01*
X24902164Y5684968D01*
X24859968Y5727164D01*
X24814805Y5745871D01*
X25036069Y5967136D01*
X24963857Y6013545D01*
X24839701Y6050000D01*
X24710298Y6050000D01*
X24586141Y6013544D01*
X24586140Y6013544D01*
X24513930Y5967137D01*
X24513930Y5967136D01*
X24735194Y5745872D01*
X24690032Y5727164D01*
X24647836Y5684968D01*
X24629128Y5639806D01*
X24406749Y5862185D01*
X24406748Y5862185D01*
X24392544Y5845791D01*
X24392542Y5845788D01*
X24338789Y5728085D01*
X24320373Y5600002D01*
X23954627Y5600002D01*
X23936210Y5728085D01*
X23882458Y5845786D01*
X23882454Y5845793D01*
X23868249Y5862186D01*
X23645870Y5639807D01*
X23627164Y5684968D01*
X23584968Y5727164D01*
X23539805Y5745871D01*
X23761069Y5967136D01*
X23688857Y6013545D01*
X23564701Y6050000D01*
X23435298Y6050000D01*
X23311141Y6013544D01*
X23311140Y6013544D01*
X23238930Y5967137D01*
X23238930Y5967136D01*
X23460194Y5745872D01*
X23415032Y5727164D01*
X23372836Y5684968D01*
X23354128Y5639806D01*
X23131749Y5862185D01*
X23131748Y5862185D01*
X23117544Y5845791D01*
X23117542Y5845788D01*
X23063789Y5728085D01*
X23045373Y5600002D01*
X22679627Y5600002D01*
X22661210Y5728085D01*
X22607458Y5845786D01*
X22607454Y5845793D01*
X22593249Y5862186D01*
X22370870Y5639807D01*
X22352164Y5684968D01*
X22309968Y5727164D01*
X22264805Y5745871D01*
X22486069Y5967136D01*
X22413857Y6013545D01*
X22289701Y6050000D01*
X22160298Y6050000D01*
X22036141Y6013544D01*
X22036140Y6013544D01*
X21963930Y5967137D01*
X21963930Y5967136D01*
X22185194Y5745872D01*
X22140032Y5727164D01*
X22097836Y5684968D01*
X22079128Y5639806D01*
X21856749Y5862185D01*
X21856748Y5862185D01*
X21842544Y5845791D01*
X21842542Y5845788D01*
X21788789Y5728085D01*
X21770373Y5600002D01*
X21233197Y5600002D01*
X21250830Y5700000D01*
X21229672Y5819991D01*
X21229671Y5819993D01*
X21229671Y5819994D01*
X21168752Y5925508D01*
X21142078Y5947890D01*
X21075415Y6003828D01*
X20960921Y6045500D01*
X20839079Y6045500D01*
X20784154Y6025509D01*
X20724584Y6003828D01*
X20631247Y5925508D01*
X20570328Y5819994D01*
X20549170Y5700000D01*
X15979977Y5700000D01*
X15975415Y5703828D01*
X15911299Y5727164D01*
X15860921Y5745500D01*
X15739079Y5745500D01*
X15696512Y5730007D01*
X15624584Y5703828D01*
X15531247Y5625508D01*
X15470328Y5519994D01*
X15449170Y5400000D01*
X13733197Y5400000D01*
X13750830Y5500000D01*
X13729672Y5619991D01*
X13729671Y5619993D01*
X13729671Y5619994D01*
X13668752Y5725508D01*
X13666778Y5727164D01*
X13575415Y5803828D01*
X13460921Y5845500D01*
X13339079Y5845500D01*
X13281832Y5824664D01*
X13224584Y5803828D01*
X13131247Y5725508D01*
X13070328Y5619994D01*
X13049170Y5500000D01*
X11679977Y5500000D01*
X11768751Y5574491D01*
X11829672Y5680009D01*
X11850830Y5800000D01*
X11833197Y5900000D01*
X12149170Y5900000D01*
X12170328Y5780007D01*
X12231247Y5674493D01*
X12231248Y5674492D01*
X12231249Y5674491D01*
X12324585Y5596172D01*
X12439079Y5554500D01*
X12439080Y5554500D01*
X12560920Y5554500D01*
X12560921Y5554500D01*
X12675415Y5596172D01*
X12768751Y5674491D01*
X12829672Y5780009D01*
X12850830Y5900000D01*
X12829672Y6019991D01*
X12829671Y6019993D01*
X12829671Y6019994D01*
X12768752Y6125508D01*
X12760488Y6132442D01*
X12675415Y6203828D01*
X12560921Y6245500D01*
X12439079Y6245500D01*
X12381832Y6224664D01*
X12324584Y6203828D01*
X12231247Y6125508D01*
X12170328Y6019994D01*
X12149170Y5900000D01*
X11833197Y5900000D01*
X11829672Y5919991D01*
X11829671Y5919993D01*
X11829671Y5919994D01*
X11768752Y6025508D01*
X11675415Y6103828D01*
X11627762Y6121172D01*
X11560921Y6145500D01*
X11439079Y6145500D01*
X11400705Y6131533D01*
X11324584Y6103828D01*
X11231247Y6025508D01*
X11170328Y5919994D01*
X11149170Y5800000D01*
X5642014Y5800000D01*
X5650830Y5850000D01*
X5629672Y5969991D01*
X5629671Y5969993D01*
X5629671Y5969994D01*
X5568752Y6075508D01*
X5514332Y6121172D01*
X5475415Y6153828D01*
X5360921Y6195500D01*
X5239079Y6195500D01*
X5181832Y6174664D01*
X5124584Y6153828D01*
X5031247Y6075508D01*
X4970328Y5969994D01*
X4949170Y5850000D01*
X573131Y5850000D01*
X505564Y5947889D01*
X505560Y5947894D01*
X383683Y6055866D01*
X239510Y6131533D01*
X239509Y6131534D01*
X237764Y6131964D01*
X237115Y6132442D01*
X236739Y6132584D01*
X236778Y6132690D01*
X207562Y6154197D01*
X200500Y6179538D01*
X200500Y6320464D01*
X214852Y6355112D01*
X237778Y6368041D01*
X239509Y6368467D01*
X299591Y6400000D01*
X8449170Y6400000D01*
X8470328Y6280007D01*
X8531247Y6174493D01*
X8531248Y6174492D01*
X8531249Y6174491D01*
X8624585Y6096172D01*
X8739079Y6054500D01*
X8739080Y6054500D01*
X8860920Y6054500D01*
X8860921Y6054500D01*
X8975415Y6096172D01*
X9068751Y6174491D01*
X9129672Y6280009D01*
X9150830Y6400000D01*
X9146422Y6425000D01*
X9449170Y6425000D01*
X9470328Y6305007D01*
X9531247Y6199493D01*
X9531248Y6199492D01*
X9531249Y6199491D01*
X9624585Y6121172D01*
X9739079Y6079500D01*
X9739080Y6079500D01*
X9860920Y6079500D01*
X9860921Y6079500D01*
X9975415Y6121172D01*
X10068751Y6199491D01*
X10129672Y6305009D01*
X10146422Y6400000D01*
X16549170Y6400000D01*
X16570328Y6280007D01*
X16631247Y6174493D01*
X16631248Y6174492D01*
X16631249Y6174491D01*
X16724585Y6096172D01*
X16839079Y6054500D01*
X16839080Y6054500D01*
X16960920Y6054500D01*
X16960921Y6054500D01*
X17075415Y6096172D01*
X17168751Y6174491D01*
X17229672Y6280009D01*
X17250830Y6400000D01*
X17229672Y6519991D01*
X17229671Y6519993D01*
X17229671Y6519994D01*
X17168752Y6625508D01*
X17164335Y6629214D01*
X17075415Y6703828D01*
X16960921Y6745500D01*
X16839079Y6745500D01*
X16793273Y6728828D01*
X16724584Y6703828D01*
X16631247Y6625508D01*
X16570328Y6519994D01*
X16549170Y6400000D01*
X10146422Y6400000D01*
X10150830Y6425000D01*
X10129672Y6544991D01*
X10129671Y6544993D01*
X10129671Y6544994D01*
X10068752Y6650508D01*
X10005208Y6703828D01*
X9975415Y6728828D01*
X9860921Y6770500D01*
X9739079Y6770500D01*
X9681832Y6749664D01*
X9624584Y6728828D01*
X9531247Y6650508D01*
X9470328Y6544994D01*
X9449170Y6425000D01*
X9146422Y6425000D01*
X9129672Y6519991D01*
X9129671Y6519993D01*
X9129671Y6519994D01*
X9068752Y6625508D01*
X9064335Y6629214D01*
X8975415Y6703828D01*
X8860921Y6745500D01*
X8739079Y6745500D01*
X8693273Y6728828D01*
X8624584Y6703828D01*
X8531247Y6625508D01*
X8470328Y6519994D01*
X8449170Y6400000D01*
X299591Y6400000D01*
X383683Y6444135D01*
X383682Y6444135D01*
X383685Y6444136D01*
X469311Y6519994D01*
X505560Y6552107D01*
X505560Y6552109D01*
X505563Y6552110D01*
X598059Y6686114D01*
X655798Y6838360D01*
X663283Y6900000D01*
X11179170Y6900000D01*
X11200328Y6780007D01*
X11261247Y6674493D01*
X11261248Y6674492D01*
X11261249Y6674491D01*
X11354585Y6596172D01*
X11469079Y6554500D01*
X11469080Y6554500D01*
X11590920Y6554500D01*
X11590921Y6554500D01*
X11705415Y6596172D01*
X11798751Y6674491D01*
X11859672Y6780009D01*
X11876422Y6875002D01*
X21770373Y6875002D01*
X21770373Y6874999D01*
X21788789Y6746916D01*
X21842541Y6629215D01*
X21842545Y6629208D01*
X21856749Y6612816D01*
X22079128Y6835196D01*
X22097836Y6790032D01*
X22140032Y6747836D01*
X22185194Y6729129D01*
X21963930Y6507865D01*
X22036142Y6461456D01*
X22160298Y6425001D01*
X22160305Y6425000D01*
X22289695Y6425000D01*
X22289701Y6425001D01*
X22413858Y6461457D01*
X22486068Y6507866D01*
X22264805Y6729129D01*
X22309968Y6747836D01*
X22352164Y6790032D01*
X22370870Y6835195D01*
X22593249Y6612816D01*
X22593250Y6612817D01*
X22607454Y6629208D01*
X22607458Y6629214D01*
X22661210Y6746916D01*
X22679627Y6874999D01*
X22679627Y6875002D01*
X23045373Y6875002D01*
X23045373Y6874999D01*
X23063789Y6746916D01*
X23117541Y6629215D01*
X23117545Y6629208D01*
X23131749Y6612816D01*
X23354128Y6835196D01*
X23372836Y6790032D01*
X23415032Y6747836D01*
X23460194Y6729129D01*
X23238930Y6507865D01*
X23311142Y6461456D01*
X23435298Y6425001D01*
X23435305Y6425000D01*
X23564695Y6425000D01*
X23564701Y6425001D01*
X23688858Y6461457D01*
X23761068Y6507866D01*
X23539805Y6729129D01*
X23584968Y6747836D01*
X23627164Y6790032D01*
X23645871Y6835195D01*
X23868249Y6612816D01*
X23868250Y6612817D01*
X23882454Y6629208D01*
X23882458Y6629214D01*
X23936210Y6746916D01*
X23954627Y6874999D01*
X23954627Y6875002D01*
X24320373Y6875002D01*
X24320373Y6874999D01*
X24338789Y6746916D01*
X24392541Y6629215D01*
X24392545Y6629208D01*
X24406749Y6612816D01*
X24629128Y6835196D01*
X24647836Y6790032D01*
X24690032Y6747836D01*
X24735194Y6729129D01*
X24513930Y6507865D01*
X24586142Y6461456D01*
X24710298Y6425001D01*
X24710305Y6425000D01*
X24839695Y6425000D01*
X24839701Y6425001D01*
X24963858Y6461457D01*
X25036068Y6507866D01*
X24814805Y6729129D01*
X24859968Y6747836D01*
X24902164Y6790032D01*
X24920871Y6835195D01*
X25143249Y6612816D01*
X25143250Y6612817D01*
X25157454Y6629208D01*
X25157458Y6629214D01*
X25211210Y6746916D01*
X25229627Y6874999D01*
X25229627Y6875002D01*
X25211210Y7003085D01*
X25157458Y7120786D01*
X25157454Y7120793D01*
X25143249Y7137186D01*
X24920870Y6914807D01*
X24902164Y6959968D01*
X24859968Y7002164D01*
X24814805Y7020871D01*
X24943933Y7150000D01*
X29974170Y7150000D01*
X29995328Y7030007D01*
X30056247Y6924493D01*
X30056248Y6924492D01*
X30056249Y6924491D01*
X30149585Y6846172D01*
X30264079Y6804500D01*
X30264080Y6804500D01*
X30385920Y6804500D01*
X30385921Y6804500D01*
X30500415Y6846172D01*
X30593751Y6924491D01*
X30654672Y7030009D01*
X30675830Y7150000D01*
X30654672Y7269991D01*
X30654671Y7269993D01*
X30654671Y7269994D01*
X30593752Y7375508D01*
X30500415Y7453828D01*
X30440846Y7475509D01*
X30385921Y7495500D01*
X30264079Y7495500D01*
X30209154Y7475509D01*
X30149584Y7453828D01*
X30056247Y7375508D01*
X29995328Y7269994D01*
X29974170Y7150000D01*
X24943933Y7150000D01*
X25036069Y7242136D01*
X24963857Y7288545D01*
X24839701Y7325000D01*
X24710298Y7325000D01*
X24586141Y7288544D01*
X24586140Y7288544D01*
X24513930Y7242137D01*
X24513930Y7242136D01*
X24735194Y7020872D01*
X24690032Y7002164D01*
X24647836Y6959968D01*
X24629128Y6914806D01*
X24406749Y7137185D01*
X24406748Y7137185D01*
X24392544Y7120791D01*
X24392542Y7120788D01*
X24338789Y7003085D01*
X24320373Y6875002D01*
X23954627Y6875002D01*
X23936210Y7003085D01*
X23882458Y7120786D01*
X23882454Y7120793D01*
X23868249Y7137186D01*
X23645870Y6914807D01*
X23627164Y6959968D01*
X23584968Y7002164D01*
X23539805Y7020871D01*
X23761069Y7242136D01*
X23688857Y7288545D01*
X23564701Y7325000D01*
X23435298Y7325000D01*
X23311141Y7288544D01*
X23311140Y7288544D01*
X23238930Y7242137D01*
X23238930Y7242136D01*
X23460194Y7020872D01*
X23415032Y7002164D01*
X23372836Y6959968D01*
X23354128Y6914806D01*
X23131749Y7137185D01*
X23131748Y7137185D01*
X23117544Y7120791D01*
X23117542Y7120788D01*
X23063789Y7003085D01*
X23045373Y6875002D01*
X22679627Y6875002D01*
X22661210Y7003085D01*
X22607458Y7120786D01*
X22607454Y7120793D01*
X22593249Y7137186D01*
X22370870Y6914807D01*
X22352164Y6959968D01*
X22309968Y7002164D01*
X22264805Y7020871D01*
X22486069Y7242136D01*
X22413857Y7288545D01*
X22289701Y7325000D01*
X22160298Y7325000D01*
X22036141Y7288544D01*
X22036140Y7288544D01*
X21963930Y7242137D01*
X21963930Y7242136D01*
X22185194Y7020872D01*
X22140032Y7002164D01*
X22097836Y6959968D01*
X22079128Y6914806D01*
X21856749Y7137185D01*
X21856748Y7137185D01*
X21842544Y7120791D01*
X21842542Y7120788D01*
X21788789Y7003085D01*
X21770373Y6875002D01*
X11876422Y6875002D01*
X11880830Y6900000D01*
X11859672Y7019991D01*
X11859671Y7019993D01*
X11859671Y7019994D01*
X11798752Y7125508D01*
X11793390Y7130007D01*
X11705415Y7203828D01*
X11590921Y7245500D01*
X11469079Y7245500D01*
X11411832Y7224664D01*
X11354584Y7203828D01*
X11261247Y7125508D01*
X11200328Y7019994D01*
X11179170Y6900000D01*
X663283Y6900000D01*
X675425Y7000000D01*
X655798Y7161640D01*
X622288Y7250000D01*
X4949170Y7250000D01*
X4970328Y7130007D01*
X5031247Y7024493D01*
X5031248Y7024492D01*
X5031249Y7024491D01*
X5124585Y6946172D01*
X5239079Y6904500D01*
X5239080Y6904500D01*
X5360920Y6904500D01*
X5360921Y6904500D01*
X5475415Y6946172D01*
X5568751Y7024491D01*
X5629672Y7130009D01*
X5650830Y7250000D01*
X5642014Y7300000D01*
X13049170Y7300000D01*
X13070328Y7180007D01*
X13131247Y7074493D01*
X13131248Y7074492D01*
X13131249Y7074491D01*
X13224585Y6996172D01*
X13339079Y6954500D01*
X13339080Y6954500D01*
X13460920Y6954500D01*
X13460921Y6954500D01*
X13575415Y6996172D01*
X13668751Y7074491D01*
X13700804Y7130009D01*
X13729671Y7180007D01*
X13729671Y7180008D01*
X13729672Y7180009D01*
X13750830Y7300000D01*
X13729672Y7419991D01*
X13729671Y7419993D01*
X13729671Y7419994D01*
X13668752Y7525508D01*
X13668206Y7526159D01*
X13668001Y7526810D01*
X13666608Y7529222D01*
X13667143Y7529531D01*
X13656930Y7561927D01*
X13674246Y7595191D01*
X13717557Y7631534D01*
X13768751Y7674491D01*
X13829672Y7780009D01*
X13833197Y7800000D01*
X15449170Y7800000D01*
X15470328Y7680007D01*
X15531247Y7574493D01*
X15531248Y7574492D01*
X15531249Y7574491D01*
X15624585Y7496172D01*
X15739079Y7454500D01*
X15739080Y7454500D01*
X15860920Y7454500D01*
X15860921Y7454500D01*
X15975415Y7496172D01*
X16068751Y7574491D01*
X16124165Y7670470D01*
X16129671Y7680007D01*
X16129671Y7680008D01*
X16129672Y7680009D01*
X16150830Y7800000D01*
X16129672Y7919991D01*
X16129671Y7919993D01*
X16129671Y7919994D01*
X16068752Y8025508D01*
X15975415Y8103828D01*
X15915846Y8125509D01*
X15860921Y8145500D01*
X15739079Y8145500D01*
X15684154Y8125509D01*
X15624584Y8103828D01*
X15531247Y8025508D01*
X15470328Y7919994D01*
X15449170Y7800000D01*
X13833197Y7800000D01*
X13850830Y7900000D01*
X13829672Y8019991D01*
X13829671Y8019993D01*
X13829671Y8019994D01*
X13768752Y8125508D01*
X13696525Y8186114D01*
X13675415Y8203828D01*
X13560921Y8245500D01*
X13439079Y8245500D01*
X13381832Y8224664D01*
X13324584Y8203828D01*
X13231247Y8125508D01*
X13170328Y8019994D01*
X13149170Y7900000D01*
X13170328Y7780007D01*
X13231247Y7674493D01*
X13231794Y7673841D01*
X13231998Y7673191D01*
X13233392Y7670778D01*
X13232856Y7670470D01*
X13243069Y7638073D01*
X13225753Y7604810D01*
X13131247Y7525508D01*
X13070328Y7419994D01*
X13049170Y7300000D01*
X5642014Y7300000D01*
X5629672Y7369991D01*
X5629671Y7369993D01*
X5629671Y7369994D01*
X5568752Y7475508D01*
X5475415Y7553828D01*
X5453163Y7561927D01*
X5360921Y7595500D01*
X5239079Y7595500D01*
X5181832Y7574664D01*
X5124584Y7553828D01*
X5031247Y7475508D01*
X4970328Y7369994D01*
X4949170Y7250000D01*
X622288Y7250000D01*
X598059Y7313886D01*
X524820Y7419991D01*
X505564Y7447889D01*
X505560Y7447894D01*
X383683Y7555866D01*
X239510Y7631533D01*
X239509Y7631534D01*
X237764Y7631964D01*
X237115Y7632442D01*
X236739Y7632584D01*
X236778Y7632690D01*
X207562Y7654197D01*
X200500Y7679538D01*
X200500Y7820464D01*
X214852Y7855112D01*
X237778Y7868041D01*
X239509Y7868467D01*
X299591Y7900000D01*
X383683Y7944135D01*
X383682Y7944135D01*
X383685Y7944136D01*
X505563Y8052110D01*
X598059Y8186114D01*
X655798Y8338360D01*
X663283Y8400000D01*
X2549170Y8400000D01*
X2570328Y8280007D01*
X2631247Y8174493D01*
X2631248Y8174492D01*
X2631249Y8174491D01*
X2724585Y8096172D01*
X2839079Y8054500D01*
X2839080Y8054500D01*
X2960920Y8054500D01*
X2960921Y8054500D01*
X3075415Y8096172D01*
X3168751Y8174491D01*
X3229672Y8280009D01*
X3250830Y8400000D01*
X3233197Y8500000D01*
X4949170Y8500000D01*
X4970328Y8380007D01*
X5031247Y8274493D01*
X5031248Y8274492D01*
X5031249Y8274491D01*
X5124585Y8196172D01*
X5239079Y8154500D01*
X5239080Y8154500D01*
X5360920Y8154500D01*
X5360921Y8154500D01*
X5475415Y8196172D01*
X5568751Y8274491D01*
X5629672Y8380009D01*
X5650830Y8500000D01*
X5629672Y8619991D01*
X5629671Y8619993D01*
X5629671Y8619994D01*
X5568752Y8725508D01*
X5538361Y8751009D01*
X5475415Y8803828D01*
X5360921Y8845500D01*
X5239079Y8845500D01*
X5187181Y8826611D01*
X5124584Y8803828D01*
X5031247Y8725508D01*
X4970328Y8619994D01*
X4949170Y8500000D01*
X3233197Y8500000D01*
X3229672Y8519991D01*
X3229671Y8519993D01*
X3229671Y8519994D01*
X3168752Y8625508D01*
X3144937Y8645491D01*
X3075415Y8703828D01*
X2960921Y8745500D01*
X2839079Y8745500D01*
X2784154Y8725509D01*
X2724584Y8703828D01*
X2631247Y8625508D01*
X2570328Y8519994D01*
X2549170Y8400000D01*
X663283Y8400000D01*
X675425Y8500000D01*
X655798Y8661640D01*
X598059Y8813886D01*
X587400Y8829328D01*
X505564Y8947889D01*
X505560Y8947894D01*
X383683Y9055866D01*
X239510Y9131533D01*
X239509Y9131534D01*
X237764Y9131964D01*
X237115Y9132442D01*
X236739Y9132584D01*
X236778Y9132690D01*
X207562Y9154197D01*
X200500Y9179538D01*
X200500Y9320464D01*
X214852Y9355112D01*
X237778Y9368041D01*
X239509Y9368467D01*
X299591Y9400000D01*
X383683Y9444135D01*
X383682Y9444135D01*
X383685Y9444136D01*
X505563Y9552110D01*
X573131Y9650000D01*
X7349170Y9650000D01*
X7370328Y9530007D01*
X7431247Y9424493D01*
X7431248Y9424492D01*
X7431249Y9424491D01*
X7524585Y9346172D01*
X7639079Y9304500D01*
X7639080Y9304500D01*
X7760920Y9304500D01*
X7760921Y9304500D01*
X7875415Y9346172D01*
X7968751Y9424491D01*
X8029672Y9530009D01*
X8050830Y9650000D01*
X8029672Y9769991D01*
X8029671Y9769993D01*
X8029671Y9769994D01*
X7968752Y9875508D01*
X7963390Y9880007D01*
X7875415Y9953828D01*
X7760921Y9995500D01*
X7639079Y9995500D01*
X7587984Y9976903D01*
X7524584Y9953828D01*
X7431247Y9875508D01*
X7370328Y9769994D01*
X7349170Y9650000D01*
X573131Y9650000D01*
X598059Y9686114D01*
X655798Y9838360D01*
X675425Y10000000D01*
X2249170Y10000000D01*
X2270328Y9880007D01*
X2331247Y9774493D01*
X2331248Y9774492D01*
X2331249Y9774491D01*
X2424585Y9696172D01*
X2539079Y9654500D01*
X2539080Y9654500D01*
X2660920Y9654500D01*
X2660921Y9654500D01*
X2775415Y9696172D01*
X2868751Y9774491D01*
X2929672Y9880009D01*
X2946757Y9976906D01*
X2966907Y10008533D01*
X3003520Y10016651D01*
X3011762Y10014443D01*
X3039079Y10004500D01*
X3039080Y10004500D01*
X3160920Y10004500D01*
X3160921Y10004500D01*
X3275415Y10046172D01*
X3368751Y10124491D01*
X3416113Y10206524D01*
X3429671Y10230007D01*
X3429671Y10230008D01*
X3429672Y10230009D01*
X3450830Y10350000D01*
X3429672Y10469991D01*
X3429671Y10469993D01*
X3429671Y10469994D01*
X3368752Y10575508D01*
X3367865Y10576252D01*
X3275415Y10653828D01*
X3160921Y10695500D01*
X3039079Y10695500D01*
X2981832Y10674664D01*
X2924584Y10653828D01*
X2831247Y10575508D01*
X2770328Y10469994D01*
X2753243Y10373097D01*
X2733092Y10341467D01*
X2696478Y10333350D01*
X2688228Y10335561D01*
X2660921Y10345500D01*
X2539079Y10345500D01*
X2511772Y10335561D01*
X2424584Y10303828D01*
X2331247Y10225508D01*
X2270328Y10119994D01*
X2249170Y10000000D01*
X675425Y10000000D01*
X655798Y10161640D01*
X598059Y10313886D01*
X579021Y10341467D01*
X505564Y10447889D01*
X505560Y10447894D01*
X383683Y10555866D01*
X239510Y10631533D01*
X239509Y10631534D01*
X237764Y10631964D01*
X237115Y10632442D01*
X236739Y10632584D01*
X236778Y10632690D01*
X207562Y10654197D01*
X200500Y10679538D01*
X200500Y10820464D01*
X214852Y10855112D01*
X237778Y10868041D01*
X239509Y10868467D01*
X383685Y10944136D01*
X474385Y11024489D01*
X505560Y11052107D01*
X505560Y11052109D01*
X505563Y11052110D01*
X598059Y11186114D01*
X655798Y11338360D01*
X675425Y11500000D01*
X655798Y11661640D01*
X598059Y11813886D01*
X587281Y11829500D01*
X505564Y11947889D01*
X505560Y11947894D01*
X383683Y12055866D01*
X239510Y12131533D01*
X239509Y12131534D01*
X237764Y12131964D01*
X237115Y12132442D01*
X236739Y12132584D01*
X236778Y12132690D01*
X207562Y12154197D01*
X200500Y12179538D01*
X200500Y12267551D01*
X1374200Y12267551D01*
X1374200Y12132450D01*
X1400552Y11999970D01*
X1400555Y11999959D01*
X1452251Y11875153D01*
X1527302Y11762831D01*
X1622830Y11667303D01*
X1724221Y11599556D01*
X1735152Y11592252D01*
X1859960Y11540555D01*
X1859966Y11540554D01*
X1859969Y11540553D01*
X1992449Y11514201D01*
X1992452Y11514201D01*
X1992455Y11514200D01*
X1992456Y11514200D01*
X2127544Y11514200D01*
X2127545Y11514200D01*
X2260040Y11540555D01*
X2384848Y11592252D01*
X2497172Y11667305D01*
X2592695Y11762828D01*
X2667748Y11875152D01*
X2719445Y11999960D01*
X2745800Y12132455D01*
X2745800Y12267545D01*
X2745799Y12267551D01*
X2719447Y12400031D01*
X2719444Y12400042D01*
X2697174Y12453808D01*
X2667748Y12524848D01*
X2664172Y12530200D01*
X2592697Y12637170D01*
X2497169Y12732698D01*
X2384847Y12807749D01*
X2260041Y12859445D01*
X2260030Y12859448D01*
X2127550Y12885800D01*
X2127545Y12885800D01*
X1992455Y12885800D01*
X1992449Y12885800D01*
X1859969Y12859448D01*
X1859958Y12859445D01*
X1735152Y12807749D01*
X1622830Y12732698D01*
X1527302Y12637170D01*
X1452253Y12524850D01*
X1400555Y12400042D01*
X1400552Y12400031D01*
X1374200Y12267551D01*
X200500Y12267551D01*
X200500Y12320464D01*
X214852Y12355112D01*
X237778Y12368041D01*
X239509Y12368467D01*
X252927Y12375509D01*
X383683Y12444135D01*
X383682Y12444135D01*
X383685Y12444136D01*
X480833Y12530201D01*
X505560Y12552107D01*
X505560Y12552109D01*
X505563Y12552110D01*
X598059Y12686114D01*
X655798Y12838360D01*
X675425Y13000000D01*
X655798Y13161640D01*
X598059Y13313886D01*
X587281Y13329500D01*
X505564Y13447889D01*
X505560Y13447894D01*
X399172Y13542144D01*
X382754Y13575862D01*
X394988Y13611314D01*
X396997Y13613449D01*
X568698Y13785148D01*
X603346Y13799500D01*
X6635337Y13799500D01*
X6669985Y13785148D01*
G37*
%TD.AperFunction*%
%TD*%
M02*
