%TF.GenerationSoftware,KiCad,Pcbnew,8.0.3*%
%TF.CreationDate,2024-06-14T23:01:07+10:00*%
%TF.ProjectId,rs-probe,72732d70-726f-4626-952e-6b696361645f,rev?*%
%TF.SameCoordinates,Original*%
%TF.FileFunction,Paste,Top*%
%TF.FilePolarity,Positive*%
%FSLAX46Y46*%
G04 Gerber Fmt 4.6, Leading zero omitted, Abs format (unit mm)*
G04 Created by KiCad (PCBNEW 8.0.3) date 2024-06-14 23:01:07*
%MOMM*%
%LPD*%
G01*
G04 APERTURE LIST*
G04 Aperture macros list*
%AMRoundRect*
0 Rectangle with rounded corners*
0 $1 Rounding radius*
0 $2 $3 $4 $5 $6 $7 $8 $9 X,Y pos of 4 corners*
0 Add a 4 corners polygon primitive as box body*
4,1,4,$2,$3,$4,$5,$6,$7,$8,$9,$2,$3,0*
0 Add four circle primitives for the rounded corners*
1,1,$1+$1,$2,$3*
1,1,$1+$1,$4,$5*
1,1,$1+$1,$6,$7*
1,1,$1+$1,$8,$9*
0 Add four rect primitives between the rounded corners*
20,1,$1+$1,$2,$3,$4,$5,0*
20,1,$1+$1,$4,$5,$6,$7,0*
20,1,$1+$1,$6,$7,$8,$9,0*
20,1,$1+$1,$8,$9,$2,$3,0*%
G04 Aperture macros list end*
%ADD10C,0.500000*%
%ADD11C,0.100000*%
%ADD12RoundRect,0.185000X-1.015000X-0.185000X1.015000X-0.185000X1.015000X0.185000X-1.015000X0.185000X0*%
%ADD13RoundRect,0.150000X0.575000X-0.150000X0.575000X0.150000X-0.575000X0.150000X-0.575000X-0.150000X0*%
%ADD14O,1.450000X0.300000*%
%ADD15RoundRect,0.125000X0.200000X0.000010X-0.200000X0.000010X-0.200000X-0.000010X0.200000X-0.000010X0*%
%ADD16RoundRect,0.075000X0.075000X1.875000X-0.075000X1.875000X-0.075000X-1.875000X0.075000X-1.875000X0*%
%ADD17RoundRect,0.137500X-0.137500X-0.137500X0.137500X-0.137500X0.137500X0.137500X-0.137500X0.137500X0*%
%ADD18RoundRect,0.137500X0.137500X-0.137500X0.137500X0.137500X-0.137500X0.137500X-0.137500X-0.137500X0*%
%ADD19RoundRect,0.250000X-0.292217X0.292217X-0.292217X-0.292217X0.292217X-0.292217X0.292217X0.292217X0*%
%ADD20RoundRect,0.050000X-0.050000X0.387500X-0.050000X-0.387500X0.050000X-0.387500X0.050000X0.387500X0*%
%ADD21RoundRect,0.050000X-0.387500X0.050000X-0.387500X-0.050000X0.387500X-0.050000X0.387500X0.050000X0*%
%ADD22RoundRect,0.137500X-0.137500X0.137500X-0.137500X-0.137500X0.137500X-0.137500X0.137500X0.137500X0*%
%ADD23RoundRect,0.067500X0.097500X0.067500X-0.097500X0.067500X-0.097500X-0.067500X0.097500X-0.067500X0*%
%ADD24RoundRect,0.137500X0.137500X0.137500X-0.137500X0.137500X-0.137500X-0.137500X0.137500X-0.137500X0*%
%ADD25RoundRect,0.147500X0.147500X0.172500X-0.147500X0.172500X-0.147500X-0.172500X0.147500X-0.172500X0*%
%ADD26RoundRect,0.075000X-0.150000X-0.075000X0.150000X-0.075000X0.150000X0.075000X-0.150000X0.075000X0*%
%ADD27RoundRect,0.060000X0.130000X-0.060000X0.130000X0.060000X-0.130000X0.060000X-0.130000X-0.060000X0*%
%ADD28RoundRect,0.062500X0.087500X-0.062500X0.087500X0.062500X-0.087500X0.062500X-0.087500X-0.062500X0*%
%ADD29R,0.650000X0.850000*%
%ADD30O,0.250000X0.600000*%
%ADD31R,1.600000X0.200000*%
%ADD32RoundRect,0.075000X0.075000X-0.150000X0.075000X0.150000X-0.075000X0.150000X-0.075000X-0.150000X0*%
%ADD33RoundRect,0.147500X-0.147500X-0.172500X0.147500X-0.172500X0.147500X0.172500X-0.147500X0.172500X0*%
%ADD34RoundRect,0.218750X0.218750X0.256250X-0.218750X0.256250X-0.218750X-0.256250X0.218750X-0.256250X0*%
%ADD35RoundRect,0.175000X-0.175000X0.275000X-0.175000X-0.275000X0.175000X-0.275000X0.175000X0.275000X0*%
%ADD36R,1.450000X0.700000*%
G04 APERTURE END LIST*
D10*
X34670000Y2680000D02*
G75*
G02*
X34170000Y2680000I-250000J0D01*
G01*
X34170000Y2680000D02*
G75*
G02*
X34670000Y2680000I250000J0D01*
G01*
D11*
X33320000Y11770000D02*
X34420000Y11770000D01*
X34420000Y10870000D01*
X33320000Y10870000D01*
X33320000Y11770000D01*
G36*
X33320000Y11770000D02*
G01*
X34420000Y11770000D01*
X34420000Y10870000D01*
X33320000Y10870000D01*
X33320000Y11770000D01*
G37*
D10*
X33570000Y11320000D02*
G75*
G02*
X33070000Y11320000I-250000J0D01*
G01*
X33070000Y11320000D02*
G75*
G02*
X33570000Y11320000I250000J0D01*
G01*
X33570000Y2680000D02*
G75*
G02*
X33070000Y2680000I-250000J0D01*
G01*
X33070000Y2680000D02*
G75*
G02*
X33570000Y2680000I250000J0D01*
G01*
X38000000Y2680000D02*
G75*
G02*
X37500000Y2680000I-250000J0D01*
G01*
X37500000Y2680000D02*
G75*
G02*
X38000000Y2680000I250000J0D01*
G01*
D11*
X37750000Y11770000D02*
X38350000Y11770000D01*
X38350000Y10870000D01*
X37750000Y10870000D01*
X37750000Y11770000D01*
G36*
X37750000Y11770000D02*
G01*
X38350000Y11770000D01*
X38350000Y10870000D01*
X37750000Y10870000D01*
X37750000Y11770000D01*
G37*
D10*
X38000000Y11320000D02*
G75*
G02*
X37500000Y11320000I-250000J0D01*
G01*
X37500000Y11320000D02*
G75*
G02*
X38000000Y11320000I250000J0D01*
G01*
D11*
X37750000Y3130000D02*
X38350000Y3130000D01*
X38350000Y2230000D01*
X37750000Y2230000D01*
X37750000Y3130000D01*
G36*
X37750000Y3130000D02*
G01*
X38350000Y3130000D01*
X38350000Y2230000D01*
X37750000Y2230000D01*
X37750000Y3130000D01*
G37*
D10*
X38600000Y2680000D02*
G75*
G02*
X38100000Y2680000I-250000J0D01*
G01*
X38100000Y2680000D02*
G75*
G02*
X38600000Y2680000I250000J0D01*
G01*
X38600000Y11320000D02*
G75*
G02*
X38100000Y11320000I-250000J0D01*
G01*
X38100000Y11320000D02*
G75*
G02*
X38600000Y11320000I250000J0D01*
G01*
X34670000Y11320000D02*
G75*
G02*
X34170000Y11320000I-250000J0D01*
G01*
X34170000Y11320000D02*
G75*
G02*
X34670000Y11320000I250000J0D01*
G01*
D11*
X33320000Y3130000D02*
X34420000Y3130000D01*
X34420000Y2230000D01*
X33320000Y2230000D01*
X33320000Y3130000D01*
G36*
X33320000Y3130000D02*
G01*
X34420000Y3130000D01*
X34420000Y2230000D01*
X33320000Y2230000D01*
X33320000Y3130000D01*
G37*
D12*
%TO.C,U5*%
X2350000Y8540000D03*
X6250000Y8540000D03*
X2350000Y7270000D03*
X6250000Y7270000D03*
X2350000Y6000000D03*
X6250000Y6000000D03*
X2350000Y4730000D03*
X6250000Y4730000D03*
X2350000Y3460000D03*
X6250000Y3460000D03*
%TD*%
D13*
%TO.C,J1*%
X32955000Y3750000D03*
X32955000Y4550000D03*
D14*
X32955000Y5750000D03*
X32955000Y6750000D03*
X32955000Y7250000D03*
X32955000Y8250000D03*
D13*
X32955000Y9450000D03*
X32955000Y10250000D03*
X32955000Y10250000D03*
X32955000Y9450000D03*
D14*
X32955000Y8750000D03*
X32955000Y7750000D03*
X32955000Y6250000D03*
X32955000Y5250000D03*
D13*
X32955000Y4550000D03*
X32955000Y3750000D03*
%TD*%
D15*
%TO.C,U4*%
X10325000Y1450000D03*
X10325000Y1950000D03*
X10325000Y2450000D03*
X10325000Y2950000D03*
X10325000Y3450000D03*
X10325000Y3950000D03*
X10325000Y4450000D03*
X10325000Y4950000D03*
X8675000Y4950000D03*
X8675000Y4450000D03*
X8675000Y3950000D03*
X8675000Y3450000D03*
X8675000Y2950000D03*
X8675000Y2450000D03*
X8675000Y1950000D03*
X8675000Y1450000D03*
D16*
X9500000Y3200000D03*
%TD*%
D17*
%TO.C,R29*%
X30250000Y12750000D03*
X31150000Y12750000D03*
%TD*%
%TO.C,R9*%
X8075000Y7900000D03*
X8975000Y7900000D03*
%TD*%
D18*
%TO.C,R2*%
X30800000Y8950000D03*
X30800000Y9850000D03*
%TD*%
D19*
%TO.C,U6*%
X24137500Y6237500D03*
X22862500Y6237500D03*
X24137500Y4962500D03*
X22862500Y4962500D03*
D20*
X26100000Y9037500D03*
X25700000Y9037500D03*
X25300000Y9037500D03*
X24900000Y9037500D03*
X24500000Y9037500D03*
X24100000Y9037500D03*
X23700000Y9037500D03*
X23300000Y9037500D03*
X22900000Y9037500D03*
X22500000Y9037500D03*
X22100000Y9037500D03*
X21700000Y9037500D03*
X21300000Y9037500D03*
X20900000Y9037500D03*
D21*
X20062500Y8200000D03*
X20062500Y7800000D03*
X20062500Y7400000D03*
X20062500Y7000000D03*
X20062500Y6600000D03*
X20062500Y6200000D03*
X20062500Y5800000D03*
X20062500Y5400000D03*
X20062500Y5000000D03*
X20062500Y4600000D03*
X20062500Y4200000D03*
X20062500Y3800000D03*
X20062500Y3400000D03*
X20062500Y3000000D03*
D20*
X20900000Y2162500D03*
X21300000Y2162500D03*
X21700000Y2162500D03*
X22100000Y2162500D03*
X22500000Y2162500D03*
X22900000Y2162500D03*
X23300000Y2162500D03*
X23700000Y2162500D03*
X24100000Y2162500D03*
X24500000Y2162500D03*
X24900000Y2162500D03*
X25300000Y2162500D03*
X25700000Y2162500D03*
X26100000Y2162500D03*
D21*
X26937500Y3000000D03*
X26937500Y3400000D03*
X26937500Y3800000D03*
X26937500Y4200000D03*
X26937500Y4600000D03*
X26937500Y5000000D03*
X26937500Y5400000D03*
X26937500Y5800000D03*
X26937500Y6200000D03*
X26937500Y6600000D03*
X26937500Y7000000D03*
X26937500Y7400000D03*
X26937500Y7800000D03*
X26937500Y8200000D03*
%TD*%
D22*
%TO.C,R17*%
X16500000Y9350000D03*
X16500000Y8450000D03*
%TD*%
D23*
%TO.C,U10*%
X12640000Y6400000D03*
X12640000Y6900000D03*
X12640000Y7400000D03*
X11960000Y7400000D03*
X11960000Y6900000D03*
X11960000Y6400000D03*
%TD*%
D24*
%TO.C,C22*%
X23950000Y800000D03*
X23050000Y800000D03*
%TD*%
D25*
%TO.C,D2*%
X16985000Y13100000D03*
X16015000Y13100000D03*
%TD*%
D17*
%TO.C,C25*%
X14350000Y9350000D03*
X15250000Y9350000D03*
%TD*%
D18*
%TO.C,C13*%
X20000000Y10050000D03*
X20000000Y10950000D03*
%TD*%
D17*
%TO.C,C18*%
X15650000Y7200000D03*
X16550000Y7200000D03*
%TD*%
D18*
%TO.C,R8*%
X16400000Y650000D03*
X16400000Y1550000D03*
%TD*%
D24*
%TO.C,R11*%
X8975000Y7000000D03*
X8075000Y7000000D03*
%TD*%
D17*
%TO.C,C17*%
X15650000Y3800000D03*
X16550000Y3800000D03*
%TD*%
D24*
%TO.C,R13*%
X13600000Y10800000D03*
X12700000Y10800000D03*
%TD*%
%TO.C,C1*%
X18450000Y6300000D03*
X17550000Y6300000D03*
%TD*%
D26*
%TO.C,Q1*%
X4500000Y12800000D03*
X4500000Y12300000D03*
X4500000Y11800000D03*
X5900000Y11800000D03*
X5900000Y12300000D03*
X5900000Y12800000D03*
%TD*%
D23*
%TO.C,U8*%
X12640000Y3900000D03*
X12640000Y4400000D03*
X12640000Y4900000D03*
X11960000Y4900000D03*
X11960000Y4400000D03*
X11960000Y3900000D03*
%TD*%
D24*
%TO.C,C3*%
X22250000Y800000D03*
X21350000Y800000D03*
%TD*%
D17*
%TO.C,R16*%
X8550000Y10900000D03*
X9450000Y10900000D03*
%TD*%
D22*
%TO.C,C26*%
X9500000Y12750000D03*
X9500000Y11850000D03*
%TD*%
D24*
%TO.C,C24*%
X15775000Y12175000D03*
X14875000Y12175000D03*
%TD*%
D22*
%TO.C,C23*%
X29300000Y13150000D03*
X29300000Y12250000D03*
%TD*%
%TO.C,C28*%
X28400000Y13150000D03*
X28400000Y12250000D03*
%TD*%
D17*
%TO.C,C16*%
X13650000Y700000D03*
X14550000Y700000D03*
%TD*%
%TO.C,C6*%
X29950000Y3300000D03*
X30850000Y3300000D03*
%TD*%
D27*
%TO.C,U14*%
X13230000Y12300000D03*
X13700000Y12300000D03*
D28*
X13065000Y11825000D03*
X13465000Y11825000D03*
X13865000Y11825000D03*
X13865000Y12775000D03*
X13465000Y12775000D03*
X13065000Y12775000D03*
%TD*%
D22*
%TO.C,C2*%
X12200000Y12800000D03*
X12200000Y11900000D03*
%TD*%
D18*
%TO.C,C27*%
X10700000Y9000000D03*
X10700000Y9900000D03*
%TD*%
D24*
%TO.C,R4*%
X35700000Y1250000D03*
X34800000Y1250000D03*
%TD*%
D18*
%TO.C,C21*%
X11550000Y10000000D03*
X11550000Y10900000D03*
%TD*%
D23*
%TO.C,U9*%
X14640000Y4900000D03*
X14640000Y5400000D03*
X14640000Y5900000D03*
X13960000Y5900000D03*
X13960000Y5400000D03*
X13960000Y4900000D03*
%TD*%
D29*
%TO.C,D1*%
X31025000Y775000D03*
X30175000Y775000D03*
X30175000Y2225000D03*
X31025000Y2225000D03*
%TD*%
D17*
%TO.C,C4*%
X28250000Y3500000D03*
X29150000Y3500000D03*
%TD*%
%TO.C,R14*%
X8550000Y10000000D03*
X9450000Y10000000D03*
%TD*%
D22*
%TO.C,R21*%
X16850000Y11150000D03*
X16850000Y10250000D03*
%TD*%
D30*
%TO.C,U3*%
X29850000Y9650000D03*
X29350000Y9650000D03*
X28850000Y9650000D03*
X28350000Y9650000D03*
X28350000Y6950000D03*
X28850000Y6950000D03*
X29350000Y6950000D03*
X29850000Y6950000D03*
D31*
X29100000Y8300000D03*
%TD*%
D22*
%TO.C,R25*%
X17750000Y11150000D03*
X17750000Y10250000D03*
%TD*%
%TO.C,R15*%
X8600000Y12750000D03*
X8600000Y11850000D03*
%TD*%
D18*
%TO.C,C15*%
X10900000Y6050000D03*
X10900000Y6950000D03*
%TD*%
D32*
%TO.C,U7*%
X30300000Y4200000D03*
X30800000Y4200000D03*
X31300000Y4200000D03*
X31300000Y5600000D03*
X30800000Y5600000D03*
X30300000Y5600000D03*
%TD*%
D24*
%TO.C,R10*%
X3550000Y10900000D03*
X2650000Y10900000D03*
%TD*%
D17*
%TO.C,C19*%
X15650000Y2400000D03*
X16550000Y2400000D03*
%TD*%
D22*
%TO.C,R23*%
X1000000Y12650000D03*
X1000000Y11750000D03*
%TD*%
D27*
%TO.C,U13*%
X10715000Y12300000D03*
X11185000Y12300000D03*
D28*
X10550000Y11825000D03*
X10950000Y11825000D03*
X11350000Y11825000D03*
X11350000Y12775000D03*
X10950000Y12775000D03*
X10550000Y12775000D03*
%TD*%
D23*
%TO.C,U1*%
X12640000Y1400000D03*
X12640000Y1900000D03*
X12640000Y2400000D03*
X11960000Y2400000D03*
X11960000Y1900000D03*
X11960000Y1400000D03*
%TD*%
D24*
%TO.C,R6*%
X25650000Y800000D03*
X24750000Y800000D03*
%TD*%
%TO.C,R7*%
X29150000Y1500000D03*
X28250000Y1500000D03*
%TD*%
D23*
%TO.C,U11*%
X14640000Y7400000D03*
X14640000Y7900000D03*
X14640000Y8400000D03*
X13960000Y8400000D03*
X13960000Y7900000D03*
X13960000Y7400000D03*
%TD*%
D18*
%TO.C,R1*%
X19100000Y650000D03*
X19100000Y1550000D03*
%TD*%
D24*
%TO.C,C10*%
X18850000Y4500000D03*
X17950000Y4500000D03*
%TD*%
%TO.C,R12*%
X13600000Y9950000D03*
X12700000Y9950000D03*
%TD*%
D17*
%TO.C,C7*%
X28250000Y5800000D03*
X29150000Y5800000D03*
%TD*%
D24*
%TO.C,R22*%
X9250000Y5900000D03*
X8350000Y5900000D03*
%TD*%
D17*
%TO.C,C20*%
X15650000Y4800000D03*
X16550000Y4800000D03*
%TD*%
%TO.C,C11*%
X28250000Y2400000D03*
X29150000Y2400000D03*
%TD*%
D18*
%TO.C,C14*%
X30800000Y6750000D03*
X30800000Y7650000D03*
%TD*%
D33*
%TO.C,D3*%
X8715000Y8850000D03*
X9685000Y8850000D03*
%TD*%
D24*
%TO.C,R27*%
X12400000Y8650000D03*
X11500000Y8650000D03*
%TD*%
D17*
%TO.C,R18*%
X1100000Y9950000D03*
X2000000Y9950000D03*
%TD*%
%TO.C,R20*%
X4850000Y10900000D03*
X5750000Y10900000D03*
%TD*%
D18*
%TO.C,C8*%
X17300000Y650000D03*
X17300000Y1550000D03*
%TD*%
D34*
%TO.C,F1*%
X30937500Y11150000D03*
X29362500Y11150000D03*
%TD*%
D24*
%TO.C,R5*%
X27450000Y900000D03*
X26550000Y900000D03*
%TD*%
D23*
%TO.C,U2*%
X14640000Y2400000D03*
X14640000Y2900000D03*
X14640000Y3400000D03*
X13960000Y3400000D03*
X13960000Y2900000D03*
X13960000Y2400000D03*
%TD*%
D22*
%TO.C,R19*%
X3400000Y12750000D03*
X3400000Y11850000D03*
%TD*%
D24*
%TO.C,C9*%
X18850000Y5400000D03*
X17950000Y5400000D03*
%TD*%
D35*
%TO.C,X1*%
X17450000Y9100000D03*
X17450000Y7300000D03*
X18950000Y7325000D03*
X18950000Y9075000D03*
%TD*%
D18*
%TO.C,C30*%
X18200000Y12225000D03*
X18200000Y13125000D03*
%TD*%
D24*
%TO.C,R3*%
X33700000Y1250000D03*
X32800000Y1250000D03*
%TD*%
D18*
%TO.C,C29*%
X20000000Y12225000D03*
X20000000Y13125000D03*
%TD*%
D27*
%TO.C,U12*%
X15115000Y10825000D03*
X15585000Y10825000D03*
D28*
X14950000Y10350000D03*
X15350000Y10350000D03*
X15750000Y10350000D03*
X15750000Y11300000D03*
X15350000Y11300000D03*
X14950000Y11300000D03*
%TD*%
D36*
%TO.C,SW1*%
X21420000Y13000000D03*
X26580000Y13000000D03*
X21420000Y11000000D03*
X26580000Y11000000D03*
%TD*%
D18*
%TO.C,C5*%
X18200000Y650000D03*
X18200000Y1550000D03*
%TD*%
D22*
%TO.C,FB1*%
X19100000Y11925000D03*
X19100000Y11025000D03*
%TD*%
%TO.C,R26*%
X9750000Y7900000D03*
X9750000Y7000000D03*
%TD*%
D17*
%TO.C,R28*%
X31950000Y12750000D03*
X32850000Y12750000D03*
%TD*%
%TO.C,C12*%
X28250000Y4900000D03*
X29150000Y4900000D03*
%TD*%
D24*
%TO.C,R24*%
X1800000Y10900000D03*
X900000Y10900000D03*
%TD*%
M02*
