M48
; DRILL file {KiCad 8.0.3} date 2024-06-14T23:01:07+1000
; FORMAT={-:-/ absolute / inch / decimal}
; #@! TF.CreationDate,2024-06-14T23:01:07+10:00
; #@! TF.GenerationSoftware,Kicad,Pcbnew,8.0.3
; #@! TF.FileFunction,Plated,1,4,PTH
FMAT,2
INCH
; #@! TA.AperFunction,Plated,PTH,ViaDrill
T1C0.0118
; #@! TA.AperFunction,Plated,PTH,ComponentDrill
T2C0.0118
; #@! TA.AperFunction,Plated,PTH,ComponentDrill
T3C0.0236
; #@! TA.AperFunction,Plated,PTH,ComponentDrill
T4C0.0315
%
G90
G05
T1
X0.0512Y0.5335
X0.0551Y0.2362
X0.0748Y0.2874
X0.0748Y0.0512
X0.0748Y0.0197
X0.1024Y0.3937
X0.1142Y0.3307
X0.1181Y0.5335
X0.122Y0.4075
X0.126Y0.2835
X0.1299Y0.2323
X0.1299Y0.1378
X0.1299Y0.0748
X0.1299Y0.0276
X0.1496Y0.5236
X0.1516Y0.1654
X0.1535Y0.4803
X0.1703Y0.0748
X0.1703Y0.0276
X0.1713Y0.2106
X0.2087Y0.3346
X0.2087Y0.2854
X0.2087Y0.2303
X0.2303Y0.5315
X0.2323Y0.0768
X0.2323Y0.0276
X0.252Y0.4134
X0.2657Y0.0768
X0.2657Y0.0276
X0.3031Y0.3799
X0.3228Y0.0453
X0.324Y0.2571
X0.3287Y0.5315
X0.3346Y0.0217
X0.3465Y0.252
X0.3531Y0.5268
X0.374Y0.1299
X0.376Y0.0236
X0.3858Y0.253
X0.3858Y0.2205
X0.3957Y0.4823
X0.3965Y0.3917
X0.3976Y0.0374
X0.3984Y0.4591
X0.4016Y0.3327
X0.4272Y0.0256
X0.4323Y0.4429
X0.4331Y0.2953
X0.4331Y0.126
X0.4331Y0.1024
X0.4343Y0.4118
X0.4449Y0.3697
X0.4449Y0.1457
X0.4508Y0.0622
X0.4528Y0.2283
X0.4539Y0.2717
X0.4606Y0.4838
X0.4685Y0.1339
X0.4843Y0.3665
X0.4921Y0.2323
X0.4941Y0.0374
X0.4961Y0.1339
X0.5157Y0.3583
X0.5157Y0.0276
X0.5197Y0.2559
X0.5236Y0.1496
X0.5236Y0.1142
X0.5276Y0.2874
X0.5276Y0.2165
X0.5315Y0.311
X0.5315Y0.189
X0.5321Y0.0911
X0.5394Y0.3543
X0.5453Y0.4469
X0.565Y0.497
X0.5815Y0.0614
X0.5906Y0.1535
X0.5984Y0.3356
X0.5984Y0.311
X0.5984Y0.2126
X0.6004Y0.1161
X0.6059Y0.0618
X0.622Y0.3071
X0.622Y0.2126
X0.6248Y0.3709
X0.6283Y0.0384
X0.6339Y0.1142
X0.6496Y0.3071
X0.6496Y0.2126
X0.6654Y0.4941
X0.6654Y0.252
X0.6732Y0.1378
X0.6772Y0.1024
X0.6816Y0.2133
X0.685Y0.3228
X0.7197Y0.4386
X0.7244Y0.1575
X0.7323Y0.0827
X0.751Y0.4961
X0.7559Y0.1535
X0.7598Y0.3228
X0.7638Y0.0827
X0.7756Y0.3465
X0.7988Y0.3496
X0.7992Y0.4512
X0.8155Y0.0388
X0.8228Y0.2244
X0.8228Y0.1969
X0.8228Y0.1732
X0.8228Y0.1496
X0.8268Y0.3228
X0.8386Y0.1181
X0.8583Y0.3189
X0.878Y0.1417
X0.8858Y0.3228
X0.8858Y0.1181
X0.9094Y0.1181
X0.9102Y0.0559
X0.9173Y0.3937
X0.9331Y0.1142
X0.9417Y0.0559
X0.9606Y0.3937
X0.9646Y0.1142
X0.9921Y0.122
X0.9961Y0.3937
X1.0197Y0.3917
X1.0256Y0.2657
X1.0276Y0.2283
X1.0276Y0.1496
X1.0472Y0.3917
X1.0472Y0.3543
X1.0551Y0.0906
X1.065Y0.374
X1.0827Y0.0748
X1.1055Y0.5063
X1.128Y0.3504
X1.1339Y0.1142
X1.1457Y0.3091
X1.1693Y0.2441
X1.1693Y0.2087
X1.1732Y0.1811
X1.1939Y0.2815
X1.2126Y0.3268
X1.2402Y0.1299
X1.248Y0.0866
X1.252Y0.2126
X1.252Y0.1535
X1.2559Y0.3701
X1.2598Y0.3976
X1.2677Y0.0591
X1.2697Y0.4783
X1.2717Y0.122
X1.2756Y0.4252
X1.3425Y0.2953
X1.3583Y0.5335
X1.4006Y0.0177
X1.4675Y0.0177
X1.4685Y0.5335
X1.5571Y0.4449
X1.5571Y0.1073
T2
X0.875Y0.2707
X0.875Y0.2205
X0.875Y0.1703
X0.9252Y0.2707
X0.9252Y0.2205
X0.9252Y0.1703
X0.9754Y0.2707
X0.9754Y0.2205
X0.9754Y0.1703
T4
X0.0Y0.5118
X0.0Y0.4528
X0.0Y0.3937
X0.0Y0.3346
X0.0Y0.2756
X0.0Y0.2165
X0.0Y0.1575
X0.0Y0.0984
X0.0Y0.0394
X1.2008Y0.5512
X1.2598Y0.5512
X1.2598Y0.0
X1.3189Y0.5512
X1.3189Y0.0
T3
G00X1.3118Y0.4457
M15
G01X1.3551Y0.4457
M16
G05
G00X1.3118Y0.1055
M15
G01X1.3551Y0.1055
M16
G05
G00X1.4862Y0.4457
M15
G01X1.5098Y0.4457
M16
G05
G00X1.4862Y0.1055
M15
G01X1.5098Y0.1055
M16
G05
M30
